{"header":{"format":1,"numTracks":7,"ticksPerBeat":960},"tracks":[[{"deltaTime":0,"channel":0,"type":"controller","controllerType":101,"value":0},{"deltaTime":0,"channel":0,"type":"controller","controllerType":100,"value":0},{"deltaTime":0,"channel":0,"type":"controller","controllerType":6,"value":12},{"deltaTime":0,"channel":0,"type":"controller","controllerType":38,"value":0},{"deltaTime":0,"channel":1,"type":"controller","controllerType":101,"value":0},{"deltaTime":0,"channel":1,"type":"controller","controllerType":100,"value":0},{"deltaTime":0,"channel":1,"type":"controller","controllerType":6,"value":12},{"deltaTime":0,"channel":1,"type":"controller","controllerType":38,"value":0},{"deltaTime":0,"channel":2,"type":"controller","controllerType":101,"value":0},{"deltaTime":0,"channel":2,"type":"controller","controllerType":100,"value":0},{"deltaTime":0,"channel":2,"type":"controller","controllerType":6,"value":12},{"deltaTime":0,"channel":2,"type":"controller","controllerType":38,"value":0},{"deltaTime":0,"channel":3,"type":"controller","controllerType":101,"value":0},{"deltaTime":0,"channel":3,"type":"controller","controllerType":100,"value":0},{"deltaTime":0,"channel":3,"type":"controller","controllerType":6,"value":12},{"deltaTime":0,"channel":3,"type":"controller","controllerType":38,"value":0},{"deltaTime":0,"channel":4,"type":"controller","controllerType":101,"value":0},{"deltaTime":0,"channel":4,"type":"controller","controllerType":100,"value":0},{"deltaTime":0,"channel":4,"type":"controller","controllerType":6,"value":12},{"deltaTime":0,"channel":4,"type":"controller","controllerType":38,"value":0},{"deltaTime":0,"channel":5,"type":"controller","controllerType":101,"value":0},{"deltaTime":0,"channel":5,"type":"controller","controllerType":100,"value":0},{"deltaTime":0,"channel":5,"type":"controller","controllerType":6,"value":12},{"deltaTime":0,"channel":5,"type":"controller","controllerType":38,"value":0},{"deltaTime":0,"channel":6,"type":"controller","controllerType":101,"value":0},{"deltaTime":0,"channel":6,"type":"controller","controllerType":100,"value":0},{"deltaTime":0,"channel":6,"type":"controller","controllerType":6,"value":12},{"deltaTime":0,"channel":6,"type":"controller","controllerType":38,"value":0},{"deltaTime":0,"channel":7,"type":"controller","controllerType":101,"value":0},{"deltaTime":0,"channel":7,"type":"controller","controllerType":100,"value":0},{"deltaTime":0,"channel":7,"type":"controller","controllerType":6,"value":12},{"deltaTime":0,"channel":7,"type":"controller","controllerType":38,"value":0},{"deltaTime":0,"channel":8,"type":"controller","controllerType":101,"value":0},{"deltaTime":0,"channel":8,"type":"controller","controllerType":100,"value":0},{"deltaTime":0,"channel":8,"type":"controller","controllerType":6,"value":12},{"deltaTime":0,"channel":8,"type":"controller","controllerType":38,"value":0},{"deltaTime":0,"channel":9,"type":"controller","controllerType":101,"value":0},{"deltaTime":0,"channel":9,"type":"controller","controllerType":100,"value":0},{"deltaTime":0,"channel":9,"type":"controller","controllerType":6,"value":12},{"deltaTime":0,"channel":9,"type":"controller","controllerType":38,"value":0},{"deltaTime":0,"channel":10,"type":"controller","controllerType":101,"value":0},{"deltaTime":0,"channel":10,"type":"controller","controllerType":100,"value":0},{"deltaTime":0,"channel":10,"type":"controller","controllerType":6,"value":12},{"deltaTime":0,"channel":10,"type":"controller","controllerType":38,"value":0},{"deltaTime":0,"channel":11,"type":"controller","controllerType":101,"value":0},{"deltaTime":0,"channel":11,"type":"controller","controllerType":100,"value":0},{"deltaTime":0,"channel":11,"type":"controller","controllerType":6,"value":12},{"deltaTime":0,"channel":11,"type":"controller","controllerType":38,"value":0},{"deltaTime":0,"channel":12,"type":"controller","controllerType":101,"value":0},{"deltaTime":0,"channel":12,"type":"controller","controllerType":100,"value":0},{"deltaTime":0,"channel":12,"type":"controller","controllerType":6,"value":12},{"deltaTime":0,"channel":12,"type":"controller","controllerType":38,"value":0},{"deltaTime":0,"channel":13,"type":"controller","controllerType":101,"value":0},{"deltaTime":0,"channel":13,"type":"controller","controllerType":100,"value":0},{"deltaTime":0,"channel":13,"type":"controller","controllerType":6,"value":12},{"deltaTime":0,"channel":13,"type":"controller","controllerType":38,"value":0},{"deltaTime":0,"channel":14,"type":"controller","controllerType":101,"value":0},{"deltaTime":0,"channel":14,"type":"controller","controllerType":100,"value":0},{"deltaTime":0,"channel":14,"type":"controller","controllerType":6,"value":12},{"deltaTime":0,"channel":14,"type":"controller","controllerType":38,"value":0},{"deltaTime":0,"channel":15,"type":"controller","controllerType":101,"value":0},{"deltaTime":0,"channel":15,"type":"controller","controllerType":100,"value":0},{"deltaTime":0,"channel":15,"type":"controller","controllerType":6,"value":12},{"deltaTime":0,"channel":15,"type":"controller","controllerType":38,"value":0},{"deltaTime":0,"meta":true,"type":"timeSignature","numerator":4,"denominator":4,"metronome":24,"thirtyseconds":8},{"deltaTime":0,"meta":true,"type":"setTempo","microsecondsPerBeat":625000},{"deltaTime":92160,"meta":true,"type":"setTempo","microsecondsPerBeat":576923},{"deltaTime":0,"meta":true,"type":"endOfTrack"}],[{"deltaTime":0,"channel":0,"type":"pitchBend","value":0},{"deltaTime":0,"channel":0,"type":"controller","controllerType":7,"value":103},{"deltaTime":0,"channel":0,"type":"controller","controllerType":10,"value":127},{"deltaTime":0,"channel":0,"type":"controller","controllerType":93,"value":0},{"deltaTime":0,"channel":0,"type":"controller","controllerType":91,"value":0},{"deltaTime":0,"channel":0,"type":"controller","controllerType":95,"value":0},{"deltaTime":0,"channel":0,"type":"controller","controllerType":92,"value":0},{"deltaTime":0,"channel":0,"type":"controller","controllerType":11,"value":127},{"deltaTime":0,"channel":0,"type":"programChange","programNumber":29},{"deltaTime":0,"channel":1,"type":"controller","controllerType":7,"value":103},{"deltaTime":0,"channel":1,"type":"controller","controllerType":10,"value":127},{"deltaTime":0,"channel":1,"type":"controller","controllerType":93,"value":0},{"deltaTime":0,"channel":1,"type":"controller","controllerType":91,"value":0},{"deltaTime":0,"channel":1,"type":"controller","controllerType":95,"value":0},{"deltaTime":0,"channel":1,"type":"controller","controllerType":92,"value":0},{"deltaTime":0,"channel":1,"type":"controller","controllerType":11,"value":127},{"deltaTime":0,"channel":1,"type":"programChange","programNumber":29},{"deltaTime":30720,"channel":0,"type":"noteOn","noteNumber":45,"velocity":79},{"deltaTime":480,"channel":0,"type":"noteOff","noteNumber":45,"velocity":79},{"deltaTime":0,"channel":0,"type":"noteOn","noteNumber":64,"velocity":79},{"deltaTime":480,"channel":0,"type":"noteOff","noteNumber":64,"velocity":79},{"deltaTime":0,"channel":0,"type":"noteOn","noteNumber":57,"velocity":79},{"deltaTime":480,"channel":0,"type":"noteOff","noteNumber":57,"velocity":79},{"deltaTime":0,"channel":0,"type":"noteOn","noteNumber":62,"velocity":79},{"deltaTime":960,"channel":0,"type":"noteOff","noteNumber":62,"velocity":79},{"deltaTime":0,"channel":0,"type":"noteOn","noteNumber":57,"velocity":79},{"deltaTime":480,"channel":0,"type":"noteOff","noteNumber":57,"velocity":79},{"deltaTime":0,"channel":0,"type":"noteOn","noteNumber":45,"velocity":79},{"deltaTime":480,"channel":0,"type":"noteOff","noteNumber":45,"velocity":79},{"deltaTime":0,"channel":0,"type":"noteOn","noteNumber":60,"velocity":79},{"deltaTime":960,"channel":0,"type":"noteOff","noteNumber":60,"velocity":79},{"deltaTime":0,"channel":0,"type":"noteOn","noteNumber":55,"velocity":79},{"deltaTime":480,"channel":0,"type":"noteOff","noteNumber":55,"velocity":79},{"deltaTime":0,"channel":0,"type":"noteOn","noteNumber":45,"velocity":79},{"deltaTime":480,"channel":0,"type":"noteOff","noteNumber":45,"velocity":79},{"deltaTime":0,"channel":0,"type":"noteOn","noteNumber":62,"velocity":79},{"deltaTime":960,"channel":0,"type":"noteOff","noteNumber":62,"velocity":79},{"deltaTime":0,"channel":0,"type":"noteOn","noteNumber":57,"velocity":79},{"deltaTime":480,"channel":0,"type":"noteOff","noteNumber":57,"velocity":79},{"deltaTime":0,"channel":0,"type":"noteOn","noteNumber":45,"velocity":79},{"deltaTime":480,"channel":0,"type":"noteOff","noteNumber":45,"velocity":79},{"deltaTime":0,"channel":0,"type":"noteOn","noteNumber":45,"velocity":79},{"deltaTime":960,"channel":0,"type":"noteOff","noteNumber":45,"velocity":79},{"deltaTime":0,"channel":0,"type":"noteOn","noteNumber":64,"velocity":79},{"deltaTime":480,"channel":0,"type":"noteOff","noteNumber":64,"velocity":79},{"deltaTime":0,"channel":0,"type":"noteOn","noteNumber":57,"velocity":79},{"deltaTime":480,"channel":0,"type":"noteOff","noteNumber":57,"velocity":79},{"deltaTime":0,"channel":0,"type":"noteOn","noteNumber":62,"velocity":79},{"deltaTime":960,"channel":0,"type":"noteOff","noteNumber":62,"velocity":79},{"deltaTime":0,"channel":0,"type":"noteOn","noteNumber":57,"velocity":79},{"deltaTime":480,"channel":0,"type":"noteOff","noteNumber":57,"velocity":79},{"deltaTime":0,"channel":0,"type":"noteOn","noteNumber":45,"velocity":79},{"deltaTime":480,"channel":0,"type":"noteOff","noteNumber":45,"velocity":79},{"deltaTime":0,"channel":0,"type":"noteOn","noteNumber":60,"velocity":79},{"deltaTime":960,"channel":0,"type":"noteOff","noteNumber":60,"velocity":79},{"deltaTime":0,"channel":0,"type":"noteOn","noteNumber":55,"velocity":79},{"deltaTime":480,"channel":0,"type":"noteOff","noteNumber":55,"velocity":79},{"deltaTime":0,"channel":0,"type":"noteOn","noteNumber":45,"velocity":79},{"deltaTime":480,"channel":0,"type":"noteOff","noteNumber":45,"velocity":79},{"deltaTime":0,"channel":0,"type":"noteOn","noteNumber":62,"velocity":79},{"deltaTime":960,"channel":0,"type":"noteOff","noteNumber":62,"velocity":79},{"deltaTime":0,"channel":0,"type":"noteOn","noteNumber":55,"velocity":79},{"deltaTime":0,"channel":0,"type":"noteOn","noteNumber":48,"velocity":79},{"deltaTime":480,"channel":0,"type":"noteOff","noteNumber":55,"velocity":79},{"deltaTime":0,"channel":0,"type":"noteOff","noteNumber":48,"velocity":79},{"deltaTime":0,"channel":0,"type":"noteOn","noteNumber":55,"velocity":79},{"deltaTime":0,"channel":0,"type":"noteOn","noteNumber":47,"velocity":79},{"deltaTime":480,"channel":0,"type":"noteOff","noteNumber":55,"velocity":79},{"deltaTime":0,"channel":0,"type":"noteOff","noteNumber":47,"velocity":79},{"deltaTime":0,"channel":0,"type":"noteOn","noteNumber":45,"velocity":79},{"deltaTime":960,"channel":0,"type":"noteOff","noteNumber":45,"velocity":79},{"deltaTime":0,"channel":0,"type":"noteOn","noteNumber":64,"velocity":79},{"deltaTime":480,"channel":0,"type":"noteOff","noteNumber":64,"velocity":79},{"deltaTime":0,"channel":0,"type":"noteOn","noteNumber":57,"velocity":79},{"deltaTime":480,"channel":0,"type":"noteOff","noteNumber":57,"velocity":79},{"deltaTime":0,"channel":0,"type":"noteOn","noteNumber":62,"velocity":79},{"deltaTime":960,"channel":0,"type":"noteOff","noteNumber":62,"velocity":79},{"deltaTime":0,"channel":0,"type":"noteOn","noteNumber":57,"velocity":79},{"deltaTime":480,"channel":0,"type":"noteOff","noteNumber":57,"velocity":79},{"deltaTime":0,"channel":0,"type":"noteOn","noteNumber":45,"velocity":79},{"deltaTime":480,"channel":0,"type":"noteOff","noteNumber":45,"velocity":79},{"deltaTime":0,"channel":0,"type":"noteOn","noteNumber":60,"velocity":79},{"deltaTime":960,"channel":0,"type":"noteOff","noteNumber":60,"velocity":79},{"deltaTime":0,"channel":0,"type":"noteOn","noteNumber":55,"velocity":79},{"deltaTime":480,"channel":0,"type":"noteOff","noteNumber":55,"velocity":79},{"deltaTime":0,"channel":0,"type":"noteOn","noteNumber":45,"velocity":79},{"deltaTime":480,"channel":0,"type":"noteOff","noteNumber":45,"velocity":79},{"deltaTime":0,"channel":0,"type":"noteOn","noteNumber":62,"velocity":79},{"deltaTime":960,"channel":0,"type":"noteOff","noteNumber":62,"velocity":79},{"deltaTime":0,"channel":0,"type":"noteOn","noteNumber":57,"velocity":79},{"deltaTime":480,"channel":0,"type":"noteOff","noteNumber":57,"velocity":79},{"deltaTime":0,"channel":0,"type":"noteOn","noteNumber":45,"velocity":79},{"deltaTime":480,"channel":0,"type":"noteOff","noteNumber":45,"velocity":79},{"deltaTime":0,"channel":0,"type":"noteOn","noteNumber":45,"velocity":79},{"deltaTime":960,"channel":0,"type":"noteOff","noteNumber":45,"velocity":79},{"deltaTime":0,"channel":0,"type":"noteOn","noteNumber":64,"velocity":79},{"deltaTime":480,"channel":0,"type":"noteOff","noteNumber":64,"velocity":79},{"deltaTime":0,"channel":0,"type":"noteOn","noteNumber":57,"velocity":79},{"deltaTime":480,"channel":0,"type":"noteOff","noteNumber":57,"velocity":79},{"deltaTime":0,"channel":0,"type":"noteOn","noteNumber":62,"velocity":79},{"deltaTime":960,"channel":0,"type":"noteOff","noteNumber":62,"velocity":79},{"deltaTime":0,"channel":0,"type":"noteOn","noteNumber":57,"velocity":79},{"deltaTime":480,"channel":0,"type":"noteOff","noteNumber":57,"velocity":79},{"deltaTime":0,"channel":0,"type":"noteOn","noteNumber":45,"velocity":79},{"deltaTime":480,"channel":0,"type":"noteOff","noteNumber":45,"velocity":79},{"deltaTime":0,"channel":0,"type":"noteOn","noteNumber":60,"velocity":79},{"deltaTime":960,"channel":0,"type":"noteOff","noteNumber":60,"velocity":79},{"deltaTime":0,"channel":0,"type":"noteOn","noteNumber":55,"velocity":79},{"deltaTime":480,"channel":0,"type":"noteOff","noteNumber":55,"velocity":79},{"deltaTime":0,"channel":0,"type":"noteOn","noteNumber":45,"velocity":79},{"deltaTime":480,"channel":0,"type":"noteOff","noteNumber":45,"velocity":79},{"deltaTime":0,"channel":0,"type":"noteOn","noteNumber":62,"velocity":79},{"deltaTime":960,"channel":0,"type":"noteOff","noteNumber":62,"velocity":79},{"deltaTime":0,"channel":0,"type":"noteOn","noteNumber":55,"velocity":79},{"deltaTime":0,"channel":0,"type":"noteOn","noteNumber":48,"velocity":79},{"deltaTime":480,"channel":0,"type":"noteOff","noteNumber":55,"velocity":79},{"deltaTime":0,"channel":0,"type":"noteOff","noteNumber":48,"velocity":79},{"deltaTime":0,"channel":0,"type":"noteOn","noteNumber":55,"velocity":79},{"deltaTime":0,"channel":0,"type":"noteOn","noteNumber":47,"velocity":79},{"deltaTime":480,"channel":0,"type":"noteOff","noteNumber":55,"velocity":79},{"deltaTime":0,"channel":0,"type":"noteOff","noteNumber":47,"velocity":79},{"deltaTime":0,"channel":0,"type":"noteOn","noteNumber":45,"velocity":79},{"deltaTime":960,"channel":0,"type":"noteOff","noteNumber":45,"velocity":79},{"deltaTime":0,"channel":0,"type":"noteOn","noteNumber":64,"velocity":79},{"deltaTime":480,"channel":0,"type":"noteOff","noteNumber":64,"velocity":79},{"deltaTime":0,"channel":0,"type":"noteOn","noteNumber":57,"velocity":79},{"deltaTime":480,"channel":0,"type":"noteOff","noteNumber":57,"velocity":79},{"deltaTime":0,"channel":0,"type":"noteOn","noteNumber":62,"velocity":79},{"deltaTime":960,"channel":0,"type":"noteOff","noteNumber":62,"velocity":79},{"deltaTime":0,"channel":0,"type":"noteOn","noteNumber":57,"velocity":79},{"deltaTime":480,"channel":0,"type":"noteOff","noteNumber":57,"velocity":79},{"deltaTime":0,"channel":0,"type":"noteOn","noteNumber":45,"velocity":79},{"deltaTime":480,"channel":0,"type":"noteOff","noteNumber":45,"velocity":79},{"deltaTime":0,"channel":0,"type":"noteOn","noteNumber":60,"velocity":79},{"deltaTime":960,"channel":0,"type":"noteOff","noteNumber":60,"velocity":79},{"deltaTime":0,"channel":0,"type":"noteOn","noteNumber":55,"velocity":79},{"deltaTime":480,"channel":0,"type":"noteOff","noteNumber":55,"velocity":79},{"deltaTime":0,"channel":0,"type":"noteOn","noteNumber":45,"velocity":79},{"deltaTime":480,"channel":0,"type":"noteOff","noteNumber":45,"velocity":79},{"deltaTime":0,"channel":0,"type":"noteOn","noteNumber":62,"velocity":79},{"deltaTime":960,"channel":0,"type":"noteOff","noteNumber":62,"velocity":79},{"deltaTime":0,"channel":0,"type":"noteOn","noteNumber":57,"velocity":79},{"deltaTime":480,"channel":0,"type":"noteOff","noteNumber":57,"velocity":79},{"deltaTime":0,"channel":0,"type":"noteOn","noteNumber":45,"velocity":79},{"deltaTime":480,"channel":0,"type":"noteOff","noteNumber":45,"velocity":79},{"deltaTime":0,"channel":0,"type":"noteOn","noteNumber":45,"velocity":79},{"deltaTime":960,"channel":0,"type":"noteOff","noteNumber":45,"velocity":79},{"deltaTime":0,"channel":0,"type":"noteOn","noteNumber":64,"velocity":79},{"deltaTime":480,"channel":0,"type":"noteOff","noteNumber":64,"velocity":79},{"deltaTime":0,"channel":0,"type":"noteOn","noteNumber":57,"velocity":79},{"deltaTime":480,"channel":0,"type":"noteOff","noteNumber":57,"velocity":79},{"deltaTime":0,"channel":0,"type":"noteOn","noteNumber":62,"velocity":79},{"deltaTime":960,"channel":0,"type":"noteOff","noteNumber":62,"velocity":79},{"deltaTime":0,"channel":0,"type":"noteOn","noteNumber":57,"velocity":79},{"deltaTime":480,"channel":0,"type":"noteOff","noteNumber":57,"velocity":79},{"deltaTime":0,"channel":0,"type":"noteOn","noteNumber":45,"velocity":79},{"deltaTime":480,"channel":0,"type":"noteOff","noteNumber":45,"velocity":79},{"deltaTime":0,"channel":0,"type":"noteOn","noteNumber":60,"velocity":79},{"deltaTime":960,"channel":0,"type":"noteOff","noteNumber":60,"velocity":79},{"deltaTime":0,"channel":0,"type":"noteOn","noteNumber":55,"velocity":79},{"deltaTime":480,"channel":0,"type":"noteOff","noteNumber":55,"velocity":79},{"deltaTime":0,"channel":0,"type":"noteOn","noteNumber":45,"velocity":79},{"deltaTime":480,"channel":0,"type":"noteOff","noteNumber":45,"velocity":79},{"deltaTime":0,"channel":0,"type":"noteOn","noteNumber":62,"velocity":79},{"deltaTime":960,"channel":0,"type":"noteOff","noteNumber":62,"velocity":79},{"deltaTime":0,"channel":0,"type":"noteOn","noteNumber":55,"velocity":79},{"deltaTime":0,"channel":0,"type":"noteOn","noteNumber":48,"velocity":79},{"deltaTime":480,"channel":0,"type":"noteOff","noteNumber":55,"velocity":79},{"deltaTime":0,"channel":0,"type":"noteOff","noteNumber":48,"velocity":79},{"deltaTime":0,"channel":0,"type":"noteOn","noteNumber":55,"velocity":79},{"deltaTime":0,"channel":0,"type":"noteOn","noteNumber":47,"velocity":79},{"deltaTime":480,"channel":0,"type":"noteOff","noteNumber":55,"velocity":79},{"deltaTime":0,"channel":0,"type":"noteOff","noteNumber":47,"velocity":79},{"deltaTime":0,"channel":0,"type":"noteOn","noteNumber":45,"velocity":79},{"deltaTime":960,"channel":0,"type":"noteOff","noteNumber":45,"velocity":79},{"deltaTime":0,"channel":0,"type":"noteOn","noteNumber":64,"velocity":79},{"deltaTime":480,"channel":0,"type":"noteOff","noteNumber":64,"velocity":79},{"deltaTime":0,"channel":0,"type":"noteOn","noteNumber":57,"velocity":79},{"deltaTime":480,"channel":0,"type":"noteOff","noteNumber":57,"velocity":79},{"deltaTime":0,"channel":0,"type":"noteOn","noteNumber":62,"velocity":79},{"deltaTime":960,"channel":0,"type":"noteOff","noteNumber":62,"velocity":79},{"deltaTime":0,"channel":0,"type":"noteOn","noteNumber":57,"velocity":79},{"deltaTime":480,"channel":0,"type":"noteOff","noteNumber":57,"velocity":79},{"deltaTime":0,"channel":0,"type":"noteOn","noteNumber":45,"velocity":79},{"deltaTime":480,"channel":0,"type":"noteOff","noteNumber":45,"velocity":79},{"deltaTime":0,"channel":0,"type":"noteOn","noteNumber":60,"velocity":79},{"deltaTime":960,"channel":0,"type":"noteOff","noteNumber":60,"velocity":79},{"deltaTime":0,"channel":0,"type":"noteOn","noteNumber":55,"velocity":79},{"deltaTime":480,"channel":0,"type":"noteOff","noteNumber":55,"velocity":79},{"deltaTime":0,"channel":0,"type":"noteOn","noteNumber":45,"velocity":79},{"deltaTime":480,"channel":0,"type":"noteOff","noteNumber":45,"velocity":79},{"deltaTime":0,"channel":0,"type":"noteOn","noteNumber":62,"velocity":79},{"deltaTime":960,"channel":0,"type":"noteOff","noteNumber":62,"velocity":79},{"deltaTime":0,"channel":0,"type":"noteOn","noteNumber":57,"velocity":79},{"deltaTime":480,"channel":0,"type":"noteOff","noteNumber":57,"velocity":79},{"deltaTime":0,"channel":0,"type":"noteOn","noteNumber":45,"velocity":79},{"deltaTime":480,"channel":0,"type":"noteOff","noteNumber":45,"velocity":79},{"deltaTime":0,"channel":0,"type":"noteOn","noteNumber":45,"velocity":79},{"deltaTime":960,"channel":0,"type":"noteOff","noteNumber":45,"velocity":79},{"deltaTime":0,"channel":0,"type":"noteOn","noteNumber":64,"velocity":79},{"deltaTime":480,"channel":0,"type":"noteOff","noteNumber":64,"velocity":79},{"deltaTime":0,"channel":0,"type":"noteOn","noteNumber":57,"velocity":79},{"deltaTime":480,"channel":0,"type":"noteOff","noteNumber":57,"velocity":79},{"deltaTime":0,"channel":0,"type":"noteOn","noteNumber":62,"velocity":79},{"deltaTime":960,"channel":0,"type":"noteOff","noteNumber":62,"velocity":79},{"deltaTime":0,"channel":0,"type":"noteOn","noteNumber":57,"velocity":79},{"deltaTime":480,"channel":0,"type":"noteOff","noteNumber":57,"velocity":79},{"deltaTime":0,"channel":0,"type":"noteOn","noteNumber":45,"velocity":79},{"deltaTime":480,"channel":0,"type":"noteOff","noteNumber":45,"velocity":79},{"deltaTime":0,"channel":0,"type":"noteOn","noteNumber":60,"velocity":79},{"deltaTime":960,"channel":0,"type":"noteOff","noteNumber":60,"velocity":79},{"deltaTime":0,"channel":0,"type":"noteOn","noteNumber":55,"velocity":79},{"deltaTime":480,"channel":0,"type":"noteOff","noteNumber":55,"velocity":79},{"deltaTime":0,"channel":0,"type":"noteOn","noteNumber":45,"velocity":79},{"deltaTime":480,"channel":0,"type":"noteOff","noteNumber":45,"velocity":79},{"deltaTime":0,"channel":0,"type":"noteOn","noteNumber":62,"velocity":79},{"deltaTime":960,"channel":0,"type":"noteOff","noteNumber":62,"velocity":79},{"deltaTime":0,"channel":0,"type":"noteOn","noteNumber":55,"velocity":79},{"deltaTime":0,"channel":0,"type":"noteOn","noteNumber":48,"velocity":79},{"deltaTime":480,"channel":0,"type":"noteOff","noteNumber":55,"velocity":79},{"deltaTime":0,"channel":0,"type":"noteOff","noteNumber":48,"velocity":79},{"deltaTime":0,"channel":0,"type":"noteOn","noteNumber":55,"velocity":79},{"deltaTime":0,"channel":0,"type":"noteOn","noteNumber":47,"velocity":79},{"deltaTime":480,"channel":0,"type":"noteOff","noteNumber":55,"velocity":79},{"deltaTime":0,"channel":0,"type":"noteOff","noteNumber":47,"velocity":79},{"deltaTime":0,"channel":0,"type":"noteOn","noteNumber":45,"velocity":79},{"deltaTime":960,"channel":0,"type":"noteOff","noteNumber":45,"velocity":79},{"deltaTime":0,"channel":0,"type":"noteOn","noteNumber":64,"velocity":111},{"deltaTime":480,"channel":0,"type":"noteOff","noteNumber":64,"velocity":111},{"deltaTime":0,"channel":0,"type":"noteOn","noteNumber":57,"velocity":111},{"deltaTime":480,"channel":0,"type":"noteOff","noteNumber":57,"velocity":111},{"deltaTime":0,"channel":0,"type":"noteOn","noteNumber":62,"velocity":111},{"deltaTime":960,"channel":0,"type":"noteOff","noteNumber":62,"velocity":111},{"deltaTime":0,"channel":0,"type":"noteOn","noteNumber":57,"velocity":111},{"deltaTime":480,"channel":0,"type":"noteOff","noteNumber":57,"velocity":111},{"deltaTime":0,"channel":0,"type":"noteOn","noteNumber":45,"velocity":111},{"deltaTime":480,"channel":0,"type":"noteOff","noteNumber":45,"velocity":111},{"deltaTime":0,"channel":0,"type":"noteOn","noteNumber":60,"velocity":111},{"deltaTime":960,"channel":0,"type":"noteOff","noteNumber":60,"velocity":111},{"deltaTime":0,"channel":0,"type":"noteOn","noteNumber":55,"velocity":111},{"deltaTime":480,"channel":0,"type":"noteOff","noteNumber":55,"velocity":111},{"deltaTime":0,"channel":0,"type":"noteOn","noteNumber":45,"velocity":111},{"deltaTime":480,"channel":0,"type":"noteOff","noteNumber":45,"velocity":111},{"deltaTime":0,"channel":0,"type":"noteOn","noteNumber":62,"velocity":111},{"deltaTime":960,"channel":0,"type":"noteOff","noteNumber":62,"velocity":111},{"deltaTime":0,"channel":0,"type":"noteOn","noteNumber":57,"velocity":111},{"deltaTime":480,"channel":0,"type":"noteOff","noteNumber":57,"velocity":111},{"deltaTime":0,"channel":0,"type":"noteOn","noteNumber":45,"velocity":111},{"deltaTime":480,"channel":0,"type":"noteOff","noteNumber":45,"velocity":111},{"deltaTime":0,"channel":0,"type":"noteOn","noteNumber":45,"velocity":111},{"deltaTime":960,"channel":0,"type":"noteOff","noteNumber":45,"velocity":111},{"deltaTime":0,"channel":0,"type":"noteOn","noteNumber":64,"velocity":111},{"deltaTime":480,"channel":0,"type":"noteOff","noteNumber":64,"velocity":111},{"deltaTime":0,"channel":0,"type":"noteOn","noteNumber":57,"velocity":111},{"deltaTime":480,"channel":0,"type":"noteOff","noteNumber":57,"velocity":111},{"deltaTime":0,"channel":0,"type":"noteOn","noteNumber":62,"velocity":111},{"deltaTime":960,"channel":0,"type":"noteOff","noteNumber":62,"velocity":111},{"deltaTime":0,"channel":0,"type":"noteOn","noteNumber":57,"velocity":111},{"deltaTime":480,"channel":0,"type":"noteOff","noteNumber":57,"velocity":111},{"deltaTime":0,"channel":0,"type":"noteOn","noteNumber":45,"velocity":111},{"deltaTime":480,"channel":0,"type":"noteOff","noteNumber":45,"velocity":111},{"deltaTime":0,"channel":0,"type":"noteOn","noteNumber":60,"velocity":111},{"deltaTime":960,"channel":0,"type":"noteOff","noteNumber":60,"velocity":111},{"deltaTime":0,"channel":0,"type":"noteOn","noteNumber":55,"velocity":111},{"deltaTime":480,"channel":0,"type":"noteOff","noteNumber":55,"velocity":111},{"deltaTime":0,"channel":0,"type":"noteOn","noteNumber":45,"velocity":111},{"deltaTime":480,"channel":0,"type":"noteOff","noteNumber":45,"velocity":111},{"deltaTime":0,"channel":0,"type":"noteOn","noteNumber":62,"velocity":111},{"deltaTime":960,"channel":0,"type":"noteOff","noteNumber":62,"velocity":111},{"deltaTime":0,"channel":0,"type":"noteOn","noteNumber":55,"velocity":111},{"deltaTime":0,"channel":0,"type":"noteOn","noteNumber":48,"velocity":111},{"deltaTime":480,"channel":0,"type":"noteOff","noteNumber":55,"velocity":111},{"deltaTime":0,"channel":0,"type":"noteOff","noteNumber":48,"velocity":111},{"deltaTime":0,"channel":0,"type":"noteOn","noteNumber":55,"velocity":111},{"deltaTime":0,"channel":0,"type":"noteOn","noteNumber":47,"velocity":111},{"deltaTime":480,"channel":0,"type":"noteOff","noteNumber":55,"velocity":111},{"deltaTime":0,"channel":0,"type":"noteOff","noteNumber":47,"velocity":111},{"deltaTime":0,"channel":0,"type":"noteOn","noteNumber":45,"velocity":111},{"deltaTime":960,"channel":0,"type":"noteOff","noteNumber":45,"velocity":111},{"deltaTime":0,"channel":0,"type":"noteOn","noteNumber":64,"velocity":111},{"deltaTime":480,"channel":0,"type":"noteOff","noteNumber":64,"velocity":111},{"deltaTime":0,"channel":0,"type":"noteOn","noteNumber":57,"velocity":111},{"deltaTime":480,"channel":0,"type":"noteOff","noteNumber":57,"velocity":111},{"deltaTime":0,"channel":0,"type":"noteOn","noteNumber":62,"velocity":111},{"deltaTime":960,"channel":0,"type":"noteOff","noteNumber":62,"velocity":111},{"deltaTime":0,"channel":0,"type":"noteOn","noteNumber":57,"velocity":111},{"deltaTime":480,"channel":0,"type":"noteOff","noteNumber":57,"velocity":111},{"deltaTime":0,"channel":0,"type":"noteOn","noteNumber":45,"velocity":111},{"deltaTime":480,"channel":0,"type":"noteOff","noteNumber":45,"velocity":111},{"deltaTime":0,"channel":0,"type":"noteOn","noteNumber":60,"velocity":111},{"deltaTime":960,"channel":0,"type":"noteOff","noteNumber":60,"velocity":111},{"deltaTime":0,"channel":0,"type":"noteOn","noteNumber":55,"velocity":111},{"deltaTime":480,"channel":0,"type":"noteOff","noteNumber":55,"velocity":111},{"deltaTime":0,"channel":0,"type":"noteOn","noteNumber":45,"velocity":111},{"deltaTime":480,"channel":0,"type":"noteOff","noteNumber":45,"velocity":111},{"deltaTime":0,"channel":0,"type":"noteOn","noteNumber":62,"velocity":111},{"deltaTime":960,"channel":0,"type":"noteOff","noteNumber":62,"velocity":111},{"deltaTime":0,"channel":0,"type":"noteOn","noteNumber":57,"velocity":111},{"deltaTime":480,"channel":0,"type":"noteOff","noteNumber":57,"velocity":111},{"deltaTime":0,"channel":0,"type":"noteOn","noteNumber":45,"velocity":111},{"deltaTime":480,"channel":0,"type":"noteOff","noteNumber":45,"velocity":111},{"deltaTime":0,"channel":0,"type":"noteOn","noteNumber":45,"velocity":111},{"deltaTime":960,"channel":0,"type":"noteOff","noteNumber":45,"velocity":111},{"deltaTime":0,"channel":0,"type":"noteOn","noteNumber":64,"velocity":111},{"deltaTime":480,"channel":0,"type":"noteOff","noteNumber":64,"velocity":111},{"deltaTime":0,"channel":0,"type":"noteOn","noteNumber":57,"velocity":111},{"deltaTime":480,"channel":0,"type":"noteOff","noteNumber":57,"velocity":111},{"deltaTime":0,"channel":0,"type":"noteOn","noteNumber":62,"velocity":111},{"deltaTime":960,"channel":0,"type":"noteOff","noteNumber":62,"velocity":111},{"deltaTime":0,"channel":0,"type":"noteOn","noteNumber":57,"velocity":111},{"deltaTime":480,"channel":0,"type":"noteOff","noteNumber":57,"velocity":111},{"deltaTime":0,"channel":0,"type":"noteOn","noteNumber":45,"velocity":111},{"deltaTime":480,"channel":0,"type":"noteOff","noteNumber":45,"velocity":111},{"deltaTime":0,"channel":0,"type":"noteOn","noteNumber":62,"velocity":111},{"deltaTime":0,"channel":0,"type":"noteOn","noteNumber":55,"velocity":111},{"deltaTime":0,"channel":0,"type":"noteOn","noteNumber":50,"velocity":111},{"deltaTime":0,"channel":0,"type":"noteOn","noteNumber":45,"velocity":111},{"deltaTime":0,"channel":0,"type":"noteOn","noteNumber":43,"velocity":111},{"deltaTime":52,"channel":0,"type":"noteOff","noteNumber":45,"velocity":111},{"deltaTime":908,"channel":0,"type":"noteOff","noteNumber":62,"velocity":111},{"deltaTime":0,"channel":0,"type":"noteOff","noteNumber":55,"velocity":111},{"deltaTime":0,"channel":0,"type":"noteOff","noteNumber":50,"velocity":111},{"deltaTime":0,"channel":0,"type":"noteOff","noteNumber":43,"velocity":111},{"deltaTime":0,"channel":0,"type":"noteOn","noteNumber":62,"velocity":111},{"deltaTime":0,"channel":0,"type":"noteOn","noteNumber":55,"velocity":111},{"deltaTime":0,"channel":0,"type":"noteOn","noteNumber":50,"velocity":111},{"deltaTime":0,"channel":0,"type":"noteOn","noteNumber":45,"velocity":111},{"deltaTime":0,"channel":0,"type":"noteOn","noteNumber":43,"velocity":111},{"deltaTime":52,"channel":0,"type":"noteOff","noteNumber":45,"velocity":111},{"deltaTime":428,"channel":0,"type":"noteOff","noteNumber":62,"velocity":111},{"deltaTime":0,"channel":0,"type":"noteOff","noteNumber":55,"velocity":111},{"deltaTime":0,"channel":0,"type":"noteOff","noteNumber":50,"velocity":111},{"deltaTime":0,"channel":0,"type":"noteOff","noteNumber":43,"velocity":111},{"deltaTime":0,"channel":0,"type":"noteOn","noteNumber":50,"velocity":111},{"deltaTime":0,"channel":0,"type":"noteOn","noteNumber":45,"velocity":111},{"deltaTime":480,"channel":0,"type":"noteOff","noteNumber":50,"velocity":111},{"deltaTime":0,"channel":0,"type":"noteOff","noteNumber":45,"velocity":111},{"deltaTime":0,"channel":0,"type":"noteOn","noteNumber":62,"velocity":111},{"deltaTime":0,"channel":0,"type":"noteOn","noteNumber":57,"velocity":111},{"deltaTime":0,"channel":0,"type":"noteOn","noteNumber":50,"velocity":111},{"deltaTime":960,"channel":0,"type":"noteOff","noteNumber":62,"velocity":111},{"deltaTime":0,"channel":0,"type":"noteOff","noteNumber":57,"velocity":111},{"deltaTime":0,"channel":0,"type":"noteOff","noteNumber":50,"velocity":111},{"deltaTime":0,"channel":1,"type":"pitchBend","value":0},{"deltaTime":0,"channel":1,"type":"noteOn","noteNumber":48,"velocity":111},{"deltaTime":120,"channel":1,"type":"pitchBend","value":128},{"deltaTime":120,"channel":1,"type":"pitchBend","value":256},{"deltaTime":0,"channel":1,"type":"pitchBend","value":256},{"deltaTime":240,"channel":1,"type":"pitchBend","value":256},{"deltaTime":0,"channel":1,"type":"pitchBend","value":0},{"deltaTime":0,"channel":1,"type":"noteOff","noteNumber":48,"velocity":111},{"deltaTime":0,"channel":0,"type":"noteOn","noteNumber":47,"velocity":111},{"deltaTime":480,"channel":0,"type":"noteOff","noteNumber":47,"velocity":111},{"deltaTime":0,"channel":0,"type":"noteOn","noteNumber":45,"velocity":111},{"deltaTime":960,"channel":0,"type":"noteOff","noteNumber":45,"velocity":111},{"deltaTime":0,"channel":0,"type":"noteOn","noteNumber":64,"velocity":111},{"deltaTime":0,"channel":0,"type":"noteOn","noteNumber":57,"velocity":111},{"deltaTime":480,"channel":0,"type":"noteOff","noteNumber":64,"velocity":111},{"deltaTime":0,"channel":0,"type":"noteOff","noteNumber":57,"velocity":111},{"deltaTime":0,"channel":0,"type":"noteOn","noteNumber":62,"velocity":111},{"deltaTime":0,"channel":0,"type":"noteOn","noteNumber":57,"velocity":111},{"deltaTime":480,"channel":0,"type":"noteOff","noteNumber":62,"velocity":111},{"deltaTime":0,"channel":0,"type":"noteOff","noteNumber":57,"velocity":111},{"deltaTime":0,"channel":0,"type":"noteOn","noteNumber":64,"velocity":111},{"deltaTime":0,"channel":0,"type":"noteOn","noteNumber":57,"velocity":111},{"deltaTime":480,"channel":0,"type":"noteOff","noteNumber":64,"velocity":111},{"deltaTime":0,"channel":0,"type":"noteOff","noteNumber":57,"velocity":111},{"deltaTime":480,"channel":0,"type":"noteOn","noteNumber":62,"velocity":111},{"deltaTime":0,"channel":0,"type":"noteOn","noteNumber":57,"velocity":111},{"deltaTime":480,"channel":0,"type":"noteOff","noteNumber":62,"velocity":111},{"deltaTime":0,"channel":0,"type":"noteOff","noteNumber":57,"velocity":111},{"deltaTime":0,"channel":0,"type":"noteOn","noteNumber":60,"velocity":111},{"deltaTime":0,"channel":0,"type":"noteOn","noteNumber":55,"velocity":111},{"deltaTime":480,"channel":0,"type":"noteOff","noteNumber":60,"velocity":111},{"deltaTime":0,"channel":0,"type":"noteOff","noteNumber":55,"velocity":111},{"deltaTime":0,"channel":0,"type":"noteOn","noteNumber":62,"velocity":111},{"deltaTime":0,"channel":0,"type":"noteOn","noteNumber":57,"velocity":111},{"deltaTime":1920,"channel":0,"type":"noteOff","noteNumber":62,"velocity":111},{"deltaTime":0,"channel":0,"type":"noteOff","noteNumber":57,"velocity":111},{"deltaTime":0,"channel":0,"type":"noteOn","noteNumber":45,"velocity":111},{"deltaTime":480,"channel":0,"type":"noteOff","noteNumber":45,"velocity":111},{"deltaTime":0,"channel":0,"type":"noteOn","noteNumber":55,"velocity":111},{"deltaTime":0,"channel":0,"type":"noteOn","noteNumber":48,"velocity":111},{"deltaTime":960,"channel":0,"type":"noteOff","noteNumber":55,"velocity":111},{"deltaTime":0,"channel":0,"type":"noteOff","noteNumber":48,"velocity":111},{"deltaTime":0,"channel":0,"type":"noteOn","noteNumber":55,"velocity":111},{"deltaTime":0,"channel":0,"type":"noteOn","noteNumber":47,"velocity":111},{"deltaTime":960,"channel":0,"type":"noteOff","noteNumber":55,"velocity":111},{"deltaTime":0,"channel":0,"type":"noteOff","noteNumber":47,"velocity":111},{"deltaTime":0,"channel":0,"type":"noteOn","noteNumber":45,"velocity":111},{"deltaTime":480,"channel":0,"type":"noteOff","noteNumber":45,"velocity":111},{"deltaTime":0,"channel":0,"type":"noteOn","noteNumber":64,"velocity":111},{"deltaTime":0,"channel":0,"type":"noteOn","noteNumber":57,"velocity":111},{"deltaTime":480,"channel":0,"type":"noteOff","noteNumber":64,"velocity":111},{"deltaTime":0,"channel":0,"type":"noteOff","noteNumber":57,"velocity":111},{"deltaTime":0,"channel":0,"type":"noteOn","noteNumber":62,"velocity":111},{"deltaTime":0,"channel":0,"type":"noteOn","noteNumber":57,"velocity":111},{"deltaTime":480,"channel":0,"type":"noteOff","noteNumber":62,"velocity":111},{"deltaTime":0,"channel":0,"type":"noteOff","noteNumber":57,"velocity":111},{"deltaTime":0,"channel":0,"type":"noteOn","noteNumber":64,"velocity":111},{"deltaTime":0,"channel":0,"type":"noteOn","noteNumber":57,"velocity":111},{"deltaTime":480,"channel":0,"type":"noteOff","noteNumber":64,"velocity":111},{"deltaTime":0,"channel":0,"type":"noteOff","noteNumber":57,"velocity":111},{"deltaTime":480,"channel":0,"type":"noteOn","noteNumber":62,"velocity":111},{"deltaTime":0,"channel":0,"type":"noteOn","noteNumber":57,"velocity":111},{"deltaTime":480,"channel":0,"type":"noteOff","noteNumber":62,"velocity":111},{"deltaTime":0,"channel":0,"type":"noteOff","noteNumber":57,"velocity":111},{"deltaTime":0,"channel":0,"type":"noteOn","noteNumber":60,"velocity":111},{"deltaTime":0,"channel":0,"type":"noteOn","noteNumber":55,"velocity":111},{"deltaTime":480,"channel":0,"type":"noteOff","noteNumber":60,"velocity":111},{"deltaTime":0,"channel":0,"type":"noteOff","noteNumber":55,"velocity":111},{"deltaTime":0,"channel":0,"type":"noteOn","noteNumber":62,"velocity":111},{"deltaTime":0,"channel":0,"type":"noteOn","noteNumber":57,"velocity":111},{"deltaTime":1920,"channel":0,"type":"noteOff","noteNumber":62,"velocity":111},{"deltaTime":0,"channel":0,"type":"noteOff","noteNumber":57,"velocity":111},{"deltaTime":0,"channel":0,"type":"noteOn","noteNumber":45,"velocity":111},{"deltaTime":480,"channel":0,"type":"noteOff","noteNumber":45,"velocity":111},{"deltaTime":0,"channel":0,"type":"noteOn","noteNumber":55,"velocity":111},{"deltaTime":0,"channel":0,"type":"noteOn","noteNumber":48,"velocity":111},{"deltaTime":960,"channel":0,"type":"noteOff","noteNumber":55,"velocity":111},{"deltaTime":0,"channel":0,"type":"noteOff","noteNumber":48,"velocity":111},{"deltaTime":0,"channel":0,"type":"noteOn","noteNumber":55,"velocity":111},{"deltaTime":0,"channel":0,"type":"noteOn","noteNumber":47,"velocity":111},{"deltaTime":960,"channel":0,"type":"noteOff","noteNumber":55,"velocity":111},{"deltaTime":0,"channel":0,"type":"noteOff","noteNumber":47,"velocity":111},{"deltaTime":0,"channel":0,"type":"noteOn","noteNumber":45,"velocity":111},{"deltaTime":480,"channel":0,"type":"noteOff","noteNumber":45,"velocity":111},{"deltaTime":0,"channel":0,"type":"noteOn","noteNumber":52,"velocity":111},{"deltaTime":0,"channel":0,"type":"noteOn","noteNumber":45,"velocity":111},{"deltaTime":480,"channel":0,"type":"noteOff","noteNumber":52,"velocity":111},{"deltaTime":0,"channel":0,"type":"noteOff","noteNumber":45,"velocity":111},{"deltaTime":0,"channel":0,"type":"noteOn","noteNumber":50,"velocity":111},{"deltaTime":0,"channel":0,"type":"noteOn","noteNumber":45,"velocity":111},{"deltaTime":480,"channel":0,"type":"noteOff","noteNumber":50,"velocity":111},{"deltaTime":0,"channel":0,"type":"noteOff","noteNumber":45,"velocity":111},{"deltaTime":0,"channel":0,"type":"noteOn","noteNumber":52,"velocity":111},{"deltaTime":0,"channel":0,"type":"noteOn","noteNumber":45,"velocity":111},{"deltaTime":480,"channel":0,"type":"noteOff","noteNumber":52,"velocity":111},{"deltaTime":0,"channel":0,"type":"noteOff","noteNumber":45,"velocity":111},{"deltaTime":480,"channel":0,"type":"noteOn","noteNumber":62,"velocity":111},{"deltaTime":0,"channel":0,"type":"noteOn","noteNumber":57,"velocity":111},{"deltaTime":0,"channel":0,"type":"noteOn","noteNumber":50,"velocity":111},{"deltaTime":480,"channel":0,"type":"noteOff","noteNumber":62,"velocity":111},{"deltaTime":0,"channel":0,"type":"noteOff","noteNumber":57,"velocity":111},{"deltaTime":0,"channel":0,"type":"noteOff","noteNumber":50,"velocity":111},{"deltaTime":0,"channel":0,"type":"noteOn","noteNumber":55,"velocity":111},{"deltaTime":0,"channel":0,"type":"noteOn","noteNumber":50,"velocity":111},{"deltaTime":480,"channel":0,"type":"noteOff","noteNumber":55,"velocity":111},{"deltaTime":0,"channel":0,"type":"noteOff","noteNumber":50,"velocity":111},{"deltaTime":0,"channel":0,"type":"noteOn","noteNumber":62,"velocity":111},{"deltaTime":0,"channel":0,"type":"noteOn","noteNumber":57,"velocity":111},{"deltaTime":0,"channel":0,"type":"noteOn","noteNumber":50,"velocity":111},{"deltaTime":480,"channel":0,"type":"noteOff","noteNumber":62,"velocity":111},{"deltaTime":0,"channel":0,"type":"noteOff","noteNumber":57,"velocity":111},{"deltaTime":0,"channel":0,"type":"noteOff","noteNumber":50,"velocity":111},{"deltaTime":480,"channel":0,"type":"noteOn","noteNumber":50,"velocity":111},{"deltaTime":480,"channel":0,"type":"noteOff","noteNumber":50,"velocity":111},{"deltaTime":0,"channel":0,"type":"noteOn","noteNumber":50,"velocity":111},{"deltaTime":480,"channel":0,"type":"noteOff","noteNumber":50,"velocity":111},{"deltaTime":0,"channel":0,"type":"noteOn","noteNumber":45,"velocity":111},{"deltaTime":480,"channel":0,"type":"noteOff","noteNumber":45,"velocity":111},{"deltaTime":0,"channel":0,"type":"noteOn","noteNumber":55,"velocity":111},{"deltaTime":0,"channel":0,"type":"noteOn","noteNumber":48,"velocity":111},{"deltaTime":960,"channel":0,"type":"noteOff","noteNumber":55,"velocity":111},{"deltaTime":0,"channel":0,"type":"noteOff","noteNumber":48,"velocity":111},{"deltaTime":0,"channel":0,"type":"noteOn","noteNumber":55,"velocity":111},{"deltaTime":0,"channel":0,"type":"noteOn","noteNumber":47,"velocity":111},{"deltaTime":960,"channel":0,"type":"noteOff","noteNumber":55,"velocity":111},{"deltaTime":0,"channel":0,"type":"noteOff","noteNumber":47,"velocity":111},{"deltaTime":0,"channel":0,"type":"noteOn","noteNumber":45,"velocity":111},{"deltaTime":480,"channel":0,"type":"noteOff","noteNumber":45,"velocity":111},{"deltaTime":0,"channel":0,"type":"noteOn","noteNumber":52,"velocity":111},{"deltaTime":0,"channel":0,"type":"noteOn","noteNumber":45,"velocity":111},{"deltaTime":480,"channel":0,"type":"noteOff","noteNumber":52,"velocity":111},{"deltaTime":0,"channel":0,"type":"noteOff","noteNumber":45,"velocity":111},{"deltaTime":0,"channel":0,"type":"noteOn","noteNumber":50,"velocity":111},{"deltaTime":0,"channel":0,"type":"noteOn","noteNumber":45,"velocity":111},{"deltaTime":480,"channel":0,"type":"noteOff","noteNumber":50,"velocity":111},{"deltaTime":0,"channel":0,"type":"noteOff","noteNumber":45,"velocity":111},{"deltaTime":0,"channel":0,"type":"noteOn","noteNumber":52,"velocity":111},{"deltaTime":0,"channel":0,"type":"noteOn","noteNumber":45,"velocity":111},{"deltaTime":480,"channel":0,"type":"noteOff","noteNumber":52,"velocity":111},{"deltaTime":0,"channel":0,"type":"noteOff","noteNumber":45,"velocity":111},{"deltaTime":480,"channel":0,"type":"noteOn","noteNumber":62,"velocity":111},{"deltaTime":0,"channel":0,"type":"noteOn","noteNumber":57,"velocity":111},{"deltaTime":0,"channel":0,"type":"noteOn","noteNumber":50,"velocity":111},{"deltaTime":480,"channel":0,"type":"noteOff","noteNumber":62,"velocity":111},{"deltaTime":0,"channel":0,"type":"noteOff","noteNumber":57,"velocity":111},{"deltaTime":0,"channel":0,"type":"noteOff","noteNumber":50,"velocity":111},{"deltaTime":0,"channel":0,"type":"noteOn","noteNumber":55,"velocity":111},{"deltaTime":0,"channel":0,"type":"noteOn","noteNumber":50,"velocity":111},{"deltaTime":480,"channel":0,"type":"noteOff","noteNumber":55,"velocity":111},{"deltaTime":0,"channel":0,"type":"noteOff","noteNumber":50,"velocity":111},{"deltaTime":0,"channel":0,"type":"noteOn","noteNumber":62,"velocity":111},{"deltaTime":0,"channel":0,"type":"noteOn","noteNumber":57,"velocity":111},{"deltaTime":0,"channel":0,"type":"noteOn","noteNumber":50,"velocity":111},{"deltaTime":480,"channel":0,"type":"noteOff","noteNumber":62,"velocity":111},{"deltaTime":0,"channel":0,"type":"noteOff","noteNumber":57,"velocity":111},{"deltaTime":0,"channel":0,"type":"noteOff","noteNumber":50,"velocity":111},{"deltaTime":480,"channel":0,"type":"noteOn","noteNumber":50,"velocity":111},{"deltaTime":480,"channel":0,"type":"noteOff","noteNumber":50,"velocity":111},{"deltaTime":0,"channel":0,"type":"noteOn","noteNumber":50,"velocity":111},{"deltaTime":480,"channel":0,"type":"noteOff","noteNumber":50,"velocity":111},{"deltaTime":0,"channel":0,"type":"noteOn","noteNumber":45,"velocity":111},{"deltaTime":480,"channel":0,"type":"noteOff","noteNumber":45,"velocity":111},{"deltaTime":0,"channel":0,"type":"noteOn","noteNumber":55,"velocity":111},{"deltaTime":0,"channel":0,"type":"noteOn","noteNumber":48,"velocity":111},{"deltaTime":960,"channel":0,"type":"noteOff","noteNumber":55,"velocity":111},{"deltaTime":0,"channel":0,"type":"noteOff","noteNumber":48,"velocity":111},{"deltaTime":0,"channel":0,"type":"noteOn","noteNumber":55,"velocity":111},{"deltaTime":0,"channel":0,"type":"noteOn","noteNumber":47,"velocity":111},{"deltaTime":960,"channel":0,"type":"noteOff","noteNumber":55,"velocity":111},{"deltaTime":0,"channel":0,"type":"noteOff","noteNumber":47,"velocity":111},{"deltaTime":0,"channel":0,"type":"noteOn","noteNumber":45,"velocity":111},{"deltaTime":480,"channel":0,"type":"noteOff","noteNumber":45,"velocity":111},{"deltaTime":0,"channel":0,"type":"noteOn","noteNumber":52,"velocity":111},{"deltaTime":0,"channel":0,"type":"noteOn","noteNumber":45,"velocity":111},{"deltaTime":480,"channel":0,"type":"noteOff","noteNumber":52,"velocity":111},{"deltaTime":0,"channel":0,"type":"noteOff","noteNumber":45,"velocity":111},{"deltaTime":0,"channel":0,"type":"noteOn","noteNumber":50,"velocity":111},{"deltaTime":0,"channel":0,"type":"noteOn","noteNumber":45,"velocity":111},{"deltaTime":480,"channel":0,"type":"noteOff","noteNumber":50,"velocity":111},{"deltaTime":0,"channel":0,"type":"noteOff","noteNumber":45,"velocity":111},{"deltaTime":0,"channel":0,"type":"noteOn","noteNumber":52,"velocity":111},{"deltaTime":0,"channel":0,"type":"noteOn","noteNumber":45,"velocity":111},{"deltaTime":480,"channel":0,"type":"noteOff","noteNumber":52,"velocity":111},{"deltaTime":0,"channel":0,"type":"noteOff","noteNumber":45,"velocity":111},{"deltaTime":480,"channel":0,"type":"noteOn","noteNumber":62,"velocity":111},{"deltaTime":0,"channel":0,"type":"noteOn","noteNumber":57,"velocity":111},{"deltaTime":0,"channel":0,"type":"noteOn","noteNumber":50,"velocity":111},{"deltaTime":480,"channel":0,"type":"noteOff","noteNumber":62,"velocity":111},{"deltaTime":0,"channel":0,"type":"noteOff","noteNumber":57,"velocity":111},{"deltaTime":0,"channel":0,"type":"noteOff","noteNumber":50,"velocity":111},{"deltaTime":0,"channel":0,"type":"noteOn","noteNumber":55,"velocity":111},{"deltaTime":0,"channel":0,"type":"noteOn","noteNumber":50,"velocity":111},{"deltaTime":480,"channel":0,"type":"noteOff","noteNumber":55,"velocity":111},{"deltaTime":0,"channel":0,"type":"noteOff","noteNumber":50,"velocity":111},{"deltaTime":0,"channel":0,"type":"noteOn","noteNumber":62,"velocity":111},{"deltaTime":0,"channel":0,"type":"noteOn","noteNumber":57,"velocity":111},{"deltaTime":0,"channel":0,"type":"noteOn","noteNumber":50,"velocity":111},{"deltaTime":480,"channel":0,"type":"noteOff","noteNumber":62,"velocity":111},{"deltaTime":0,"channel":0,"type":"noteOff","noteNumber":57,"velocity":111},{"deltaTime":0,"channel":0,"type":"noteOff","noteNumber":50,"velocity":111},{"deltaTime":480,"channel":0,"type":"noteOn","noteNumber":50,"velocity":111},{"deltaTime":480,"channel":0,"type":"noteOff","noteNumber":50,"velocity":111},{"deltaTime":0,"channel":0,"type":"noteOn","noteNumber":50,"velocity":111},{"deltaTime":480,"channel":0,"type":"noteOff","noteNumber":50,"velocity":111},{"deltaTime":0,"channel":0,"type":"noteOn","noteNumber":45,"velocity":111},{"deltaTime":480,"channel":0,"type":"noteOff","noteNumber":45,"velocity":111},{"deltaTime":0,"channel":0,"type":"noteOn","noteNumber":55,"velocity":111},{"deltaTime":0,"channel":0,"type":"noteOn","noteNumber":48,"velocity":111},{"deltaTime":960,"channel":0,"type":"noteOff","noteNumber":55,"velocity":111},{"deltaTime":0,"channel":0,"type":"noteOff","noteNumber":48,"velocity":111},{"deltaTime":0,"channel":0,"type":"noteOn","noteNumber":55,"velocity":111},{"deltaTime":0,"channel":0,"type":"noteOn","noteNumber":47,"velocity":111},{"deltaTime":960,"channel":0,"type":"noteOff","noteNumber":55,"velocity":111},{"deltaTime":0,"channel":0,"type":"noteOff","noteNumber":47,"velocity":111},{"deltaTime":0,"channel":0,"type":"noteOn","noteNumber":45,"velocity":111},{"deltaTime":480,"channel":0,"type":"noteOff","noteNumber":45,"velocity":111},{"deltaTime":0,"channel":0,"type":"noteOn","noteNumber":52,"velocity":111},{"deltaTime":0,"channel":0,"type":"noteOn","noteNumber":45,"velocity":111},{"deltaTime":480,"channel":0,"type":"noteOff","noteNumber":52,"velocity":111},{"deltaTime":0,"channel":0,"type":"noteOff","noteNumber":45,"velocity":111},{"deltaTime":0,"channel":0,"type":"noteOn","noteNumber":50,"velocity":111},{"deltaTime":0,"channel":0,"type":"noteOn","noteNumber":45,"velocity":111},{"deltaTime":480,"channel":0,"type":"noteOff","noteNumber":50,"velocity":111},{"deltaTime":0,"channel":0,"type":"noteOff","noteNumber":45,"velocity":111},{"deltaTime":0,"channel":0,"type":"noteOn","noteNumber":52,"velocity":111},{"deltaTime":0,"channel":0,"type":"noteOn","noteNumber":45,"velocity":111},{"deltaTime":480,"channel":0,"type":"noteOff","noteNumber":52,"velocity":111},{"deltaTime":0,"channel":0,"type":"noteOff","noteNumber":45,"velocity":111},{"deltaTime":480,"channel":0,"type":"noteOn","noteNumber":62,"velocity":111},{"deltaTime":0,"channel":0,"type":"noteOn","noteNumber":57,"velocity":111},{"deltaTime":0,"channel":0,"type":"noteOn","noteNumber":50,"velocity":111},{"deltaTime":480,"channel":0,"type":"noteOff","noteNumber":62,"velocity":111},{"deltaTime":0,"channel":0,"type":"noteOff","noteNumber":57,"velocity":111},{"deltaTime":0,"channel":0,"type":"noteOff","noteNumber":50,"velocity":111},{"deltaTime":0,"channel":0,"type":"noteOn","noteNumber":55,"velocity":111},{"deltaTime":0,"channel":0,"type":"noteOn","noteNumber":50,"velocity":111},{"deltaTime":480,"channel":0,"type":"noteOff","noteNumber":55,"velocity":111},{"deltaTime":0,"channel":0,"type":"noteOff","noteNumber":50,"velocity":111},{"deltaTime":0,"channel":0,"type":"noteOn","noteNumber":62,"velocity":111},{"deltaTime":0,"channel":0,"type":"noteOn","noteNumber":57,"velocity":111},{"deltaTime":0,"channel":0,"type":"noteOn","noteNumber":50,"velocity":111},{"deltaTime":960,"channel":0,"type":"noteOff","noteNumber":62,"velocity":111},{"deltaTime":0,"channel":0,"type":"noteOff","noteNumber":57,"velocity":111},{"deltaTime":0,"channel":0,"type":"noteOff","noteNumber":50,"velocity":111},{"deltaTime":0,"channel":0,"type":"noteOn","noteNumber":50,"velocity":111},{"deltaTime":480,"channel":0,"type":"noteOff","noteNumber":50,"velocity":111},{"deltaTime":0,"channel":0,"type":"noteOn","noteNumber":62,"velocity":111},{"deltaTime":0,"channel":0,"type":"noteOn","noteNumber":57,"velocity":111},{"deltaTime":0,"channel":0,"type":"noteOn","noteNumber":50,"velocity":111},{"deltaTime":480,"channel":0,"type":"noteOff","noteNumber":62,"velocity":111},{"deltaTime":0,"channel":0,"type":"noteOff","noteNumber":57,"velocity":111},{"deltaTime":0,"channel":0,"type":"noteOff","noteNumber":50,"velocity":111},{"deltaTime":0,"channel":0,"type":"noteOn","noteNumber":45,"velocity":111},{"deltaTime":480,"channel":0,"type":"noteOff","noteNumber":45,"velocity":111},{"deltaTime":0,"channel":0,"type":"noteOn","noteNumber":55,"velocity":111},{"deltaTime":0,"channel":0,"type":"noteOn","noteNumber":48,"velocity":111},{"deltaTime":960,"channel":0,"type":"noteOff","noteNumber":55,"velocity":111},{"deltaTime":0,"channel":0,"type":"noteOff","noteNumber":48,"velocity":111},{"deltaTime":0,"channel":0,"type":"noteOn","noteNumber":55,"velocity":111},{"deltaTime":0,"channel":0,"type":"noteOn","noteNumber":47,"velocity":111},{"deltaTime":960,"channel":0,"type":"noteOff","noteNumber":55,"velocity":111},{"deltaTime":0,"channel":0,"type":"noteOff","noteNumber":47,"velocity":111},{"deltaTime":0,"channel":0,"type":"noteOn","noteNumber":50,"velocity":111},{"deltaTime":480,"channel":0,"type":"noteOff","noteNumber":50,"velocity":111},{"deltaTime":0,"channel":0,"type":"noteOn","noteNumber":62,"velocity":111},{"deltaTime":0,"channel":0,"type":"noteOn","noteNumber":57,"velocity":111},{"deltaTime":0,"channel":0,"type":"noteOn","noteNumber":50,"velocity":111},{"deltaTime":480,"channel":0,"type":"noteOff","noteNumber":62,"velocity":111},{"deltaTime":0,"channel":0,"type":"noteOff","noteNumber":57,"velocity":111},{"deltaTime":0,"channel":0,"type":"noteOff","noteNumber":50,"velocity":111},{"deltaTime":0,"channel":0,"type":"noteOn","noteNumber":55,"velocity":111},{"deltaTime":0,"channel":0,"type":"noteOn","noteNumber":50,"velocity":111},{"deltaTime":480,"channel":0,"type":"noteOff","noteNumber":55,"velocity":111},{"deltaTime":0,"channel":0,"type":"noteOff","noteNumber":50,"velocity":111},{"deltaTime":0,"channel":0,"type":"noteOn","noteNumber":62,"velocity":111},{"deltaTime":0,"channel":0,"type":"noteOn","noteNumber":57,"velocity":111},{"deltaTime":0,"channel":0,"type":"noteOn","noteNumber":50,"velocity":111},{"deltaTime":960,"channel":0,"type":"noteOff","noteNumber":62,"velocity":111},{"deltaTime":0,"channel":0,"type":"noteOff","noteNumber":57,"velocity":111},{"deltaTime":0,"channel":0,"type":"noteOff","noteNumber":50,"velocity":111},{"deltaTime":0,"channel":0,"type":"noteOn","noteNumber":62,"velocity":111},{"deltaTime":0,"channel":0,"type":"noteOn","noteNumber":57,"velocity":111},{"deltaTime":0,"channel":0,"type":"noteOn","noteNumber":50,"velocity":111},{"deltaTime":480,"channel":0,"type":"noteOff","noteNumber":62,"velocity":111},{"deltaTime":0,"channel":0,"type":"noteOff","noteNumber":57,"velocity":111},{"deltaTime":0,"channel":0,"type":"noteOff","noteNumber":50,"velocity":111},{"deltaTime":0,"channel":0,"type":"noteOn","noteNumber":62,"velocity":111},{"deltaTime":0,"channel":0,"type":"noteOn","noteNumber":55,"velocity":111},{"deltaTime":0,"channel":0,"type":"noteOn","noteNumber":50,"velocity":111},{"deltaTime":480,"channel":0,"type":"noteOff","noteNumber":62,"velocity":111},{"deltaTime":0,"channel":0,"type":"noteOff","noteNumber":55,"velocity":111},{"deltaTime":0,"channel":0,"type":"noteOff","noteNumber":50,"velocity":111},{"deltaTime":0,"channel":0,"type":"noteOn","noteNumber":62,"velocity":111},{"deltaTime":0,"channel":0,"type":"noteOn","noteNumber":57,"velocity":111},{"deltaTime":0,"channel":0,"type":"noteOn","noteNumber":50,"velocity":111},{"deltaTime":960,"channel":0,"type":"noteOff","noteNumber":62,"velocity":111},{"deltaTime":0,"channel":0,"type":"noteOff","noteNumber":57,"velocity":111},{"deltaTime":0,"channel":0,"type":"noteOff","noteNumber":50,"velocity":111},{"deltaTime":0,"channel":0,"type":"noteOn","noteNumber":62,"velocity":111},{"deltaTime":0,"channel":0,"type":"noteOn","noteNumber":57,"velocity":111},{"deltaTime":0,"channel":0,"type":"noteOn","noteNumber":50,"velocity":111},{"deltaTime":480,"channel":0,"type":"noteOff","noteNumber":62,"velocity":111},{"deltaTime":0,"channel":0,"type":"noteOff","noteNumber":57,"velocity":111},{"deltaTime":0,"channel":0,"type":"noteOff","noteNumber":50,"velocity":111},{"deltaTime":0,"channel":0,"type":"noteOn","noteNumber":62,"velocity":111},{"deltaTime":0,"channel":0,"type":"noteOn","noteNumber":57,"velocity":111},{"deltaTime":0,"channel":0,"type":"noteOn","noteNumber":50,"velocity":111},{"deltaTime":480,"channel":0,"type":"noteOff","noteNumber":62,"velocity":111},{"deltaTime":0,"channel":0,"type":"noteOff","noteNumber":57,"velocity":111},{"deltaTime":0,"channel":0,"type":"noteOff","noteNumber":50,"velocity":111},{"deltaTime":0,"channel":0,"type":"noteOn","noteNumber":55,"velocity":111},{"deltaTime":0,"channel":0,"type":"noteOn","noteNumber":50,"velocity":111},{"deltaTime":480,"channel":0,"type":"noteOff","noteNumber":55,"velocity":111},{"deltaTime":0,"channel":0,"type":"noteOff","noteNumber":50,"velocity":111},{"deltaTime":0,"channel":0,"type":"noteOn","noteNumber":60,"velocity":111},{"deltaTime":0,"channel":0,"type":"noteOn","noteNumber":55,"velocity":111},{"deltaTime":0,"channel":0,"type":"noteOn","noteNumber":48,"velocity":111},{"deltaTime":960,"channel":0,"type":"noteOff","noteNumber":60,"velocity":111},{"deltaTime":0,"channel":0,"type":"noteOff","noteNumber":55,"velocity":111},{"deltaTime":0,"channel":0,"type":"noteOff","noteNumber":48,"velocity":111},{"deltaTime":0,"channel":0,"type":"noteOn","noteNumber":62,"velocity":111},{"deltaTime":0,"channel":0,"type":"noteOn","noteNumber":55,"velocity":111},{"deltaTime":0,"channel":0,"type":"noteOn","noteNumber":50,"velocity":111},{"deltaTime":0,"channel":0,"type":"noteOn","noteNumber":45,"velocity":111},{"deltaTime":0,"channel":0,"type":"noteOn","noteNumber":43,"velocity":111},{"deltaTime":52,"channel":0,"type":"noteOff","noteNumber":45,"velocity":111},{"deltaTime":908,"channel":0,"type":"noteOff","noteNumber":62,"velocity":111},{"deltaTime":0,"channel":0,"type":"noteOff","noteNumber":55,"velocity":111},{"deltaTime":0,"channel":0,"type":"noteOff","noteNumber":50,"velocity":111},{"deltaTime":0,"channel":0,"type":"noteOff","noteNumber":43,"velocity":111},{"deltaTime":0,"channel":0,"type":"noteOn","noteNumber":62,"velocity":111},{"deltaTime":0,"channel":0,"type":"noteOn","noteNumber":57,"velocity":111},{"deltaTime":0,"channel":0,"type":"noteOn","noteNumber":50,"velocity":111},{"deltaTime":480,"channel":0,"type":"noteOff","noteNumber":62,"velocity":111},{"deltaTime":0,"channel":0,"type":"noteOff","noteNumber":57,"velocity":111},{"deltaTime":0,"channel":0,"type":"noteOff","noteNumber":50,"velocity":111},{"deltaTime":0,"channel":0,"type":"noteOn","noteNumber":62,"velocity":111},{"deltaTime":0,"channel":0,"type":"noteOn","noteNumber":57,"velocity":111},{"deltaTime":0,"channel":0,"type":"noteOn","noteNumber":50,"velocity":111},{"deltaTime":480,"channel":0,"type":"noteOff","noteNumber":62,"velocity":111},{"deltaTime":0,"channel":0,"type":"noteOff","noteNumber":57,"velocity":111},{"deltaTime":0,"channel":0,"type":"noteOff","noteNumber":50,"velocity":111},{"deltaTime":0,"channel":0,"type":"noteOn","noteNumber":62,"velocity":111},{"deltaTime":0,"channel":0,"type":"noteOn","noteNumber":55,"velocity":111},{"deltaTime":0,"channel":0,"type":"noteOn","noteNumber":50,"velocity":111},{"deltaTime":480,"channel":0,"type":"noteOff","noteNumber":62,"velocity":111},{"deltaTime":0,"channel":0,"type":"noteOff","noteNumber":55,"velocity":111},{"deltaTime":0,"channel":0,"type":"noteOff","noteNumber":50,"velocity":111},{"deltaTime":0,"channel":0,"type":"noteOn","noteNumber":62,"velocity":111},{"deltaTime":0,"channel":0,"type":"noteOn","noteNumber":57,"velocity":111},{"deltaTime":0,"channel":0,"type":"noteOn","noteNumber":50,"velocity":111},{"deltaTime":960,"channel":0,"type":"noteOff","noteNumber":62,"velocity":111},{"deltaTime":0,"channel":0,"type":"noteOff","noteNumber":57,"velocity":111},{"deltaTime":0,"channel":0,"type":"noteOff","noteNumber":50,"velocity":111},{"deltaTime":0,"channel":0,"type":"noteOn","noteNumber":62,"velocity":111},{"deltaTime":0,"channel":0,"type":"noteOn","noteNumber":57,"velocity":111},{"deltaTime":0,"channel":0,"type":"noteOn","noteNumber":50,"velocity":111},{"deltaTime":480,"channel":0,"type":"noteOff","noteNumber":62,"velocity":111},{"deltaTime":0,"channel":0,"type":"noteOff","noteNumber":57,"velocity":111},{"deltaTime":0,"channel":0,"type":"noteOff","noteNumber":50,"velocity":111},{"deltaTime":0,"channel":0,"type":"noteOn","noteNumber":59,"velocity":95},{"deltaTime":0,"channel":0,"type":"noteOn","noteNumber":55,"velocity":111},{"deltaTime":0,"channel":0,"type":"noteOn","noteNumber":50,"velocity":111},{"deltaTime":480,"channel":0,"type":"noteOff","noteNumber":59,"velocity":95},{"deltaTime":0,"channel":0,"type":"noteOff","noteNumber":55,"velocity":111},{"deltaTime":0,"channel":0,"type":"noteOff","noteNumber":50,"velocity":111},{"deltaTime":0,"channel":0,"type":"noteOn","noteNumber":62,"velocity":111},{"deltaTime":0,"channel":0,"type":"noteOn","noteNumber":57,"velocity":111},{"deltaTime":0,"channel":0,"type":"noteOn","noteNumber":50,"velocity":111},{"deltaTime":960,"channel":0,"type":"noteOff","noteNumber":62,"velocity":111},{"deltaTime":0,"channel":0,"type":"noteOff","noteNumber":57,"velocity":111},{"deltaTime":0,"channel":0,"type":"noteOff","noteNumber":50,"velocity":111},{"deltaTime":0,"channel":0,"type":"noteOn","noteNumber":62,"velocity":111},{"deltaTime":0,"channel":0,"type":"noteOn","noteNumber":57,"velocity":111},{"deltaTime":0,"channel":0,"type":"noteOn","noteNumber":50,"velocity":111},{"deltaTime":480,"channel":0,"type":"noteOff","noteNumber":62,"velocity":111},{"deltaTime":0,"channel":0,"type":"noteOff","noteNumber":57,"velocity":111},{"deltaTime":0,"channel":0,"type":"noteOff","noteNumber":50,"velocity":111},{"deltaTime":0,"channel":0,"type":"noteOn","noteNumber":62,"velocity":111},{"deltaTime":0,"channel":0,"type":"noteOn","noteNumber":57,"velocity":111},{"deltaTime":0,"channel":0,"type":"noteOn","noteNumber":50,"velocity":111},{"deltaTime":480,"channel":0,"type":"noteOff","noteNumber":62,"velocity":111},{"deltaTime":0,"channel":0,"type":"noteOff","noteNumber":57,"velocity":111},{"deltaTime":0,"channel":0,"type":"noteOff","noteNumber":50,"velocity":111},{"deltaTime":0,"channel":0,"type":"noteOn","noteNumber":59,"velocity":111},{"deltaTime":0,"channel":0,"type":"noteOn","noteNumber":55,"velocity":111},{"deltaTime":0,"channel":0,"type":"noteOn","noteNumber":50,"velocity":111},{"deltaTime":480,"channel":0,"type":"noteOff","noteNumber":59,"velocity":111},{"deltaTime":0,"channel":0,"type":"noteOff","noteNumber":55,"velocity":111},{"deltaTime":0,"channel":0,"type":"noteOff","noteNumber":50,"velocity":111},{"deltaTime":0,"channel":0,"type":"noteOn","noteNumber":60,"velocity":111},{"deltaTime":0,"channel":0,"type":"noteOn","noteNumber":55,"velocity":111},{"deltaTime":0,"channel":0,"type":"noteOn","noteNumber":48,"velocity":111},{"deltaTime":960,"channel":0,"type":"noteOff","noteNumber":60,"velocity":111},{"deltaTime":0,"channel":0,"type":"noteOff","noteNumber":55,"velocity":111},{"deltaTime":0,"channel":0,"type":"noteOff","noteNumber":48,"velocity":111},{"deltaTime":0,"channel":0,"type":"noteOn","noteNumber":62,"velocity":111},{"deltaTime":0,"channel":0,"type":"noteOn","noteNumber":55,"velocity":111},{"deltaTime":0,"channel":0,"type":"noteOn","noteNumber":50,"velocity":111},{"deltaTime":0,"channel":0,"type":"noteOn","noteNumber":45,"velocity":111},{"deltaTime":0,"channel":0,"type":"noteOn","noteNumber":43,"velocity":111},{"deltaTime":52,"channel":0,"type":"noteOff","noteNumber":45,"velocity":111},{"deltaTime":908,"channel":0,"type":"noteOff","noteNumber":55,"velocity":111},{"deltaTime":0,"channel":0,"type":"noteOff","noteNumber":50,"velocity":111},{"deltaTime":0,"channel":0,"type":"noteOff","noteNumber":43,"velocity":111},{"deltaTime":0,"channel":0,"type":"noteOn","noteNumber":40,"velocity":111},{"deltaTime":480,"channel":0,"type":"noteOff","noteNumber":40,"velocity":111},{"deltaTime":0,"channel":0,"type":"noteOn","noteNumber":64,"velocity":111},{"deltaTime":0,"channel":0,"type":"noteOn","noteNumber":59,"velocity":111},{"deltaTime":0,"channel":0,"type":"noteOn","noteNumber":52,"velocity":111},{"deltaTime":480,"channel":0,"type":"noteOff","noteNumber":64,"velocity":111},{"deltaTime":0,"channel":0,"type":"noteOff","noteNumber":59,"velocity":111},{"deltaTime":0,"channel":0,"type":"noteOff","noteNumber":52,"velocity":111},{"deltaTime":0,"channel":0,"type":"noteOn","noteNumber":57,"velocity":111},{"deltaTime":0,"channel":0,"type":"noteOn","noteNumber":52,"velocity":111},{"deltaTime":0,"channel":0,"type":"noteOn","noteNumber":40,"velocity":111},{"deltaTime":480,"channel":0,"type":"noteOff","noteNumber":57,"velocity":111},{"deltaTime":0,"channel":0,"type":"noteOff","noteNumber":52,"velocity":111},{"deltaTime":0,"channel":0,"type":"noteOff","noteNumber":40,"velocity":111},{"deltaTime":0,"channel":0,"type":"noteOn","noteNumber":64,"velocity":111},{"deltaTime":0,"channel":0,"type":"noteOn","noteNumber":59,"velocity":111},{"deltaTime":0,"channel":0,"type":"noteOn","noteNumber":52,"velocity":111},{"deltaTime":960,"channel":0,"type":"noteOff","noteNumber":64,"velocity":111},{"deltaTime":0,"channel":0,"type":"noteOff","noteNumber":59,"velocity":111},{"deltaTime":0,"channel":0,"type":"noteOff","noteNumber":52,"velocity":111},{"deltaTime":0,"channel":0,"type":"noteOn","noteNumber":64,"velocity":111},{"deltaTime":0,"channel":0,"type":"noteOn","noteNumber":59,"velocity":111},{"deltaTime":0,"channel":0,"type":"noteOn","noteNumber":52,"velocity":111},{"deltaTime":480,"channel":0,"type":"noteOff","noteNumber":64,"velocity":111},{"deltaTime":0,"channel":0,"type":"noteOff","noteNumber":59,"velocity":111},{"deltaTime":0,"channel":0,"type":"noteOff","noteNumber":52,"velocity":111},{"deltaTime":0,"channel":0,"type":"noteOn","noteNumber":57,"velocity":111},{"deltaTime":0,"channel":0,"type":"noteOn","noteNumber":52,"velocity":111},{"deltaTime":0,"channel":0,"type":"noteOn","noteNumber":40,"velocity":111},{"deltaTime":480,"channel":0,"type":"noteOff","noteNumber":57,"velocity":111},{"deltaTime":0,"channel":0,"type":"noteOff","noteNumber":52,"velocity":111},{"deltaTime":0,"channel":0,"type":"noteOff","noteNumber":40,"velocity":111},{"deltaTime":0,"channel":0,"type":"noteOn","noteNumber":64,"velocity":111},{"deltaTime":0,"channel":0,"type":"noteOn","noteNumber":59,"velocity":111},{"deltaTime":0,"channel":0,"type":"noteOn","noteNumber":52,"velocity":111},{"deltaTime":960,"channel":0,"type":"noteOff","noteNumber":62,"velocity":111},{"deltaTime":0,"channel":0,"type":"noteOff","noteNumber":64,"velocity":111},{"deltaTime":0,"channel":0,"type":"noteOff","noteNumber":59,"velocity":111},{"deltaTime":0,"channel":0,"type":"noteOff","noteNumber":52,"velocity":111},{"deltaTime":0,"channel":0,"type":"noteOn","noteNumber":64,"velocity":111},{"deltaTime":0,"channel":0,"type":"noteOn","noteNumber":59,"velocity":111},{"deltaTime":0,"channel":0,"type":"noteOn","noteNumber":52,"velocity":111},{"deltaTime":480,"channel":0,"type":"noteOff","noteNumber":64,"velocity":111},{"deltaTime":0,"channel":0,"type":"noteOff","noteNumber":59,"velocity":111},{"deltaTime":0,"channel":0,"type":"noteOff","noteNumber":52,"velocity":111},{"deltaTime":0,"channel":0,"type":"noteOn","noteNumber":64,"velocity":111},{"deltaTime":0,"channel":0,"type":"noteOn","noteNumber":59,"velocity":111},{"deltaTime":0,"channel":0,"type":"noteOn","noteNumber":52,"velocity":111},{"deltaTime":480,"channel":0,"type":"noteOff","noteNumber":64,"velocity":111},{"deltaTime":0,"channel":0,"type":"noteOff","noteNumber":59,"velocity":111},{"deltaTime":0,"channel":0,"type":"noteOff","noteNumber":52,"velocity":111},{"deltaTime":0,"channel":0,"type":"noteOn","noteNumber":55,"velocity":111},{"deltaTime":0,"channel":0,"type":"noteOn","noteNumber":50,"velocity":111},{"deltaTime":480,"channel":0,"type":"noteOff","noteNumber":55,"velocity":111},{"deltaTime":0,"channel":0,"type":"noteOff","noteNumber":50,"velocity":111},{"deltaTime":0,"channel":0,"type":"noteOn","noteNumber":62,"velocity":111},{"deltaTime":0,"channel":0,"type":"noteOn","noteNumber":57,"velocity":111},{"deltaTime":0,"channel":0,"type":"noteOn","noteNumber":50,"velocity":111},{"deltaTime":960,"channel":0,"type":"noteOff","noteNumber":62,"velocity":111},{"deltaTime":0,"channel":0,"type":"noteOff","noteNumber":57,"velocity":111},{"deltaTime":0,"channel":0,"type":"noteOff","noteNumber":50,"velocity":111},{"deltaTime":0,"channel":0,"type":"noteOn","noteNumber":57,"velocity":111},{"deltaTime":0,"channel":0,"type":"noteOn","noteNumber":52,"velocity":111},{"deltaTime":0,"channel":0,"type":"noteOn","noteNumber":45,"velocity":111},{"deltaTime":960,"channel":0,"type":"noteOff","noteNumber":57,"velocity":111},{"deltaTime":0,"channel":0,"type":"noteOff","noteNumber":52,"velocity":111},{"deltaTime":0,"channel":0,"type":"noteOff","noteNumber":45,"velocity":111},{"deltaTime":0,"channel":0,"type":"noteOn","noteNumber":40,"velocity":111},{"deltaTime":480,"channel":0,"type":"noteOff","noteNumber":40,"velocity":111},{"deltaTime":0,"channel":0,"type":"noteOn","noteNumber":64,"velocity":111},{"deltaTime":0,"channel":0,"type":"noteOn","noteNumber":59,"velocity":111},{"deltaTime":0,"channel":0,"type":"noteOn","noteNumber":52,"velocity":111},{"deltaTime":480,"channel":0,"type":"noteOff","noteNumber":64,"velocity":111},{"deltaTime":0,"channel":0,"type":"noteOff","noteNumber":59,"velocity":111},{"deltaTime":0,"channel":0,"type":"noteOff","noteNumber":52,"velocity":111},{"deltaTime":0,"channel":0,"type":"noteOn","noteNumber":57,"velocity":111},{"deltaTime":0,"channel":0,"type":"noteOn","noteNumber":52,"velocity":111},{"deltaTime":0,"channel":0,"type":"noteOn","noteNumber":40,"velocity":111},{"deltaTime":480,"channel":0,"type":"noteOff","noteNumber":57,"velocity":111},{"deltaTime":0,"channel":0,"type":"noteOff","noteNumber":52,"velocity":111},{"deltaTime":0,"channel":0,"type":"noteOff","noteNumber":40,"velocity":111},{"deltaTime":0,"channel":0,"type":"noteOn","noteNumber":64,"velocity":111},{"deltaTime":0,"channel":0,"type":"noteOn","noteNumber":59,"velocity":111},{"deltaTime":0,"channel":0,"type":"noteOn","noteNumber":52,"velocity":111},{"deltaTime":960,"channel":0,"type":"noteOff","noteNumber":64,"velocity":111},{"deltaTime":0,"channel":0,"type":"noteOff","noteNumber":59,"velocity":111},{"deltaTime":0,"channel":0,"type":"noteOff","noteNumber":52,"velocity":111},{"deltaTime":0,"channel":0,"type":"noteOn","noteNumber":64,"velocity":111},{"deltaTime":0,"channel":0,"type":"noteOn","noteNumber":59,"velocity":111},{"deltaTime":0,"channel":0,"type":"noteOn","noteNumber":52,"velocity":111},{"deltaTime":480,"channel":0,"type":"noteOff","noteNumber":64,"velocity":111},{"deltaTime":0,"channel":0,"type":"noteOff","noteNumber":59,"velocity":111},{"deltaTime":0,"channel":0,"type":"noteOff","noteNumber":52,"velocity":111},{"deltaTime":0,"channel":0,"type":"noteOn","noteNumber":57,"velocity":111},{"deltaTime":0,"channel":0,"type":"noteOn","noteNumber":52,"velocity":111},{"deltaTime":0,"channel":0,"type":"noteOn","noteNumber":40,"velocity":111},{"deltaTime":480,"channel":0,"type":"noteOff","noteNumber":57,"velocity":111},{"deltaTime":0,"channel":0,"type":"noteOff","noteNumber":52,"velocity":111},{"deltaTime":0,"channel":0,"type":"noteOff","noteNumber":40,"velocity":111},{"deltaTime":0,"channel":0,"type":"noteOn","noteNumber":64,"velocity":111},{"deltaTime":0,"channel":0,"type":"noteOn","noteNumber":59,"velocity":111},{"deltaTime":0,"channel":0,"type":"noteOn","noteNumber":52,"velocity":111},{"deltaTime":960,"channel":0,"type":"noteOff","noteNumber":64,"velocity":111},{"deltaTime":0,"channel":0,"type":"noteOff","noteNumber":59,"velocity":111},{"deltaTime":0,"channel":0,"type":"noteOff","noteNumber":52,"velocity":111},{"deltaTime":0,"channel":0,"type":"noteOn","noteNumber":64,"velocity":111},{"deltaTime":0,"channel":0,"type":"noteOn","noteNumber":59,"velocity":111},{"deltaTime":0,"channel":0,"type":"noteOn","noteNumber":52,"velocity":111},{"deltaTime":480,"channel":0,"type":"noteOff","noteNumber":64,"velocity":111},{"deltaTime":0,"channel":0,"type":"noteOff","noteNumber":59,"velocity":111},{"deltaTime":0,"channel":0,"type":"noteOff","noteNumber":52,"velocity":111},{"deltaTime":0,"channel":0,"type":"noteOn","noteNumber":64,"velocity":111},{"deltaTime":0,"channel":0,"type":"noteOn","noteNumber":59,"velocity":111},{"deltaTime":0,"channel":0,"type":"noteOn","noteNumber":52,"velocity":111},{"deltaTime":480,"channel":0,"type":"noteOff","noteNumber":64,"velocity":111},{"deltaTime":0,"channel":0,"type":"noteOff","noteNumber":59,"velocity":111},{"deltaTime":0,"channel":0,"type":"noteOff","noteNumber":52,"velocity":111},{"deltaTime":0,"channel":0,"type":"noteOn","noteNumber":55,"velocity":111},{"deltaTime":0,"channel":0,"type":"noteOn","noteNumber":50,"velocity":111},{"deltaTime":480,"channel":0,"type":"noteOff","noteNumber":55,"velocity":111},{"deltaTime":0,"channel":0,"type":"noteOff","noteNumber":50,"velocity":111},{"deltaTime":0,"channel":0,"type":"noteOn","noteNumber":62,"velocity":111},{"deltaTime":0,"channel":0,"type":"noteOn","noteNumber":55,"velocity":111},{"deltaTime":0,"channel":0,"type":"noteOn","noteNumber":50,"velocity":111},{"deltaTime":0,"channel":0,"type":"noteOn","noteNumber":45,"velocity":111},{"deltaTime":0,"channel":0,"type":"noteOn","noteNumber":43,"velocity":111},{"deltaTime":52,"channel":0,"type":"noteOff","noteNumber":45,"velocity":111},{"deltaTime":908,"channel":0,"type":"noteOff","noteNumber":62,"velocity":111},{"deltaTime":0,"channel":0,"type":"noteOff","noteNumber":55,"velocity":111},{"deltaTime":0,"channel":0,"type":"noteOff","noteNumber":50,"velocity":111},{"deltaTime":0,"channel":0,"type":"noteOff","noteNumber":43,"velocity":111},{"deltaTime":0,"channel":0,"type":"noteOn","noteNumber":62,"velocity":111},{"deltaTime":0,"channel":0,"type":"noteOn","noteNumber":55,"velocity":111},{"deltaTime":0,"channel":0,"type":"noteOn","noteNumber":50,"velocity":111},{"deltaTime":0,"channel":0,"type":"noteOn","noteNumber":45,"velocity":111},{"deltaTime":0,"channel":0,"type":"noteOn","noteNumber":43,"velocity":111},{"deltaTime":52,"channel":0,"type":"noteOff","noteNumber":45,"velocity":111},{"deltaTime":908,"channel":0,"type":"noteOff","noteNumber":62,"velocity":111},{"deltaTime":0,"channel":0,"type":"noteOff","noteNumber":55,"velocity":111},{"deltaTime":0,"channel":0,"type":"noteOff","noteNumber":50,"velocity":111},{"deltaTime":0,"channel":0,"type":"noteOff","noteNumber":43,"velocity":111},{"deltaTime":0,"channel":0,"type":"noteOn","noteNumber":45,"velocity":111},{"deltaTime":480,"channel":0,"type":"noteOff","noteNumber":45,"velocity":111},{"deltaTime":0,"channel":0,"type":"noteOn","noteNumber":64,"velocity":111},{"deltaTime":480,"channel":0,"type":"noteOff","noteNumber":64,"velocity":111},{"deltaTime":0,"channel":0,"type":"noteOn","noteNumber":57,"velocity":111},{"deltaTime":480,"channel":0,"type":"noteOff","noteNumber":57,"velocity":111},{"deltaTime":0,"channel":0,"type":"noteOn","noteNumber":62,"velocity":111},{"deltaTime":960,"channel":0,"type":"noteOff","noteNumber":62,"velocity":111},{"deltaTime":0,"channel":0,"type":"noteOn","noteNumber":57,"velocity":111},{"deltaTime":480,"channel":0,"type":"noteOff","noteNumber":57,"velocity":111},{"deltaTime":0,"channel":0,"type":"noteOn","noteNumber":45,"velocity":111},{"deltaTime":480,"channel":0,"type":"noteOff","noteNumber":45,"velocity":111},{"deltaTime":0,"channel":0,"type":"noteOn","noteNumber":60,"velocity":111},{"deltaTime":960,"channel":0,"type":"noteOff","noteNumber":60,"velocity":111},{"deltaTime":0,"channel":0,"type":"noteOn","noteNumber":55,"velocity":111},{"deltaTime":480,"channel":0,"type":"noteOff","noteNumber":55,"velocity":111},{"deltaTime":0,"channel":0,"type":"noteOn","noteNumber":45,"velocity":111},{"deltaTime":480,"channel":0,"type":"noteOff","noteNumber":45,"velocity":111},{"deltaTime":0,"channel":0,"type":"noteOn","noteNumber":62,"velocity":111},{"deltaTime":960,"channel":0,"type":"noteOff","noteNumber":62,"velocity":111},{"deltaTime":0,"channel":0,"type":"noteOn","noteNumber":57,"velocity":111},{"deltaTime":480,"channel":0,"type":"noteOff","noteNumber":57,"velocity":111},{"deltaTime":0,"channel":0,"type":"noteOn","noteNumber":45,"velocity":111},{"deltaTime":480,"channel":0,"type":"noteOff","noteNumber":45,"velocity":111},{"deltaTime":0,"channel":0,"type":"noteOn","noteNumber":45,"velocity":111},{"deltaTime":960,"channel":0,"type":"noteOff","noteNumber":45,"velocity":111},{"deltaTime":0,"channel":0,"type":"noteOn","noteNumber":64,"velocity":111},{"deltaTime":480,"channel":0,"type":"noteOff","noteNumber":64,"velocity":111},{"deltaTime":0,"channel":0,"type":"noteOn","noteNumber":57,"velocity":111},{"deltaTime":480,"channel":0,"type":"noteOff","noteNumber":57,"velocity":111},{"deltaTime":0,"channel":0,"type":"noteOn","noteNumber":62,"velocity":111},{"deltaTime":960,"channel":0,"type":"noteOff","noteNumber":62,"velocity":111},{"deltaTime":0,"channel":0,"type":"noteOn","noteNumber":57,"velocity":111},{"deltaTime":480,"channel":0,"type":"noteOff","noteNumber":57,"velocity":111},{"deltaTime":0,"channel":0,"type":"noteOn","noteNumber":45,"velocity":111},{"deltaTime":480,"channel":0,"type":"noteOff","noteNumber":45,"velocity":111},{"deltaTime":0,"channel":0,"type":"noteOn","noteNumber":60,"velocity":111},{"deltaTime":960,"channel":0,"type":"noteOff","noteNumber":60,"velocity":111},{"deltaTime":0,"channel":0,"type":"noteOn","noteNumber":55,"velocity":111},{"deltaTime":480,"channel":0,"type":"noteOff","noteNumber":55,"velocity":111},{"deltaTime":0,"channel":0,"type":"noteOn","noteNumber":45,"velocity":111},{"deltaTime":480,"channel":0,"type":"noteOff","noteNumber":45,"velocity":111},{"deltaTime":0,"channel":0,"type":"noteOn","noteNumber":62,"velocity":111},{"deltaTime":960,"channel":0,"type":"noteOff","noteNumber":62,"velocity":111},{"deltaTime":0,"channel":0,"type":"noteOn","noteNumber":55,"velocity":111},{"deltaTime":0,"channel":0,"type":"noteOn","noteNumber":48,"velocity":111},{"deltaTime":480,"channel":0,"type":"noteOff","noteNumber":55,"velocity":111},{"deltaTime":0,"channel":0,"type":"noteOff","noteNumber":48,"velocity":111},{"deltaTime":0,"channel":0,"type":"noteOn","noteNumber":55,"velocity":111},{"deltaTime":0,"channel":0,"type":"noteOn","noteNumber":47,"velocity":111},{"deltaTime":480,"channel":0,"type":"noteOff","noteNumber":55,"velocity":111},{"deltaTime":0,"channel":0,"type":"noteOff","noteNumber":47,"velocity":111},{"deltaTime":0,"channel":0,"type":"noteOn","noteNumber":45,"velocity":111},{"deltaTime":480,"channel":0,"type":"noteOff","noteNumber":45,"velocity":111},{"deltaTime":0,"channel":0,"type":"noteOn","noteNumber":45,"velocity":111},{"deltaTime":480,"channel":0,"type":"noteOff","noteNumber":45,"velocity":111},{"deltaTime":0,"channel":0,"type":"noteOn","noteNumber":64,"velocity":111},{"deltaTime":480,"channel":0,"type":"noteOff","noteNumber":64,"velocity":111},{"deltaTime":0,"channel":0,"type":"noteOn","noteNumber":57,"velocity":111},{"deltaTime":480,"channel":0,"type":"noteOff","noteNumber":57,"velocity":111},{"deltaTime":0,"channel":0,"type":"noteOn","noteNumber":62,"velocity":111},{"deltaTime":960,"channel":0,"type":"noteOff","noteNumber":62,"velocity":111},{"deltaTime":0,"channel":0,"type":"noteOn","noteNumber":57,"velocity":111},{"deltaTime":480,"channel":0,"type":"noteOff","noteNumber":57,"velocity":111},{"deltaTime":0,"channel":0,"type":"noteOn","noteNumber":45,"velocity":111},{"deltaTime":480,"channel":0,"type":"noteOff","noteNumber":45,"velocity":111},{"deltaTime":0,"channel":0,"type":"noteOn","noteNumber":60,"velocity":111},{"deltaTime":960,"channel":0,"type":"noteOff","noteNumber":60,"velocity":111},{"deltaTime":0,"channel":0,"type":"noteOn","noteNumber":55,"velocity":111},{"deltaTime":480,"channel":0,"type":"noteOff","noteNumber":55,"velocity":111},{"deltaTime":0,"channel":0,"type":"noteOn","noteNumber":45,"velocity":111},{"deltaTime":480,"channel":0,"type":"noteOff","noteNumber":45,"velocity":111},{"deltaTime":0,"channel":0,"type":"noteOn","noteNumber":62,"velocity":111},{"deltaTime":960,"channel":0,"type":"noteOff","noteNumber":62,"velocity":111},{"deltaTime":0,"channel":0,"type":"noteOn","noteNumber":57,"velocity":111},{"deltaTime":480,"channel":0,"type":"noteOff","noteNumber":57,"velocity":111},{"deltaTime":0,"channel":0,"type":"noteOn","noteNumber":45,"velocity":111},{"deltaTime":480,"channel":0,"type":"noteOff","noteNumber":45,"velocity":111},{"deltaTime":0,"channel":0,"type":"noteOn","noteNumber":45,"velocity":111},{"deltaTime":960,"channel":0,"type":"noteOff","noteNumber":45,"velocity":111},{"deltaTime":0,"channel":0,"type":"noteOn","noteNumber":64,"velocity":111},{"deltaTime":480,"channel":0,"type":"noteOff","noteNumber":64,"velocity":111},{"deltaTime":0,"channel":0,"type":"noteOn","noteNumber":57,"velocity":111},{"deltaTime":480,"channel":0,"type":"noteOff","noteNumber":57,"velocity":111},{"deltaTime":0,"channel":0,"type":"noteOn","noteNumber":62,"velocity":111},{"deltaTime":960,"channel":0,"type":"noteOff","noteNumber":62,"velocity":111},{"deltaTime":0,"channel":0,"type":"noteOn","noteNumber":57,"velocity":111},{"deltaTime":480,"channel":0,"type":"noteOff","noteNumber":57,"velocity":111},{"deltaTime":0,"channel":0,"type":"noteOn","noteNumber":45,"velocity":111},{"deltaTime":480,"channel":0,"type":"noteOff","noteNumber":45,"velocity":111},{"deltaTime":0,"channel":0,"type":"noteOn","noteNumber":62,"velocity":111},{"deltaTime":0,"channel":0,"type":"noteOn","noteNumber":55,"velocity":111},{"deltaTime":0,"channel":0,"type":"noteOn","noteNumber":50,"velocity":111},{"deltaTime":0,"channel":0,"type":"noteOn","noteNumber":45,"velocity":111},{"deltaTime":0,"channel":0,"type":"noteOn","noteNumber":43,"velocity":111},{"deltaTime":52,"channel":0,"type":"noteOff","noteNumber":45,"velocity":111},{"deltaTime":908,"channel":0,"type":"noteOff","noteNumber":62,"velocity":111},{"deltaTime":0,"channel":0,"type":"noteOff","noteNumber":55,"velocity":111},{"deltaTime":0,"channel":0,"type":"noteOff","noteNumber":50,"velocity":111},{"deltaTime":0,"channel":0,"type":"noteOff","noteNumber":43,"velocity":111},{"deltaTime":0,"channel":0,"type":"noteOn","noteNumber":62,"velocity":111},{"deltaTime":0,"channel":0,"type":"noteOn","noteNumber":55,"velocity":111},{"deltaTime":0,"channel":0,"type":"noteOn","noteNumber":50,"velocity":111},{"deltaTime":0,"channel":0,"type":"noteOn","noteNumber":45,"velocity":111},{"deltaTime":0,"channel":0,"type":"noteOn","noteNumber":43,"velocity":111},{"deltaTime":52,"channel":0,"type":"noteOff","noteNumber":45,"velocity":111},{"deltaTime":428,"channel":0,"type":"noteOff","noteNumber":62,"velocity":111},{"deltaTime":0,"channel":0,"type":"noteOff","noteNumber":55,"velocity":111},{"deltaTime":0,"channel":0,"type":"noteOff","noteNumber":50,"velocity":111},{"deltaTime":0,"channel":0,"type":"noteOff","noteNumber":43,"velocity":111},{"deltaTime":0,"channel":0,"type":"noteOn","noteNumber":50,"velocity":111},{"deltaTime":0,"channel":0,"type":"noteOn","noteNumber":45,"velocity":111},{"deltaTime":480,"channel":0,"type":"noteOff","noteNumber":50,"velocity":111},{"deltaTime":0,"channel":0,"type":"noteOff","noteNumber":45,"velocity":111},{"deltaTime":0,"channel":0,"type":"noteOn","noteNumber":62,"velocity":111},{"deltaTime":0,"channel":0,"type":"noteOn","noteNumber":57,"velocity":111},{"deltaTime":0,"channel":0,"type":"noteOn","noteNumber":50,"velocity":111},{"deltaTime":960,"channel":0,"type":"noteOff","noteNumber":62,"velocity":111},{"deltaTime":0,"channel":0,"type":"noteOff","noteNumber":57,"velocity":111},{"deltaTime":0,"channel":0,"type":"noteOff","noteNumber":50,"velocity":111},{"deltaTime":0,"channel":1,"type":"pitchBend","value":0},{"deltaTime":0,"channel":1,"type":"noteOn","noteNumber":48,"velocity":111},{"deltaTime":120,"channel":1,"type":"pitchBend","value":128},{"deltaTime":120,"channel":1,"type":"pitchBend","value":256},{"deltaTime":0,"channel":1,"type":"pitchBend","value":256},{"deltaTime":240,"channel":1,"type":"pitchBend","value":256},{"deltaTime":0,"channel":1,"type":"pitchBend","value":0},{"deltaTime":0,"channel":1,"type":"noteOff","noteNumber":48,"velocity":111},{"deltaTime":0,"channel":0,"type":"noteOn","noteNumber":47,"velocity":111},{"deltaTime":480,"channel":0,"type":"noteOff","noteNumber":47,"velocity":111},{"deltaTime":0,"channel":0,"type":"noteOn","noteNumber":45,"velocity":111},{"deltaTime":960,"channel":0,"type":"noteOff","noteNumber":45,"velocity":111},{"deltaTime":0,"channel":0,"type":"noteOn","noteNumber":64,"velocity":111},{"deltaTime":0,"channel":0,"type":"noteOn","noteNumber":57,"velocity":111},{"deltaTime":480,"channel":0,"type":"noteOff","noteNumber":64,"velocity":111},{"deltaTime":0,"channel":0,"type":"noteOff","noteNumber":57,"velocity":111},{"deltaTime":0,"channel":0,"type":"noteOn","noteNumber":62,"velocity":111},{"deltaTime":0,"channel":0,"type":"noteOn","noteNumber":57,"velocity":111},{"deltaTime":480,"channel":0,"type":"noteOff","noteNumber":62,"velocity":111},{"deltaTime":0,"channel":0,"type":"noteOff","noteNumber":57,"velocity":111},{"deltaTime":0,"channel":0,"type":"noteOn","noteNumber":64,"velocity":111},{"deltaTime":0,"channel":0,"type":"noteOn","noteNumber":57,"velocity":111},{"deltaTime":480,"channel":0,"type":"noteOff","noteNumber":64,"velocity":111},{"deltaTime":0,"channel":0,"type":"noteOff","noteNumber":57,"velocity":111},{"deltaTime":480,"channel":0,"type":"noteOn","noteNumber":62,"velocity":111},{"deltaTime":0,"channel":0,"type":"noteOn","noteNumber":57,"velocity":111},{"deltaTime":480,"channel":0,"type":"noteOff","noteNumber":62,"velocity":111},{"deltaTime":0,"channel":0,"type":"noteOff","noteNumber":57,"velocity":111},{"deltaTime":0,"channel":0,"type":"noteOn","noteNumber":60,"velocity":111},{"deltaTime":0,"channel":0,"type":"noteOn","noteNumber":55,"velocity":111},{"deltaTime":480,"channel":0,"type":"noteOff","noteNumber":60,"velocity":111},{"deltaTime":0,"channel":0,"type":"noteOff","noteNumber":55,"velocity":111},{"deltaTime":0,"channel":0,"type":"noteOn","noteNumber":62,"velocity":111},{"deltaTime":0,"channel":0,"type":"noteOn","noteNumber":57,"velocity":111},{"deltaTime":1920,"channel":0,"type":"noteOff","noteNumber":62,"velocity":111},{"deltaTime":0,"channel":0,"type":"noteOff","noteNumber":57,"velocity":111},{"deltaTime":0,"channel":0,"type":"noteOn","noteNumber":45,"velocity":111},{"deltaTime":480,"channel":0,"type":"noteOff","noteNumber":45,"velocity":111},{"deltaTime":0,"channel":0,"type":"noteOn","noteNumber":55,"velocity":111},{"deltaTime":0,"channel":0,"type":"noteOn","noteNumber":48,"velocity":111},{"deltaTime":960,"channel":0,"type":"noteOff","noteNumber":55,"velocity":111},{"deltaTime":0,"channel":0,"type":"noteOff","noteNumber":48,"velocity":111},{"deltaTime":0,"channel":0,"type":"noteOn","noteNumber":55,"velocity":111},{"deltaTime":0,"channel":0,"type":"noteOn","noteNumber":47,"velocity":111},{"deltaTime":960,"channel":0,"type":"noteOff","noteNumber":55,"velocity":111},{"deltaTime":0,"channel":0,"type":"noteOff","noteNumber":47,"velocity":111},{"deltaTime":0,"channel":0,"type":"noteOn","noteNumber":45,"velocity":111},{"deltaTime":480,"channel":0,"type":"noteOff","noteNumber":45,"velocity":111},{"deltaTime":0,"channel":0,"type":"noteOn","noteNumber":64,"velocity":111},{"deltaTime":0,"channel":0,"type":"noteOn","noteNumber":57,"velocity":111},{"deltaTime":480,"channel":0,"type":"noteOff","noteNumber":64,"velocity":111},{"deltaTime":0,"channel":0,"type":"noteOff","noteNumber":57,"velocity":111},{"deltaTime":0,"channel":0,"type":"noteOn","noteNumber":62,"velocity":111},{"deltaTime":0,"channel":0,"type":"noteOn","noteNumber":57,"velocity":111},{"deltaTime":480,"channel":0,"type":"noteOff","noteNumber":62,"velocity":111},{"deltaTime":0,"channel":0,"type":"noteOff","noteNumber":57,"velocity":111},{"deltaTime":0,"channel":0,"type":"noteOn","noteNumber":64,"velocity":111},{"deltaTime":0,"channel":0,"type":"noteOn","noteNumber":57,"velocity":111},{"deltaTime":480,"channel":0,"type":"noteOff","noteNumber":64,"velocity":111},{"deltaTime":0,"channel":0,"type":"noteOff","noteNumber":57,"velocity":111},{"deltaTime":480,"channel":0,"type":"noteOn","noteNumber":62,"velocity":111},{"deltaTime":0,"channel":0,"type":"noteOn","noteNumber":57,"velocity":111},{"deltaTime":480,"channel":0,"type":"noteOff","noteNumber":62,"velocity":111},{"deltaTime":0,"channel":0,"type":"noteOff","noteNumber":57,"velocity":111},{"deltaTime":0,"channel":0,"type":"noteOn","noteNumber":60,"velocity":111},{"deltaTime":0,"channel":0,"type":"noteOn","noteNumber":55,"velocity":111},{"deltaTime":480,"channel":0,"type":"noteOff","noteNumber":60,"velocity":111},{"deltaTime":0,"channel":0,"type":"noteOff","noteNumber":55,"velocity":111},{"deltaTime":0,"channel":0,"type":"noteOn","noteNumber":62,"velocity":111},{"deltaTime":0,"channel":0,"type":"noteOn","noteNumber":57,"velocity":111},{"deltaTime":1920,"channel":0,"type":"noteOff","noteNumber":62,"velocity":111},{"deltaTime":0,"channel":0,"type":"noteOff","noteNumber":57,"velocity":111},{"deltaTime":0,"channel":0,"type":"noteOn","noteNumber":45,"velocity":111},{"deltaTime":480,"channel":0,"type":"noteOff","noteNumber":45,"velocity":111},{"deltaTime":0,"channel":0,"type":"noteOn","noteNumber":55,"velocity":111},{"deltaTime":0,"channel":0,"type":"noteOn","noteNumber":48,"velocity":111},{"deltaTime":960,"channel":0,"type":"noteOff","noteNumber":55,"velocity":111},{"deltaTime":0,"channel":0,"type":"noteOff","noteNumber":48,"velocity":111},{"deltaTime":0,"channel":0,"type":"noteOn","noteNumber":55,"velocity":111},{"deltaTime":0,"channel":0,"type":"noteOn","noteNumber":47,"velocity":111},{"deltaTime":960,"channel":0,"type":"noteOff","noteNumber":55,"velocity":111},{"deltaTime":0,"channel":0,"type":"noteOff","noteNumber":47,"velocity":111},{"deltaTime":0,"channel":0,"type":"noteOn","noteNumber":45,"velocity":111},{"deltaTime":480,"channel":0,"type":"noteOff","noteNumber":45,"velocity":111},{"deltaTime":0,"channel":0,"type":"noteOn","noteNumber":52,"velocity":111},{"deltaTime":0,"channel":0,"type":"noteOn","noteNumber":45,"velocity":111},{"deltaTime":480,"channel":0,"type":"noteOff","noteNumber":52,"velocity":111},{"deltaTime":0,"channel":0,"type":"noteOff","noteNumber":45,"velocity":111},{"deltaTime":0,"channel":0,"type":"noteOn","noteNumber":50,"velocity":111},{"deltaTime":0,"channel":0,"type":"noteOn","noteNumber":45,"velocity":111},{"deltaTime":480,"channel":0,"type":"noteOff","noteNumber":50,"velocity":111},{"deltaTime":0,"channel":0,"type":"noteOff","noteNumber":45,"velocity":111},{"deltaTime":0,"channel":0,"type":"noteOn","noteNumber":52,"velocity":111},{"deltaTime":0,"channel":0,"type":"noteOn","noteNumber":45,"velocity":111},{"deltaTime":480,"channel":0,"type":"noteOff","noteNumber":52,"velocity":111},{"deltaTime":0,"channel":0,"type":"noteOff","noteNumber":45,"velocity":111},{"deltaTime":480,"channel":0,"type":"noteOn","noteNumber":62,"velocity":111},{"deltaTime":0,"channel":0,"type":"noteOn","noteNumber":57,"velocity":111},{"deltaTime":0,"channel":0,"type":"noteOn","noteNumber":50,"velocity":111},{"deltaTime":480,"channel":0,"type":"noteOff","noteNumber":62,"velocity":111},{"deltaTime":0,"channel":0,"type":"noteOff","noteNumber":57,"velocity":111},{"deltaTime":0,"channel":0,"type":"noteOff","noteNumber":50,"velocity":111},{"deltaTime":0,"channel":0,"type":"noteOn","noteNumber":60,"velocity":111},{"deltaTime":0,"channel":0,"type":"noteOn","noteNumber":55,"velocity":111},{"deltaTime":480,"channel":0,"type":"noteOff","noteNumber":60,"velocity":111},{"deltaTime":0,"channel":0,"type":"noteOff","noteNumber":55,"velocity":111},{"deltaTime":0,"channel":0,"type":"noteOn","noteNumber":62,"velocity":111},{"deltaTime":0,"channel":0,"type":"noteOn","noteNumber":57,"velocity":111},{"deltaTime":0,"channel":0,"type":"noteOn","noteNumber":50,"velocity":111},{"deltaTime":480,"channel":0,"type":"noteOff","noteNumber":62,"velocity":111},{"deltaTime":0,"channel":0,"type":"noteOff","noteNumber":57,"velocity":111},{"deltaTime":0,"channel":0,"type":"noteOff","noteNumber":50,"velocity":111},{"deltaTime":480,"channel":0,"type":"noteOn","noteNumber":50,"velocity":111},{"deltaTime":480,"channel":0,"type":"noteOff","noteNumber":50,"velocity":111},{"deltaTime":0,"channel":0,"type":"noteOn","noteNumber":50,"velocity":111},{"deltaTime":480,"channel":0,"type":"noteOff","noteNumber":50,"velocity":111},{"deltaTime":0,"channel":0,"type":"noteOn","noteNumber":45,"velocity":111},{"deltaTime":480,"channel":0,"type":"noteOff","noteNumber":45,"velocity":111},{"deltaTime":0,"channel":0,"type":"noteOn","noteNumber":55,"velocity":111},{"deltaTime":0,"channel":0,"type":"noteOn","noteNumber":48,"velocity":111},{"deltaTime":960,"channel":0,"type":"noteOff","noteNumber":55,"velocity":111},{"deltaTime":0,"channel":0,"type":"noteOff","noteNumber":48,"velocity":111},{"deltaTime":0,"channel":0,"type":"noteOn","noteNumber":55,"velocity":111},{"deltaTime":0,"channel":0,"type":"noteOn","noteNumber":47,"velocity":111},{"deltaTime":960,"channel":0,"type":"noteOff","noteNumber":55,"velocity":111},{"deltaTime":0,"channel":0,"type":"noteOff","noteNumber":47,"velocity":111},{"deltaTime":0,"channel":0,"type":"noteOn","noteNumber":45,"velocity":111},{"deltaTime":480,"channel":0,"type":"noteOff","noteNumber":45,"velocity":111},{"deltaTime":0,"channel":0,"type":"noteOn","noteNumber":52,"velocity":111},{"deltaTime":0,"channel":0,"type":"noteOn","noteNumber":45,"velocity":111},{"deltaTime":480,"channel":0,"type":"noteOff","noteNumber":52,"velocity":111},{"deltaTime":0,"channel":0,"type":"noteOff","noteNumber":45,"velocity":111},{"deltaTime":0,"channel":0,"type":"noteOn","noteNumber":50,"velocity":111},{"deltaTime":0,"channel":0,"type":"noteOn","noteNumber":45,"velocity":111},{"deltaTime":480,"channel":0,"type":"noteOff","noteNumber":50,"velocity":111},{"deltaTime":0,"channel":0,"type":"noteOff","noteNumber":45,"velocity":111},{"deltaTime":0,"channel":0,"type":"noteOn","noteNumber":52,"velocity":111},{"deltaTime":0,"channel":0,"type":"noteOn","noteNumber":45,"velocity":111},{"deltaTime":480,"channel":0,"type":"noteOff","noteNumber":52,"velocity":111},{"deltaTime":0,"channel":0,"type":"noteOff","noteNumber":45,"velocity":111},{"deltaTime":480,"channel":0,"type":"noteOn","noteNumber":62,"velocity":111},{"deltaTime":0,"channel":0,"type":"noteOn","noteNumber":57,"velocity":111},{"deltaTime":0,"channel":0,"type":"noteOn","noteNumber":50,"velocity":111},{"deltaTime":480,"channel":0,"type":"noteOff","noteNumber":62,"velocity":111},{"deltaTime":0,"channel":0,"type":"noteOff","noteNumber":57,"velocity":111},{"deltaTime":0,"channel":0,"type":"noteOff","noteNumber":50,"velocity":111},{"deltaTime":0,"channel":0,"type":"noteOn","noteNumber":60,"velocity":111},{"deltaTime":0,"channel":0,"type":"noteOn","noteNumber":55,"velocity":111},{"deltaTime":480,"channel":0,"type":"noteOff","noteNumber":60,"velocity":111},{"deltaTime":0,"channel":0,"type":"noteOff","noteNumber":55,"velocity":111},{"deltaTime":0,"channel":0,"type":"noteOn","noteNumber":62,"velocity":111},{"deltaTime":0,"channel":0,"type":"noteOn","noteNumber":57,"velocity":111},{"deltaTime":0,"channel":0,"type":"noteOn","noteNumber":50,"velocity":111},{"deltaTime":480,"channel":0,"type":"noteOff","noteNumber":62,"velocity":111},{"deltaTime":0,"channel":0,"type":"noteOff","noteNumber":57,"velocity":111},{"deltaTime":0,"channel":0,"type":"noteOff","noteNumber":50,"velocity":111},{"deltaTime":480,"channel":0,"type":"noteOn","noteNumber":50,"velocity":111},{"deltaTime":480,"channel":0,"type":"noteOff","noteNumber":50,"velocity":111},{"deltaTime":0,"channel":0,"type":"noteOn","noteNumber":50,"velocity":111},{"deltaTime":480,"channel":0,"type":"noteOff","noteNumber":50,"velocity":111},{"deltaTime":0,"channel":0,"type":"noteOn","noteNumber":45,"velocity":111},{"deltaTime":480,"channel":0,"type":"noteOff","noteNumber":45,"velocity":111},{"deltaTime":0,"channel":0,"type":"noteOn","noteNumber":55,"velocity":111},{"deltaTime":0,"channel":0,"type":"noteOn","noteNumber":48,"velocity":111},{"deltaTime":960,"channel":0,"type":"noteOff","noteNumber":55,"velocity":111},{"deltaTime":0,"channel":0,"type":"noteOff","noteNumber":48,"velocity":111},{"deltaTime":0,"channel":0,"type":"noteOn","noteNumber":55,"velocity":111},{"deltaTime":0,"channel":0,"type":"noteOn","noteNumber":47,"velocity":111},{"deltaTime":960,"channel":0,"type":"noteOff","noteNumber":55,"velocity":111},{"deltaTime":0,"channel":0,"type":"noteOff","noteNumber":47,"velocity":111},{"deltaTime":0,"channel":0,"type":"noteOn","noteNumber":45,"velocity":111},{"deltaTime":480,"channel":0,"type":"noteOff","noteNumber":45,"velocity":111},{"deltaTime":0,"channel":0,"type":"noteOn","noteNumber":52,"velocity":111},{"deltaTime":0,"channel":0,"type":"noteOn","noteNumber":45,"velocity":111},{"deltaTime":480,"channel":0,"type":"noteOff","noteNumber":52,"velocity":111},{"deltaTime":0,"channel":0,"type":"noteOff","noteNumber":45,"velocity":111},{"deltaTime":0,"channel":0,"type":"noteOn","noteNumber":50,"velocity":111},{"deltaTime":0,"channel":0,"type":"noteOn","noteNumber":45,"velocity":111},{"deltaTime":480,"channel":0,"type":"noteOff","noteNumber":50,"velocity":111},{"deltaTime":0,"channel":0,"type":"noteOff","noteNumber":45,"velocity":111},{"deltaTime":0,"channel":0,"type":"noteOn","noteNumber":52,"velocity":111},{"deltaTime":0,"channel":0,"type":"noteOn","noteNumber":45,"velocity":111},{"deltaTime":480,"channel":0,"type":"noteOff","noteNumber":52,"velocity":111},{"deltaTime":0,"channel":0,"type":"noteOff","noteNumber":45,"velocity":111},{"deltaTime":480,"channel":0,"type":"noteOn","noteNumber":62,"velocity":111},{"deltaTime":0,"channel":0,"type":"noteOn","noteNumber":57,"velocity":111},{"deltaTime":0,"channel":0,"type":"noteOn","noteNumber":50,"velocity":111},{"deltaTime":480,"channel":0,"type":"noteOff","noteNumber":62,"velocity":111},{"deltaTime":0,"channel":0,"type":"noteOff","noteNumber":57,"velocity":111},{"deltaTime":0,"channel":0,"type":"noteOff","noteNumber":50,"velocity":111},{"deltaTime":0,"channel":0,"type":"noteOn","noteNumber":60,"velocity":111},{"deltaTime":0,"channel":0,"type":"noteOn","noteNumber":55,"velocity":111},{"deltaTime":480,"channel":0,"type":"noteOff","noteNumber":60,"velocity":111},{"deltaTime":0,"channel":0,"type":"noteOff","noteNumber":55,"velocity":111},{"deltaTime":0,"channel":0,"type":"noteOn","noteNumber":62,"velocity":111},{"deltaTime":0,"channel":0,"type":"noteOn","noteNumber":57,"velocity":111},{"deltaTime":0,"channel":0,"type":"noteOn","noteNumber":50,"velocity":111},{"deltaTime":480,"channel":0,"type":"noteOff","noteNumber":62,"velocity":111},{"deltaTime":0,"channel":0,"type":"noteOff","noteNumber":57,"velocity":111},{"deltaTime":0,"channel":0,"type":"noteOff","noteNumber":50,"velocity":111},{"deltaTime":480,"channel":0,"type":"noteOn","noteNumber":50,"velocity":111},{"deltaTime":480,"channel":0,"type":"noteOff","noteNumber":50,"velocity":111},{"deltaTime":0,"channel":0,"type":"noteOn","noteNumber":50,"velocity":111},{"deltaTime":480,"channel":0,"type":"noteOff","noteNumber":50,"velocity":111},{"deltaTime":0,"channel":0,"type":"noteOn","noteNumber":45,"velocity":111},{"deltaTime":480,"channel":0,"type":"noteOff","noteNumber":45,"velocity":111},{"deltaTime":0,"channel":0,"type":"noteOn","noteNumber":55,"velocity":111},{"deltaTime":0,"channel":0,"type":"noteOn","noteNumber":48,"velocity":111},{"deltaTime":960,"channel":0,"type":"noteOff","noteNumber":55,"velocity":111},{"deltaTime":0,"channel":0,"type":"noteOff","noteNumber":48,"velocity":111},{"deltaTime":0,"channel":0,"type":"noteOn","noteNumber":55,"velocity":111},{"deltaTime":0,"channel":0,"type":"noteOn","noteNumber":47,"velocity":111},{"deltaTime":960,"channel":0,"type":"noteOff","noteNumber":55,"velocity":111},{"deltaTime":0,"channel":0,"type":"noteOff","noteNumber":47,"velocity":111},{"deltaTime":0,"channel":0,"type":"noteOn","noteNumber":45,"velocity":111},{"deltaTime":480,"channel":0,"type":"noteOff","noteNumber":45,"velocity":111},{"deltaTime":0,"channel":0,"type":"noteOn","noteNumber":52,"velocity":111},{"deltaTime":0,"channel":0,"type":"noteOn","noteNumber":45,"velocity":111},{"deltaTime":480,"channel":0,"type":"noteOff","noteNumber":52,"velocity":111},{"deltaTime":0,"channel":0,"type":"noteOff","noteNumber":45,"velocity":111},{"deltaTime":0,"channel":0,"type":"noteOn","noteNumber":50,"velocity":111},{"deltaTime":0,"channel":0,"type":"noteOn","noteNumber":45,"velocity":111},{"deltaTime":480,"channel":0,"type":"noteOff","noteNumber":50,"velocity":111},{"deltaTime":0,"channel":0,"type":"noteOff","noteNumber":45,"velocity":111},{"deltaTime":0,"channel":0,"type":"noteOn","noteNumber":52,"velocity":111},{"deltaTime":0,"channel":0,"type":"noteOn","noteNumber":45,"velocity":111},{"deltaTime":480,"channel":0,"type":"noteOff","noteNumber":52,"velocity":111},{"deltaTime":0,"channel":0,"type":"noteOff","noteNumber":45,"velocity":111},{"deltaTime":480,"channel":0,"type":"noteOn","noteNumber":62,"velocity":111},{"deltaTime":0,"channel":0,"type":"noteOn","noteNumber":57,"velocity":111},{"deltaTime":0,"channel":0,"type":"noteOn","noteNumber":50,"velocity":111},{"deltaTime":480,"channel":0,"type":"noteOff","noteNumber":62,"velocity":111},{"deltaTime":0,"channel":0,"type":"noteOff","noteNumber":57,"velocity":111},{"deltaTime":0,"channel":0,"type":"noteOff","noteNumber":50,"velocity":111},{"deltaTime":0,"channel":0,"type":"noteOn","noteNumber":60,"velocity":111},{"deltaTime":0,"channel":0,"type":"noteOn","noteNumber":55,"velocity":111},{"deltaTime":480,"channel":0,"type":"noteOff","noteNumber":60,"velocity":111},{"deltaTime":0,"channel":0,"type":"noteOff","noteNumber":55,"velocity":111},{"deltaTime":0,"channel":0,"type":"noteOn","noteNumber":62,"velocity":111},{"deltaTime":0,"channel":0,"type":"noteOn","noteNumber":57,"velocity":111},{"deltaTime":0,"channel":0,"type":"noteOn","noteNumber":50,"velocity":111},{"deltaTime":960,"channel":0,"type":"noteOff","noteNumber":62,"velocity":111},{"deltaTime":0,"channel":0,"type":"noteOff","noteNumber":57,"velocity":111},{"deltaTime":0,"channel":0,"type":"noteOff","noteNumber":50,"velocity":111},{"deltaTime":0,"channel":0,"type":"noteOn","noteNumber":50,"velocity":111},{"deltaTime":480,"channel":0,"type":"noteOff","noteNumber":50,"velocity":111},{"deltaTime":0,"channel":0,"type":"noteOn","noteNumber":62,"velocity":111},{"deltaTime":0,"channel":0,"type":"noteOn","noteNumber":57,"velocity":111},{"deltaTime":0,"channel":0,"type":"noteOn","noteNumber":50,"velocity":111},{"deltaTime":480,"channel":0,"type":"noteOff","noteNumber":62,"velocity":111},{"deltaTime":0,"channel":0,"type":"noteOff","noteNumber":57,"velocity":111},{"deltaTime":0,"channel":0,"type":"noteOff","noteNumber":50,"velocity":111},{"deltaTime":0,"channel":0,"type":"noteOn","noteNumber":45,"velocity":111},{"deltaTime":480,"channel":0,"type":"noteOff","noteNumber":45,"velocity":111},{"deltaTime":0,"channel":0,"type":"noteOn","noteNumber":55,"velocity":111},{"deltaTime":0,"channel":0,"type":"noteOn","noteNumber":48,"velocity":111},{"deltaTime":960,"channel":0,"type":"noteOff","noteNumber":55,"velocity":111},{"deltaTime":0,"channel":0,"type":"noteOff","noteNumber":48,"velocity":111},{"deltaTime":0,"channel":0,"type":"noteOn","noteNumber":55,"velocity":111},{"deltaTime":0,"channel":0,"type":"noteOn","noteNumber":47,"velocity":111},{"deltaTime":960,"channel":0,"type":"noteOff","noteNumber":55,"velocity":111},{"deltaTime":0,"channel":0,"type":"noteOff","noteNumber":47,"velocity":111},{"deltaTime":0,"channel":0,"type":"noteOn","noteNumber":50,"velocity":111},{"deltaTime":480,"channel":0,"type":"noteOff","noteNumber":50,"velocity":111},{"deltaTime":0,"channel":0,"type":"noteOn","noteNumber":62,"velocity":111},{"deltaTime":0,"channel":0,"type":"noteOn","noteNumber":57,"velocity":111},{"deltaTime":0,"channel":0,"type":"noteOn","noteNumber":50,"velocity":111},{"deltaTime":480,"channel":0,"type":"noteOff","noteNumber":62,"velocity":111},{"deltaTime":0,"channel":0,"type":"noteOff","noteNumber":57,"velocity":111},{"deltaTime":0,"channel":0,"type":"noteOff","noteNumber":50,"velocity":111},{"deltaTime":0,"channel":0,"type":"noteOn","noteNumber":55,"velocity":111},{"deltaTime":0,"channel":0,"type":"noteOn","noteNumber":50,"velocity":111},{"deltaTime":480,"channel":0,"type":"noteOff","noteNumber":55,"velocity":111},{"deltaTime":0,"channel":0,"type":"noteOff","noteNumber":50,"velocity":111},{"deltaTime":0,"channel":0,"type":"noteOn","noteNumber":62,"velocity":111},{"deltaTime":0,"channel":0,"type":"noteOn","noteNumber":57,"velocity":111},{"deltaTime":0,"channel":0,"type":"noteOn","noteNumber":50,"velocity":111},{"deltaTime":960,"channel":0,"type":"noteOff","noteNumber":62,"velocity":111},{"deltaTime":0,"channel":0,"type":"noteOff","noteNumber":57,"velocity":111},{"deltaTime":0,"channel":0,"type":"noteOff","noteNumber":50,"velocity":111},{"deltaTime":0,"channel":0,"type":"noteOn","noteNumber":62,"velocity":111},{"deltaTime":0,"channel":0,"type":"noteOn","noteNumber":57,"velocity":111},{"deltaTime":0,"channel":0,"type":"noteOn","noteNumber":50,"velocity":111},{"deltaTime":480,"channel":0,"type":"noteOff","noteNumber":62,"velocity":111},{"deltaTime":0,"channel":0,"type":"noteOff","noteNumber":57,"velocity":111},{"deltaTime":0,"channel":0,"type":"noteOff","noteNumber":50,"velocity":111},{"deltaTime":0,"channel":0,"type":"noteOn","noteNumber":62,"velocity":111},{"deltaTime":0,"channel":0,"type":"noteOn","noteNumber":55,"velocity":111},{"deltaTime":0,"channel":0,"type":"noteOn","noteNumber":50,"velocity":111},{"deltaTime":480,"channel":0,"type":"noteOff","noteNumber":62,"velocity":111},{"deltaTime":0,"channel":0,"type":"noteOff","noteNumber":55,"velocity":111},{"deltaTime":0,"channel":0,"type":"noteOff","noteNumber":50,"velocity":111},{"deltaTime":0,"channel":0,"type":"noteOn","noteNumber":62,"velocity":111},{"deltaTime":0,"channel":0,"type":"noteOn","noteNumber":57,"velocity":111},{"deltaTime":0,"channel":0,"type":"noteOn","noteNumber":50,"velocity":111},{"deltaTime":960,"channel":0,"type":"noteOff","noteNumber":62,"velocity":111},{"deltaTime":0,"channel":0,"type":"noteOff","noteNumber":57,"velocity":111},{"deltaTime":0,"channel":0,"type":"noteOff","noteNumber":50,"velocity":111},{"deltaTime":0,"channel":0,"type":"noteOn","noteNumber":62,"velocity":111},{"deltaTime":0,"channel":0,"type":"noteOn","noteNumber":57,"velocity":111},{"deltaTime":0,"channel":0,"type":"noteOn","noteNumber":50,"velocity":111},{"deltaTime":480,"channel":0,"type":"noteOff","noteNumber":62,"velocity":111},{"deltaTime":0,"channel":0,"type":"noteOff","noteNumber":57,"velocity":111},{"deltaTime":0,"channel":0,"type":"noteOff","noteNumber":50,"velocity":111},{"deltaTime":0,"channel":0,"type":"noteOn","noteNumber":62,"velocity":111},{"deltaTime":0,"channel":0,"type":"noteOn","noteNumber":57,"velocity":111},{"deltaTime":0,"channel":0,"type":"noteOn","noteNumber":50,"velocity":111},{"deltaTime":480,"channel":0,"type":"noteOff","noteNumber":62,"velocity":111},{"deltaTime":0,"channel":0,"type":"noteOff","noteNumber":57,"velocity":111},{"deltaTime":0,"channel":0,"type":"noteOff","noteNumber":50,"velocity":111},{"deltaTime":0,"channel":0,"type":"noteOn","noteNumber":55,"velocity":111},{"deltaTime":0,"channel":0,"type":"noteOn","noteNumber":50,"velocity":111},{"deltaTime":480,"channel":0,"type":"noteOff","noteNumber":55,"velocity":111},{"deltaTime":0,"channel":0,"type":"noteOff","noteNumber":50,"velocity":111},{"deltaTime":0,"channel":0,"type":"noteOn","noteNumber":60,"velocity":111},{"deltaTime":0,"channel":0,"type":"noteOn","noteNumber":55,"velocity":111},{"deltaTime":0,"channel":0,"type":"noteOn","noteNumber":48,"velocity":111},{"deltaTime":960,"channel":0,"type":"noteOff","noteNumber":60,"velocity":111},{"deltaTime":0,"channel":0,"type":"noteOff","noteNumber":55,"velocity":111},{"deltaTime":0,"channel":0,"type":"noteOff","noteNumber":48,"velocity":111},{"deltaTime":0,"channel":0,"type":"noteOn","noteNumber":62,"velocity":111},{"deltaTime":0,"channel":0,"type":"noteOn","noteNumber":55,"velocity":111},{"deltaTime":0,"channel":0,"type":"noteOn","noteNumber":50,"velocity":111},{"deltaTime":0,"channel":0,"type":"noteOn","noteNumber":45,"velocity":111},{"deltaTime":0,"channel":0,"type":"noteOn","noteNumber":43,"velocity":111},{"deltaTime":52,"channel":0,"type":"noteOff","noteNumber":45,"velocity":111},{"deltaTime":908,"channel":0,"type":"noteOff","noteNumber":62,"velocity":111},{"deltaTime":0,"channel":0,"type":"noteOff","noteNumber":55,"velocity":111},{"deltaTime":0,"channel":0,"type":"noteOff","noteNumber":50,"velocity":111},{"deltaTime":0,"channel":0,"type":"noteOff","noteNumber":43,"velocity":111},{"deltaTime":0,"channel":0,"type":"noteOn","noteNumber":62,"velocity":111},{"deltaTime":0,"channel":0,"type":"noteOn","noteNumber":57,"velocity":111},{"deltaTime":0,"channel":0,"type":"noteOn","noteNumber":50,"velocity":111},{"deltaTime":480,"channel":0,"type":"noteOff","noteNumber":62,"velocity":111},{"deltaTime":0,"channel":0,"type":"noteOff","noteNumber":57,"velocity":111},{"deltaTime":0,"channel":0,"type":"noteOff","noteNumber":50,"velocity":111},{"deltaTime":0,"channel":0,"type":"noteOn","noteNumber":62,"velocity":111},{"deltaTime":0,"channel":0,"type":"noteOn","noteNumber":57,"velocity":111},{"deltaTime":0,"channel":0,"type":"noteOn","noteNumber":50,"velocity":111},{"deltaTime":480,"channel":0,"type":"noteOff","noteNumber":62,"velocity":111},{"deltaTime":0,"channel":0,"type":"noteOff","noteNumber":57,"velocity":111},{"deltaTime":0,"channel":0,"type":"noteOff","noteNumber":50,"velocity":111},{"deltaTime":0,"channel":0,"type":"noteOn","noteNumber":62,"velocity":111},{"deltaTime":0,"channel":0,"type":"noteOn","noteNumber":55,"velocity":111},{"deltaTime":0,"channel":0,"type":"noteOn","noteNumber":50,"velocity":111},{"deltaTime":480,"channel":0,"type":"noteOff","noteNumber":62,"velocity":111},{"deltaTime":0,"channel":0,"type":"noteOff","noteNumber":55,"velocity":111},{"deltaTime":0,"channel":0,"type":"noteOff","noteNumber":50,"velocity":111},{"deltaTime":0,"channel":0,"type":"noteOn","noteNumber":62,"velocity":111},{"deltaTime":0,"channel":0,"type":"noteOn","noteNumber":57,"velocity":111},{"deltaTime":0,"channel":0,"type":"noteOn","noteNumber":50,"velocity":111},{"deltaTime":960,"channel":0,"type":"noteOff","noteNumber":62,"velocity":111},{"deltaTime":0,"channel":0,"type":"noteOff","noteNumber":57,"velocity":111},{"deltaTime":0,"channel":0,"type":"noteOff","noteNumber":50,"velocity":111},{"deltaTime":0,"channel":0,"type":"noteOn","noteNumber":62,"velocity":111},{"deltaTime":0,"channel":0,"type":"noteOn","noteNumber":57,"velocity":111},{"deltaTime":0,"channel":0,"type":"noteOn","noteNumber":50,"velocity":111},{"deltaTime":480,"channel":0,"type":"noteOff","noteNumber":62,"velocity":111},{"deltaTime":0,"channel":0,"type":"noteOff","noteNumber":57,"velocity":111},{"deltaTime":0,"channel":0,"type":"noteOff","noteNumber":50,"velocity":111},{"deltaTime":0,"channel":0,"type":"noteOn","noteNumber":59,"velocity":95},{"deltaTime":0,"channel":0,"type":"noteOn","noteNumber":55,"velocity":111},{"deltaTime":0,"channel":0,"type":"noteOn","noteNumber":50,"velocity":111},{"deltaTime":480,"channel":0,"type":"noteOff","noteNumber":59,"velocity":95},{"deltaTime":0,"channel":0,"type":"noteOff","noteNumber":55,"velocity":111},{"deltaTime":0,"channel":0,"type":"noteOff","noteNumber":50,"velocity":111},{"deltaTime":0,"channel":0,"type":"noteOn","noteNumber":62,"velocity":111},{"deltaTime":0,"channel":0,"type":"noteOn","noteNumber":57,"velocity":111},{"deltaTime":0,"channel":0,"type":"noteOn","noteNumber":50,"velocity":111},{"deltaTime":960,"channel":0,"type":"noteOff","noteNumber":62,"velocity":111},{"deltaTime":0,"channel":0,"type":"noteOff","noteNumber":57,"velocity":111},{"deltaTime":0,"channel":0,"type":"noteOff","noteNumber":50,"velocity":111},{"deltaTime":0,"channel":0,"type":"noteOn","noteNumber":62,"velocity":111},{"deltaTime":0,"channel":0,"type":"noteOn","noteNumber":57,"velocity":111},{"deltaTime":0,"channel":0,"type":"noteOn","noteNumber":50,"velocity":111},{"deltaTime":480,"channel":0,"type":"noteOff","noteNumber":62,"velocity":111},{"deltaTime":0,"channel":0,"type":"noteOff","noteNumber":57,"velocity":111},{"deltaTime":0,"channel":0,"type":"noteOff","noteNumber":50,"velocity":111},{"deltaTime":0,"channel":0,"type":"noteOn","noteNumber":62,"velocity":111},{"deltaTime":0,"channel":0,"type":"noteOn","noteNumber":57,"velocity":111},{"deltaTime":0,"channel":0,"type":"noteOn","noteNumber":50,"velocity":111},{"deltaTime":480,"channel":0,"type":"noteOff","noteNumber":62,"velocity":111},{"deltaTime":0,"channel":0,"type":"noteOff","noteNumber":57,"velocity":111},{"deltaTime":0,"channel":0,"type":"noteOff","noteNumber":50,"velocity":111},{"deltaTime":0,"channel":0,"type":"noteOn","noteNumber":59,"velocity":111},{"deltaTime":0,"channel":0,"type":"noteOn","noteNumber":55,"velocity":111},{"deltaTime":0,"channel":0,"type":"noteOn","noteNumber":50,"velocity":111},{"deltaTime":480,"channel":0,"type":"noteOff","noteNumber":59,"velocity":111},{"deltaTime":0,"channel":0,"type":"noteOff","noteNumber":55,"velocity":111},{"deltaTime":0,"channel":0,"type":"noteOff","noteNumber":50,"velocity":111},{"deltaTime":0,"channel":0,"type":"noteOn","noteNumber":60,"velocity":111},{"deltaTime":0,"channel":0,"type":"noteOn","noteNumber":55,"velocity":111},{"deltaTime":0,"channel":0,"type":"noteOn","noteNumber":48,"velocity":111},{"deltaTime":960,"channel":0,"type":"noteOff","noteNumber":60,"velocity":111},{"deltaTime":0,"channel":0,"type":"noteOff","noteNumber":55,"velocity":111},{"deltaTime":0,"channel":0,"type":"noteOff","noteNumber":48,"velocity":111},{"deltaTime":0,"channel":0,"type":"noteOn","noteNumber":62,"velocity":111},{"deltaTime":0,"channel":0,"type":"noteOn","noteNumber":55,"velocity":111},{"deltaTime":0,"channel":0,"type":"noteOn","noteNumber":50,"velocity":111},{"deltaTime":0,"channel":0,"type":"noteOn","noteNumber":45,"velocity":111},{"deltaTime":0,"channel":0,"type":"noteOn","noteNumber":43,"velocity":111},{"deltaTime":52,"channel":0,"type":"noteOff","noteNumber":45,"velocity":111},{"deltaTime":908,"channel":0,"type":"noteOff","noteNumber":62,"velocity":111},{"deltaTime":0,"channel":0,"type":"noteOff","noteNumber":55,"velocity":111},{"deltaTime":0,"channel":0,"type":"noteOff","noteNumber":50,"velocity":111},{"deltaTime":0,"channel":0,"type":"noteOff","noteNumber":43,"velocity":111},{"deltaTime":0,"channel":0,"type":"noteOn","noteNumber":40,"velocity":111},{"deltaTime":480,"channel":0,"type":"noteOff","noteNumber":40,"velocity":111},{"deltaTime":0,"channel":0,"type":"noteOn","noteNumber":64,"velocity":111},{"deltaTime":0,"channel":0,"type":"noteOn","noteNumber":59,"velocity":111},{"deltaTime":0,"channel":0,"type":"noteOn","noteNumber":52,"velocity":111},{"deltaTime":480,"channel":0,"type":"noteOff","noteNumber":64,"velocity":111},{"deltaTime":0,"channel":0,"type":"noteOff","noteNumber":59,"velocity":111},{"deltaTime":0,"channel":0,"type":"noteOff","noteNumber":52,"velocity":111},{"deltaTime":0,"channel":0,"type":"noteOn","noteNumber":57,"velocity":111},{"deltaTime":0,"channel":0,"type":"noteOn","noteNumber":52,"velocity":111},{"deltaTime":0,"channel":0,"type":"noteOn","noteNumber":40,"velocity":111},{"deltaTime":480,"channel":0,"type":"noteOff","noteNumber":57,"velocity":111},{"deltaTime":0,"channel":0,"type":"noteOff","noteNumber":52,"velocity":111},{"deltaTime":0,"channel":0,"type":"noteOff","noteNumber":40,"velocity":111},{"deltaTime":0,"channel":0,"type":"noteOn","noteNumber":64,"velocity":111},{"deltaTime":0,"channel":0,"type":"noteOn","noteNumber":59,"velocity":111},{"deltaTime":0,"channel":0,"type":"noteOn","noteNumber":52,"velocity":111},{"deltaTime":960,"channel":0,"type":"noteOff","noteNumber":64,"velocity":111},{"deltaTime":0,"channel":0,"type":"noteOff","noteNumber":59,"velocity":111},{"deltaTime":0,"channel":0,"type":"noteOff","noteNumber":52,"velocity":111},{"deltaTime":0,"channel":0,"type":"noteOn","noteNumber":64,"velocity":111},{"deltaTime":0,"channel":0,"type":"noteOn","noteNumber":59,"velocity":111},{"deltaTime":0,"channel":0,"type":"noteOn","noteNumber":52,"velocity":111},{"deltaTime":480,"channel":0,"type":"noteOff","noteNumber":64,"velocity":111},{"deltaTime":0,"channel":0,"type":"noteOff","noteNumber":59,"velocity":111},{"deltaTime":0,"channel":0,"type":"noteOff","noteNumber":52,"velocity":111},{"deltaTime":0,"channel":0,"type":"noteOn","noteNumber":57,"velocity":111},{"deltaTime":0,"channel":0,"type":"noteOn","noteNumber":52,"velocity":111},{"deltaTime":0,"channel":0,"type":"noteOn","noteNumber":40,"velocity":111},{"deltaTime":480,"channel":0,"type":"noteOff","noteNumber":57,"velocity":111},{"deltaTime":0,"channel":0,"type":"noteOff","noteNumber":52,"velocity":111},{"deltaTime":0,"channel":0,"type":"noteOff","noteNumber":40,"velocity":111},{"deltaTime":0,"channel":0,"type":"noteOn","noteNumber":64,"velocity":111},{"deltaTime":0,"channel":0,"type":"noteOn","noteNumber":59,"velocity":111},{"deltaTime":0,"channel":0,"type":"noteOn","noteNumber":52,"velocity":111},{"deltaTime":960,"channel":0,"type":"noteOff","noteNumber":64,"velocity":111},{"deltaTime":0,"channel":0,"type":"noteOff","noteNumber":59,"velocity":111},{"deltaTime":0,"channel":0,"type":"noteOff","noteNumber":52,"velocity":111},{"deltaTime":0,"channel":0,"type":"noteOn","noteNumber":64,"velocity":111},{"deltaTime":0,"channel":0,"type":"noteOn","noteNumber":59,"velocity":111},{"deltaTime":0,"channel":0,"type":"noteOn","noteNumber":52,"velocity":111},{"deltaTime":480,"channel":0,"type":"noteOff","noteNumber":64,"velocity":111},{"deltaTime":0,"channel":0,"type":"noteOff","noteNumber":59,"velocity":111},{"deltaTime":0,"channel":0,"type":"noteOff","noteNumber":52,"velocity":111},{"deltaTime":0,"channel":0,"type":"noteOn","noteNumber":64,"velocity":111},{"deltaTime":0,"channel":0,"type":"noteOn","noteNumber":59,"velocity":111},{"deltaTime":0,"channel":0,"type":"noteOn","noteNumber":52,"velocity":111},{"deltaTime":480,"channel":0,"type":"noteOff","noteNumber":64,"velocity":111},{"deltaTime":0,"channel":0,"type":"noteOff","noteNumber":59,"velocity":111},{"deltaTime":0,"channel":0,"type":"noteOff","noteNumber":52,"velocity":111},{"deltaTime":0,"channel":0,"type":"noteOn","noteNumber":55,"velocity":111},{"deltaTime":0,"channel":0,"type":"noteOn","noteNumber":50,"velocity":111},{"deltaTime":480,"channel":0,"type":"noteOff","noteNumber":55,"velocity":111},{"deltaTime":0,"channel":0,"type":"noteOff","noteNumber":50,"velocity":111},{"deltaTime":0,"channel":0,"type":"noteOn","noteNumber":62,"velocity":111},{"deltaTime":0,"channel":0,"type":"noteOn","noteNumber":57,"velocity":111},{"deltaTime":0,"channel":0,"type":"noteOn","noteNumber":50,"velocity":111},{"deltaTime":960,"channel":0,"type":"noteOff","noteNumber":57,"velocity":111},{"deltaTime":0,"channel":0,"type":"noteOff","noteNumber":50,"velocity":111},{"deltaTime":0,"channel":0,"type":"noteOn","noteNumber":57,"velocity":111},{"deltaTime":0,"channel":0,"type":"noteOn","noteNumber":52,"velocity":111},{"deltaTime":0,"channel":0,"type":"noteOn","noteNumber":45,"velocity":111},{"deltaTime":960,"channel":0,"type":"noteOff","noteNumber":57,"velocity":111},{"deltaTime":0,"channel":0,"type":"noteOff","noteNumber":52,"velocity":111},{"deltaTime":0,"channel":0,"type":"noteOff","noteNumber":45,"velocity":111},{"deltaTime":0,"channel":0,"type":"noteOn","noteNumber":40,"velocity":111},{"deltaTime":480,"channel":0,"type":"noteOff","noteNumber":40,"velocity":111},{"deltaTime":0,"channel":0,"type":"noteOn","noteNumber":64,"velocity":111},{"deltaTime":0,"channel":0,"type":"noteOn","noteNumber":59,"velocity":111},{"deltaTime":0,"channel":0,"type":"noteOn","noteNumber":52,"velocity":111},{"deltaTime":480,"channel":0,"type":"noteOff","noteNumber":64,"velocity":111},{"deltaTime":0,"channel":0,"type":"noteOff","noteNumber":59,"velocity":111},{"deltaTime":0,"channel":0,"type":"noteOff","noteNumber":52,"velocity":111},{"deltaTime":0,"channel":0,"type":"noteOn","noteNumber":57,"velocity":111},{"deltaTime":0,"channel":0,"type":"noteOn","noteNumber":52,"velocity":111},{"deltaTime":0,"channel":0,"type":"noteOn","noteNumber":40,"velocity":111},{"deltaTime":480,"channel":0,"type":"noteOff","noteNumber":57,"velocity":111},{"deltaTime":0,"channel":0,"type":"noteOff","noteNumber":52,"velocity":111},{"deltaTime":0,"channel":0,"type":"noteOff","noteNumber":40,"velocity":111},{"deltaTime":0,"channel":0,"type":"noteOn","noteNumber":64,"velocity":111},{"deltaTime":0,"channel":0,"type":"noteOn","noteNumber":59,"velocity":111},{"deltaTime":0,"channel":0,"type":"noteOn","noteNumber":52,"velocity":111},{"deltaTime":960,"channel":0,"type":"noteOff","noteNumber":64,"velocity":111},{"deltaTime":0,"channel":0,"type":"noteOff","noteNumber":59,"velocity":111},{"deltaTime":0,"channel":0,"type":"noteOff","noteNumber":52,"velocity":111},{"deltaTime":0,"channel":0,"type":"noteOn","noteNumber":64,"velocity":111},{"deltaTime":0,"channel":0,"type":"noteOn","noteNumber":59,"velocity":111},{"deltaTime":0,"channel":0,"type":"noteOn","noteNumber":52,"velocity":111},{"deltaTime":480,"channel":0,"type":"noteOff","noteNumber":64,"velocity":111},{"deltaTime":0,"channel":0,"type":"noteOff","noteNumber":59,"velocity":111},{"deltaTime":0,"channel":0,"type":"noteOff","noteNumber":52,"velocity":111},{"deltaTime":0,"channel":0,"type":"noteOn","noteNumber":57,"velocity":111},{"deltaTime":0,"channel":0,"type":"noteOn","noteNumber":52,"velocity":111},{"deltaTime":0,"channel":0,"type":"noteOn","noteNumber":40,"velocity":111},{"deltaTime":480,"channel":0,"type":"noteOff","noteNumber":57,"velocity":111},{"deltaTime":0,"channel":0,"type":"noteOff","noteNumber":52,"velocity":111},{"deltaTime":0,"channel":0,"type":"noteOff","noteNumber":40,"velocity":111},{"deltaTime":0,"channel":0,"type":"noteOn","noteNumber":64,"velocity":111},{"deltaTime":0,"channel":0,"type":"noteOn","noteNumber":59,"velocity":111},{"deltaTime":0,"channel":0,"type":"noteOn","noteNumber":52,"velocity":111},{"deltaTime":960,"channel":0,"type":"noteOff","noteNumber":62,"velocity":111},{"deltaTime":0,"channel":0,"type":"noteOff","noteNumber":64,"velocity":111},{"deltaTime":0,"channel":0,"type":"noteOff","noteNumber":59,"velocity":111},{"deltaTime":0,"channel":0,"type":"noteOff","noteNumber":52,"velocity":111},{"deltaTime":0,"channel":0,"type":"noteOn","noteNumber":64,"velocity":111},{"deltaTime":0,"channel":0,"type":"noteOn","noteNumber":59,"velocity":111},{"deltaTime":0,"channel":0,"type":"noteOn","noteNumber":52,"velocity":111},{"deltaTime":480,"channel":0,"type":"noteOff","noteNumber":64,"velocity":111},{"deltaTime":0,"channel":0,"type":"noteOff","noteNumber":59,"velocity":111},{"deltaTime":0,"channel":0,"type":"noteOff","noteNumber":52,"velocity":111},{"deltaTime":0,"channel":0,"type":"noteOn","noteNumber":64,"velocity":111},{"deltaTime":0,"channel":0,"type":"noteOn","noteNumber":59,"velocity":111},{"deltaTime":0,"channel":0,"type":"noteOn","noteNumber":52,"velocity":111},{"deltaTime":480,"channel":0,"type":"noteOff","noteNumber":64,"velocity":111},{"deltaTime":0,"channel":0,"type":"noteOff","noteNumber":59,"velocity":111},{"deltaTime":0,"channel":0,"type":"noteOff","noteNumber":52,"velocity":111},{"deltaTime":0,"channel":0,"type":"noteOn","noteNumber":55,"velocity":111},{"deltaTime":0,"channel":0,"type":"noteOn","noteNumber":50,"velocity":111},{"deltaTime":480,"channel":0,"type":"noteOff","noteNumber":55,"velocity":111},{"deltaTime":0,"channel":0,"type":"noteOff","noteNumber":50,"velocity":111},{"deltaTime":0,"channel":0,"type":"noteOn","noteNumber":62,"velocity":111},{"deltaTime":0,"channel":0,"type":"noteOn","noteNumber":55,"velocity":111},{"deltaTime":0,"channel":0,"type":"noteOn","noteNumber":50,"velocity":111},{"deltaTime":0,"channel":0,"type":"noteOn","noteNumber":45,"velocity":111},{"deltaTime":0,"channel":0,"type":"noteOn","noteNumber":43,"velocity":111},{"deltaTime":52,"channel":0,"type":"noteOff","noteNumber":45,"velocity":111},{"deltaTime":908,"channel":0,"type":"noteOff","noteNumber":62,"velocity":111},{"deltaTime":0,"channel":0,"type":"noteOff","noteNumber":55,"velocity":111},{"deltaTime":0,"channel":0,"type":"noteOff","noteNumber":50,"velocity":111},{"deltaTime":0,"channel":0,"type":"noteOff","noteNumber":43,"velocity":111},{"deltaTime":0,"channel":0,"type":"noteOn","noteNumber":62,"velocity":111},{"deltaTime":0,"channel":0,"type":"noteOn","noteNumber":55,"velocity":111},{"deltaTime":0,"channel":0,"type":"noteOn","noteNumber":50,"velocity":111},{"deltaTime":0,"channel":0,"type":"noteOn","noteNumber":45,"velocity":111},{"deltaTime":0,"channel":0,"type":"noteOn","noteNumber":43,"velocity":111},{"deltaTime":52,"channel":0,"type":"noteOff","noteNumber":45,"velocity":111},{"deltaTime":908,"channel":0,"type":"noteOff","noteNumber":62,"velocity":111},{"deltaTime":0,"channel":0,"type":"noteOff","noteNumber":55,"velocity":111},{"deltaTime":0,"channel":0,"type":"noteOff","noteNumber":50,"velocity":111},{"deltaTime":0,"channel":0,"type":"noteOff","noteNumber":43,"velocity":111},{"deltaTime":0,"channel":0,"type":"noteOn","noteNumber":45,"velocity":111},{"deltaTime":480,"channel":0,"type":"noteOff","noteNumber":45,"velocity":111},{"deltaTime":0,"channel":0,"type":"noteOn","noteNumber":64,"velocity":111},{"deltaTime":480,"channel":0,"type":"noteOff","noteNumber":64,"velocity":111},{"deltaTime":0,"channel":0,"type":"noteOn","noteNumber":57,"velocity":111},{"deltaTime":480,"channel":0,"type":"noteOff","noteNumber":57,"velocity":111},{"deltaTime":0,"channel":0,"type":"noteOn","noteNumber":62,"velocity":111},{"deltaTime":960,"channel":0,"type":"noteOff","noteNumber":62,"velocity":111},{"deltaTime":0,"channel":0,"type":"noteOn","noteNumber":57,"velocity":111},{"deltaTime":480,"channel":0,"type":"noteOff","noteNumber":57,"velocity":111},{"deltaTime":0,"channel":0,"type":"noteOn","noteNumber":45,"velocity":111},{"deltaTime":480,"channel":0,"type":"noteOff","noteNumber":45,"velocity":111},{"deltaTime":0,"channel":0,"type":"noteOn","noteNumber":60,"velocity":111},{"deltaTime":960,"channel":0,"type":"noteOff","noteNumber":60,"velocity":111},{"deltaTime":0,"channel":0,"type":"noteOn","noteNumber":55,"velocity":111},{"deltaTime":480,"channel":0,"type":"noteOff","noteNumber":55,"velocity":111},{"deltaTime":0,"channel":0,"type":"noteOn","noteNumber":45,"velocity":111},{"deltaTime":480,"channel":0,"type":"noteOff","noteNumber":45,"velocity":111},{"deltaTime":0,"channel":0,"type":"noteOn","noteNumber":62,"velocity":111},{"deltaTime":960,"channel":0,"type":"noteOff","noteNumber":62,"velocity":111},{"deltaTime":0,"channel":0,"type":"noteOn","noteNumber":57,"velocity":111},{"deltaTime":480,"channel":0,"type":"noteOff","noteNumber":57,"velocity":111},{"deltaTime":0,"channel":0,"type":"noteOn","noteNumber":45,"velocity":111},{"deltaTime":480,"channel":0,"type":"noteOff","noteNumber":45,"velocity":111},{"deltaTime":0,"channel":0,"type":"noteOn","noteNumber":45,"velocity":111},{"deltaTime":960,"channel":0,"type":"noteOff","noteNumber":45,"velocity":111},{"deltaTime":0,"channel":0,"type":"noteOn","noteNumber":64,"velocity":111},{"deltaTime":480,"channel":0,"type":"noteOff","noteNumber":64,"velocity":111},{"deltaTime":0,"channel":0,"type":"noteOn","noteNumber":57,"velocity":111},{"deltaTime":480,"channel":0,"type":"noteOff","noteNumber":57,"velocity":111},{"deltaTime":0,"channel":0,"type":"noteOn","noteNumber":62,"velocity":111},{"deltaTime":960,"channel":0,"type":"noteOff","noteNumber":62,"velocity":111},{"deltaTime":0,"channel":0,"type":"noteOn","noteNumber":57,"velocity":111},{"deltaTime":480,"channel":0,"type":"noteOff","noteNumber":57,"velocity":111},{"deltaTime":0,"channel":0,"type":"noteOn","noteNumber":45,"velocity":111},{"deltaTime":480,"channel":0,"type":"noteOff","noteNumber":45,"velocity":111},{"deltaTime":0,"channel":0,"type":"noteOn","noteNumber":60,"velocity":111},{"deltaTime":960,"channel":0,"type":"noteOff","noteNumber":60,"velocity":111},{"deltaTime":0,"channel":0,"type":"noteOn","noteNumber":55,"velocity":111},{"deltaTime":480,"channel":0,"type":"noteOff","noteNumber":55,"velocity":111},{"deltaTime":0,"channel":0,"type":"noteOn","noteNumber":45,"velocity":111},{"deltaTime":480,"channel":0,"type":"noteOff","noteNumber":45,"velocity":111},{"deltaTime":0,"channel":0,"type":"noteOn","noteNumber":62,"velocity":111},{"deltaTime":960,"channel":0,"type":"noteOff","noteNumber":62,"velocity":111},{"deltaTime":0,"channel":0,"type":"noteOn","noteNumber":55,"velocity":111},{"deltaTime":0,"channel":0,"type":"noteOn","noteNumber":48,"velocity":111},{"deltaTime":480,"channel":0,"type":"noteOff","noteNumber":55,"velocity":111},{"deltaTime":0,"channel":0,"type":"noteOff","noteNumber":48,"velocity":111},{"deltaTime":0,"channel":0,"type":"noteOn","noteNumber":55,"velocity":111},{"deltaTime":0,"channel":0,"type":"noteOn","noteNumber":47,"velocity":95},{"deltaTime":480,"channel":0,"type":"noteOff","noteNumber":55,"velocity":111},{"deltaTime":0,"channel":0,"type":"noteOff","noteNumber":47,"velocity":95},{"deltaTime":0,"channel":0,"type":"noteOn","noteNumber":45,"velocity":111},{"deltaTime":960,"channel":0,"type":"noteOff","noteNumber":45,"velocity":111},{"deltaTime":0,"channel":0,"type":"noteOn","noteNumber":64,"velocity":111},{"deltaTime":480,"channel":0,"type":"noteOff","noteNumber":64,"velocity":111},{"deltaTime":0,"channel":0,"type":"noteOn","noteNumber":57,"velocity":111},{"deltaTime":480,"channel":0,"type":"noteOff","noteNumber":57,"velocity":111},{"deltaTime":0,"channel":0,"type":"noteOn","noteNumber":62,"velocity":111},{"deltaTime":960,"channel":0,"type":"noteOff","noteNumber":62,"velocity":111},{"deltaTime":0,"channel":0,"type":"noteOn","noteNumber":57,"velocity":111},{"deltaTime":480,"channel":0,"type":"noteOff","noteNumber":57,"velocity":111},{"deltaTime":0,"channel":0,"type":"noteOn","noteNumber":45,"velocity":111},{"deltaTime":480,"channel":0,"type":"noteOff","noteNumber":45,"velocity":111},{"deltaTime":0,"channel":0,"type":"noteOn","noteNumber":60,"velocity":111},{"deltaTime":960,"channel":0,"type":"noteOff","noteNumber":60,"velocity":111},{"deltaTime":0,"channel":0,"type":"noteOn","noteNumber":55,"velocity":111},{"deltaTime":480,"channel":0,"type":"noteOff","noteNumber":55,"velocity":111},{"deltaTime":0,"channel":0,"type":"noteOn","noteNumber":45,"velocity":111},{"deltaTime":480,"channel":0,"type":"noteOff","noteNumber":45,"velocity":111},{"deltaTime":0,"channel":0,"type":"noteOn","noteNumber":62,"velocity":111},{"deltaTime":960,"channel":0,"type":"noteOff","noteNumber":62,"velocity":111},{"deltaTime":0,"channel":0,"type":"noteOn","noteNumber":57,"velocity":111},{"deltaTime":480,"channel":0,"type":"noteOff","noteNumber":57,"velocity":111},{"deltaTime":0,"channel":0,"type":"noteOn","noteNumber":45,"velocity":111},{"deltaTime":480,"channel":0,"type":"noteOff","noteNumber":45,"velocity":111},{"deltaTime":0,"channel":0,"type":"noteOn","noteNumber":45,"velocity":111},{"deltaTime":960,"channel":0,"type":"noteOff","noteNumber":45,"velocity":111},{"deltaTime":0,"channel":0,"type":"noteOn","noteNumber":64,"velocity":111},{"deltaTime":480,"channel":0,"type":"noteOff","noteNumber":64,"velocity":111},{"deltaTime":0,"channel":0,"type":"noteOn","noteNumber":57,"velocity":111},{"deltaTime":480,"channel":0,"type":"noteOff","noteNumber":57,"velocity":111},{"deltaTime":0,"channel":0,"type":"noteOn","noteNumber":62,"velocity":111},{"deltaTime":960,"channel":0,"type":"noteOff","noteNumber":62,"velocity":111},{"deltaTime":0,"channel":0,"type":"noteOn","noteNumber":57,"velocity":111},{"deltaTime":480,"channel":0,"type":"noteOff","noteNumber":57,"velocity":111},{"deltaTime":0,"channel":0,"type":"noteOn","noteNumber":45,"velocity":111},{"deltaTime":480,"channel":0,"type":"noteOff","noteNumber":45,"velocity":111},{"deltaTime":0,"channel":0,"type":"noteOn","noteNumber":67,"velocity":111},{"deltaTime":0,"channel":0,"type":"noteOn","noteNumber":62,"velocity":111},{"deltaTime":0,"channel":0,"type":"noteOn","noteNumber":55,"velocity":111},{"deltaTime":0,"channel":0,"type":"noteOn","noteNumber":50,"velocity":111},{"deltaTime":0,"channel":0,"type":"noteOn","noteNumber":45,"velocity":111},{"deltaTime":0,"channel":0,"type":"noteOn","noteNumber":43,"velocity":111},{"deltaTime":52,"channel":0,"type":"noteOff","noteNumber":45,"velocity":111},{"deltaTime":908,"channel":0,"type":"noteOff","noteNumber":67,"velocity":111},{"deltaTime":0,"channel":0,"type":"noteOff","noteNumber":62,"velocity":111},{"deltaTime":0,"channel":0,"type":"noteOff","noteNumber":55,"velocity":111},{"deltaTime":0,"channel":0,"type":"noteOff","noteNumber":50,"velocity":111},{"deltaTime":0,"channel":0,"type":"noteOff","noteNumber":43,"velocity":111},{"deltaTime":0,"channel":0,"type":"noteOn","noteNumber":67,"velocity":111},{"deltaTime":0,"channel":0,"type":"noteOn","noteNumber":62,"velocity":111},{"deltaTime":0,"channel":0,"type":"noteOn","noteNumber":55,"velocity":111},{"deltaTime":0,"channel":0,"type":"noteOn","noteNumber":50,"velocity":111},{"deltaTime":0,"channel":0,"type":"noteOn","noteNumber":45,"velocity":111},{"deltaTime":0,"channel":0,"type":"noteOn","noteNumber":43,"velocity":111},{"deltaTime":52,"channel":0,"type":"noteOff","noteNumber":45,"velocity":111},{"deltaTime":428,"channel":0,"type":"noteOff","noteNumber":67,"velocity":111},{"deltaTime":0,"channel":0,"type":"noteOff","noteNumber":62,"velocity":111},{"deltaTime":0,"channel":0,"type":"noteOff","noteNumber":55,"velocity":111},{"deltaTime":0,"channel":0,"type":"noteOff","noteNumber":50,"velocity":111},{"deltaTime":0,"channel":0,"type":"noteOff","noteNumber":43,"velocity":111},{"deltaTime":0,"channel":0,"type":"noteOn","noteNumber":45,"velocity":111},{"deltaTime":0,"channel":0,"type":"noteOn","noteNumber":40,"velocity":111},{"deltaTime":480,"channel":0,"type":"noteOff","noteNumber":45,"velocity":111},{"deltaTime":0,"channel":0,"type":"noteOff","noteNumber":40,"velocity":111},{"deltaTime":0,"channel":0,"type":"noteOn","noteNumber":62,"velocity":111},{"deltaTime":0,"channel":0,"type":"noteOn","noteNumber":57,"velocity":111},{"deltaTime":0,"channel":0,"type":"noteOn","noteNumber":50,"velocity":111},{"deltaTime":960,"channel":0,"type":"noteOff","noteNumber":62,"velocity":111},{"deltaTime":0,"channel":0,"type":"noteOff","noteNumber":57,"velocity":111},{"deltaTime":0,"channel":0,"type":"noteOff","noteNumber":50,"velocity":111},{"deltaTime":0,"channel":0,"type":"noteOn","noteNumber":55,"velocity":111},{"deltaTime":0,"channel":0,"type":"noteOn","noteNumber":48,"velocity":111},{"deltaTime":480,"channel":0,"type":"noteOff","noteNumber":55,"velocity":111},{"deltaTime":0,"channel":0,"type":"noteOff","noteNumber":48,"velocity":111},{"deltaTime":0,"channel":0,"type":"noteOn","noteNumber":55,"velocity":111},{"deltaTime":0,"channel":0,"type":"noteOn","noteNumber":47,"velocity":111},{"deltaTime":480,"channel":0,"type":"noteOff","noteNumber":55,"velocity":111},{"deltaTime":0,"channel":0,"type":"noteOff","noteNumber":47,"velocity":111},{"deltaTime":0,"channel":0,"type":"noteOn","noteNumber":57,"velocity":111},{"deltaTime":0,"channel":0,"type":"noteOn","noteNumber":52,"velocity":111},{"deltaTime":0,"channel":0,"type":"noteOn","noteNumber":45,"velocity":111},{"deltaTime":4320,"channel":0,"type":"noteOff","noteNumber":57,"velocity":111},{"deltaTime":0,"channel":0,"type":"noteOff","noteNumber":52,"velocity":111},{"deltaTime":0,"channel":0,"type":"noteOff","noteNumber":45,"velocity":111},{"deltaTime":480,"channel":0,"type":"noteOn","noteNumber":67,"velocity":111},{"deltaTime":0,"channel":0,"type":"noteOn","noteNumber":62,"velocity":111},{"deltaTime":480,"channel":0,"type":"noteOff","noteNumber":67,"velocity":111},{"deltaTime":0,"channel":0,"type":"noteOff","noteNumber":62,"velocity":111},{"deltaTime":0,"channel":1,"type":"pitchBend","value":0},{"deltaTime":0,"channel":1,"type":"noteOn","noteNumber":66,"velocity":111},{"deltaTime":0,"channel":1,"type":"pitchBend","value":0},{"deltaTime":0,"channel":1,"type":"noteOn","noteNumber":62,"velocity":111},{"deltaTime":24,"channel":1,"type":"pitchBend","value":128},{"deltaTime":0,"channel":1,"type":"pitchBend","value":128},{"deltaTime":24,"channel":1,"type":"pitchBend","value":256},{"deltaTime":0,"channel":1,"type":"pitchBend","value":256},{"deltaTime":24,"channel":1,"type":"pitchBend","value":384},{"deltaTime":0,"channel":1,"type":"pitchBend","value":384},{"deltaTime":24,"channel":1,"type":"pitchBend","value":512},{"deltaTime":0,"channel":1,"type":"pitchBend","value":512},{"deltaTime":24,"channel":1,"type":"pitchBend","value":640},{"deltaTime":0,"channel":1,"type":"pitchBend","value":640},{"deltaTime":0,"channel":1,"type":"pitchBend","value":640},{"deltaTime":0,"channel":1,"type":"pitchBend","value":640},{"deltaTime":120,"channel":1,"type":"pitchBend","value":640},{"deltaTime":0,"channel":1,"type":"pitchBend","value":640},{"deltaTime":24,"channel":1,"type":"pitchBend","value":512},{"deltaTime":0,"channel":1,"type":"pitchBend","value":512},{"deltaTime":24,"channel":1,"type":"pitchBend","value":384},{"deltaTime":0,"channel":1,"type":"pitchBend","value":384},{"deltaTime":24,"channel":1,"type":"pitchBend","value":256},{"deltaTime":0,"channel":1,"type":"pitchBend","value":256},{"deltaTime":24,"channel":1,"type":"pitchBend","value":128},{"deltaTime":0,"channel":1,"type":"pitchBend","value":128},{"deltaTime":24,"channel":1,"type":"pitchBend","value":0},{"deltaTime":0,"channel":1,"type":"pitchBend","value":0},{"deltaTime":0,"channel":1,"type":"pitchBend","value":0},{"deltaTime":0,"channel":1,"type":"pitchBend","value":0},{"deltaTime":120,"channel":1,"type":"pitchBend","value":0},{"deltaTime":0,"channel":1,"type":"pitchBend","value":0},{"deltaTime":0,"channel":1,"type":"noteOff","noteNumber":66,"velocity":111},{"deltaTime":0,"channel":1,"type":"pitchBend","value":0},{"deltaTime":0,"channel":1,"type":"pitchBend","value":0},{"deltaTime":0,"channel":1,"type":"noteOff","noteNumber":62,"velocity":111},{"deltaTime":0,"channel":0,"type":"noteOn","noteNumber":71,"velocity":47},{"deltaTime":0,"channel":0,"type":"noteOn","noteNumber":83,"velocity":111},{"deltaTime":480,"channel":0,"type":"noteOff","noteNumber":71,"velocity":47},{"deltaTime":0,"channel":0,"type":"noteOff","noteNumber":83,"velocity":111},{"deltaTime":0,"channel":0,"type":"noteOn","noteNumber":66,"velocity":111},{"deltaTime":0,"channel":0,"type":"noteOn","noteNumber":62,"velocity":111},{"deltaTime":480,"channel":0,"type":"noteOff","noteNumber":66,"velocity":111},{"deltaTime":0,"channel":0,"type":"noteOff","noteNumber":62,"velocity":111},{"deltaTime":0,"channel":0,"type":"noteOn","noteNumber":64,"velocity":111},{"deltaTime":0,"channel":1,"type":"pitchBend","value":0},{"deltaTime":0,"channel":1,"type":"noteOn","noteNumber":60,"velocity":111},{"deltaTime":120,"channel":1,"type":"pitchBend","value":128},{"deltaTime":120,"channel":1,"type":"pitchBend","value":256},{"deltaTime":0,"channel":1,"type":"pitchBend","value":256},{"deltaTime":240,"channel":0,"type":"noteOff","noteNumber":64,"velocity":111},{"deltaTime":0,"channel":1,"type":"pitchBend","value":256},{"deltaTime":0,"channel":1,"type":"pitchBend","value":0},{"deltaTime":0,"channel":1,"type":"noteOff","noteNumber":60,"velocity":111},{"deltaTime":0,"channel":0,"type":"noteOn","noteNumber":57,"velocity":111},{"deltaTime":360,"channel":1,"type":"noteOn","noteNumber":55,"velocity":95},{"deltaTime":120,"channel":0,"type":"noteOff","noteNumber":57,"velocity":111},{"deltaTime":0,"channel":1,"type":"noteOff","noteNumber":55,"velocity":95},{"deltaTime":0,"channel":1,"type":"noteOn","noteNumber":57,"velocity":47},{"deltaTime":0,"channel":1,"type":"noteOn","noteNumber":69,"velocity":111},{"deltaTime":2400,"channel":1,"type":"noteOff","noteNumber":57,"velocity":47},{"deltaTime":0,"channel":1,"type":"noteOff","noteNumber":69,"velocity":111},{"deltaTime":480,"channel":0,"type":"noteOn","noteNumber":69,"velocity":111},{"deltaTime":0,"channel":0,"type":"noteOn","noteNumber":64,"velocity":111},{"deltaTime":480,"channel":0,"type":"noteOff","noteNumber":69,"velocity":111},{"deltaTime":0,"channel":0,"type":"noteOff","noteNumber":64,"velocity":111},{"deltaTime":0,"channel":1,"type":"pitchBend","value":0},{"deltaTime":0,"channel":1,"type":"noteOn","noteNumber":66,"velocity":111},{"deltaTime":0,"channel":1,"type":"pitchBend","value":0},{"deltaTime":0,"channel":1,"type":"noteOn","noteNumber":62,"velocity":111},{"deltaTime":48,"channel":1,"type":"pitchBend","value":128},{"deltaTime":0,"channel":1,"type":"pitchBend","value":128},{"deltaTime":48,"channel":1,"type":"pitchBend","value":256},{"deltaTime":0,"channel":1,"type":"pitchBend","value":256},{"deltaTime":48,"channel":1,"type":"pitchBend","value":384},{"deltaTime":0,"channel":1,"type":"pitchBend","value":384},{"deltaTime":48,"channel":1,"type":"pitchBend","value":512},{"deltaTime":0,"channel":1,"type":"pitchBend","value":512},{"deltaTime":48,"channel":1,"type":"pitchBend","value":640},{"deltaTime":0,"channel":1,"type":"pitchBend","value":640},{"deltaTime":0,"channel":1,"type":"pitchBend","value":640},{"deltaTime":0,"channel":1,"type":"pitchBend","value":640},{"deltaTime":240,"channel":1,"type":"pitchBend","value":640},{"deltaTime":0,"channel":1,"type":"pitchBend","value":0},{"deltaTime":0,"channel":1,"type":"noteOff","noteNumber":66,"velocity":111},{"deltaTime":0,"channel":1,"type":"pitchBend","value":640},{"deltaTime":0,"channel":1,"type":"pitchBend","value":0},{"deltaTime":0,"channel":1,"type":"noteOff","noteNumber":62,"velocity":111},{"deltaTime":0,"channel":0,"type":"noteOn","noteNumber":66,"velocity":111},{"deltaTime":0,"channel":0,"type":"noteOn","noteNumber":62,"velocity":111},{"deltaTime":2400,"channel":0,"type":"noteOff","noteNumber":66,"velocity":111},{"deltaTime":0,"channel":0,"type":"noteOff","noteNumber":62,"velocity":111},{"deltaTime":0,"channel":1,"type":"pitchBend","value":0},{"deltaTime":0,"channel":1,"type":"noteOn","noteNumber":66,"velocity":111},{"deltaTime":0,"channel":1,"type":"pitchBend","value":0},{"deltaTime":0,"channel":1,"type":"noteOn","noteNumber":62,"velocity":111},{"deltaTime":192,"channel":1,"type":"pitchBend","value":128},{"deltaTime":0,"channel":1,"type":"pitchBend","value":128},{"deltaTime":192,"channel":1,"type":"pitchBend","value":256},{"deltaTime":0,"channel":1,"type":"pitchBend","value":256},{"deltaTime":192,"channel":1,"type":"pitchBend","value":384},{"deltaTime":0,"channel":1,"type":"pitchBend","value":384},{"deltaTime":192,"channel":1,"type":"pitchBend","value":512},{"deltaTime":0,"channel":1,"type":"pitchBend","value":512},{"deltaTime":192,"channel":1,"type":"pitchBend","value":640},{"deltaTime":0,"channel":1,"type":"pitchBend","value":640},{"deltaTime":0,"channel":1,"type":"pitchBend","value":640},{"deltaTime":0,"channel":1,"type":"pitchBend","value":640},{"deltaTime":960,"channel":1,"type":"pitchBend","value":640},{"deltaTime":0,"channel":1,"type":"pitchBend","value":0},{"deltaTime":0,"channel":1,"type":"noteOff","noteNumber":66,"velocity":111},{"deltaTime":0,"channel":1,"type":"pitchBend","value":640},{"deltaTime":0,"channel":1,"type":"pitchBend","value":0},{"deltaTime":0,"channel":1,"type":"noteOff","noteNumber":62,"velocity":111},{"deltaTime":480,"channel":0,"type":"noteOn","noteNumber":62,"velocity":47},{"deltaTime":0,"channel":0,"type":"noteOn","noteNumber":74,"velocity":111},{"deltaTime":240,"channel":0,"type":"noteOff","noteNumber":62,"velocity":47},{"deltaTime":0,"channel":0,"type":"noteOff","noteNumber":74,"velocity":111},{"deltaTime":0,"channel":0,"type":"noteOn","noteNumber":57,"velocity":86},{"deltaTime":240,"channel":0,"type":"noteOff","noteNumber":57,"velocity":86},{"deltaTime":0,"channel":1,"type":"noteOn","noteNumber":57,"velocity":111},{"deltaTime":160,"channel":1,"type":"pitchBend","value":0},{"deltaTime":160,"channel":1,"type":"pitchBend","value":128},{"deltaTime":160,"channel":1,"type":"pitchBend","value":0},{"deltaTime":160,"channel":1,"type":"pitchBend","value":128},{"deltaTime":160,"channel":1,"type":"pitchBend","value":0},{"deltaTime":160,"channel":1,"type":"pitchBend","value":128},{"deltaTime":0,"channel":1,"type":"pitchBend","value":0},{"deltaTime":0,"channel":1,"type":"noteOff","noteNumber":57,"velocity":111},{"deltaTime":0,"channel":0,"type":"noteOn","noteNumber":66,"velocity":47},{"deltaTime":0,"channel":0,"type":"noteOn","noteNumber":78,"velocity":111},{"deltaTime":240,"channel":0,"type":"noteOff","noteNumber":66,"velocity":47},{"deltaTime":0,"channel":0,"type":"noteOff","noteNumber":78,"velocity":111},{"deltaTime":0,"channel":0,"type":"noteOn","noteNumber":55,"velocity":86},{"deltaTime":240,"channel":0,"type":"noteOff","noteNumber":55,"velocity":86},{"deltaTime":0,"channel":1,"type":"noteOn","noteNumber":55,"velocity":111},{"deltaTime":160,"channel":1,"type":"pitchBend","value":0},{"deltaTime":160,"channel":1,"type":"pitchBend","value":128},{"deltaTime":160,"channel":1,"type":"pitchBend","value":0},{"deltaTime":160,"channel":1,"type":"pitchBend","value":128},{"deltaTime":160,"channel":1,"type":"pitchBend","value":0},{"deltaTime":160,"channel":1,"type":"pitchBend","value":128},{"deltaTime":160,"channel":1,"type":"pitchBend","value":0},{"deltaTime":160,"channel":1,"type":"pitchBend","value":128},{"deltaTime":160,"channel":1,"type":"pitchBend","value":0},{"deltaTime":0,"channel":1,"type":"pitchBend","value":128},{"deltaTime":0,"channel":1,"type":"pitchBend","value":0},{"deltaTime":0,"channel":1,"type":"noteOff","noteNumber":55,"velocity":111},{"deltaTime":0,"channel":0,"type":"noteOn","noteNumber":40,"velocity":47},{"deltaTime":0,"channel":0,"type":"noteOn","noteNumber":52,"velocity":111},{"deltaTime":240,"channel":0,"type":"noteOff","noteNumber":40,"velocity":47},{"deltaTime":0,"channel":0,"type":"noteOff","noteNumber":52,"velocity":111},{"deltaTime":0,"channel":0,"type":"noteOn","noteNumber":54,"velocity":86},{"deltaTime":240,"channel":0,"type":"noteOff","noteNumber":54,"velocity":86},{"deltaTime":480,"channel":0,"type":"noteOn","noteNumber":57,"velocity":111},{"deltaTime":360,"channel":1,"type":"noteOn","noteNumber":54,"velocity":111},{"deltaTime":120,"channel":0,"type":"noteOff","noteNumber":57,"velocity":111},{"deltaTime":0,"channel":1,"type":"noteOff","noteNumber":54,"velocity":111},{"deltaTime":0,"channel":1,"type":"noteOn","noteNumber":57,"velocity":111},{"deltaTime":160,"channel":1,"type":"pitchBend","value":0},{"deltaTime":160,"channel":1,"type":"pitchBend","value":128},{"deltaTime":160,"channel":1,"type":"pitchBend","value":0},{"deltaTime":160,"channel":1,"type":"pitchBend","value":128},{"deltaTime":160,"channel":1,"type":"pitchBend","value":0},{"deltaTime":160,"channel":1,"type":"pitchBend","value":128},{"deltaTime":160,"channel":1,"type":"pitchBend","value":0},{"deltaTime":160,"channel":1,"type":"pitchBend","value":128},{"deltaTime":160,"channel":1,"type":"pitchBend","value":0},{"deltaTime":0,"channel":1,"type":"pitchBend","value":128},{"deltaTime":0,"channel":1,"type":"pitchBend","value":0},{"deltaTime":0,"channel":1,"type":"noteOff","noteNumber":57,"velocity":111},{"deltaTime":0,"channel":1,"type":"pitchBend","value":0},{"deltaTime":0,"channel":1,"type":"noteOn","noteNumber":62,"velocity":111},{"deltaTime":65,"channel":1,"type":"pitchBend","value":128},{"deltaTime":65,"channel":1,"type":"pitchBend","value":256},{"deltaTime":65,"channel":1,"type":"pitchBend","value":384},{"deltaTime":65,"channel":1,"type":"pitchBend","value":512},{"deltaTime":65,"channel":1,"type":"pitchBend","value":640},{"deltaTime":65,"channel":1,"type":"pitchBend","value":768},{"deltaTime":65,"channel":1,"type":"pitchBend","value":896},{"deltaTime":65,"channel":1,"type":"pitchBend","value":1024},{"deltaTime":65,"channel":1,"type":"pitchBend","value":1152},{"deltaTime":65,"channel":1,"type":"pitchBend","value":1280},{"deltaTime":65,"channel":1,"type":"pitchBend","value":1408},{"deltaTime":5,"channel":1,"type":"pitchBend","value":1408},{"deltaTime":720,"channel":1,"type":"pitchBend","value":1408},{"deltaTime":0,"channel":1,"type":"pitchBend","value":0},{"deltaTime":0,"channel":1,"type":"noteOff","noteNumber":62,"velocity":111},{"deltaTime":0,"channel":0,"type":"noteOn","noteNumber":67,"velocity":111},{"deltaTime":480,"channel":0,"type":"noteOff","noteNumber":67,"velocity":111},{"deltaTime":0,"channel":1,"type":"pitchBend","value":0},{"deltaTime":0,"channel":1,"type":"noteOn","noteNumber":62,"velocity":111},{"deltaTime":21,"channel":1,"type":"pitchBend","value":128},{"deltaTime":21,"channel":1,"type":"pitchBend","value":256},{"deltaTime":21,"channel":1,"type":"pitchBend","value":384},{"deltaTime":21,"channel":1,"type":"pitchBend","value":512},{"deltaTime":21,"channel":1,"type":"pitchBend","value":640},{"deltaTime":21,"channel":1,"type":"pitchBend","value":768},{"deltaTime":21,"channel":1,"type":"pitchBend","value":896},{"deltaTime":21,"channel":1,"type":"pitchBend","value":1024},{"deltaTime":21,"channel":1,"type":"pitchBend","value":1152},{"deltaTime":21,"channel":1,"type":"pitchBend","value":1280},{"deltaTime":21,"channel":1,"type":"pitchBend","value":1408},{"deltaTime":9,"channel":1,"type":"pitchBend","value":1408},{"deltaTime":720,"channel":1,"type":"pitchBend","value":1408},{"deltaTime":0,"channel":1,"type":"pitchBend","value":0},{"deltaTime":0,"channel":1,"type":"noteOff","noteNumber":62,"velocity":111},{"deltaTime":0,"channel":0,"type":"noteOn","noteNumber":67,"velocity":111},{"deltaTime":0,"channel":0,"type":"noteOn","noteNumber":64,"velocity":95},{"deltaTime":240,"channel":0,"type":"noteOff","noteNumber":67,"velocity":111},{"deltaTime":0,"channel":0,"type":"noteOff","noteNumber":64,"velocity":95},{"deltaTime":0,"channel":0,"type":"noteOn","noteNumber":67,"velocity":111},{"deltaTime":0,"channel":0,"type":"noteOn","noteNumber":64,"velocity":95},{"deltaTime":240,"channel":0,"type":"noteOff","noteNumber":67,"velocity":111},{"deltaTime":240,"channel":0,"type":"noteOff","noteNumber":64,"velocity":95},{"deltaTime":0,"channel":0,"type":"noteOn","noteNumber":67,"velocity":111},{"deltaTime":0,"channel":0,"type":"noteOn","noteNumber":64,"velocity":95},{"deltaTime":240,"channel":0,"type":"noteOff","noteNumber":67,"velocity":111},{"deltaTime":0,"channel":0,"type":"noteOff","noteNumber":64,"velocity":95},{"deltaTime":0,"channel":0,"type":"noteOn","noteNumber":67,"velocity":111},{"deltaTime":0,"channel":0,"type":"noteOn","noteNumber":64,"velocity":95},{"deltaTime":240,"channel":0,"type":"noteOff","noteNumber":67,"velocity":111},{"deltaTime":0,"channel":0,"type":"noteOff","noteNumber":64,"velocity":95},{"deltaTime":240,"channel":0,"type":"noteOn","noteNumber":67,"velocity":111},{"deltaTime":0,"channel":0,"type":"noteOn","noteNumber":64,"velocity":95},{"deltaTime":240,"channel":0,"type":"noteOff","noteNumber":67,"velocity":111},{"deltaTime":0,"channel":0,"type":"noteOff","noteNumber":64,"velocity":95},{"deltaTime":0,"channel":0,"type":"noteOn","noteNumber":67,"velocity":111},{"deltaTime":0,"channel":0,"type":"noteOn","noteNumber":64,"velocity":95},{"deltaTime":240,"channel":0,"type":"noteOff","noteNumber":67,"velocity":111},{"deltaTime":0,"channel":0,"type":"noteOff","noteNumber":64,"velocity":95},{"deltaTime":240,"channel":0,"type":"noteOn","noteNumber":67,"velocity":111},{"deltaTime":0,"channel":1,"type":"pitchBend","value":1408},{"deltaTime":0,"channel":1,"type":"noteOn","noteNumber":62,"velocity":95},{"deltaTime":240,"channel":0,"type":"noteOff","noteNumber":67,"velocity":111},{"deltaTime":0,"channel":1,"type":"pitchBend","value":1408},{"deltaTime":0,"channel":1,"type":"pitchBend","value":0},{"deltaTime":0,"channel":1,"type":"noteOff","noteNumber":62,"velocity":95},{"deltaTime":0,"channel":0,"type":"noteOn","noteNumber":67,"velocity":111},{"deltaTime":0,"channel":1,"type":"pitchBend","value":1408},{"deltaTime":0,"channel":1,"type":"noteOn","noteNumber":62,"velocity":95},{"deltaTime":480,"channel":0,"type":"noteOff","noteNumber":67,"velocity":111},{"deltaTime":0,"channel":1,"type":"pitchBend","value":1408},{"deltaTime":0,"channel":1,"type":"pitchBend","value":0},{"deltaTime":0,"channel":1,"type":"noteOff","noteNumber":62,"velocity":95},{"deltaTime":0,"channel":0,"type":"noteOn","noteNumber":67,"velocity":95},{"deltaTime":0,"channel":1,"type":"pitchBend","value":1408},{"deltaTime":0,"channel":1,"type":"noteOn","noteNumber":62,"velocity":95},{"deltaTime":480,"channel":0,"type":"noteOff","noteNumber":67,"velocity":95},{"deltaTime":0,"channel":1,"type":"pitchBend","value":1408},{"deltaTime":0,"channel":1,"type":"pitchBend","value":0},{"deltaTime":0,"channel":1,"type":"noteOff","noteNumber":62,"velocity":95},{"deltaTime":0,"channel":0,"type":"noteOn","noteNumber":67,"velocity":95},{"deltaTime":0,"channel":1,"type":"pitchBend","value":1408},{"deltaTime":0,"channel":1,"type":"noteOn","noteNumber":62,"velocity":95},{"deltaTime":160,"channel":1,"type":"pitchBend","value":1408},{"deltaTime":14,"channel":1,"type":"pitchBend","value":1280},{"deltaTime":14,"channel":1,"type":"pitchBend","value":1152},{"deltaTime":14,"channel":1,"type":"pitchBend","value":1024},{"deltaTime":14,"channel":1,"type":"pitchBend","value":896},{"deltaTime":14,"channel":1,"type":"pitchBend","value":768},{"deltaTime":14,"channel":1,"type":"pitchBend","value":640},{"deltaTime":14,"channel":1,"type":"pitchBend","value":512},{"deltaTime":14,"channel":1,"type":"pitchBend","value":384},{"deltaTime":14,"channel":1,"type":"pitchBend","value":256},{"deltaTime":14,"channel":1,"type":"pitchBend","value":128},{"deltaTime":14,"channel":1,"type":"pitchBend","value":0},{"deltaTime":6,"channel":1,"type":"pitchBend","value":0},{"deltaTime":160,"channel":0,"type":"noteOff","noteNumber":67,"velocity":95},{"deltaTime":0,"channel":1,"type":"pitchBend","value":0},{"deltaTime":0,"channel":1,"type":"pitchBend","value":0},{"deltaTime":0,"channel":1,"type":"noteOff","noteNumber":62,"velocity":95},{"deltaTime":0,"channel":0,"type":"noteOn","noteNumber":60,"velocity":111},{"deltaTime":160,"channel":0,"type":"noteOff","noteNumber":60,"velocity":111},{"deltaTime":0,"channel":0,"type":"noteOn","noteNumber":55,"velocity":86},{"deltaTime":160,"channel":0,"type":"noteOff","noteNumber":55,"velocity":86},{"deltaTime":0,"channel":0,"type":"noteOn","noteNumber":57,"velocity":111},{"deltaTime":160,"channel":0,"type":"noteOff","noteNumber":57,"velocity":111},{"deltaTime":0,"channel":0,"type":"noteOn","noteNumber":66,"velocity":111},{"deltaTime":0,"channel":0,"type":"noteOn","noteNumber":62,"velocity":111},{"deltaTime":480,"channel":0,"type":"noteOff","noteNumber":66,"velocity":111},{"deltaTime":0,"channel":0,"type":"noteOff","noteNumber":62,"velocity":111},{"deltaTime":0,"channel":0,"type":"noteOn","noteNumber":64,"velocity":111},{"deltaTime":0,"channel":0,"type":"noteOn","noteNumber":60,"velocity":111},{"deltaTime":840,"channel":1,"type":"noteOn","noteNumber":62,"velocity":111},{"deltaTime":120,"channel":0,"type":"noteOff","noteNumber":64,"velocity":111},{"deltaTime":0,"channel":0,"type":"noteOff","noteNumber":60,"velocity":111},{"deltaTime":0,"channel":1,"type":"noteOff","noteNumber":62,"velocity":111},{"deltaTime":0,"channel":1,"type":"noteOn","noteNumber":64,"velocity":111},{"deltaTime":480,"channel":1,"type":"noteOff","noteNumber":64,"velocity":111},{"deltaTime":0,"channel":1,"type":"noteOn","noteNumber":67,"velocity":111},{"deltaTime":0,"channel":1,"type":"noteOn","noteNumber":64,"velocity":111},{"deltaTime":160,"channel":1,"type":"pitchBend","value":0},{"deltaTime":0,"channel":1,"type":"pitchBend","value":0},{"deltaTime":160,"channel":1,"type":"pitchBend","value":128},{"deltaTime":0,"channel":1,"type":"pitchBend","value":128},{"deltaTime":160,"channel":1,"type":"pitchBend","value":0},{"deltaTime":0,"channel":1,"type":"pitchBend","value":0},{"deltaTime":160,"channel":1,"type":"pitchBend","value":128},{"deltaTime":0,"channel":1,"type":"pitchBend","value":128},{"deltaTime":160,"channel":1,"type":"pitchBend","value":0},{"deltaTime":0,"channel":1,"type":"pitchBend","value":0},{"deltaTime":160,"channel":1,"type":"pitchBend","value":128},{"deltaTime":0,"channel":1,"type":"pitchBend","value":128},{"deltaTime":160,"channel":1,"type":"pitchBend","value":0},{"deltaTime":0,"channel":1,"type":"pitchBend","value":0},{"deltaTime":160,"channel":1,"type":"pitchBend","value":128},{"deltaTime":0,"channel":1,"type":"pitchBend","value":128},{"deltaTime":160,"channel":1,"type":"pitchBend","value":0},{"deltaTime":0,"channel":1,"type":"pitchBend","value":128},{"deltaTime":0,"channel":1,"type":"pitchBend","value":0},{"deltaTime":0,"channel":1,"type":"noteOff","noteNumber":67,"velocity":111},{"deltaTime":0,"channel":1,"type":"pitchBend","value":0},{"deltaTime":0,"channel":1,"type":"pitchBend","value":128},{"deltaTime":0,"channel":1,"type":"pitchBend","value":0},{"deltaTime":0,"channel":1,"type":"noteOff","noteNumber":64,"velocity":111},{"deltaTime":0,"channel":0,"type":"noteOn","noteNumber":66,"velocity":111},{"deltaTime":0,"channel":0,"type":"noteOn","noteNumber":62,"velocity":111},{"deltaTime":480,"channel":0,"type":"noteOff","noteNumber":66,"velocity":111},{"deltaTime":0,"channel":0,"type":"noteOff","noteNumber":62,"velocity":111},{"deltaTime":0,"channel":1,"type":"noteOn","noteNumber":66,"velocity":111},{"deltaTime":0,"channel":1,"type":"noteOn","noteNumber":62,"velocity":111},{"deltaTime":160,"channel":1,"type":"pitchBend","value":0},{"deltaTime":0,"channel":1,"type":"pitchBend","value":0},{"deltaTime":160,"channel":1,"type":"pitchBend","value":128},{"deltaTime":0,"channel":1,"type":"pitchBend","value":128},{"deltaTime":160,"channel":1,"type":"pitchBend","value":0},{"deltaTime":0,"channel":1,"type":"pitchBend","value":0},{"deltaTime":160,"channel":1,"type":"pitchBend","value":128},{"deltaTime":0,"channel":1,"type":"pitchBend","value":128},{"deltaTime":160,"channel":1,"type":"pitchBend","value":0},{"deltaTime":0,"channel":1,"type":"pitchBend","value":0},{"deltaTime":160,"channel":1,"type":"pitchBend","value":128},{"deltaTime":0,"channel":1,"type":"pitchBend","value":128},{"deltaTime":160,"channel":1,"type":"pitchBend","value":0},{"deltaTime":0,"channel":1,"type":"pitchBend","value":0},{"deltaTime":160,"channel":1,"type":"pitchBend","value":128},{"deltaTime":0,"channel":1,"type":"pitchBend","value":128},{"deltaTime":40,"channel":1,"type":"noteOn","noteNumber":62,"velocity":95},{"deltaTime":120,"channel":1,"type":"pitchBend","value":0},{"deltaTime":0,"channel":1,"type":"pitchBend","value":128},{"deltaTime":0,"channel":1,"type":"pitchBend","value":0},{"deltaTime":0,"channel":1,"type":"noteOff","noteNumber":66,"velocity":111},{"deltaTime":0,"channel":1,"type":"pitchBend","value":0},{"deltaTime":0,"channel":1,"type":"pitchBend","value":128},{"deltaTime":0,"channel":1,"type":"pitchBend","value":0},{"deltaTime":0,"channel":1,"type":"noteOff","noteNumber":62,"velocity":111},{"deltaTime":0,"channel":1,"type":"noteOff","noteNumber":62,"velocity":95},{"deltaTime":0,"channel":1,"type":"noteOn","noteNumber":64,"velocity":111},{"deltaTime":480,"channel":1,"type":"noteOff","noteNumber":64,"velocity":111},{"deltaTime":0,"channel":1,"type":"noteOn","noteNumber":67,"velocity":111},{"deltaTime":0,"channel":1,"type":"noteOn","noteNumber":64,"velocity":111},{"deltaTime":160,"channel":1,"type":"pitchBend","value":0},{"deltaTime":0,"channel":1,"type":"pitchBend","value":0},{"deltaTime":160,"channel":1,"type":"pitchBend","value":128},{"deltaTime":0,"channel":1,"type":"pitchBend","value":128},{"deltaTime":160,"channel":1,"type":"pitchBend","value":0},{"deltaTime":0,"channel":1,"type":"pitchBend","value":0},{"deltaTime":160,"channel":1,"type":"pitchBend","value":128},{"deltaTime":0,"channel":1,"type":"pitchBend","value":128},{"deltaTime":160,"channel":1,"type":"pitchBend","value":0},{"deltaTime":0,"channel":1,"type":"pitchBend","value":0},{"deltaTime":40,"channel":1,"type":"noteOn","noteNumber":64,"velocity":111},{"deltaTime":120,"channel":1,"type":"pitchBend","value":128},{"deltaTime":0,"channel":1,"type":"pitchBend","value":0},{"deltaTime":0,"channel":1,"type":"noteOff","noteNumber":67,"velocity":111},{"deltaTime":0,"channel":1,"type":"pitchBend","value":128},{"deltaTime":0,"channel":1,"type":"pitchBend","value":0},{"deltaTime":0,"channel":1,"type":"noteOff","noteNumber":64,"velocity":111},{"deltaTime":0,"channel":1,"type":"noteOff","noteNumber":64,"velocity":111},{"deltaTime":0,"channel":1,"type":"noteOn","noteNumber":66,"velocity":111},{"deltaTime":480,"channel":1,"type":"noteOff","noteNumber":66,"velocity":111},{"deltaTime":0,"channel":0,"type":"noteOn","noteNumber":69,"velocity":111},{"deltaTime":0,"channel":0,"type":"noteOn","noteNumber":66,"velocity":111},{"deltaTime":480,"channel":0,"type":"noteOff","noteNumber":69,"velocity":111},{"deltaTime":0,"channel":0,"type":"noteOff","noteNumber":66,"velocity":111},{"deltaTime":0,"channel":1,"type":"noteOn","noteNumber":69,"velocity":111},{"deltaTime":0,"channel":1,"type":"noteOn","noteNumber":66,"velocity":111},{"deltaTime":160,"channel":1,"type":"pitchBend","value":0},{"deltaTime":0,"channel":1,"type":"pitchBend","value":0},{"deltaTime":160,"channel":1,"type":"pitchBend","value":128},{"deltaTime":0,"channel":1,"type":"pitchBend","value":128},{"deltaTime":160,"channel":1,"type":"pitchBend","value":0},{"deltaTime":0,"channel":1,"type":"pitchBend","value":0},{"deltaTime":160,"channel":1,"type":"pitchBend","value":128},{"deltaTime":0,"channel":1,"type":"pitchBend","value":128},{"deltaTime":160,"channel":1,"type":"pitchBend","value":0},{"deltaTime":0,"channel":1,"type":"pitchBend","value":0},{"deltaTime":160,"channel":1,"type":"pitchBend","value":128},{"deltaTime":0,"channel":1,"type":"pitchBend","value":128},{"deltaTime":160,"channel":1,"type":"pitchBend","value":0},{"deltaTime":0,"channel":1,"type":"pitchBend","value":0},{"deltaTime":80,"channel":1,"type":"pitchBend","value":128},{"deltaTime":0,"channel":1,"type":"pitchBend","value":0},{"deltaTime":0,"channel":1,"type":"noteOff","noteNumber":69,"velocity":111},{"deltaTime":0,"channel":1,"type":"pitchBend","value":128},{"deltaTime":0,"channel":1,"type":"pitchBend","value":0},{"deltaTime":0,"channel":1,"type":"noteOff","noteNumber":66,"velocity":111},{"deltaTime":0,"channel":1,"type":"noteOn","noteNumber":64,"velocity":111},{"deltaTime":120,"channel":1,"type":"pitchBend","value":1664},{"deltaTime":120,"channel":1,"type":"pitchBend","value":3456},{"deltaTime":0,"channel":1,"type":"pitchBend","value":0},{"deltaTime":0,"channel":1,"type":"noteOff","noteNumber":64,"velocity":111},{"deltaTime":0,"channel":0,"type":"noteOn","noteNumber":72,"velocity":111},{"deltaTime":0,"channel":0,"type":"noteOn","noteNumber":69,"velocity":111},{"deltaTime":240,"channel":0,"type":"noteOff","noteNumber":72,"velocity":111},{"deltaTime":0,"channel":0,"type":"noteOff","noteNumber":69,"velocity":111},{"deltaTime":0,"channel":0,"type":"noteOn","noteNumber":69,"velocity":111},{"deltaTime":120,"channel":1,"type":"noteOn","noteNumber":67,"velocity":95},{"deltaTime":120,"channel":0,"type":"noteOff","noteNumber":69,"velocity":111},{"deltaTime":0,"channel":1,"type":"noteOff","noteNumber":67,"velocity":95},{"deltaTime":0,"channel":1,"type":"noteOn","noteNumber":67,"velocity":111},{"deltaTime":120,"channel":1,"type":"pitchBend","value":1408},{"deltaTime":0,"channel":1,"type":"pitchBend","value":0},{"deltaTime":0,"channel":1,"type":"noteOff","noteNumber":67,"velocity":111},{"deltaTime":0,"channel":0,"type":"noteOn","noteNumber":69,"velocity":111},{"deltaTime":120,"channel":0,"type":"noteOff","noteNumber":69,"velocity":111},{"deltaTime":0,"channel":0,"type":"noteOn","noteNumber":72,"velocity":111},{"deltaTime":240,"channel":0,"type":"noteOff","noteNumber":72,"velocity":111},{"deltaTime":0,"channel":0,"type":"noteOn","noteNumber":69,"velocity":111},{"deltaTime":240,"channel":0,"type":"noteOff","noteNumber":69,"velocity":111},{"deltaTime":0,"channel":1,"type":"noteOn","noteNumber":67,"velocity":111},{"deltaTime":120,"channel":1,"type":"pitchBend","value":1408},{"deltaTime":0,"channel":1,"type":"pitchBend","value":0},{"deltaTime":0,"channel":1,"type":"noteOff","noteNumber":67,"velocity":111},{"deltaTime":0,"channel":0,"type":"noteOn","noteNumber":69,"velocity":111},{"deltaTime":120,"channel":0,"type":"noteOff","noteNumber":69,"velocity":111},{"deltaTime":0,"channel":0,"type":"noteOn","noteNumber":72,"velocity":111},{"deltaTime":240,"channel":0,"type":"noteOff","noteNumber":72,"velocity":111},{"deltaTime":0,"channel":0,"type":"noteOn","noteNumber":69,"velocity":111},{"deltaTime":240,"channel":0,"type":"noteOff","noteNumber":69,"velocity":111},{"deltaTime":0,"channel":1,"type":"noteOn","noteNumber":67,"velocity":111},{"deltaTime":120,"channel":1,"type":"pitchBend","value":1408},{"deltaTime":0,"channel":1,"type":"pitchBend","value":0},{"deltaTime":0,"channel":1,"type":"noteOff","noteNumber":67,"velocity":111},{"deltaTime":0,"channel":0,"type":"noteOn","noteNumber":69,"velocity":111},{"deltaTime":120,"channel":0,"type":"noteOff","noteNumber":69,"velocity":111},{"deltaTime":0,"channel":0,"type":"noteOn","noteNumber":72,"velocity":111},{"deltaTime":0,"channel":0,"type":"noteOn","noteNumber":69,"velocity":111},{"deltaTime":240,"channel":0,"type":"noteOff","noteNumber":72,"velocity":111},{"deltaTime":0,"channel":0,"type":"noteOff","noteNumber":69,"velocity":111},{"deltaTime":0,"channel":0,"type":"noteOn","noteNumber":72,"velocity":111},{"deltaTime":0,"channel":0,"type":"noteOn","noteNumber":69,"velocity":111},{"deltaTime":240,"channel":0,"type":"noteOff","noteNumber":72,"velocity":111},{"deltaTime":0,"channel":0,"type":"noteOff","noteNumber":69,"velocity":111},{"deltaTime":0,"channel":0,"type":"noteOn","noteNumber":69,"velocity":111},{"deltaTime":240,"channel":0,"type":"noteOff","noteNumber":69,"velocity":111},{"deltaTime":0,"channel":0,"type":"noteOn","noteNumber":72,"velocity":111},{"deltaTime":240,"channel":0,"type":"noteOff","noteNumber":72,"velocity":111},{"deltaTime":0,"channel":0,"type":"noteOn","noteNumber":69,"velocity":111},{"deltaTime":240,"channel":0,"type":"noteOff","noteNumber":69,"velocity":111},{"deltaTime":0,"channel":0,"type":"noteOn","noteNumber":72,"velocity":111},{"deltaTime":240,"channel":0,"type":"noteOff","noteNumber":72,"velocity":111},{"deltaTime":0,"channel":0,"type":"noteOn","noteNumber":69,"velocity":111},{"deltaTime":240,"channel":0,"type":"noteOff","noteNumber":69,"velocity":111},{"deltaTime":0,"channel":0,"type":"noteOn","noteNumber":76,"velocity":111},{"deltaTime":0,"channel":0,"type":"noteOn","noteNumber":72,"velocity":111},{"deltaTime":480,"channel":0,"type":"noteOff","noteNumber":76,"velocity":111},{"deltaTime":0,"channel":0,"type":"noteOff","noteNumber":72,"velocity":111},{"deltaTime":0,"channel":0,"type":"noteOn","noteNumber":76,"velocity":111},{"deltaTime":0,"channel":0,"type":"noteOn","noteNumber":72,"velocity":111},{"deltaTime":1440,"channel":0,"type":"noteOff","noteNumber":76,"velocity":111},{"deltaTime":0,"channel":0,"type":"noteOff","noteNumber":72,"velocity":111},{"deltaTime":0,"channel":0,"type":"noteOn","noteNumber":74,"velocity":111},{"deltaTime":0,"channel":1,"type":"pitchBend","value":0},{"deltaTime":0,"channel":1,"type":"noteOn","noteNumber":72,"velocity":111},{"deltaTime":21,"channel":1,"type":"pitchBend","value":128},{"deltaTime":21,"channel":1,"type":"pitchBend","value":256},{"deltaTime":21,"channel":1,"type":"pitchBend","value":384},{"deltaTime":21,"channel":1,"type":"pitchBend","value":512},{"deltaTime":21,"channel":1,"type":"pitchBend","value":640},{"deltaTime":21,"channel":1,"type":"pitchBend","value":768},{"deltaTime":21,"channel":1,"type":"pitchBend","value":896},{"deltaTime":21,"channel":1,"type":"pitchBend","value":1024},{"deltaTime":21,"channel":1,"type":"pitchBend","value":1152},{"deltaTime":21,"channel":1,"type":"pitchBend","value":1280},{"deltaTime":21,"channel":1,"type":"pitchBend","value":1408},{"deltaTime":9,"channel":1,"type":"pitchBend","value":1408},{"deltaTime":240,"channel":0,"type":"noteOff","noteNumber":74,"velocity":111},{"deltaTime":0,"channel":1,"type":"pitchBend","value":1408},{"deltaTime":0,"channel":1,"type":"pitchBend","value":0},{"deltaTime":0,"channel":1,"type":"noteOff","noteNumber":72,"velocity":111},{"deltaTime":0,"channel":1,"type":"noteOn","noteNumber":74,"velocity":111},{"deltaTime":0,"channel":1,"type":"pitchBend","value":0},{"deltaTime":0,"channel":1,"type":"noteOn","noteNumber":72,"velocity":111},{"deltaTime":21,"channel":1,"type":"pitchBend","value":128},{"deltaTime":21,"channel":1,"type":"pitchBend","value":256},{"deltaTime":21,"channel":1,"type":"pitchBend","value":384},{"deltaTime":21,"channel":1,"type":"pitchBend","value":512},{"deltaTime":21,"channel":1,"type":"pitchBend","value":640},{"deltaTime":21,"channel":1,"type":"pitchBend","value":768},{"deltaTime":21,"channel":1,"type":"pitchBend","value":896},{"deltaTime":13,"channel":1,"type":"pitchBend","value":0},{"deltaTime":8,"channel":1,"type":"pitchBend","value":1024},{"deltaTime":21,"channel":1,"type":"pitchBend","value":1152},{"deltaTime":21,"channel":1,"type":"pitchBend","value":1280},{"deltaTime":21,"channel":1,"type":"pitchBend","value":1408},{"deltaTime":9,"channel":1,"type":"pitchBend","value":1408},{"deltaTime":80,"channel":1,"type":"pitchBend","value":128},{"deltaTime":160,"channel":1,"type":"pitchBend","value":0},{"deltaTime":0,"channel":1,"type":"pitchBend","value":128},{"deltaTime":0,"channel":1,"type":"pitchBend","value":0},{"deltaTime":0,"channel":1,"type":"noteOff","noteNumber":74,"velocity":111},{"deltaTime":0,"channel":1,"type":"pitchBend","value":1408},{"deltaTime":0,"channel":1,"type":"pitchBend","value":0},{"deltaTime":0,"channel":1,"type":"noteOff","noteNumber":72,"velocity":111},{"deltaTime":0,"channel":0,"type":"noteOn","noteNumber":72,"velocity":111},{"deltaTime":52,"channel":0,"type":"noteOff","noteNumber":72,"velocity":111},{"deltaTime":428,"channel":0,"type":"noteOn","noteNumber":55,"velocity":111},{"deltaTime":52,"channel":0,"type":"noteOff","noteNumber":55,"velocity":111},{"deltaTime":428,"channel":0,"type":"noteOn","noteNumber":74,"velocity":111},{"deltaTime":0,"channel":1,"type":"pitchBend","value":0},{"deltaTime":0,"channel":1,"type":"noteOn","noteNumber":72,"velocity":111},{"deltaTime":43,"channel":1,"type":"pitchBend","value":128},{"deltaTime":43,"channel":1,"type":"pitchBend","value":256},{"deltaTime":43,"channel":1,"type":"pitchBend","value":384},{"deltaTime":43,"channel":1,"type":"pitchBend","value":512},{"deltaTime":43,"channel":1,"type":"pitchBend","value":640},{"deltaTime":43,"channel":1,"type":"pitchBend","value":768},{"deltaTime":43,"channel":1,"type":"pitchBend","value":896},{"deltaTime":43,"channel":1,"type":"pitchBend","value":1024},{"deltaTime":43,"channel":1,"type":"pitchBend","value":1152},{"deltaTime":43,"channel":1,"type":"pitchBend","value":1280},{"deltaTime":43,"channel":1,"type":"pitchBend","value":1408},{"deltaTime":7,"channel":1,"type":"pitchBend","value":1408},{"deltaTime":480,"channel":0,"type":"noteOff","noteNumber":74,"velocity":111},{"deltaTime":0,"channel":1,"type":"pitchBend","value":1408},{"deltaTime":0,"channel":1,"type":"pitchBend","value":0},{"deltaTime":0,"channel":1,"type":"noteOff","noteNumber":72,"velocity":111},{"deltaTime":0,"channel":1,"type":"pitchBend","value":640},{"deltaTime":0,"channel":1,"type":"noteOn","noteNumber":71,"velocity":111},{"deltaTime":320,"channel":1,"type":"pitchBend","value":640},{"deltaTime":64,"channel":1,"type":"pitchBend","value":512},{"deltaTime":64,"channel":1,"type":"pitchBend","value":384},{"deltaTime":64,"channel":1,"type":"pitchBend","value":256},{"deltaTime":64,"channel":1,"type":"pitchBend","value":128},{"deltaTime":64,"channel":1,"type":"pitchBend","value":0},{"deltaTime":0,"channel":1,"type":"pitchBend","value":0},{"deltaTime":320,"channel":1,"type":"pitchBend","value":0},{"deltaTime":0,"channel":1,"type":"pitchBend","value":0},{"deltaTime":0,"channel":1,"type":"noteOff","noteNumber":71,"velocity":111},{"deltaTime":0,"channel":1,"type":"noteOn","noteNumber":69,"velocity":111},{"deltaTime":120,"channel":1,"type":"pitchBend","value":0},{"deltaTime":120,"channel":1,"type":"pitchBend","value":0},{"deltaTime":120,"channel":1,"type":"pitchBend","value":0},{"deltaTime":120,"channel":1,"type":"pitchBend","value":0},{"deltaTime":120,"channel":1,"type":"pitchBend","value":0},{"deltaTime":120,"channel":1,"type":"pitchBend","value":0},{"deltaTime":120,"channel":1,"type":"pitchBend","value":0},{"deltaTime":120,"channel":1,"type":"pitchBend","value":0},{"deltaTime":0,"channel":1,"type":"pitchBend","value":0},{"deltaTime":0,"channel":1,"type":"noteOff","noteNumber":69,"velocity":111},{"deltaTime":0,"channel":0,"type":"noteOn","noteNumber":69,"velocity":111},{"deltaTime":480,"channel":0,"type":"noteOff","noteNumber":69,"velocity":111},{"deltaTime":0,"channel":0,"type":"noteOn","noteNumber":74,"velocity":111},{"deltaTime":120,"channel":0,"type":"noteOff","noteNumber":74,"velocity":111},{"deltaTime":0,"channel":0,"type":"noteOn","noteNumber":69,"velocity":111},{"deltaTime":840,"channel":0,"type":"noteOff","noteNumber":69,"velocity":111},{"deltaTime":0,"channel":0,"type":"noteOn","noteNumber":72,"velocity":111},{"deltaTime":240,"channel":0,"type":"noteOff","noteNumber":72,"velocity":111},{"deltaTime":0,"channel":0,"type":"noteOn","noteNumber":69,"velocity":111},{"deltaTime":240,"channel":0,"type":"noteOff","noteNumber":69,"velocity":111},{"deltaTime":0,"channel":0,"type":"noteOn","noteNumber":74,"velocity":111},{"deltaTime":240,"channel":0,"type":"noteOff","noteNumber":74,"velocity":111},{"deltaTime":0,"channel":0,"type":"noteOn","noteNumber":69,"velocity":111},{"deltaTime":240,"channel":0,"type":"noteOff","noteNumber":69,"velocity":111},{"deltaTime":0,"channel":0,"type":"noteOn","noteNumber":74,"velocity":111},{"deltaTime":0,"channel":0,"type":"noteOn","noteNumber":69,"velocity":111},{"deltaTime":480,"channel":0,"type":"noteOff","noteNumber":74,"velocity":111},{"deltaTime":480,"channel":0,"type":"noteOff","noteNumber":69,"velocity":111},{"deltaTime":0,"channel":0,"type":"noteOn","noteNumber":69,"velocity":111},{"deltaTime":480,"channel":0,"type":"noteOff","noteNumber":69,"velocity":111},{"deltaTime":0,"channel":1,"type":"noteOn","noteNumber":69,"velocity":111},{"deltaTime":480,"channel":1,"type":"noteOff","noteNumber":69,"velocity":111},{"deltaTime":240,"channel":0,"type":"noteOn","noteNumber":69,"velocity":95},{"deltaTime":240,"channel":0,"type":"noteOff","noteNumber":69,"velocity":95},{"deltaTime":0,"channel":0,"type":"noteOn","noteNumber":74,"velocity":111},{"deltaTime":480,"channel":0,"type":"noteOff","noteNumber":74,"velocity":111},{"deltaTime":0,"channel":1,"type":"pitchBend","value":0},{"deltaTime":0,"channel":1,"type":"noteOn","noteNumber":76,"velocity":111},{"deltaTime":43,"channel":1,"type":"pitchBend","value":128},{"deltaTime":43,"channel":1,"type":"pitchBend","value":256},{"deltaTime":43,"channel":1,"type":"pitchBend","value":384},{"deltaTime":43,"channel":1,"type":"pitchBend","value":512},{"deltaTime":43,"channel":1,"type":"pitchBend","value":640},{"deltaTime":43,"channel":1,"type":"pitchBend","value":768},{"deltaTime":43,"channel":1,"type":"pitchBend","value":896},{"deltaTime":43,"channel":1,"type":"pitchBend","value":1024},{"deltaTime":43,"channel":1,"type":"pitchBend","value":1152},{"deltaTime":43,"channel":1,"type":"pitchBend","value":1280},{"deltaTime":43,"channel":1,"type":"pitchBend","value":1408},{"deltaTime":7,"channel":1,"type":"pitchBend","value":1408},{"deltaTime":480,"channel":1,"type":"pitchBend","value":1408},{"deltaTime":0,"channel":1,"type":"pitchBend","value":0},{"deltaTime":0,"channel":1,"type":"noteOff","noteNumber":76,"velocity":111},{"deltaTime":0,"channel":0,"type":"noteOn","noteNumber":81,"velocity":111},{"deltaTime":480,"channel":0,"type":"noteOff","noteNumber":81,"velocity":111},{"deltaTime":0,"channel":1,"type":"pitchBend","value":0},{"deltaTime":0,"channel":1,"type":"noteOn","noteNumber":76,"velocity":111},{"deltaTime":32,"channel":1,"type":"pitchBend","value":128},{"deltaTime":32,"channel":1,"type":"pitchBend","value":256},{"deltaTime":32,"channel":1,"type":"pitchBend","value":384},{"deltaTime":32,"channel":1,"type":"pitchBend","value":512},{"deltaTime":32,"channel":1,"type":"pitchBend","value":640},{"deltaTime":32,"channel":1,"type":"pitchBend","value":768},{"deltaTime":32,"channel":1,"type":"pitchBend","value":896},{"deltaTime":32,"channel":1,"type":"pitchBend","value":1024},{"deltaTime":32,"channel":1,"type":"pitchBend","value":1152},{"deltaTime":32,"channel":1,"type":"pitchBend","value":1280},{"deltaTime":32,"channel":1,"type":"pitchBend","value":1408},{"deltaTime":8,"channel":1,"type":"pitchBend","value":1408},{"deltaTime":360,"channel":1,"type":"pitchBend","value":1408},{"deltaTime":0,"channel":1,"type":"pitchBend","value":0},{"deltaTime":0,"channel":1,"type":"noteOff","noteNumber":76,"velocity":111},{"deltaTime":0,"channel":0,"type":"noteOn","noteNumber":81,"velocity":111},{"deltaTime":240,"channel":0,"type":"noteOff","noteNumber":81,"velocity":111},{"deltaTime":0,"channel":1,"type":"pitchBend","value":0},{"deltaTime":0,"channel":1,"type":"noteOn","noteNumber":76,"velocity":111},{"deltaTime":43,"channel":1,"type":"pitchBend","value":128},{"deltaTime":43,"channel":1,"type":"pitchBend","value":256},{"deltaTime":43,"channel":1,"type":"pitchBend","value":384},{"deltaTime":43,"channel":1,"type":"pitchBend","value":512},{"deltaTime":43,"channel":1,"type":"pitchBend","value":640},{"deltaTime":43,"channel":1,"type":"pitchBend","value":768},{"deltaTime":43,"channel":1,"type":"pitchBend","value":896},{"deltaTime":43,"channel":1,"type":"pitchBend","value":1024},{"deltaTime":43,"channel":1,"type":"pitchBend","value":1152},{"deltaTime":43,"channel":1,"type":"pitchBend","value":1280},{"deltaTime":43,"channel":1,"type":"pitchBend","value":1408},{"deltaTime":7,"channel":1,"type":"pitchBend","value":1408},{"deltaTime":480,"channel":1,"type":"pitchBend","value":1408},{"deltaTime":0,"channel":1,"type":"pitchBend","value":0},{"deltaTime":0,"channel":1,"type":"noteOff","noteNumber":76,"velocity":111},{"deltaTime":0,"channel":0,"type":"noteOn","noteNumber":81,"velocity":111},{"deltaTime":0,"channel":1,"type":"pitchBend","value":0},{"deltaTime":0,"channel":1,"type":"noteOn","noteNumber":76,"velocity":111},{"deltaTime":21,"channel":1,"type":"pitchBend","value":128},{"deltaTime":21,"channel":1,"type":"pitchBend","value":256},{"deltaTime":21,"channel":1,"type":"pitchBend","value":384},{"deltaTime":21,"channel":1,"type":"pitchBend","value":512},{"deltaTime":21,"channel":1,"type":"pitchBend","value":640},{"deltaTime":21,"channel":1,"type":"pitchBend","value":768},{"deltaTime":21,"channel":1,"type":"pitchBend","value":896},{"deltaTime":21,"channel":1,"type":"pitchBend","value":1024},{"deltaTime":21,"channel":1,"type":"pitchBend","value":1152},{"deltaTime":21,"channel":1,"type":"pitchBend","value":1280},{"deltaTime":21,"channel":1,"type":"pitchBend","value":1408},{"deltaTime":9,"channel":1,"type":"pitchBend","value":1408},{"deltaTime":240,"channel":0,"type":"noteOff","noteNumber":81,"velocity":111},{"deltaTime":0,"channel":1,"type":"pitchBend","value":1408},{"deltaTime":0,"channel":1,"type":"pitchBend","value":0},{"deltaTime":0,"channel":1,"type":"noteOff","noteNumber":76,"velocity":111},{"deltaTime":0,"channel":0,"type":"noteOn","noteNumber":81,"velocity":111},{"deltaTime":0,"channel":1,"type":"pitchBend","value":0},{"deltaTime":0,"channel":1,"type":"noteOn","noteNumber":76,"velocity":111},{"deltaTime":21,"channel":1,"type":"pitchBend","value":128},{"deltaTime":21,"channel":1,"type":"pitchBend","value":256},{"deltaTime":21,"channel":1,"type":"pitchBend","value":384},{"deltaTime":21,"channel":1,"type":"pitchBend","value":512},{"deltaTime":21,"channel":1,"type":"pitchBend","value":640},{"deltaTime":21,"channel":1,"type":"pitchBend","value":768},{"deltaTime":21,"channel":1,"type":"pitchBend","value":896},{"deltaTime":21,"channel":1,"type":"pitchBend","value":1024},{"deltaTime":21,"channel":1,"type":"pitchBend","value":1152},{"deltaTime":21,"channel":1,"type":"pitchBend","value":1280},{"deltaTime":21,"channel":1,"type":"pitchBend","value":1408},{"deltaTime":9,"channel":1,"type":"pitchBend","value":1408},{"deltaTime":240,"channel":1,"type":"pitchBend","value":1408},{"deltaTime":0,"channel":1,"type":"pitchBend","value":0},{"deltaTime":0,"channel":1,"type":"noteOff","noteNumber":76,"velocity":111},{"deltaTime":0,"channel":1,"type":"pitchBend","value":1408},{"deltaTime":0,"channel":1,"type":"noteOn","noteNumber":78,"velocity":95},{"deltaTime":320,"channel":1,"type":"pitchBend","value":1408},{"deltaTime":29,"channel":1,"type":"pitchBend","value":1280},{"deltaTime":29,"channel":1,"type":"pitchBend","value":1152},{"deltaTime":29,"channel":1,"type":"pitchBend","value":1024},{"deltaTime":29,"channel":1,"type":"pitchBend","value":896},{"deltaTime":29,"channel":1,"type":"pitchBend","value":768},{"deltaTime":29,"channel":1,"type":"pitchBend","value":640},{"deltaTime":29,"channel":1,"type":"pitchBend","value":512},{"deltaTime":29,"channel":1,"type":"pitchBend","value":384},{"deltaTime":29,"channel":1,"type":"pitchBend","value":256},{"deltaTime":29,"channel":1,"type":"pitchBend","value":128},{"deltaTime":29,"channel":1,"type":"pitchBend","value":0},{"deltaTime":1,"channel":1,"type":"pitchBend","value":0},{"deltaTime":320,"channel":0,"type":"noteOff","noteNumber":81,"velocity":111},{"deltaTime":0,"channel":1,"type":"pitchBend","value":0},{"deltaTime":0,"channel":1,"type":"pitchBend","value":0},{"deltaTime":0,"channel":1,"type":"noteOff","noteNumber":78,"velocity":95},{"deltaTime":0,"channel":0,"type":"noteOn","noteNumber":74,"velocity":111},{"deltaTime":240,"channel":0,"type":"noteOff","noteNumber":74,"velocity":111},{"deltaTime":0,"channel":0,"type":"noteOn","noteNumber":77,"velocity":111},{"deltaTime":240,"channel":0,"type":"noteOff","noteNumber":77,"velocity":111},{"deltaTime":0,"channel":0,"type":"noteOn","noteNumber":74,"velocity":86},{"deltaTime":240,"channel":0,"type":"noteOff","noteNumber":74,"velocity":86},{"deltaTime":0,"channel":0,"type":"noteOn","noteNumber":71,"velocity":111},{"deltaTime":240,"channel":0,"type":"noteOff","noteNumber":71,"velocity":111},{"deltaTime":0,"channel":0,"type":"noteOn","noteNumber":74,"velocity":111},{"deltaTime":720,"channel":0,"type":"noteOff","noteNumber":74,"velocity":111},{"deltaTime":0,"channel":0,"type":"noteOn","noteNumber":55,"velocity":111},{"deltaTime":240,"channel":0,"type":"noteOff","noteNumber":55,"velocity":111},{"deltaTime":0,"channel":1,"type":"pitchBend","value":0},{"deltaTime":0,"channel":1,"type":"noteOn","noteNumber":74,"velocity":111},{"deltaTime":43,"channel":1,"type":"pitchBend","value":128},{"deltaTime":43,"channel":1,"type":"pitchBend","value":256},{"deltaTime":43,"channel":1,"type":"pitchBend","value":384},{"deltaTime":43,"channel":1,"type":"pitchBend","value":512},{"deltaTime":43,"channel":1,"type":"pitchBend","value":640},{"deltaTime":43,"channel":1,"type":"pitchBend","value":768},{"deltaTime":43,"channel":1,"type":"pitchBend","value":896},{"deltaTime":43,"channel":1,"type":"pitchBend","value":1024},{"deltaTime":43,"channel":1,"type":"pitchBend","value":1152},{"deltaTime":43,"channel":1,"type":"pitchBend","value":1280},{"deltaTime":43,"channel":1,"type":"pitchBend","value":1408},{"deltaTime":7,"channel":1,"type":"pitchBend","value":1408},{"deltaTime":480,"channel":1,"type":"pitchBend","value":1408},{"deltaTime":0,"channel":1,"type":"pitchBend","value":0},{"deltaTime":0,"channel":1,"type":"noteOff","noteNumber":74,"velocity":111},{"deltaTime":0,"channel":0,"type":"noteOn","noteNumber":79,"velocity":111},{"deltaTime":0,"channel":0,"type":"noteOn","noteNumber":76,"velocity":95},{"deltaTime":960,"channel":0,"type":"noteOff","noteNumber":79,"velocity":111},{"deltaTime":0,"channel":0,"type":"noteOff","noteNumber":76,"velocity":95},{"deltaTime":0,"channel":1,"type":"pitchBend","value":0},{"deltaTime":0,"channel":1,"type":"noteOn","noteNumber":74,"velocity":111},{"deltaTime":14,"channel":1,"type":"pitchBend","value":128},{"deltaTime":14,"channel":1,"type":"pitchBend","value":256},{"deltaTime":14,"channel":1,"type":"pitchBend","value":384},{"deltaTime":14,"channel":1,"type":"pitchBend","value":512},{"deltaTime":14,"channel":1,"type":"pitchBend","value":640},{"deltaTime":14,"channel":1,"type":"pitchBend","value":768},{"deltaTime":14,"channel":1,"type":"pitchBend","value":896},{"deltaTime":14,"channel":1,"type":"pitchBend","value":1024},{"deltaTime":14,"channel":1,"type":"pitchBend","value":1152},{"deltaTime":14,"channel":1,"type":"pitchBend","value":1280},{"deltaTime":14,"channel":1,"type":"pitchBend","value":1408},{"deltaTime":6,"channel":1,"type":"pitchBend","value":1408},{"deltaTime":160,"channel":1,"type":"pitchBend","value":1408},{"deltaTime":0,"channel":1,"type":"pitchBend","value":0},{"deltaTime":0,"channel":1,"type":"noteOff","noteNumber":74,"velocity":111},{"deltaTime":0,"channel":0,"type":"noteOn","noteNumber":79,"velocity":111},{"deltaTime":160,"channel":0,"type":"noteOff","noteNumber":79,"velocity":111},{"deltaTime":0,"channel":1,"type":"pitchBend","value":0},{"deltaTime":0,"channel":1,"type":"noteOn","noteNumber":74,"velocity":111},{"deltaTime":43,"channel":1,"type":"pitchBend","value":128},{"deltaTime":43,"channel":1,"type":"pitchBend","value":256},{"deltaTime":43,"channel":1,"type":"pitchBend","value":384},{"deltaTime":43,"channel":1,"type":"pitchBend","value":512},{"deltaTime":43,"channel":1,"type":"pitchBend","value":640},{"deltaTime":43,"channel":1,"type":"pitchBend","value":768},{"deltaTime":43,"channel":1,"type":"pitchBend","value":896},{"deltaTime":43,"channel":1,"type":"pitchBend","value":1024},{"deltaTime":43,"channel":1,"type":"pitchBend","value":1152},{"deltaTime":43,"channel":1,"type":"pitchBend","value":1280},{"deltaTime":43,"channel":1,"type":"pitchBend","value":1408},{"deltaTime":7,"channel":1,"type":"pitchBend","value":1408},{"deltaTime":480,"channel":1,"type":"pitchBend","value":1408},{"deltaTime":0,"channel":1,"type":"pitchBend","value":0},{"deltaTime":0,"channel":1,"type":"noteOff","noteNumber":74,"velocity":111},{"deltaTime":0,"channel":0,"type":"noteOn","noteNumber":81,"velocity":111},{"deltaTime":240,"channel":0,"type":"noteOff","noteNumber":81,"velocity":111},{"deltaTime":0,"channel":0,"type":"noteOn","noteNumber":79,"velocity":111},{"deltaTime":240,"channel":0,"type":"noteOff","noteNumber":79,"velocity":111},{"deltaTime":0,"channel":0,"type":"noteOn","noteNumber":76,"velocity":111},{"deltaTime":320,"channel":0,"type":"noteOff","noteNumber":76,"velocity":111},{"deltaTime":0,"channel":1,"type":"pitchBend","value":0},{"deltaTime":0,"channel":1,"type":"noteOn","noteNumber":74,"velocity":111},{"deltaTime":7,"channel":1,"type":"pitchBend","value":128},{"deltaTime":7,"channel":1,"type":"pitchBend","value":256},{"deltaTime":7,"channel":1,"type":"pitchBend","value":384},{"deltaTime":7,"channel":1,"type":"pitchBend","value":512},{"deltaTime":7,"channel":1,"type":"pitchBend","value":640},{"deltaTime":7,"channel":1,"type":"pitchBend","value":768},{"deltaTime":7,"channel":1,"type":"pitchBend","value":896},{"deltaTime":7,"channel":1,"type":"pitchBend","value":1024},{"deltaTime":7,"channel":1,"type":"pitchBend","value":1152},{"deltaTime":7,"channel":1,"type":"pitchBend","value":1280},{"deltaTime":7,"channel":1,"type":"pitchBend","value":1408},{"deltaTime":3,"channel":1,"type":"pitchBend","value":1408},{"deltaTime":80,"channel":1,"type":"pitchBend","value":1408},{"deltaTime":7,"channel":1,"type":"pitchBend","value":1280},{"deltaTime":7,"channel":1,"type":"pitchBend","value":1152},{"deltaTime":7,"channel":1,"type":"pitchBend","value":1024},{"deltaTime":7,"channel":1,"type":"pitchBend","value":896},{"deltaTime":7,"channel":1,"type":"pitchBend","value":768},{"deltaTime":7,"channel":1,"type":"pitchBend","value":640},{"deltaTime":7,"channel":1,"type":"pitchBend","value":512},{"deltaTime":7,"channel":1,"type":"pitchBend","value":384},{"deltaTime":7,"channel":1,"type":"pitchBend","value":256},{"deltaTime":7,"channel":1,"type":"pitchBend","value":128},{"deltaTime":7,"channel":1,"type":"pitchBend","value":0},{"deltaTime":3,"channel":1,"type":"pitchBend","value":0},{"deltaTime":80,"channel":1,"type":"pitchBend","value":0},{"deltaTime":0,"channel":1,"type":"pitchBend","value":0},{"deltaTime":0,"channel":1,"type":"noteOff","noteNumber":74,"velocity":111},{"deltaTime":0,"channel":0,"type":"noteOn","noteNumber":72,"velocity":111},{"deltaTime":160,"channel":0,"type":"noteOff","noteNumber":72,"velocity":111},{"deltaTime":0,"channel":0,"type":"noteOn","noteNumber":69,"velocity":111},{"deltaTime":160,"channel":0,"type":"noteOff","noteNumber":69,"velocity":111},{"deltaTime":0,"channel":0,"type":"noteOn","noteNumber":74,"velocity":111},{"deltaTime":240,"channel":0,"type":"noteOff","noteNumber":74,"velocity":111},{"deltaTime":0,"channel":0,"type":"noteOn","noteNumber":73,"velocity":111},{"deltaTime":240,"channel":0,"type":"noteOff","noteNumber":73,"velocity":111},{"deltaTime":0,"channel":0,"type":"noteOn","noteNumber":69,"velocity":111},{"deltaTime":240,"channel":0,"type":"noteOff","noteNumber":69,"velocity":111},{"deltaTime":0,"channel":0,"type":"noteOn","noteNumber":67,"velocity":111},{"deltaTime":240,"channel":0,"type":"noteOff","noteNumber":67,"velocity":111},{"deltaTime":0,"channel":1,"type":"pitchBend","value":0},{"deltaTime":0,"channel":1,"type":"noteOn","noteNumber":79,"velocity":111},{"deltaTime":21,"channel":1,"type":"pitchBend","value":128},{"deltaTime":21,"channel":1,"type":"pitchBend","value":256},{"deltaTime":21,"channel":1,"type":"pitchBend","value":384},{"deltaTime":21,"channel":1,"type":"pitchBend","value":512},{"deltaTime":21,"channel":1,"type":"pitchBend","value":640},{"deltaTime":21,"channel":1,"type":"pitchBend","value":768},{"deltaTime":21,"channel":1,"type":"pitchBend","value":896},{"deltaTime":21,"channel":1,"type":"pitchBend","value":1024},{"deltaTime":21,"channel":1,"type":"pitchBend","value":1152},{"deltaTime":21,"channel":1,"type":"pitchBend","value":1280},{"deltaTime":21,"channel":1,"type":"pitchBend","value":1408},{"deltaTime":9,"channel":1,"type":"pitchBend","value":1408},{"deltaTime":240,"channel":1,"type":"pitchBend","value":1408},{"deltaTime":0,"channel":1,"type":"pitchBend","value":0},{"deltaTime":0,"channel":1,"type":"noteOff","noteNumber":79,"velocity":111},{"deltaTime":0,"channel":1,"type":"pitchBend","value":0},{"deltaTime":0,"channel":1,"type":"noteOn","noteNumber":79,"velocity":111},{"deltaTime":54,"channel":1,"type":"pitchBend","value":128},{"deltaTime":54,"channel":1,"type":"pitchBend","value":256},{"deltaTime":54,"channel":1,"type":"pitchBend","value":384},{"deltaTime":54,"channel":1,"type":"pitchBend","value":512},{"deltaTime":54,"channel":1,"type":"pitchBend","value":640},{"deltaTime":54,"channel":1,"type":"pitchBend","value":768},{"deltaTime":54,"channel":1,"type":"pitchBend","value":896},{"deltaTime":54,"channel":1,"type":"pitchBend","value":1024},{"deltaTime":54,"channel":1,"type":"pitchBend","value":1152},{"deltaTime":54,"channel":1,"type":"pitchBend","value":1280},{"deltaTime":54,"channel":1,"type":"pitchBend","value":1408},{"deltaTime":6,"channel":1,"type":"pitchBend","value":1408},{"deltaTime":600,"channel":1,"type":"pitchBend","value":1408},{"deltaTime":0,"channel":1,"type":"pitchBend","value":0},{"deltaTime":0,"channel":1,"type":"noteOff","noteNumber":79,"velocity":111},{"deltaTime":0,"channel":0,"type":"noteOn","noteNumber":81,"velocity":95},{"deltaTime":240,"channel":0,"type":"noteOff","noteNumber":81,"velocity":95},{"deltaTime":0,"channel":0,"type":"noteOn","noteNumber":81,"velocity":111},{"deltaTime":240,"channel":0,"type":"noteOff","noteNumber":81,"velocity":111},{"deltaTime":0,"channel":0,"type":"noteOn","noteNumber":84,"velocity":111},{"deltaTime":240,"channel":0,"type":"noteOff","noteNumber":84,"velocity":111},{"deltaTime":0,"channel":0,"type":"noteOn","noteNumber":81,"velocity":111},{"deltaTime":240,"channel":0,"type":"noteOff","noteNumber":81,"velocity":111},{"deltaTime":0,"channel":1,"type":"pitchBend","value":0},{"deltaTime":0,"channel":1,"type":"noteOn","noteNumber":79,"velocity":111},{"deltaTime":60,"channel":1,"type":"pitchBend","value":128},{"deltaTime":60,"channel":1,"type":"pitchBend","value":256},{"deltaTime":0,"channel":1,"type":"pitchBend","value":256},{"deltaTime":120,"channel":1,"type":"pitchBend","value":256},{"deltaTime":0,"channel":1,"type":"pitchBend","value":0},{"deltaTime":0,"channel":1,"type":"noteOff","noteNumber":79,"velocity":111},{"deltaTime":0,"channel":0,"type":"noteOn","noteNumber":81,"velocity":111},{"deltaTime":240,"channel":0,"type":"noteOff","noteNumber":81,"velocity":111},{"deltaTime":0,"channel":1,"type":"pitchBend","value":0},{"deltaTime":0,"channel":1,"type":"noteOn","noteNumber":79,"velocity":111},{"deltaTime":10,"channel":1,"type":"pitchBend","value":128},{"deltaTime":10,"channel":1,"type":"pitchBend","value":256},{"deltaTime":10,"channel":1,"type":"pitchBend","value":384},{"deltaTime":10,"channel":1,"type":"pitchBend","value":512},{"deltaTime":10,"channel":1,"type":"pitchBend","value":640},{"deltaTime":10,"channel":1,"type":"pitchBend","value":768},{"deltaTime":10,"channel":1,"type":"pitchBend","value":896},{"deltaTime":10,"channel":1,"type":"pitchBend","value":1024},{"deltaTime":10,"channel":1,"type":"pitchBend","value":1152},{"deltaTime":10,"channel":1,"type":"pitchBend","value":1280},{"deltaTime":10,"channel":1,"type":"pitchBend","value":1408},{"deltaTime":10,"channel":1,"type":"pitchBend","value":1408},{"deltaTime":120,"channel":1,"type":"pitchBend","value":1408},{"deltaTime":0,"channel":1,"type":"pitchBend","value":0},{"deltaTime":0,"channel":1,"type":"noteOff","noteNumber":79,"velocity":111},{"deltaTime":0,"channel":0,"type":"noteOn","noteNumber":79,"velocity":111},{"deltaTime":240,"channel":0,"type":"noteOff","noteNumber":79,"velocity":111},{"deltaTime":0,"channel":0,"type":"noteOn","noteNumber":76,"velocity":111},{"deltaTime":240,"channel":0,"type":"noteOff","noteNumber":76,"velocity":111},{"deltaTime":0,"channel":1,"type":"pitchBend","value":0},{"deltaTime":0,"channel":1,"type":"noteOn","noteNumber":84,"velocity":111},{"deltaTime":43,"channel":1,"type":"pitchBend","value":128},{"deltaTime":43,"channel":1,"type":"pitchBend","value":256},{"deltaTime":43,"channel":1,"type":"pitchBend","value":384},{"deltaTime":43,"channel":1,"type":"pitchBend","value":512},{"deltaTime":43,"channel":1,"type":"pitchBend","value":640},{"deltaTime":43,"channel":1,"type":"pitchBend","value":768},{"deltaTime":43,"channel":1,"type":"pitchBend","value":896},{"deltaTime":43,"channel":1,"type":"pitchBend","value":1024},{"deltaTime":43,"channel":1,"type":"pitchBend","value":1152},{"deltaTime":43,"channel":1,"type":"pitchBend","value":1280},{"deltaTime":43,"channel":1,"type":"pitchBend","value":1408},{"deltaTime":7,"channel":1,"type":"pitchBend","value":1408},{"deltaTime":480,"channel":1,"type":"pitchBend","value":1408},{"deltaTime":0,"channel":1,"type":"pitchBend","value":0},{"deltaTime":0,"channel":1,"type":"noteOff","noteNumber":84,"velocity":111},{"deltaTime":0,"channel":1,"type":"pitchBend","value":0},{"deltaTime":0,"channel":1,"type":"noteOn","noteNumber":84,"velocity":111},{"deltaTime":240,"channel":1,"type":"pitchBend","value":128},{"deltaTime":240,"channel":1,"type":"pitchBend","value":256},{"deltaTime":0,"channel":1,"type":"pitchBend","value":256},{"deltaTime":480,"channel":1,"type":"pitchBend","value":256},{"deltaTime":0,"channel":1,"type":"pitchBend","value":0},{"deltaTime":0,"channel":1,"type":"noteOff","noteNumber":84,"velocity":111},{"deltaTime":0,"channel":0,"type":"noteOn","noteNumber":81,"velocity":111},{"deltaTime":240,"channel":0,"type":"noteOff","noteNumber":81,"velocity":111},{"deltaTime":0,"channel":0,"type":"noteOn","noteNumber":79,"velocity":111},{"deltaTime":240,"channel":0,"type":"noteOff","noteNumber":79,"velocity":111},{"deltaTime":0,"channel":0,"type":"noteOn","noteNumber":76,"velocity":111},{"deltaTime":240,"channel":0,"type":"noteOff","noteNumber":76,"velocity":111},{"deltaTime":0,"channel":1,"type":"pitchBend","value":0},{"deltaTime":0,"channel":1,"type":"noteOn","noteNumber":74,"velocity":111},{"deltaTime":10,"channel":1,"type":"pitchBend","value":128},{"deltaTime":10,"channel":1,"type":"pitchBend","value":256},{"deltaTime":10,"channel":1,"type":"pitchBend","value":384},{"deltaTime":10,"channel":1,"type":"pitchBend","value":512},{"deltaTime":10,"channel":1,"type":"pitchBend","value":640},{"deltaTime":10,"channel":1,"type":"pitchBend","value":768},{"deltaTime":10,"channel":1,"type":"pitchBend","value":896},{"deltaTime":10,"channel":1,"type":"pitchBend","value":1024},{"deltaTime":10,"channel":1,"type":"pitchBend","value":1152},{"deltaTime":10,"channel":1,"type":"pitchBend","value":1280},{"deltaTime":10,"channel":1,"type":"pitchBend","value":1408},{"deltaTime":10,"channel":1,"type":"pitchBend","value":1408},{"deltaTime":120,"channel":1,"type":"pitchBend","value":1408},{"deltaTime":10,"channel":1,"type":"pitchBend","value":1280},{"deltaTime":10,"channel":1,"type":"pitchBend","value":1152},{"deltaTime":10,"channel":1,"type":"pitchBend","value":1024},{"deltaTime":10,"channel":1,"type":"pitchBend","value":896},{"deltaTime":10,"channel":1,"type":"pitchBend","value":768},{"deltaTime":10,"channel":1,"type":"pitchBend","value":640},{"deltaTime":10,"channel":1,"type":"pitchBend","value":512},{"deltaTime":10,"channel":1,"type":"pitchBend","value":384},{"deltaTime":10,"channel":1,"type":"pitchBend","value":256},{"deltaTime":10,"channel":1,"type":"pitchBend","value":128},{"deltaTime":10,"channel":1,"type":"pitchBend","value":0},{"deltaTime":10,"channel":1,"type":"pitchBend","value":0},{"deltaTime":120,"channel":1,"type":"pitchBend","value":0},{"deltaTime":0,"channel":1,"type":"pitchBend","value":0},{"deltaTime":0,"channel":1,"type":"noteOff","noteNumber":74,"velocity":111},{"deltaTime":240,"channel":0,"type":"noteOn","noteNumber":67,"velocity":111},{"deltaTime":240,"channel":0,"type":"noteOff","noteNumber":67,"velocity":111},{"deltaTime":0,"channel":0,"type":"noteOn","noteNumber":69,"velocity":111},{"deltaTime":240,"channel":0,"type":"noteOff","noteNumber":69,"velocity":111},{"deltaTime":0,"channel":1,"type":"noteOn","noteNumber":72,"velocity":111},{"deltaTime":160,"channel":1,"type":"pitchBend","value":0},{"deltaTime":160,"channel":1,"type":"pitchBend","value":128},{"deltaTime":160,"channel":1,"type":"pitchBend","value":0},{"deltaTime":160,"channel":1,"type":"pitchBend","value":128},{"deltaTime":160,"channel":1,"type":"pitchBend","value":0},{"deltaTime":160,"channel":1,"type":"pitchBend","value":128},{"deltaTime":0,"channel":1,"type":"pitchBend","value":0},{"deltaTime":0,"channel":1,"type":"noteOff","noteNumber":72,"velocity":111},{"deltaTime":0,"channel":1,"type":"noteOn","noteNumber":69,"velocity":111},{"deltaTime":160,"channel":1,"type":"pitchBend","value":0},{"deltaTime":160,"channel":1,"type":"pitchBend","value":128},{"deltaTime":160,"channel":1,"type":"pitchBend","value":0},{"deltaTime":0,"channel":1,"type":"pitchBend","value":128},{"deltaTime":0,"channel":1,"type":"pitchBend","value":0},{"deltaTime":0,"channel":1,"type":"noteOff","noteNumber":69,"velocity":111},{"deltaTime":0,"channel":1,"type":"noteOn","noteNumber":69,"velocity":70},{"deltaTime":480,"channel":1,"type":"noteOff","noteNumber":69,"velocity":70},{"deltaTime":0,"channel":0,"type":"noteOn","noteNumber":45,"velocity":95},{"deltaTime":480,"channel":0,"type":"noteOff","noteNumber":45,"velocity":95},{"deltaTime":0,"channel":0,"type":"noteOn","noteNumber":64,"velocity":111},{"deltaTime":480,"channel":0,"type":"noteOff","noteNumber":64,"velocity":111},{"deltaTime":0,"channel":0,"type":"noteOn","noteNumber":57,"velocity":111},{"deltaTime":480,"channel":0,"type":"noteOff","noteNumber":57,"velocity":111},{"deltaTime":0,"channel":0,"type":"noteOn","noteNumber":62,"velocity":111},{"deltaTime":960,"channel":0,"type":"noteOff","noteNumber":62,"velocity":111},{"deltaTime":0,"channel":0,"type":"noteOn","noteNumber":57,"velocity":111},{"deltaTime":480,"channel":0,"type":"noteOff","noteNumber":57,"velocity":111},{"deltaTime":0,"channel":0,"type":"noteOn","noteNumber":45,"velocity":111},{"deltaTime":480,"channel":0,"type":"noteOff","noteNumber":45,"velocity":111},{"deltaTime":0,"channel":0,"type":"noteOn","noteNumber":60,"velocity":111},{"deltaTime":960,"channel":0,"type":"noteOff","noteNumber":60,"velocity":111},{"deltaTime":0,"channel":0,"type":"noteOn","noteNumber":55,"velocity":111},{"deltaTime":480,"channel":0,"type":"noteOff","noteNumber":55,"velocity":111},{"deltaTime":0,"channel":0,"type":"noteOn","noteNumber":45,"velocity":111},{"deltaTime":480,"channel":0,"type":"noteOff","noteNumber":45,"velocity":111},{"deltaTime":0,"channel":0,"type":"noteOn","noteNumber":62,"velocity":111},{"deltaTime":960,"channel":0,"type":"noteOff","noteNumber":62,"velocity":111},{"deltaTime":0,"channel":0,"type":"noteOn","noteNumber":57,"velocity":111},{"deltaTime":480,"channel":0,"type":"noteOff","noteNumber":57,"velocity":111},{"deltaTime":0,"channel":0,"type":"noteOn","noteNumber":45,"velocity":111},{"deltaTime":480,"channel":0,"type":"noteOff","noteNumber":45,"velocity":111},{"deltaTime":0,"channel":0,"type":"noteOn","noteNumber":45,"velocity":111},{"deltaTime":960,"channel":0,"type":"noteOff","noteNumber":45,"velocity":111},{"deltaTime":0,"channel":0,"type":"noteOn","noteNumber":64,"velocity":111},{"deltaTime":480,"channel":0,"type":"noteOff","noteNumber":64,"velocity":111},{"deltaTime":0,"channel":0,"type":"noteOn","noteNumber":57,"velocity":111},{"deltaTime":480,"channel":0,"type":"noteOff","noteNumber":57,"velocity":111},{"deltaTime":0,"channel":0,"type":"noteOn","noteNumber":62,"velocity":111},{"deltaTime":960,"channel":0,"type":"noteOff","noteNumber":62,"velocity":111},{"deltaTime":0,"channel":0,"type":"noteOn","noteNumber":57,"velocity":111},{"deltaTime":480,"channel":0,"type":"noteOff","noteNumber":57,"velocity":111},{"deltaTime":0,"channel":0,"type":"noteOn","noteNumber":45,"velocity":111},{"deltaTime":480,"channel":0,"type":"noteOff","noteNumber":45,"velocity":111},{"deltaTime":0,"channel":0,"type":"noteOn","noteNumber":60,"velocity":111},{"deltaTime":960,"channel":0,"type":"noteOff","noteNumber":60,"velocity":111},{"deltaTime":0,"channel":0,"type":"noteOn","noteNumber":55,"velocity":111},{"deltaTime":480,"channel":0,"type":"noteOff","noteNumber":55,"velocity":111},{"deltaTime":0,"channel":0,"type":"noteOn","noteNumber":45,"velocity":111},{"deltaTime":480,"channel":0,"type":"noteOff","noteNumber":45,"velocity":111},{"deltaTime":0,"channel":0,"type":"noteOn","noteNumber":62,"velocity":111},{"deltaTime":960,"channel":0,"type":"noteOff","noteNumber":62,"velocity":111},{"deltaTime":0,"channel":0,"type":"noteOn","noteNumber":55,"velocity":111},{"deltaTime":0,"channel":0,"type":"noteOn","noteNumber":48,"velocity":111},{"deltaTime":480,"channel":0,"type":"noteOff","noteNumber":55,"velocity":111},{"deltaTime":0,"channel":0,"type":"noteOff","noteNumber":48,"velocity":111},{"deltaTime":0,"channel":0,"type":"noteOn","noteNumber":55,"velocity":111},{"deltaTime":0,"channel":0,"type":"noteOn","noteNumber":47,"velocity":111},{"deltaTime":480,"channel":0,"type":"noteOff","noteNumber":55,"velocity":111},{"deltaTime":0,"channel":0,"type":"noteOff","noteNumber":47,"velocity":111},{"deltaTime":0,"channel":0,"type":"noteOn","noteNumber":45,"velocity":111},{"deltaTime":960,"channel":0,"type":"noteOff","noteNumber":45,"velocity":111},{"deltaTime":0,"channel":0,"type":"noteOn","noteNumber":64,"velocity":111},{"deltaTime":480,"channel":0,"type":"noteOff","noteNumber":64,"velocity":111},{"deltaTime":0,"channel":0,"type":"noteOn","noteNumber":57,"velocity":111},{"deltaTime":480,"channel":0,"type":"noteOff","noteNumber":57,"velocity":111},{"deltaTime":0,"channel":0,"type":"noteOn","noteNumber":62,"velocity":111},{"deltaTime":960,"channel":0,"type":"noteOff","noteNumber":62,"velocity":111},{"deltaTime":0,"channel":0,"type":"noteOn","noteNumber":57,"velocity":111},{"deltaTime":480,"channel":0,"type":"noteOff","noteNumber":57,"velocity":111},{"deltaTime":0,"channel":0,"type":"noteOn","noteNumber":45,"velocity":111},{"deltaTime":480,"channel":0,"type":"noteOff","noteNumber":45,"velocity":111},{"deltaTime":0,"channel":0,"type":"noteOn","noteNumber":60,"velocity":111},{"deltaTime":960,"channel":0,"type":"noteOff","noteNumber":60,"velocity":111},{"deltaTime":0,"channel":0,"type":"noteOn","noteNumber":55,"velocity":111},{"deltaTime":480,"channel":0,"type":"noteOff","noteNumber":55,"velocity":111},{"deltaTime":0,"channel":0,"type":"noteOn","noteNumber":45,"velocity":111},{"deltaTime":480,"channel":0,"type":"noteOff","noteNumber":45,"velocity":111},{"deltaTime":0,"channel":0,"type":"noteOn","noteNumber":62,"velocity":111},{"deltaTime":960,"channel":0,"type":"noteOff","noteNumber":62,"velocity":111},{"deltaTime":0,"channel":0,"type":"noteOn","noteNumber":57,"velocity":111},{"deltaTime":480,"channel":0,"type":"noteOff","noteNumber":57,"velocity":111},{"deltaTime":0,"channel":0,"type":"noteOn","noteNumber":45,"velocity":111},{"deltaTime":480,"channel":0,"type":"noteOff","noteNumber":45,"velocity":111},{"deltaTime":0,"channel":0,"type":"noteOn","noteNumber":45,"velocity":111},{"deltaTime":960,"channel":0,"type":"noteOff","noteNumber":45,"velocity":111},{"deltaTime":0,"channel":0,"type":"noteOn","noteNumber":64,"velocity":111},{"deltaTime":480,"channel":0,"type":"noteOff","noteNumber":64,"velocity":111},{"deltaTime":0,"channel":0,"type":"noteOn","noteNumber":57,"velocity":111},{"deltaTime":480,"channel":0,"type":"noteOff","noteNumber":57,"velocity":111},{"deltaTime":0,"channel":0,"type":"noteOn","noteNumber":62,"velocity":111},{"deltaTime":960,"channel":0,"type":"noteOff","noteNumber":62,"velocity":111},{"deltaTime":0,"channel":0,"type":"noteOn","noteNumber":57,"velocity":111},{"deltaTime":480,"channel":0,"type":"noteOff","noteNumber":57,"velocity":111},{"deltaTime":0,"channel":0,"type":"noteOn","noteNumber":45,"velocity":111},{"deltaTime":480,"channel":0,"type":"noteOff","noteNumber":45,"velocity":111},{"deltaTime":0,"channel":0,"type":"noteOn","noteNumber":64,"velocity":111},{"deltaTime":0,"channel":0,"type":"noteOn","noteNumber":60,"velocity":111},{"deltaTime":0,"channel":0,"type":"noteOn","noteNumber":55,"velocity":111},{"deltaTime":0,"channel":0,"type":"noteOn","noteNumber":48,"velocity":111},{"deltaTime":960,"channel":0,"type":"noteOff","noteNumber":64,"velocity":111},{"deltaTime":0,"channel":0,"type":"noteOff","noteNumber":60,"velocity":111},{"deltaTime":0,"channel":0,"type":"noteOff","noteNumber":55,"velocity":111},{"deltaTime":0,"channel":0,"type":"noteOff","noteNumber":48,"velocity":111},{"deltaTime":0,"channel":0,"type":"noteOn","noteNumber":45,"velocity":111},{"deltaTime":480,"channel":0,"type":"noteOff","noteNumber":45,"velocity":111},{"deltaTime":0,"channel":0,"type":"noteOn","noteNumber":62,"velocity":111},{"deltaTime":0,"channel":0,"type":"noteOn","noteNumber":57,"velocity":111},{"deltaTime":0,"channel":0,"type":"noteOn","noteNumber":50,"velocity":111},{"deltaTime":960,"channel":0,"type":"noteOff","noteNumber":62,"velocity":111},{"deltaTime":0,"channel":0,"type":"noteOff","noteNumber":57,"velocity":111},{"deltaTime":0,"channel":0,"type":"noteOff","noteNumber":50,"velocity":111},{"deltaTime":0,"channel":0,"type":"noteOn","noteNumber":55,"velocity":111},{"deltaTime":0,"channel":0,"type":"noteOn","noteNumber":48,"velocity":111},{"deltaTime":480,"channel":0,"type":"noteOff","noteNumber":55,"velocity":111},{"deltaTime":0,"channel":0,"type":"noteOff","noteNumber":48,"velocity":111},{"deltaTime":0,"channel":0,"type":"noteOn","noteNumber":55,"velocity":111},{"deltaTime":0,"channel":0,"type":"noteOn","noteNumber":47,"velocity":111},{"deltaTime":480,"channel":0,"type":"noteOff","noteNumber":55,"velocity":111},{"deltaTime":0,"channel":0,"type":"noteOff","noteNumber":47,"velocity":111},{"deltaTime":480,"channel":1,"type":"pitchBend","value":0},{"deltaTime":0,"channel":1,"type":"noteOn","noteNumber":74,"velocity":111},{"deltaTime":21,"channel":1,"type":"pitchBend","value":128},{"deltaTime":21,"channel":1,"type":"pitchBend","value":256},{"deltaTime":21,"channel":1,"type":"pitchBend","value":384},{"deltaTime":21,"channel":1,"type":"pitchBend","value":512},{"deltaTime":21,"channel":1,"type":"pitchBend","value":640},{"deltaTime":21,"channel":1,"type":"pitchBend","value":768},{"deltaTime":21,"channel":1,"type":"pitchBend","value":896},{"deltaTime":21,"channel":1,"type":"pitchBend","value":1024},{"deltaTime":21,"channel":1,"type":"pitchBend","value":1152},{"deltaTime":21,"channel":1,"type":"pitchBend","value":1280},{"deltaTime":21,"channel":1,"type":"pitchBend","value":1408},{"deltaTime":9,"channel":1,"type":"pitchBend","value":1408},{"deltaTime":240,"channel":1,"type":"pitchBend","value":1408},{"deltaTime":0,"channel":1,"type":"pitchBend","value":0},{"deltaTime":0,"channel":1,"type":"noteOff","noteNumber":74,"velocity":111},{"deltaTime":0,"channel":1,"type":"pitchBend","value":1408},{"deltaTime":0,"channel":1,"type":"noteOn","noteNumber":74,"velocity":95},{"deltaTime":480,"channel":1,"type":"pitchBend","value":1408},{"deltaTime":0,"channel":1,"type":"pitchBend","value":0},{"deltaTime":0,"channel":1,"type":"noteOff","noteNumber":74,"velocity":95},{"deltaTime":0,"channel":0,"type":"noteOn","noteNumber":81,"velocity":111},{"deltaTime":0,"channel":1,"type":"pitchBend","value":1408},{"deltaTime":0,"channel":1,"type":"noteOn","noteNumber":74,"velocity":95},{"deltaTime":480,"channel":0,"type":"noteOff","noteNumber":81,"velocity":111},{"deltaTime":0,"channel":1,"type":"pitchBend","value":1408},{"deltaTime":0,"channel":1,"type":"pitchBend","value":0},{"deltaTime":0,"channel":1,"type":"noteOff","noteNumber":74,"velocity":95},{"deltaTime":0,"channel":1,"type":"pitchBend","value":1408},{"deltaTime":0,"channel":1,"type":"noteOn","noteNumber":74,"velocity":95},{"deltaTime":480,"channel":1,"type":"pitchBend","value":1408},{"deltaTime":0,"channel":1,"type":"pitchBend","value":0},{"deltaTime":0,"channel":1,"type":"noteOff","noteNumber":74,"velocity":95},{"deltaTime":0,"channel":1,"type":"pitchBend","value":1408},{"deltaTime":0,"channel":1,"type":"noteOn","noteNumber":74,"velocity":111},{"deltaTime":640,"channel":1,"type":"pitchBend","value":1408},{"deltaTime":58,"channel":1,"type":"pitchBend","value":1280},{"deltaTime":58,"channel":1,"type":"pitchBend","value":1152},{"deltaTime":58,"channel":1,"type":"pitchBend","value":1024},{"deltaTime":58,"channel":1,"type":"pitchBend","value":896},{"deltaTime":58,"channel":1,"type":"pitchBend","value":768},{"deltaTime":58,"channel":1,"type":"pitchBend","value":640},{"deltaTime":58,"channel":1,"type":"pitchBend","value":512},{"deltaTime":58,"channel":1,"type":"pitchBend","value":384},{"deltaTime":58,"channel":1,"type":"pitchBend","value":256},{"deltaTime":58,"channel":1,"type":"pitchBend","value":128},{"deltaTime":58,"channel":1,"type":"pitchBend","value":0},{"deltaTime":2,"channel":1,"type":"pitchBend","value":0},{"deltaTime":640,"channel":1,"type":"pitchBend","value":0},{"deltaTime":0,"channel":1,"type":"pitchBend","value":0},{"deltaTime":0,"channel":1,"type":"noteOff","noteNumber":74,"velocity":111},{"deltaTime":0,"channel":0,"type":"noteOn","noteNumber":72,"velocity":111},{"deltaTime":1920,"channel":0,"type":"noteOff","noteNumber":72,"velocity":111},{"deltaTime":0,"channel":1,"type":"noteOn","noteNumber":74,"velocity":111},{"deltaTime":160,"channel":1,"type":"pitchBend","value":0},{"deltaTime":160,"channel":1,"type":"pitchBend","value":128},{"deltaTime":160,"channel":1,"type":"pitchBend","value":0},{"deltaTime":160,"channel":1,"type":"pitchBend","value":128},{"deltaTime":160,"channel":1,"type":"pitchBend","value":0},{"deltaTime":160,"channel":1,"type":"pitchBend","value":128},{"deltaTime":160,"channel":1,"type":"pitchBend","value":0},{"deltaTime":160,"channel":1,"type":"pitchBend","value":128},{"deltaTime":160,"channel":1,"type":"pitchBend","value":0},{"deltaTime":160,"channel":1,"type":"pitchBend","value":128},{"deltaTime":160,"channel":1,"type":"pitchBend","value":0},{"deltaTime":160,"channel":1,"type":"pitchBend","value":128},{"deltaTime":0,"channel":1,"type":"pitchBend","value":0},{"deltaTime":0,"channel":1,"type":"noteOff","noteNumber":74,"velocity":111},{"deltaTime":0,"channel":1,"type":"pitchBend","value":0},{"deltaTime":0,"channel":1,"type":"noteOn","noteNumber":74,"velocity":111},{"deltaTime":21,"channel":1,"type":"pitchBend","value":128},{"deltaTime":21,"channel":1,"type":"pitchBend","value":256},{"deltaTime":21,"channel":1,"type":"pitchBend","value":384},{"deltaTime":21,"channel":1,"type":"pitchBend","value":512},{"deltaTime":21,"channel":1,"type":"pitchBend","value":640},{"deltaTime":21,"channel":1,"type":"pitchBend","value":768},{"deltaTime":21,"channel":1,"type":"pitchBend","value":896},{"deltaTime":21,"channel":1,"type":"pitchBend","value":1024},{"deltaTime":21,"channel":1,"type":"pitchBend","value":1152},{"deltaTime":21,"channel":1,"type":"pitchBend","value":1280},{"deltaTime":21,"channel":1,"type":"pitchBend","value":1408},{"deltaTime":9,"channel":1,"type":"pitchBend","value":1408},{"deltaTime":240,"channel":1,"type":"pitchBend","value":1408},{"deltaTime":0,"channel":1,"type":"pitchBend","value":0},{"deltaTime":0,"channel":1,"type":"noteOff","noteNumber":74,"velocity":111},{"deltaTime":0,"channel":1,"type":"pitchBend","value":1408},{"deltaTime":0,"channel":1,"type":"noteOn","noteNumber":74,"velocity":95},{"deltaTime":480,"channel":1,"type":"pitchBend","value":1408},{"deltaTime":0,"channel":1,"type":"pitchBend","value":0},{"deltaTime":0,"channel":1,"type":"noteOff","noteNumber":74,"velocity":95},{"deltaTime":0,"channel":0,"type":"noteOn","noteNumber":81,"velocity":111},{"deltaTime":0,"channel":1,"type":"pitchBend","value":1408},{"deltaTime":0,"channel":1,"type":"noteOn","noteNumber":74,"velocity":95},{"deltaTime":480,"channel":0,"type":"noteOff","noteNumber":81,"velocity":111},{"deltaTime":0,"channel":1,"type":"pitchBend","value":1408},{"deltaTime":0,"channel":1,"type":"pitchBend","value":0},{"deltaTime":0,"channel":1,"type":"noteOff","noteNumber":74,"velocity":95},{"deltaTime":0,"channel":1,"type":"pitchBend","value":1408},{"deltaTime":0,"channel":1,"type":"noteOn","noteNumber":74,"velocity":95},{"deltaTime":480,"channel":1,"type":"pitchBend","value":1408},{"deltaTime":0,"channel":1,"type":"pitchBend","value":0},{"deltaTime":0,"channel":1,"type":"noteOff","noteNumber":74,"velocity":95},{"deltaTime":0,"channel":1,"type":"pitchBend","value":1408},{"deltaTime":0,"channel":1,"type":"noteOn","noteNumber":74,"velocity":111},{"deltaTime":640,"channel":1,"type":"pitchBend","value":1408},{"deltaTime":58,"channel":1,"type":"pitchBend","value":1280},{"deltaTime":58,"channel":1,"type":"pitchBend","value":1152},{"deltaTime":58,"channel":1,"type":"pitchBend","value":1024},{"deltaTime":58,"channel":1,"type":"pitchBend","value":896},{"deltaTime":58,"channel":1,"type":"pitchBend","value":768},{"deltaTime":58,"channel":1,"type":"pitchBend","value":640},{"deltaTime":58,"channel":1,"type":"pitchBend","value":512},{"deltaTime":58,"channel":1,"type":"pitchBend","value":384},{"deltaTime":58,"channel":1,"type":"pitchBend","value":256},{"deltaTime":58,"channel":1,"type":"pitchBend","value":128},{"deltaTime":58,"channel":1,"type":"pitchBend","value":0},{"deltaTime":2,"channel":1,"type":"pitchBend","value":0},{"deltaTime":640,"channel":1,"type":"pitchBend","value":0},{"deltaTime":0,"channel":1,"type":"pitchBend","value":0},{"deltaTime":0,"channel":1,"type":"noteOff","noteNumber":74,"velocity":111},{"deltaTime":0,"channel":0,"type":"noteOn","noteNumber":72,"velocity":111},{"deltaTime":1920,"channel":0,"type":"noteOff","noteNumber":72,"velocity":111},{"deltaTime":0,"channel":1,"type":"noteOn","noteNumber":74,"velocity":111},{"deltaTime":160,"channel":1,"type":"pitchBend","value":0},{"deltaTime":160,"channel":1,"type":"pitchBend","value":128},{"deltaTime":160,"channel":1,"type":"pitchBend","value":0},{"deltaTime":160,"channel":1,"type":"pitchBend","value":128},{"deltaTime":160,"channel":1,"type":"pitchBend","value":0},{"deltaTime":160,"channel":1,"type":"pitchBend","value":128},{"deltaTime":160,"channel":1,"type":"pitchBend","value":0},{"deltaTime":160,"channel":1,"type":"pitchBend","value":128},{"deltaTime":160,"channel":1,"type":"pitchBend","value":0},{"deltaTime":160,"channel":1,"type":"pitchBend","value":128},{"deltaTime":160,"channel":1,"type":"pitchBend","value":0},{"deltaTime":160,"channel":1,"type":"pitchBend","value":128},{"deltaTime":0,"channel":1,"type":"pitchBend","value":0},{"deltaTime":0,"channel":1,"type":"noteOff","noteNumber":74,"velocity":111},{"deltaTime":0,"channel":1,"type":"pitchBend","value":0},{"deltaTime":0,"channel":1,"type":"noteOn","noteNumber":74,"velocity":111},{"deltaTime":21,"channel":1,"type":"pitchBend","value":128},{"deltaTime":21,"channel":1,"type":"pitchBend","value":256},{"deltaTime":21,"channel":1,"type":"pitchBend","value":384},{"deltaTime":21,"channel":1,"type":"pitchBend","value":512},{"deltaTime":21,"channel":1,"type":"pitchBend","value":640},{"deltaTime":21,"channel":1,"type":"pitchBend","value":768},{"deltaTime":21,"channel":1,"type":"pitchBend","value":896},{"deltaTime":21,"channel":1,"type":"pitchBend","value":1024},{"deltaTime":21,"channel":1,"type":"pitchBend","value":1152},{"deltaTime":21,"channel":1,"type":"pitchBend","value":1280},{"deltaTime":21,"channel":1,"type":"pitchBend","value":1408},{"deltaTime":9,"channel":1,"type":"pitchBend","value":1408},{"deltaTime":240,"channel":1,"type":"pitchBend","value":1408},{"deltaTime":0,"channel":1,"type":"pitchBend","value":0},{"deltaTime":0,"channel":1,"type":"noteOff","noteNumber":74,"velocity":111},{"deltaTime":0,"channel":1,"type":"pitchBend","value":1408},{"deltaTime":0,"channel":1,"type":"noteOn","noteNumber":74,"velocity":95},{"deltaTime":480,"channel":1,"type":"pitchBend","value":1408},{"deltaTime":0,"channel":1,"type":"pitchBend","value":0},{"deltaTime":0,"channel":1,"type":"noteOff","noteNumber":74,"velocity":95},{"deltaTime":0,"channel":0,"type":"noteOn","noteNumber":81,"velocity":111},{"deltaTime":0,"channel":1,"type":"pitchBend","value":1408},{"deltaTime":0,"channel":1,"type":"noteOn","noteNumber":74,"velocity":95},{"deltaTime":480,"channel":0,"type":"noteOff","noteNumber":81,"velocity":111},{"deltaTime":0,"channel":1,"type":"pitchBend","value":1408},{"deltaTime":0,"channel":1,"type":"pitchBend","value":0},{"deltaTime":0,"channel":1,"type":"noteOff","noteNumber":74,"velocity":95},{"deltaTime":0,"channel":1,"type":"pitchBend","value":1408},{"deltaTime":0,"channel":1,"type":"noteOn","noteNumber":74,"velocity":95},{"deltaTime":480,"channel":1,"type":"pitchBend","value":1408},{"deltaTime":0,"channel":1,"type":"pitchBend","value":0},{"deltaTime":0,"channel":1,"type":"noteOff","noteNumber":74,"velocity":95},{"deltaTime":0,"channel":1,"type":"pitchBend","value":1408},{"deltaTime":0,"channel":1,"type":"noteOn","noteNumber":74,"velocity":111},{"deltaTime":640,"channel":1,"type":"pitchBend","value":1408},{"deltaTime":58,"channel":1,"type":"pitchBend","value":1280},{"deltaTime":58,"channel":1,"type":"pitchBend","value":1152},{"deltaTime":58,"channel":1,"type":"pitchBend","value":1024},{"deltaTime":58,"channel":1,"type":"pitchBend","value":896},{"deltaTime":58,"channel":1,"type":"pitchBend","value":768},{"deltaTime":58,"channel":1,"type":"pitchBend","value":640},{"deltaTime":58,"channel":1,"type":"pitchBend","value":512},{"deltaTime":58,"channel":1,"type":"pitchBend","value":384},{"deltaTime":58,"channel":1,"type":"pitchBend","value":256},{"deltaTime":58,"channel":1,"type":"pitchBend","value":128},{"deltaTime":58,"channel":1,"type":"pitchBend","value":0},{"deltaTime":2,"channel":1,"type":"pitchBend","value":0},{"deltaTime":640,"channel":1,"type":"pitchBend","value":0},{"deltaTime":0,"channel":1,"type":"pitchBend","value":0},{"deltaTime":0,"channel":1,"type":"noteOff","noteNumber":74,"velocity":111},{"deltaTime":0,"channel":0,"type":"noteOn","noteNumber":72,"velocity":111},{"deltaTime":1920,"channel":0,"type":"noteOff","noteNumber":72,"velocity":111},{"deltaTime":0,"channel":1,"type":"noteOn","noteNumber":74,"velocity":111},{"deltaTime":160,"channel":1,"type":"pitchBend","value":0},{"deltaTime":160,"channel":1,"type":"pitchBend","value":128},{"deltaTime":160,"channel":1,"type":"pitchBend","value":0},{"deltaTime":160,"channel":1,"type":"pitchBend","value":128},{"deltaTime":160,"channel":1,"type":"pitchBend","value":0},{"deltaTime":160,"channel":1,"type":"pitchBend","value":128},{"deltaTime":160,"channel":1,"type":"pitchBend","value":0},{"deltaTime":160,"channel":1,"type":"pitchBend","value":128},{"deltaTime":160,"channel":1,"type":"pitchBend","value":0},{"deltaTime":160,"channel":1,"type":"pitchBend","value":128},{"deltaTime":160,"channel":1,"type":"pitchBend","value":0},{"deltaTime":160,"channel":1,"type":"pitchBend","value":128},{"deltaTime":0,"channel":1,"type":"pitchBend","value":0},{"deltaTime":0,"channel":1,"type":"noteOff","noteNumber":74,"velocity":111},{"deltaTime":0,"channel":1,"type":"pitchBend","value":0},{"deltaTime":0,"channel":1,"type":"noteOn","noteNumber":74,"velocity":111},{"deltaTime":21,"channel":1,"type":"pitchBend","value":128},{"deltaTime":21,"channel":1,"type":"pitchBend","value":256},{"deltaTime":21,"channel":1,"type":"pitchBend","value":384},{"deltaTime":21,"channel":1,"type":"pitchBend","value":512},{"deltaTime":21,"channel":1,"type":"pitchBend","value":640},{"deltaTime":21,"channel":1,"type":"pitchBend","value":768},{"deltaTime":21,"channel":1,"type":"pitchBend","value":896},{"deltaTime":21,"channel":1,"type":"pitchBend","value":1024},{"deltaTime":21,"channel":1,"type":"pitchBend","value":1152},{"deltaTime":21,"channel":1,"type":"pitchBend","value":1280},{"deltaTime":21,"channel":1,"type":"pitchBend","value":1408},{"deltaTime":9,"channel":1,"type":"pitchBend","value":1408},{"deltaTime":240,"channel":1,"type":"pitchBend","value":1408},{"deltaTime":0,"channel":1,"type":"pitchBend","value":0},{"deltaTime":0,"channel":1,"type":"noteOff","noteNumber":74,"velocity":111},{"deltaTime":0,"channel":1,"type":"pitchBend","value":1408},{"deltaTime":0,"channel":1,"type":"noteOn","noteNumber":74,"velocity":95},{"deltaTime":480,"channel":1,"type":"pitchBend","value":1408},{"deltaTime":0,"channel":1,"type":"pitchBend","value":0},{"deltaTime":0,"channel":1,"type":"noteOff","noteNumber":74,"velocity":95},{"deltaTime":0,"channel":0,"type":"noteOn","noteNumber":81,"velocity":111},{"deltaTime":0,"channel":1,"type":"pitchBend","value":1408},{"deltaTime":0,"channel":1,"type":"noteOn","noteNumber":74,"velocity":95},{"deltaTime":480,"channel":0,"type":"noteOff","noteNumber":81,"velocity":111},{"deltaTime":0,"channel":1,"type":"pitchBend","value":1408},{"deltaTime":0,"channel":1,"type":"pitchBend","value":0},{"deltaTime":0,"channel":1,"type":"noteOff","noteNumber":74,"velocity":95},{"deltaTime":0,"channel":1,"type":"pitchBend","value":1408},{"deltaTime":0,"channel":1,"type":"noteOn","noteNumber":74,"velocity":95},{"deltaTime":480,"channel":1,"type":"pitchBend","value":1408},{"deltaTime":0,"channel":1,"type":"pitchBend","value":0},{"deltaTime":0,"channel":1,"type":"noteOff","noteNumber":74,"velocity":95},{"deltaTime":0,"channel":1,"type":"pitchBend","value":1408},{"deltaTime":0,"channel":1,"type":"noteOn","noteNumber":74,"velocity":111},{"deltaTime":640,"channel":1,"type":"pitchBend","value":1408},{"deltaTime":58,"channel":1,"type":"pitchBend","value":1280},{"deltaTime":58,"channel":1,"type":"pitchBend","value":1152},{"deltaTime":58,"channel":1,"type":"pitchBend","value":1024},{"deltaTime":58,"channel":1,"type":"pitchBend","value":896},{"deltaTime":58,"channel":1,"type":"pitchBend","value":768},{"deltaTime":58,"channel":1,"type":"pitchBend","value":640},{"deltaTime":58,"channel":1,"type":"pitchBend","value":512},{"deltaTime":58,"channel":1,"type":"pitchBend","value":384},{"deltaTime":58,"channel":1,"type":"pitchBend","value":256},{"deltaTime":58,"channel":1,"type":"pitchBend","value":128},{"deltaTime":58,"channel":1,"type":"pitchBend","value":0},{"deltaTime":2,"channel":1,"type":"pitchBend","value":0},{"deltaTime":640,"channel":1,"type":"pitchBend","value":0},{"deltaTime":0,"channel":1,"type":"pitchBend","value":0},{"deltaTime":0,"channel":1,"type":"noteOff","noteNumber":74,"velocity":111},{"deltaTime":0,"channel":0,"type":"noteOn","noteNumber":72,"velocity":111},{"deltaTime":480,"channel":0,"type":"noteOff","noteNumber":72,"velocity":111},{"deltaTime":0,"channel":1,"type":"noteOn","noteNumber":72,"velocity":95},{"deltaTime":1440,"channel":1,"type":"noteOff","noteNumber":72,"velocity":95},{"deltaTime":0,"channel":0,"type":"noteOn","noteNumber":57,"velocity":111},{"deltaTime":480,"channel":0,"type":"noteOff","noteNumber":57,"velocity":111},{"deltaTime":0,"channel":1,"type":"noteOn","noteNumber":57,"velocity":70},{"deltaTime":120,"channel":1,"type":"pitchBend","value":-512},{"deltaTime":120,"channel":1,"type":"pitchBend","value":-1152},{"deltaTime":120,"channel":1,"type":"pitchBend","value":-1792},{"deltaTime":120,"channel":1,"type":"pitchBend","value":-2432},{"deltaTime":120,"channel":1,"type":"pitchBend","value":-3072},{"deltaTime":120,"channel":1,"type":"pitchBend","value":-3584},{"deltaTime":120,"channel":1,"type":"pitchBend","value":-4224},{"deltaTime":120,"channel":1,"type":"pitchBend","value":-4864},{"deltaTime":0,"channel":1,"type":"pitchBend","value":0},{"deltaTime":0,"channel":1,"type":"noteOff","noteNumber":57,"velocity":70},{"deltaTime":0,"channel":1,"type":"noteOn","noteNumber":50,"velocity":111},{"deltaTime":960,"channel":1,"type":"noteOff","noteNumber":50,"velocity":111},{"deltaTime":0,"channel":0,"type":"noteOn","noteNumber":40,"velocity":111},{"deltaTime":52,"channel":0,"type":"noteOff","noteNumber":40,"velocity":111},{"deltaTime":428,"channel":0,"type":"noteOn","noteNumber":57,"velocity":111},{"deltaTime":480,"channel":0,"type":"noteOff","noteNumber":57,"velocity":111},{"deltaTime":0,"channel":0,"type":"noteOn","noteNumber":55,"velocity":111},{"deltaTime":360,"channel":1,"type":"noteOn","noteNumber":55,"velocity":111},{"deltaTime":120,"channel":0,"type":"noteOff","noteNumber":55,"velocity":111},{"deltaTime":0,"channel":1,"type":"noteOff","noteNumber":55,"velocity":111},{"deltaTime":0,"channel":1,"type":"noteOn","noteNumber":57,"velocity":111},{"deltaTime":1440,"channel":1,"type":"noteOff","noteNumber":57,"velocity":111},{"deltaTime":480,"channel":0,"type":"noteOn","noteNumber":57,"velocity":111},{"deltaTime":480,"channel":0,"type":"noteOff","noteNumber":57,"velocity":111},{"deltaTime":0,"channel":0,"type":"noteOn","noteNumber":57,"velocity":95},{"deltaTime":960,"channel":0,"type":"noteOff","noteNumber":57,"velocity":95},{"deltaTime":0,"channel":0,"type":"noteOn","noteNumber":57,"velocity":111},{"deltaTime":480,"channel":0,"type":"noteOff","noteNumber":57,"velocity":111},{"deltaTime":0,"channel":0,"type":"noteOn","noteNumber":60,"velocity":111},{"deltaTime":240,"channel":0,"type":"noteOff","noteNumber":60,"velocity":111},{"deltaTime":0,"channel":0,"type":"noteOn","noteNumber":62,"velocity":86},{"deltaTime":1200,"channel":0,"type":"noteOff","noteNumber":62,"velocity":86},{"deltaTime":0,"channel":1,"type":"pitchBend","value":0},{"deltaTime":0,"channel":1,"type":"noteOn","noteNumber":60,"velocity":111},{"deltaTime":96,"channel":1,"type":"pitchBend","value":128},{"deltaTime":96,"channel":1,"type":"pitchBend","value":256},{"deltaTime":96,"channel":1,"type":"pitchBend","value":384},{"deltaTime":96,"channel":1,"type":"pitchBend","value":512},{"deltaTime":96,"channel":1,"type":"pitchBend","value":640},{"deltaTime":0,"channel":1,"type":"pitchBend","value":640},{"deltaTime":480,"channel":1,"type":"pitchBend","value":640},{"deltaTime":0,"channel":1,"type":"pitchBend","value":0},{"deltaTime":0,"channel":1,"type":"noteOff","noteNumber":60,"velocity":111},{"deltaTime":480,"channel":0,"type":"noteOn","noteNumber":69,"velocity":111},{"deltaTime":0,"channel":1,"type":"pitchBend","value":0},{"deltaTime":0,"channel":1,"type":"noteOn","noteNumber":67,"velocity":111},{"deltaTime":21,"channel":1,"type":"pitchBend","value":128},{"deltaTime":21,"channel":1,"type":"pitchBend","value":256},{"deltaTime":21,"channel":1,"type":"pitchBend","value":384},{"deltaTime":21,"channel":1,"type":"pitchBend","value":512},{"deltaTime":21,"channel":1,"type":"pitchBend","value":640},{"deltaTime":21,"channel":1,"type":"pitchBend","value":768},{"deltaTime":21,"channel":1,"type":"pitchBend","value":896},{"deltaTime":21,"channel":1,"type":"pitchBend","value":1024},{"deltaTime":21,"channel":1,"type":"pitchBend","value":1152},{"deltaTime":21,"channel":1,"type":"pitchBend","value":1280},{"deltaTime":21,"channel":1,"type":"pitchBend","value":1408},{"deltaTime":9,"channel":1,"type":"pitchBend","value":1408},{"deltaTime":240,"channel":0,"type":"noteOff","noteNumber":69,"velocity":111},{"deltaTime":0,"channel":1,"type":"pitchBend","value":1408},{"deltaTime":0,"channel":1,"type":"pitchBend","value":0},{"deltaTime":0,"channel":1,"type":"noteOff","noteNumber":67,"velocity":111},{"deltaTime":0,"channel":0,"type":"noteOn","noteNumber":69,"velocity":111},{"deltaTime":0,"channel":0,"type":"noteOn","noteNumber":67,"velocity":111},{"deltaTime":480,"channel":0,"type":"noteOff","noteNumber":69,"velocity":111},{"deltaTime":0,"channel":0,"type":"noteOff","noteNumber":67,"velocity":111},{"deltaTime":0,"channel":0,"type":"noteOn","noteNumber":69,"velocity":111},{"deltaTime":0,"channel":1,"type":"pitchBend","value":0},{"deltaTime":0,"channel":1,"type":"noteOn","noteNumber":67,"velocity":111},{"deltaTime":43,"channel":1,"type":"pitchBend","value":128},{"deltaTime":43,"channel":1,"type":"pitchBend","value":256},{"deltaTime":43,"channel":1,"type":"pitchBend","value":384},{"deltaTime":43,"channel":1,"type":"pitchBend","value":512},{"deltaTime":43,"channel":1,"type":"pitchBend","value":640},{"deltaTime":43,"channel":1,"type":"pitchBend","value":768},{"deltaTime":43,"channel":1,"type":"pitchBend","value":896},{"deltaTime":43,"channel":1,"type":"pitchBend","value":1024},{"deltaTime":43,"channel":1,"type":"pitchBend","value":1152},{"deltaTime":43,"channel":1,"type":"pitchBend","value":1280},{"deltaTime":43,"channel":1,"type":"pitchBend","value":1408},{"deltaTime":7,"channel":1,"type":"pitchBend","value":1408},{"deltaTime":480,"channel":0,"type":"noteOff","noteNumber":69,"velocity":111},{"deltaTime":0,"channel":1,"type":"pitchBend","value":1408},{"deltaTime":0,"channel":1,"type":"pitchBend","value":0},{"deltaTime":0,"channel":1,"type":"noteOff","noteNumber":67,"velocity":111},{"deltaTime":0,"channel":0,"type":"noteOn","noteNumber":57,"velocity":111},{"deltaTime":480,"channel":0,"type":"noteOff","noteNumber":57,"velocity":111},{"deltaTime":480,"channel":0,"type":"noteOn","noteNumber":72,"velocity":111},{"deltaTime":960,"channel":0,"type":"noteOff","noteNumber":72,"velocity":111},{"deltaTime":0,"channel":0,"type":"noteOn","noteNumber":69,"velocity":111},{"deltaTime":480,"channel":0,"type":"noteOff","noteNumber":69,"velocity":111},{"deltaTime":0,"channel":0,"type":"noteOn","noteNumber":67,"velocity":111},{"deltaTime":240,"channel":0,"type":"noteOff","noteNumber":67,"velocity":111},{"deltaTime":0,"channel":1,"type":"noteOn","noteNumber":69,"velocity":86},{"deltaTime":160,"channel":1,"type":"pitchBend","value":0},{"deltaTime":160,"channel":1,"type":"pitchBend","value":128},{"deltaTime":160,"channel":1,"type":"pitchBend","value":0},{"deltaTime":160,"channel":1,"type":"pitchBend","value":128},{"deltaTime":80,"channel":1,"type":"pitchBend","value":0},{"deltaTime":0,"channel":1,"type":"pitchBend","value":128},{"deltaTime":0,"channel":1,"type":"pitchBend","value":0},{"deltaTime":0,"channel":1,"type":"noteOff","noteNumber":69,"velocity":86},{"deltaTime":0,"channel":0,"type":"noteOn","noteNumber":72,"velocity":111},{"deltaTime":240,"channel":0,"type":"noteOff","noteNumber":72,"velocity":111},{"deltaTime":0,"channel":1,"type":"noteOn","noteNumber":69,"velocity":111},{"deltaTime":160,"channel":1,"type":"pitchBend","value":0},{"deltaTime":160,"channel":1,"type":"pitchBend","value":128},{"deltaTime":160,"channel":1,"type":"pitchBend","value":0},{"deltaTime":160,"channel":1,"type":"pitchBend","value":128},{"deltaTime":160,"channel":1,"type":"pitchBend","value":0},{"deltaTime":160,"channel":1,"type":"pitchBend","value":128},{"deltaTime":160,"channel":1,"type":"pitchBend","value":0},{"deltaTime":160,"channel":1,"type":"pitchBend","value":128},{"deltaTime":160,"channel":1,"type":"pitchBend","value":0},{"deltaTime":160,"channel":1,"type":"pitchBend","value":128},{"deltaTime":80,"channel":1,"type":"pitchBend","value":0},{"deltaTime":0,"channel":1,"type":"pitchBend","value":128},{"deltaTime":0,"channel":1,"type":"pitchBend","value":0},{"deltaTime":0,"channel":1,"type":"noteOff","noteNumber":69,"velocity":111},{"deltaTime":480,"channel":0,"type":"noteOn","noteNumber":69,"velocity":111},{"deltaTime":0,"channel":1,"type":"pitchBend","value":0},{"deltaTime":0,"channel":1,"type":"noteOn","noteNumber":67,"velocity":111},{"deltaTime":21,"channel":1,"type":"pitchBend","value":128},{"deltaTime":21,"channel":1,"type":"pitchBend","value":256},{"deltaTime":21,"channel":1,"type":"pitchBend","value":384},{"deltaTime":21,"channel":1,"type":"pitchBend","value":512},{"deltaTime":21,"channel":1,"type":"pitchBend","value":640},{"deltaTime":21,"channel":1,"type":"pitchBend","value":768},{"deltaTime":21,"channel":1,"type":"pitchBend","value":896},{"deltaTime":21,"channel":1,"type":"pitchBend","value":1024},{"deltaTime":21,"channel":1,"type":"pitchBend","value":1152},{"deltaTime":21,"channel":1,"type":"pitchBend","value":1280},{"deltaTime":21,"channel":1,"type":"pitchBend","value":1408},{"deltaTime":9,"channel":1,"type":"pitchBend","value":1408},{"deltaTime":240,"channel":0,"type":"noteOff","noteNumber":69,"velocity":111},{"deltaTime":0,"channel":1,"type":"pitchBend","value":1408},{"deltaTime":0,"channel":1,"type":"pitchBend","value":0},{"deltaTime":0,"channel":1,"type":"noteOff","noteNumber":67,"velocity":111},{"deltaTime":0,"channel":0,"type":"noteOn","noteNumber":69,"velocity":111},{"deltaTime":0,"channel":0,"type":"noteOn","noteNumber":67,"velocity":111},{"deltaTime":480,"channel":0,"type":"noteOff","noteNumber":69,"velocity":111},{"deltaTime":0,"channel":0,"type":"noteOff","noteNumber":67,"velocity":111},{"deltaTime":0,"channel":0,"type":"noteOn","noteNumber":69,"velocity":111},{"deltaTime":0,"channel":1,"type":"pitchBend","value":0},{"deltaTime":0,"channel":1,"type":"noteOn","noteNumber":67,"velocity":111},{"deltaTime":43,"channel":1,"type":"pitchBend","value":128},{"deltaTime":43,"channel":1,"type":"pitchBend","value":256},{"deltaTime":43,"channel":1,"type":"pitchBend","value":384},{"deltaTime":43,"channel":1,"type":"pitchBend","value":512},{"deltaTime":43,"channel":1,"type":"pitchBend","value":640},{"deltaTime":43,"channel":1,"type":"pitchBend","value":768},{"deltaTime":43,"channel":1,"type":"pitchBend","value":896},{"deltaTime":43,"channel":1,"type":"pitchBend","value":1024},{"deltaTime":43,"channel":1,"type":"pitchBend","value":1152},{"deltaTime":43,"channel":1,"type":"pitchBend","value":1280},{"deltaTime":43,"channel":1,"type":"pitchBend","value":1408},{"deltaTime":7,"channel":1,"type":"pitchBend","value":1408},{"deltaTime":480,"channel":0,"type":"noteOff","noteNumber":69,"velocity":111},{"deltaTime":0,"channel":1,"type":"pitchBend","value":1408},{"deltaTime":0,"channel":1,"type":"pitchBend","value":0},{"deltaTime":0,"channel":1,"type":"noteOff","noteNumber":67,"velocity":111},{"deltaTime":0,"channel":0,"type":"noteOn","noteNumber":59,"velocity":111},{"deltaTime":480,"channel":0,"type":"noteOff","noteNumber":59,"velocity":111},{"deltaTime":0,"channel":0,"type":"noteOn","noteNumber":40,"velocity":111},{"deltaTime":52,"channel":0,"type":"noteOff","noteNumber":40,"velocity":111},{"deltaTime":428,"channel":1,"type":"pitchBend","value":0},{"deltaTime":0,"channel":1,"type":"noteOn","noteNumber":79,"velocity":111},{"deltaTime":32,"channel":1,"type":"pitchBend","value":128},{"deltaTime":32,"channel":1,"type":"pitchBend","value":256},{"deltaTime":32,"channel":1,"type":"pitchBend","value":384},{"deltaTime":32,"channel":1,"type":"pitchBend","value":512},{"deltaTime":32,"channel":1,"type":"pitchBend","value":640},{"deltaTime":32,"channel":1,"type":"pitchBend","value":768},{"deltaTime":32,"channel":1,"type":"pitchBend","value":896},{"deltaTime":32,"channel":1,"type":"pitchBend","value":1024},{"deltaTime":32,"channel":1,"type":"pitchBend","value":1152},{"deltaTime":32,"channel":1,"type":"pitchBend","value":1280},{"deltaTime":32,"channel":1,"type":"pitchBend","value":1408},{"deltaTime":8,"channel":1,"type":"pitchBend","value":1408},{"deltaTime":360,"channel":1,"type":"pitchBend","value":1408},{"deltaTime":0,"channel":1,"type":"pitchBend","value":0},{"deltaTime":0,"channel":1,"type":"noteOff","noteNumber":79,"velocity":111},{"deltaTime":0,"channel":0,"type":"noteOn","noteNumber":81,"velocity":111},{"deltaTime":240,"channel":0,"type":"noteOff","noteNumber":81,"velocity":111},{"deltaTime":0,"channel":0,"type":"noteOn","noteNumber":76,"velocity":111},{"deltaTime":240,"channel":0,"type":"noteOff","noteNumber":76,"velocity":111},{"deltaTime":0,"channel":1,"type":"pitchBend","value":0},{"deltaTime":0,"channel":1,"type":"noteOn","noteNumber":79,"velocity":111},{"deltaTime":21,"channel":1,"type":"pitchBend","value":128},{"deltaTime":21,"channel":1,"type":"pitchBend","value":256},{"deltaTime":21,"channel":1,"type":"pitchBend","value":384},{"deltaTime":21,"channel":1,"type":"pitchBend","value":512},{"deltaTime":21,"channel":1,"type":"pitchBend","value":640},{"deltaTime":21,"channel":1,"type":"pitchBend","value":768},{"deltaTime":21,"channel":1,"type":"pitchBend","value":896},{"deltaTime":21,"channel":1,"type":"pitchBend","value":1024},{"deltaTime":21,"channel":1,"type":"pitchBend","value":1152},{"deltaTime":21,"channel":1,"type":"pitchBend","value":1280},{"deltaTime":21,"channel":1,"type":"pitchBend","value":1408},{"deltaTime":9,"channel":1,"type":"pitchBend","value":1408},{"deltaTime":240,"channel":1,"type":"pitchBend","value":1408},{"deltaTime":0,"channel":1,"type":"pitchBend","value":0},{"deltaTime":0,"channel":1,"type":"noteOff","noteNumber":79,"velocity":111},{"deltaTime":0,"channel":0,"type":"noteOn","noteNumber":81,"velocity":111},{"deltaTime":240,"channel":0,"type":"noteOff","noteNumber":81,"velocity":111},{"deltaTime":0,"channel":0,"type":"noteOn","noteNumber":76,"velocity":111},{"deltaTime":480,"channel":0,"type":"noteOff","noteNumber":76,"velocity":111},{"deltaTime":0,"channel":1,"type":"pitchBend","value":0},{"deltaTime":0,"channel":1,"type":"noteOn","noteNumber":79,"velocity":111},{"deltaTime":76,"channel":1,"type":"pitchBend","value":128},{"deltaTime":76,"channel":1,"type":"pitchBend","value":256},{"deltaTime":76,"channel":1,"type":"pitchBend","value":384},{"deltaTime":76,"channel":1,"type":"pitchBend","value":512},{"deltaTime":76,"channel":1,"type":"pitchBend","value":640},{"deltaTime":76,"channel":1,"type":"pitchBend","value":768},{"deltaTime":76,"channel":1,"type":"pitchBend","value":896},{"deltaTime":76,"channel":1,"type":"pitchBend","value":1024},{"deltaTime":76,"channel":1,"type":"pitchBend","value":1152},{"deltaTime":76,"channel":1,"type":"pitchBend","value":1280},{"deltaTime":76,"channel":1,"type":"pitchBend","value":1408},{"deltaTime":4,"channel":1,"type":"pitchBend","value":1408},{"deltaTime":840,"channel":1,"type":"pitchBend","value":1408},{"deltaTime":0,"channel":1,"type":"pitchBend","value":0},{"deltaTime":0,"channel":1,"type":"noteOff","noteNumber":79,"velocity":111},{"deltaTime":0,"channel":0,"type":"noteOn","noteNumber":55,"velocity":95},{"deltaTime":120,"channel":0,"type":"noteOff","noteNumber":55,"velocity":95},{"deltaTime":0,"channel":0,"type":"noteOn","noteNumber":50,"velocity":95},{"deltaTime":120,"channel":0,"type":"noteOn","noteNumber":45,"velocity":111},{"deltaTime":240,"channel":1,"type":"pitchBend","value":0},{"deltaTime":0,"channel":1,"type":"noteOn","noteNumber":79,"velocity":111},{"deltaTime":10,"channel":1,"type":"pitchBend","value":128},{"deltaTime":10,"channel":1,"type":"pitchBend","value":256},{"deltaTime":10,"channel":1,"type":"pitchBend","value":384},{"deltaTime":10,"channel":1,"type":"pitchBend","value":512},{"deltaTime":10,"channel":1,"type":"pitchBend","value":640},{"deltaTime":10,"channel":1,"type":"pitchBend","value":768},{"deltaTime":10,"channel":1,"type":"pitchBend","value":896},{"deltaTime":10,"channel":1,"type":"pitchBend","value":1024},{"deltaTime":10,"channel":1,"type":"pitchBend","value":1152},{"deltaTime":10,"channel":1,"type":"pitchBend","value":1280},{"deltaTime":10,"channel":1,"type":"pitchBend","value":1408},{"deltaTime":10,"channel":1,"type":"pitchBend","value":1408},{"deltaTime":120,"channel":1,"type":"pitchBend","value":1408},{"deltaTime":0,"channel":1,"type":"pitchBend","value":0},{"deltaTime":0,"channel":1,"type":"noteOff","noteNumber":79,"velocity":111},{"deltaTime":0,"channel":1,"type":"pitchBend","value":0},{"deltaTime":0,"channel":1,"type":"noteOn","noteNumber":79,"velocity":111},{"deltaTime":10,"channel":1,"type":"pitchBend","value":128},{"deltaTime":10,"channel":1,"type":"pitchBend","value":256},{"deltaTime":10,"channel":1,"type":"pitchBend","value":384},{"deltaTime":10,"channel":1,"type":"pitchBend","value":512},{"deltaTime":10,"channel":1,"type":"pitchBend","value":640},{"deltaTime":10,"channel":1,"type":"pitchBend","value":768},{"deltaTime":10,"channel":1,"type":"pitchBend","value":896},{"deltaTime":10,"channel":1,"type":"pitchBend","value":1024},{"deltaTime":10,"channel":1,"type":"pitchBend","value":1152},{"deltaTime":10,"channel":1,"type":"pitchBend","value":1280},{"deltaTime":10,"channel":1,"type":"pitchBend","value":1408},{"deltaTime":10,"channel":1,"type":"pitchBend","value":1408},{"deltaTime":120,"channel":1,"type":"pitchBend","value":1408},{"deltaTime":0,"channel":1,"type":"pitchBend","value":0},{"deltaTime":0,"channel":1,"type":"noteOff","noteNumber":79,"velocity":111},{"deltaTime":0,"channel":1,"type":"pitchBend","value":0},{"deltaTime":0,"channel":1,"type":"noteOn","noteNumber":79,"velocity":111},{"deltaTime":32,"channel":1,"type":"pitchBend","value":128},{"deltaTime":32,"channel":1,"type":"pitchBend","value":256},{"deltaTime":32,"channel":1,"type":"pitchBend","value":384},{"deltaTime":32,"channel":1,"type":"pitchBend","value":512},{"deltaTime":32,"channel":1,"type":"pitchBend","value":640},{"deltaTime":32,"channel":1,"type":"pitchBend","value":768},{"deltaTime":32,"channel":1,"type":"pitchBend","value":896},{"deltaTime":32,"channel":1,"type":"pitchBend","value":1024},{"deltaTime":32,"channel":1,"type":"pitchBend","value":1152},{"deltaTime":32,"channel":1,"type":"pitchBend","value":1280},{"deltaTime":32,"channel":1,"type":"pitchBend","value":1408},{"deltaTime":8,"channel":1,"type":"pitchBend","value":1408},{"deltaTime":360,"channel":1,"type":"pitchBend","value":1408},{"deltaTime":0,"channel":1,"type":"pitchBend","value":0},{"deltaTime":0,"channel":1,"type":"noteOff","noteNumber":79,"velocity":111},{"deltaTime":0,"channel":1,"type":"pitchBend","value":0},{"deltaTime":0,"channel":1,"type":"noteOn","noteNumber":79,"velocity":111},{"deltaTime":10,"channel":1,"type":"pitchBend","value":128},{"deltaTime":10,"channel":1,"type":"pitchBend","value":256},{"deltaTime":10,"channel":1,"type":"pitchBend","value":384},{"deltaTime":10,"channel":1,"type":"pitchBend","value":512},{"deltaTime":10,"channel":1,"type":"pitchBend","value":640},{"deltaTime":10,"channel":1,"type":"pitchBend","value":768},{"deltaTime":10,"channel":1,"type":"pitchBend","value":896},{"deltaTime":10,"channel":1,"type":"pitchBend","value":1024},{"deltaTime":10,"channel":1,"type":"pitchBend","value":1152},{"deltaTime":10,"channel":1,"type":"pitchBend","value":1280},{"deltaTime":10,"channel":1,"type":"pitchBend","value":1408},{"deltaTime":10,"channel":1,"type":"pitchBend","value":1408},{"deltaTime":120,"channel":1,"type":"pitchBend","value":1408},{"deltaTime":0,"channel":1,"type":"pitchBend","value":0},{"deltaTime":0,"channel":1,"type":"noteOff","noteNumber":79,"velocity":111},{"deltaTime":0,"channel":0,"type":"noteOn","noteNumber":79,"velocity":111},{"deltaTime":240,"channel":0,"type":"noteOff","noteNumber":79,"velocity":111},{"deltaTime":0,"channel":0,"type":"noteOn","noteNumber":81,"velocity":111},{"deltaTime":240,"channel":0,"type":"noteOff","noteNumber":81,"velocity":111},{"deltaTime":0,"channel":0,"type":"noteOn","noteNumber":79,"velocity":111},{"deltaTime":240,"channel":0,"type":"noteOff","noteNumber":79,"velocity":111},{"deltaTime":0,"channel":0,"type":"noteOn","noteNumber":76,"velocity":111},{"deltaTime":240,"channel":0,"type":"noteOff","noteNumber":76,"velocity":111},{"deltaTime":0,"channel":1,"type":"pitchBend","value":0},{"deltaTime":0,"channel":1,"type":"noteOn","noteNumber":74,"velocity":111},{"deltaTime":10,"channel":1,"type":"pitchBend","value":128},{"deltaTime":10,"channel":1,"type":"pitchBend","value":256},{"deltaTime":10,"channel":1,"type":"pitchBend","value":384},{"deltaTime":10,"channel":1,"type":"pitchBend","value":512},{"deltaTime":10,"channel":1,"type":"pitchBend","value":640},{"deltaTime":10,"channel":1,"type":"pitchBend","value":768},{"deltaTime":10,"channel":1,"type":"pitchBend","value":896},{"deltaTime":10,"channel":1,"type":"pitchBend","value":1024},{"deltaTime":10,"channel":1,"type":"pitchBend","value":1152},{"deltaTime":10,"channel":1,"type":"pitchBend","value":1280},{"deltaTime":10,"channel":1,"type":"pitchBend","value":1408},{"deltaTime":10,"channel":1,"type":"pitchBend","value":1408},{"deltaTime":120,"channel":1,"type":"pitchBend","value":1408},{"deltaTime":10,"channel":1,"type":"pitchBend","value":1280},{"deltaTime":10,"channel":1,"type":"pitchBend","value":1152},{"deltaTime":10,"channel":1,"type":"pitchBend","value":1024},{"deltaTime":10,"channel":1,"type":"pitchBend","value":896},{"deltaTime":10,"channel":1,"type":"pitchBend","value":768},{"deltaTime":10,"channel":1,"type":"pitchBend","value":640},{"deltaTime":10,"channel":1,"type":"pitchBend","value":512},{"deltaTime":10,"channel":1,"type":"pitchBend","value":384},{"deltaTime":10,"channel":1,"type":"pitchBend","value":256},{"deltaTime":10,"channel":1,"type":"pitchBend","value":128},{"deltaTime":10,"channel":1,"type":"pitchBend","value":0},{"deltaTime":10,"channel":1,"type":"pitchBend","value":0},{"deltaTime":120,"channel":1,"type":"pitchBend","value":0},{"deltaTime":0,"channel":1,"type":"pitchBend","value":0},{"deltaTime":0,"channel":1,"type":"noteOff","noteNumber":74,"velocity":111},{"deltaTime":0,"channel":0,"type":"noteOn","noteNumber":72,"velocity":111},{"deltaTime":240,"channel":0,"type":"noteOff","noteNumber":72,"velocity":111},{"deltaTime":0,"channel":1,"type":"pitchBend","value":0},{"deltaTime":0,"channel":1,"type":"noteOn","noteNumber":74,"velocity":111},{"deltaTime":14,"channel":1,"type":"pitchBend","value":128},{"deltaTime":14,"channel":1,"type":"pitchBend","value":256},{"deltaTime":14,"channel":1,"type":"pitchBend","value":384},{"deltaTime":14,"channel":1,"type":"pitchBend","value":512},{"deltaTime":14,"channel":1,"type":"pitchBend","value":640},{"deltaTime":14,"channel":1,"type":"pitchBend","value":768},{"deltaTime":14,"channel":1,"type":"pitchBend","value":896},{"deltaTime":14,"channel":1,"type":"pitchBend","value":1024},{"deltaTime":14,"channel":1,"type":"pitchBend","value":1152},{"deltaTime":14,"channel":1,"type":"pitchBend","value":1280},{"deltaTime":14,"channel":1,"type":"pitchBend","value":1408},{"deltaTime":6,"channel":1,"type":"pitchBend","value":1408},{"deltaTime":160,"channel":1,"type":"pitchBend","value":1408},{"deltaTime":0,"channel":1,"type":"pitchBend","value":0},{"deltaTime":0,"channel":1,"type":"noteOff","noteNumber":74,"velocity":111},{"deltaTime":0,"channel":0,"type":"noteOn","noteNumber":79,"velocity":111},{"deltaTime":160,"channel":0,"type":"noteOff","noteNumber":79,"velocity":111},{"deltaTime":0,"channel":1,"type":"noteOn","noteNumber":79,"velocity":111},{"deltaTime":0,"channel":1,"type":"pitchBend","value":0},{"deltaTime":0,"channel":1,"type":"noteOn","noteNumber":74,"velocity":111},{"deltaTime":65,"channel":1,"type":"pitchBend","value":128},{"deltaTime":65,"channel":1,"type":"pitchBend","value":256},{"deltaTime":30,"channel":1,"type":"pitchBend","value":0},{"deltaTime":35,"channel":1,"type":"pitchBend","value":384},{"deltaTime":65,"channel":1,"type":"pitchBend","value":512},{"deltaTime":60,"channel":1,"type":"pitchBend","value":128},{"deltaTime":5,"channel":1,"type":"pitchBend","value":640},{"deltaTime":65,"channel":1,"type":"pitchBend","value":768},{"deltaTime":65,"channel":1,"type":"pitchBend","value":896},{"deltaTime":25,"channel":1,"type":"pitchBend","value":0},{"deltaTime":40,"channel":1,"type":"pitchBend","value":1024},{"deltaTime":65,"channel":1,"type":"pitchBend","value":1152},{"deltaTime":55,"channel":1,"type":"pitchBend","value":128},{"deltaTime":10,"channel":1,"type":"pitchBend","value":1280},{"deltaTime":65,"channel":1,"type":"pitchBend","value":1408},{"deltaTime":5,"channel":1,"type":"pitchBend","value":1408},{"deltaTime":80,"channel":1,"type":"pitchBend","value":0},{"deltaTime":160,"channel":1,"type":"pitchBend","value":128},{"deltaTime":160,"channel":1,"type":"pitchBend","value":0},{"deltaTime":160,"channel":1,"type":"pitchBend","value":128},{"deltaTime":160,"channel":1,"type":"pitchBend","value":0},{"deltaTime":0,"channel":1,"type":"pitchBend","value":128},{"deltaTime":0,"channel":1,"type":"pitchBend","value":0},{"deltaTime":0,"channel":1,"type":"noteOff","noteNumber":79,"velocity":111},{"deltaTime":0,"channel":1,"type":"pitchBend","value":1408},{"deltaTime":0,"channel":1,"type":"pitchBend","value":0},{"deltaTime":0,"channel":1,"type":"noteOff","noteNumber":74,"velocity":111},{"deltaTime":0,"channel":0,"type":"noteOn","noteNumber":79,"velocity":111},{"deltaTime":0,"channel":0,"type":"noteOn","noteNumber":76,"velocity":95},{"deltaTime":480,"channel":0,"type":"noteOff","noteNumber":79,"velocity":111},{"deltaTime":0,"channel":0,"type":"noteOff","noteNumber":76,"velocity":95},{"deltaTime":0,"channel":0,"type":"noteOn","noteNumber":79,"velocity":111},{"deltaTime":0,"channel":1,"type":"pitchBend","value":0},{"deltaTime":0,"channel":1,"type":"noteOn","noteNumber":74,"velocity":111},{"deltaTime":29,"channel":1,"type":"pitchBend","value":128},{"deltaTime":29,"channel":1,"type":"pitchBend","value":256},{"deltaTime":29,"channel":1,"type":"pitchBend","value":384},{"deltaTime":29,"channel":1,"type":"pitchBend","value":512},{"deltaTime":29,"channel":1,"type":"pitchBend","value":640},{"deltaTime":29,"channel":1,"type":"pitchBend","value":768},{"deltaTime":29,"channel":1,"type":"pitchBend","value":896},{"deltaTime":29,"channel":1,"type":"pitchBend","value":1024},{"deltaTime":29,"channel":1,"type":"pitchBend","value":1152},{"deltaTime":29,"channel":1,"type":"pitchBend","value":1280},{"deltaTime":29,"channel":1,"type":"pitchBend","value":1408},{"deltaTime":1,"channel":1,"type":"pitchBend","value":1408},{"deltaTime":320,"channel":0,"type":"noteOff","noteNumber":79,"velocity":111},{"deltaTime":0,"channel":1,"type":"pitchBend","value":1408},{"deltaTime":0,"channel":1,"type":"pitchBend","value":0},{"deltaTime":0,"channel":1,"type":"noteOff","noteNumber":74,"velocity":111},{"deltaTime":0,"channel":0,"type":"noteOn","noteNumber":79,"velocity":111},{"deltaTime":0,"channel":1,"type":"pitchBend","value":0},{"deltaTime":0,"channel":1,"type":"noteOn","noteNumber":74,"velocity":111},{"deltaTime":29,"channel":1,"type":"pitchBend","value":128},{"deltaTime":29,"channel":1,"type":"pitchBend","value":256},{"deltaTime":29,"channel":1,"type":"pitchBend","value":384},{"deltaTime":29,"channel":1,"type":"pitchBend","value":512},{"deltaTime":29,"channel":1,"type":"pitchBend","value":640},{"deltaTime":29,"channel":1,"type":"pitchBend","value":768},{"deltaTime":29,"channel":1,"type":"pitchBend","value":896},{"deltaTime":29,"channel":1,"type":"pitchBend","value":1024},{"deltaTime":29,"channel":1,"type":"pitchBend","value":1152},{"deltaTime":29,"channel":1,"type":"pitchBend","value":1280},{"deltaTime":29,"channel":1,"type":"pitchBend","value":1408},{"deltaTime":1,"channel":1,"type":"pitchBend","value":1408},{"deltaTime":320,"channel":0,"type":"noteOff","noteNumber":79,"velocity":111},{"deltaTime":0,"channel":1,"type":"pitchBend","value":1408},{"deltaTime":0,"channel":1,"type":"pitchBend","value":0},{"deltaTime":0,"channel":1,"type":"noteOff","noteNumber":74,"velocity":111},{"deltaTime":0,"channel":0,"type":"noteOn","noteNumber":79,"velocity":111},{"deltaTime":0,"channel":1,"type":"pitchBend","value":0},{"deltaTime":0,"channel":1,"type":"noteOn","noteNumber":74,"velocity":111},{"deltaTime":72,"channel":1,"type":"pitchBend","value":128},{"deltaTime":72,"channel":1,"type":"pitchBend","value":256},{"deltaTime":72,"channel":1,"type":"pitchBend","value":384},{"deltaTime":72,"channel":1,"type":"pitchBend","value":512},{"deltaTime":72,"channel":1,"type":"pitchBend","value":640},{"deltaTime":72,"channel":1,"type":"pitchBend","value":768},{"deltaTime":72,"channel":1,"type":"pitchBend","value":896},{"deltaTime":72,"channel":1,"type":"pitchBend","value":1024},{"deltaTime":72,"channel":1,"type":"pitchBend","value":1152},{"deltaTime":72,"channel":1,"type":"pitchBend","value":1280},{"deltaTime":72,"channel":1,"type":"pitchBend","value":1408},{"deltaTime":8,"channel":1,"type":"pitchBend","value":1408},{"deltaTime":800,"channel":0,"type":"noteOff","noteNumber":79,"velocity":111},{"deltaTime":0,"channel":1,"type":"pitchBend","value":1408},{"deltaTime":0,"channel":1,"type":"pitchBend","value":0},{"deltaTime":0,"channel":1,"type":"noteOff","noteNumber":74,"velocity":111},{"deltaTime":0,"channel":0,"type":"noteOn","noteNumber":72,"velocity":111},{"deltaTime":480,"channel":0,"type":"noteOff","noteNumber":50,"velocity":95},{"deltaTime":0,"channel":0,"type":"noteOff","noteNumber":45,"velocity":111},{"deltaTime":0,"channel":0,"type":"noteOff","noteNumber":72,"velocity":111},{"deltaTime":0,"channel":0,"type":"noteOn","noteNumber":69,"velocity":111},{"deltaTime":480,"channel":0,"type":"noteOff","noteNumber":69,"velocity":111},{"deltaTime":0,"channel":0,"type":"noteOn","noteNumber":78,"velocity":111},{"deltaTime":0,"channel":0,"type":"noteOn","noteNumber":74,"velocity":111},{"deltaTime":960,"channel":0,"type":"noteOff","noteNumber":78,"velocity":111},{"deltaTime":0,"channel":0,"type":"noteOff","noteNumber":74,"velocity":111},{"deltaTime":0,"channel":1,"type":"noteOn","noteNumber":76,"velocity":111},{"deltaTime":0,"channel":1,"type":"noteOn","noteNumber":72,"velocity":111},{"deltaTime":120,"channel":1,"type":"pitchBend","value":0},{"deltaTime":0,"channel":1,"type":"pitchBend","value":0},{"deltaTime":120,"channel":1,"type":"pitchBend","value":0},{"deltaTime":0,"channel":1,"type":"pitchBend","value":0},{"deltaTime":120,"channel":1,"type":"pitchBend","value":0},{"deltaTime":0,"channel":1,"type":"pitchBend","value":0},{"deltaTime":120,"channel":1,"type":"pitchBend","value":0},{"deltaTime":0,"channel":1,"type":"pitchBend","value":0},{"deltaTime":0,"channel":1,"type":"pitchBend","value":0},{"deltaTime":0,"channel":1,"type":"pitchBend","value":0},{"deltaTime":480,"channel":1,"type":"noteOff","noteNumber":76,"velocity":111},{"deltaTime":0,"channel":1,"type":"noteOff","noteNumber":72,"velocity":111},{"deltaTime":480,"channel":0,"type":"noteOn","noteNumber":57,"velocity":111},{"deltaTime":0,"channel":0,"type":"noteOn","noteNumber":52,"velocity":111},{"deltaTime":0,"channel":0,"type":"noteOn","noteNumber":45,"velocity":111},{"deltaTime":480,"channel":0,"type":"noteOff","noteNumber":57,"velocity":111},{"deltaTime":0,"channel":0,"type":"noteOff","noteNumber":52,"velocity":111},{"deltaTime":0,"channel":0,"type":"noteOff","noteNumber":45,"velocity":111},{"deltaTime":0,"channel":1,"type":"pitchBend","value":0},{"deltaTime":0,"channel":1,"type":"noteOn","noteNumber":43,"velocity":111},{"deltaTime":120,"channel":1,"type":"pitchBend","value":128},{"deltaTime":120,"channel":1,"type":"pitchBend","value":256},{"deltaTime":0,"channel":1,"type":"pitchBend","value":256},{"deltaTime":240,"channel":1,"type":"pitchBend","value":256},{"deltaTime":0,"channel":1,"type":"pitchBend","value":0},{"deltaTime":0,"channel":1,"type":"noteOff","noteNumber":43,"velocity":111},{"deltaTime":0,"channel":0,"type":"noteOn","noteNumber":57,"velocity":111},{"deltaTime":0,"channel":0,"type":"noteOn","noteNumber":52,"velocity":111},{"deltaTime":0,"channel":0,"type":"noteOn","noteNumber":45,"velocity":111},{"deltaTime":480,"channel":0,"type":"noteOff","noteNumber":57,"velocity":111},{"deltaTime":0,"channel":0,"type":"noteOff","noteNumber":52,"velocity":111},{"deltaTime":0,"channel":0,"type":"noteOff","noteNumber":45,"velocity":111},{"deltaTime":0,"meta":true,"type":"endOfTrack"}],[{"deltaTime":0,"channel":2,"type":"pitchBend","value":0},{"deltaTime":0,"channel":2,"type":"controller","controllerType":7,"value":103},{"deltaTime":0,"channel":2,"type":"controller","controllerType":10,"value":0},{"deltaTime":0,"channel":2,"type":"controller","controllerType":93,"value":0},{"deltaTime":0,"channel":2,"type":"controller","controllerType":91,"value":0},{"deltaTime":0,"channel":2,"type":"controller","controllerType":95,"value":0},{"deltaTime":0,"channel":2,"type":"controller","controllerType":92,"value":0},{"deltaTime":0,"channel":2,"type":"controller","controllerType":11,"value":127},{"deltaTime":0,"channel":2,"type":"programChange","programNumber":30},{"deltaTime":0,"channel":3,"type":"controller","controllerType":7,"value":103},{"deltaTime":0,"channel":3,"type":"controller","controllerType":10,"value":0},{"deltaTime":0,"channel":3,"type":"controller","controllerType":93,"value":0},{"deltaTime":0,"channel":3,"type":"controller","controllerType":91,"value":0},{"deltaTime":0,"channel":3,"type":"controller","controllerType":95,"value":0},{"deltaTime":0,"channel":3,"type":"controller","controllerType":92,"value":0},{"deltaTime":0,"channel":3,"type":"controller","controllerType":11,"value":127},{"deltaTime":0,"channel":3,"type":"programChange","programNumber":30},{"deltaTime":44640,"channel":2,"type":"noteOn","noteNumber":55,"velocity":95},{"deltaTime":0,"channel":2,"type":"noteOn","noteNumber":48,"velocity":95},{"deltaTime":480,"channel":2,"type":"noteOff","noteNumber":55,"velocity":95},{"deltaTime":0,"channel":2,"type":"noteOff","noteNumber":48,"velocity":95},{"deltaTime":0,"channel":2,"type":"noteOn","noteNumber":55,"velocity":95},{"deltaTime":0,"channel":2,"type":"noteOn","noteNumber":47,"velocity":95},{"deltaTime":480,"channel":2,"type":"noteOff","noteNumber":55,"velocity":95},{"deltaTime":0,"channel":2,"type":"noteOff","noteNumber":47,"velocity":95},{"deltaTime":0,"channel":2,"type":"noteOn","noteNumber":45,"velocity":95},{"deltaTime":7680,"channel":2,"type":"noteOff","noteNumber":45,"velocity":95},{"deltaTime":0,"channel":2,"type":"noteOn","noteNumber":52,"velocity":95},{"deltaTime":0,"channel":2,"type":"noteOn","noteNumber":45,"velocity":95},{"deltaTime":6720,"channel":2,"type":"noteOff","noteNumber":52,"velocity":95},{"deltaTime":0,"channel":2,"type":"noteOff","noteNumber":45,"velocity":95},{"deltaTime":0,"channel":2,"type":"noteOn","noteNumber":55,"velocity":95},{"deltaTime":0,"channel":2,"type":"noteOn","noteNumber":48,"velocity":95},{"deltaTime":480,"channel":2,"type":"noteOff","noteNumber":55,"velocity":95},{"deltaTime":0,"channel":2,"type":"noteOff","noteNumber":48,"velocity":95},{"deltaTime":0,"channel":2,"type":"noteOn","noteNumber":55,"velocity":95},{"deltaTime":0,"channel":2,"type":"noteOn","noteNumber":47,"velocity":95},{"deltaTime":480,"channel":2,"type":"noteOff","noteNumber":47,"velocity":95},{"deltaTime":0,"channel":2,"type":"noteOn","noteNumber":45,"velocity":95},{"deltaTime":7200,"channel":2,"type":"noteOff","noteNumber":55,"velocity":95},{"deltaTime":480,"channel":2,"type":"noteOff","noteNumber":45,"velocity":95},{"deltaTime":0,"channel":2,"type":"noteOn","noteNumber":52,"velocity":95},{"deltaTime":0,"channel":2,"type":"noteOn","noteNumber":45,"velocity":95},{"deltaTime":6720,"channel":2,"type":"noteOff","noteNumber":52,"velocity":95},{"deltaTime":0,"channel":2,"type":"noteOff","noteNumber":45,"velocity":95},{"deltaTime":0,"channel":2,"type":"noteOn","noteNumber":55,"velocity":95},{"deltaTime":0,"channel":2,"type":"noteOn","noteNumber":48,"velocity":95},{"deltaTime":480,"channel":2,"type":"noteOff","noteNumber":55,"velocity":95},{"deltaTime":0,"channel":2,"type":"noteOff","noteNumber":48,"velocity":95},{"deltaTime":0,"channel":2,"type":"noteOn","noteNumber":55,"velocity":95},{"deltaTime":0,"channel":2,"type":"noteOn","noteNumber":47,"velocity":95},{"deltaTime":480,"channel":2,"type":"noteOff","noteNumber":55,"velocity":95},{"deltaTime":0,"channel":2,"type":"noteOff","noteNumber":47,"velocity":95},{"deltaTime":0,"channel":2,"type":"noteOn","noteNumber":45,"velocity":95},{"deltaTime":960,"channel":2,"type":"noteOff","noteNumber":45,"velocity":95},{"deltaTime":0,"channel":2,"type":"noteOn","noteNumber":64,"velocity":95},{"deltaTime":480,"channel":2,"type":"noteOff","noteNumber":64,"velocity":95},{"deltaTime":0,"channel":2,"type":"noteOn","noteNumber":57,"velocity":95},{"deltaTime":480,"channel":2,"type":"noteOff","noteNumber":57,"velocity":95},{"deltaTime":0,"channel":2,"type":"noteOn","noteNumber":62,"velocity":95},{"deltaTime":960,"channel":2,"type":"noteOff","noteNumber":62,"velocity":95},{"deltaTime":0,"channel":2,"type":"noteOn","noteNumber":57,"velocity":95},{"deltaTime":480,"channel":2,"type":"noteOff","noteNumber":57,"velocity":95},{"deltaTime":0,"channel":2,"type":"noteOn","noteNumber":45,"velocity":95},{"deltaTime":480,"channel":2,"type":"noteOff","noteNumber":45,"velocity":95},{"deltaTime":0,"channel":2,"type":"noteOn","noteNumber":60,"velocity":95},{"deltaTime":960,"channel":2,"type":"noteOff","noteNumber":60,"velocity":95},{"deltaTime":0,"channel":2,"type":"noteOn","noteNumber":55,"velocity":95},{"deltaTime":480,"channel":2,"type":"noteOff","noteNumber":55,"velocity":95},{"deltaTime":0,"channel":2,"type":"noteOn","noteNumber":45,"velocity":95},{"deltaTime":480,"channel":2,"type":"noteOff","noteNumber":45,"velocity":95},{"deltaTime":0,"channel":2,"type":"noteOn","noteNumber":62,"velocity":95},{"deltaTime":960,"channel":2,"type":"noteOff","noteNumber":62,"velocity":95},{"deltaTime":0,"channel":2,"type":"noteOn","noteNumber":57,"velocity":95},{"deltaTime":480,"channel":2,"type":"noteOff","noteNumber":57,"velocity":95},{"deltaTime":0,"channel":2,"type":"noteOn","noteNumber":45,"velocity":95},{"deltaTime":480,"channel":2,"type":"noteOff","noteNumber":45,"velocity":95},{"deltaTime":0,"channel":2,"type":"noteOn","noteNumber":45,"velocity":95},{"deltaTime":960,"channel":2,"type":"noteOff","noteNumber":45,"velocity":95},{"deltaTime":0,"channel":2,"type":"noteOn","noteNumber":64,"velocity":95},{"deltaTime":480,"channel":2,"type":"noteOff","noteNumber":64,"velocity":95},{"deltaTime":0,"channel":2,"type":"noteOn","noteNumber":57,"velocity":95},{"deltaTime":480,"channel":2,"type":"noteOff","noteNumber":57,"velocity":95},{"deltaTime":0,"channel":2,"type":"noteOn","noteNumber":62,"velocity":95},{"deltaTime":960,"channel":2,"type":"noteOff","noteNumber":62,"velocity":95},{"deltaTime":0,"channel":2,"type":"noteOn","noteNumber":57,"velocity":95},{"deltaTime":480,"channel":2,"type":"noteOff","noteNumber":57,"velocity":95},{"deltaTime":0,"channel":2,"type":"noteOn","noteNumber":45,"velocity":95},{"deltaTime":480,"channel":2,"type":"noteOff","noteNumber":45,"velocity":95},{"deltaTime":0,"channel":2,"type":"noteOn","noteNumber":60,"velocity":95},{"deltaTime":960,"channel":2,"type":"noteOff","noteNumber":60,"velocity":95},{"deltaTime":0,"channel":2,"type":"noteOn","noteNumber":55,"velocity":95},{"deltaTime":480,"channel":2,"type":"noteOff","noteNumber":55,"velocity":95},{"deltaTime":0,"channel":2,"type":"noteOn","noteNumber":45,"velocity":95},{"deltaTime":480,"channel":2,"type":"noteOff","noteNumber":45,"velocity":95},{"deltaTime":0,"channel":2,"type":"noteOn","noteNumber":62,"velocity":95},{"deltaTime":960,"channel":2,"type":"noteOff","noteNumber":62,"velocity":95},{"deltaTime":0,"channel":2,"type":"noteOn","noteNumber":55,"velocity":95},{"deltaTime":0,"channel":2,"type":"noteOn","noteNumber":48,"velocity":95},{"deltaTime":480,"channel":2,"type":"noteOff","noteNumber":55,"velocity":95},{"deltaTime":0,"channel":2,"type":"noteOff","noteNumber":48,"velocity":95},{"deltaTime":0,"channel":2,"type":"noteOn","noteNumber":55,"velocity":95},{"deltaTime":0,"channel":2,"type":"noteOn","noteNumber":47,"velocity":95},{"deltaTime":480,"channel":2,"type":"noteOff","noteNumber":55,"velocity":95},{"deltaTime":0,"channel":2,"type":"noteOff","noteNumber":47,"velocity":95},{"deltaTime":0,"channel":2,"type":"noteOn","noteNumber":45,"velocity":95},{"deltaTime":960,"channel":2,"type":"noteOff","noteNumber":45,"velocity":95},{"deltaTime":0,"channel":2,"type":"noteOn","noteNumber":64,"velocity":95},{"deltaTime":480,"channel":2,"type":"noteOff","noteNumber":64,"velocity":95},{"deltaTime":0,"channel":2,"type":"noteOn","noteNumber":57,"velocity":95},{"deltaTime":480,"channel":2,"type":"noteOff","noteNumber":57,"velocity":95},{"deltaTime":0,"channel":2,"type":"noteOn","noteNumber":62,"velocity":95},{"deltaTime":960,"channel":2,"type":"noteOff","noteNumber":62,"velocity":95},{"deltaTime":0,"channel":2,"type":"noteOn","noteNumber":57,"velocity":95},{"deltaTime":480,"channel":2,"type":"noteOff","noteNumber":57,"velocity":95},{"deltaTime":0,"channel":2,"type":"noteOn","noteNumber":45,"velocity":95},{"deltaTime":480,"channel":2,"type":"noteOff","noteNumber":45,"velocity":95},{"deltaTime":0,"channel":2,"type":"noteOn","noteNumber":60,"velocity":95},{"deltaTime":960,"channel":2,"type":"noteOff","noteNumber":60,"velocity":95},{"deltaTime":0,"channel":2,"type":"noteOn","noteNumber":55,"velocity":95},{"deltaTime":480,"channel":2,"type":"noteOff","noteNumber":55,"velocity":95},{"deltaTime":0,"channel":2,"type":"noteOn","noteNumber":45,"velocity":95},{"deltaTime":480,"channel":2,"type":"noteOff","noteNumber":45,"velocity":95},{"deltaTime":0,"channel":2,"type":"noteOn","noteNumber":62,"velocity":95},{"deltaTime":960,"channel":2,"type":"noteOff","noteNumber":62,"velocity":95},{"deltaTime":0,"channel":2,"type":"noteOn","noteNumber":57,"velocity":95},{"deltaTime":480,"channel":2,"type":"noteOff","noteNumber":57,"velocity":95},{"deltaTime":0,"channel":2,"type":"noteOn","noteNumber":45,"velocity":95},{"deltaTime":480,"channel":2,"type":"noteOff","noteNumber":45,"velocity":95},{"deltaTime":0,"channel":2,"type":"noteOn","noteNumber":45,"velocity":95},{"deltaTime":960,"channel":2,"type":"noteOff","noteNumber":45,"velocity":95},{"deltaTime":0,"channel":2,"type":"noteOn","noteNumber":64,"velocity":95},{"deltaTime":480,"channel":2,"type":"noteOff","noteNumber":64,"velocity":95},{"deltaTime":0,"channel":2,"type":"noteOn","noteNumber":57,"velocity":95},{"deltaTime":480,"channel":2,"type":"noteOff","noteNumber":57,"velocity":95},{"deltaTime":0,"channel":2,"type":"noteOn","noteNumber":62,"velocity":95},{"deltaTime":960,"channel":2,"type":"noteOff","noteNumber":62,"velocity":95},{"deltaTime":0,"channel":2,"type":"noteOn","noteNumber":57,"velocity":95},{"deltaTime":480,"channel":2,"type":"noteOff","noteNumber":57,"velocity":95},{"deltaTime":0,"channel":2,"type":"noteOn","noteNumber":45,"velocity":95},{"deltaTime":480,"channel":2,"type":"noteOff","noteNumber":45,"velocity":95},{"deltaTime":0,"channel":2,"type":"noteOn","noteNumber":60,"velocity":95},{"deltaTime":960,"channel":2,"type":"noteOff","noteNumber":60,"velocity":95},{"deltaTime":0,"channel":2,"type":"noteOn","noteNumber":55,"velocity":95},{"deltaTime":480,"channel":2,"type":"noteOff","noteNumber":55,"velocity":95},{"deltaTime":0,"channel":2,"type":"noteOn","noteNumber":45,"velocity":95},{"deltaTime":480,"channel":2,"type":"noteOff","noteNumber":45,"velocity":95},{"deltaTime":0,"channel":2,"type":"noteOn","noteNumber":62,"velocity":95},{"deltaTime":960,"channel":2,"type":"noteOff","noteNumber":62,"velocity":95},{"deltaTime":0,"channel":2,"type":"noteOn","noteNumber":55,"velocity":95},{"deltaTime":0,"channel":2,"type":"noteOn","noteNumber":48,"velocity":95},{"deltaTime":480,"channel":2,"type":"noteOff","noteNumber":55,"velocity":95},{"deltaTime":0,"channel":2,"type":"noteOff","noteNumber":48,"velocity":95},{"deltaTime":0,"channel":2,"type":"noteOn","noteNumber":55,"velocity":95},{"deltaTime":0,"channel":2,"type":"noteOn","noteNumber":47,"velocity":95},{"deltaTime":480,"channel":2,"type":"noteOff","noteNumber":55,"velocity":95},{"deltaTime":0,"channel":2,"type":"noteOff","noteNumber":47,"velocity":95},{"deltaTime":0,"channel":2,"type":"noteOn","noteNumber":45,"velocity":95},{"deltaTime":960,"channel":2,"type":"noteOff","noteNumber":45,"velocity":95},{"deltaTime":0,"channel":2,"type":"noteOn","noteNumber":64,"velocity":95},{"deltaTime":480,"channel":2,"type":"noteOff","noteNumber":64,"velocity":95},{"deltaTime":0,"channel":2,"type":"noteOn","noteNumber":57,"velocity":95},{"deltaTime":480,"channel":2,"type":"noteOff","noteNumber":57,"velocity":95},{"deltaTime":0,"channel":2,"type":"noteOn","noteNumber":62,"velocity":95},{"deltaTime":960,"channel":2,"type":"noteOff","noteNumber":62,"velocity":95},{"deltaTime":0,"channel":2,"type":"noteOn","noteNumber":57,"velocity":95},{"deltaTime":480,"channel":2,"type":"noteOff","noteNumber":57,"velocity":95},{"deltaTime":0,"channel":2,"type":"noteOn","noteNumber":45,"velocity":95},{"deltaTime":480,"channel":2,"type":"noteOff","noteNumber":45,"velocity":95},{"deltaTime":0,"channel":2,"type":"noteOn","noteNumber":60,"velocity":95},{"deltaTime":960,"channel":2,"type":"noteOff","noteNumber":60,"velocity":95},{"deltaTime":0,"channel":2,"type":"noteOn","noteNumber":55,"velocity":95},{"deltaTime":480,"channel":2,"type":"noteOff","noteNumber":55,"velocity":95},{"deltaTime":0,"channel":2,"type":"noteOn","noteNumber":45,"velocity":95},{"deltaTime":480,"channel":2,"type":"noteOff","noteNumber":45,"velocity":95},{"deltaTime":0,"channel":2,"type":"noteOn","noteNumber":62,"velocity":95},{"deltaTime":960,"channel":2,"type":"noteOff","noteNumber":62,"velocity":95},{"deltaTime":0,"channel":2,"type":"noteOn","noteNumber":57,"velocity":95},{"deltaTime":480,"channel":2,"type":"noteOff","noteNumber":57,"velocity":95},{"deltaTime":0,"channel":2,"type":"noteOn","noteNumber":45,"velocity":95},{"deltaTime":480,"channel":2,"type":"noteOff","noteNumber":45,"velocity":95},{"deltaTime":0,"channel":2,"type":"noteOn","noteNumber":45,"velocity":95},{"deltaTime":960,"channel":2,"type":"noteOff","noteNumber":45,"velocity":95},{"deltaTime":0,"channel":2,"type":"noteOn","noteNumber":64,"velocity":95},{"deltaTime":480,"channel":2,"type":"noteOff","noteNumber":64,"velocity":95},{"deltaTime":0,"channel":2,"type":"noteOn","noteNumber":57,"velocity":95},{"deltaTime":480,"channel":2,"type":"noteOff","noteNumber":57,"velocity":95},{"deltaTime":0,"channel":2,"type":"noteOn","noteNumber":62,"velocity":95},{"deltaTime":960,"channel":2,"type":"noteOff","noteNumber":62,"velocity":95},{"deltaTime":0,"channel":2,"type":"noteOn","noteNumber":57,"velocity":95},{"deltaTime":480,"channel":2,"type":"noteOff","noteNumber":57,"velocity":95},{"deltaTime":0,"channel":2,"type":"noteOn","noteNumber":45,"velocity":95},{"deltaTime":480,"channel":2,"type":"noteOff","noteNumber":45,"velocity":95},{"deltaTime":0,"channel":2,"type":"noteOn","noteNumber":67,"velocity":95},{"deltaTime":0,"channel":2,"type":"noteOn","noteNumber":62,"velocity":95},{"deltaTime":0,"channel":2,"type":"noteOn","noteNumber":55,"velocity":95},{"deltaTime":0,"channel":2,"type":"noteOn","noteNumber":50,"velocity":95},{"deltaTime":0,"channel":2,"type":"noteOn","noteNumber":45,"velocity":95},{"deltaTime":0,"channel":2,"type":"noteOn","noteNumber":43,"velocity":95},{"deltaTime":52,"channel":2,"type":"noteOff","noteNumber":45,"velocity":95},{"deltaTime":908,"channel":2,"type":"noteOff","noteNumber":67,"velocity":95},{"deltaTime":0,"channel":2,"type":"noteOff","noteNumber":62,"velocity":95},{"deltaTime":0,"channel":2,"type":"noteOff","noteNumber":55,"velocity":95},{"deltaTime":0,"channel":2,"type":"noteOff","noteNumber":50,"velocity":95},{"deltaTime":0,"channel":2,"type":"noteOff","noteNumber":43,"velocity":95},{"deltaTime":0,"channel":2,"type":"noteOn","noteNumber":67,"velocity":95},{"deltaTime":0,"channel":2,"type":"noteOn","noteNumber":62,"velocity":95},{"deltaTime":0,"channel":2,"type":"noteOn","noteNumber":55,"velocity":95},{"deltaTime":0,"channel":2,"type":"noteOn","noteNumber":50,"velocity":95},{"deltaTime":0,"channel":2,"type":"noteOn","noteNumber":45,"velocity":95},{"deltaTime":0,"channel":2,"type":"noteOn","noteNumber":43,"velocity":95},{"deltaTime":52,"channel":2,"type":"noteOff","noteNumber":45,"velocity":95},{"deltaTime":428,"channel":2,"type":"noteOff","noteNumber":67,"velocity":95},{"deltaTime":0,"channel":2,"type":"noteOff","noteNumber":62,"velocity":95},{"deltaTime":0,"channel":2,"type":"noteOff","noteNumber":55,"velocity":95},{"deltaTime":0,"channel":2,"type":"noteOff","noteNumber":50,"velocity":95},{"deltaTime":0,"channel":2,"type":"noteOff","noteNumber":43,"velocity":95},{"deltaTime":0,"channel":2,"type":"noteOn","noteNumber":50,"velocity":95},{"deltaTime":0,"channel":2,"type":"noteOn","noteNumber":45,"velocity":95},{"deltaTime":480,"channel":2,"type":"noteOff","noteNumber":50,"velocity":95},{"deltaTime":0,"channel":2,"type":"noteOff","noteNumber":45,"velocity":95},{"deltaTime":0,"channel":2,"type":"noteOn","noteNumber":62,"velocity":95},{"deltaTime":0,"channel":2,"type":"noteOn","noteNumber":57,"velocity":95},{"deltaTime":0,"channel":2,"type":"noteOn","noteNumber":50,"velocity":95},{"deltaTime":960,"channel":2,"type":"noteOff","noteNumber":62,"velocity":95},{"deltaTime":0,"channel":2,"type":"noteOff","noteNumber":57,"velocity":95},{"deltaTime":0,"channel":2,"type":"noteOff","noteNumber":50,"velocity":95},{"deltaTime":0,"channel":2,"type":"noteOn","noteNumber":55,"velocity":95},{"deltaTime":0,"channel":2,"type":"noteOn","noteNumber":48,"velocity":95},{"deltaTime":480,"channel":2,"type":"noteOff","noteNumber":55,"velocity":95},{"deltaTime":0,"channel":2,"type":"noteOff","noteNumber":48,"velocity":95},{"deltaTime":0,"channel":2,"type":"noteOn","noteNumber":55,"velocity":95},{"deltaTime":0,"channel":2,"type":"noteOn","noteNumber":47,"velocity":95},{"deltaTime":480,"channel":2,"type":"noteOff","noteNumber":55,"velocity":95},{"deltaTime":0,"channel":2,"type":"noteOff","noteNumber":47,"velocity":95},{"deltaTime":0,"channel":2,"type":"noteOn","noteNumber":45,"velocity":95},{"deltaTime":960,"channel":2,"type":"noteOff","noteNumber":45,"velocity":95},{"deltaTime":0,"channel":2,"type":"noteOn","noteNumber":52,"velocity":95},{"deltaTime":0,"channel":2,"type":"noteOn","noteNumber":45,"velocity":95},{"deltaTime":480,"channel":2,"type":"noteOff","noteNumber":52,"velocity":95},{"deltaTime":0,"channel":2,"type":"noteOff","noteNumber":45,"velocity":95},{"deltaTime":0,"channel":2,"type":"noteOn","noteNumber":50,"velocity":95},{"deltaTime":0,"channel":2,"type":"noteOn","noteNumber":45,"velocity":95},{"deltaTime":480,"channel":2,"type":"noteOff","noteNumber":50,"velocity":95},{"deltaTime":0,"channel":2,"type":"noteOff","noteNumber":45,"velocity":95},{"deltaTime":0,"channel":2,"type":"noteOn","noteNumber":52,"velocity":95},{"deltaTime":0,"channel":2,"type":"noteOn","noteNumber":45,"velocity":95},{"deltaTime":960,"channel":2,"type":"noteOff","noteNumber":52,"velocity":95},{"deltaTime":0,"channel":2,"type":"noteOff","noteNumber":45,"velocity":95},{"deltaTime":0,"channel":2,"type":"noteOn","noteNumber":62,"velocity":95},{"deltaTime":0,"channel":2,"type":"noteOn","noteNumber":57,"velocity":95},{"deltaTime":0,"channel":2,"type":"noteOn","noteNumber":50,"velocity":95},{"deltaTime":480,"channel":2,"type":"noteOff","noteNumber":62,"velocity":95},{"deltaTime":0,"channel":2,"type":"noteOff","noteNumber":57,"velocity":95},{"deltaTime":0,"channel":2,"type":"noteOff","noteNumber":50,"velocity":95},{"deltaTime":0,"channel":2,"type":"noteOn","noteNumber":55,"velocity":95},{"deltaTime":0,"channel":2,"type":"noteOn","noteNumber":50,"velocity":95},{"deltaTime":480,"channel":2,"type":"noteOff","noteNumber":55,"velocity":95},{"deltaTime":0,"channel":2,"type":"noteOff","noteNumber":50,"velocity":95},{"deltaTime":0,"channel":2,"type":"noteOn","noteNumber":62,"velocity":95},{"deltaTime":0,"channel":2,"type":"noteOn","noteNumber":57,"velocity":95},{"deltaTime":0,"channel":2,"type":"noteOn","noteNumber":50,"velocity":95},{"deltaTime":480,"channel":2,"type":"noteOff","noteNumber":62,"velocity":95},{"deltaTime":0,"channel":2,"type":"noteOff","noteNumber":57,"velocity":95},{"deltaTime":0,"channel":2,"type":"noteOff","noteNumber":50,"velocity":95},{"deltaTime":1440,"channel":2,"type":"noteOn","noteNumber":45,"velocity":95},{"deltaTime":480,"channel":2,"type":"noteOff","noteNumber":45,"velocity":95},{"deltaTime":0,"channel":2,"type":"noteOn","noteNumber":55,"velocity":95},{"deltaTime":0,"channel":2,"type":"noteOn","noteNumber":48,"velocity":95},{"deltaTime":960,"channel":2,"type":"noteOff","noteNumber":55,"velocity":95},{"deltaTime":0,"channel":2,"type":"noteOff","noteNumber":48,"velocity":95},{"deltaTime":0,"channel":2,"type":"noteOn","noteNumber":55,"velocity":95},{"deltaTime":0,"channel":2,"type":"noteOn","noteNumber":47,"velocity":95},{"deltaTime":960,"channel":2,"type":"noteOff","noteNumber":55,"velocity":95},{"deltaTime":0,"channel":2,"type":"noteOff","noteNumber":47,"velocity":95},{"deltaTime":0,"channel":2,"type":"noteOn","noteNumber":45,"velocity":95},{"deltaTime":480,"channel":2,"type":"noteOff","noteNumber":45,"velocity":95},{"deltaTime":0,"channel":2,"type":"noteOn","noteNumber":52,"velocity":95},{"deltaTime":0,"channel":2,"type":"noteOn","noteNumber":45,"velocity":95},{"deltaTime":480,"channel":2,"type":"noteOff","noteNumber":52,"velocity":95},{"deltaTime":0,"channel":2,"type":"noteOff","noteNumber":45,"velocity":95},{"deltaTime":0,"channel":2,"type":"noteOn","noteNumber":50,"velocity":95},{"deltaTime":0,"channel":2,"type":"noteOn","noteNumber":45,"velocity":95},{"deltaTime":480,"channel":2,"type":"noteOff","noteNumber":50,"velocity":95},{"deltaTime":0,"channel":2,"type":"noteOff","noteNumber":45,"velocity":95},{"deltaTime":0,"channel":2,"type":"noteOn","noteNumber":52,"velocity":95},{"deltaTime":0,"channel":2,"type":"noteOn","noteNumber":45,"velocity":95},{"deltaTime":480,"channel":2,"type":"noteOff","noteNumber":52,"velocity":95},{"deltaTime":0,"channel":2,"type":"noteOff","noteNumber":45,"velocity":95},{"deltaTime":480,"channel":2,"type":"noteOn","noteNumber":62,"velocity":95},{"deltaTime":0,"channel":2,"type":"noteOn","noteNumber":57,"velocity":95},{"deltaTime":0,"channel":2,"type":"noteOn","noteNumber":50,"velocity":95},{"deltaTime":480,"channel":2,"type":"noteOff","noteNumber":62,"velocity":95},{"deltaTime":0,"channel":2,"type":"noteOff","noteNumber":57,"velocity":95},{"deltaTime":0,"channel":2,"type":"noteOff","noteNumber":50,"velocity":95},{"deltaTime":0,"channel":2,"type":"noteOn","noteNumber":55,"velocity":95},{"deltaTime":0,"channel":2,"type":"noteOn","noteNumber":50,"velocity":95},{"deltaTime":480,"channel":2,"type":"noteOff","noteNumber":55,"velocity":95},{"deltaTime":0,"channel":2,"type":"noteOff","noteNumber":50,"velocity":95},{"deltaTime":0,"channel":2,"type":"noteOn","noteNumber":62,"velocity":95},{"deltaTime":0,"channel":2,"type":"noteOn","noteNumber":57,"velocity":95},{"deltaTime":0,"channel":2,"type":"noteOn","noteNumber":50,"velocity":95},{"deltaTime":480,"channel":2,"type":"noteOff","noteNumber":62,"velocity":95},{"deltaTime":0,"channel":2,"type":"noteOff","noteNumber":57,"velocity":95},{"deltaTime":0,"channel":2,"type":"noteOff","noteNumber":50,"velocity":95},{"deltaTime":1440,"channel":2,"type":"noteOn","noteNumber":45,"velocity":95},{"deltaTime":480,"channel":2,"type":"noteOff","noteNumber":45,"velocity":95},{"deltaTime":0,"channel":2,"type":"noteOn","noteNumber":55,"velocity":95},{"deltaTime":0,"channel":2,"type":"noteOn","noteNumber":48,"velocity":95},{"deltaTime":960,"channel":2,"type":"noteOff","noteNumber":55,"velocity":95},{"deltaTime":0,"channel":2,"type":"noteOff","noteNumber":48,"velocity":95},{"deltaTime":0,"channel":2,"type":"noteOn","noteNumber":55,"velocity":95},{"deltaTime":0,"channel":2,"type":"noteOn","noteNumber":47,"velocity":95},{"deltaTime":960,"channel":2,"type":"noteOff","noteNumber":55,"velocity":95},{"deltaTime":0,"channel":2,"type":"noteOff","noteNumber":47,"velocity":95},{"deltaTime":0,"channel":2,"type":"noteOn","noteNumber":45,"velocity":95},{"deltaTime":480,"channel":2,"type":"noteOff","noteNumber":45,"velocity":95},{"deltaTime":0,"channel":2,"type":"noteOn","noteNumber":52,"velocity":95},{"deltaTime":0,"channel":2,"type":"noteOn","noteNumber":45,"velocity":95},{"deltaTime":480,"channel":2,"type":"noteOff","noteNumber":52,"velocity":95},{"deltaTime":0,"channel":2,"type":"noteOff","noteNumber":45,"velocity":95},{"deltaTime":0,"channel":2,"type":"noteOn","noteNumber":50,"velocity":95},{"deltaTime":0,"channel":2,"type":"noteOn","noteNumber":45,"velocity":95},{"deltaTime":480,"channel":2,"type":"noteOff","noteNumber":50,"velocity":95},{"deltaTime":0,"channel":2,"type":"noteOff","noteNumber":45,"velocity":95},{"deltaTime":0,"channel":2,"type":"noteOn","noteNumber":52,"velocity":95},{"deltaTime":0,"channel":2,"type":"noteOn","noteNumber":45,"velocity":95},{"deltaTime":480,"channel":2,"type":"noteOff","noteNumber":52,"velocity":95},{"deltaTime":0,"channel":2,"type":"noteOff","noteNumber":45,"velocity":95},{"deltaTime":480,"channel":2,"type":"noteOn","noteNumber":62,"velocity":95},{"deltaTime":0,"channel":2,"type":"noteOn","noteNumber":57,"velocity":95},{"deltaTime":0,"channel":2,"type":"noteOn","noteNumber":50,"velocity":95},{"deltaTime":480,"channel":2,"type":"noteOff","noteNumber":62,"velocity":95},{"deltaTime":0,"channel":2,"type":"noteOff","noteNumber":57,"velocity":95},{"deltaTime":0,"channel":2,"type":"noteOff","noteNumber":50,"velocity":95},{"deltaTime":0,"channel":2,"type":"noteOn","noteNumber":55,"velocity":95},{"deltaTime":0,"channel":2,"type":"noteOn","noteNumber":50,"velocity":95},{"deltaTime":480,"channel":2,"type":"noteOff","noteNumber":55,"velocity":95},{"deltaTime":0,"channel":2,"type":"noteOff","noteNumber":50,"velocity":95},{"deltaTime":0,"channel":2,"type":"noteOn","noteNumber":62,"velocity":95},{"deltaTime":0,"channel":2,"type":"noteOn","noteNumber":57,"velocity":95},{"deltaTime":0,"channel":2,"type":"noteOn","noteNumber":50,"velocity":95},{"deltaTime":480,"channel":2,"type":"noteOff","noteNumber":62,"velocity":95},{"deltaTime":0,"channel":2,"type":"noteOff","noteNumber":57,"velocity":95},{"deltaTime":0,"channel":2,"type":"noteOff","noteNumber":50,"velocity":95},{"deltaTime":960,"channel":2,"type":"noteOn","noteNumber":57,"velocity":95},{"deltaTime":0,"channel":2,"type":"noteOn","noteNumber":50,"velocity":95},{"deltaTime":480,"channel":2,"type":"noteOff","noteNumber":57,"velocity":95},{"deltaTime":0,"channel":2,"type":"noteOff","noteNumber":50,"velocity":95},{"deltaTime":0,"channel":2,"type":"noteOn","noteNumber":45,"velocity":95},{"deltaTime":480,"channel":2,"type":"noteOff","noteNumber":45,"velocity":95},{"deltaTime":0,"channel":2,"type":"noteOn","noteNumber":55,"velocity":95},{"deltaTime":0,"channel":2,"type":"noteOn","noteNumber":48,"velocity":95},{"deltaTime":960,"channel":2,"type":"noteOff","noteNumber":55,"velocity":95},{"deltaTime":0,"channel":2,"type":"noteOff","noteNumber":48,"velocity":95},{"deltaTime":0,"channel":2,"type":"noteOn","noteNumber":55,"velocity":95},{"deltaTime":0,"channel":2,"type":"noteOn","noteNumber":47,"velocity":95},{"deltaTime":960,"channel":2,"type":"noteOff","noteNumber":55,"velocity":95},{"deltaTime":0,"channel":2,"type":"noteOff","noteNumber":47,"velocity":95},{"deltaTime":0,"channel":2,"type":"noteOn","noteNumber":45,"velocity":95},{"deltaTime":480,"channel":2,"type":"noteOff","noteNumber":45,"velocity":95},{"deltaTime":0,"channel":2,"type":"noteOn","noteNumber":52,"velocity":95},{"deltaTime":0,"channel":2,"type":"noteOn","noteNumber":45,"velocity":95},{"deltaTime":480,"channel":2,"type":"noteOff","noteNumber":52,"velocity":95},{"deltaTime":0,"channel":2,"type":"noteOff","noteNumber":45,"velocity":95},{"deltaTime":0,"channel":2,"type":"noteOn","noteNumber":50,"velocity":95},{"deltaTime":0,"channel":2,"type":"noteOn","noteNumber":45,"velocity":95},{"deltaTime":480,"channel":2,"type":"noteOff","noteNumber":50,"velocity":95},{"deltaTime":0,"channel":2,"type":"noteOff","noteNumber":45,"velocity":95},{"deltaTime":0,"channel":2,"type":"noteOn","noteNumber":52,"velocity":95},{"deltaTime":0,"channel":2,"type":"noteOn","noteNumber":45,"velocity":95},{"deltaTime":480,"channel":2,"type":"noteOff","noteNumber":52,"velocity":95},{"deltaTime":0,"channel":2,"type":"noteOff","noteNumber":45,"velocity":95},{"deltaTime":480,"channel":2,"type":"noteOn","noteNumber":62,"velocity":95},{"deltaTime":0,"channel":2,"type":"noteOn","noteNumber":57,"velocity":95},{"deltaTime":0,"channel":2,"type":"noteOn","noteNumber":50,"velocity":95},{"deltaTime":480,"channel":2,"type":"noteOff","noteNumber":62,"velocity":95},{"deltaTime":0,"channel":2,"type":"noteOff","noteNumber":57,"velocity":95},{"deltaTime":0,"channel":2,"type":"noteOff","noteNumber":50,"velocity":95},{"deltaTime":0,"channel":2,"type":"noteOn","noteNumber":55,"velocity":95},{"deltaTime":0,"channel":2,"type":"noteOn","noteNumber":50,"velocity":95},{"deltaTime":480,"channel":2,"type":"noteOff","noteNumber":55,"velocity":95},{"deltaTime":0,"channel":2,"type":"noteOff","noteNumber":50,"velocity":95},{"deltaTime":0,"channel":2,"type":"noteOn","noteNumber":62,"velocity":95},{"deltaTime":0,"channel":2,"type":"noteOn","noteNumber":57,"velocity":95},{"deltaTime":0,"channel":2,"type":"noteOn","noteNumber":50,"velocity":95},{"deltaTime":480,"channel":2,"type":"noteOff","noteNumber":62,"velocity":95},{"deltaTime":0,"channel":2,"type":"noteOff","noteNumber":57,"velocity":95},{"deltaTime":0,"channel":2,"type":"noteOff","noteNumber":50,"velocity":95},{"deltaTime":960,"channel":2,"type":"noteOn","noteNumber":57,"velocity":95},{"deltaTime":0,"channel":2,"type":"noteOn","noteNumber":50,"velocity":95},{"deltaTime":480,"channel":2,"type":"noteOff","noteNumber":57,"velocity":95},{"deltaTime":0,"channel":2,"type":"noteOff","noteNumber":50,"velocity":95},{"deltaTime":0,"channel":2,"type":"noteOn","noteNumber":45,"velocity":95},{"deltaTime":480,"channel":2,"type":"noteOff","noteNumber":45,"velocity":95},{"deltaTime":0,"channel":2,"type":"noteOn","noteNumber":55,"velocity":95},{"deltaTime":0,"channel":2,"type":"noteOn","noteNumber":48,"velocity":95},{"deltaTime":960,"channel":2,"type":"noteOff","noteNumber":55,"velocity":95},{"deltaTime":0,"channel":2,"type":"noteOff","noteNumber":48,"velocity":95},{"deltaTime":0,"channel":2,"type":"noteOn","noteNumber":55,"velocity":95},{"deltaTime":0,"channel":2,"type":"noteOn","noteNumber":47,"velocity":95},{"deltaTime":960,"channel":2,"type":"noteOff","noteNumber":55,"velocity":95},{"deltaTime":0,"channel":2,"type":"noteOff","noteNumber":47,"velocity":95},{"deltaTime":0,"channel":2,"type":"noteOn","noteNumber":45,"velocity":95},{"deltaTime":480,"channel":2,"type":"noteOff","noteNumber":45,"velocity":95},{"deltaTime":0,"channel":2,"type":"noteOn","noteNumber":52,"velocity":95},{"deltaTime":0,"channel":2,"type":"noteOn","noteNumber":45,"velocity":95},{"deltaTime":480,"channel":2,"type":"noteOff","noteNumber":52,"velocity":95},{"deltaTime":0,"channel":2,"type":"noteOff","noteNumber":45,"velocity":95},{"deltaTime":0,"channel":2,"type":"noteOn","noteNumber":50,"velocity":95},{"deltaTime":0,"channel":2,"type":"noteOn","noteNumber":45,"velocity":95},{"deltaTime":480,"channel":2,"type":"noteOff","noteNumber":50,"velocity":95},{"deltaTime":0,"channel":2,"type":"noteOff","noteNumber":45,"velocity":95},{"deltaTime":0,"channel":2,"type":"noteOn","noteNumber":52,"velocity":95},{"deltaTime":0,"channel":2,"type":"noteOn","noteNumber":45,"velocity":95},{"deltaTime":480,"channel":2,"type":"noteOff","noteNumber":52,"velocity":95},{"deltaTime":0,"channel":2,"type":"noteOff","noteNumber":45,"velocity":95},{"deltaTime":480,"channel":2,"type":"noteOn","noteNumber":62,"velocity":95},{"deltaTime":0,"channel":2,"type":"noteOn","noteNumber":57,"velocity":95},{"deltaTime":0,"channel":2,"type":"noteOn","noteNumber":50,"velocity":95},{"deltaTime":480,"channel":2,"type":"noteOff","noteNumber":62,"velocity":95},{"deltaTime":0,"channel":2,"type":"noteOff","noteNumber":57,"velocity":95},{"deltaTime":0,"channel":2,"type":"noteOff","noteNumber":50,"velocity":95},{"deltaTime":0,"channel":2,"type":"noteOn","noteNumber":55,"velocity":95},{"deltaTime":0,"channel":2,"type":"noteOn","noteNumber":50,"velocity":95},{"deltaTime":480,"channel":2,"type":"noteOff","noteNumber":55,"velocity":95},{"deltaTime":0,"channel":2,"type":"noteOff","noteNumber":50,"velocity":95},{"deltaTime":0,"channel":2,"type":"noteOn","noteNumber":62,"velocity":95},{"deltaTime":0,"channel":2,"type":"noteOn","noteNumber":57,"velocity":95},{"deltaTime":0,"channel":2,"type":"noteOn","noteNumber":50,"velocity":95},{"deltaTime":480,"channel":2,"type":"noteOff","noteNumber":62,"velocity":95},{"deltaTime":0,"channel":2,"type":"noteOff","noteNumber":57,"velocity":95},{"deltaTime":0,"channel":2,"type":"noteOff","noteNumber":50,"velocity":95},{"deltaTime":0,"channel":2,"type":"noteOn","noteNumber":57,"velocity":95},{"deltaTime":0,"channel":2,"type":"noteOn","noteNumber":50,"velocity":95},{"deltaTime":480,"channel":2,"type":"noteOff","noteNumber":57,"velocity":95},{"deltaTime":0,"channel":2,"type":"noteOff","noteNumber":50,"velocity":95},{"deltaTime":0,"channel":2,"type":"noteOn","noteNumber":57,"velocity":95},{"deltaTime":0,"channel":2,"type":"noteOn","noteNumber":50,"velocity":95},{"deltaTime":480,"channel":2,"type":"noteOff","noteNumber":57,"velocity":95},{"deltaTime":0,"channel":2,"type":"noteOff","noteNumber":50,"velocity":95},{"deltaTime":0,"channel":2,"type":"noteOn","noteNumber":57,"velocity":95},{"deltaTime":0,"channel":2,"type":"noteOn","noteNumber":50,"velocity":95},{"deltaTime":480,"channel":2,"type":"noteOff","noteNumber":57,"velocity":95},{"deltaTime":0,"channel":2,"type":"noteOff","noteNumber":50,"velocity":95},{"deltaTime":0,"channel":2,"type":"noteOn","noteNumber":45,"velocity":95},{"deltaTime":480,"channel":2,"type":"noteOff","noteNumber":45,"velocity":95},{"deltaTime":0,"channel":2,"type":"noteOn","noteNumber":55,"velocity":95},{"deltaTime":0,"channel":2,"type":"noteOn","noteNumber":48,"velocity":95},{"deltaTime":480,"channel":2,"type":"noteOff","noteNumber":55,"velocity":95},{"deltaTime":0,"channel":2,"type":"noteOff","noteNumber":48,"velocity":95},{"deltaTime":0,"channel":2,"type":"noteOn","noteNumber":55,"velocity":95},{"deltaTime":0,"channel":2,"type":"noteOn","noteNumber":48,"velocity":95},{"deltaTime":480,"channel":2,"type":"noteOff","noteNumber":55,"velocity":95},{"deltaTime":0,"channel":2,"type":"noteOff","noteNumber":48,"velocity":95},{"deltaTime":0,"channel":2,"type":"noteOn","noteNumber":55,"velocity":95},{"deltaTime":0,"channel":2,"type":"noteOn","noteNumber":47,"velocity":95},{"deltaTime":960,"channel":2,"type":"noteOff","noteNumber":55,"velocity":95},{"deltaTime":0,"channel":2,"type":"noteOff","noteNumber":47,"velocity":95},{"deltaTime":0,"channel":2,"type":"noteOn","noteNumber":45,"velocity":95},{"deltaTime":480,"channel":2,"type":"noteOff","noteNumber":45,"velocity":95},{"deltaTime":0,"channel":2,"type":"noteOn","noteNumber":52,"velocity":95},{"deltaTime":0,"channel":2,"type":"noteOn","noteNumber":45,"velocity":95},{"deltaTime":480,"channel":2,"type":"noteOff","noteNumber":52,"velocity":95},{"deltaTime":0,"channel":2,"type":"noteOff","noteNumber":45,"velocity":95},{"deltaTime":0,"channel":2,"type":"noteOn","noteNumber":50,"velocity":95},{"deltaTime":0,"channel":2,"type":"noteOn","noteNumber":45,"velocity":95},{"deltaTime":480,"channel":2,"type":"noteOff","noteNumber":50,"velocity":95},{"deltaTime":0,"channel":2,"type":"noteOff","noteNumber":45,"velocity":95},{"deltaTime":0,"channel":2,"type":"noteOn","noteNumber":52,"velocity":95},{"deltaTime":0,"channel":2,"type":"noteOn","noteNumber":45,"velocity":95},{"deltaTime":480,"channel":2,"type":"noteOff","noteNumber":52,"velocity":95},{"deltaTime":0,"channel":2,"type":"noteOff","noteNumber":45,"velocity":95},{"deltaTime":480,"channel":2,"type":"noteOn","noteNumber":62,"velocity":95},{"deltaTime":0,"channel":2,"type":"noteOn","noteNumber":57,"velocity":95},{"deltaTime":0,"channel":2,"type":"noteOn","noteNumber":50,"velocity":95},{"deltaTime":480,"channel":2,"type":"noteOff","noteNumber":62,"velocity":95},{"deltaTime":0,"channel":2,"type":"noteOff","noteNumber":57,"velocity":95},{"deltaTime":0,"channel":2,"type":"noteOff","noteNumber":50,"velocity":95},{"deltaTime":0,"channel":2,"type":"noteOn","noteNumber":55,"velocity":95},{"deltaTime":0,"channel":2,"type":"noteOn","noteNumber":50,"velocity":95},{"deltaTime":480,"channel":2,"type":"noteOff","noteNumber":55,"velocity":95},{"deltaTime":0,"channel":2,"type":"noteOff","noteNumber":50,"velocity":95},{"deltaTime":0,"channel":2,"type":"noteOn","noteNumber":62,"velocity":95},{"deltaTime":0,"channel":2,"type":"noteOn","noteNumber":57,"velocity":95},{"deltaTime":0,"channel":2,"type":"noteOn","noteNumber":50,"velocity":95},{"deltaTime":480,"channel":2,"type":"noteOff","noteNumber":57,"velocity":95},{"deltaTime":0,"channel":2,"type":"noteOff","noteNumber":50,"velocity":95},{"deltaTime":0,"channel":2,"type":"noteOn","noteNumber":57,"velocity":95},{"deltaTime":0,"channel":2,"type":"noteOn","noteNumber":50,"velocity":95},{"deltaTime":480,"channel":2,"type":"noteOff","noteNumber":57,"velocity":95},{"deltaTime":0,"channel":2,"type":"noteOff","noteNumber":50,"velocity":95},{"deltaTime":0,"channel":2,"type":"noteOn","noteNumber":57,"velocity":95},{"deltaTime":0,"channel":2,"type":"noteOn","noteNumber":50,"velocity":95},{"deltaTime":480,"channel":2,"type":"noteOff","noteNumber":57,"velocity":95},{"deltaTime":0,"channel":2,"type":"noteOff","noteNumber":50,"velocity":95},{"deltaTime":0,"channel":2,"type":"noteOn","noteNumber":57,"velocity":95},{"deltaTime":0,"channel":2,"type":"noteOn","noteNumber":50,"velocity":95},{"deltaTime":480,"channel":2,"type":"noteOff","noteNumber":57,"velocity":95},{"deltaTime":0,"channel":2,"type":"noteOff","noteNumber":50,"velocity":95},{"deltaTime":0,"channel":2,"type":"noteOn","noteNumber":45,"velocity":95},{"deltaTime":480,"channel":2,"type":"noteOff","noteNumber":45,"velocity":95},{"deltaTime":0,"channel":2,"type":"noteOn","noteNumber":55,"velocity":95},{"deltaTime":0,"channel":2,"type":"noteOn","noteNumber":48,"velocity":95},{"deltaTime":960,"channel":2,"type":"noteOff","noteNumber":55,"velocity":95},{"deltaTime":0,"channel":2,"type":"noteOff","noteNumber":48,"velocity":95},{"deltaTime":0,"channel":2,"type":"noteOn","noteNumber":55,"velocity":95},{"deltaTime":0,"channel":2,"type":"noteOn","noteNumber":47,"velocity":95},{"deltaTime":960,"channel":2,"type":"noteOff","noteNumber":55,"velocity":95},{"deltaTime":0,"channel":2,"type":"noteOff","noteNumber":47,"velocity":95},{"deltaTime":0,"channel":2,"type":"noteOn","noteNumber":50,"velocity":95},{"deltaTime":480,"channel":2,"type":"noteOff","noteNumber":50,"velocity":95},{"deltaTime":0,"channel":2,"type":"noteOn","noteNumber":57,"velocity":95},{"deltaTime":0,"channel":2,"type":"noteOn","noteNumber":50,"velocity":95},{"deltaTime":480,"channel":2,"type":"noteOff","noteNumber":57,"velocity":95},{"deltaTime":0,"channel":2,"type":"noteOff","noteNumber":50,"velocity":95},{"deltaTime":0,"channel":2,"type":"noteOn","noteNumber":55,"velocity":95},{"deltaTime":0,"channel":2,"type":"noteOn","noteNumber":50,"velocity":95},{"deltaTime":480,"channel":2,"type":"noteOff","noteNumber":55,"velocity":95},{"deltaTime":0,"channel":2,"type":"noteOff","noteNumber":50,"velocity":95},{"deltaTime":0,"channel":2,"type":"noteOn","noteNumber":57,"velocity":95},{"deltaTime":0,"channel":2,"type":"noteOn","noteNumber":50,"velocity":95},{"deltaTime":960,"channel":2,"type":"noteOff","noteNumber":62,"velocity":95},{"deltaTime":0,"channel":2,"type":"noteOff","noteNumber":57,"velocity":95},{"deltaTime":0,"channel":2,"type":"noteOff","noteNumber":50,"velocity":95},{"deltaTime":0,"channel":2,"type":"noteOn","noteNumber":57,"velocity":95},{"deltaTime":0,"channel":2,"type":"noteOn","noteNumber":50,"velocity":95},{"deltaTime":480,"channel":2,"type":"noteOff","noteNumber":57,"velocity":95},{"deltaTime":0,"channel":2,"type":"noteOff","noteNumber":50,"velocity":95},{"deltaTime":0,"channel":2,"type":"noteOn","noteNumber":55,"velocity":95},{"deltaTime":0,"channel":2,"type":"noteOn","noteNumber":50,"velocity":95},{"deltaTime":480,"channel":2,"type":"noteOff","noteNumber":55,"velocity":95},{"deltaTime":0,"channel":2,"type":"noteOff","noteNumber":50,"velocity":95},{"deltaTime":0,"channel":2,"type":"noteOn","noteNumber":57,"velocity":95},{"deltaTime":0,"channel":2,"type":"noteOn","noteNumber":50,"velocity":95},{"deltaTime":960,"channel":2,"type":"noteOff","noteNumber":57,"velocity":95},{"deltaTime":0,"channel":2,"type":"noteOff","noteNumber":50,"velocity":95},{"deltaTime":0,"channel":2,"type":"noteOn","noteNumber":57,"velocity":95},{"deltaTime":0,"channel":2,"type":"noteOn","noteNumber":50,"velocity":95},{"deltaTime":960,"channel":2,"type":"noteOff","noteNumber":57,"velocity":95},{"deltaTime":0,"channel":2,"type":"noteOff","noteNumber":50,"velocity":95},{"deltaTime":0,"channel":2,"type":"noteOn","noteNumber":57,"velocity":95},{"deltaTime":0,"channel":2,"type":"noteOn","noteNumber":50,"velocity":95},{"deltaTime":52,"channel":2,"type":"noteOff","noteNumber":57,"velocity":95},{"deltaTime":0,"channel":2,"type":"noteOff","noteNumber":50,"velocity":95},{"deltaTime":428,"channel":2,"type":"noteOn","noteNumber":60,"velocity":95},{"deltaTime":0,"channel":2,"type":"noteOn","noteNumber":55,"velocity":95},{"deltaTime":0,"channel":2,"type":"noteOn","noteNumber":48,"velocity":95},{"deltaTime":960,"channel":2,"type":"noteOff","noteNumber":60,"velocity":95},{"deltaTime":0,"channel":2,"type":"noteOff","noteNumber":55,"velocity":95},{"deltaTime":0,"channel":2,"type":"noteOff","noteNumber":48,"velocity":95},{"deltaTime":0,"channel":2,"type":"noteOn","noteNumber":62,"velocity":95},{"deltaTime":0,"channel":2,"type":"noteOn","noteNumber":55,"velocity":95},{"deltaTime":0,"channel":2,"type":"noteOn","noteNumber":50,"velocity":95},{"deltaTime":0,"channel":2,"type":"noteOn","noteNumber":45,"velocity":95},{"deltaTime":0,"channel":2,"type":"noteOn","noteNumber":43,"velocity":95},{"deltaTime":52,"channel":2,"type":"noteOff","noteNumber":45,"velocity":95},{"deltaTime":908,"channel":2,"type":"noteOff","noteNumber":62,"velocity":95},{"deltaTime":0,"channel":2,"type":"noteOff","noteNumber":55,"velocity":95},{"deltaTime":0,"channel":2,"type":"noteOff","noteNumber":50,"velocity":95},{"deltaTime":0,"channel":2,"type":"noteOff","noteNumber":43,"velocity":95},{"deltaTime":0,"channel":2,"type":"noteOn","noteNumber":57,"velocity":95},{"deltaTime":0,"channel":2,"type":"noteOn","noteNumber":50,"velocity":95},{"deltaTime":480,"channel":2,"type":"noteOff","noteNumber":57,"velocity":95},{"deltaTime":0,"channel":2,"type":"noteOff","noteNumber":50,"velocity":95},{"deltaTime":0,"channel":2,"type":"noteOn","noteNumber":57,"velocity":95},{"deltaTime":0,"channel":2,"type":"noteOn","noteNumber":50,"velocity":95},{"deltaTime":480,"channel":2,"type":"noteOff","noteNumber":57,"velocity":95},{"deltaTime":0,"channel":2,"type":"noteOff","noteNumber":50,"velocity":95},{"deltaTime":0,"channel":2,"type":"noteOn","noteNumber":55,"velocity":95},{"deltaTime":0,"channel":2,"type":"noteOn","noteNumber":50,"velocity":95},{"deltaTime":480,"channel":2,"type":"noteOff","noteNumber":55,"velocity":95},{"deltaTime":0,"channel":2,"type":"noteOff","noteNumber":50,"velocity":95},{"deltaTime":0,"channel":2,"type":"noteOn","noteNumber":57,"velocity":95},{"deltaTime":0,"channel":2,"type":"noteOn","noteNumber":50,"velocity":95},{"deltaTime":960,"channel":2,"type":"noteOff","noteNumber":57,"velocity":95},{"deltaTime":0,"channel":2,"type":"noteOff","noteNumber":50,"velocity":95},{"deltaTime":0,"channel":2,"type":"noteOn","noteNumber":57,"velocity":95},{"deltaTime":0,"channel":2,"type":"noteOn","noteNumber":50,"velocity":95},{"deltaTime":960,"channel":2,"type":"noteOff","noteNumber":57,"velocity":95},{"deltaTime":0,"channel":2,"type":"noteOff","noteNumber":50,"velocity":95},{"deltaTime":0,"channel":2,"type":"noteOn","noteNumber":57,"velocity":95},{"deltaTime":0,"channel":2,"type":"noteOn","noteNumber":50,"velocity":95},{"deltaTime":960,"channel":2,"type":"noteOff","noteNumber":57,"velocity":95},{"deltaTime":0,"channel":2,"type":"noteOff","noteNumber":50,"velocity":95},{"deltaTime":0,"channel":2,"type":"noteOn","noteNumber":57,"velocity":95},{"deltaTime":0,"channel":2,"type":"noteOn","noteNumber":50,"velocity":95},{"deltaTime":960,"channel":2,"type":"noteOff","noteNumber":57,"velocity":95},{"deltaTime":0,"channel":2,"type":"noteOff","noteNumber":50,"velocity":95},{"deltaTime":0,"channel":2,"type":"noteOn","noteNumber":57,"velocity":95},{"deltaTime":0,"channel":2,"type":"noteOn","noteNumber":50,"velocity":95},{"deltaTime":52,"channel":2,"type":"noteOff","noteNumber":57,"velocity":95},{"deltaTime":0,"channel":2,"type":"noteOff","noteNumber":50,"velocity":95},{"deltaTime":428,"channel":2,"type":"noteOn","noteNumber":60,"velocity":95},{"deltaTime":0,"channel":2,"type":"noteOn","noteNumber":55,"velocity":95},{"deltaTime":0,"channel":2,"type":"noteOn","noteNumber":48,"velocity":95},{"deltaTime":960,"channel":2,"type":"noteOff","noteNumber":60,"velocity":95},{"deltaTime":0,"channel":2,"type":"noteOff","noteNumber":55,"velocity":95},{"deltaTime":0,"channel":2,"type":"noteOff","noteNumber":48,"velocity":95},{"deltaTime":0,"channel":2,"type":"noteOn","noteNumber":62,"velocity":95},{"deltaTime":0,"channel":2,"type":"noteOn","noteNumber":55,"velocity":95},{"deltaTime":0,"channel":2,"type":"noteOn","noteNumber":50,"velocity":95},{"deltaTime":0,"channel":2,"type":"noteOn","noteNumber":45,"velocity":95},{"deltaTime":0,"channel":2,"type":"noteOn","noteNumber":43,"velocity":95},{"deltaTime":52,"channel":2,"type":"noteOff","noteNumber":45,"velocity":95},{"deltaTime":908,"channel":2,"type":"noteOff","noteNumber":55,"velocity":95},{"deltaTime":0,"channel":2,"type":"noteOff","noteNumber":50,"velocity":95},{"deltaTime":0,"channel":2,"type":"noteOff","noteNumber":43,"velocity":95},{"deltaTime":0,"channel":2,"type":"noteOn","noteNumber":40,"velocity":95},{"deltaTime":480,"channel":2,"type":"noteOff","noteNumber":40,"velocity":95},{"deltaTime":0,"channel":2,"type":"noteOn","noteNumber":64,"velocity":95},{"deltaTime":0,"channel":2,"type":"noteOn","noteNumber":59,"velocity":95},{"deltaTime":0,"channel":2,"type":"noteOn","noteNumber":52,"velocity":95},{"deltaTime":480,"channel":2,"type":"noteOff","noteNumber":64,"velocity":95},{"deltaTime":0,"channel":2,"type":"noteOff","noteNumber":59,"velocity":95},{"deltaTime":0,"channel":2,"type":"noteOff","noteNumber":52,"velocity":95},{"deltaTime":0,"channel":2,"type":"noteOn","noteNumber":57,"velocity":95},{"deltaTime":0,"channel":2,"type":"noteOn","noteNumber":52,"velocity":95},{"deltaTime":480,"channel":2,"type":"noteOff","noteNumber":57,"velocity":95},{"deltaTime":0,"channel":2,"type":"noteOff","noteNumber":52,"velocity":95},{"deltaTime":0,"channel":2,"type":"noteOn","noteNumber":64,"velocity":95},{"deltaTime":0,"channel":2,"type":"noteOn","noteNumber":59,"velocity":95},{"deltaTime":0,"channel":2,"type":"noteOn","noteNumber":52,"velocity":95},{"deltaTime":960,"channel":2,"type":"noteOff","noteNumber":64,"velocity":95},{"deltaTime":0,"channel":2,"type":"noteOff","noteNumber":59,"velocity":95},{"deltaTime":0,"channel":2,"type":"noteOff","noteNumber":52,"velocity":95},{"deltaTime":0,"channel":2,"type":"noteOn","noteNumber":64,"velocity":95},{"deltaTime":0,"channel":2,"type":"noteOn","noteNumber":59,"velocity":95},{"deltaTime":0,"channel":2,"type":"noteOn","noteNumber":52,"velocity":95},{"deltaTime":480,"channel":2,"type":"noteOff","noteNumber":64,"velocity":95},{"deltaTime":0,"channel":2,"type":"noteOff","noteNumber":59,"velocity":95},{"deltaTime":0,"channel":2,"type":"noteOff","noteNumber":52,"velocity":95},{"deltaTime":0,"channel":2,"type":"noteOn","noteNumber":57,"velocity":95},{"deltaTime":0,"channel":2,"type":"noteOn","noteNumber":52,"velocity":95},{"deltaTime":480,"channel":2,"type":"noteOff","noteNumber":57,"velocity":95},{"deltaTime":0,"channel":2,"type":"noteOff","noteNumber":52,"velocity":95},{"deltaTime":0,"channel":2,"type":"noteOn","noteNumber":64,"velocity":95},{"deltaTime":0,"channel":2,"type":"noteOn","noteNumber":59,"velocity":95},{"deltaTime":0,"channel":2,"type":"noteOn","noteNumber":52,"velocity":95},{"deltaTime":960,"channel":2,"type":"noteOff","noteNumber":62,"velocity":95},{"deltaTime":0,"channel":2,"type":"noteOff","noteNumber":64,"velocity":95},{"deltaTime":0,"channel":2,"type":"noteOff","noteNumber":59,"velocity":95},{"deltaTime":0,"channel":2,"type":"noteOff","noteNumber":52,"velocity":95},{"deltaTime":0,"channel":2,"type":"noteOn","noteNumber":64,"velocity":95},{"deltaTime":0,"channel":2,"type":"noteOn","noteNumber":59,"velocity":95},{"deltaTime":0,"channel":2,"type":"noteOn","noteNumber":52,"velocity":95},{"deltaTime":480,"channel":2,"type":"noteOff","noteNumber":64,"velocity":95},{"deltaTime":0,"channel":2,"type":"noteOff","noteNumber":59,"velocity":95},{"deltaTime":0,"channel":2,"type":"noteOff","noteNumber":52,"velocity":95},{"deltaTime":0,"channel":2,"type":"noteOn","noteNumber":57,"velocity":95},{"deltaTime":0,"channel":2,"type":"noteOn","noteNumber":52,"velocity":95},{"deltaTime":480,"channel":2,"type":"noteOff","noteNumber":57,"velocity":95},{"deltaTime":0,"channel":2,"type":"noteOff","noteNumber":52,"velocity":95},{"deltaTime":0,"channel":2,"type":"noteOn","noteNumber":50,"velocity":79},{"deltaTime":0,"channel":2,"type":"noteOn","noteNumber":45,"velocity":79},{"deltaTime":480,"channel":2,"type":"noteOff","noteNumber":50,"velocity":79},{"deltaTime":0,"channel":2,"type":"noteOff","noteNumber":45,"velocity":79},{"deltaTime":0,"channel":2,"type":"noteOn","noteNumber":62,"velocity":95},{"deltaTime":0,"channel":2,"type":"noteOn","noteNumber":57,"velocity":95},{"deltaTime":0,"channel":2,"type":"noteOn","noteNumber":50,"velocity":95},{"deltaTime":960,"channel":2,"type":"noteOff","noteNumber":62,"velocity":95},{"deltaTime":0,"channel":2,"type":"noteOff","noteNumber":57,"velocity":95},{"deltaTime":0,"channel":2,"type":"noteOff","noteNumber":50,"velocity":95},{"deltaTime":0,"channel":2,"type":"noteOn","noteNumber":57,"velocity":95},{"deltaTime":0,"channel":2,"type":"noteOn","noteNumber":52,"velocity":95},{"deltaTime":0,"channel":2,"type":"noteOn","noteNumber":45,"velocity":95},{"deltaTime":960,"channel":2,"type":"noteOff","noteNumber":57,"velocity":95},{"deltaTime":0,"channel":2,"type":"noteOff","noteNumber":52,"velocity":95},{"deltaTime":0,"channel":2,"type":"noteOff","noteNumber":45,"velocity":95},{"deltaTime":0,"channel":2,"type":"noteOn","noteNumber":40,"velocity":95},{"deltaTime":480,"channel":2,"type":"noteOff","noteNumber":40,"velocity":95},{"deltaTime":0,"channel":2,"type":"noteOn","noteNumber":64,"velocity":95},{"deltaTime":0,"channel":2,"type":"noteOn","noteNumber":59,"velocity":95},{"deltaTime":0,"channel":2,"type":"noteOn","noteNumber":52,"velocity":95},{"deltaTime":480,"channel":2,"type":"noteOff","noteNumber":64,"velocity":95},{"deltaTime":0,"channel":2,"type":"noteOff","noteNumber":59,"velocity":95},{"deltaTime":0,"channel":2,"type":"noteOff","noteNumber":52,"velocity":95},{"deltaTime":0,"channel":2,"type":"noteOn","noteNumber":57,"velocity":95},{"deltaTime":0,"channel":2,"type":"noteOn","noteNumber":52,"velocity":95},{"deltaTime":480,"channel":2,"type":"noteOff","noteNumber":57,"velocity":95},{"deltaTime":0,"channel":2,"type":"noteOff","noteNumber":52,"velocity":95},{"deltaTime":0,"channel":2,"type":"noteOn","noteNumber":64,"velocity":95},{"deltaTime":0,"channel":2,"type":"noteOn","noteNumber":59,"velocity":95},{"deltaTime":0,"channel":2,"type":"noteOn","noteNumber":52,"velocity":95},{"deltaTime":960,"channel":2,"type":"noteOff","noteNumber":64,"velocity":95},{"deltaTime":0,"channel":2,"type":"noteOff","noteNumber":59,"velocity":95},{"deltaTime":0,"channel":2,"type":"noteOff","noteNumber":52,"velocity":95},{"deltaTime":0,"channel":2,"type":"noteOn","noteNumber":64,"velocity":95},{"deltaTime":0,"channel":2,"type":"noteOn","noteNumber":59,"velocity":95},{"deltaTime":0,"channel":2,"type":"noteOn","noteNumber":52,"velocity":95},{"deltaTime":480,"channel":2,"type":"noteOff","noteNumber":64,"velocity":95},{"deltaTime":0,"channel":2,"type":"noteOff","noteNumber":59,"velocity":95},{"deltaTime":0,"channel":2,"type":"noteOff","noteNumber":52,"velocity":95},{"deltaTime":0,"channel":2,"type":"noteOn","noteNumber":57,"velocity":95},{"deltaTime":0,"channel":2,"type":"noteOn","noteNumber":52,"velocity":95},{"deltaTime":480,"channel":2,"type":"noteOff","noteNumber":57,"velocity":95},{"deltaTime":0,"channel":2,"type":"noteOff","noteNumber":52,"velocity":95},{"deltaTime":0,"channel":2,"type":"noteOn","noteNumber":64,"velocity":95},{"deltaTime":0,"channel":2,"type":"noteOn","noteNumber":59,"velocity":95},{"deltaTime":0,"channel":2,"type":"noteOn","noteNumber":52,"velocity":95},{"deltaTime":960,"channel":2,"type":"noteOff","noteNumber":64,"velocity":95},{"deltaTime":0,"channel":2,"type":"noteOff","noteNumber":59,"velocity":95},{"deltaTime":0,"channel":2,"type":"noteOff","noteNumber":52,"velocity":95},{"deltaTime":0,"channel":2,"type":"noteOn","noteNumber":64,"velocity":95},{"deltaTime":0,"channel":2,"type":"noteOn","noteNumber":59,"velocity":95},{"deltaTime":0,"channel":2,"type":"noteOn","noteNumber":52,"velocity":95},{"deltaTime":480,"channel":2,"type":"noteOff","noteNumber":64,"velocity":95},{"deltaTime":0,"channel":2,"type":"noteOff","noteNumber":59,"velocity":95},{"deltaTime":0,"channel":2,"type":"noteOff","noteNumber":52,"velocity":95},{"deltaTime":0,"channel":2,"type":"noteOn","noteNumber":57,"velocity":95},{"deltaTime":0,"channel":2,"type":"noteOn","noteNumber":52,"velocity":95},{"deltaTime":480,"channel":2,"type":"noteOff","noteNumber":57,"velocity":95},{"deltaTime":0,"channel":2,"type":"noteOff","noteNumber":52,"velocity":95},{"deltaTime":0,"channel":2,"type":"noteOn","noteNumber":50,"velocity":79},{"deltaTime":0,"channel":2,"type":"noteOn","noteNumber":45,"velocity":79},{"deltaTime":480,"channel":2,"type":"noteOff","noteNumber":50,"velocity":79},{"deltaTime":0,"channel":2,"type":"noteOff","noteNumber":45,"velocity":79},{"deltaTime":0,"channel":2,"type":"noteOn","noteNumber":62,"velocity":95},{"deltaTime":0,"channel":2,"type":"noteOn","noteNumber":55,"velocity":95},{"deltaTime":0,"channel":2,"type":"noteOn","noteNumber":50,"velocity":95},{"deltaTime":0,"channel":2,"type":"noteOn","noteNumber":45,"velocity":95},{"deltaTime":0,"channel":2,"type":"noteOn","noteNumber":43,"velocity":95},{"deltaTime":52,"channel":2,"type":"noteOff","noteNumber":45,"velocity":95},{"deltaTime":908,"channel":2,"type":"noteOff","noteNumber":62,"velocity":95},{"deltaTime":0,"channel":2,"type":"noteOff","noteNumber":55,"velocity":95},{"deltaTime":0,"channel":2,"type":"noteOff","noteNumber":50,"velocity":95},{"deltaTime":0,"channel":2,"type":"noteOff","noteNumber":43,"velocity":95},{"deltaTime":0,"channel":2,"type":"noteOn","noteNumber":62,"velocity":95},{"deltaTime":0,"channel":2,"type":"noteOn","noteNumber":55,"velocity":95},{"deltaTime":0,"channel":2,"type":"noteOn","noteNumber":50,"velocity":95},{"deltaTime":0,"channel":2,"type":"noteOn","noteNumber":45,"velocity":95},{"deltaTime":0,"channel":2,"type":"noteOn","noteNumber":43,"velocity":95},{"deltaTime":52,"channel":2,"type":"noteOff","noteNumber":45,"velocity":95},{"deltaTime":908,"channel":2,"type":"noteOff","noteNumber":62,"velocity":95},{"deltaTime":0,"channel":2,"type":"noteOff","noteNumber":55,"velocity":95},{"deltaTime":0,"channel":2,"type":"noteOff","noteNumber":50,"velocity":95},{"deltaTime":0,"channel":2,"type":"noteOff","noteNumber":43,"velocity":95},{"deltaTime":0,"channel":2,"type":"noteOn","noteNumber":45,"velocity":95},{"deltaTime":480,"channel":2,"type":"noteOff","noteNumber":45,"velocity":95},{"deltaTime":0,"channel":2,"type":"noteOn","noteNumber":64,"velocity":95},{"deltaTime":480,"channel":2,"type":"noteOff","noteNumber":64,"velocity":95},{"deltaTime":0,"channel":2,"type":"noteOn","noteNumber":57,"velocity":95},{"deltaTime":480,"channel":2,"type":"noteOff","noteNumber":57,"velocity":95},{"deltaTime":0,"channel":2,"type":"noteOn","noteNumber":62,"velocity":95},{"deltaTime":960,"channel":2,"type":"noteOff","noteNumber":62,"velocity":95},{"deltaTime":0,"channel":2,"type":"noteOn","noteNumber":57,"velocity":95},{"deltaTime":480,"channel":2,"type":"noteOff","noteNumber":57,"velocity":95},{"deltaTime":0,"channel":2,"type":"noteOn","noteNumber":45,"velocity":95},{"deltaTime":480,"channel":2,"type":"noteOff","noteNumber":45,"velocity":95},{"deltaTime":0,"channel":2,"type":"noteOn","noteNumber":60,"velocity":95},{"deltaTime":960,"channel":2,"type":"noteOff","noteNumber":60,"velocity":95},{"deltaTime":0,"channel":2,"type":"noteOn","noteNumber":55,"velocity":95},{"deltaTime":480,"channel":2,"type":"noteOff","noteNumber":55,"velocity":95},{"deltaTime":0,"channel":2,"type":"noteOn","noteNumber":45,"velocity":95},{"deltaTime":480,"channel":2,"type":"noteOff","noteNumber":45,"velocity":95},{"deltaTime":0,"channel":2,"type":"noteOn","noteNumber":62,"velocity":95},{"deltaTime":960,"channel":2,"type":"noteOff","noteNumber":62,"velocity":95},{"deltaTime":0,"channel":2,"type":"noteOn","noteNumber":57,"velocity":95},{"deltaTime":480,"channel":2,"type":"noteOff","noteNumber":57,"velocity":95},{"deltaTime":0,"channel":2,"type":"noteOn","noteNumber":45,"velocity":95},{"deltaTime":480,"channel":2,"type":"noteOff","noteNumber":45,"velocity":95},{"deltaTime":0,"channel":2,"type":"noteOn","noteNumber":45,"velocity":95},{"deltaTime":960,"channel":2,"type":"noteOff","noteNumber":45,"velocity":95},{"deltaTime":0,"channel":2,"type":"noteOn","noteNumber":64,"velocity":95},{"deltaTime":480,"channel":2,"type":"noteOff","noteNumber":64,"velocity":95},{"deltaTime":0,"channel":2,"type":"noteOn","noteNumber":57,"velocity":95},{"deltaTime":480,"channel":2,"type":"noteOff","noteNumber":57,"velocity":95},{"deltaTime":0,"channel":2,"type":"noteOn","noteNumber":62,"velocity":95},{"deltaTime":960,"channel":2,"type":"noteOff","noteNumber":62,"velocity":95},{"deltaTime":0,"channel":2,"type":"noteOn","noteNumber":57,"velocity":95},{"deltaTime":480,"channel":2,"type":"noteOff","noteNumber":57,"velocity":95},{"deltaTime":0,"channel":2,"type":"noteOn","noteNumber":45,"velocity":95},{"deltaTime":480,"channel":2,"type":"noteOff","noteNumber":45,"velocity":95},{"deltaTime":0,"channel":2,"type":"noteOn","noteNumber":60,"velocity":95},{"deltaTime":960,"channel":2,"type":"noteOff","noteNumber":60,"velocity":95},{"deltaTime":0,"channel":2,"type":"noteOn","noteNumber":55,"velocity":95},{"deltaTime":480,"channel":2,"type":"noteOff","noteNumber":55,"velocity":95},{"deltaTime":0,"channel":2,"type":"noteOn","noteNumber":45,"velocity":95},{"deltaTime":480,"channel":2,"type":"noteOff","noteNumber":45,"velocity":95},{"deltaTime":0,"channel":2,"type":"noteOn","noteNumber":62,"velocity":95},{"deltaTime":960,"channel":2,"type":"noteOff","noteNumber":62,"velocity":95},{"deltaTime":0,"channel":2,"type":"noteOn","noteNumber":55,"velocity":95},{"deltaTime":0,"channel":2,"type":"noteOn","noteNumber":48,"velocity":95},{"deltaTime":480,"channel":2,"type":"noteOff","noteNumber":55,"velocity":95},{"deltaTime":0,"channel":2,"type":"noteOff","noteNumber":48,"velocity":95},{"deltaTime":0,"channel":2,"type":"noteOn","noteNumber":55,"velocity":95},{"deltaTime":0,"channel":2,"type":"noteOn","noteNumber":47,"velocity":95},{"deltaTime":480,"channel":2,"type":"noteOff","noteNumber":55,"velocity":95},{"deltaTime":0,"channel":2,"type":"noteOff","noteNumber":47,"velocity":95},{"deltaTime":0,"channel":2,"type":"noteOn","noteNumber":45,"velocity":95},{"deltaTime":480,"channel":2,"type":"noteOff","noteNumber":45,"velocity":95},{"deltaTime":0,"channel":2,"type":"noteOn","noteNumber":45,"velocity":95},{"deltaTime":480,"channel":2,"type":"noteOff","noteNumber":45,"velocity":95},{"deltaTime":0,"channel":2,"type":"noteOn","noteNumber":64,"velocity":95},{"deltaTime":480,"channel":2,"type":"noteOff","noteNumber":64,"velocity":95},{"deltaTime":0,"channel":2,"type":"noteOn","noteNumber":57,"velocity":95},{"deltaTime":480,"channel":2,"type":"noteOff","noteNumber":57,"velocity":95},{"deltaTime":0,"channel":2,"type":"noteOn","noteNumber":62,"velocity":95},{"deltaTime":960,"channel":2,"type":"noteOff","noteNumber":62,"velocity":95},{"deltaTime":0,"channel":2,"type":"noteOn","noteNumber":57,"velocity":95},{"deltaTime":480,"channel":2,"type":"noteOff","noteNumber":57,"velocity":95},{"deltaTime":0,"channel":2,"type":"noteOn","noteNumber":45,"velocity":95},{"deltaTime":480,"channel":2,"type":"noteOff","noteNumber":45,"velocity":95},{"deltaTime":0,"channel":2,"type":"noteOn","noteNumber":60,"velocity":95},{"deltaTime":960,"channel":2,"type":"noteOff","noteNumber":60,"velocity":95},{"deltaTime":0,"channel":2,"type":"noteOn","noteNumber":55,"velocity":95},{"deltaTime":480,"channel":2,"type":"noteOff","noteNumber":55,"velocity":95},{"deltaTime":0,"channel":2,"type":"noteOn","noteNumber":45,"velocity":95},{"deltaTime":480,"channel":2,"type":"noteOff","noteNumber":45,"velocity":95},{"deltaTime":0,"channel":2,"type":"noteOn","noteNumber":62,"velocity":95},{"deltaTime":960,"channel":2,"type":"noteOff","noteNumber":62,"velocity":95},{"deltaTime":0,"channel":2,"type":"noteOn","noteNumber":57,"velocity":95},{"deltaTime":480,"channel":2,"type":"noteOff","noteNumber":57,"velocity":95},{"deltaTime":0,"channel":2,"type":"noteOn","noteNumber":45,"velocity":95},{"deltaTime":480,"channel":2,"type":"noteOff","noteNumber":45,"velocity":95},{"deltaTime":0,"channel":2,"type":"noteOn","noteNumber":45,"velocity":95},{"deltaTime":960,"channel":2,"type":"noteOff","noteNumber":45,"velocity":95},{"deltaTime":0,"channel":2,"type":"noteOn","noteNumber":64,"velocity":95},{"deltaTime":480,"channel":2,"type":"noteOff","noteNumber":64,"velocity":95},{"deltaTime":0,"channel":2,"type":"noteOn","noteNumber":57,"velocity":95},{"deltaTime":480,"channel":2,"type":"noteOff","noteNumber":57,"velocity":95},{"deltaTime":0,"channel":2,"type":"noteOn","noteNumber":62,"velocity":95},{"deltaTime":960,"channel":2,"type":"noteOff","noteNumber":62,"velocity":95},{"deltaTime":0,"channel":2,"type":"noteOn","noteNumber":57,"velocity":95},{"deltaTime":480,"channel":2,"type":"noteOff","noteNumber":57,"velocity":95},{"deltaTime":0,"channel":2,"type":"noteOn","noteNumber":45,"velocity":95},{"deltaTime":480,"channel":2,"type":"noteOff","noteNumber":45,"velocity":95},{"deltaTime":0,"channel":2,"type":"noteOn","noteNumber":67,"velocity":95},{"deltaTime":0,"channel":2,"type":"noteOn","noteNumber":62,"velocity":95},{"deltaTime":0,"channel":2,"type":"noteOn","noteNumber":55,"velocity":95},{"deltaTime":0,"channel":2,"type":"noteOn","noteNumber":50,"velocity":95},{"deltaTime":0,"channel":2,"type":"noteOn","noteNumber":45,"velocity":95},{"deltaTime":0,"channel":2,"type":"noteOn","noteNumber":43,"velocity":95},{"deltaTime":52,"channel":2,"type":"noteOff","noteNumber":45,"velocity":95},{"deltaTime":908,"channel":2,"type":"noteOff","noteNumber":67,"velocity":95},{"deltaTime":0,"channel":2,"type":"noteOff","noteNumber":62,"velocity":95},{"deltaTime":0,"channel":2,"type":"noteOff","noteNumber":55,"velocity":95},{"deltaTime":0,"channel":2,"type":"noteOff","noteNumber":50,"velocity":95},{"deltaTime":0,"channel":2,"type":"noteOff","noteNumber":43,"velocity":95},{"deltaTime":0,"channel":2,"type":"noteOn","noteNumber":67,"velocity":95},{"deltaTime":0,"channel":2,"type":"noteOn","noteNumber":62,"velocity":95},{"deltaTime":0,"channel":2,"type":"noteOn","noteNumber":55,"velocity":95},{"deltaTime":0,"channel":2,"type":"noteOn","noteNumber":50,"velocity":95},{"deltaTime":0,"channel":2,"type":"noteOn","noteNumber":45,"velocity":95},{"deltaTime":0,"channel":2,"type":"noteOn","noteNumber":43,"velocity":95},{"deltaTime":52,"channel":2,"type":"noteOff","noteNumber":45,"velocity":95},{"deltaTime":428,"channel":2,"type":"noteOff","noteNumber":67,"velocity":95},{"deltaTime":0,"channel":2,"type":"noteOff","noteNumber":62,"velocity":95},{"deltaTime":0,"channel":2,"type":"noteOff","noteNumber":55,"velocity":95},{"deltaTime":0,"channel":2,"type":"noteOff","noteNumber":50,"velocity":95},{"deltaTime":0,"channel":2,"type":"noteOff","noteNumber":43,"velocity":95},{"deltaTime":0,"channel":2,"type":"noteOn","noteNumber":50,"velocity":95},{"deltaTime":0,"channel":2,"type":"noteOn","noteNumber":45,"velocity":95},{"deltaTime":480,"channel":2,"type":"noteOff","noteNumber":50,"velocity":95},{"deltaTime":0,"channel":2,"type":"noteOff","noteNumber":45,"velocity":95},{"deltaTime":0,"channel":2,"type":"noteOn","noteNumber":62,"velocity":95},{"deltaTime":0,"channel":2,"type":"noteOn","noteNumber":57,"velocity":95},{"deltaTime":0,"channel":2,"type":"noteOn","noteNumber":50,"velocity":95},{"deltaTime":960,"channel":2,"type":"noteOff","noteNumber":62,"velocity":95},{"deltaTime":0,"channel":2,"type":"noteOff","noteNumber":57,"velocity":95},{"deltaTime":0,"channel":2,"type":"noteOff","noteNumber":50,"velocity":95},{"deltaTime":0,"channel":2,"type":"noteOn","noteNumber":55,"velocity":95},{"deltaTime":0,"channel":2,"type":"noteOn","noteNumber":48,"velocity":95},{"deltaTime":480,"channel":2,"type":"noteOff","noteNumber":55,"velocity":95},{"deltaTime":0,"channel":2,"type":"noteOff","noteNumber":48,"velocity":95},{"deltaTime":0,"channel":2,"type":"noteOn","noteNumber":55,"velocity":95},{"deltaTime":0,"channel":2,"type":"noteOn","noteNumber":47,"velocity":95},{"deltaTime":480,"channel":2,"type":"noteOff","noteNumber":55,"velocity":95},{"deltaTime":0,"channel":2,"type":"noteOff","noteNumber":47,"velocity":95},{"deltaTime":0,"channel":2,"type":"noteOn","noteNumber":45,"velocity":95},{"deltaTime":960,"channel":2,"type":"noteOff","noteNumber":45,"velocity":95},{"deltaTime":0,"channel":2,"type":"noteOn","noteNumber":52,"velocity":95},{"deltaTime":0,"channel":2,"type":"noteOn","noteNumber":45,"velocity":95},{"deltaTime":480,"channel":2,"type":"noteOff","noteNumber":52,"velocity":95},{"deltaTime":0,"channel":2,"type":"noteOff","noteNumber":45,"velocity":95},{"deltaTime":0,"channel":2,"type":"noteOn","noteNumber":50,"velocity":95},{"deltaTime":0,"channel":2,"type":"noteOn","noteNumber":45,"velocity":95},{"deltaTime":480,"channel":2,"type":"noteOff","noteNumber":50,"velocity":95},{"deltaTime":0,"channel":2,"type":"noteOff","noteNumber":45,"velocity":95},{"deltaTime":0,"channel":2,"type":"noteOn","noteNumber":52,"velocity":95},{"deltaTime":0,"channel":2,"type":"noteOn","noteNumber":45,"velocity":95},{"deltaTime":960,"channel":2,"type":"noteOff","noteNumber":52,"velocity":95},{"deltaTime":0,"channel":2,"type":"noteOff","noteNumber":45,"velocity":95},{"deltaTime":0,"channel":2,"type":"noteOn","noteNumber":62,"velocity":95},{"deltaTime":0,"channel":2,"type":"noteOn","noteNumber":57,"velocity":95},{"deltaTime":0,"channel":2,"type":"noteOn","noteNumber":50,"velocity":95},{"deltaTime":480,"channel":2,"type":"noteOff","noteNumber":62,"velocity":95},{"deltaTime":0,"channel":2,"type":"noteOff","noteNumber":57,"velocity":95},{"deltaTime":0,"channel":2,"type":"noteOff","noteNumber":50,"velocity":95},{"deltaTime":0,"channel":2,"type":"noteOn","noteNumber":55,"velocity":95},{"deltaTime":0,"channel":2,"type":"noteOn","noteNumber":50,"velocity":95},{"deltaTime":480,"channel":2,"type":"noteOff","noteNumber":55,"velocity":95},{"deltaTime":0,"channel":2,"type":"noteOff","noteNumber":50,"velocity":95},{"deltaTime":0,"channel":2,"type":"noteOn","noteNumber":62,"velocity":95},{"deltaTime":0,"channel":2,"type":"noteOn","noteNumber":57,"velocity":95},{"deltaTime":0,"channel":2,"type":"noteOn","noteNumber":50,"velocity":95},{"deltaTime":480,"channel":2,"type":"noteOff","noteNumber":62,"velocity":95},{"deltaTime":0,"channel":2,"type":"noteOff","noteNumber":57,"velocity":95},{"deltaTime":0,"channel":2,"type":"noteOff","noteNumber":50,"velocity":95},{"deltaTime":1440,"channel":2,"type":"noteOn","noteNumber":45,"velocity":95},{"deltaTime":480,"channel":2,"type":"noteOff","noteNumber":45,"velocity":95},{"deltaTime":0,"channel":2,"type":"noteOn","noteNumber":55,"velocity":95},{"deltaTime":0,"channel":2,"type":"noteOn","noteNumber":48,"velocity":95},{"deltaTime":960,"channel":2,"type":"noteOff","noteNumber":55,"velocity":95},{"deltaTime":0,"channel":2,"type":"noteOff","noteNumber":48,"velocity":95},{"deltaTime":0,"channel":2,"type":"noteOn","noteNumber":55,"velocity":95},{"deltaTime":0,"channel":2,"type":"noteOn","noteNumber":47,"velocity":95},{"deltaTime":960,"channel":2,"type":"noteOff","noteNumber":55,"velocity":95},{"deltaTime":0,"channel":2,"type":"noteOff","noteNumber":47,"velocity":95},{"deltaTime":0,"channel":2,"type":"noteOn","noteNumber":45,"velocity":95},{"deltaTime":480,"channel":2,"type":"noteOff","noteNumber":45,"velocity":95},{"deltaTime":0,"channel":2,"type":"noteOn","noteNumber":52,"velocity":95},{"deltaTime":0,"channel":2,"type":"noteOn","noteNumber":45,"velocity":95},{"deltaTime":480,"channel":2,"type":"noteOff","noteNumber":52,"velocity":95},{"deltaTime":0,"channel":2,"type":"noteOff","noteNumber":45,"velocity":95},{"deltaTime":0,"channel":2,"type":"noteOn","noteNumber":50,"velocity":95},{"deltaTime":0,"channel":2,"type":"noteOn","noteNumber":45,"velocity":95},{"deltaTime":480,"channel":2,"type":"noteOff","noteNumber":50,"velocity":95},{"deltaTime":0,"channel":2,"type":"noteOff","noteNumber":45,"velocity":95},{"deltaTime":0,"channel":2,"type":"noteOn","noteNumber":52,"velocity":95},{"deltaTime":0,"channel":2,"type":"noteOn","noteNumber":45,"velocity":95},{"deltaTime":480,"channel":2,"type":"noteOff","noteNumber":52,"velocity":95},{"deltaTime":0,"channel":2,"type":"noteOff","noteNumber":45,"velocity":95},{"deltaTime":480,"channel":2,"type":"noteOn","noteNumber":62,"velocity":95},{"deltaTime":0,"channel":2,"type":"noteOn","noteNumber":57,"velocity":95},{"deltaTime":0,"channel":2,"type":"noteOn","noteNumber":50,"velocity":95},{"deltaTime":480,"channel":2,"type":"noteOff","noteNumber":62,"velocity":95},{"deltaTime":0,"channel":2,"type":"noteOff","noteNumber":57,"velocity":95},{"deltaTime":0,"channel":2,"type":"noteOff","noteNumber":50,"velocity":95},{"deltaTime":0,"channel":2,"type":"noteOn","noteNumber":55,"velocity":95},{"deltaTime":0,"channel":2,"type":"noteOn","noteNumber":50,"velocity":95},{"deltaTime":480,"channel":2,"type":"noteOff","noteNumber":55,"velocity":95},{"deltaTime":0,"channel":2,"type":"noteOff","noteNumber":50,"velocity":95},{"deltaTime":0,"channel":2,"type":"noteOn","noteNumber":62,"velocity":95},{"deltaTime":0,"channel":2,"type":"noteOn","noteNumber":57,"velocity":95},{"deltaTime":0,"channel":2,"type":"noteOn","noteNumber":50,"velocity":95},{"deltaTime":480,"channel":2,"type":"noteOff","noteNumber":62,"velocity":95},{"deltaTime":0,"channel":2,"type":"noteOff","noteNumber":57,"velocity":95},{"deltaTime":0,"channel":2,"type":"noteOff","noteNumber":50,"velocity":95},{"deltaTime":1440,"channel":2,"type":"noteOn","noteNumber":45,"velocity":95},{"deltaTime":480,"channel":2,"type":"noteOff","noteNumber":45,"velocity":95},{"deltaTime":0,"channel":2,"type":"noteOn","noteNumber":55,"velocity":95},{"deltaTime":0,"channel":2,"type":"noteOn","noteNumber":48,"velocity":95},{"deltaTime":960,"channel":2,"type":"noteOff","noteNumber":55,"velocity":95},{"deltaTime":0,"channel":2,"type":"noteOff","noteNumber":48,"velocity":95},{"deltaTime":0,"channel":2,"type":"noteOn","noteNumber":55,"velocity":95},{"deltaTime":0,"channel":2,"type":"noteOn","noteNumber":47,"velocity":95},{"deltaTime":960,"channel":2,"type":"noteOff","noteNumber":55,"velocity":95},{"deltaTime":0,"channel":2,"type":"noteOff","noteNumber":47,"velocity":95},{"deltaTime":0,"channel":2,"type":"noteOn","noteNumber":45,"velocity":95},{"deltaTime":480,"channel":2,"type":"noteOff","noteNumber":45,"velocity":95},{"deltaTime":0,"channel":2,"type":"noteOn","noteNumber":52,"velocity":95},{"deltaTime":0,"channel":2,"type":"noteOn","noteNumber":45,"velocity":95},{"deltaTime":480,"channel":2,"type":"noteOff","noteNumber":52,"velocity":95},{"deltaTime":0,"channel":2,"type":"noteOff","noteNumber":45,"velocity":95},{"deltaTime":0,"channel":2,"type":"noteOn","noteNumber":50,"velocity":95},{"deltaTime":0,"channel":2,"type":"noteOn","noteNumber":45,"velocity":95},{"deltaTime":480,"channel":2,"type":"noteOff","noteNumber":50,"velocity":95},{"deltaTime":0,"channel":2,"type":"noteOff","noteNumber":45,"velocity":95},{"deltaTime":0,"channel":2,"type":"noteOn","noteNumber":52,"velocity":95},{"deltaTime":0,"channel":2,"type":"noteOn","noteNumber":45,"velocity":95},{"deltaTime":480,"channel":2,"type":"noteOff","noteNumber":52,"velocity":95},{"deltaTime":0,"channel":2,"type":"noteOff","noteNumber":45,"velocity":95},{"deltaTime":480,"channel":2,"type":"noteOn","noteNumber":62,"velocity":95},{"deltaTime":0,"channel":2,"type":"noteOn","noteNumber":57,"velocity":95},{"deltaTime":0,"channel":2,"type":"noteOn","noteNumber":50,"velocity":95},{"deltaTime":480,"channel":2,"type":"noteOff","noteNumber":62,"velocity":95},{"deltaTime":0,"channel":2,"type":"noteOff","noteNumber":57,"velocity":95},{"deltaTime":0,"channel":2,"type":"noteOff","noteNumber":50,"velocity":95},{"deltaTime":0,"channel":2,"type":"noteOn","noteNumber":55,"velocity":95},{"deltaTime":0,"channel":2,"type":"noteOn","noteNumber":50,"velocity":95},{"deltaTime":480,"channel":2,"type":"noteOff","noteNumber":55,"velocity":95},{"deltaTime":0,"channel":2,"type":"noteOff","noteNumber":50,"velocity":95},{"deltaTime":0,"channel":2,"type":"noteOn","noteNumber":62,"velocity":95},{"deltaTime":0,"channel":2,"type":"noteOn","noteNumber":57,"velocity":95},{"deltaTime":0,"channel":2,"type":"noteOn","noteNumber":50,"velocity":95},{"deltaTime":480,"channel":2,"type":"noteOff","noteNumber":62,"velocity":95},{"deltaTime":0,"channel":2,"type":"noteOff","noteNumber":57,"velocity":95},{"deltaTime":0,"channel":2,"type":"noteOff","noteNumber":50,"velocity":95},{"deltaTime":960,"channel":2,"type":"noteOn","noteNumber":57,"velocity":95},{"deltaTime":0,"channel":2,"type":"noteOn","noteNumber":50,"velocity":95},{"deltaTime":480,"channel":2,"type":"noteOff","noteNumber":57,"velocity":95},{"deltaTime":0,"channel":2,"type":"noteOff","noteNumber":50,"velocity":95},{"deltaTime":0,"channel":2,"type":"noteOn","noteNumber":45,"velocity":95},{"deltaTime":480,"channel":2,"type":"noteOff","noteNumber":45,"velocity":95},{"deltaTime":0,"channel":2,"type":"noteOn","noteNumber":55,"velocity":95},{"deltaTime":0,"channel":2,"type":"noteOn","noteNumber":48,"velocity":95},{"deltaTime":960,"channel":2,"type":"noteOff","noteNumber":55,"velocity":95},{"deltaTime":0,"channel":2,"type":"noteOff","noteNumber":48,"velocity":95},{"deltaTime":0,"channel":2,"type":"noteOn","noteNumber":55,"velocity":95},{"deltaTime":0,"channel":2,"type":"noteOn","noteNumber":47,"velocity":95},{"deltaTime":960,"channel":2,"type":"noteOff","noteNumber":55,"velocity":95},{"deltaTime":0,"channel":2,"type":"noteOff","noteNumber":47,"velocity":95},{"deltaTime":0,"channel":2,"type":"noteOn","noteNumber":45,"velocity":95},{"deltaTime":480,"channel":2,"type":"noteOff","noteNumber":45,"velocity":95},{"deltaTime":0,"channel":2,"type":"noteOn","noteNumber":52,"velocity":95},{"deltaTime":0,"channel":2,"type":"noteOn","noteNumber":45,"velocity":95},{"deltaTime":480,"channel":2,"type":"noteOff","noteNumber":52,"velocity":95},{"deltaTime":0,"channel":2,"type":"noteOff","noteNumber":45,"velocity":95},{"deltaTime":0,"channel":2,"type":"noteOn","noteNumber":50,"velocity":95},{"deltaTime":0,"channel":2,"type":"noteOn","noteNumber":45,"velocity":95},{"deltaTime":480,"channel":2,"type":"noteOff","noteNumber":50,"velocity":95},{"deltaTime":0,"channel":2,"type":"noteOff","noteNumber":45,"velocity":95},{"deltaTime":0,"channel":2,"type":"noteOn","noteNumber":52,"velocity":95},{"deltaTime":0,"channel":2,"type":"noteOn","noteNumber":45,"velocity":95},{"deltaTime":480,"channel":2,"type":"noteOff","noteNumber":52,"velocity":95},{"deltaTime":0,"channel":2,"type":"noteOff","noteNumber":45,"velocity":95},{"deltaTime":480,"channel":2,"type":"noteOn","noteNumber":62,"velocity":95},{"deltaTime":0,"channel":2,"type":"noteOn","noteNumber":57,"velocity":95},{"deltaTime":0,"channel":2,"type":"noteOn","noteNumber":50,"velocity":95},{"deltaTime":480,"channel":2,"type":"noteOff","noteNumber":62,"velocity":95},{"deltaTime":0,"channel":2,"type":"noteOff","noteNumber":57,"velocity":95},{"deltaTime":0,"channel":2,"type":"noteOff","noteNumber":50,"velocity":95},{"deltaTime":0,"channel":2,"type":"noteOn","noteNumber":55,"velocity":95},{"deltaTime":0,"channel":2,"type":"noteOn","noteNumber":50,"velocity":95},{"deltaTime":480,"channel":2,"type":"noteOff","noteNumber":55,"velocity":95},{"deltaTime":0,"channel":2,"type":"noteOff","noteNumber":50,"velocity":95},{"deltaTime":0,"channel":2,"type":"noteOn","noteNumber":62,"velocity":95},{"deltaTime":0,"channel":2,"type":"noteOn","noteNumber":57,"velocity":95},{"deltaTime":0,"channel":2,"type":"noteOn","noteNumber":50,"velocity":95},{"deltaTime":480,"channel":2,"type":"noteOff","noteNumber":62,"velocity":95},{"deltaTime":0,"channel":2,"type":"noteOff","noteNumber":57,"velocity":95},{"deltaTime":0,"channel":2,"type":"noteOff","noteNumber":50,"velocity":95},{"deltaTime":960,"channel":2,"type":"noteOn","noteNumber":57,"velocity":95},{"deltaTime":0,"channel":2,"type":"noteOn","noteNumber":50,"velocity":95},{"deltaTime":480,"channel":2,"type":"noteOff","noteNumber":57,"velocity":95},{"deltaTime":0,"channel":2,"type":"noteOff","noteNumber":50,"velocity":95},{"deltaTime":0,"channel":2,"type":"noteOn","noteNumber":45,"velocity":95},{"deltaTime":480,"channel":2,"type":"noteOff","noteNumber":45,"velocity":95},{"deltaTime":0,"channel":2,"type":"noteOn","noteNumber":55,"velocity":95},{"deltaTime":0,"channel":2,"type":"noteOn","noteNumber":48,"velocity":95},{"deltaTime":960,"channel":2,"type":"noteOff","noteNumber":55,"velocity":95},{"deltaTime":0,"channel":2,"type":"noteOff","noteNumber":48,"velocity":95},{"deltaTime":0,"channel":2,"type":"noteOn","noteNumber":55,"velocity":95},{"deltaTime":0,"channel":2,"type":"noteOn","noteNumber":47,"velocity":95},{"deltaTime":960,"channel":2,"type":"noteOff","noteNumber":55,"velocity":95},{"deltaTime":0,"channel":2,"type":"noteOff","noteNumber":47,"velocity":95},{"deltaTime":0,"channel":2,"type":"noteOn","noteNumber":45,"velocity":95},{"deltaTime":480,"channel":2,"type":"noteOff","noteNumber":45,"velocity":95},{"deltaTime":0,"channel":2,"type":"noteOn","noteNumber":52,"velocity":95},{"deltaTime":0,"channel":2,"type":"noteOn","noteNumber":45,"velocity":95},{"deltaTime":480,"channel":2,"type":"noteOff","noteNumber":52,"velocity":95},{"deltaTime":0,"channel":2,"type":"noteOff","noteNumber":45,"velocity":95},{"deltaTime":0,"channel":2,"type":"noteOn","noteNumber":50,"velocity":95},{"deltaTime":0,"channel":2,"type":"noteOn","noteNumber":45,"velocity":95},{"deltaTime":480,"channel":2,"type":"noteOff","noteNumber":50,"velocity":95},{"deltaTime":0,"channel":2,"type":"noteOff","noteNumber":45,"velocity":95},{"deltaTime":0,"channel":2,"type":"noteOn","noteNumber":52,"velocity":95},{"deltaTime":0,"channel":2,"type":"noteOn","noteNumber":45,"velocity":95},{"deltaTime":480,"channel":2,"type":"noteOff","noteNumber":52,"velocity":95},{"deltaTime":0,"channel":2,"type":"noteOff","noteNumber":45,"velocity":95},{"deltaTime":480,"channel":2,"type":"noteOn","noteNumber":62,"velocity":95},{"deltaTime":0,"channel":2,"type":"noteOn","noteNumber":57,"velocity":95},{"deltaTime":0,"channel":2,"type":"noteOn","noteNumber":50,"velocity":95},{"deltaTime":480,"channel":2,"type":"noteOff","noteNumber":62,"velocity":95},{"deltaTime":0,"channel":2,"type":"noteOff","noteNumber":57,"velocity":95},{"deltaTime":0,"channel":2,"type":"noteOff","noteNumber":50,"velocity":95},{"deltaTime":0,"channel":2,"type":"noteOn","noteNumber":55,"velocity":95},{"deltaTime":0,"channel":2,"type":"noteOn","noteNumber":50,"velocity":95},{"deltaTime":480,"channel":2,"type":"noteOff","noteNumber":55,"velocity":95},{"deltaTime":0,"channel":2,"type":"noteOff","noteNumber":50,"velocity":95},{"deltaTime":0,"channel":2,"type":"noteOn","noteNumber":62,"velocity":95},{"deltaTime":0,"channel":2,"type":"noteOn","noteNumber":57,"velocity":95},{"deltaTime":0,"channel":2,"type":"noteOn","noteNumber":50,"velocity":95},{"deltaTime":480,"channel":2,"type":"noteOff","noteNumber":62,"velocity":95},{"deltaTime":0,"channel":2,"type":"noteOff","noteNumber":57,"velocity":95},{"deltaTime":0,"channel":2,"type":"noteOff","noteNumber":50,"velocity":95},{"deltaTime":0,"channel":2,"type":"noteOn","noteNumber":57,"velocity":95},{"deltaTime":0,"channel":2,"type":"noteOn","noteNumber":50,"velocity":95},{"deltaTime":480,"channel":2,"type":"noteOff","noteNumber":57,"velocity":95},{"deltaTime":0,"channel":2,"type":"noteOff","noteNumber":50,"velocity":95},{"deltaTime":0,"channel":2,"type":"noteOn","noteNumber":57,"velocity":95},{"deltaTime":0,"channel":2,"type":"noteOn","noteNumber":50,"velocity":95},{"deltaTime":480,"channel":2,"type":"noteOff","noteNumber":57,"velocity":95},{"deltaTime":0,"channel":2,"type":"noteOff","noteNumber":50,"velocity":95},{"deltaTime":0,"channel":2,"type":"noteOn","noteNumber":57,"velocity":95},{"deltaTime":0,"channel":2,"type":"noteOn","noteNumber":50,"velocity":95},{"deltaTime":480,"channel":2,"type":"noteOff","noteNumber":57,"velocity":95},{"deltaTime":0,"channel":2,"type":"noteOff","noteNumber":50,"velocity":95},{"deltaTime":0,"channel":2,"type":"noteOn","noteNumber":45,"velocity":95},{"deltaTime":480,"channel":2,"type":"noteOff","noteNumber":45,"velocity":95},{"deltaTime":0,"channel":2,"type":"noteOn","noteNumber":55,"velocity":95},{"deltaTime":0,"channel":2,"type":"noteOn","noteNumber":48,"velocity":95},{"deltaTime":480,"channel":2,"type":"noteOff","noteNumber":55,"velocity":95},{"deltaTime":0,"channel":2,"type":"noteOff","noteNumber":48,"velocity":95},{"deltaTime":0,"channel":2,"type":"noteOn","noteNumber":55,"velocity":95},{"deltaTime":0,"channel":2,"type":"noteOn","noteNumber":48,"velocity":95},{"deltaTime":480,"channel":2,"type":"noteOff","noteNumber":55,"velocity":95},{"deltaTime":0,"channel":2,"type":"noteOff","noteNumber":48,"velocity":95},{"deltaTime":0,"channel":2,"type":"noteOn","noteNumber":55,"velocity":95},{"deltaTime":0,"channel":2,"type":"noteOn","noteNumber":47,"velocity":95},{"deltaTime":960,"channel":2,"type":"noteOff","noteNumber":55,"velocity":95},{"deltaTime":0,"channel":2,"type":"noteOff","noteNumber":47,"velocity":95},{"deltaTime":0,"channel":2,"type":"noteOn","noteNumber":45,"velocity":95},{"deltaTime":480,"channel":2,"type":"noteOff","noteNumber":45,"velocity":95},{"deltaTime":0,"channel":2,"type":"noteOn","noteNumber":52,"velocity":95},{"deltaTime":0,"channel":2,"type":"noteOn","noteNumber":45,"velocity":95},{"deltaTime":480,"channel":2,"type":"noteOff","noteNumber":52,"velocity":95},{"deltaTime":0,"channel":2,"type":"noteOff","noteNumber":45,"velocity":95},{"deltaTime":0,"channel":2,"type":"noteOn","noteNumber":50,"velocity":95},{"deltaTime":0,"channel":2,"type":"noteOn","noteNumber":45,"velocity":95},{"deltaTime":480,"channel":2,"type":"noteOff","noteNumber":50,"velocity":95},{"deltaTime":0,"channel":2,"type":"noteOff","noteNumber":45,"velocity":95},{"deltaTime":0,"channel":2,"type":"noteOn","noteNumber":52,"velocity":95},{"deltaTime":0,"channel":2,"type":"noteOn","noteNumber":45,"velocity":95},{"deltaTime":480,"channel":2,"type":"noteOff","noteNumber":52,"velocity":95},{"deltaTime":0,"channel":2,"type":"noteOff","noteNumber":45,"velocity":95},{"deltaTime":480,"channel":2,"type":"noteOn","noteNumber":62,"velocity":95},{"deltaTime":0,"channel":2,"type":"noteOn","noteNumber":57,"velocity":95},{"deltaTime":0,"channel":2,"type":"noteOn","noteNumber":50,"velocity":95},{"deltaTime":480,"channel":2,"type":"noteOff","noteNumber":62,"velocity":95},{"deltaTime":0,"channel":2,"type":"noteOff","noteNumber":57,"velocity":95},{"deltaTime":0,"channel":2,"type":"noteOff","noteNumber":50,"velocity":95},{"deltaTime":0,"channel":2,"type":"noteOn","noteNumber":55,"velocity":95},{"deltaTime":0,"channel":2,"type":"noteOn","noteNumber":50,"velocity":95},{"deltaTime":480,"channel":2,"type":"noteOff","noteNumber":55,"velocity":95},{"deltaTime":0,"channel":2,"type":"noteOff","noteNumber":50,"velocity":95},{"deltaTime":0,"channel":2,"type":"noteOn","noteNumber":62,"velocity":95},{"deltaTime":0,"channel":2,"type":"noteOn","noteNumber":57,"velocity":95},{"deltaTime":0,"channel":2,"type":"noteOn","noteNumber":50,"velocity":95},{"deltaTime":480,"channel":2,"type":"noteOff","noteNumber":62,"velocity":95},{"deltaTime":0,"channel":2,"type":"noteOff","noteNumber":57,"velocity":95},{"deltaTime":0,"channel":2,"type":"noteOff","noteNumber":50,"velocity":95},{"deltaTime":0,"channel":2,"type":"noteOn","noteNumber":57,"velocity":95},{"deltaTime":0,"channel":2,"type":"noteOn","noteNumber":50,"velocity":95},{"deltaTime":480,"channel":2,"type":"noteOff","noteNumber":57,"velocity":95},{"deltaTime":0,"channel":2,"type":"noteOff","noteNumber":50,"velocity":95},{"deltaTime":0,"channel":2,"type":"noteOn","noteNumber":57,"velocity":95},{"deltaTime":0,"channel":2,"type":"noteOn","noteNumber":50,"velocity":95},{"deltaTime":480,"channel":2,"type":"noteOff","noteNumber":57,"velocity":95},{"deltaTime":0,"channel":2,"type":"noteOff","noteNumber":50,"velocity":95},{"deltaTime":0,"channel":2,"type":"noteOn","noteNumber":57,"velocity":95},{"deltaTime":0,"channel":2,"type":"noteOn","noteNumber":50,"velocity":95},{"deltaTime":480,"channel":2,"type":"noteOff","noteNumber":57,"velocity":95},{"deltaTime":0,"channel":2,"type":"noteOff","noteNumber":50,"velocity":95},{"deltaTime":0,"channel":2,"type":"noteOn","noteNumber":45,"velocity":95},{"deltaTime":480,"channel":2,"type":"noteOff","noteNumber":45,"velocity":95},{"deltaTime":0,"channel":2,"type":"noteOn","noteNumber":55,"velocity":95},{"deltaTime":0,"channel":2,"type":"noteOn","noteNumber":48,"velocity":95},{"deltaTime":960,"channel":2,"type":"noteOff","noteNumber":55,"velocity":95},{"deltaTime":0,"channel":2,"type":"noteOff","noteNumber":48,"velocity":95},{"deltaTime":0,"channel":2,"type":"noteOn","noteNumber":55,"velocity":95},{"deltaTime":0,"channel":2,"type":"noteOn","noteNumber":47,"velocity":95},{"deltaTime":960,"channel":2,"type":"noteOff","noteNumber":55,"velocity":95},{"deltaTime":0,"channel":2,"type":"noteOff","noteNumber":47,"velocity":95},{"deltaTime":0,"channel":2,"type":"noteOn","noteNumber":50,"velocity":95},{"deltaTime":480,"channel":2,"type":"noteOff","noteNumber":50,"velocity":95},{"deltaTime":0,"channel":2,"type":"noteOn","noteNumber":57,"velocity":95},{"deltaTime":0,"channel":2,"type":"noteOn","noteNumber":50,"velocity":95},{"deltaTime":480,"channel":2,"type":"noteOff","noteNumber":57,"velocity":95},{"deltaTime":0,"channel":2,"type":"noteOff","noteNumber":50,"velocity":95},{"deltaTime":0,"channel":2,"type":"noteOn","noteNumber":55,"velocity":95},{"deltaTime":0,"channel":2,"type":"noteOn","noteNumber":50,"velocity":95},{"deltaTime":480,"channel":2,"type":"noteOff","noteNumber":55,"velocity":95},{"deltaTime":0,"channel":2,"type":"noteOff","noteNumber":50,"velocity":95},{"deltaTime":0,"channel":2,"type":"noteOn","noteNumber":57,"velocity":95},{"deltaTime":0,"channel":2,"type":"noteOn","noteNumber":50,"velocity":95},{"deltaTime":960,"channel":2,"type":"noteOff","noteNumber":57,"velocity":95},{"deltaTime":0,"channel":2,"type":"noteOff","noteNumber":50,"velocity":95},{"deltaTime":0,"channel":2,"type":"noteOn","noteNumber":57,"velocity":95},{"deltaTime":0,"channel":2,"type":"noteOn","noteNumber":50,"velocity":95},{"deltaTime":480,"channel":2,"type":"noteOff","noteNumber":57,"velocity":95},{"deltaTime":0,"channel":2,"type":"noteOff","noteNumber":50,"velocity":95},{"deltaTime":0,"channel":2,"type":"noteOn","noteNumber":55,"velocity":95},{"deltaTime":0,"channel":2,"type":"noteOn","noteNumber":50,"velocity":95},{"deltaTime":480,"channel":2,"type":"noteOff","noteNumber":55,"velocity":95},{"deltaTime":0,"channel":2,"type":"noteOff","noteNumber":50,"velocity":95},{"deltaTime":0,"channel":2,"type":"noteOn","noteNumber":57,"velocity":95},{"deltaTime":0,"channel":2,"type":"noteOn","noteNumber":50,"velocity":95},{"deltaTime":960,"channel":2,"type":"noteOff","noteNumber":57,"velocity":95},{"deltaTime":0,"channel":2,"type":"noteOff","noteNumber":50,"velocity":95},{"deltaTime":0,"channel":2,"type":"noteOn","noteNumber":57,"velocity":95},{"deltaTime":0,"channel":2,"type":"noteOn","noteNumber":50,"velocity":95},{"deltaTime":960,"channel":2,"type":"noteOff","noteNumber":57,"velocity":95},{"deltaTime":0,"channel":2,"type":"noteOff","noteNumber":50,"velocity":95},{"deltaTime":0,"channel":2,"type":"noteOn","noteNumber":57,"velocity":95},{"deltaTime":0,"channel":2,"type":"noteOn","noteNumber":50,"velocity":95},{"deltaTime":52,"channel":2,"type":"noteOff","noteNumber":57,"velocity":95},{"deltaTime":0,"channel":2,"type":"noteOff","noteNumber":50,"velocity":95},{"deltaTime":428,"channel":2,"type":"noteOn","noteNumber":60,"velocity":95},{"deltaTime":0,"channel":2,"type":"noteOn","noteNumber":55,"velocity":95},{"deltaTime":0,"channel":2,"type":"noteOn","noteNumber":48,"velocity":95},{"deltaTime":960,"channel":2,"type":"noteOff","noteNumber":60,"velocity":95},{"deltaTime":0,"channel":2,"type":"noteOff","noteNumber":55,"velocity":95},{"deltaTime":0,"channel":2,"type":"noteOff","noteNumber":48,"velocity":95},{"deltaTime":0,"channel":2,"type":"noteOn","noteNumber":62,"velocity":95},{"deltaTime":0,"channel":2,"type":"noteOn","noteNumber":55,"velocity":95},{"deltaTime":0,"channel":2,"type":"noteOn","noteNumber":50,"velocity":95},{"deltaTime":0,"channel":2,"type":"noteOn","noteNumber":45,"velocity":95},{"deltaTime":0,"channel":2,"type":"noteOn","noteNumber":43,"velocity":95},{"deltaTime":52,"channel":2,"type":"noteOff","noteNumber":45,"velocity":95},{"deltaTime":908,"channel":2,"type":"noteOff","noteNumber":55,"velocity":95},{"deltaTime":0,"channel":2,"type":"noteOff","noteNumber":50,"velocity":95},{"deltaTime":0,"channel":2,"type":"noteOff","noteNumber":43,"velocity":95},{"deltaTime":0,"channel":2,"type":"noteOn","noteNumber":57,"velocity":95},{"deltaTime":0,"channel":2,"type":"noteOn","noteNumber":50,"velocity":95},{"deltaTime":480,"channel":2,"type":"noteOff","noteNumber":57,"velocity":95},{"deltaTime":0,"channel":2,"type":"noteOff","noteNumber":50,"velocity":95},{"deltaTime":0,"channel":2,"type":"noteOn","noteNumber":57,"velocity":95},{"deltaTime":0,"channel":2,"type":"noteOn","noteNumber":50,"velocity":95},{"deltaTime":480,"channel":2,"type":"noteOff","noteNumber":57,"velocity":95},{"deltaTime":0,"channel":2,"type":"noteOff","noteNumber":50,"velocity":95},{"deltaTime":0,"channel":2,"type":"noteOn","noteNumber":55,"velocity":95},{"deltaTime":0,"channel":2,"type":"noteOn","noteNumber":50,"velocity":95},{"deltaTime":480,"channel":2,"type":"noteOff","noteNumber":55,"velocity":95},{"deltaTime":0,"channel":2,"type":"noteOff","noteNumber":50,"velocity":95},{"deltaTime":0,"channel":2,"type":"noteOn","noteNumber":57,"velocity":95},{"deltaTime":0,"channel":2,"type":"noteOn","noteNumber":50,"velocity":95},{"deltaTime":960,"channel":2,"type":"noteOff","noteNumber":57,"velocity":95},{"deltaTime":0,"channel":2,"type":"noteOff","noteNumber":50,"velocity":95},{"deltaTime":0,"channel":2,"type":"noteOn","noteNumber":57,"velocity":95},{"deltaTime":0,"channel":2,"type":"noteOn","noteNumber":50,"velocity":95},{"deltaTime":960,"channel":2,"type":"noteOff","noteNumber":57,"velocity":95},{"deltaTime":0,"channel":2,"type":"noteOff","noteNumber":50,"velocity":95},{"deltaTime":0,"channel":2,"type":"noteOn","noteNumber":57,"velocity":95},{"deltaTime":0,"channel":2,"type":"noteOn","noteNumber":50,"velocity":95},{"deltaTime":960,"channel":2,"type":"noteOff","noteNumber":62,"velocity":95},{"deltaTime":0,"channel":2,"type":"noteOff","noteNumber":57,"velocity":95},{"deltaTime":0,"channel":2,"type":"noteOff","noteNumber":50,"velocity":95},{"deltaTime":0,"channel":2,"type":"noteOn","noteNumber":57,"velocity":95},{"deltaTime":0,"channel":2,"type":"noteOn","noteNumber":50,"velocity":95},{"deltaTime":960,"channel":2,"type":"noteOff","noteNumber":57,"velocity":95},{"deltaTime":0,"channel":2,"type":"noteOff","noteNumber":50,"velocity":95},{"deltaTime":0,"channel":2,"type":"noteOn","noteNumber":57,"velocity":95},{"deltaTime":0,"channel":2,"type":"noteOn","noteNumber":50,"velocity":95},{"deltaTime":52,"channel":2,"type":"noteOff","noteNumber":57,"velocity":95},{"deltaTime":0,"channel":2,"type":"noteOff","noteNumber":50,"velocity":95},{"deltaTime":428,"channel":2,"type":"noteOn","noteNumber":60,"velocity":95},{"deltaTime":0,"channel":2,"type":"noteOn","noteNumber":55,"velocity":95},{"deltaTime":0,"channel":2,"type":"noteOn","noteNumber":48,"velocity":95},{"deltaTime":960,"channel":2,"type":"noteOff","noteNumber":60,"velocity":95},{"deltaTime":0,"channel":2,"type":"noteOff","noteNumber":55,"velocity":95},{"deltaTime":0,"channel":2,"type":"noteOff","noteNumber":48,"velocity":95},{"deltaTime":0,"channel":2,"type":"noteOn","noteNumber":62,"velocity":95},{"deltaTime":0,"channel":2,"type":"noteOn","noteNumber":55,"velocity":95},{"deltaTime":0,"channel":2,"type":"noteOn","noteNumber":50,"velocity":95},{"deltaTime":0,"channel":2,"type":"noteOn","noteNumber":45,"velocity":95},{"deltaTime":0,"channel":2,"type":"noteOn","noteNumber":43,"velocity":95},{"deltaTime":52,"channel":2,"type":"noteOff","noteNumber":45,"velocity":95},{"deltaTime":908,"channel":2,"type":"noteOff","noteNumber":62,"velocity":95},{"deltaTime":0,"channel":2,"type":"noteOff","noteNumber":55,"velocity":95},{"deltaTime":0,"channel":2,"type":"noteOff","noteNumber":50,"velocity":95},{"deltaTime":0,"channel":2,"type":"noteOff","noteNumber":43,"velocity":95},{"deltaTime":0,"channel":2,"type":"noteOn","noteNumber":40,"velocity":95},{"deltaTime":480,"channel":2,"type":"noteOff","noteNumber":40,"velocity":95},{"deltaTime":0,"channel":2,"type":"noteOn","noteNumber":64,"velocity":95},{"deltaTime":0,"channel":2,"type":"noteOn","noteNumber":59,"velocity":95},{"deltaTime":0,"channel":2,"type":"noteOn","noteNumber":52,"velocity":95},{"deltaTime":480,"channel":2,"type":"noteOff","noteNumber":64,"velocity":95},{"deltaTime":0,"channel":2,"type":"noteOff","noteNumber":59,"velocity":95},{"deltaTime":0,"channel":2,"type":"noteOff","noteNumber":52,"velocity":95},{"deltaTime":0,"channel":2,"type":"noteOn","noteNumber":57,"velocity":95},{"deltaTime":0,"channel":2,"type":"noteOn","noteNumber":52,"velocity":95},{"deltaTime":480,"channel":2,"type":"noteOff","noteNumber":57,"velocity":95},{"deltaTime":0,"channel":2,"type":"noteOff","noteNumber":52,"velocity":95},{"deltaTime":0,"channel":2,"type":"noteOn","noteNumber":64,"velocity":95},{"deltaTime":0,"channel":2,"type":"noteOn","noteNumber":59,"velocity":95},{"deltaTime":0,"channel":2,"type":"noteOn","noteNumber":52,"velocity":95},{"deltaTime":960,"channel":2,"type":"noteOff","noteNumber":64,"velocity":95},{"deltaTime":0,"channel":2,"type":"noteOff","noteNumber":59,"velocity":95},{"deltaTime":0,"channel":2,"type":"noteOff","noteNumber":52,"velocity":95},{"deltaTime":0,"channel":2,"type":"noteOn","noteNumber":64,"velocity":95},{"deltaTime":0,"channel":2,"type":"noteOn","noteNumber":59,"velocity":95},{"deltaTime":0,"channel":2,"type":"noteOn","noteNumber":52,"velocity":95},{"deltaTime":480,"channel":2,"type":"noteOff","noteNumber":64,"velocity":95},{"deltaTime":0,"channel":2,"type":"noteOff","noteNumber":59,"velocity":95},{"deltaTime":0,"channel":2,"type":"noteOff","noteNumber":52,"velocity":95},{"deltaTime":0,"channel":2,"type":"noteOn","noteNumber":57,"velocity":95},{"deltaTime":0,"channel":2,"type":"noteOn","noteNumber":52,"velocity":95},{"deltaTime":0,"channel":2,"type":"noteOn","noteNumber":40,"velocity":95},{"deltaTime":480,"channel":2,"type":"noteOff","noteNumber":57,"velocity":95},{"deltaTime":0,"channel":2,"type":"noteOff","noteNumber":52,"velocity":95},{"deltaTime":0,"channel":2,"type":"noteOff","noteNumber":40,"velocity":95},{"deltaTime":0,"channel":2,"type":"noteOn","noteNumber":64,"velocity":95},{"deltaTime":0,"channel":2,"type":"noteOn","noteNumber":59,"velocity":95},{"deltaTime":0,"channel":2,"type":"noteOn","noteNumber":52,"velocity":95},{"deltaTime":960,"channel":2,"type":"noteOff","noteNumber":64,"velocity":95},{"deltaTime":0,"channel":2,"type":"noteOff","noteNumber":59,"velocity":95},{"deltaTime":0,"channel":2,"type":"noteOff","noteNumber":52,"velocity":95},{"deltaTime":0,"channel":2,"type":"noteOn","noteNumber":64,"velocity":95},{"deltaTime":0,"channel":2,"type":"noteOn","noteNumber":59,"velocity":95},{"deltaTime":0,"channel":2,"type":"noteOn","noteNumber":52,"velocity":95},{"deltaTime":480,"channel":2,"type":"noteOff","noteNumber":64,"velocity":95},{"deltaTime":0,"channel":2,"type":"noteOff","noteNumber":59,"velocity":95},{"deltaTime":0,"channel":2,"type":"noteOff","noteNumber":52,"velocity":95},{"deltaTime":0,"channel":2,"type":"noteOn","noteNumber":57,"velocity":95},{"deltaTime":0,"channel":2,"type":"noteOn","noteNumber":52,"velocity":95},{"deltaTime":480,"channel":2,"type":"noteOff","noteNumber":57,"velocity":95},{"deltaTime":0,"channel":2,"type":"noteOff","noteNumber":52,"velocity":95},{"deltaTime":0,"channel":2,"type":"noteOn","noteNumber":50,"velocity":79},{"deltaTime":0,"channel":2,"type":"noteOn","noteNumber":45,"velocity":79},{"deltaTime":480,"channel":2,"type":"noteOff","noteNumber":50,"velocity":79},{"deltaTime":0,"channel":2,"type":"noteOff","noteNumber":45,"velocity":79},{"deltaTime":0,"channel":2,"type":"noteOn","noteNumber":62,"velocity":95},{"deltaTime":0,"channel":2,"type":"noteOn","noteNumber":57,"velocity":95},{"deltaTime":0,"channel":2,"type":"noteOn","noteNumber":50,"velocity":95},{"deltaTime":960,"channel":2,"type":"noteOff","noteNumber":57,"velocity":95},{"deltaTime":0,"channel":2,"type":"noteOff","noteNumber":50,"velocity":95},{"deltaTime":0,"channel":2,"type":"noteOn","noteNumber":57,"velocity":95},{"deltaTime":0,"channel":2,"type":"noteOn","noteNumber":52,"velocity":95},{"deltaTime":0,"channel":2,"type":"noteOn","noteNumber":45,"velocity":95},{"deltaTime":960,"channel":2,"type":"noteOff","noteNumber":57,"velocity":95},{"deltaTime":0,"channel":2,"type":"noteOff","noteNumber":52,"velocity":95},{"deltaTime":0,"channel":2,"type":"noteOff","noteNumber":45,"velocity":95},{"deltaTime":0,"channel":2,"type":"noteOn","noteNumber":40,"velocity":95},{"deltaTime":480,"channel":2,"type":"noteOff","noteNumber":40,"velocity":95},{"deltaTime":0,"channel":2,"type":"noteOn","noteNumber":64,"velocity":95},{"deltaTime":0,"channel":2,"type":"noteOn","noteNumber":59,"velocity":95},{"deltaTime":0,"channel":2,"type":"noteOn","noteNumber":52,"velocity":95},{"deltaTime":480,"channel":2,"type":"noteOff","noteNumber":64,"velocity":95},{"deltaTime":0,"channel":2,"type":"noteOff","noteNumber":59,"velocity":95},{"deltaTime":0,"channel":2,"type":"noteOff","noteNumber":52,"velocity":95},{"deltaTime":0,"channel":2,"type":"noteOn","noteNumber":57,"velocity":95},{"deltaTime":0,"channel":2,"type":"noteOn","noteNumber":52,"velocity":95},{"deltaTime":480,"channel":2,"type":"noteOff","noteNumber":57,"velocity":95},{"deltaTime":0,"channel":2,"type":"noteOff","noteNumber":52,"velocity":95},{"deltaTime":0,"channel":2,"type":"noteOn","noteNumber":64,"velocity":95},{"deltaTime":0,"channel":2,"type":"noteOn","noteNumber":59,"velocity":95},{"deltaTime":0,"channel":2,"type":"noteOn","noteNumber":52,"velocity":95},{"deltaTime":960,"channel":2,"type":"noteOff","noteNumber":64,"velocity":95},{"deltaTime":0,"channel":2,"type":"noteOff","noteNumber":59,"velocity":95},{"deltaTime":0,"channel":2,"type":"noteOff","noteNumber":52,"velocity":95},{"deltaTime":0,"channel":2,"type":"noteOn","noteNumber":64,"velocity":95},{"deltaTime":0,"channel":2,"type":"noteOn","noteNumber":59,"velocity":95},{"deltaTime":0,"channel":2,"type":"noteOn","noteNumber":52,"velocity":95},{"deltaTime":480,"channel":2,"type":"noteOff","noteNumber":64,"velocity":95},{"deltaTime":0,"channel":2,"type":"noteOff","noteNumber":59,"velocity":95},{"deltaTime":0,"channel":2,"type":"noteOff","noteNumber":52,"velocity":95},{"deltaTime":0,"channel":2,"type":"noteOn","noteNumber":57,"velocity":95},{"deltaTime":0,"channel":2,"type":"noteOn","noteNumber":52,"velocity":95},{"deltaTime":480,"channel":2,"type":"noteOff","noteNumber":57,"velocity":95},{"deltaTime":0,"channel":2,"type":"noteOff","noteNumber":52,"velocity":95},{"deltaTime":0,"channel":2,"type":"noteOn","noteNumber":64,"velocity":95},{"deltaTime":0,"channel":2,"type":"noteOn","noteNumber":59,"velocity":95},{"deltaTime":0,"channel":2,"type":"noteOn","noteNumber":52,"velocity":95},{"deltaTime":960,"channel":2,"type":"noteOff","noteNumber":62,"velocity":95},{"deltaTime":0,"channel":2,"type":"noteOff","noteNumber":64,"velocity":95},{"deltaTime":0,"channel":2,"type":"noteOff","noteNumber":59,"velocity":95},{"deltaTime":0,"channel":2,"type":"noteOff","noteNumber":52,"velocity":95},{"deltaTime":0,"channel":2,"type":"noteOn","noteNumber":64,"velocity":95},{"deltaTime":0,"channel":2,"type":"noteOn","noteNumber":59,"velocity":95},{"deltaTime":0,"channel":2,"type":"noteOn","noteNumber":52,"velocity":95},{"deltaTime":480,"channel":2,"type":"noteOff","noteNumber":64,"velocity":95},{"deltaTime":0,"channel":2,"type":"noteOff","noteNumber":59,"velocity":95},{"deltaTime":0,"channel":2,"type":"noteOff","noteNumber":52,"velocity":95},{"deltaTime":0,"channel":2,"type":"noteOn","noteNumber":57,"velocity":95},{"deltaTime":0,"channel":2,"type":"noteOn","noteNumber":52,"velocity":95},{"deltaTime":480,"channel":2,"type":"noteOff","noteNumber":57,"velocity":95},{"deltaTime":0,"channel":2,"type":"noteOff","noteNumber":52,"velocity":95},{"deltaTime":0,"channel":2,"type":"noteOn","noteNumber":50,"velocity":79},{"deltaTime":0,"channel":2,"type":"noteOn","noteNumber":45,"velocity":79},{"deltaTime":480,"channel":2,"type":"noteOff","noteNumber":50,"velocity":79},{"deltaTime":0,"channel":2,"type":"noteOff","noteNumber":45,"velocity":79},{"deltaTime":0,"channel":2,"type":"noteOn","noteNumber":62,"velocity":95},{"deltaTime":0,"channel":2,"type":"noteOn","noteNumber":55,"velocity":95},{"deltaTime":0,"channel":2,"type":"noteOn","noteNumber":50,"velocity":95},{"deltaTime":0,"channel":2,"type":"noteOn","noteNumber":45,"velocity":95},{"deltaTime":0,"channel":2,"type":"noteOn","noteNumber":43,"velocity":95},{"deltaTime":52,"channel":2,"type":"noteOff","noteNumber":45,"velocity":95},{"deltaTime":908,"channel":2,"type":"noteOff","noteNumber":62,"velocity":95},{"deltaTime":0,"channel":2,"type":"noteOff","noteNumber":55,"velocity":95},{"deltaTime":0,"channel":2,"type":"noteOff","noteNumber":50,"velocity":95},{"deltaTime":0,"channel":2,"type":"noteOff","noteNumber":43,"velocity":95},{"deltaTime":0,"channel":2,"type":"noteOn","noteNumber":62,"velocity":95},{"deltaTime":0,"channel":2,"type":"noteOn","noteNumber":55,"velocity":95},{"deltaTime":0,"channel":2,"type":"noteOn","noteNumber":50,"velocity":95},{"deltaTime":0,"channel":2,"type":"noteOn","noteNumber":45,"velocity":95},{"deltaTime":0,"channel":2,"type":"noteOn","noteNumber":43,"velocity":95},{"deltaTime":52,"channel":2,"type":"noteOff","noteNumber":45,"velocity":95},{"deltaTime":908,"channel":2,"type":"noteOff","noteNumber":62,"velocity":95},{"deltaTime":0,"channel":2,"type":"noteOff","noteNumber":55,"velocity":95},{"deltaTime":0,"channel":2,"type":"noteOff","noteNumber":50,"velocity":95},{"deltaTime":0,"channel":2,"type":"noteOff","noteNumber":43,"velocity":95},{"deltaTime":0,"channel":2,"type":"noteOn","noteNumber":45,"velocity":95},{"deltaTime":480,"channel":2,"type":"noteOff","noteNumber":45,"velocity":95},{"deltaTime":0,"channel":2,"type":"noteOn","noteNumber":64,"velocity":95},{"deltaTime":480,"channel":2,"type":"noteOff","noteNumber":64,"velocity":95},{"deltaTime":0,"channel":2,"type":"noteOn","noteNumber":57,"velocity":95},{"deltaTime":480,"channel":2,"type":"noteOff","noteNumber":57,"velocity":95},{"deltaTime":0,"channel":2,"type":"noteOn","noteNumber":62,"velocity":95},{"deltaTime":960,"channel":2,"type":"noteOff","noteNumber":62,"velocity":95},{"deltaTime":0,"channel":2,"type":"noteOn","noteNumber":57,"velocity":95},{"deltaTime":480,"channel":2,"type":"noteOff","noteNumber":57,"velocity":95},{"deltaTime":0,"channel":2,"type":"noteOn","noteNumber":45,"velocity":95},{"deltaTime":480,"channel":2,"type":"noteOff","noteNumber":45,"velocity":95},{"deltaTime":0,"channel":2,"type":"noteOn","noteNumber":60,"velocity":95},{"deltaTime":960,"channel":2,"type":"noteOff","noteNumber":60,"velocity":95},{"deltaTime":0,"channel":2,"type":"noteOn","noteNumber":55,"velocity":95},{"deltaTime":480,"channel":2,"type":"noteOff","noteNumber":55,"velocity":95},{"deltaTime":0,"channel":2,"type":"noteOn","noteNumber":45,"velocity":95},{"deltaTime":480,"channel":2,"type":"noteOff","noteNumber":45,"velocity":95},{"deltaTime":0,"channel":2,"type":"noteOn","noteNumber":62,"velocity":95},{"deltaTime":960,"channel":2,"type":"noteOff","noteNumber":62,"velocity":95},{"deltaTime":0,"channel":2,"type":"noteOn","noteNumber":57,"velocity":95},{"deltaTime":480,"channel":2,"type":"noteOff","noteNumber":57,"velocity":95},{"deltaTime":0,"channel":2,"type":"noteOn","noteNumber":45,"velocity":95},{"deltaTime":480,"channel":2,"type":"noteOff","noteNumber":45,"velocity":95},{"deltaTime":0,"channel":2,"type":"noteOn","noteNumber":45,"velocity":95},{"deltaTime":960,"channel":2,"type":"noteOff","noteNumber":45,"velocity":95},{"deltaTime":0,"channel":2,"type":"noteOn","noteNumber":64,"velocity":95},{"deltaTime":480,"channel":2,"type":"noteOff","noteNumber":64,"velocity":95},{"deltaTime":0,"channel":2,"type":"noteOn","noteNumber":57,"velocity":95},{"deltaTime":480,"channel":2,"type":"noteOff","noteNumber":57,"velocity":95},{"deltaTime":0,"channel":2,"type":"noteOn","noteNumber":62,"velocity":95},{"deltaTime":960,"channel":2,"type":"noteOff","noteNumber":62,"velocity":95},{"deltaTime":0,"channel":2,"type":"noteOn","noteNumber":57,"velocity":95},{"deltaTime":480,"channel":2,"type":"noteOff","noteNumber":57,"velocity":95},{"deltaTime":0,"channel":2,"type":"noteOn","noteNumber":45,"velocity":95},{"deltaTime":480,"channel":2,"type":"noteOff","noteNumber":45,"velocity":95},{"deltaTime":0,"channel":2,"type":"noteOn","noteNumber":60,"velocity":95},{"deltaTime":960,"channel":2,"type":"noteOff","noteNumber":60,"velocity":95},{"deltaTime":0,"channel":2,"type":"noteOn","noteNumber":55,"velocity":95},{"deltaTime":480,"channel":2,"type":"noteOff","noteNumber":55,"velocity":95},{"deltaTime":0,"channel":2,"type":"noteOn","noteNumber":45,"velocity":95},{"deltaTime":480,"channel":2,"type":"noteOff","noteNumber":45,"velocity":95},{"deltaTime":0,"channel":2,"type":"noteOn","noteNumber":62,"velocity":95},{"deltaTime":960,"channel":2,"type":"noteOff","noteNumber":62,"velocity":95},{"deltaTime":0,"channel":2,"type":"noteOn","noteNumber":55,"velocity":95},{"deltaTime":0,"channel":2,"type":"noteOn","noteNumber":48,"velocity":95},{"deltaTime":480,"channel":2,"type":"noteOff","noteNumber":55,"velocity":95},{"deltaTime":0,"channel":2,"type":"noteOff","noteNumber":48,"velocity":95},{"deltaTime":0,"channel":2,"type":"noteOn","noteNumber":55,"velocity":95},{"deltaTime":0,"channel":2,"type":"noteOn","noteNumber":47,"velocity":95},{"deltaTime":480,"channel":2,"type":"noteOff","noteNumber":55,"velocity":95},{"deltaTime":0,"channel":2,"type":"noteOff","noteNumber":47,"velocity":95},{"deltaTime":0,"channel":2,"type":"noteOn","noteNumber":45,"velocity":95},{"deltaTime":960,"channel":2,"type":"noteOff","noteNumber":45,"velocity":95},{"deltaTime":0,"channel":2,"type":"noteOn","noteNumber":64,"velocity":95},{"deltaTime":480,"channel":2,"type":"noteOff","noteNumber":64,"velocity":95},{"deltaTime":0,"channel":2,"type":"noteOn","noteNumber":57,"velocity":95},{"deltaTime":480,"channel":2,"type":"noteOff","noteNumber":57,"velocity":95},{"deltaTime":0,"channel":2,"type":"noteOn","noteNumber":62,"velocity":95},{"deltaTime":960,"channel":2,"type":"noteOff","noteNumber":62,"velocity":95},{"deltaTime":0,"channel":2,"type":"noteOn","noteNumber":57,"velocity":95},{"deltaTime":480,"channel":2,"type":"noteOff","noteNumber":57,"velocity":95},{"deltaTime":0,"channel":2,"type":"noteOn","noteNumber":45,"velocity":95},{"deltaTime":480,"channel":2,"type":"noteOff","noteNumber":45,"velocity":95},{"deltaTime":0,"channel":2,"type":"noteOn","noteNumber":60,"velocity":95},{"deltaTime":960,"channel":2,"type":"noteOff","noteNumber":60,"velocity":95},{"deltaTime":0,"channel":2,"type":"noteOn","noteNumber":55,"velocity":95},{"deltaTime":480,"channel":2,"type":"noteOff","noteNumber":55,"velocity":95},{"deltaTime":0,"channel":2,"type":"noteOn","noteNumber":45,"velocity":95},{"deltaTime":480,"channel":2,"type":"noteOff","noteNumber":45,"velocity":95},{"deltaTime":0,"channel":2,"type":"noteOn","noteNumber":62,"velocity":95},{"deltaTime":960,"channel":2,"type":"noteOff","noteNumber":62,"velocity":95},{"deltaTime":0,"channel":2,"type":"noteOn","noteNumber":57,"velocity":95},{"deltaTime":480,"channel":2,"type":"noteOff","noteNumber":57,"velocity":95},{"deltaTime":0,"channel":2,"type":"noteOn","noteNumber":45,"velocity":95},{"deltaTime":480,"channel":2,"type":"noteOff","noteNumber":45,"velocity":95},{"deltaTime":0,"channel":2,"type":"noteOn","noteNumber":45,"velocity":95},{"deltaTime":960,"channel":2,"type":"noteOff","noteNumber":45,"velocity":95},{"deltaTime":0,"channel":2,"type":"noteOn","noteNumber":64,"velocity":95},{"deltaTime":480,"channel":2,"type":"noteOff","noteNumber":64,"velocity":95},{"deltaTime":0,"channel":2,"type":"noteOn","noteNumber":57,"velocity":95},{"deltaTime":480,"channel":2,"type":"noteOff","noteNumber":57,"velocity":95},{"deltaTime":0,"channel":2,"type":"noteOn","noteNumber":62,"velocity":95},{"deltaTime":960,"channel":2,"type":"noteOff","noteNumber":62,"velocity":95},{"deltaTime":0,"channel":2,"type":"noteOn","noteNumber":57,"velocity":95},{"deltaTime":480,"channel":2,"type":"noteOff","noteNumber":57,"velocity":95},{"deltaTime":0,"channel":2,"type":"noteOn","noteNumber":45,"velocity":95},{"deltaTime":480,"channel":2,"type":"noteOff","noteNumber":45,"velocity":95},{"deltaTime":0,"channel":2,"type":"noteOn","noteNumber":62,"velocity":95},{"deltaTime":0,"channel":2,"type":"noteOn","noteNumber":55,"velocity":95},{"deltaTime":0,"channel":2,"type":"noteOn","noteNumber":50,"velocity":95},{"deltaTime":0,"channel":2,"type":"noteOn","noteNumber":45,"velocity":95},{"deltaTime":0,"channel":2,"type":"noteOn","noteNumber":43,"velocity":95},{"deltaTime":52,"channel":2,"type":"noteOff","noteNumber":45,"velocity":95},{"deltaTime":908,"channel":2,"type":"noteOff","noteNumber":62,"velocity":95},{"deltaTime":0,"channel":2,"type":"noteOff","noteNumber":55,"velocity":95},{"deltaTime":0,"channel":2,"type":"noteOff","noteNumber":50,"velocity":95},{"deltaTime":0,"channel":2,"type":"noteOff","noteNumber":43,"velocity":95},{"deltaTime":0,"channel":2,"type":"noteOn","noteNumber":62,"velocity":95},{"deltaTime":0,"channel":2,"type":"noteOn","noteNumber":55,"velocity":95},{"deltaTime":0,"channel":2,"type":"noteOn","noteNumber":50,"velocity":95},{"deltaTime":0,"channel":2,"type":"noteOn","noteNumber":43,"velocity":95},{"deltaTime":480,"channel":2,"type":"noteOff","noteNumber":62,"velocity":95},{"deltaTime":0,"channel":2,"type":"noteOff","noteNumber":55,"velocity":95},{"deltaTime":0,"channel":2,"type":"noteOff","noteNumber":50,"velocity":95},{"deltaTime":0,"channel":2,"type":"noteOff","noteNumber":43,"velocity":95},{"deltaTime":0,"channel":2,"type":"noteOn","noteNumber":50,"velocity":95},{"deltaTime":0,"channel":2,"type":"noteOn","noteNumber":45,"velocity":95},{"deltaTime":480,"channel":2,"type":"noteOff","noteNumber":50,"velocity":95},{"deltaTime":0,"channel":2,"type":"noteOff","noteNumber":45,"velocity":95},{"deltaTime":0,"channel":2,"type":"noteOn","noteNumber":62,"velocity":95},{"deltaTime":0,"channel":2,"type":"noteOn","noteNumber":57,"velocity":95},{"deltaTime":0,"channel":2,"type":"noteOn","noteNumber":50,"velocity":95},{"deltaTime":960,"channel":2,"type":"noteOff","noteNumber":62,"velocity":95},{"deltaTime":0,"channel":2,"type":"noteOff","noteNumber":50,"velocity":95},{"deltaTime":0,"channel":2,"type":"noteOn","noteNumber":55,"velocity":95},{"deltaTime":0,"channel":2,"type":"noteOn","noteNumber":48,"velocity":95},{"deltaTime":480,"channel":2,"type":"noteOff","noteNumber":55,"velocity":95},{"deltaTime":0,"channel":2,"type":"noteOff","noteNumber":48,"velocity":95},{"deltaTime":0,"channel":2,"type":"noteOn","noteNumber":55,"velocity":95},{"deltaTime":0,"channel":2,"type":"noteOn","noteNumber":47,"velocity":95},{"deltaTime":480,"channel":2,"type":"noteOff","noteNumber":55,"velocity":95},{"deltaTime":0,"channel":2,"type":"noteOff","noteNumber":47,"velocity":95},{"deltaTime":0,"channel":2,"type":"noteOn","noteNumber":52,"velocity":95},{"deltaTime":0,"channel":2,"type":"noteOn","noteNumber":45,"velocity":95},{"deltaTime":7200,"channel":2,"type":"noteOff","noteNumber":57,"velocity":95},{"deltaTime":0,"channel":2,"type":"noteOff","noteNumber":52,"velocity":95},{"deltaTime":0,"channel":2,"type":"noteOff","noteNumber":45,"velocity":95},{"deltaTime":0,"channel":2,"type":"noteOn","noteNumber":57,"velocity":95},{"deltaTime":0,"channel":2,"type":"noteOn","noteNumber":52,"velocity":95},{"deltaTime":0,"channel":2,"type":"noteOn","noteNumber":45,"velocity":95},{"deltaTime":8640,"channel":2,"type":"noteOff","noteNumber":57,"velocity":95},{"deltaTime":0,"channel":2,"type":"noteOff","noteNumber":52,"velocity":95},{"deltaTime":0,"channel":2,"type":"noteOff","noteNumber":45,"velocity":95},{"deltaTime":480,"channel":2,"type":"noteOn","noteNumber":57,"velocity":95},{"deltaTime":0,"channel":2,"type":"noteOn","noteNumber":52,"velocity":95},{"deltaTime":0,"channel":2,"type":"noteOn","noteNumber":45,"velocity":95},{"deltaTime":480,"channel":2,"type":"noteOff","noteNumber":57,"velocity":95},{"deltaTime":0,"channel":2,"type":"noteOff","noteNumber":52,"velocity":95},{"deltaTime":0,"channel":2,"type":"noteOff","noteNumber":45,"velocity":95},{"deltaTime":0,"channel":3,"type":"pitchBend","value":0},{"deltaTime":0,"channel":3,"type":"noteOn","noteNumber":43,"velocity":95},{"deltaTime":120,"channel":3,"type":"pitchBend","value":128},{"deltaTime":120,"channel":3,"type":"pitchBend","value":256},{"deltaTime":0,"channel":3,"type":"pitchBend","value":256},{"deltaTime":240,"channel":3,"type":"pitchBend","value":256},{"deltaTime":0,"channel":3,"type":"pitchBend","value":0},{"deltaTime":0,"channel":3,"type":"noteOff","noteNumber":43,"velocity":95},{"deltaTime":0,"channel":2,"type":"noteOn","noteNumber":57,"velocity":95},{"deltaTime":0,"channel":2,"type":"noteOn","noteNumber":52,"velocity":95},{"deltaTime":0,"channel":2,"type":"noteOn","noteNumber":45,"velocity":95},{"deltaTime":1920,"channel":2,"type":"noteOff","noteNumber":57,"velocity":95},{"deltaTime":0,"channel":2,"type":"noteOff","noteNumber":52,"velocity":95},{"deltaTime":0,"channel":2,"type":"noteOff","noteNumber":45,"velocity":95},{"deltaTime":0,"channel":2,"type":"noteOn","noteNumber":64,"velocity":95},{"deltaTime":0,"channel":2,"type":"noteOn","noteNumber":60,"velocity":95},{"deltaTime":0,"channel":2,"type":"noteOn","noteNumber":55,"velocity":95},{"deltaTime":0,"channel":2,"type":"noteOn","noteNumber":48,"velocity":95},{"deltaTime":480,"channel":2,"type":"noteOff","noteNumber":64,"velocity":95},{"deltaTime":1440,"channel":2,"type":"noteOff","noteNumber":60,"velocity":95},{"deltaTime":0,"channel":2,"type":"noteOff","noteNumber":55,"velocity":95},{"deltaTime":0,"channel":2,"type":"noteOff","noteNumber":48,"velocity":95},{"deltaTime":0,"channel":2,"type":"noteOn","noteNumber":62,"velocity":95},{"deltaTime":0,"channel":2,"type":"noteOn","noteNumber":57,"velocity":95},{"deltaTime":0,"channel":2,"type":"noteOn","noteNumber":50,"velocity":95},{"deltaTime":2880,"channel":2,"type":"noteOff","noteNumber":62,"velocity":95},{"deltaTime":0,"channel":2,"type":"noteOff","noteNumber":57,"velocity":95},{"deltaTime":0,"channel":2,"type":"noteOff","noteNumber":50,"velocity":95},{"deltaTime":0,"channel":2,"type":"noteOn","noteNumber":57,"velocity":95},{"deltaTime":0,"channel":2,"type":"noteOn","noteNumber":52,"velocity":95},{"deltaTime":0,"channel":2,"type":"noteOn","noteNumber":45,"velocity":95},{"deltaTime":480,"channel":2,"type":"noteOff","noteNumber":57,"velocity":95},{"deltaTime":0,"channel":2,"type":"noteOff","noteNumber":52,"velocity":95},{"deltaTime":0,"channel":2,"type":"noteOff","noteNumber":45,"velocity":95},{"deltaTime":0,"channel":3,"type":"pitchBend","value":0},{"deltaTime":0,"channel":3,"type":"noteOn","noteNumber":43,"velocity":95},{"deltaTime":120,"channel":3,"type":"pitchBend","value":128},{"deltaTime":120,"channel":3,"type":"pitchBend","value":256},{"deltaTime":0,"channel":3,"type":"pitchBend","value":256},{"deltaTime":240,"channel":3,"type":"pitchBend","value":256},{"deltaTime":0,"channel":3,"type":"pitchBend","value":0},{"deltaTime":0,"channel":3,"type":"noteOff","noteNumber":43,"velocity":95},{"deltaTime":0,"channel":2,"type":"noteOn","noteNumber":57,"velocity":95},{"deltaTime":0,"channel":2,"type":"noteOn","noteNumber":52,"velocity":95},{"deltaTime":0,"channel":2,"type":"noteOn","noteNumber":45,"velocity":95},{"deltaTime":1920,"channel":2,"type":"noteOff","noteNumber":57,"velocity":95},{"deltaTime":0,"channel":2,"type":"noteOff","noteNumber":52,"velocity":95},{"deltaTime":0,"channel":2,"type":"noteOff","noteNumber":45,"velocity":95},{"deltaTime":0,"channel":2,"type":"noteOn","noteNumber":64,"velocity":95},{"deltaTime":0,"channel":2,"type":"noteOn","noteNumber":60,"velocity":95},{"deltaTime":0,"channel":2,"type":"noteOn","noteNumber":55,"velocity":95},{"deltaTime":0,"channel":2,"type":"noteOn","noteNumber":48,"velocity":95},{"deltaTime":1920,"channel":2,"type":"noteOff","noteNumber":64,"velocity":95},{"deltaTime":0,"channel":2,"type":"noteOff","noteNumber":60,"velocity":95},{"deltaTime":0,"channel":2,"type":"noteOff","noteNumber":55,"velocity":95},{"deltaTime":0,"channel":2,"type":"noteOff","noteNumber":48,"velocity":95},{"deltaTime":0,"channel":2,"type":"noteOn","noteNumber":62,"velocity":95},{"deltaTime":0,"channel":2,"type":"noteOn","noteNumber":57,"velocity":95},{"deltaTime":0,"channel":2,"type":"noteOn","noteNumber":50,"velocity":95},{"deltaTime":2880,"channel":2,"type":"noteOff","noteNumber":62,"velocity":95},{"deltaTime":0,"channel":2,"type":"noteOff","noteNumber":57,"velocity":95},{"deltaTime":0,"channel":2,"type":"noteOff","noteNumber":50,"velocity":95},{"deltaTime":0,"channel":2,"type":"noteOn","noteNumber":57,"velocity":95},{"deltaTime":0,"channel":2,"type":"noteOn","noteNumber":52,"velocity":95},{"deltaTime":0,"channel":2,"type":"noteOn","noteNumber":45,"velocity":95},{"deltaTime":480,"channel":2,"type":"noteOff","noteNumber":57,"velocity":95},{"deltaTime":0,"channel":2,"type":"noteOff","noteNumber":52,"velocity":95},{"deltaTime":0,"channel":2,"type":"noteOff","noteNumber":45,"velocity":95},{"deltaTime":0,"channel":3,"type":"pitchBend","value":0},{"deltaTime":0,"channel":3,"type":"noteOn","noteNumber":43,"velocity":95},{"deltaTime":120,"channel":3,"type":"pitchBend","value":128},{"deltaTime":120,"channel":3,"type":"pitchBend","value":256},{"deltaTime":0,"channel":3,"type":"pitchBend","value":256},{"deltaTime":240,"channel":3,"type":"pitchBend","value":256},{"deltaTime":0,"channel":3,"type":"pitchBend","value":0},{"deltaTime":0,"channel":3,"type":"noteOff","noteNumber":43,"velocity":95},{"deltaTime":0,"channel":2,"type":"noteOn","noteNumber":57,"velocity":95},{"deltaTime":0,"channel":2,"type":"noteOn","noteNumber":52,"velocity":95},{"deltaTime":0,"channel":2,"type":"noteOn","noteNumber":45,"velocity":95},{"deltaTime":1920,"channel":2,"type":"noteOff","noteNumber":57,"velocity":95},{"deltaTime":0,"channel":2,"type":"noteOff","noteNumber":52,"velocity":95},{"deltaTime":0,"channel":2,"type":"noteOff","noteNumber":45,"velocity":95},{"deltaTime":0,"channel":2,"type":"noteOn","noteNumber":64,"velocity":95},{"deltaTime":0,"channel":2,"type":"noteOn","noteNumber":60,"velocity":95},{"deltaTime":0,"channel":2,"type":"noteOn","noteNumber":55,"velocity":95},{"deltaTime":0,"channel":2,"type":"noteOn","noteNumber":48,"velocity":95},{"deltaTime":480,"channel":2,"type":"noteOff","noteNumber":64,"velocity":95},{"deltaTime":1440,"channel":2,"type":"noteOff","noteNumber":60,"velocity":95},{"deltaTime":0,"channel":2,"type":"noteOff","noteNumber":55,"velocity":95},{"deltaTime":0,"channel":2,"type":"noteOn","noteNumber":62,"velocity":95},{"deltaTime":0,"channel":2,"type":"noteOn","noteNumber":57,"velocity":95},{"deltaTime":0,"channel":2,"type":"noteOn","noteNumber":50,"velocity":95},{"deltaTime":2400,"channel":2,"type":"noteOff","noteNumber":48,"velocity":95},{"deltaTime":480,"channel":2,"type":"noteOff","noteNumber":62,"velocity":95},{"deltaTime":0,"channel":2,"type":"noteOff","noteNumber":57,"velocity":95},{"deltaTime":0,"channel":2,"type":"noteOff","noteNumber":50,"velocity":95},{"deltaTime":0,"channel":2,"type":"noteOn","noteNumber":57,"velocity":95},{"deltaTime":0,"channel":2,"type":"noteOn","noteNumber":52,"velocity":95},{"deltaTime":0,"channel":2,"type":"noteOn","noteNumber":45,"velocity":95},{"deltaTime":480,"channel":2,"type":"noteOff","noteNumber":57,"velocity":95},{"deltaTime":0,"channel":2,"type":"noteOff","noteNumber":52,"velocity":95},{"deltaTime":0,"channel":2,"type":"noteOff","noteNumber":45,"velocity":95},{"deltaTime":0,"channel":3,"type":"pitchBend","value":0},{"deltaTime":0,"channel":3,"type":"noteOn","noteNumber":43,"velocity":95},{"deltaTime":120,"channel":3,"type":"pitchBend","value":128},{"deltaTime":120,"channel":3,"type":"pitchBend","value":256},{"deltaTime":0,"channel":3,"type":"pitchBend","value":256},{"deltaTime":240,"channel":3,"type":"pitchBend","value":256},{"deltaTime":0,"channel":3,"type":"pitchBend","value":0},{"deltaTime":0,"channel":3,"type":"noteOff","noteNumber":43,"velocity":95},{"deltaTime":0,"channel":2,"type":"noteOn","noteNumber":57,"velocity":95},{"deltaTime":0,"channel":2,"type":"noteOn","noteNumber":52,"velocity":95},{"deltaTime":0,"channel":2,"type":"noteOn","noteNumber":45,"velocity":95},{"deltaTime":1920,"channel":2,"type":"noteOff","noteNumber":57,"velocity":95},{"deltaTime":0,"channel":2,"type":"noteOff","noteNumber":52,"velocity":95},{"deltaTime":0,"channel":2,"type":"noteOff","noteNumber":45,"velocity":95},{"deltaTime":0,"channel":2,"type":"noteOn","noteNumber":64,"velocity":95},{"deltaTime":0,"channel":2,"type":"noteOn","noteNumber":60,"velocity":95},{"deltaTime":0,"channel":2,"type":"noteOn","noteNumber":55,"velocity":95},{"deltaTime":0,"channel":2,"type":"noteOn","noteNumber":48,"velocity":95},{"deltaTime":480,"channel":2,"type":"noteOff","noteNumber":64,"velocity":95},{"deltaTime":1440,"channel":2,"type":"noteOff","noteNumber":60,"velocity":95},{"deltaTime":0,"channel":2,"type":"noteOff","noteNumber":55,"velocity":95},{"deltaTime":0,"channel":2,"type":"noteOn","noteNumber":62,"velocity":95},{"deltaTime":0,"channel":2,"type":"noteOn","noteNumber":57,"velocity":95},{"deltaTime":0,"channel":2,"type":"noteOn","noteNumber":50,"velocity":95},{"deltaTime":480,"channel":2,"type":"noteOff","noteNumber":62,"velocity":95},{"deltaTime":480,"channel":2,"type":"noteOff","noteNumber":48,"velocity":95},{"deltaTime":0,"channel":2,"type":"noteOff","noteNumber":57,"velocity":95},{"deltaTime":0,"channel":2,"type":"noteOff","noteNumber":50,"velocity":95},{"deltaTime":0,"channel":2,"type":"noteOn","noteNumber":62,"velocity":95},{"deltaTime":0,"channel":2,"type":"noteOn","noteNumber":57,"velocity":95},{"deltaTime":0,"channel":2,"type":"noteOn","noteNumber":50,"velocity":95},{"deltaTime":480,"channel":2,"type":"noteOff","noteNumber":62,"velocity":95},{"deltaTime":0,"channel":2,"type":"noteOff","noteNumber":57,"velocity":95},{"deltaTime":0,"channel":2,"type":"noteOff","noteNumber":50,"velocity":95},{"deltaTime":0,"channel":2,"type":"noteOn","noteNumber":62,"velocity":95},{"deltaTime":0,"channel":2,"type":"noteOn","noteNumber":57,"velocity":95},{"deltaTime":0,"channel":2,"type":"noteOn","noteNumber":50,"velocity":95},{"deltaTime":480,"channel":2,"type":"noteOff","noteNumber":62,"velocity":95},{"deltaTime":0,"channel":2,"type":"noteOff","noteNumber":57,"velocity":95},{"deltaTime":0,"channel":2,"type":"noteOff","noteNumber":50,"velocity":95},{"deltaTime":0,"channel":2,"type":"noteOn","noteNumber":62,"velocity":95},{"deltaTime":0,"channel":2,"type":"noteOn","noteNumber":57,"velocity":95},{"deltaTime":0,"channel":2,"type":"noteOn","noteNumber":50,"velocity":95},{"deltaTime":480,"channel":2,"type":"noteOff","noteNumber":62,"velocity":95},{"deltaTime":0,"channel":2,"type":"noteOff","noteNumber":57,"velocity":95},{"deltaTime":0,"channel":2,"type":"noteOff","noteNumber":50,"velocity":95},{"deltaTime":0,"channel":2,"type":"noteOn","noteNumber":50,"velocity":95},{"deltaTime":480,"channel":2,"type":"noteOff","noteNumber":50,"velocity":95},{"deltaTime":0,"channel":2,"type":"noteOn","noteNumber":62,"velocity":95},{"deltaTime":0,"channel":2,"type":"noteOn","noteNumber":57,"velocity":95},{"deltaTime":0,"channel":2,"type":"noteOn","noteNumber":50,"velocity":95},{"deltaTime":480,"channel":2,"type":"noteOff","noteNumber":62,"velocity":95},{"deltaTime":0,"channel":2,"type":"noteOff","noteNumber":57,"velocity":95},{"deltaTime":0,"channel":2,"type":"noteOff","noteNumber":50,"velocity":95},{"deltaTime":0,"channel":2,"type":"noteOn","noteNumber":55,"velocity":95},{"deltaTime":0,"channel":2,"type":"noteOn","noteNumber":50,"velocity":95},{"deltaTime":480,"channel":2,"type":"noteOff","noteNumber":55,"velocity":95},{"deltaTime":0,"channel":2,"type":"noteOff","noteNumber":50,"velocity":95},{"deltaTime":0,"channel":2,"type":"noteOn","noteNumber":62,"velocity":95},{"deltaTime":0,"channel":2,"type":"noteOn","noteNumber":57,"velocity":95},{"deltaTime":0,"channel":2,"type":"noteOn","noteNumber":50,"velocity":95},{"deltaTime":960,"channel":2,"type":"noteOff","noteNumber":62,"velocity":95},{"deltaTime":0,"channel":2,"type":"noteOff","noteNumber":57,"velocity":95},{"deltaTime":0,"channel":2,"type":"noteOff","noteNumber":50,"velocity":95},{"deltaTime":0,"channel":2,"type":"noteOn","noteNumber":62,"velocity":95},{"deltaTime":0,"channel":2,"type":"noteOn","noteNumber":57,"velocity":95},{"deltaTime":0,"channel":2,"type":"noteOn","noteNumber":50,"velocity":95},{"deltaTime":480,"channel":2,"type":"noteOff","noteNumber":62,"velocity":95},{"deltaTime":0,"channel":2,"type":"noteOff","noteNumber":57,"velocity":95},{"deltaTime":0,"channel":2,"type":"noteOff","noteNumber":50,"velocity":95},{"deltaTime":0,"channel":2,"type":"noteOn","noteNumber":62,"velocity":95},{"deltaTime":0,"channel":2,"type":"noteOn","noteNumber":55,"velocity":95},{"deltaTime":0,"channel":2,"type":"noteOn","noteNumber":50,"velocity":95},{"deltaTime":480,"channel":2,"type":"noteOff","noteNumber":62,"velocity":95},{"deltaTime":0,"channel":2,"type":"noteOff","noteNumber":55,"velocity":95},{"deltaTime":0,"channel":2,"type":"noteOff","noteNumber":50,"velocity":95},{"deltaTime":0,"channel":2,"type":"noteOn","noteNumber":62,"velocity":95},{"deltaTime":0,"channel":2,"type":"noteOn","noteNumber":57,"velocity":95},{"deltaTime":0,"channel":2,"type":"noteOn","noteNumber":50,"velocity":95},{"deltaTime":960,"channel":2,"type":"noteOff","noteNumber":62,"velocity":95},{"deltaTime":0,"channel":2,"type":"noteOff","noteNumber":57,"velocity":95},{"deltaTime":0,"channel":2,"type":"noteOff","noteNumber":50,"velocity":95},{"deltaTime":0,"channel":2,"type":"noteOn","noteNumber":62,"velocity":95},{"deltaTime":0,"channel":2,"type":"noteOn","noteNumber":57,"velocity":95},{"deltaTime":0,"channel":2,"type":"noteOn","noteNumber":50,"velocity":95},{"deltaTime":480,"channel":2,"type":"noteOff","noteNumber":62,"velocity":95},{"deltaTime":0,"channel":2,"type":"noteOff","noteNumber":57,"velocity":95},{"deltaTime":0,"channel":2,"type":"noteOff","noteNumber":50,"velocity":95},{"deltaTime":0,"channel":2,"type":"noteOn","noteNumber":62,"velocity":95},{"deltaTime":0,"channel":2,"type":"noteOn","noteNumber":57,"velocity":95},{"deltaTime":0,"channel":2,"type":"noteOn","noteNumber":50,"velocity":95},{"deltaTime":480,"channel":2,"type":"noteOff","noteNumber":62,"velocity":95},{"deltaTime":0,"channel":2,"type":"noteOff","noteNumber":57,"velocity":95},{"deltaTime":0,"channel":2,"type":"noteOff","noteNumber":50,"velocity":95},{"deltaTime":0,"channel":2,"type":"noteOn","noteNumber":55,"velocity":95},{"deltaTime":0,"channel":2,"type":"noteOn","noteNumber":50,"velocity":95},{"deltaTime":480,"channel":2,"type":"noteOff","noteNumber":55,"velocity":95},{"deltaTime":0,"channel":2,"type":"noteOff","noteNumber":50,"velocity":95},{"deltaTime":0,"channel":2,"type":"noteOn","noteNumber":60,"velocity":95},{"deltaTime":0,"channel":2,"type":"noteOn","noteNumber":55,"velocity":95},{"deltaTime":0,"channel":2,"type":"noteOn","noteNumber":48,"velocity":95},{"deltaTime":960,"channel":2,"type":"noteOff","noteNumber":60,"velocity":95},{"deltaTime":0,"channel":2,"type":"noteOff","noteNumber":55,"velocity":95},{"deltaTime":0,"channel":2,"type":"noteOff","noteNumber":48,"velocity":95},{"deltaTime":0,"channel":2,"type":"noteOn","noteNumber":62,"velocity":95},{"deltaTime":0,"channel":2,"type":"noteOn","noteNumber":55,"velocity":95},{"deltaTime":0,"channel":2,"type":"noteOn","noteNumber":50,"velocity":95},{"deltaTime":0,"channel":2,"type":"noteOn","noteNumber":45,"velocity":95},{"deltaTime":0,"channel":2,"type":"noteOn","noteNumber":43,"velocity":95},{"deltaTime":52,"channel":2,"type":"noteOff","noteNumber":45,"velocity":95},{"deltaTime":908,"channel":2,"type":"noteOff","noteNumber":62,"velocity":95},{"deltaTime":0,"channel":2,"type":"noteOff","noteNumber":55,"velocity":95},{"deltaTime":0,"channel":2,"type":"noteOff","noteNumber":50,"velocity":95},{"deltaTime":0,"channel":2,"type":"noteOff","noteNumber":43,"velocity":95},{"deltaTime":0,"channel":2,"type":"noteOn","noteNumber":62,"velocity":95},{"deltaTime":0,"channel":2,"type":"noteOn","noteNumber":57,"velocity":95},{"deltaTime":0,"channel":2,"type":"noteOn","noteNumber":50,"velocity":95},{"deltaTime":480,"channel":2,"type":"noteOff","noteNumber":62,"velocity":95},{"deltaTime":0,"channel":2,"type":"noteOff","noteNumber":57,"velocity":95},{"deltaTime":0,"channel":2,"type":"noteOff","noteNumber":50,"velocity":95},{"deltaTime":0,"channel":2,"type":"noteOn","noteNumber":62,"velocity":95},{"deltaTime":0,"channel":2,"type":"noteOn","noteNumber":57,"velocity":95},{"deltaTime":0,"channel":2,"type":"noteOn","noteNumber":50,"velocity":95},{"deltaTime":480,"channel":2,"type":"noteOff","noteNumber":62,"velocity":95},{"deltaTime":0,"channel":2,"type":"noteOff","noteNumber":57,"velocity":95},{"deltaTime":0,"channel":2,"type":"noteOff","noteNumber":50,"velocity":95},{"deltaTime":0,"channel":2,"type":"noteOn","noteNumber":62,"velocity":95},{"deltaTime":0,"channel":2,"type":"noteOn","noteNumber":55,"velocity":95},{"deltaTime":0,"channel":2,"type":"noteOn","noteNumber":50,"velocity":95},{"deltaTime":480,"channel":2,"type":"noteOff","noteNumber":62,"velocity":95},{"deltaTime":0,"channel":2,"type":"noteOff","noteNumber":55,"velocity":95},{"deltaTime":0,"channel":2,"type":"noteOff","noteNumber":50,"velocity":95},{"deltaTime":0,"channel":2,"type":"noteOn","noteNumber":62,"velocity":95},{"deltaTime":0,"channel":2,"type":"noteOn","noteNumber":57,"velocity":95},{"deltaTime":0,"channel":2,"type":"noteOn","noteNumber":50,"velocity":95},{"deltaTime":960,"channel":2,"type":"noteOff","noteNumber":62,"velocity":95},{"deltaTime":0,"channel":2,"type":"noteOff","noteNumber":57,"velocity":95},{"deltaTime":0,"channel":2,"type":"noteOff","noteNumber":50,"velocity":95},{"deltaTime":0,"channel":2,"type":"noteOn","noteNumber":62,"velocity":95},{"deltaTime":0,"channel":2,"type":"noteOn","noteNumber":57,"velocity":95},{"deltaTime":0,"channel":2,"type":"noteOn","noteNumber":50,"velocity":95},{"deltaTime":480,"channel":2,"type":"noteOff","noteNumber":62,"velocity":95},{"deltaTime":0,"channel":2,"type":"noteOff","noteNumber":57,"velocity":95},{"deltaTime":0,"channel":2,"type":"noteOff","noteNumber":50,"velocity":95},{"deltaTime":0,"channel":2,"type":"noteOn","noteNumber":59,"velocity":79},{"deltaTime":0,"channel":2,"type":"noteOn","noteNumber":55,"velocity":95},{"deltaTime":0,"channel":2,"type":"noteOn","noteNumber":50,"velocity":95},{"deltaTime":480,"channel":2,"type":"noteOff","noteNumber":59,"velocity":79},{"deltaTime":0,"channel":2,"type":"noteOff","noteNumber":55,"velocity":95},{"deltaTime":0,"channel":2,"type":"noteOff","noteNumber":50,"velocity":95},{"deltaTime":0,"channel":2,"type":"noteOn","noteNumber":62,"velocity":95},{"deltaTime":0,"channel":2,"type":"noteOn","noteNumber":57,"velocity":95},{"deltaTime":0,"channel":2,"type":"noteOn","noteNumber":50,"velocity":95},{"deltaTime":960,"channel":2,"type":"noteOff","noteNumber":62,"velocity":95},{"deltaTime":0,"channel":2,"type":"noteOff","noteNumber":57,"velocity":95},{"deltaTime":0,"channel":2,"type":"noteOff","noteNumber":50,"velocity":95},{"deltaTime":0,"channel":2,"type":"noteOn","noteNumber":62,"velocity":95},{"deltaTime":0,"channel":2,"type":"noteOn","noteNumber":57,"velocity":95},{"deltaTime":0,"channel":2,"type":"noteOn","noteNumber":50,"velocity":95},{"deltaTime":480,"channel":2,"type":"noteOff","noteNumber":62,"velocity":95},{"deltaTime":0,"channel":2,"type":"noteOff","noteNumber":57,"velocity":95},{"deltaTime":0,"channel":2,"type":"noteOff","noteNumber":50,"velocity":95},{"deltaTime":0,"channel":2,"type":"noteOn","noteNumber":62,"velocity":95},{"deltaTime":0,"channel":2,"type":"noteOn","noteNumber":57,"velocity":95},{"deltaTime":0,"channel":2,"type":"noteOn","noteNumber":50,"velocity":95},{"deltaTime":480,"channel":2,"type":"noteOff","noteNumber":62,"velocity":95},{"deltaTime":0,"channel":2,"type":"noteOff","noteNumber":57,"velocity":95},{"deltaTime":0,"channel":2,"type":"noteOff","noteNumber":50,"velocity":95},{"deltaTime":0,"channel":2,"type":"noteOn","noteNumber":59,"velocity":95},{"deltaTime":0,"channel":2,"type":"noteOn","noteNumber":55,"velocity":95},{"deltaTime":0,"channel":2,"type":"noteOn","noteNumber":50,"velocity":95},{"deltaTime":480,"channel":2,"type":"noteOff","noteNumber":59,"velocity":95},{"deltaTime":0,"channel":2,"type":"noteOff","noteNumber":55,"velocity":95},{"deltaTime":0,"channel":2,"type":"noteOff","noteNumber":50,"velocity":95},{"deltaTime":0,"channel":2,"type":"noteOn","noteNumber":60,"velocity":95},{"deltaTime":0,"channel":2,"type":"noteOn","noteNumber":55,"velocity":95},{"deltaTime":0,"channel":2,"type":"noteOn","noteNumber":48,"velocity":95},{"deltaTime":960,"channel":2,"type":"noteOff","noteNumber":60,"velocity":95},{"deltaTime":0,"channel":2,"type":"noteOff","noteNumber":55,"velocity":95},{"deltaTime":0,"channel":2,"type":"noteOff","noteNumber":48,"velocity":95},{"deltaTime":0,"channel":2,"type":"noteOn","noteNumber":62,"velocity":95},{"deltaTime":0,"channel":2,"type":"noteOn","noteNumber":55,"velocity":95},{"deltaTime":0,"channel":2,"type":"noteOn","noteNumber":50,"velocity":95},{"deltaTime":0,"channel":2,"type":"noteOn","noteNumber":45,"velocity":95},{"deltaTime":0,"channel":2,"type":"noteOn","noteNumber":43,"velocity":95},{"deltaTime":52,"channel":2,"type":"noteOff","noteNumber":45,"velocity":95},{"deltaTime":908,"channel":2,"type":"noteOff","noteNumber":62,"velocity":95},{"deltaTime":0,"channel":2,"type":"noteOff","noteNumber":55,"velocity":95},{"deltaTime":0,"channel":2,"type":"noteOff","noteNumber":50,"velocity":95},{"deltaTime":0,"channel":2,"type":"noteOff","noteNumber":43,"velocity":95},{"deltaTime":0,"channel":2,"type":"noteOn","noteNumber":40,"velocity":95},{"deltaTime":480,"channel":2,"type":"noteOff","noteNumber":40,"velocity":95},{"deltaTime":0,"channel":2,"type":"noteOn","noteNumber":64,"velocity":95},{"deltaTime":0,"channel":2,"type":"noteOn","noteNumber":59,"velocity":95},{"deltaTime":0,"channel":2,"type":"noteOn","noteNumber":52,"velocity":95},{"deltaTime":480,"channel":2,"type":"noteOff","noteNumber":64,"velocity":95},{"deltaTime":0,"channel":2,"type":"noteOff","noteNumber":59,"velocity":95},{"deltaTime":0,"channel":2,"type":"noteOff","noteNumber":52,"velocity":95},{"deltaTime":0,"channel":2,"type":"noteOn","noteNumber":57,"velocity":95},{"deltaTime":0,"channel":2,"type":"noteOn","noteNumber":52,"velocity":95},{"deltaTime":0,"channel":2,"type":"noteOn","noteNumber":40,"velocity":95},{"deltaTime":480,"channel":2,"type":"noteOff","noteNumber":57,"velocity":95},{"deltaTime":0,"channel":2,"type":"noteOff","noteNumber":52,"velocity":95},{"deltaTime":0,"channel":2,"type":"noteOff","noteNumber":40,"velocity":95},{"deltaTime":0,"channel":2,"type":"noteOn","noteNumber":64,"velocity":95},{"deltaTime":0,"channel":2,"type":"noteOn","noteNumber":59,"velocity":95},{"deltaTime":0,"channel":2,"type":"noteOn","noteNumber":52,"velocity":95},{"deltaTime":960,"channel":2,"type":"noteOff","noteNumber":64,"velocity":95},{"deltaTime":0,"channel":2,"type":"noteOff","noteNumber":59,"velocity":95},{"deltaTime":0,"channel":2,"type":"noteOff","noteNumber":52,"velocity":95},{"deltaTime":0,"channel":2,"type":"noteOn","noteNumber":64,"velocity":95},{"deltaTime":0,"channel":2,"type":"noteOn","noteNumber":59,"velocity":95},{"deltaTime":0,"channel":2,"type":"noteOn","noteNumber":52,"velocity":95},{"deltaTime":480,"channel":2,"type":"noteOff","noteNumber":64,"velocity":95},{"deltaTime":0,"channel":2,"type":"noteOff","noteNumber":59,"velocity":95},{"deltaTime":0,"channel":2,"type":"noteOff","noteNumber":52,"velocity":95},{"deltaTime":0,"channel":2,"type":"noteOn","noteNumber":57,"velocity":95},{"deltaTime":0,"channel":2,"type":"noteOn","noteNumber":52,"velocity":95},{"deltaTime":0,"channel":2,"type":"noteOn","noteNumber":40,"velocity":95},{"deltaTime":480,"channel":2,"type":"noteOff","noteNumber":57,"velocity":95},{"deltaTime":0,"channel":2,"type":"noteOff","noteNumber":52,"velocity":95},{"deltaTime":0,"channel":2,"type":"noteOff","noteNumber":40,"velocity":95},{"deltaTime":0,"channel":2,"type":"noteOn","noteNumber":64,"velocity":95},{"deltaTime":0,"channel":2,"type":"noteOn","noteNumber":59,"velocity":95},{"deltaTime":0,"channel":2,"type":"noteOn","noteNumber":52,"velocity":95},{"deltaTime":960,"channel":2,"type":"noteOff","noteNumber":64,"velocity":95},{"deltaTime":0,"channel":2,"type":"noteOff","noteNumber":59,"velocity":95},{"deltaTime":0,"channel":2,"type":"noteOff","noteNumber":52,"velocity":95},{"deltaTime":0,"channel":2,"type":"noteOn","noteNumber":64,"velocity":95},{"deltaTime":0,"channel":2,"type":"noteOn","noteNumber":59,"velocity":95},{"deltaTime":0,"channel":2,"type":"noteOn","noteNumber":52,"velocity":95},{"deltaTime":480,"channel":2,"type":"noteOff","noteNumber":64,"velocity":95},{"deltaTime":0,"channel":2,"type":"noteOff","noteNumber":59,"velocity":95},{"deltaTime":0,"channel":2,"type":"noteOff","noteNumber":52,"velocity":95},{"deltaTime":0,"channel":2,"type":"noteOn","noteNumber":64,"velocity":95},{"deltaTime":0,"channel":2,"type":"noteOn","noteNumber":59,"velocity":95},{"deltaTime":0,"channel":2,"type":"noteOn","noteNumber":52,"velocity":95},{"deltaTime":480,"channel":2,"type":"noteOff","noteNumber":64,"velocity":95},{"deltaTime":0,"channel":2,"type":"noteOff","noteNumber":59,"velocity":95},{"deltaTime":0,"channel":2,"type":"noteOff","noteNumber":52,"velocity":95},{"deltaTime":0,"channel":2,"type":"noteOn","noteNumber":55,"velocity":95},{"deltaTime":0,"channel":2,"type":"noteOn","noteNumber":50,"velocity":95},{"deltaTime":480,"channel":2,"type":"noteOff","noteNumber":55,"velocity":95},{"deltaTime":0,"channel":2,"type":"noteOff","noteNumber":50,"velocity":95},{"deltaTime":0,"channel":2,"type":"noteOn","noteNumber":62,"velocity":95},{"deltaTime":0,"channel":2,"type":"noteOn","noteNumber":57,"velocity":95},{"deltaTime":0,"channel":2,"type":"noteOn","noteNumber":50,"velocity":95},{"deltaTime":960,"channel":2,"type":"noteOff","noteNumber":62,"velocity":95},{"deltaTime":0,"channel":2,"type":"noteOff","noteNumber":57,"velocity":95},{"deltaTime":0,"channel":2,"type":"noteOff","noteNumber":50,"velocity":95},{"deltaTime":0,"channel":2,"type":"noteOn","noteNumber":57,"velocity":95},{"deltaTime":0,"channel":2,"type":"noteOn","noteNumber":52,"velocity":95},{"deltaTime":0,"channel":2,"type":"noteOn","noteNumber":45,"velocity":95},{"deltaTime":960,"channel":2,"type":"noteOff","noteNumber":57,"velocity":95},{"deltaTime":0,"channel":2,"type":"noteOff","noteNumber":52,"velocity":95},{"deltaTime":0,"channel":2,"type":"noteOff","noteNumber":45,"velocity":95},{"deltaTime":0,"channel":2,"type":"noteOn","noteNumber":40,"velocity":95},{"deltaTime":480,"channel":2,"type":"noteOff","noteNumber":40,"velocity":95},{"deltaTime":0,"channel":2,"type":"noteOn","noteNumber":64,"velocity":95},{"deltaTime":0,"channel":2,"type":"noteOn","noteNumber":59,"velocity":95},{"deltaTime":0,"channel":2,"type":"noteOn","noteNumber":52,"velocity":95},{"deltaTime":480,"channel":2,"type":"noteOff","noteNumber":64,"velocity":95},{"deltaTime":0,"channel":2,"type":"noteOff","noteNumber":59,"velocity":95},{"deltaTime":0,"channel":2,"type":"noteOff","noteNumber":52,"velocity":95},{"deltaTime":0,"channel":2,"type":"noteOn","noteNumber":57,"velocity":95},{"deltaTime":0,"channel":2,"type":"noteOn","noteNumber":52,"velocity":95},{"deltaTime":0,"channel":2,"type":"noteOn","noteNumber":40,"velocity":95},{"deltaTime":480,"channel":2,"type":"noteOff","noteNumber":57,"velocity":95},{"deltaTime":0,"channel":2,"type":"noteOff","noteNumber":52,"velocity":95},{"deltaTime":0,"channel":2,"type":"noteOff","noteNumber":40,"velocity":95},{"deltaTime":0,"channel":2,"type":"noteOn","noteNumber":64,"velocity":95},{"deltaTime":0,"channel":2,"type":"noteOn","noteNumber":59,"velocity":95},{"deltaTime":0,"channel":2,"type":"noteOn","noteNumber":52,"velocity":95},{"deltaTime":960,"channel":2,"type":"noteOff","noteNumber":64,"velocity":95},{"deltaTime":0,"channel":2,"type":"noteOff","noteNumber":59,"velocity":95},{"deltaTime":0,"channel":2,"type":"noteOff","noteNumber":52,"velocity":95},{"deltaTime":0,"channel":2,"type":"noteOn","noteNumber":64,"velocity":95},{"deltaTime":0,"channel":2,"type":"noteOn","noteNumber":59,"velocity":95},{"deltaTime":0,"channel":2,"type":"noteOn","noteNumber":52,"velocity":95},{"deltaTime":480,"channel":2,"type":"noteOff","noteNumber":64,"velocity":95},{"deltaTime":0,"channel":2,"type":"noteOff","noteNumber":59,"velocity":95},{"deltaTime":0,"channel":2,"type":"noteOff","noteNumber":52,"velocity":95},{"deltaTime":0,"channel":2,"type":"noteOn","noteNumber":57,"velocity":95},{"deltaTime":0,"channel":2,"type":"noteOn","noteNumber":52,"velocity":95},{"deltaTime":0,"channel":2,"type":"noteOn","noteNumber":40,"velocity":95},{"deltaTime":480,"channel":2,"type":"noteOff","noteNumber":57,"velocity":95},{"deltaTime":0,"channel":2,"type":"noteOff","noteNumber":52,"velocity":95},{"deltaTime":0,"channel":2,"type":"noteOff","noteNumber":40,"velocity":95},{"deltaTime":0,"channel":2,"type":"noteOn","noteNumber":64,"velocity":95},{"deltaTime":0,"channel":2,"type":"noteOn","noteNumber":59,"velocity":95},{"deltaTime":0,"channel":2,"type":"noteOn","noteNumber":52,"velocity":95},{"deltaTime":960,"channel":2,"type":"noteOff","noteNumber":64,"velocity":95},{"deltaTime":0,"channel":2,"type":"noteOff","noteNumber":59,"velocity":95},{"deltaTime":0,"channel":2,"type":"noteOff","noteNumber":52,"velocity":95},{"deltaTime":0,"channel":2,"type":"noteOn","noteNumber":64,"velocity":95},{"deltaTime":0,"channel":2,"type":"noteOn","noteNumber":59,"velocity":95},{"deltaTime":0,"channel":2,"type":"noteOn","noteNumber":52,"velocity":95},{"deltaTime":480,"channel":2,"type":"noteOff","noteNumber":64,"velocity":95},{"deltaTime":0,"channel":2,"type":"noteOff","noteNumber":59,"velocity":95},{"deltaTime":0,"channel":2,"type":"noteOff","noteNumber":52,"velocity":95},{"deltaTime":0,"channel":2,"type":"noteOn","noteNumber":64,"velocity":95},{"deltaTime":0,"channel":2,"type":"noteOn","noteNumber":59,"velocity":95},{"deltaTime":0,"channel":2,"type":"noteOn","noteNumber":52,"velocity":95},{"deltaTime":480,"channel":2,"type":"noteOff","noteNumber":64,"velocity":95},{"deltaTime":0,"channel":2,"type":"noteOff","noteNumber":59,"velocity":95},{"deltaTime":0,"channel":2,"type":"noteOff","noteNumber":52,"velocity":95},{"deltaTime":0,"channel":2,"type":"noteOn","noteNumber":55,"velocity":95},{"deltaTime":0,"channel":2,"type":"noteOn","noteNumber":50,"velocity":95},{"deltaTime":480,"channel":2,"type":"noteOff","noteNumber":55,"velocity":95},{"deltaTime":0,"channel":2,"type":"noteOff","noteNumber":50,"velocity":95},{"deltaTime":0,"channel":2,"type":"noteOn","noteNumber":62,"velocity":95},{"deltaTime":0,"channel":2,"type":"noteOn","noteNumber":55,"velocity":95},{"deltaTime":0,"channel":2,"type":"noteOn","noteNumber":50,"velocity":95},{"deltaTime":0,"channel":2,"type":"noteOn","noteNumber":45,"velocity":95},{"deltaTime":0,"channel":2,"type":"noteOn","noteNumber":43,"velocity":95},{"deltaTime":52,"channel":2,"type":"noteOff","noteNumber":45,"velocity":95},{"deltaTime":908,"channel":2,"type":"noteOff","noteNumber":62,"velocity":95},{"deltaTime":0,"channel":2,"type":"noteOff","noteNumber":55,"velocity":95},{"deltaTime":0,"channel":2,"type":"noteOff","noteNumber":50,"velocity":95},{"deltaTime":0,"channel":2,"type":"noteOff","noteNumber":43,"velocity":95},{"deltaTime":0,"channel":2,"type":"noteOn","noteNumber":62,"velocity":95},{"deltaTime":0,"channel":2,"type":"noteOn","noteNumber":55,"velocity":95},{"deltaTime":0,"channel":2,"type":"noteOn","noteNumber":50,"velocity":95},{"deltaTime":0,"channel":2,"type":"noteOn","noteNumber":45,"velocity":95},{"deltaTime":0,"channel":2,"type":"noteOn","noteNumber":43,"velocity":95},{"deltaTime":52,"channel":2,"type":"noteOff","noteNumber":45,"velocity":95},{"deltaTime":908,"channel":2,"type":"noteOff","noteNumber":62,"velocity":95},{"deltaTime":0,"channel":2,"type":"noteOff","noteNumber":55,"velocity":95},{"deltaTime":0,"channel":2,"type":"noteOff","noteNumber":50,"velocity":95},{"deltaTime":0,"channel":2,"type":"noteOff","noteNumber":43,"velocity":95},{"deltaTime":0,"channel":2,"type":"noteOn","noteNumber":45,"velocity":95},{"deltaTime":480,"channel":2,"type":"noteOff","noteNumber":45,"velocity":95},{"deltaTime":0,"channel":2,"type":"noteOn","noteNumber":64,"velocity":95},{"deltaTime":480,"channel":2,"type":"noteOff","noteNumber":64,"velocity":95},{"deltaTime":0,"channel":2,"type":"noteOn","noteNumber":57,"velocity":95},{"deltaTime":480,"channel":2,"type":"noteOff","noteNumber":57,"velocity":95},{"deltaTime":0,"channel":2,"type":"noteOn","noteNumber":62,"velocity":95},{"deltaTime":960,"channel":2,"type":"noteOff","noteNumber":62,"velocity":95},{"deltaTime":0,"channel":2,"type":"noteOn","noteNumber":57,"velocity":95},{"deltaTime":480,"channel":2,"type":"noteOff","noteNumber":57,"velocity":95},{"deltaTime":0,"channel":2,"type":"noteOn","noteNumber":45,"velocity":95},{"deltaTime":480,"channel":2,"type":"noteOff","noteNumber":45,"velocity":95},{"deltaTime":0,"channel":2,"type":"noteOn","noteNumber":60,"velocity":95},{"deltaTime":960,"channel":2,"type":"noteOff","noteNumber":60,"velocity":95},{"deltaTime":0,"channel":2,"type":"noteOn","noteNumber":55,"velocity":95},{"deltaTime":480,"channel":2,"type":"noteOff","noteNumber":55,"velocity":95},{"deltaTime":0,"channel":2,"type":"noteOn","noteNumber":45,"velocity":95},{"deltaTime":480,"channel":2,"type":"noteOff","noteNumber":45,"velocity":95},{"deltaTime":0,"channel":2,"type":"noteOn","noteNumber":62,"velocity":95},{"deltaTime":960,"channel":2,"type":"noteOff","noteNumber":62,"velocity":95},{"deltaTime":0,"channel":2,"type":"noteOn","noteNumber":57,"velocity":95},{"deltaTime":480,"channel":2,"type":"noteOff","noteNumber":57,"velocity":95},{"deltaTime":0,"channel":2,"type":"noteOn","noteNumber":45,"velocity":95},{"deltaTime":480,"channel":2,"type":"noteOff","noteNumber":45,"velocity":95},{"deltaTime":0,"channel":2,"type":"noteOn","noteNumber":45,"velocity":95},{"deltaTime":960,"channel":2,"type":"noteOff","noteNumber":45,"velocity":95},{"deltaTime":0,"channel":2,"type":"noteOn","noteNumber":64,"velocity":95},{"deltaTime":480,"channel":2,"type":"noteOff","noteNumber":64,"velocity":95},{"deltaTime":0,"channel":2,"type":"noteOn","noteNumber":57,"velocity":95},{"deltaTime":480,"channel":2,"type":"noteOff","noteNumber":57,"velocity":95},{"deltaTime":0,"channel":2,"type":"noteOn","noteNumber":62,"velocity":95},{"deltaTime":960,"channel":2,"type":"noteOff","noteNumber":62,"velocity":95},{"deltaTime":0,"channel":2,"type":"noteOn","noteNumber":57,"velocity":95},{"deltaTime":480,"channel":2,"type":"noteOff","noteNumber":57,"velocity":95},{"deltaTime":0,"channel":2,"type":"noteOn","noteNumber":45,"velocity":95},{"deltaTime":480,"channel":2,"type":"noteOff","noteNumber":45,"velocity":95},{"deltaTime":0,"channel":2,"type":"noteOn","noteNumber":60,"velocity":95},{"deltaTime":960,"channel":2,"type":"noteOff","noteNumber":60,"velocity":95},{"deltaTime":0,"channel":2,"type":"noteOn","noteNumber":55,"velocity":95},{"deltaTime":480,"channel":2,"type":"noteOff","noteNumber":55,"velocity":95},{"deltaTime":0,"channel":2,"type":"noteOn","noteNumber":45,"velocity":95},{"deltaTime":480,"channel":2,"type":"noteOff","noteNumber":45,"velocity":95},{"deltaTime":0,"channel":2,"type":"noteOn","noteNumber":62,"velocity":95},{"deltaTime":960,"channel":2,"type":"noteOff","noteNumber":62,"velocity":95},{"deltaTime":0,"channel":2,"type":"noteOn","noteNumber":55,"velocity":95},{"deltaTime":0,"channel":2,"type":"noteOn","noteNumber":48,"velocity":95},{"deltaTime":480,"channel":2,"type":"noteOff","noteNumber":55,"velocity":95},{"deltaTime":0,"channel":2,"type":"noteOff","noteNumber":48,"velocity":95},{"deltaTime":0,"channel":2,"type":"noteOn","noteNumber":55,"velocity":95},{"deltaTime":0,"channel":2,"type":"noteOn","noteNumber":47,"velocity":95},{"deltaTime":480,"channel":2,"type":"noteOff","noteNumber":55,"velocity":95},{"deltaTime":0,"channel":2,"type":"noteOff","noteNumber":47,"velocity":95},{"deltaTime":0,"channel":2,"type":"noteOn","noteNumber":45,"velocity":95},{"deltaTime":480,"channel":2,"type":"noteOff","noteNumber":45,"velocity":95},{"deltaTime":0,"channel":2,"type":"noteOn","noteNumber":45,"velocity":95},{"deltaTime":480,"channel":2,"type":"noteOff","noteNumber":45,"velocity":95},{"deltaTime":0,"channel":2,"type":"noteOn","noteNumber":64,"velocity":95},{"deltaTime":480,"channel":2,"type":"noteOff","noteNumber":64,"velocity":95},{"deltaTime":0,"channel":2,"type":"noteOn","noteNumber":57,"velocity":95},{"deltaTime":480,"channel":2,"type":"noteOff","noteNumber":57,"velocity":95},{"deltaTime":0,"channel":2,"type":"noteOn","noteNumber":62,"velocity":95},{"deltaTime":960,"channel":2,"type":"noteOff","noteNumber":62,"velocity":95},{"deltaTime":0,"channel":2,"type":"noteOn","noteNumber":57,"velocity":95},{"deltaTime":480,"channel":2,"type":"noteOff","noteNumber":57,"velocity":95},{"deltaTime":0,"channel":2,"type":"noteOn","noteNumber":45,"velocity":95},{"deltaTime":480,"channel":2,"type":"noteOff","noteNumber":45,"velocity":95},{"deltaTime":0,"channel":2,"type":"noteOn","noteNumber":60,"velocity":95},{"deltaTime":960,"channel":2,"type":"noteOff","noteNumber":60,"velocity":95},{"deltaTime":0,"channel":2,"type":"noteOn","noteNumber":55,"velocity":95},{"deltaTime":480,"channel":2,"type":"noteOff","noteNumber":55,"velocity":95},{"deltaTime":0,"channel":2,"type":"noteOn","noteNumber":45,"velocity":95},{"deltaTime":480,"channel":2,"type":"noteOff","noteNumber":45,"velocity":95},{"deltaTime":0,"channel":2,"type":"noteOn","noteNumber":62,"velocity":95},{"deltaTime":960,"channel":2,"type":"noteOff","noteNumber":62,"velocity":95},{"deltaTime":0,"channel":2,"type":"noteOn","noteNumber":57,"velocity":95},{"deltaTime":480,"channel":2,"type":"noteOff","noteNumber":57,"velocity":95},{"deltaTime":0,"channel":2,"type":"noteOn","noteNumber":45,"velocity":95},{"deltaTime":480,"channel":2,"type":"noteOff","noteNumber":45,"velocity":95},{"deltaTime":0,"channel":2,"type":"noteOn","noteNumber":45,"velocity":95},{"deltaTime":960,"channel":2,"type":"noteOff","noteNumber":45,"velocity":95},{"deltaTime":0,"channel":2,"type":"noteOn","noteNumber":64,"velocity":95},{"deltaTime":480,"channel":2,"type":"noteOff","noteNumber":64,"velocity":95},{"deltaTime":0,"channel":2,"type":"noteOn","noteNumber":45,"velocity":95},{"deltaTime":480,"channel":2,"type":"noteOff","noteNumber":45,"velocity":95},{"deltaTime":0,"channel":2,"type":"noteOn","noteNumber":62,"velocity":95},{"deltaTime":960,"channel":2,"type":"noteOff","noteNumber":62,"velocity":95},{"deltaTime":0,"channel":2,"type":"noteOn","noteNumber":57,"velocity":95},{"deltaTime":480,"channel":2,"type":"noteOff","noteNumber":57,"velocity":95},{"deltaTime":0,"channel":2,"type":"noteOn","noteNumber":45,"velocity":95},{"deltaTime":480,"channel":2,"type":"noteOff","noteNumber":45,"velocity":95},{"deltaTime":0,"channel":2,"type":"noteOn","noteNumber":64,"velocity":95},{"deltaTime":0,"channel":2,"type":"noteOn","noteNumber":60,"velocity":95},{"deltaTime":0,"channel":2,"type":"noteOn","noteNumber":55,"velocity":95},{"deltaTime":0,"channel":2,"type":"noteOn","noteNumber":48,"velocity":95},{"deltaTime":960,"channel":2,"type":"noteOff","noteNumber":64,"velocity":95},{"deltaTime":0,"channel":2,"type":"noteOff","noteNumber":60,"velocity":95},{"deltaTime":0,"channel":2,"type":"noteOff","noteNumber":55,"velocity":95},{"deltaTime":0,"channel":2,"type":"noteOff","noteNumber":48,"velocity":95},{"deltaTime":0,"channel":2,"type":"noteOn","noteNumber":64,"velocity":95},{"deltaTime":0,"channel":2,"type":"noteOn","noteNumber":60,"velocity":95},{"deltaTime":0,"channel":2,"type":"noteOn","noteNumber":55,"velocity":95},{"deltaTime":0,"channel":2,"type":"noteOn","noteNumber":48,"velocity":95},{"deltaTime":480,"channel":2,"type":"noteOff","noteNumber":64,"velocity":95},{"deltaTime":0,"channel":2,"type":"noteOff","noteNumber":60,"velocity":95},{"deltaTime":0,"channel":2,"type":"noteOff","noteNumber":55,"velocity":95},{"deltaTime":0,"channel":2,"type":"noteOff","noteNumber":48,"velocity":95},{"deltaTime":0,"channel":2,"type":"noteOn","noteNumber":59,"velocity":95},{"deltaTime":0,"channel":2,"type":"noteOn","noteNumber":55,"velocity":95},{"deltaTime":0,"channel":2,"type":"noteOn","noteNumber":50,"velocity":95},{"deltaTime":0,"channel":2,"type":"noteOn","noteNumber":45,"velocity":95},{"deltaTime":52,"channel":2,"type":"noteOff","noteNumber":59,"velocity":95},{"deltaTime":0,"channel":2,"type":"noteOff","noteNumber":55,"velocity":95},{"deltaTime":0,"channel":2,"type":"noteOff","noteNumber":50,"velocity":95},{"deltaTime":0,"channel":2,"type":"noteOff","noteNumber":45,"velocity":95},{"deltaTime":428,"channel":2,"type":"noteOn","noteNumber":62,"velocity":95},{"deltaTime":0,"channel":2,"type":"noteOn","noteNumber":57,"velocity":95},{"deltaTime":0,"channel":2,"type":"noteOn","noteNumber":50,"velocity":95},{"deltaTime":960,"channel":2,"type":"noteOff","noteNumber":62,"velocity":95},{"deltaTime":0,"channel":2,"type":"noteOff","noteNumber":57,"velocity":95},{"deltaTime":0,"channel":2,"type":"noteOff","noteNumber":50,"velocity":95},{"deltaTime":0,"channel":2,"type":"noteOn","noteNumber":55,"velocity":95},{"deltaTime":0,"channel":2,"type":"noteOn","noteNumber":48,"velocity":95},{"deltaTime":480,"channel":2,"type":"noteOff","noteNumber":55,"velocity":95},{"deltaTime":0,"channel":2,"type":"noteOff","noteNumber":48,"velocity":95},{"deltaTime":0,"channel":2,"type":"noteOn","noteNumber":55,"velocity":95},{"deltaTime":0,"channel":2,"type":"noteOn","noteNumber":47,"velocity":95},{"deltaTime":480,"channel":2,"type":"noteOff","noteNumber":55,"velocity":95},{"deltaTime":0,"channel":2,"type":"noteOff","noteNumber":47,"velocity":95},{"deltaTime":0,"channel":2,"type":"noteOn","noteNumber":45,"velocity":95},{"deltaTime":960,"channel":2,"type":"noteOff","noteNumber":45,"velocity":95},{"deltaTime":0,"channel":2,"type":"noteOn","noteNumber":64,"velocity":95},{"deltaTime":480,"channel":2,"type":"noteOff","noteNumber":64,"velocity":95},{"deltaTime":0,"channel":2,"type":"noteOn","noteNumber":57,"velocity":95},{"deltaTime":480,"channel":2,"type":"noteOff","noteNumber":57,"velocity":95},{"deltaTime":0,"channel":2,"type":"noteOn","noteNumber":62,"velocity":95},{"deltaTime":960,"channel":2,"type":"noteOff","noteNumber":62,"velocity":95},{"deltaTime":0,"channel":2,"type":"noteOn","noteNumber":57,"velocity":95},{"deltaTime":480,"channel":2,"type":"noteOff","noteNumber":57,"velocity":95},{"deltaTime":0,"channel":2,"type":"noteOn","noteNumber":45,"velocity":95},{"deltaTime":480,"channel":2,"type":"noteOff","noteNumber":45,"velocity":95},{"deltaTime":0,"channel":2,"type":"noteOn","noteNumber":60,"velocity":95},{"deltaTime":960,"channel":2,"type":"noteOff","noteNumber":60,"velocity":95},{"deltaTime":0,"channel":2,"type":"noteOn","noteNumber":55,"velocity":95},{"deltaTime":480,"channel":2,"type":"noteOff","noteNumber":55,"velocity":95},{"deltaTime":0,"channel":2,"type":"noteOn","noteNumber":45,"velocity":95},{"deltaTime":480,"channel":2,"type":"noteOff","noteNumber":45,"velocity":95},{"deltaTime":0,"channel":2,"type":"noteOn","noteNumber":62,"velocity":95},{"deltaTime":960,"channel":2,"type":"noteOff","noteNumber":62,"velocity":95},{"deltaTime":0,"channel":2,"type":"noteOn","noteNumber":57,"velocity":95},{"deltaTime":480,"channel":2,"type":"noteOn","noteNumber":45,"velocity":95},{"deltaTime":480,"channel":2,"type":"noteOff","noteNumber":45,"velocity":95},{"deltaTime":0,"channel":2,"type":"noteOn","noteNumber":45,"velocity":95},{"deltaTime":960,"channel":2,"type":"noteOff","noteNumber":45,"velocity":95},{"deltaTime":0,"channel":2,"type":"noteOn","noteNumber":64,"velocity":95},{"deltaTime":480,"channel":2,"type":"noteOff","noteNumber":64,"velocity":95},{"deltaTime":0,"channel":2,"type":"noteOn","noteNumber":45,"velocity":95},{"deltaTime":480,"channel":2,"type":"noteOff","noteNumber":45,"velocity":95},{"deltaTime":0,"channel":2,"type":"noteOn","noteNumber":62,"velocity":95},{"deltaTime":960,"channel":2,"type":"noteOff","noteNumber":57,"velocity":95},{"deltaTime":0,"channel":2,"type":"noteOff","noteNumber":62,"velocity":95},{"deltaTime":0,"channel":2,"type":"noteOn","noteNumber":57,"velocity":95},{"deltaTime":480,"channel":2,"type":"noteOff","noteNumber":57,"velocity":95},{"deltaTime":0,"channel":2,"type":"noteOn","noteNumber":45,"velocity":95},{"deltaTime":480,"channel":2,"type":"noteOff","noteNumber":45,"velocity":95},{"deltaTime":0,"channel":2,"type":"noteOn","noteNumber":64,"velocity":95},{"deltaTime":0,"channel":2,"type":"noteOn","noteNumber":60,"velocity":95},{"deltaTime":0,"channel":2,"type":"noteOn","noteNumber":55,"velocity":95},{"deltaTime":0,"channel":2,"type":"noteOn","noteNumber":48,"velocity":95},{"deltaTime":960,"channel":2,"type":"noteOff","noteNumber":64,"velocity":95},{"deltaTime":0,"channel":2,"type":"noteOff","noteNumber":60,"velocity":95},{"deltaTime":0,"channel":2,"type":"noteOff","noteNumber":55,"velocity":95},{"deltaTime":0,"channel":2,"type":"noteOff","noteNumber":48,"velocity":95},{"deltaTime":0,"channel":2,"type":"noteOn","noteNumber":64,"velocity":95},{"deltaTime":0,"channel":2,"type":"noteOn","noteNumber":60,"velocity":95},{"deltaTime":0,"channel":2,"type":"noteOn","noteNumber":55,"velocity":95},{"deltaTime":0,"channel":2,"type":"noteOn","noteNumber":48,"velocity":95},{"deltaTime":480,"channel":2,"type":"noteOff","noteNumber":64,"velocity":95},{"deltaTime":0,"channel":2,"type":"noteOff","noteNumber":60,"velocity":95},{"deltaTime":0,"channel":2,"type":"noteOff","noteNumber":55,"velocity":95},{"deltaTime":0,"channel":2,"type":"noteOff","noteNumber":48,"velocity":95},{"deltaTime":0,"channel":2,"type":"noteOn","noteNumber":59,"velocity":95},{"deltaTime":0,"channel":2,"type":"noteOn","noteNumber":55,"velocity":95},{"deltaTime":0,"channel":2,"type":"noteOn","noteNumber":50,"velocity":95},{"deltaTime":0,"channel":2,"type":"noteOn","noteNumber":45,"velocity":95},{"deltaTime":52,"channel":2,"type":"noteOff","noteNumber":59,"velocity":95},{"deltaTime":0,"channel":2,"type":"noteOff","noteNumber":55,"velocity":95},{"deltaTime":0,"channel":2,"type":"noteOff","noteNumber":50,"velocity":95},{"deltaTime":0,"channel":2,"type":"noteOff","noteNumber":45,"velocity":95},{"deltaTime":428,"channel":2,"type":"noteOn","noteNumber":62,"velocity":95},{"deltaTime":0,"channel":2,"type":"noteOn","noteNumber":57,"velocity":95},{"deltaTime":0,"channel":2,"type":"noteOn","noteNumber":50,"velocity":95},{"deltaTime":960,"channel":2,"type":"noteOff","noteNumber":62,"velocity":95},{"deltaTime":0,"channel":2,"type":"noteOff","noteNumber":57,"velocity":95},{"deltaTime":0,"channel":2,"type":"noteOff","noteNumber":50,"velocity":95},{"deltaTime":0,"channel":2,"type":"noteOn","noteNumber":55,"velocity":95},{"deltaTime":0,"channel":2,"type":"noteOn","noteNumber":48,"velocity":95},{"deltaTime":480,"channel":2,"type":"noteOff","noteNumber":55,"velocity":95},{"deltaTime":0,"channel":2,"type":"noteOff","noteNumber":48,"velocity":95},{"deltaTime":0,"channel":2,"type":"noteOn","noteNumber":55,"velocity":95},{"deltaTime":0,"channel":2,"type":"noteOn","noteNumber":47,"velocity":95},{"deltaTime":480,"channel":2,"type":"noteOff","noteNumber":55,"velocity":95},{"deltaTime":0,"channel":2,"type":"noteOff","noteNumber":47,"velocity":95},{"deltaTime":0,"channel":2,"type":"noteOn","noteNumber":45,"velocity":95},{"deltaTime":960,"channel":2,"type":"noteOff","noteNumber":45,"velocity":95},{"deltaTime":0,"channel":2,"type":"noteOn","noteNumber":64,"velocity":95},{"deltaTime":480,"channel":2,"type":"noteOff","noteNumber":64,"velocity":95},{"deltaTime":0,"channel":2,"type":"noteOn","noteNumber":57,"velocity":95},{"deltaTime":480,"channel":2,"type":"noteOff","noteNumber":57,"velocity":95},{"deltaTime":0,"channel":2,"type":"noteOn","noteNumber":62,"velocity":95},{"deltaTime":960,"channel":2,"type":"noteOff","noteNumber":62,"velocity":95},{"deltaTime":0,"channel":2,"type":"noteOn","noteNumber":57,"velocity":95},{"deltaTime":480,"channel":2,"type":"noteOff","noteNumber":57,"velocity":95},{"deltaTime":0,"channel":2,"type":"noteOn","noteNumber":45,"velocity":95},{"deltaTime":480,"channel":2,"type":"noteOff","noteNumber":45,"velocity":95},{"deltaTime":0,"channel":2,"type":"noteOn","noteNumber":60,"velocity":95},{"deltaTime":960,"channel":2,"type":"noteOff","noteNumber":60,"velocity":95},{"deltaTime":0,"channel":2,"type":"noteOn","noteNumber":55,"velocity":95},{"deltaTime":480,"channel":2,"type":"noteOff","noteNumber":55,"velocity":95},{"deltaTime":0,"channel":2,"type":"noteOn","noteNumber":45,"velocity":95},{"deltaTime":480,"channel":2,"type":"noteOff","noteNumber":45,"velocity":95},{"deltaTime":0,"channel":2,"type":"noteOn","noteNumber":62,"velocity":95},{"deltaTime":960,"channel":2,"type":"noteOff","noteNumber":62,"velocity":95},{"deltaTime":0,"channel":2,"type":"noteOn","noteNumber":57,"velocity":95},{"deltaTime":480,"channel":2,"type":"noteOff","noteNumber":57,"velocity":95},{"deltaTime":0,"channel":2,"type":"noteOn","noteNumber":45,"velocity":95},{"deltaTime":480,"channel":2,"type":"noteOff","noteNumber":45,"velocity":95},{"deltaTime":0,"channel":2,"type":"noteOn","noteNumber":45,"velocity":95},{"deltaTime":960,"channel":2,"type":"noteOff","noteNumber":45,"velocity":95},{"deltaTime":0,"channel":2,"type":"noteOn","noteNumber":64,"velocity":95},{"deltaTime":480,"channel":2,"type":"noteOff","noteNumber":64,"velocity":95},{"deltaTime":0,"channel":2,"type":"noteOn","noteNumber":45,"velocity":95},{"deltaTime":480,"channel":2,"type":"noteOff","noteNumber":45,"velocity":95},{"deltaTime":0,"channel":2,"type":"noteOn","noteNumber":62,"velocity":95},{"deltaTime":960,"channel":2,"type":"noteOff","noteNumber":62,"velocity":95},{"deltaTime":0,"channel":2,"type":"noteOn","noteNumber":57,"velocity":95},{"deltaTime":480,"channel":2,"type":"noteOff","noteNumber":57,"velocity":95},{"deltaTime":0,"channel":2,"type":"noteOn","noteNumber":45,"velocity":95},{"deltaTime":480,"channel":2,"type":"noteOff","noteNumber":45,"velocity":95},{"deltaTime":0,"channel":2,"type":"noteOn","noteNumber":64,"velocity":95},{"deltaTime":0,"channel":2,"type":"noteOn","noteNumber":60,"velocity":95},{"deltaTime":0,"channel":2,"type":"noteOn","noteNumber":55,"velocity":95},{"deltaTime":0,"channel":2,"type":"noteOn","noteNumber":48,"velocity":95},{"deltaTime":960,"channel":2,"type":"noteOff","noteNumber":64,"velocity":95},{"deltaTime":0,"channel":2,"type":"noteOff","noteNumber":60,"velocity":95},{"deltaTime":0,"channel":2,"type":"noteOff","noteNumber":55,"velocity":95},{"deltaTime":0,"channel":2,"type":"noteOff","noteNumber":48,"velocity":95},{"deltaTime":0,"channel":2,"type":"noteOn","noteNumber":64,"velocity":95},{"deltaTime":0,"channel":2,"type":"noteOn","noteNumber":60,"velocity":95},{"deltaTime":0,"channel":2,"type":"noteOn","noteNumber":55,"velocity":95},{"deltaTime":0,"channel":2,"type":"noteOn","noteNumber":48,"velocity":95},{"deltaTime":480,"channel":2,"type":"noteOff","noteNumber":64,"velocity":95},{"deltaTime":0,"channel":2,"type":"noteOff","noteNumber":60,"velocity":95},{"deltaTime":0,"channel":2,"type":"noteOff","noteNumber":55,"velocity":95},{"deltaTime":0,"channel":2,"type":"noteOff","noteNumber":48,"velocity":95},{"deltaTime":0,"channel":2,"type":"noteOn","noteNumber":64,"velocity":95},{"deltaTime":0,"channel":2,"type":"noteOn","noteNumber":59,"velocity":95},{"deltaTime":0,"channel":2,"type":"noteOn","noteNumber":55,"velocity":95},{"deltaTime":480,"channel":2,"type":"noteOff","noteNumber":64,"velocity":95},{"deltaTime":0,"channel":2,"type":"noteOff","noteNumber":59,"velocity":95},{"deltaTime":0,"channel":2,"type":"noteOff","noteNumber":55,"velocity":95},{"deltaTime":0,"channel":2,"type":"noteOn","noteNumber":62,"velocity":95},{"deltaTime":0,"channel":2,"type":"noteOn","noteNumber":57,"velocity":95},{"deltaTime":0,"channel":2,"type":"noteOn","noteNumber":50,"velocity":95},{"deltaTime":480,"channel":2,"type":"noteOff","noteNumber":62,"velocity":95},{"deltaTime":480,"channel":2,"type":"noteOff","noteNumber":57,"velocity":95},{"deltaTime":0,"channel":2,"type":"noteOff","noteNumber":50,"velocity":95},{"deltaTime":0,"channel":2,"type":"noteOn","noteNumber":62,"velocity":95},{"deltaTime":0,"channel":2,"type":"noteOn","noteNumber":57,"velocity":95},{"deltaTime":0,"channel":2,"type":"noteOn","noteNumber":50,"velocity":95},{"deltaTime":480,"channel":2,"type":"noteOff","noteNumber":62,"velocity":95},{"deltaTime":0,"channel":2,"type":"noteOff","noteNumber":57,"velocity":95},{"deltaTime":0,"channel":2,"type":"noteOff","noteNumber":50,"velocity":95},{"deltaTime":0,"channel":2,"type":"noteOn","noteNumber":64,"velocity":95},{"deltaTime":480,"channel":2,"type":"noteOff","noteNumber":64,"velocity":95},{"deltaTime":0,"channel":2,"type":"noteOn","noteNumber":62,"velocity":95},{"deltaTime":0,"channel":2,"type":"noteOn","noteNumber":57,"velocity":95},{"deltaTime":0,"channel":2,"type":"noteOn","noteNumber":50,"velocity":95},{"deltaTime":480,"channel":2,"type":"noteOff","noteNumber":62,"velocity":95},{"deltaTime":0,"channel":2,"type":"noteOff","noteNumber":57,"velocity":95},{"deltaTime":0,"channel":2,"type":"noteOff","noteNumber":50,"velocity":95},{"deltaTime":0,"channel":2,"type":"noteOn","noteNumber":45,"velocity":95},{"deltaTime":480,"channel":2,"type":"noteOff","noteNumber":45,"velocity":95},{"deltaTime":0,"channel":2,"type":"noteOn","noteNumber":52,"velocity":95},{"deltaTime":0,"channel":2,"type":"noteOn","noteNumber":45,"velocity":95},{"deltaTime":480,"channel":2,"type":"noteOff","noteNumber":52,"velocity":95},{"deltaTime":0,"channel":2,"type":"noteOff","noteNumber":45,"velocity":95},{"deltaTime":0,"channel":3,"type":"pitchBend","value":0},{"deltaTime":0,"channel":3,"type":"noteOn","noteNumber":43,"velocity":95},{"deltaTime":120,"channel":3,"type":"pitchBend","value":128},{"deltaTime":120,"channel":3,"type":"pitchBend","value":256},{"deltaTime":0,"channel":3,"type":"pitchBend","value":256},{"deltaTime":240,"channel":3,"type":"pitchBend","value":256},{"deltaTime":0,"channel":3,"type":"pitchBend","value":0},{"deltaTime":0,"channel":3,"type":"noteOff","noteNumber":43,"velocity":95},{"deltaTime":0,"channel":2,"type":"noteOn","noteNumber":52,"velocity":95},{"deltaTime":0,"channel":2,"type":"noteOn","noteNumber":45,"velocity":95},{"deltaTime":960,"channel":2,"type":"noteOff","noteNumber":52,"velocity":95},{"deltaTime":0,"channel":2,"type":"noteOff","noteNumber":45,"velocity":95},{"deltaTime":0,"channel":2,"type":"noteOn","noteNumber":57,"velocity":95},{"deltaTime":0,"channel":2,"type":"noteOn","noteNumber":52,"velocity":95},{"deltaTime":0,"channel":2,"type":"noteOn","noteNumber":45,"velocity":95},{"deltaTime":480,"channel":2,"type":"noteOff","noteNumber":57,"velocity":95},{"deltaTime":0,"channel":2,"type":"noteOff","noteNumber":52,"velocity":95},{"deltaTime":0,"channel":2,"type":"noteOff","noteNumber":45,"velocity":95},{"deltaTime":0,"channel":2,"type":"noteOn","noteNumber":45,"velocity":95},{"deltaTime":480,"channel":2,"type":"noteOff","noteNumber":45,"velocity":95},{"deltaTime":0,"channel":2,"type":"noteOn","noteNumber":64,"velocity":95},{"deltaTime":0,"channel":2,"type":"noteOn","noteNumber":60,"velocity":95},{"deltaTime":0,"channel":2,"type":"noteOn","noteNumber":55,"velocity":95},{"deltaTime":0,"channel":2,"type":"noteOn","noteNumber":48,"velocity":95},{"deltaTime":960,"channel":2,"type":"noteOff","noteNumber":64,"velocity":95},{"deltaTime":0,"channel":2,"type":"noteOff","noteNumber":60,"velocity":95},{"deltaTime":0,"channel":2,"type":"noteOff","noteNumber":55,"velocity":95},{"deltaTime":0,"channel":2,"type":"noteOff","noteNumber":48,"velocity":95},{"deltaTime":0,"channel":2,"type":"noteOn","noteNumber":64,"velocity":95},{"deltaTime":0,"channel":2,"type":"noteOn","noteNumber":60,"velocity":95},{"deltaTime":0,"channel":2,"type":"noteOn","noteNumber":55,"velocity":95},{"deltaTime":0,"channel":2,"type":"noteOn","noteNumber":48,"velocity":95},{"deltaTime":480,"channel":2,"type":"noteOff","noteNumber":64,"velocity":95},{"deltaTime":0,"channel":2,"type":"noteOff","noteNumber":60,"velocity":95},{"deltaTime":0,"channel":2,"type":"noteOff","noteNumber":55,"velocity":95},{"deltaTime":0,"channel":2,"type":"noteOff","noteNumber":48,"velocity":95},{"deltaTime":0,"channel":2,"type":"noteOn","noteNumber":50,"velocity":95},{"deltaTime":0,"channel":2,"type":"noteOn","noteNumber":45,"velocity":95},{"deltaTime":480,"channel":2,"type":"noteOff","noteNumber":50,"velocity":95},{"deltaTime":0,"channel":2,"type":"noteOff","noteNumber":45,"velocity":95},{"deltaTime":0,"channel":2,"type":"noteOn","noteNumber":62,"velocity":95},{"deltaTime":0,"channel":2,"type":"noteOn","noteNumber":57,"velocity":95},{"deltaTime":0,"channel":2,"type":"noteOn","noteNumber":50,"velocity":95},{"deltaTime":1440,"channel":2,"type":"noteOff","noteNumber":62,"velocity":95},{"deltaTime":0,"channel":2,"type":"noteOff","noteNumber":57,"velocity":95},{"deltaTime":0,"channel":2,"type":"noteOff","noteNumber":50,"velocity":95},{"deltaTime":0,"channel":2,"type":"noteOn","noteNumber":62,"velocity":95},{"deltaTime":0,"channel":2,"type":"noteOn","noteNumber":57,"velocity":95},{"deltaTime":0,"channel":2,"type":"noteOn","noteNumber":50,"velocity":95},{"deltaTime":1440,"channel":2,"type":"noteOff","noteNumber":62,"velocity":95},{"deltaTime":0,"channel":2,"type":"noteOff","noteNumber":57,"velocity":95},{"deltaTime":0,"channel":2,"type":"noteOff","noteNumber":50,"velocity":95},{"deltaTime":0,"channel":2,"type":"noteOn","noteNumber":52,"velocity":95},{"deltaTime":0,"channel":2,"type":"noteOn","noteNumber":45,"velocity":95},{"deltaTime":480,"channel":2,"type":"noteOff","noteNumber":52,"velocity":95},{"deltaTime":0,"channel":2,"type":"noteOff","noteNumber":45,"velocity":95},{"deltaTime":0,"channel":3,"type":"pitchBend","value":0},{"deltaTime":0,"channel":3,"type":"noteOn","noteNumber":43,"velocity":95},{"deltaTime":120,"channel":3,"type":"pitchBend","value":128},{"deltaTime":120,"channel":3,"type":"pitchBend","value":256},{"deltaTime":0,"channel":3,"type":"pitchBend","value":256},{"deltaTime":240,"channel":3,"type":"pitchBend","value":256},{"deltaTime":0,"channel":3,"type":"pitchBend","value":0},{"deltaTime":0,"channel":3,"type":"noteOff","noteNumber":43,"velocity":95},{"deltaTime":0,"channel":2,"type":"noteOn","noteNumber":57,"velocity":95},{"deltaTime":0,"channel":2,"type":"noteOn","noteNumber":52,"velocity":95},{"deltaTime":0,"channel":2,"type":"noteOn","noteNumber":45,"velocity":95},{"deltaTime":1440,"channel":2,"type":"noteOff","noteNumber":57,"velocity":95},{"deltaTime":0,"channel":2,"type":"noteOff","noteNumber":52,"velocity":95},{"deltaTime":0,"channel":2,"type":"noteOff","noteNumber":45,"velocity":95},{"deltaTime":0,"channel":2,"type":"noteOn","noteNumber":45,"velocity":95},{"deltaTime":480,"channel":2,"type":"noteOff","noteNumber":45,"velocity":95},{"deltaTime":0,"channel":2,"type":"noteOn","noteNumber":64,"velocity":95},{"deltaTime":0,"channel":2,"type":"noteOn","noteNumber":60,"velocity":95},{"deltaTime":0,"channel":2,"type":"noteOn","noteNumber":55,"velocity":95},{"deltaTime":0,"channel":2,"type":"noteOn","noteNumber":48,"velocity":95},{"deltaTime":480,"channel":2,"type":"noteOff","noteNumber":64,"velocity":95},{"deltaTime":960,"channel":2,"type":"noteOff","noteNumber":60,"velocity":95},{"deltaTime":0,"channel":2,"type":"noteOff","noteNumber":55,"velocity":95},{"deltaTime":0,"channel":2,"type":"noteOff","noteNumber":48,"velocity":95},{"deltaTime":0,"channel":2,"type":"noteOn","noteNumber":40,"velocity":95},{"deltaTime":480,"channel":2,"type":"noteOff","noteNumber":40,"velocity":95},{"deltaTime":0,"channel":2,"type":"noteOn","noteNumber":62,"velocity":95},{"deltaTime":0,"channel":2,"type":"noteOn","noteNumber":57,"velocity":95},{"deltaTime":0,"channel":2,"type":"noteOn","noteNumber":50,"velocity":95},{"deltaTime":1440,"channel":2,"type":"noteOff","noteNumber":62,"velocity":95},{"deltaTime":0,"channel":2,"type":"noteOff","noteNumber":57,"velocity":95},{"deltaTime":0,"channel":2,"type":"noteOff","noteNumber":50,"velocity":95},{"deltaTime":0,"channel":2,"type":"noteOn","noteNumber":62,"velocity":95},{"deltaTime":0,"channel":2,"type":"noteOn","noteNumber":57,"velocity":95},{"deltaTime":0,"channel":2,"type":"noteOn","noteNumber":50,"velocity":95},{"deltaTime":960,"channel":2,"type":"noteOff","noteNumber":62,"velocity":95},{"deltaTime":0,"channel":2,"type":"noteOff","noteNumber":57,"velocity":95},{"deltaTime":0,"channel":2,"type":"noteOff","noteNumber":50,"velocity":95},{"deltaTime":0,"channel":2,"type":"noteOn","noteNumber":50,"velocity":95},{"deltaTime":0,"channel":2,"type":"noteOn","noteNumber":45,"velocity":95},{"deltaTime":480,"channel":2,"type":"noteOff","noteNumber":50,"velocity":95},{"deltaTime":0,"channel":2,"type":"noteOff","noteNumber":45,"velocity":95},{"deltaTime":0,"channel":2,"type":"noteOn","noteNumber":57,"velocity":95},{"deltaTime":0,"channel":2,"type":"noteOn","noteNumber":52,"velocity":95},{"deltaTime":0,"channel":2,"type":"noteOn","noteNumber":45,"velocity":95},{"deltaTime":480,"channel":2,"type":"noteOff","noteNumber":57,"velocity":95},{"deltaTime":0,"channel":2,"type":"noteOff","noteNumber":52,"velocity":95},{"deltaTime":0,"channel":2,"type":"noteOff","noteNumber":45,"velocity":95},{"deltaTime":0,"channel":3,"type":"pitchBend","value":0},{"deltaTime":0,"channel":3,"type":"noteOn","noteNumber":43,"velocity":95},{"deltaTime":120,"channel":3,"type":"pitchBend","value":128},{"deltaTime":120,"channel":3,"type":"pitchBend","value":256},{"deltaTime":0,"channel":3,"type":"pitchBend","value":256},{"deltaTime":240,"channel":3,"type":"pitchBend","value":256},{"deltaTime":0,"channel":3,"type":"pitchBend","value":0},{"deltaTime":0,"channel":3,"type":"noteOff","noteNumber":43,"velocity":95},{"deltaTime":0,"channel":2,"type":"noteOn","noteNumber":57,"velocity":95},{"deltaTime":0,"channel":2,"type":"noteOn","noteNumber":52,"velocity":95},{"deltaTime":0,"channel":2,"type":"noteOn","noteNumber":45,"velocity":95},{"deltaTime":960,"channel":2,"type":"noteOff","noteNumber":57,"velocity":95},{"deltaTime":0,"channel":2,"type":"noteOff","noteNumber":52,"velocity":95},{"deltaTime":0,"channel":2,"type":"noteOff","noteNumber":45,"velocity":95},{"deltaTime":0,"channel":2,"type":"noteOn","noteNumber":40,"velocity":95},{"deltaTime":480,"channel":2,"type":"noteOff","noteNumber":40,"velocity":95},{"deltaTime":0,"channel":2,"type":"noteOn","noteNumber":55,"velocity":95},{"deltaTime":0,"channel":2,"type":"noteOn","noteNumber":50,"velocity":95},{"deltaTime":480,"channel":2,"type":"noteOff","noteNumber":55,"velocity":95},{"deltaTime":0,"channel":2,"type":"noteOff","noteNumber":50,"velocity":95},{"deltaTime":0,"channel":2,"type":"noteOn","noteNumber":60,"velocity":95},{"deltaTime":0,"channel":2,"type":"noteOn","noteNumber":55,"velocity":95},{"deltaTime":0,"channel":2,"type":"noteOn","noteNumber":48,"velocity":95},{"deltaTime":960,"channel":2,"type":"noteOff","noteNumber":60,"velocity":95},{"deltaTime":0,"channel":2,"type":"noteOff","noteNumber":55,"velocity":95},{"deltaTime":0,"channel":2,"type":"noteOff","noteNumber":48,"velocity":95},{"deltaTime":0,"channel":2,"type":"noteOn","noteNumber":60,"velocity":95},{"deltaTime":0,"channel":2,"type":"noteOn","noteNumber":55,"velocity":95},{"deltaTime":0,"channel":2,"type":"noteOn","noteNumber":48,"velocity":95},{"deltaTime":480,"channel":2,"type":"noteOff","noteNumber":60,"velocity":95},{"deltaTime":0,"channel":2,"type":"noteOff","noteNumber":55,"velocity":95},{"deltaTime":0,"channel":2,"type":"noteOff","noteNumber":48,"velocity":95},{"deltaTime":0,"channel":2,"type":"noteOn","noteNumber":40,"velocity":95},{"deltaTime":480,"channel":2,"type":"noteOff","noteNumber":40,"velocity":95},{"deltaTime":0,"channel":2,"type":"noteOn","noteNumber":62,"velocity":95},{"deltaTime":0,"channel":2,"type":"noteOn","noteNumber":57,"velocity":95},{"deltaTime":0,"channel":2,"type":"noteOn","noteNumber":50,"velocity":95},{"deltaTime":2400,"channel":2,"type":"noteOff","noteNumber":62,"velocity":95},{"deltaTime":0,"channel":2,"type":"noteOff","noteNumber":57,"velocity":95},{"deltaTime":0,"channel":2,"type":"noteOff","noteNumber":50,"velocity":95},{"deltaTime":480,"channel":2,"type":"noteOn","noteNumber":57,"velocity":95},{"deltaTime":0,"channel":2,"type":"noteOn","noteNumber":52,"velocity":95},{"deltaTime":0,"channel":2,"type":"noteOn","noteNumber":45,"velocity":95},{"deltaTime":480,"channel":2,"type":"noteOff","noteNumber":57,"velocity":95},{"deltaTime":0,"channel":2,"type":"noteOff","noteNumber":52,"velocity":95},{"deltaTime":0,"channel":2,"type":"noteOff","noteNumber":45,"velocity":95},{"deltaTime":0,"channel":3,"type":"pitchBend","value":0},{"deltaTime":0,"channel":3,"type":"noteOn","noteNumber":43,"velocity":95},{"deltaTime":120,"channel":3,"type":"pitchBend","value":128},{"deltaTime":120,"channel":3,"type":"pitchBend","value":256},{"deltaTime":0,"channel":3,"type":"pitchBend","value":256},{"deltaTime":240,"channel":3,"type":"pitchBend","value":256},{"deltaTime":0,"channel":3,"type":"pitchBend","value":0},{"deltaTime":0,"channel":3,"type":"noteOff","noteNumber":43,"velocity":95},{"deltaTime":0,"channel":2,"type":"noteOn","noteNumber":57,"velocity":95},{"deltaTime":0,"channel":2,"type":"noteOn","noteNumber":52,"velocity":95},{"deltaTime":0,"channel":2,"type":"noteOn","noteNumber":45,"velocity":95},{"deltaTime":2400,"channel":2,"type":"noteOff","noteNumber":57,"velocity":95},{"deltaTime":0,"channel":2,"type":"noteOff","noteNumber":52,"velocity":95},{"deltaTime":0,"channel":2,"type":"noteOff","noteNumber":45,"velocity":95},{"deltaTime":0,"channel":2,"type":"noteOn","noteNumber":64,"velocity":95},{"deltaTime":0,"channel":2,"type":"noteOn","noteNumber":60,"velocity":95},{"deltaTime":0,"channel":2,"type":"noteOn","noteNumber":55,"velocity":95},{"deltaTime":0,"channel":2,"type":"noteOn","noteNumber":48,"velocity":95},{"deltaTime":3840,"channel":2,"type":"noteOff","noteNumber":64,"velocity":95},{"deltaTime":0,"channel":2,"type":"noteOff","noteNumber":60,"velocity":95},{"deltaTime":0,"channel":2,"type":"noteOff","noteNumber":55,"velocity":95},{"deltaTime":0,"channel":2,"type":"noteOff","noteNumber":48,"velocity":95},{"deltaTime":0,"channel":2,"type":"noteOn","noteNumber":62,"velocity":95},{"deltaTime":0,"channel":2,"type":"noteOn","noteNumber":57,"velocity":95},{"deltaTime":0,"channel":2,"type":"noteOn","noteNumber":50,"velocity":95},{"deltaTime":3840,"channel":2,"type":"noteOff","noteNumber":62,"velocity":95},{"deltaTime":0,"channel":2,"type":"noteOff","noteNumber":57,"velocity":95},{"deltaTime":0,"channel":2,"type":"noteOff","noteNumber":50,"velocity":95},{"deltaTime":480,"channel":2,"type":"noteOn","noteNumber":57,"velocity":95},{"deltaTime":0,"channel":2,"type":"noteOn","noteNumber":52,"velocity":95},{"deltaTime":0,"channel":2,"type":"noteOn","noteNumber":45,"velocity":95},{"deltaTime":480,"channel":2,"type":"noteOff","noteNumber":57,"velocity":95},{"deltaTime":0,"channel":2,"type":"noteOff","noteNumber":52,"velocity":95},{"deltaTime":0,"channel":2,"type":"noteOff","noteNumber":45,"velocity":95},{"deltaTime":0,"channel":3,"type":"pitchBend","value":0},{"deltaTime":0,"channel":3,"type":"noteOn","noteNumber":43,"velocity":95},{"deltaTime":120,"channel":3,"type":"pitchBend","value":128},{"deltaTime":120,"channel":3,"type":"pitchBend","value":256},{"deltaTime":0,"channel":3,"type":"pitchBend","value":256},{"deltaTime":240,"channel":3,"type":"pitchBend","value":256},{"deltaTime":0,"channel":3,"type":"pitchBend","value":0},{"deltaTime":0,"channel":3,"type":"noteOff","noteNumber":43,"velocity":95},{"deltaTime":0,"channel":2,"type":"noteOn","noteNumber":57,"velocity":95},{"deltaTime":0,"channel":2,"type":"noteOn","noteNumber":52,"velocity":95},{"deltaTime":0,"channel":2,"type":"noteOn","noteNumber":45,"velocity":95},{"deltaTime":480,"channel":2,"type":"noteOff","noteNumber":57,"velocity":95},{"deltaTime":0,"channel":2,"type":"noteOff","noteNumber":52,"velocity":95},{"deltaTime":0,"channel":2,"type":"noteOff","noteNumber":45,"velocity":95},{"deltaTime":0,"meta":true,"type":"endOfTrack"}],[{"deltaTime":0,"channel":14,"type":"pitchBend","value":0},{"deltaTime":0,"channel":14,"type":"controller","controllerType":7,"value":111},{"deltaTime":0,"channel":14,"type":"controller","controllerType":10,"value":63},{"deltaTime":0,"channel":14,"type":"controller","controllerType":93,"value":0},{"deltaTime":0,"channel":14,"type":"controller","controllerType":91,"value":0},{"deltaTime":0,"channel":14,"type":"controller","controllerType":95,"value":0},{"deltaTime":0,"channel":14,"type":"controller","controllerType":92,"value":0},{"deltaTime":0,"channel":14,"type":"controller","controllerType":11,"value":127},{"deltaTime":0,"channel":14,"type":"programChange","programNumber":33},{"deltaTime":0,"channel":15,"type":"controller","controllerType":7,"value":111},{"deltaTime":0,"channel":15,"type":"controller","controllerType":10,"value":63},{"deltaTime":0,"channel":15,"type":"controller","controllerType":93,"value":0},{"deltaTime":0,"channel":15,"type":"controller","controllerType":91,"value":0},{"deltaTime":0,"channel":15,"type":"controller","controllerType":95,"value":0},{"deltaTime":0,"channel":15,"type":"controller","controllerType":92,"value":0},{"deltaTime":0,"channel":15,"type":"controller","controllerType":11,"value":127},{"deltaTime":0,"channel":15,"type":"programChange","programNumber":33},{"deltaTime":75360,"channel":14,"type":"noteOn","noteNumber":36,"velocity":95},{"deltaTime":480,"channel":14,"type":"noteOff","noteNumber":36,"velocity":95},{"deltaTime":0,"channel":14,"type":"noteOn","noteNumber":35,"velocity":95},{"deltaTime":480,"channel":14,"type":"noteOff","noteNumber":35,"velocity":95},{"deltaTime":0,"channel":14,"type":"noteOn","noteNumber":33,"velocity":95},{"deltaTime":7680,"channel":14,"type":"noteOff","noteNumber":33,"velocity":95},{"deltaTime":0,"channel":14,"type":"noteOn","noteNumber":33,"velocity":95},{"deltaTime":6720,"channel":14,"type":"noteOff","noteNumber":33,"velocity":95},{"deltaTime":0,"channel":14,"type":"noteOn","noteNumber":36,"velocity":95},{"deltaTime":480,"channel":14,"type":"noteOff","noteNumber":36,"velocity":95},{"deltaTime":0,"channel":14,"type":"noteOn","noteNumber":35,"velocity":95},{"deltaTime":480,"channel":14,"type":"noteOff","noteNumber":35,"velocity":95},{"deltaTime":0,"channel":14,"type":"noteOn","noteNumber":33,"velocity":95},{"deltaTime":480,"channel":14,"type":"noteOff","noteNumber":33,"velocity":95},{"deltaTime":0,"channel":14,"type":"noteOn","noteNumber":33,"velocity":95},{"deltaTime":480,"channel":14,"type":"noteOff","noteNumber":33,"velocity":95},{"deltaTime":0,"channel":14,"type":"noteOn","noteNumber":33,"velocity":95},{"deltaTime":480,"channel":14,"type":"noteOff","noteNumber":33,"velocity":95},{"deltaTime":0,"channel":14,"type":"noteOn","noteNumber":33,"velocity":95},{"deltaTime":480,"channel":14,"type":"noteOff","noteNumber":33,"velocity":95},{"deltaTime":0,"channel":14,"type":"noteOn","noteNumber":33,"velocity":95},{"deltaTime":480,"channel":14,"type":"noteOff","noteNumber":33,"velocity":95},{"deltaTime":0,"channel":14,"type":"noteOn","noteNumber":33,"velocity":95},{"deltaTime":480,"channel":14,"type":"noteOff","noteNumber":33,"velocity":95},{"deltaTime":0,"channel":14,"type":"noteOn","noteNumber":33,"velocity":95},{"deltaTime":480,"channel":14,"type":"noteOff","noteNumber":33,"velocity":95},{"deltaTime":0,"channel":14,"type":"noteOn","noteNumber":33,"velocity":95},{"deltaTime":480,"channel":14,"type":"noteOff","noteNumber":33,"velocity":95},{"deltaTime":0,"channel":14,"type":"noteOn","noteNumber":33,"velocity":95},{"deltaTime":480,"channel":14,"type":"noteOff","noteNumber":33,"velocity":95},{"deltaTime":0,"channel":14,"type":"noteOn","noteNumber":33,"velocity":95},{"deltaTime":480,"channel":14,"type":"noteOff","noteNumber":33,"velocity":95},{"deltaTime":0,"channel":14,"type":"noteOn","noteNumber":33,"velocity":95},{"deltaTime":480,"channel":14,"type":"noteOff","noteNumber":33,"velocity":95},{"deltaTime":0,"channel":14,"type":"noteOn","noteNumber":33,"velocity":95},{"deltaTime":480,"channel":14,"type":"noteOff","noteNumber":33,"velocity":95},{"deltaTime":0,"channel":14,"type":"noteOn","noteNumber":33,"velocity":95},{"deltaTime":480,"channel":14,"type":"noteOff","noteNumber":33,"velocity":95},{"deltaTime":0,"channel":14,"type":"noteOn","noteNumber":33,"velocity":95},{"deltaTime":480,"channel":14,"type":"noteOff","noteNumber":33,"velocity":95},{"deltaTime":0,"channel":14,"type":"noteOn","noteNumber":33,"velocity":95},{"deltaTime":480,"channel":14,"type":"noteOff","noteNumber":33,"velocity":95},{"deltaTime":0,"channel":14,"type":"noteOn","noteNumber":33,"velocity":95},{"deltaTime":480,"channel":14,"type":"noteOff","noteNumber":33,"velocity":95},{"deltaTime":0,"channel":14,"type":"noteOn","noteNumber":33,"velocity":95},{"deltaTime":480,"channel":14,"type":"noteOff","noteNumber":33,"velocity":95},{"deltaTime":0,"channel":14,"type":"noteOn","noteNumber":33,"velocity":95},{"deltaTime":480,"channel":14,"type":"noteOff","noteNumber":33,"velocity":95},{"deltaTime":0,"channel":14,"type":"noteOn","noteNumber":33,"velocity":95},{"deltaTime":480,"channel":14,"type":"noteOff","noteNumber":33,"velocity":95},{"deltaTime":0,"channel":14,"type":"noteOn","noteNumber":33,"velocity":95},{"deltaTime":480,"channel":14,"type":"noteOff","noteNumber":33,"velocity":95},{"deltaTime":0,"channel":14,"type":"noteOn","noteNumber":33,"velocity":95},{"deltaTime":480,"channel":14,"type":"noteOff","noteNumber":33,"velocity":95},{"deltaTime":0,"channel":14,"type":"noteOn","noteNumber":33,"velocity":95},{"deltaTime":480,"channel":14,"type":"noteOff","noteNumber":33,"velocity":95},{"deltaTime":0,"channel":14,"type":"noteOn","noteNumber":33,"velocity":95},{"deltaTime":480,"channel":14,"type":"noteOff","noteNumber":33,"velocity":95},{"deltaTime":0,"channel":14,"type":"noteOn","noteNumber":33,"velocity":95},{"deltaTime":480,"channel":14,"type":"noteOff","noteNumber":33,"velocity":95},{"deltaTime":0,"channel":14,"type":"noteOn","noteNumber":33,"velocity":95},{"deltaTime":480,"channel":14,"type":"noteOff","noteNumber":33,"velocity":95},{"deltaTime":0,"channel":14,"type":"noteOn","noteNumber":33,"velocity":95},{"deltaTime":480,"channel":14,"type":"noteOff","noteNumber":33,"velocity":95},{"deltaTime":0,"channel":14,"type":"noteOn","noteNumber":33,"velocity":95},{"deltaTime":480,"channel":14,"type":"noteOff","noteNumber":33,"velocity":95},{"deltaTime":0,"channel":14,"type":"noteOn","noteNumber":33,"velocity":95},{"deltaTime":480,"channel":14,"type":"noteOff","noteNumber":33,"velocity":95},{"deltaTime":0,"channel":14,"type":"noteOn","noteNumber":33,"velocity":95},{"deltaTime":480,"channel":14,"type":"noteOff","noteNumber":33,"velocity":95},{"deltaTime":0,"channel":14,"type":"noteOn","noteNumber":33,"velocity":95},{"deltaTime":480,"channel":14,"type":"noteOff","noteNumber":33,"velocity":95},{"deltaTime":0,"channel":14,"type":"noteOn","noteNumber":36,"velocity":95},{"deltaTime":480,"channel":14,"type":"noteOff","noteNumber":36,"velocity":95},{"deltaTime":0,"channel":14,"type":"noteOn","noteNumber":35,"velocity":95},{"deltaTime":480,"channel":14,"type":"noteOff","noteNumber":35,"velocity":95},{"deltaTime":0,"channel":14,"type":"noteOn","noteNumber":33,"velocity":95},{"deltaTime":480,"channel":14,"type":"noteOff","noteNumber":33,"velocity":95},{"deltaTime":0,"channel":14,"type":"noteOn","noteNumber":33,"velocity":95},{"deltaTime":480,"channel":14,"type":"noteOff","noteNumber":33,"velocity":95},{"deltaTime":0,"channel":14,"type":"noteOn","noteNumber":33,"velocity":95},{"deltaTime":480,"channel":14,"type":"noteOff","noteNumber":33,"velocity":95},{"deltaTime":0,"channel":14,"type":"noteOn","noteNumber":33,"velocity":95},{"deltaTime":480,"channel":14,"type":"noteOff","noteNumber":33,"velocity":95},{"deltaTime":0,"channel":14,"type":"noteOn","noteNumber":33,"velocity":95},{"deltaTime":480,"channel":14,"type":"noteOff","noteNumber":33,"velocity":95},{"deltaTime":0,"channel":14,"type":"noteOn","noteNumber":33,"velocity":95},{"deltaTime":480,"channel":14,"type":"noteOff","noteNumber":33,"velocity":95},{"deltaTime":0,"channel":14,"type":"noteOn","noteNumber":33,"velocity":95},{"deltaTime":480,"channel":14,"type":"noteOff","noteNumber":33,"velocity":95},{"deltaTime":0,"channel":14,"type":"noteOn","noteNumber":33,"velocity":95},{"deltaTime":480,"channel":14,"type":"noteOff","noteNumber":33,"velocity":95},{"deltaTime":0,"channel":14,"type":"noteOn","noteNumber":33,"velocity":95},{"deltaTime":480,"channel":14,"type":"noteOff","noteNumber":33,"velocity":95},{"deltaTime":0,"channel":14,"type":"noteOn","noteNumber":33,"velocity":95},{"deltaTime":480,"channel":14,"type":"noteOff","noteNumber":33,"velocity":95},{"deltaTime":0,"channel":14,"type":"noteOn","noteNumber":33,"velocity":95},{"deltaTime":480,"channel":14,"type":"noteOff","noteNumber":33,"velocity":95},{"deltaTime":0,"channel":14,"type":"noteOn","noteNumber":33,"velocity":95},{"deltaTime":480,"channel":14,"type":"noteOff","noteNumber":33,"velocity":95},{"deltaTime":0,"channel":14,"type":"noteOn","noteNumber":33,"velocity":95},{"deltaTime":480,"channel":14,"type":"noteOff","noteNumber":33,"velocity":95},{"deltaTime":0,"channel":14,"type":"noteOn","noteNumber":33,"velocity":95},{"deltaTime":480,"channel":14,"type":"noteOff","noteNumber":33,"velocity":95},{"deltaTime":0,"channel":14,"type":"noteOn","noteNumber":33,"velocity":95},{"deltaTime":480,"channel":14,"type":"noteOff","noteNumber":33,"velocity":95},{"deltaTime":0,"channel":14,"type":"noteOn","noteNumber":33,"velocity":95},{"deltaTime":480,"channel":14,"type":"noteOff","noteNumber":33,"velocity":95},{"deltaTime":0,"channel":14,"type":"noteOn","noteNumber":33,"velocity":95},{"deltaTime":480,"channel":14,"type":"noteOff","noteNumber":33,"velocity":95},{"deltaTime":0,"channel":14,"type":"noteOn","noteNumber":33,"velocity":95},{"deltaTime":480,"channel":14,"type":"noteOff","noteNumber":33,"velocity":95},{"deltaTime":0,"channel":14,"type":"noteOn","noteNumber":33,"velocity":95},{"deltaTime":480,"channel":14,"type":"noteOff","noteNumber":33,"velocity":95},{"deltaTime":0,"channel":14,"type":"noteOn","noteNumber":33,"velocity":95},{"deltaTime":480,"channel":14,"type":"noteOff","noteNumber":33,"velocity":95},{"deltaTime":0,"channel":14,"type":"noteOn","noteNumber":33,"velocity":95},{"deltaTime":480,"channel":14,"type":"noteOff","noteNumber":33,"velocity":95},{"deltaTime":0,"channel":14,"type":"noteOn","noteNumber":33,"velocity":95},{"deltaTime":480,"channel":14,"type":"noteOff","noteNumber":33,"velocity":95},{"deltaTime":0,"channel":14,"type":"noteOn","noteNumber":38,"velocity":95},{"deltaTime":240,"channel":14,"type":"noteOff","noteNumber":38,"velocity":95},{"deltaTime":0,"channel":14,"type":"noteOn","noteNumber":40,"velocity":70},{"deltaTime":240,"channel":14,"type":"noteOff","noteNumber":40,"velocity":70},{"deltaTime":0,"channel":14,"type":"noteOn","noteNumber":45,"velocity":95},{"deltaTime":480,"channel":14,"type":"noteOff","noteNumber":45,"velocity":95},{"deltaTime":0,"channel":14,"type":"noteOn","noteNumber":43,"velocity":95},{"deltaTime":960,"channel":14,"type":"noteOff","noteNumber":43,"velocity":95},{"deltaTime":0,"channel":14,"type":"noteOn","noteNumber":43,"velocity":95},{"deltaTime":480,"channel":14,"type":"noteOff","noteNumber":43,"velocity":95},{"deltaTime":0,"channel":14,"type":"noteOn","noteNumber":38,"velocity":95},{"deltaTime":480,"channel":14,"type":"noteOff","noteNumber":38,"velocity":95},{"deltaTime":0,"channel":14,"type":"noteOn","noteNumber":38,"velocity":95},{"deltaTime":960,"channel":14,"type":"noteOff","noteNumber":38,"velocity":95},{"deltaTime":0,"channel":14,"type":"noteOn","noteNumber":36,"velocity":95},{"deltaTime":480,"channel":14,"type":"noteOff","noteNumber":36,"velocity":95},{"deltaTime":0,"channel":14,"type":"noteOn","noteNumber":35,"velocity":95},{"deltaTime":480,"channel":14,"type":"noteOff","noteNumber":35,"velocity":95},{"deltaTime":0,"channel":14,"type":"noteOn","noteNumber":33,"velocity":95},{"deltaTime":480,"channel":14,"type":"noteOff","noteNumber":33,"velocity":95},{"deltaTime":0,"channel":14,"type":"noteOn","noteNumber":33,"velocity":95},{"deltaTime":480,"channel":14,"type":"noteOff","noteNumber":33,"velocity":95},{"deltaTime":0,"channel":14,"type":"noteOn","noteNumber":33,"velocity":95},{"deltaTime":480,"channel":14,"type":"noteOff","noteNumber":33,"velocity":95},{"deltaTime":0,"channel":14,"type":"noteOn","noteNumber":33,"velocity":95},{"deltaTime":480,"channel":14,"type":"noteOff","noteNumber":33,"velocity":95},{"deltaTime":0,"channel":14,"type":"noteOn","noteNumber":33,"velocity":95},{"deltaTime":480,"channel":14,"type":"noteOff","noteNumber":33,"velocity":95},{"deltaTime":0,"channel":14,"type":"noteOn","noteNumber":33,"velocity":95},{"deltaTime":480,"channel":14,"type":"noteOff","noteNumber":33,"velocity":95},{"deltaTime":0,"channel":14,"type":"noteOn","noteNumber":33,"velocity":95},{"deltaTime":480,"channel":14,"type":"noteOff","noteNumber":33,"velocity":95},{"deltaTime":0,"channel":14,"type":"noteOn","noteNumber":33,"velocity":95},{"deltaTime":480,"channel":14,"type":"noteOff","noteNumber":33,"velocity":95},{"deltaTime":0,"channel":14,"type":"noteOn","noteNumber":38,"velocity":95},{"deltaTime":480,"channel":14,"type":"noteOff","noteNumber":38,"velocity":95},{"deltaTime":0,"channel":14,"type":"noteOn","noteNumber":38,"velocity":95},{"deltaTime":480,"channel":14,"type":"noteOff","noteNumber":38,"velocity":95},{"deltaTime":0,"channel":14,"type":"noteOn","noteNumber":38,"velocity":95},{"deltaTime":480,"channel":14,"type":"noteOff","noteNumber":38,"velocity":95},{"deltaTime":0,"channel":14,"type":"noteOn","noteNumber":38,"velocity":95},{"deltaTime":480,"channel":14,"type":"noteOff","noteNumber":38,"velocity":95},{"deltaTime":0,"channel":14,"type":"noteOn","noteNumber":38,"velocity":95},{"deltaTime":480,"channel":14,"type":"noteOff","noteNumber":38,"velocity":95},{"deltaTime":0,"channel":14,"type":"noteOn","noteNumber":36,"velocity":95},{"deltaTime":960,"channel":14,"type":"noteOff","noteNumber":36,"velocity":95},{"deltaTime":0,"channel":14,"type":"noteOn","noteNumber":35,"velocity":95},{"deltaTime":960,"channel":14,"type":"noteOff","noteNumber":35,"velocity":95},{"deltaTime":0,"channel":14,"type":"noteOn","noteNumber":33,"velocity":95},{"deltaTime":480,"channel":14,"type":"noteOff","noteNumber":33,"velocity":95},{"deltaTime":0,"channel":14,"type":"noteOn","noteNumber":33,"velocity":95},{"deltaTime":480,"channel":14,"type":"noteOff","noteNumber":33,"velocity":95},{"deltaTime":0,"channel":14,"type":"noteOn","noteNumber":33,"velocity":95},{"deltaTime":480,"channel":14,"type":"noteOff","noteNumber":33,"velocity":95},{"deltaTime":0,"channel":14,"type":"noteOn","noteNumber":33,"velocity":95},{"deltaTime":480,"channel":14,"type":"noteOff","noteNumber":33,"velocity":95},{"deltaTime":0,"channel":14,"type":"noteOn","noteNumber":33,"velocity":95},{"deltaTime":480,"channel":14,"type":"noteOff","noteNumber":33,"velocity":95},{"deltaTime":0,"channel":14,"type":"noteOn","noteNumber":33,"velocity":95},{"deltaTime":480,"channel":14,"type":"noteOff","noteNumber":33,"velocity":95},{"deltaTime":0,"channel":14,"type":"noteOn","noteNumber":33,"velocity":95},{"deltaTime":480,"channel":14,"type":"noteOff","noteNumber":33,"velocity":95},{"deltaTime":0,"channel":14,"type":"noteOn","noteNumber":38,"velocity":95},{"deltaTime":480,"channel":14,"type":"noteOff","noteNumber":38,"velocity":95},{"deltaTime":0,"channel":14,"type":"noteOn","noteNumber":38,"velocity":95},{"deltaTime":480,"channel":14,"type":"noteOff","noteNumber":38,"velocity":95},{"deltaTime":0,"channel":14,"type":"noteOn","noteNumber":38,"velocity":95},{"deltaTime":480,"channel":14,"type":"noteOff","noteNumber":38,"velocity":95},{"deltaTime":0,"channel":14,"type":"noteOn","noteNumber":38,"velocity":95},{"deltaTime":480,"channel":14,"type":"noteOff","noteNumber":38,"velocity":95},{"deltaTime":0,"channel":14,"type":"noteOn","noteNumber":38,"velocity":95},{"deltaTime":480,"channel":14,"type":"noteOff","noteNumber":38,"velocity":95},{"deltaTime":0,"channel":14,"type":"noteOn","noteNumber":36,"velocity":95},{"deltaTime":960,"channel":14,"type":"noteOff","noteNumber":36,"velocity":95},{"deltaTime":0,"channel":14,"type":"noteOn","noteNumber":35,"velocity":95},{"deltaTime":960,"channel":14,"type":"noteOff","noteNumber":35,"velocity":95},{"deltaTime":0,"channel":14,"type":"noteOn","noteNumber":33,"velocity":95},{"deltaTime":480,"channel":14,"type":"noteOff","noteNumber":33,"velocity":95},{"deltaTime":0,"channel":14,"type":"noteOn","noteNumber":33,"velocity":95},{"deltaTime":480,"channel":14,"type":"noteOff","noteNumber":33,"velocity":95},{"deltaTime":0,"channel":14,"type":"noteOn","noteNumber":33,"velocity":95},{"deltaTime":480,"channel":14,"type":"noteOff","noteNumber":33,"velocity":95},{"deltaTime":0,"channel":14,"type":"noteOn","noteNumber":33,"velocity":95},{"deltaTime":480,"channel":14,"type":"noteOff","noteNumber":33,"velocity":95},{"deltaTime":0,"channel":14,"type":"noteOn","noteNumber":33,"velocity":95},{"deltaTime":480,"channel":14,"type":"noteOff","noteNumber":33,"velocity":95},{"deltaTime":0,"channel":14,"type":"noteOn","noteNumber":33,"velocity":95},{"deltaTime":480,"channel":14,"type":"noteOff","noteNumber":33,"velocity":95},{"deltaTime":0,"channel":14,"type":"noteOn","noteNumber":33,"velocity":95},{"deltaTime":480,"channel":14,"type":"noteOff","noteNumber":33,"velocity":95},{"deltaTime":0,"channel":14,"type":"noteOn","noteNumber":38,"velocity":95},{"deltaTime":480,"channel":14,"type":"noteOff","noteNumber":38,"velocity":95},{"deltaTime":0,"channel":14,"type":"noteOn","noteNumber":38,"velocity":95},{"deltaTime":480,"channel":14,"type":"noteOff","noteNumber":38,"velocity":95},{"deltaTime":0,"channel":14,"type":"noteOn","noteNumber":38,"velocity":95},{"deltaTime":480,"channel":14,"type":"noteOff","noteNumber":38,"velocity":95},{"deltaTime":0,"channel":14,"type":"noteOn","noteNumber":38,"velocity":95},{"deltaTime":480,"channel":14,"type":"noteOff","noteNumber":38,"velocity":95},{"deltaTime":0,"channel":14,"type":"noteOn","noteNumber":38,"velocity":95},{"deltaTime":480,"channel":14,"type":"noteOff","noteNumber":38,"velocity":95},{"deltaTime":0,"channel":14,"type":"noteOn","noteNumber":36,"velocity":95},{"deltaTime":480,"channel":14,"type":"noteOff","noteNumber":36,"velocity":95},{"deltaTime":0,"channel":14,"type":"noteOn","noteNumber":36,"velocity":95},{"deltaTime":480,"channel":14,"type":"noteOff","noteNumber":36,"velocity":95},{"deltaTime":0,"channel":14,"type":"noteOn","noteNumber":35,"velocity":95},{"deltaTime":480,"channel":14,"type":"noteOff","noteNumber":35,"velocity":95},{"deltaTime":0,"channel":14,"type":"noteOn","noteNumber":35,"velocity":95},{"deltaTime":480,"channel":14,"type":"noteOff","noteNumber":35,"velocity":95},{"deltaTime":0,"channel":14,"type":"noteOn","noteNumber":33,"velocity":95},{"deltaTime":480,"channel":14,"type":"noteOff","noteNumber":33,"velocity":95},{"deltaTime":0,"channel":14,"type":"noteOn","noteNumber":33,"velocity":95},{"deltaTime":480,"channel":14,"type":"noteOff","noteNumber":33,"velocity":95},{"deltaTime":0,"channel":14,"type":"noteOn","noteNumber":33,"velocity":95},{"deltaTime":480,"channel":14,"type":"noteOff","noteNumber":33,"velocity":95},{"deltaTime":0,"channel":14,"type":"noteOn","noteNumber":33,"velocity":95},{"deltaTime":480,"channel":14,"type":"noteOff","noteNumber":33,"velocity":95},{"deltaTime":0,"channel":14,"type":"noteOn","noteNumber":33,"velocity":95},{"deltaTime":480,"channel":14,"type":"noteOff","noteNumber":33,"velocity":95},{"deltaTime":0,"channel":14,"type":"noteOn","noteNumber":33,"velocity":95},{"deltaTime":480,"channel":14,"type":"noteOff","noteNumber":33,"velocity":95},{"deltaTime":0,"channel":14,"type":"noteOn","noteNumber":33,"velocity":95},{"deltaTime":480,"channel":14,"type":"noteOff","noteNumber":33,"velocity":95},{"deltaTime":0,"channel":14,"type":"noteOn","noteNumber":38,"velocity":95},{"deltaTime":480,"channel":14,"type":"noteOff","noteNumber":38,"velocity":95},{"deltaTime":0,"channel":14,"type":"noteOn","noteNumber":38,"velocity":95},{"deltaTime":480,"channel":14,"type":"noteOff","noteNumber":38,"velocity":95},{"deltaTime":0,"channel":14,"type":"noteOn","noteNumber":38,"velocity":95},{"deltaTime":480,"channel":14,"type":"noteOff","noteNumber":38,"velocity":95},{"deltaTime":0,"channel":14,"type":"noteOn","noteNumber":38,"velocity":95},{"deltaTime":480,"channel":14,"type":"noteOff","noteNumber":38,"velocity":95},{"deltaTime":0,"channel":14,"type":"noteOn","noteNumber":38,"velocity":95},{"deltaTime":480,"channel":14,"type":"noteOff","noteNumber":38,"velocity":95},{"deltaTime":0,"channel":14,"type":"noteOn","noteNumber":36,"velocity":95},{"deltaTime":480,"channel":14,"type":"noteOff","noteNumber":36,"velocity":95},{"deltaTime":0,"channel":14,"type":"noteOn","noteNumber":36,"velocity":95},{"deltaTime":480,"channel":14,"type":"noteOff","noteNumber":36,"velocity":95},{"deltaTime":0,"channel":14,"type":"noteOn","noteNumber":35,"velocity":95},{"deltaTime":480,"channel":14,"type":"noteOff","noteNumber":35,"velocity":95},{"deltaTime":0,"channel":14,"type":"noteOn","noteNumber":35,"velocity":95},{"deltaTime":480,"channel":14,"type":"noteOff","noteNumber":35,"velocity":95},{"deltaTime":0,"channel":14,"type":"noteOn","noteNumber":33,"velocity":95},{"deltaTime":480,"channel":14,"type":"noteOff","noteNumber":33,"velocity":95},{"deltaTime":0,"channel":14,"type":"noteOn","noteNumber":33,"velocity":95},{"deltaTime":480,"channel":14,"type":"noteOff","noteNumber":33,"velocity":95},{"deltaTime":0,"channel":14,"type":"noteOn","noteNumber":33,"velocity":95},{"deltaTime":480,"channel":14,"type":"noteOff","noteNumber":33,"velocity":95},{"deltaTime":0,"channel":14,"type":"noteOn","noteNumber":33,"velocity":95},{"deltaTime":480,"channel":14,"type":"noteOff","noteNumber":33,"velocity":95},{"deltaTime":0,"channel":14,"type":"noteOn","noteNumber":33,"velocity":95},{"deltaTime":480,"channel":14,"type":"noteOff","noteNumber":33,"velocity":95},{"deltaTime":0,"channel":14,"type":"noteOn","noteNumber":33,"velocity":95},{"deltaTime":480,"channel":14,"type":"noteOff","noteNumber":33,"velocity":95},{"deltaTime":0,"channel":14,"type":"noteOn","noteNumber":33,"velocity":95},{"deltaTime":480,"channel":14,"type":"noteOff","noteNumber":33,"velocity":95},{"deltaTime":0,"channel":14,"type":"noteOn","noteNumber":38,"velocity":95},{"deltaTime":480,"channel":14,"type":"noteOff","noteNumber":38,"velocity":95},{"deltaTime":0,"channel":14,"type":"noteOn","noteNumber":38,"velocity":95},{"deltaTime":480,"channel":14,"type":"noteOff","noteNumber":38,"velocity":95},{"deltaTime":0,"channel":14,"type":"noteOn","noteNumber":38,"velocity":95},{"deltaTime":480,"channel":14,"type":"noteOff","noteNumber":38,"velocity":95},{"deltaTime":0,"channel":14,"type":"noteOn","noteNumber":38,"velocity":95},{"deltaTime":480,"channel":14,"type":"noteOff","noteNumber":38,"velocity":95},{"deltaTime":0,"channel":14,"type":"noteOn","noteNumber":38,"velocity":95},{"deltaTime":480,"channel":14,"type":"noteOff","noteNumber":38,"velocity":95},{"deltaTime":0,"channel":14,"type":"noteOn","noteNumber":36,"velocity":95},{"deltaTime":480,"channel":14,"type":"noteOff","noteNumber":36,"velocity":95},{"deltaTime":0,"channel":14,"type":"noteOn","noteNumber":36,"velocity":95},{"deltaTime":480,"channel":14,"type":"noteOff","noteNumber":36,"velocity":95},{"deltaTime":0,"channel":14,"type":"noteOn","noteNumber":35,"velocity":95},{"deltaTime":480,"channel":14,"type":"noteOff","noteNumber":35,"velocity":95},{"deltaTime":0,"channel":14,"type":"noteOn","noteNumber":35,"velocity":95},{"deltaTime":480,"channel":14,"type":"noteOff","noteNumber":35,"velocity":95},{"deltaTime":0,"channel":14,"type":"noteOn","noteNumber":33,"velocity":95},{"deltaTime":480,"channel":14,"type":"noteOff","noteNumber":33,"velocity":95},{"deltaTime":0,"channel":14,"type":"noteOn","noteNumber":33,"velocity":95},{"deltaTime":480,"channel":14,"type":"noteOff","noteNumber":33,"velocity":95},{"deltaTime":0,"channel":14,"type":"noteOn","noteNumber":33,"velocity":95},{"deltaTime":480,"channel":14,"type":"noteOff","noteNumber":33,"velocity":95},{"deltaTime":0,"channel":14,"type":"noteOn","noteNumber":33,"velocity":95},{"deltaTime":480,"channel":14,"type":"noteOff","noteNumber":33,"velocity":95},{"deltaTime":0,"channel":14,"type":"noteOn","noteNumber":33,"velocity":95},{"deltaTime":480,"channel":14,"type":"noteOff","noteNumber":33,"velocity":95},{"deltaTime":0,"channel":14,"type":"noteOn","noteNumber":33,"velocity":95},{"deltaTime":480,"channel":14,"type":"noteOff","noteNumber":33,"velocity":95},{"deltaTime":0,"channel":14,"type":"noteOn","noteNumber":33,"velocity":95},{"deltaTime":480,"channel":14,"type":"noteOff","noteNumber":33,"velocity":95},{"deltaTime":0,"channel":14,"type":"noteOn","noteNumber":38,"velocity":95},{"deltaTime":480,"channel":14,"type":"noteOff","noteNumber":38,"velocity":95},{"deltaTime":0,"channel":14,"type":"noteOn","noteNumber":38,"velocity":95},{"deltaTime":480,"channel":14,"type":"noteOff","noteNumber":38,"velocity":95},{"deltaTime":0,"channel":14,"type":"noteOn","noteNumber":38,"velocity":95},{"deltaTime":480,"channel":14,"type":"noteOff","noteNumber":38,"velocity":95},{"deltaTime":0,"channel":14,"type":"noteOn","noteNumber":38,"velocity":95},{"deltaTime":480,"channel":14,"type":"noteOff","noteNumber":38,"velocity":95},{"deltaTime":0,"channel":14,"type":"noteOn","noteNumber":38,"velocity":95},{"deltaTime":480,"channel":14,"type":"noteOff","noteNumber":38,"velocity":95},{"deltaTime":0,"channel":14,"type":"noteOn","noteNumber":36,"velocity":95},{"deltaTime":960,"channel":14,"type":"noteOff","noteNumber":36,"velocity":95},{"deltaTime":0,"channel":14,"type":"noteOn","noteNumber":35,"velocity":95},{"deltaTime":960,"channel":14,"type":"noteOff","noteNumber":35,"velocity":95},{"deltaTime":0,"channel":14,"type":"noteOn","noteNumber":38,"velocity":95},{"deltaTime":480,"channel":14,"type":"noteOff","noteNumber":38,"velocity":95},{"deltaTime":0,"channel":14,"type":"noteOn","noteNumber":38,"velocity":95},{"deltaTime":480,"channel":14,"type":"noteOff","noteNumber":38,"velocity":95},{"deltaTime":0,"channel":14,"type":"noteOn","noteNumber":38,"velocity":95},{"deltaTime":480,"channel":14,"type":"noteOff","noteNumber":38,"velocity":95},{"deltaTime":0,"channel":14,"type":"noteOn","noteNumber":38,"velocity":95},{"deltaTime":480,"channel":14,"type":"noteOff","noteNumber":38,"velocity":95},{"deltaTime":0,"channel":14,"type":"noteOn","noteNumber":38,"velocity":95},{"deltaTime":480,"channel":14,"type":"noteOff","noteNumber":38,"velocity":95},{"deltaTime":0,"channel":14,"type":"noteOn","noteNumber":38,"velocity":95},{"deltaTime":480,"channel":14,"type":"noteOff","noteNumber":38,"velocity":95},{"deltaTime":0,"channel":14,"type":"noteOn","noteNumber":38,"velocity":95},{"deltaTime":480,"channel":14,"type":"noteOff","noteNumber":38,"velocity":95},{"deltaTime":0,"channel":14,"type":"noteOn","noteNumber":38,"velocity":95},{"deltaTime":960,"channel":14,"type":"noteOff","noteNumber":38,"velocity":95},{"deltaTime":0,"channel":14,"type":"noteOn","noteNumber":38,"velocity":95},{"deltaTime":480,"channel":14,"type":"noteOff","noteNumber":38,"velocity":95},{"deltaTime":0,"channel":14,"type":"noteOn","noteNumber":38,"velocity":95},{"deltaTime":480,"channel":14,"type":"noteOff","noteNumber":38,"velocity":95},{"deltaTime":0,"channel":14,"type":"noteOn","noteNumber":33,"velocity":95},{"deltaTime":480,"channel":14,"type":"noteOff","noteNumber":33,"velocity":95},{"deltaTime":0,"channel":14,"type":"noteOn","noteNumber":36,"velocity":95},{"deltaTime":960,"channel":14,"type":"noteOff","noteNumber":36,"velocity":95},{"deltaTime":0,"channel":14,"type":"noteOn","noteNumber":31,"velocity":95},{"deltaTime":960,"channel":14,"type":"noteOff","noteNumber":31,"velocity":95},{"deltaTime":0,"channel":14,"type":"noteOn","noteNumber":38,"velocity":95},{"deltaTime":480,"channel":14,"type":"noteOff","noteNumber":38,"velocity":95},{"deltaTime":0,"channel":14,"type":"noteOn","noteNumber":38,"velocity":95},{"deltaTime":480,"channel":14,"type":"noteOff","noteNumber":38,"velocity":95},{"deltaTime":0,"channel":14,"type":"noteOn","noteNumber":38,"velocity":95},{"deltaTime":480,"channel":14,"type":"noteOff","noteNumber":38,"velocity":95},{"deltaTime":0,"channel":14,"type":"noteOn","noteNumber":38,"velocity":95},{"deltaTime":480,"channel":14,"type":"noteOff","noteNumber":38,"velocity":95},{"deltaTime":0,"channel":14,"type":"noteOn","noteNumber":38,"velocity":95},{"deltaTime":480,"channel":14,"type":"noteOff","noteNumber":38,"velocity":95},{"deltaTime":0,"channel":14,"type":"noteOn","noteNumber":38,"velocity":95},{"deltaTime":480,"channel":14,"type":"noteOff","noteNumber":38,"velocity":95},{"deltaTime":0,"channel":14,"type":"noteOn","noteNumber":38,"velocity":95},{"deltaTime":480,"channel":14,"type":"noteOff","noteNumber":38,"velocity":95},{"deltaTime":0,"channel":14,"type":"noteOn","noteNumber":38,"velocity":95},{"deltaTime":960,"channel":14,"type":"noteOff","noteNumber":38,"velocity":95},{"deltaTime":0,"channel":14,"type":"noteOn","noteNumber":38,"velocity":95},{"deltaTime":480,"channel":14,"type":"noteOff","noteNumber":38,"velocity":95},{"deltaTime":0,"channel":14,"type":"noteOn","noteNumber":38,"velocity":95},{"deltaTime":480,"channel":14,"type":"noteOff","noteNumber":38,"velocity":95},{"deltaTime":0,"channel":14,"type":"noteOn","noteNumber":33,"velocity":95},{"deltaTime":480,"channel":14,"type":"noteOff","noteNumber":33,"velocity":95},{"deltaTime":0,"channel":14,"type":"noteOn","noteNumber":36,"velocity":95},{"deltaTime":960,"channel":14,"type":"noteOff","noteNumber":36,"velocity":95},{"deltaTime":0,"channel":14,"type":"noteOn","noteNumber":31,"velocity":95},{"deltaTime":960,"channel":14,"type":"noteOff","noteNumber":31,"velocity":95},{"deltaTime":0,"channel":14,"type":"noteOn","noteNumber":40,"velocity":95},{"deltaTime":480,"channel":14,"type":"noteOff","noteNumber":40,"velocity":95},{"deltaTime":0,"channel":14,"type":"noteOn","noteNumber":40,"velocity":95},{"deltaTime":480,"channel":14,"type":"noteOff","noteNumber":40,"velocity":95},{"deltaTime":0,"channel":14,"type":"noteOn","noteNumber":40,"velocity":95},{"deltaTime":480,"channel":14,"type":"noteOff","noteNumber":40,"velocity":95},{"deltaTime":0,"channel":14,"type":"noteOn","noteNumber":40,"velocity":95},{"deltaTime":480,"channel":14,"type":"noteOff","noteNumber":40,"velocity":95},{"deltaTime":0,"channel":14,"type":"noteOn","noteNumber":40,"velocity":95},{"deltaTime":480,"channel":14,"type":"noteOff","noteNumber":40,"velocity":95},{"deltaTime":0,"channel":14,"type":"noteOn","noteNumber":40,"velocity":95},{"deltaTime":480,"channel":14,"type":"noteOff","noteNumber":40,"velocity":95},{"deltaTime":0,"channel":14,"type":"noteOn","noteNumber":40,"velocity":95},{"deltaTime":480,"channel":14,"type":"noteOff","noteNumber":40,"velocity":95},{"deltaTime":0,"channel":14,"type":"noteOn","noteNumber":40,"velocity":95},{"deltaTime":480,"channel":14,"type":"noteOff","noteNumber":40,"velocity":95},{"deltaTime":0,"channel":14,"type":"noteOn","noteNumber":40,"velocity":95},{"deltaTime":480,"channel":14,"type":"noteOff","noteNumber":40,"velocity":95},{"deltaTime":0,"channel":14,"type":"noteOn","noteNumber":40,"velocity":95},{"deltaTime":480,"channel":14,"type":"noteOff","noteNumber":40,"velocity":95},{"deltaTime":0,"channel":14,"type":"noteOn","noteNumber":40,"velocity":95},{"deltaTime":480,"channel":14,"type":"noteOff","noteNumber":40,"velocity":95},{"deltaTime":0,"channel":14,"type":"noteOn","noteNumber":40,"velocity":95},{"deltaTime":480,"channel":14,"type":"noteOff","noteNumber":40,"velocity":95},{"deltaTime":0,"channel":14,"type":"noteOn","noteNumber":38,"velocity":95},{"deltaTime":960,"channel":14,"type":"noteOff","noteNumber":38,"velocity":95},{"deltaTime":0,"channel":14,"type":"noteOn","noteNumber":33,"velocity":95},{"deltaTime":960,"channel":14,"type":"noteOff","noteNumber":33,"velocity":95},{"deltaTime":0,"channel":14,"type":"noteOn","noteNumber":28,"velocity":95},{"deltaTime":480,"channel":14,"type":"noteOff","noteNumber":28,"velocity":95},{"deltaTime":0,"channel":14,"type":"noteOn","noteNumber":28,"velocity":95},{"deltaTime":480,"channel":14,"type":"noteOff","noteNumber":28,"velocity":95},{"deltaTime":0,"channel":14,"type":"noteOn","noteNumber":28,"velocity":95},{"deltaTime":480,"channel":14,"type":"noteOff","noteNumber":28,"velocity":95},{"deltaTime":0,"channel":14,"type":"noteOn","noteNumber":28,"velocity":95},{"deltaTime":480,"channel":14,"type":"noteOff","noteNumber":28,"velocity":95},{"deltaTime":0,"channel":14,"type":"noteOn","noteNumber":28,"velocity":95},{"deltaTime":480,"channel":14,"type":"noteOff","noteNumber":28,"velocity":95},{"deltaTime":0,"channel":14,"type":"noteOn","noteNumber":28,"velocity":95},{"deltaTime":480,"channel":14,"type":"noteOff","noteNumber":28,"velocity":95},{"deltaTime":0,"channel":14,"type":"noteOn","noteNumber":28,"velocity":95},{"deltaTime":480,"channel":14,"type":"noteOff","noteNumber":28,"velocity":95},{"deltaTime":0,"channel":14,"type":"noteOn","noteNumber":28,"velocity":95},{"deltaTime":480,"channel":14,"type":"noteOff","noteNumber":28,"velocity":95},{"deltaTime":0,"channel":14,"type":"noteOn","noteNumber":28,"velocity":95},{"deltaTime":480,"channel":14,"type":"noteOff","noteNumber":28,"velocity":95},{"deltaTime":0,"channel":14,"type":"noteOn","noteNumber":28,"velocity":95},{"deltaTime":480,"channel":14,"type":"noteOff","noteNumber":28,"velocity":95},{"deltaTime":0,"channel":14,"type":"noteOn","noteNumber":28,"velocity":95},{"deltaTime":480,"channel":14,"type":"noteOff","noteNumber":28,"velocity":95},{"deltaTime":0,"channel":14,"type":"noteOn","noteNumber":28,"velocity":95},{"deltaTime":480,"channel":14,"type":"noteOff","noteNumber":28,"velocity":95},{"deltaTime":0,"channel":14,"type":"noteOn","noteNumber":31,"velocity":95},{"deltaTime":480,"channel":14,"type":"noteOff","noteNumber":31,"velocity":95},{"deltaTime":0,"channel":14,"type":"noteOn","noteNumber":31,"velocity":95},{"deltaTime":480,"channel":14,"type":"noteOff","noteNumber":31,"velocity":95},{"deltaTime":0,"channel":15,"type":"noteOn","noteNumber":31,"velocity":95},{"deltaTime":120,"channel":15,"type":"pitchBend","value":128},{"deltaTime":120,"channel":15,"type":"pitchBend","value":256},{"deltaTime":120,"channel":15,"type":"pitchBend","value":512},{"deltaTime":120,"channel":15,"type":"pitchBend","value":640},{"deltaTime":0,"channel":15,"type":"pitchBend","value":0},{"deltaTime":0,"channel":15,"type":"noteOff","noteNumber":31,"velocity":95},{"deltaTime":0,"channel":14,"type":"noteOn","noteNumber":32,"velocity":95},{"deltaTime":480,"channel":14,"type":"noteOff","noteNumber":32,"velocity":95},{"deltaTime":0,"channel":14,"type":"noteOn","noteNumber":33,"velocity":95},{"deltaTime":480,"channel":14,"type":"noteOff","noteNumber":33,"velocity":95},{"deltaTime":0,"channel":14,"type":"noteOn","noteNumber":33,"velocity":95},{"deltaTime":480,"channel":14,"type":"noteOff","noteNumber":33,"velocity":95},{"deltaTime":0,"channel":14,"type":"noteOn","noteNumber":33,"velocity":95},{"deltaTime":480,"channel":14,"type":"noteOff","noteNumber":33,"velocity":95},{"deltaTime":0,"channel":14,"type":"noteOn","noteNumber":33,"velocity":95},{"deltaTime":480,"channel":14,"type":"noteOff","noteNumber":33,"velocity":95},{"deltaTime":0,"channel":14,"type":"noteOn","noteNumber":33,"velocity":95},{"deltaTime":480,"channel":14,"type":"noteOff","noteNumber":33,"velocity":95},{"deltaTime":0,"channel":14,"type":"noteOn","noteNumber":33,"velocity":95},{"deltaTime":480,"channel":14,"type":"noteOff","noteNumber":33,"velocity":95},{"deltaTime":0,"channel":14,"type":"noteOn","noteNumber":33,"velocity":95},{"deltaTime":480,"channel":14,"type":"noteOff","noteNumber":33,"velocity":95},{"deltaTime":0,"channel":14,"type":"noteOn","noteNumber":33,"velocity":95},{"deltaTime":480,"channel":14,"type":"noteOff","noteNumber":33,"velocity":95},{"deltaTime":0,"channel":14,"type":"noteOn","noteNumber":33,"velocity":95},{"deltaTime":480,"channel":14,"type":"noteOff","noteNumber":33,"velocity":95},{"deltaTime":0,"channel":14,"type":"noteOn","noteNumber":33,"velocity":95},{"deltaTime":480,"channel":14,"type":"noteOff","noteNumber":33,"velocity":95},{"deltaTime":0,"channel":14,"type":"noteOn","noteNumber":33,"velocity":95},{"deltaTime":480,"channel":14,"type":"noteOff","noteNumber":33,"velocity":95},{"deltaTime":0,"channel":14,"type":"noteOn","noteNumber":33,"velocity":95},{"deltaTime":480,"channel":14,"type":"noteOff","noteNumber":33,"velocity":95},{"deltaTime":0,"channel":14,"type":"noteOn","noteNumber":33,"velocity":95},{"deltaTime":480,"channel":14,"type":"noteOff","noteNumber":33,"velocity":95},{"deltaTime":0,"channel":14,"type":"noteOn","noteNumber":33,"velocity":95},{"deltaTime":480,"channel":14,"type":"noteOff","noteNumber":33,"velocity":95},{"deltaTime":0,"channel":14,"type":"noteOn","noteNumber":33,"velocity":95},{"deltaTime":480,"channel":14,"type":"noteOff","noteNumber":33,"velocity":95},{"deltaTime":0,"channel":14,"type":"noteOn","noteNumber":33,"velocity":95},{"deltaTime":480,"channel":14,"type":"noteOff","noteNumber":33,"velocity":95},{"deltaTime":0,"channel":14,"type":"noteOn","noteNumber":33,"velocity":95},{"deltaTime":480,"channel":14,"type":"noteOff","noteNumber":33,"velocity":95},{"deltaTime":0,"channel":14,"type":"noteOn","noteNumber":33,"velocity":95},{"deltaTime":480,"channel":14,"type":"noteOff","noteNumber":33,"velocity":95},{"deltaTime":0,"channel":14,"type":"noteOn","noteNumber":33,"velocity":95},{"deltaTime":480,"channel":14,"type":"noteOff","noteNumber":33,"velocity":95},{"deltaTime":0,"channel":14,"type":"noteOn","noteNumber":33,"velocity":95},{"deltaTime":480,"channel":14,"type":"noteOff","noteNumber":33,"velocity":95},{"deltaTime":0,"channel":14,"type":"noteOn","noteNumber":33,"velocity":95},{"deltaTime":480,"channel":14,"type":"noteOff","noteNumber":33,"velocity":95},{"deltaTime":0,"channel":14,"type":"noteOn","noteNumber":33,"velocity":95},{"deltaTime":480,"channel":14,"type":"noteOff","noteNumber":33,"velocity":95},{"deltaTime":0,"channel":14,"type":"noteOn","noteNumber":33,"velocity":95},{"deltaTime":480,"channel":14,"type":"noteOff","noteNumber":33,"velocity":95},{"deltaTime":0,"channel":14,"type":"noteOn","noteNumber":33,"velocity":95},{"deltaTime":480,"channel":14,"type":"noteOff","noteNumber":33,"velocity":95},{"deltaTime":0,"channel":14,"type":"noteOn","noteNumber":33,"velocity":95},{"deltaTime":480,"channel":14,"type":"noteOff","noteNumber":33,"velocity":95},{"deltaTime":0,"channel":14,"type":"noteOn","noteNumber":33,"velocity":95},{"deltaTime":480,"channel":14,"type":"noteOff","noteNumber":33,"velocity":95},{"deltaTime":0,"channel":14,"type":"noteOn","noteNumber":33,"velocity":95},{"deltaTime":480,"channel":14,"type":"noteOff","noteNumber":33,"velocity":95},{"deltaTime":0,"channel":14,"type":"noteOn","noteNumber":33,"velocity":95},{"deltaTime":480,"channel":14,"type":"noteOff","noteNumber":33,"velocity":95},{"deltaTime":0,"channel":14,"type":"noteOn","noteNumber":33,"velocity":95},{"deltaTime":480,"channel":14,"type":"noteOff","noteNumber":33,"velocity":95},{"deltaTime":0,"channel":14,"type":"noteOn","noteNumber":36,"velocity":95},{"deltaTime":480,"channel":14,"type":"noteOff","noteNumber":36,"velocity":95},{"deltaTime":0,"channel":14,"type":"noteOn","noteNumber":35,"velocity":95},{"deltaTime":480,"channel":14,"type":"noteOff","noteNumber":35,"velocity":95},{"deltaTime":0,"channel":14,"type":"noteOn","noteNumber":33,"velocity":95},{"deltaTime":480,"channel":14,"type":"noteOff","noteNumber":33,"velocity":95},{"deltaTime":0,"channel":14,"type":"noteOn","noteNumber":33,"velocity":95},{"deltaTime":480,"channel":14,"type":"noteOff","noteNumber":33,"velocity":95},{"deltaTime":0,"channel":14,"type":"noteOn","noteNumber":33,"velocity":95},{"deltaTime":480,"channel":14,"type":"noteOff","noteNumber":33,"velocity":95},{"deltaTime":0,"channel":14,"type":"noteOn","noteNumber":33,"velocity":95},{"deltaTime":480,"channel":14,"type":"noteOff","noteNumber":33,"velocity":95},{"deltaTime":0,"channel":14,"type":"noteOn","noteNumber":33,"velocity":95},{"deltaTime":480,"channel":14,"type":"noteOff","noteNumber":33,"velocity":95},{"deltaTime":0,"channel":14,"type":"noteOn","noteNumber":33,"velocity":95},{"deltaTime":480,"channel":14,"type":"noteOff","noteNumber":33,"velocity":95},{"deltaTime":0,"channel":14,"type":"noteOn","noteNumber":33,"velocity":95},{"deltaTime":480,"channel":14,"type":"noteOff","noteNumber":33,"velocity":95},{"deltaTime":0,"channel":14,"type":"noteOn","noteNumber":33,"velocity":95},{"deltaTime":480,"channel":14,"type":"noteOff","noteNumber":33,"velocity":95},{"deltaTime":0,"channel":14,"type":"noteOn","noteNumber":33,"velocity":95},{"deltaTime":480,"channel":14,"type":"noteOff","noteNumber":33,"velocity":95},{"deltaTime":0,"channel":14,"type":"noteOn","noteNumber":33,"velocity":95},{"deltaTime":480,"channel":14,"type":"noteOff","noteNumber":33,"velocity":95},{"deltaTime":0,"channel":14,"type":"noteOn","noteNumber":33,"velocity":95},{"deltaTime":480,"channel":14,"type":"noteOff","noteNumber":33,"velocity":95},{"deltaTime":0,"channel":14,"type":"noteOn","noteNumber":33,"velocity":95},{"deltaTime":480,"channel":14,"type":"noteOff","noteNumber":33,"velocity":95},{"deltaTime":0,"channel":14,"type":"noteOn","noteNumber":33,"velocity":95},{"deltaTime":480,"channel":14,"type":"noteOff","noteNumber":33,"velocity":95},{"deltaTime":0,"channel":14,"type":"noteOn","noteNumber":33,"velocity":95},{"deltaTime":480,"channel":14,"type":"noteOff","noteNumber":33,"velocity":95},{"deltaTime":0,"channel":14,"type":"noteOn","noteNumber":33,"velocity":95},{"deltaTime":480,"channel":14,"type":"noteOff","noteNumber":33,"velocity":95},{"deltaTime":0,"channel":14,"type":"noteOn","noteNumber":33,"velocity":95},{"deltaTime":480,"channel":14,"type":"noteOff","noteNumber":33,"velocity":95},{"deltaTime":0,"channel":14,"type":"noteOn","noteNumber":33,"velocity":95},{"deltaTime":480,"channel":14,"type":"noteOff","noteNumber":33,"velocity":95},{"deltaTime":0,"channel":14,"type":"noteOn","noteNumber":33,"velocity":95},{"deltaTime":480,"channel":14,"type":"noteOff","noteNumber":33,"velocity":95},{"deltaTime":0,"channel":14,"type":"noteOn","noteNumber":33,"velocity":95},{"deltaTime":480,"channel":14,"type":"noteOff","noteNumber":33,"velocity":95},{"deltaTime":0,"channel":14,"type":"noteOn","noteNumber":33,"velocity":95},{"deltaTime":480,"channel":14,"type":"noteOff","noteNumber":33,"velocity":95},{"deltaTime":0,"channel":14,"type":"noteOn","noteNumber":33,"velocity":95},{"deltaTime":480,"channel":14,"type":"noteOff","noteNumber":33,"velocity":95},{"deltaTime":0,"channel":14,"type":"noteOn","noteNumber":33,"velocity":95},{"deltaTime":480,"channel":14,"type":"noteOff","noteNumber":33,"velocity":95},{"deltaTime":0,"channel":14,"type":"noteOn","noteNumber":45,"velocity":95},{"deltaTime":480,"channel":14,"type":"noteOff","noteNumber":45,"velocity":95},{"deltaTime":0,"channel":14,"type":"noteOn","noteNumber":45,"velocity":95},{"deltaTime":480,"channel":14,"type":"noteOff","noteNumber":45,"velocity":95},{"deltaTime":0,"channel":14,"type":"noteOn","noteNumber":43,"velocity":95},{"deltaTime":240,"channel":14,"type":"noteOff","noteNumber":43,"velocity":95},{"deltaTime":0,"channel":14,"type":"noteOn","noteNumber":43,"velocity":95},{"deltaTime":240,"channel":14,"type":"noteOff","noteNumber":43,"velocity":95},{"deltaTime":0,"channel":14,"type":"noteOn","noteNumber":43,"velocity":95},{"deltaTime":480,"channel":14,"type":"noteOff","noteNumber":43,"velocity":95},{"deltaTime":0,"channel":14,"type":"noteOn","noteNumber":43,"velocity":95},{"deltaTime":480,"channel":14,"type":"noteOff","noteNumber":43,"velocity":95},{"deltaTime":0,"channel":14,"type":"noteOn","noteNumber":45,"velocity":95},{"deltaTime":480,"channel":14,"type":"noteOff","noteNumber":45,"velocity":95},{"deltaTime":0,"channel":14,"type":"noteOn","noteNumber":38,"velocity":95},{"deltaTime":960,"channel":14,"type":"noteOff","noteNumber":38,"velocity":95},{"deltaTime":0,"channel":14,"type":"noteOn","noteNumber":36,"velocity":95},{"deltaTime":480,"channel":14,"type":"noteOff","noteNumber":36,"velocity":95},{"deltaTime":0,"channel":14,"type":"noteOn","noteNumber":35,"velocity":95},{"deltaTime":480,"channel":14,"type":"noteOff","noteNumber":35,"velocity":95},{"deltaTime":0,"channel":14,"type":"noteOn","noteNumber":33,"velocity":95},{"deltaTime":480,"channel":14,"type":"noteOff","noteNumber":33,"velocity":95},{"deltaTime":0,"channel":14,"type":"noteOn","noteNumber":33,"velocity":95},{"deltaTime":480,"channel":14,"type":"noteOff","noteNumber":33,"velocity":95},{"deltaTime":0,"channel":14,"type":"noteOn","noteNumber":33,"velocity":95},{"deltaTime":480,"channel":14,"type":"noteOff","noteNumber":33,"velocity":95},{"deltaTime":0,"channel":14,"type":"noteOn","noteNumber":33,"velocity":95},{"deltaTime":480,"channel":14,"type":"noteOff","noteNumber":33,"velocity":95},{"deltaTime":0,"channel":14,"type":"noteOn","noteNumber":33,"velocity":95},{"deltaTime":480,"channel":14,"type":"noteOff","noteNumber":33,"velocity":95},{"deltaTime":0,"channel":14,"type":"noteOn","noteNumber":33,"velocity":95},{"deltaTime":480,"channel":14,"type":"noteOff","noteNumber":33,"velocity":95},{"deltaTime":0,"channel":14,"type":"noteOn","noteNumber":33,"velocity":95},{"deltaTime":480,"channel":14,"type":"noteOff","noteNumber":33,"velocity":95},{"deltaTime":0,"channel":14,"type":"noteOn","noteNumber":33,"velocity":95},{"deltaTime":480,"channel":14,"type":"noteOff","noteNumber":33,"velocity":95},{"deltaTime":0,"channel":14,"type":"noteOn","noteNumber":38,"velocity":95},{"deltaTime":480,"channel":14,"type":"noteOff","noteNumber":38,"velocity":95},{"deltaTime":0,"channel":14,"type":"noteOn","noteNumber":38,"velocity":95},{"deltaTime":480,"channel":14,"type":"noteOff","noteNumber":38,"velocity":95},{"deltaTime":0,"channel":14,"type":"noteOn","noteNumber":38,"velocity":95},{"deltaTime":480,"channel":14,"type":"noteOff","noteNumber":38,"velocity":95},{"deltaTime":0,"channel":14,"type":"noteOn","noteNumber":38,"velocity":95},{"deltaTime":480,"channel":14,"type":"noteOff","noteNumber":38,"velocity":95},{"deltaTime":0,"channel":14,"type":"noteOn","noteNumber":38,"velocity":95},{"deltaTime":480,"channel":14,"type":"noteOff","noteNumber":38,"velocity":95},{"deltaTime":0,"channel":14,"type":"noteOn","noteNumber":36,"velocity":95},{"deltaTime":960,"channel":14,"type":"noteOff","noteNumber":36,"velocity":95},{"deltaTime":0,"channel":14,"type":"noteOn","noteNumber":35,"velocity":95},{"deltaTime":960,"channel":14,"type":"noteOff","noteNumber":35,"velocity":95},{"deltaTime":0,"channel":14,"type":"noteOn","noteNumber":33,"velocity":95},{"deltaTime":480,"channel":14,"type":"noteOff","noteNumber":33,"velocity":95},{"deltaTime":0,"channel":14,"type":"noteOn","noteNumber":33,"velocity":95},{"deltaTime":480,"channel":14,"type":"noteOff","noteNumber":33,"velocity":95},{"deltaTime":0,"channel":14,"type":"noteOn","noteNumber":33,"velocity":95},{"deltaTime":480,"channel":14,"type":"noteOff","noteNumber":33,"velocity":95},{"deltaTime":0,"channel":14,"type":"noteOn","noteNumber":33,"velocity":95},{"deltaTime":480,"channel":14,"type":"noteOff","noteNumber":33,"velocity":95},{"deltaTime":0,"channel":14,"type":"noteOn","noteNumber":33,"velocity":95},{"deltaTime":480,"channel":14,"type":"noteOff","noteNumber":33,"velocity":95},{"deltaTime":0,"channel":14,"type":"noteOn","noteNumber":33,"velocity":95},{"deltaTime":480,"channel":14,"type":"noteOff","noteNumber":33,"velocity":95},{"deltaTime":0,"channel":14,"type":"noteOn","noteNumber":33,"velocity":95},{"deltaTime":480,"channel":14,"type":"noteOff","noteNumber":33,"velocity":95},{"deltaTime":0,"channel":14,"type":"noteOn","noteNumber":38,"velocity":95},{"deltaTime":480,"channel":14,"type":"noteOff","noteNumber":38,"velocity":95},{"deltaTime":0,"channel":14,"type":"noteOn","noteNumber":38,"velocity":95},{"deltaTime":480,"channel":14,"type":"noteOff","noteNumber":38,"velocity":95},{"deltaTime":0,"channel":14,"type":"noteOn","noteNumber":38,"velocity":95},{"deltaTime":480,"channel":14,"type":"noteOff","noteNumber":38,"velocity":95},{"deltaTime":0,"channel":14,"type":"noteOn","noteNumber":38,"velocity":95},{"deltaTime":480,"channel":14,"type":"noteOff","noteNumber":38,"velocity":95},{"deltaTime":0,"channel":14,"type":"noteOn","noteNumber":38,"velocity":95},{"deltaTime":480,"channel":14,"type":"noteOff","noteNumber":38,"velocity":95},{"deltaTime":0,"channel":14,"type":"noteOn","noteNumber":36,"velocity":95},{"deltaTime":960,"channel":14,"type":"noteOff","noteNumber":36,"velocity":95},{"deltaTime":0,"channel":14,"type":"noteOn","noteNumber":35,"velocity":95},{"deltaTime":960,"channel":14,"type":"noteOff","noteNumber":35,"velocity":95},{"deltaTime":0,"channel":14,"type":"noteOn","noteNumber":33,"velocity":95},{"deltaTime":480,"channel":14,"type":"noteOff","noteNumber":33,"velocity":95},{"deltaTime":0,"channel":14,"type":"noteOn","noteNumber":33,"velocity":95},{"deltaTime":480,"channel":14,"type":"noteOff","noteNumber":33,"velocity":95},{"deltaTime":0,"channel":14,"type":"noteOn","noteNumber":33,"velocity":95},{"deltaTime":480,"channel":14,"type":"noteOff","noteNumber":33,"velocity":95},{"deltaTime":0,"channel":14,"type":"noteOn","noteNumber":33,"velocity":95},{"deltaTime":480,"channel":14,"type":"noteOff","noteNumber":33,"velocity":95},{"deltaTime":0,"channel":14,"type":"noteOn","noteNumber":33,"velocity":95},{"deltaTime":480,"channel":14,"type":"noteOff","noteNumber":33,"velocity":95},{"deltaTime":0,"channel":14,"type":"noteOn","noteNumber":33,"velocity":95},{"deltaTime":480,"channel":14,"type":"noteOff","noteNumber":33,"velocity":95},{"deltaTime":0,"channel":14,"type":"noteOn","noteNumber":33,"velocity":95},{"deltaTime":480,"channel":14,"type":"noteOff","noteNumber":33,"velocity":95},{"deltaTime":0,"channel":14,"type":"noteOn","noteNumber":38,"velocity":95},{"deltaTime":480,"channel":14,"type":"noteOff","noteNumber":38,"velocity":95},{"deltaTime":0,"channel":14,"type":"noteOn","noteNumber":38,"velocity":95},{"deltaTime":480,"channel":14,"type":"noteOff","noteNumber":38,"velocity":95},{"deltaTime":0,"channel":14,"type":"noteOn","noteNumber":38,"velocity":95},{"deltaTime":480,"channel":14,"type":"noteOff","noteNumber":38,"velocity":95},{"deltaTime":0,"channel":14,"type":"noteOn","noteNumber":38,"velocity":95},{"deltaTime":480,"channel":14,"type":"noteOff","noteNumber":38,"velocity":95},{"deltaTime":0,"channel":14,"type":"noteOn","noteNumber":38,"velocity":95},{"deltaTime":480,"channel":14,"type":"noteOff","noteNumber":38,"velocity":95},{"deltaTime":0,"channel":14,"type":"noteOn","noteNumber":36,"velocity":95},{"deltaTime":480,"channel":14,"type":"noteOff","noteNumber":36,"velocity":95},{"deltaTime":0,"channel":14,"type":"noteOn","noteNumber":36,"velocity":95},{"deltaTime":480,"channel":14,"type":"noteOff","noteNumber":36,"velocity":95},{"deltaTime":0,"channel":14,"type":"noteOn","noteNumber":35,"velocity":95},{"deltaTime":480,"channel":14,"type":"noteOff","noteNumber":35,"velocity":95},{"deltaTime":0,"channel":14,"type":"noteOn","noteNumber":35,"velocity":95},{"deltaTime":480,"channel":14,"type":"noteOff","noteNumber":35,"velocity":95},{"deltaTime":0,"channel":14,"type":"noteOn","noteNumber":33,"velocity":95},{"deltaTime":480,"channel":14,"type":"noteOff","noteNumber":33,"velocity":95},{"deltaTime":0,"channel":14,"type":"noteOn","noteNumber":33,"velocity":95},{"deltaTime":480,"channel":14,"type":"noteOff","noteNumber":33,"velocity":95},{"deltaTime":0,"channel":14,"type":"noteOn","noteNumber":33,"velocity":95},{"deltaTime":480,"channel":14,"type":"noteOff","noteNumber":33,"velocity":95},{"deltaTime":0,"channel":14,"type":"noteOn","noteNumber":33,"velocity":95},{"deltaTime":480,"channel":14,"type":"noteOff","noteNumber":33,"velocity":95},{"deltaTime":0,"channel":14,"type":"noteOn","noteNumber":33,"velocity":95},{"deltaTime":480,"channel":14,"type":"noteOff","noteNumber":33,"velocity":95},{"deltaTime":0,"channel":14,"type":"noteOn","noteNumber":33,"velocity":95},{"deltaTime":480,"channel":14,"type":"noteOff","noteNumber":33,"velocity":95},{"deltaTime":0,"channel":14,"type":"noteOn","noteNumber":33,"velocity":95},{"deltaTime":480,"channel":14,"type":"noteOff","noteNumber":33,"velocity":95},{"deltaTime":0,"channel":14,"type":"noteOn","noteNumber":38,"velocity":95},{"deltaTime":480,"channel":14,"type":"noteOff","noteNumber":38,"velocity":95},{"deltaTime":0,"channel":14,"type":"noteOn","noteNumber":38,"velocity":95},{"deltaTime":480,"channel":14,"type":"noteOff","noteNumber":38,"velocity":95},{"deltaTime":0,"channel":14,"type":"noteOn","noteNumber":38,"velocity":95},{"deltaTime":480,"channel":14,"type":"noteOff","noteNumber":38,"velocity":95},{"deltaTime":0,"channel":14,"type":"noteOn","noteNumber":38,"velocity":95},{"deltaTime":480,"channel":14,"type":"noteOff","noteNumber":38,"velocity":95},{"deltaTime":0,"channel":14,"type":"noteOn","noteNumber":38,"velocity":95},{"deltaTime":480,"channel":14,"type":"noteOff","noteNumber":38,"velocity":95},{"deltaTime":0,"channel":14,"type":"noteOn","noteNumber":36,"velocity":95},{"deltaTime":480,"channel":14,"type":"noteOff","noteNumber":36,"velocity":95},{"deltaTime":0,"channel":14,"type":"noteOn","noteNumber":36,"velocity":95},{"deltaTime":480,"channel":14,"type":"noteOff","noteNumber":36,"velocity":95},{"deltaTime":0,"channel":14,"type":"noteOn","noteNumber":35,"velocity":95},{"deltaTime":480,"channel":14,"type":"noteOff","noteNumber":35,"velocity":95},{"deltaTime":0,"channel":14,"type":"noteOn","noteNumber":35,"velocity":95},{"deltaTime":480,"channel":14,"type":"noteOff","noteNumber":35,"velocity":95},{"deltaTime":0,"channel":14,"type":"noteOn","noteNumber":33,"velocity":95},{"deltaTime":480,"channel":14,"type":"noteOff","noteNumber":33,"velocity":95},{"deltaTime":0,"channel":14,"type":"noteOn","noteNumber":33,"velocity":95},{"deltaTime":480,"channel":14,"type":"noteOff","noteNumber":33,"velocity":95},{"deltaTime":0,"channel":14,"type":"noteOn","noteNumber":33,"velocity":95},{"deltaTime":480,"channel":14,"type":"noteOff","noteNumber":33,"velocity":95},{"deltaTime":0,"channel":14,"type":"noteOn","noteNumber":33,"velocity":95},{"deltaTime":480,"channel":14,"type":"noteOff","noteNumber":33,"velocity":95},{"deltaTime":0,"channel":14,"type":"noteOn","noteNumber":33,"velocity":95},{"deltaTime":480,"channel":14,"type":"noteOff","noteNumber":33,"velocity":95},{"deltaTime":0,"channel":14,"type":"noteOn","noteNumber":33,"velocity":95},{"deltaTime":480,"channel":14,"type":"noteOff","noteNumber":33,"velocity":95},{"deltaTime":0,"channel":14,"type":"noteOn","noteNumber":33,"velocity":95},{"deltaTime":480,"channel":14,"type":"noteOff","noteNumber":33,"velocity":95},{"deltaTime":0,"channel":14,"type":"noteOn","noteNumber":38,"velocity":95},{"deltaTime":480,"channel":14,"type":"noteOff","noteNumber":38,"velocity":95},{"deltaTime":0,"channel":14,"type":"noteOn","noteNumber":38,"velocity":95},{"deltaTime":480,"channel":14,"type":"noteOff","noteNumber":38,"velocity":95},{"deltaTime":0,"channel":14,"type":"noteOn","noteNumber":38,"velocity":95},{"deltaTime":480,"channel":14,"type":"noteOff","noteNumber":38,"velocity":95},{"deltaTime":0,"channel":14,"type":"noteOn","noteNumber":38,"velocity":95},{"deltaTime":480,"channel":14,"type":"noteOff","noteNumber":38,"velocity":95},{"deltaTime":0,"channel":14,"type":"noteOn","noteNumber":38,"velocity":95},{"deltaTime":480,"channel":14,"type":"noteOff","noteNumber":38,"velocity":95},{"deltaTime":0,"channel":14,"type":"noteOn","noteNumber":36,"velocity":95},{"deltaTime":480,"channel":14,"type":"noteOff","noteNumber":36,"velocity":95},{"deltaTime":0,"channel":14,"type":"noteOn","noteNumber":36,"velocity":95},{"deltaTime":480,"channel":14,"type":"noteOff","noteNumber":36,"velocity":95},{"deltaTime":0,"channel":14,"type":"noteOn","noteNumber":35,"velocity":95},{"deltaTime":480,"channel":14,"type":"noteOff","noteNumber":35,"velocity":95},{"deltaTime":0,"channel":14,"type":"noteOn","noteNumber":35,"velocity":95},{"deltaTime":480,"channel":14,"type":"noteOff","noteNumber":35,"velocity":95},{"deltaTime":0,"channel":14,"type":"noteOn","noteNumber":33,"velocity":95},{"deltaTime":480,"channel":14,"type":"noteOff","noteNumber":33,"velocity":95},{"deltaTime":0,"channel":14,"type":"noteOn","noteNumber":33,"velocity":95},{"deltaTime":480,"channel":14,"type":"noteOff","noteNumber":33,"velocity":95},{"deltaTime":0,"channel":14,"type":"noteOn","noteNumber":33,"velocity":95},{"deltaTime":480,"channel":14,"type":"noteOff","noteNumber":33,"velocity":95},{"deltaTime":0,"channel":14,"type":"noteOn","noteNumber":33,"velocity":95},{"deltaTime":480,"channel":14,"type":"noteOff","noteNumber":33,"velocity":95},{"deltaTime":0,"channel":14,"type":"noteOn","noteNumber":33,"velocity":95},{"deltaTime":480,"channel":14,"type":"noteOff","noteNumber":33,"velocity":95},{"deltaTime":0,"channel":14,"type":"noteOn","noteNumber":33,"velocity":95},{"deltaTime":480,"channel":14,"type":"noteOff","noteNumber":33,"velocity":95},{"deltaTime":0,"channel":14,"type":"noteOn","noteNumber":33,"velocity":95},{"deltaTime":480,"channel":14,"type":"noteOff","noteNumber":33,"velocity":95},{"deltaTime":0,"channel":14,"type":"noteOn","noteNumber":38,"velocity":95},{"deltaTime":480,"channel":14,"type":"noteOff","noteNumber":38,"velocity":95},{"deltaTime":0,"channel":14,"type":"noteOn","noteNumber":38,"velocity":95},{"deltaTime":480,"channel":14,"type":"noteOff","noteNumber":38,"velocity":95},{"deltaTime":0,"channel":14,"type":"noteOn","noteNumber":38,"velocity":95},{"deltaTime":480,"channel":14,"type":"noteOff","noteNumber":38,"velocity":95},{"deltaTime":0,"channel":14,"type":"noteOn","noteNumber":38,"velocity":95},{"deltaTime":480,"channel":14,"type":"noteOff","noteNumber":38,"velocity":95},{"deltaTime":0,"channel":14,"type":"noteOn","noteNumber":38,"velocity":95},{"deltaTime":480,"channel":14,"type":"noteOff","noteNumber":38,"velocity":95},{"deltaTime":0,"channel":14,"type":"noteOn","noteNumber":36,"velocity":95},{"deltaTime":960,"channel":14,"type":"noteOff","noteNumber":36,"velocity":95},{"deltaTime":0,"channel":14,"type":"noteOn","noteNumber":35,"velocity":95},{"deltaTime":960,"channel":14,"type":"noteOff","noteNumber":35,"velocity":95},{"deltaTime":0,"channel":14,"type":"noteOn","noteNumber":38,"velocity":95},{"deltaTime":480,"channel":14,"type":"noteOff","noteNumber":38,"velocity":95},{"deltaTime":0,"channel":14,"type":"noteOn","noteNumber":38,"velocity":95},{"deltaTime":480,"channel":14,"type":"noteOff","noteNumber":38,"velocity":95},{"deltaTime":0,"channel":14,"type":"noteOn","noteNumber":38,"velocity":95},{"deltaTime":480,"channel":14,"type":"noteOff","noteNumber":38,"velocity":95},{"deltaTime":0,"channel":14,"type":"noteOn","noteNumber":38,"velocity":95},{"deltaTime":480,"channel":14,"type":"noteOff","noteNumber":38,"velocity":95},{"deltaTime":0,"channel":14,"type":"noteOn","noteNumber":38,"velocity":95},{"deltaTime":480,"channel":14,"type":"noteOff","noteNumber":38,"velocity":95},{"deltaTime":0,"channel":14,"type":"noteOn","noteNumber":38,"velocity":95},{"deltaTime":480,"channel":14,"type":"noteOff","noteNumber":38,"velocity":95},{"deltaTime":0,"channel":14,"type":"noteOn","noteNumber":38,"velocity":95},{"deltaTime":480,"channel":14,"type":"noteOff","noteNumber":38,"velocity":95},{"deltaTime":0,"channel":14,"type":"noteOn","noteNumber":38,"velocity":95},{"deltaTime":960,"channel":14,"type":"noteOff","noteNumber":38,"velocity":95},{"deltaTime":0,"channel":14,"type":"noteOn","noteNumber":38,"velocity":95},{"deltaTime":480,"channel":14,"type":"noteOff","noteNumber":38,"velocity":95},{"deltaTime":0,"channel":14,"type":"noteOn","noteNumber":38,"velocity":95},{"deltaTime":480,"channel":14,"type":"noteOff","noteNumber":38,"velocity":95},{"deltaTime":0,"channel":14,"type":"noteOn","noteNumber":33,"velocity":95},{"deltaTime":480,"channel":14,"type":"noteOff","noteNumber":33,"velocity":95},{"deltaTime":0,"channel":14,"type":"noteOn","noteNumber":36,"velocity":95},{"deltaTime":960,"channel":14,"type":"noteOff","noteNumber":36,"velocity":95},{"deltaTime":0,"channel":14,"type":"noteOn","noteNumber":31,"velocity":95},{"deltaTime":960,"channel":14,"type":"noteOff","noteNumber":31,"velocity":95},{"deltaTime":0,"channel":14,"type":"noteOn","noteNumber":38,"velocity":95},{"deltaTime":480,"channel":14,"type":"noteOff","noteNumber":38,"velocity":95},{"deltaTime":0,"channel":14,"type":"noteOn","noteNumber":38,"velocity":95},{"deltaTime":480,"channel":14,"type":"noteOff","noteNumber":38,"velocity":95},{"deltaTime":0,"channel":14,"type":"noteOn","noteNumber":38,"velocity":95},{"deltaTime":480,"channel":14,"type":"noteOff","noteNumber":38,"velocity":95},{"deltaTime":0,"channel":14,"type":"noteOn","noteNumber":38,"velocity":95},{"deltaTime":480,"channel":14,"type":"noteOff","noteNumber":38,"velocity":95},{"deltaTime":0,"channel":14,"type":"noteOn","noteNumber":38,"velocity":95},{"deltaTime":480,"channel":14,"type":"noteOff","noteNumber":38,"velocity":95},{"deltaTime":0,"channel":14,"type":"noteOn","noteNumber":38,"velocity":95},{"deltaTime":480,"channel":14,"type":"noteOff","noteNumber":38,"velocity":95},{"deltaTime":0,"channel":14,"type":"noteOn","noteNumber":38,"velocity":95},{"deltaTime":480,"channel":14,"type":"noteOff","noteNumber":38,"velocity":95},{"deltaTime":0,"channel":14,"type":"noteOn","noteNumber":38,"velocity":95},{"deltaTime":960,"channel":14,"type":"noteOff","noteNumber":38,"velocity":95},{"deltaTime":0,"channel":14,"type":"noteOn","noteNumber":38,"velocity":95},{"deltaTime":480,"channel":14,"type":"noteOff","noteNumber":38,"velocity":95},{"deltaTime":0,"channel":14,"type":"noteOn","noteNumber":38,"velocity":95},{"deltaTime":480,"channel":14,"type":"noteOff","noteNumber":38,"velocity":95},{"deltaTime":0,"channel":14,"type":"noteOn","noteNumber":33,"velocity":95},{"deltaTime":480,"channel":14,"type":"noteOff","noteNumber":33,"velocity":95},{"deltaTime":0,"channel":14,"type":"noteOn","noteNumber":36,"velocity":95},{"deltaTime":960,"channel":14,"type":"noteOff","noteNumber":36,"velocity":95},{"deltaTime":0,"channel":14,"type":"noteOn","noteNumber":31,"velocity":95},{"deltaTime":960,"channel":14,"type":"noteOff","noteNumber":31,"velocity":95},{"deltaTime":0,"channel":14,"type":"noteOn","noteNumber":40,"velocity":95},{"deltaTime":480,"channel":14,"type":"noteOff","noteNumber":40,"velocity":95},{"deltaTime":0,"channel":14,"type":"noteOn","noteNumber":40,"velocity":95},{"deltaTime":480,"channel":14,"type":"noteOff","noteNumber":40,"velocity":95},{"deltaTime":0,"channel":14,"type":"noteOn","noteNumber":40,"velocity":95},{"deltaTime":480,"channel":14,"type":"noteOff","noteNumber":40,"velocity":95},{"deltaTime":0,"channel":14,"type":"noteOn","noteNumber":40,"velocity":95},{"deltaTime":480,"channel":14,"type":"noteOff","noteNumber":40,"velocity":95},{"deltaTime":0,"channel":14,"type":"noteOn","noteNumber":40,"velocity":95},{"deltaTime":480,"channel":14,"type":"noteOff","noteNumber":40,"velocity":95},{"deltaTime":0,"channel":14,"type":"noteOn","noteNumber":40,"velocity":95},{"deltaTime":480,"channel":14,"type":"noteOff","noteNumber":40,"velocity":95},{"deltaTime":0,"channel":14,"type":"noteOn","noteNumber":40,"velocity":95},{"deltaTime":480,"channel":14,"type":"noteOff","noteNumber":40,"velocity":95},{"deltaTime":0,"channel":14,"type":"noteOn","noteNumber":40,"velocity":95},{"deltaTime":480,"channel":14,"type":"noteOff","noteNumber":40,"velocity":95},{"deltaTime":0,"channel":14,"type":"noteOn","noteNumber":40,"velocity":95},{"deltaTime":480,"channel":14,"type":"noteOff","noteNumber":40,"velocity":95},{"deltaTime":0,"channel":14,"type":"noteOn","noteNumber":40,"velocity":95},{"deltaTime":480,"channel":14,"type":"noteOff","noteNumber":40,"velocity":95},{"deltaTime":0,"channel":14,"type":"noteOn","noteNumber":40,"velocity":95},{"deltaTime":480,"channel":14,"type":"noteOff","noteNumber":40,"velocity":95},{"deltaTime":0,"channel":14,"type":"noteOn","noteNumber":40,"velocity":95},{"deltaTime":480,"channel":14,"type":"noteOff","noteNumber":40,"velocity":95},{"deltaTime":0,"channel":14,"type":"noteOn","noteNumber":38,"velocity":95},{"deltaTime":960,"channel":14,"type":"noteOff","noteNumber":38,"velocity":95},{"deltaTime":0,"channel":14,"type":"noteOn","noteNumber":33,"velocity":95},{"deltaTime":960,"channel":14,"type":"noteOff","noteNumber":33,"velocity":95},{"deltaTime":0,"channel":14,"type":"noteOn","noteNumber":28,"velocity":95},{"deltaTime":480,"channel":14,"type":"noteOff","noteNumber":28,"velocity":95},{"deltaTime":0,"channel":14,"type":"noteOn","noteNumber":28,"velocity":95},{"deltaTime":480,"channel":14,"type":"noteOff","noteNumber":28,"velocity":95},{"deltaTime":0,"channel":14,"type":"noteOn","noteNumber":28,"velocity":95},{"deltaTime":480,"channel":14,"type":"noteOff","noteNumber":28,"velocity":95},{"deltaTime":0,"channel":14,"type":"noteOn","noteNumber":28,"velocity":95},{"deltaTime":480,"channel":14,"type":"noteOff","noteNumber":28,"velocity":95},{"deltaTime":0,"channel":14,"type":"noteOn","noteNumber":28,"velocity":95},{"deltaTime":480,"channel":14,"type":"noteOff","noteNumber":28,"velocity":95},{"deltaTime":0,"channel":14,"type":"noteOn","noteNumber":28,"velocity":95},{"deltaTime":480,"channel":14,"type":"noteOff","noteNumber":28,"velocity":95},{"deltaTime":0,"channel":14,"type":"noteOn","noteNumber":28,"velocity":95},{"deltaTime":480,"channel":14,"type":"noteOff","noteNumber":28,"velocity":95},{"deltaTime":0,"channel":14,"type":"noteOn","noteNumber":28,"velocity":95},{"deltaTime":480,"channel":14,"type":"noteOff","noteNumber":28,"velocity":95},{"deltaTime":0,"channel":14,"type":"noteOn","noteNumber":28,"velocity":95},{"deltaTime":480,"channel":14,"type":"noteOff","noteNumber":28,"velocity":95},{"deltaTime":0,"channel":14,"type":"noteOn","noteNumber":28,"velocity":95},{"deltaTime":480,"channel":14,"type":"noteOff","noteNumber":28,"velocity":95},{"deltaTime":0,"channel":14,"type":"noteOn","noteNumber":28,"velocity":95},{"deltaTime":480,"channel":14,"type":"noteOff","noteNumber":28,"velocity":95},{"deltaTime":0,"channel":14,"type":"noteOn","noteNumber":28,"velocity":95},{"deltaTime":480,"channel":14,"type":"noteOff","noteNumber":28,"velocity":95},{"deltaTime":0,"channel":14,"type":"noteOn","noteNumber":31,"velocity":95},{"deltaTime":480,"channel":14,"type":"noteOff","noteNumber":31,"velocity":95},{"deltaTime":0,"channel":14,"type":"noteOn","noteNumber":31,"velocity":95},{"deltaTime":480,"channel":14,"type":"noteOff","noteNumber":31,"velocity":95},{"deltaTime":0,"channel":15,"type":"noteOn","noteNumber":31,"velocity":95},{"deltaTime":120,"channel":15,"type":"pitchBend","value":128},{"deltaTime":120,"channel":15,"type":"pitchBend","value":256},{"deltaTime":120,"channel":15,"type":"pitchBend","value":512},{"deltaTime":120,"channel":15,"type":"pitchBend","value":640},{"deltaTime":0,"channel":15,"type":"pitchBend","value":0},{"deltaTime":0,"channel":15,"type":"noteOff","noteNumber":31,"velocity":95},{"deltaTime":0,"channel":14,"type":"noteOn","noteNumber":32,"velocity":95},{"deltaTime":480,"channel":14,"type":"noteOff","noteNumber":32,"velocity":95},{"deltaTime":0,"channel":14,"type":"noteOn","noteNumber":33,"velocity":95},{"deltaTime":480,"channel":14,"type":"noteOff","noteNumber":33,"velocity":95},{"deltaTime":0,"channel":14,"type":"noteOn","noteNumber":33,"velocity":95},{"deltaTime":480,"channel":14,"type":"noteOff","noteNumber":33,"velocity":95},{"deltaTime":0,"channel":14,"type":"noteOn","noteNumber":33,"velocity":95},{"deltaTime":480,"channel":14,"type":"noteOff","noteNumber":33,"velocity":95},{"deltaTime":0,"channel":14,"type":"noteOn","noteNumber":33,"velocity":95},{"deltaTime":480,"channel":14,"type":"noteOff","noteNumber":33,"velocity":95},{"deltaTime":0,"channel":14,"type":"noteOn","noteNumber":33,"velocity":95},{"deltaTime":480,"channel":14,"type":"noteOff","noteNumber":33,"velocity":95},{"deltaTime":0,"channel":14,"type":"noteOn","noteNumber":33,"velocity":95},{"deltaTime":480,"channel":14,"type":"noteOff","noteNumber":33,"velocity":95},{"deltaTime":0,"channel":14,"type":"noteOn","noteNumber":33,"velocity":95},{"deltaTime":480,"channel":14,"type":"noteOff","noteNumber":33,"velocity":95},{"deltaTime":0,"channel":14,"type":"noteOn","noteNumber":33,"velocity":95},{"deltaTime":480,"channel":14,"type":"noteOff","noteNumber":33,"velocity":95},{"deltaTime":0,"channel":14,"type":"noteOn","noteNumber":33,"velocity":95},{"deltaTime":480,"channel":14,"type":"noteOff","noteNumber":33,"velocity":95},{"deltaTime":0,"channel":14,"type":"noteOn","noteNumber":33,"velocity":95},{"deltaTime":480,"channel":14,"type":"noteOff","noteNumber":33,"velocity":95},{"deltaTime":0,"channel":14,"type":"noteOn","noteNumber":33,"velocity":95},{"deltaTime":480,"channel":14,"type":"noteOff","noteNumber":33,"velocity":95},{"deltaTime":0,"channel":14,"type":"noteOn","noteNumber":33,"velocity":95},{"deltaTime":480,"channel":14,"type":"noteOff","noteNumber":33,"velocity":95},{"deltaTime":0,"channel":14,"type":"noteOn","noteNumber":33,"velocity":95},{"deltaTime":480,"channel":14,"type":"noteOff","noteNumber":33,"velocity":95},{"deltaTime":0,"channel":14,"type":"noteOn","noteNumber":33,"velocity":95},{"deltaTime":480,"channel":14,"type":"noteOff","noteNumber":33,"velocity":95},{"deltaTime":0,"channel":14,"type":"noteOn","noteNumber":33,"velocity":95},{"deltaTime":480,"channel":14,"type":"noteOff","noteNumber":33,"velocity":95},{"deltaTime":0,"channel":14,"type":"noteOn","noteNumber":33,"velocity":95},{"deltaTime":480,"channel":14,"type":"noteOff","noteNumber":33,"velocity":95},{"deltaTime":0,"channel":14,"type":"noteOn","noteNumber":33,"velocity":95},{"deltaTime":480,"channel":14,"type":"noteOff","noteNumber":33,"velocity":95},{"deltaTime":0,"channel":14,"type":"noteOn","noteNumber":33,"velocity":95},{"deltaTime":480,"channel":14,"type":"noteOff","noteNumber":33,"velocity":95},{"deltaTime":0,"channel":14,"type":"noteOn","noteNumber":33,"velocity":95},{"deltaTime":480,"channel":14,"type":"noteOff","noteNumber":33,"velocity":95},{"deltaTime":0,"channel":14,"type":"noteOn","noteNumber":33,"velocity":95},{"deltaTime":480,"channel":14,"type":"noteOff","noteNumber":33,"velocity":95},{"deltaTime":0,"channel":14,"type":"noteOn","noteNumber":33,"velocity":95},{"deltaTime":480,"channel":14,"type":"noteOff","noteNumber":33,"velocity":95},{"deltaTime":0,"channel":14,"type":"noteOn","noteNumber":33,"velocity":95},{"deltaTime":480,"channel":14,"type":"noteOff","noteNumber":33,"velocity":95},{"deltaTime":0,"channel":14,"type":"noteOn","noteNumber":33,"velocity":95},{"deltaTime":480,"channel":14,"type":"noteOff","noteNumber":33,"velocity":95},{"deltaTime":0,"channel":14,"type":"noteOn","noteNumber":33,"velocity":95},{"deltaTime":480,"channel":14,"type":"noteOff","noteNumber":33,"velocity":95},{"deltaTime":0,"channel":14,"type":"noteOn","noteNumber":33,"velocity":95},{"deltaTime":480,"channel":14,"type":"noteOff","noteNumber":33,"velocity":95},{"deltaTime":0,"channel":14,"type":"noteOn","noteNumber":33,"velocity":95},{"deltaTime":480,"channel":14,"type":"noteOff","noteNumber":33,"velocity":95},{"deltaTime":0,"channel":14,"type":"noteOn","noteNumber":33,"velocity":95},{"deltaTime":480,"channel":14,"type":"noteOff","noteNumber":33,"velocity":95},{"deltaTime":0,"channel":14,"type":"noteOn","noteNumber":33,"velocity":95},{"deltaTime":480,"channel":14,"type":"noteOff","noteNumber":33,"velocity":95},{"deltaTime":0,"channel":14,"type":"noteOn","noteNumber":33,"velocity":95},{"deltaTime":480,"channel":14,"type":"noteOff","noteNumber":33,"velocity":95},{"deltaTime":0,"channel":14,"type":"noteOn","noteNumber":36,"velocity":95},{"deltaTime":480,"channel":14,"type":"noteOff","noteNumber":36,"velocity":95},{"deltaTime":0,"channel":14,"type":"noteOn","noteNumber":35,"velocity":95},{"deltaTime":480,"channel":14,"type":"noteOff","noteNumber":35,"velocity":95},{"deltaTime":0,"channel":14,"type":"noteOn","noteNumber":33,"velocity":95},{"deltaTime":480,"channel":14,"type":"noteOff","noteNumber":33,"velocity":95},{"deltaTime":0,"channel":14,"type":"noteOn","noteNumber":33,"velocity":95},{"deltaTime":480,"channel":14,"type":"noteOff","noteNumber":33,"velocity":95},{"deltaTime":0,"channel":14,"type":"noteOn","noteNumber":33,"velocity":95},{"deltaTime":480,"channel":14,"type":"noteOff","noteNumber":33,"velocity":95},{"deltaTime":0,"channel":14,"type":"noteOn","noteNumber":33,"velocity":95},{"deltaTime":480,"channel":14,"type":"noteOff","noteNumber":33,"velocity":95},{"deltaTime":0,"channel":14,"type":"noteOn","noteNumber":33,"velocity":95},{"deltaTime":480,"channel":14,"type":"noteOff","noteNumber":33,"velocity":95},{"deltaTime":0,"channel":14,"type":"noteOn","noteNumber":33,"velocity":95},{"deltaTime":480,"channel":14,"type":"noteOff","noteNumber":33,"velocity":95},{"deltaTime":0,"channel":14,"type":"noteOn","noteNumber":33,"velocity":95},{"deltaTime":480,"channel":14,"type":"noteOff","noteNumber":33,"velocity":95},{"deltaTime":0,"channel":14,"type":"noteOn","noteNumber":33,"velocity":95},{"deltaTime":480,"channel":14,"type":"noteOff","noteNumber":33,"velocity":95},{"deltaTime":0,"channel":14,"type":"noteOn","noteNumber":33,"velocity":95},{"deltaTime":480,"channel":14,"type":"noteOff","noteNumber":33,"velocity":95},{"deltaTime":0,"channel":14,"type":"noteOn","noteNumber":33,"velocity":95},{"deltaTime":480,"channel":14,"type":"noteOff","noteNumber":33,"velocity":95},{"deltaTime":0,"channel":14,"type":"noteOn","noteNumber":33,"velocity":95},{"deltaTime":480,"channel":14,"type":"noteOff","noteNumber":33,"velocity":95},{"deltaTime":0,"channel":14,"type":"noteOn","noteNumber":33,"velocity":95},{"deltaTime":480,"channel":14,"type":"noteOff","noteNumber":33,"velocity":95},{"deltaTime":0,"channel":14,"type":"noteOn","noteNumber":33,"velocity":95},{"deltaTime":480,"channel":14,"type":"noteOff","noteNumber":33,"velocity":95},{"deltaTime":0,"channel":14,"type":"noteOn","noteNumber":33,"velocity":95},{"deltaTime":480,"channel":14,"type":"noteOff","noteNumber":33,"velocity":95},{"deltaTime":0,"channel":14,"type":"noteOn","noteNumber":33,"velocity":95},{"deltaTime":480,"channel":14,"type":"noteOff","noteNumber":33,"velocity":95},{"deltaTime":0,"channel":14,"type":"noteOn","noteNumber":33,"velocity":95},{"deltaTime":480,"channel":14,"type":"noteOff","noteNumber":33,"velocity":95},{"deltaTime":0,"channel":14,"type":"noteOn","noteNumber":33,"velocity":95},{"deltaTime":480,"channel":14,"type":"noteOff","noteNumber":33,"velocity":95},{"deltaTime":0,"channel":14,"type":"noteOn","noteNumber":33,"velocity":95},{"deltaTime":480,"channel":14,"type":"noteOff","noteNumber":33,"velocity":95},{"deltaTime":0,"channel":14,"type":"noteOn","noteNumber":33,"velocity":95},{"deltaTime":480,"channel":14,"type":"noteOff","noteNumber":33,"velocity":95},{"deltaTime":0,"channel":14,"type":"noteOn","noteNumber":33,"velocity":95},{"deltaTime":480,"channel":14,"type":"noteOff","noteNumber":33,"velocity":95},{"deltaTime":0,"channel":14,"type":"noteOn","noteNumber":33,"velocity":95},{"deltaTime":480,"channel":14,"type":"noteOff","noteNumber":33,"velocity":95},{"deltaTime":0,"channel":14,"type":"noteOn","noteNumber":33,"velocity":95},{"deltaTime":480,"channel":14,"type":"noteOff","noteNumber":33,"velocity":95},{"deltaTime":0,"channel":14,"type":"noteOn","noteNumber":33,"velocity":95},{"deltaTime":480,"channel":14,"type":"noteOff","noteNumber":33,"velocity":95},{"deltaTime":0,"channel":14,"type":"noteOn","noteNumber":33,"velocity":95},{"deltaTime":480,"channel":14,"type":"noteOff","noteNumber":33,"velocity":95},{"deltaTime":0,"channel":14,"type":"noteOn","noteNumber":31,"velocity":95},{"deltaTime":960,"channel":14,"type":"noteOff","noteNumber":31,"velocity":95},{"deltaTime":0,"channel":14,"type":"noteOn","noteNumber":31,"velocity":95},{"deltaTime":480,"channel":14,"type":"noteOff","noteNumber":31,"velocity":95},{"deltaTime":0,"channel":14,"type":"noteOn","noteNumber":40,"velocity":95},{"deltaTime":480,"channel":14,"type":"noteOff","noteNumber":40,"velocity":95},{"deltaTime":0,"channel":14,"type":"noteOn","noteNumber":38,"velocity":95},{"deltaTime":960,"channel":14,"type":"noteOff","noteNumber":38,"velocity":95},{"deltaTime":0,"channel":14,"type":"noteOn","noteNumber":36,"velocity":95},{"deltaTime":480,"channel":14,"type":"noteOff","noteNumber":36,"velocity":95},{"deltaTime":0,"channel":14,"type":"noteOn","noteNumber":35,"velocity":95},{"deltaTime":480,"channel":14,"type":"noteOff","noteNumber":35,"velocity":95},{"deltaTime":0,"channel":14,"type":"noteOn","noteNumber":33,"velocity":95},{"deltaTime":480,"channel":14,"type":"noteOff","noteNumber":33,"velocity":95},{"deltaTime":0,"channel":14,"type":"noteOn","noteNumber":33,"velocity":95},{"deltaTime":480,"channel":14,"type":"noteOff","noteNumber":33,"velocity":95},{"deltaTime":0,"channel":14,"type":"noteOn","noteNumber":33,"velocity":95},{"deltaTime":480,"channel":14,"type":"noteOff","noteNumber":33,"velocity":95},{"deltaTime":0,"channel":14,"type":"noteOn","noteNumber":33,"velocity":95},{"deltaTime":480,"channel":14,"type":"noteOff","noteNumber":33,"velocity":95},{"deltaTime":0,"channel":14,"type":"noteOn","noteNumber":33,"velocity":95},{"deltaTime":480,"channel":14,"type":"noteOff","noteNumber":33,"velocity":95},{"deltaTime":0,"channel":14,"type":"noteOn","noteNumber":33,"velocity":95},{"deltaTime":480,"channel":14,"type":"noteOff","noteNumber":33,"velocity":95},{"deltaTime":0,"channel":14,"type":"noteOn","noteNumber":33,"velocity":95},{"deltaTime":480,"channel":14,"type":"noteOff","noteNumber":33,"velocity":95},{"deltaTime":0,"channel":14,"type":"noteOn","noteNumber":33,"velocity":95},{"deltaTime":480,"channel":14,"type":"noteOff","noteNumber":33,"velocity":95},{"deltaTime":0,"channel":14,"type":"noteOn","noteNumber":33,"velocity":95},{"deltaTime":480,"channel":14,"type":"noteOff","noteNumber":33,"velocity":95},{"deltaTime":0,"channel":14,"type":"noteOn","noteNumber":33,"velocity":95},{"deltaTime":480,"channel":14,"type":"noteOff","noteNumber":33,"velocity":95},{"deltaTime":0,"channel":14,"type":"noteOn","noteNumber":33,"velocity":95},{"deltaTime":480,"channel":14,"type":"noteOff","noteNumber":33,"velocity":95},{"deltaTime":0,"channel":14,"type":"noteOn","noteNumber":33,"velocity":95},{"deltaTime":480,"channel":14,"type":"noteOff","noteNumber":33,"velocity":95},{"deltaTime":0,"channel":14,"type":"noteOn","noteNumber":33,"velocity":95},{"deltaTime":480,"channel":14,"type":"noteOff","noteNumber":33,"velocity":95},{"deltaTime":0,"channel":14,"type":"noteOn","noteNumber":33,"velocity":95},{"deltaTime":480,"channel":14,"type":"noteOff","noteNumber":33,"velocity":95},{"deltaTime":0,"channel":14,"type":"noteOn","noteNumber":33,"velocity":95},{"deltaTime":480,"channel":14,"type":"noteOff","noteNumber":33,"velocity":95},{"deltaTime":0,"channel":14,"type":"noteOn","noteNumber":33,"velocity":95},{"deltaTime":480,"channel":14,"type":"noteOff","noteNumber":33,"velocity":95},{"deltaTime":0,"channel":14,"type":"noteOn","noteNumber":33,"velocity":95},{"deltaTime":480,"channel":14,"type":"noteOff","noteNumber":33,"velocity":95},{"deltaTime":0,"channel":14,"type":"noteOn","noteNumber":33,"velocity":95},{"deltaTime":480,"channel":14,"type":"noteOff","noteNumber":33,"velocity":95},{"deltaTime":0,"channel":14,"type":"noteOn","noteNumber":33,"velocity":95},{"deltaTime":480,"channel":14,"type":"noteOff","noteNumber":33,"velocity":95},{"deltaTime":0,"channel":14,"type":"noteOn","noteNumber":33,"velocity":95},{"deltaTime":480,"channel":14,"type":"noteOff","noteNumber":33,"velocity":95},{"deltaTime":0,"channel":14,"type":"noteOn","noteNumber":33,"velocity":95},{"deltaTime":480,"channel":14,"type":"noteOff","noteNumber":33,"velocity":95},{"deltaTime":0,"channel":14,"type":"noteOn","noteNumber":33,"velocity":95},{"deltaTime":480,"channel":14,"type":"noteOff","noteNumber":33,"velocity":95},{"deltaTime":0,"channel":14,"type":"noteOn","noteNumber":33,"velocity":95},{"deltaTime":480,"channel":14,"type":"noteOff","noteNumber":33,"velocity":95},{"deltaTime":0,"channel":14,"type":"noteOn","noteNumber":33,"velocity":95},{"deltaTime":480,"channel":14,"type":"noteOff","noteNumber":33,"velocity":95},{"deltaTime":0,"channel":14,"type":"noteOn","noteNumber":33,"velocity":95},{"deltaTime":480,"channel":14,"type":"noteOff","noteNumber":33,"velocity":95},{"deltaTime":0,"channel":14,"type":"noteOn","noteNumber":33,"velocity":95},{"deltaTime":480,"channel":14,"type":"noteOff","noteNumber":33,"velocity":95},{"deltaTime":0,"channel":14,"type":"noteOn","noteNumber":33,"velocity":95},{"deltaTime":480,"channel":14,"type":"noteOff","noteNumber":33,"velocity":95},{"deltaTime":0,"channel":14,"type":"noteOn","noteNumber":33,"velocity":95},{"deltaTime":480,"channel":14,"type":"noteOff","noteNumber":33,"velocity":95},{"deltaTime":0,"channel":14,"type":"noteOn","noteNumber":33,"velocity":95},{"deltaTime":480,"channel":14,"type":"noteOff","noteNumber":33,"velocity":95},{"deltaTime":0,"channel":14,"type":"noteOn","noteNumber":33,"velocity":95},{"deltaTime":480,"channel":14,"type":"noteOff","noteNumber":33,"velocity":95},{"deltaTime":0,"channel":14,"type":"noteOn","noteNumber":33,"velocity":95},{"deltaTime":480,"channel":14,"type":"noteOff","noteNumber":33,"velocity":95},{"deltaTime":0,"channel":15,"type":"noteOn","noteNumber":33,"velocity":95},{"deltaTime":960,"channel":15,"type":"noteOff","noteNumber":33,"velocity":95},{"deltaTime":480,"channel":14,"type":"noteOn","noteNumber":33,"velocity":95},{"deltaTime":480,"channel":14,"type":"noteOff","noteNumber":33,"velocity":95},{"deltaTime":0,"channel":15,"type":"pitchBend","value":0},{"deltaTime":0,"channel":15,"type":"noteOn","noteNumber":31,"velocity":95},{"deltaTime":48,"channel":15,"type":"pitchBend","value":128},{"deltaTime":48,"channel":15,"type":"pitchBend","value":256},{"deltaTime":48,"channel":15,"type":"pitchBend","value":384},{"deltaTime":48,"channel":15,"type":"pitchBend","value":512},{"deltaTime":48,"channel":15,"type":"pitchBend","value":640},{"deltaTime":0,"channel":15,"type":"pitchBend","value":640},{"deltaTime":240,"channel":15,"type":"pitchBend","value":640},{"deltaTime":0,"channel":15,"type":"pitchBend","value":0},{"deltaTime":0,"channel":15,"type":"noteOff","noteNumber":31,"velocity":95},{"deltaTime":0,"channel":14,"type":"noteOn","noteNumber":33,"velocity":95},{"deltaTime":960,"channel":14,"type":"noteOff","noteNumber":33,"velocity":95},{"deltaTime":0,"channel":14,"type":"noteOn","noteNumber":33,"velocity":95},{"deltaTime":480,"channel":14,"type":"noteOff","noteNumber":33,"velocity":95},{"deltaTime":0,"channel":14,"type":"noteOn","noteNumber":28,"velocity":95},{"deltaTime":480,"channel":14,"type":"noteOff","noteNumber":28,"velocity":95},{"deltaTime":0,"channel":14,"type":"noteOn","noteNumber":36,"velocity":95},{"deltaTime":960,"channel":14,"type":"noteOff","noteNumber":36,"velocity":95},{"deltaTime":0,"channel":14,"type":"noteOn","noteNumber":36,"velocity":95},{"deltaTime":480,"channel":14,"type":"noteOff","noteNumber":36,"velocity":95},{"deltaTime":0,"channel":14,"type":"noteOn","noteNumber":33,"velocity":95},{"deltaTime":480,"channel":14,"type":"noteOff","noteNumber":33,"velocity":95},{"deltaTime":0,"channel":14,"type":"noteOn","noteNumber":38,"velocity":95},{"deltaTime":960,"channel":14,"type":"noteOff","noteNumber":38,"velocity":95},{"deltaTime":0,"channel":14,"type":"noteOn","noteNumber":38,"velocity":95},{"deltaTime":480,"channel":14,"type":"noteOff","noteNumber":38,"velocity":95},{"deltaTime":0,"channel":14,"type":"noteOn","noteNumber":38,"velocity":95},{"deltaTime":960,"channel":14,"type":"noteOff","noteNumber":38,"velocity":95},{"deltaTime":0,"channel":14,"type":"noteOn","noteNumber":38,"velocity":95},{"deltaTime":480,"channel":14,"type":"noteOff","noteNumber":38,"velocity":95},{"deltaTime":0,"channel":14,"type":"noteOn","noteNumber":33,"velocity":95},{"deltaTime":480,"channel":14,"type":"noteOff","noteNumber":33,"velocity":95},{"deltaTime":0,"channel":15,"type":"pitchBend","value":0},{"deltaTime":0,"channel":15,"type":"noteOn","noteNumber":31,"velocity":95},{"deltaTime":48,"channel":15,"type":"pitchBend","value":128},{"deltaTime":48,"channel":15,"type":"pitchBend","value":256},{"deltaTime":48,"channel":15,"type":"pitchBend","value":384},{"deltaTime":48,"channel":15,"type":"pitchBend","value":512},{"deltaTime":48,"channel":15,"type":"pitchBend","value":640},{"deltaTime":0,"channel":15,"type":"pitchBend","value":640},{"deltaTime":240,"channel":15,"type":"pitchBend","value":640},{"deltaTime":0,"channel":15,"type":"pitchBend","value":0},{"deltaTime":0,"channel":15,"type":"noteOff","noteNumber":31,"velocity":95},{"deltaTime":0,"channel":14,"type":"noteOn","noteNumber":33,"velocity":95},{"deltaTime":960,"channel":14,"type":"noteOff","noteNumber":33,"velocity":95},{"deltaTime":0,"channel":14,"type":"noteOn","noteNumber":33,"velocity":95},{"deltaTime":480,"channel":14,"type":"noteOff","noteNumber":33,"velocity":95},{"deltaTime":0,"channel":14,"type":"noteOn","noteNumber":28,"velocity":95},{"deltaTime":480,"channel":14,"type":"noteOff","noteNumber":28,"velocity":95},{"deltaTime":0,"channel":14,"type":"noteOn","noteNumber":36,"velocity":95},{"deltaTime":960,"channel":14,"type":"noteOff","noteNumber":36,"velocity":95},{"deltaTime":0,"channel":14,"type":"noteOn","noteNumber":36,"velocity":95},{"deltaTime":480,"channel":14,"type":"noteOff","noteNumber":36,"velocity":95},{"deltaTime":0,"channel":14,"type":"noteOn","noteNumber":33,"velocity":95},{"deltaTime":480,"channel":14,"type":"noteOff","noteNumber":33,"velocity":95},{"deltaTime":0,"channel":14,"type":"noteOn","noteNumber":38,"velocity":95},{"deltaTime":960,"channel":14,"type":"noteOff","noteNumber":38,"velocity":95},{"deltaTime":0,"channel":14,"type":"noteOn","noteNumber":38,"velocity":95},{"deltaTime":480,"channel":14,"type":"noteOff","noteNumber":38,"velocity":95},{"deltaTime":0,"channel":14,"type":"noteOn","noteNumber":38,"velocity":95},{"deltaTime":960,"channel":14,"type":"noteOff","noteNumber":38,"velocity":95},{"deltaTime":0,"channel":14,"type":"noteOn","noteNumber":38,"velocity":95},{"deltaTime":480,"channel":14,"type":"noteOff","noteNumber":38,"velocity":95},{"deltaTime":0,"channel":14,"type":"noteOn","noteNumber":33,"velocity":95},{"deltaTime":480,"channel":14,"type":"noteOff","noteNumber":33,"velocity":95},{"deltaTime":0,"channel":15,"type":"pitchBend","value":0},{"deltaTime":0,"channel":15,"type":"noteOn","noteNumber":31,"velocity":95},{"deltaTime":48,"channel":15,"type":"pitchBend","value":128},{"deltaTime":48,"channel":15,"type":"pitchBend","value":256},{"deltaTime":48,"channel":15,"type":"pitchBend","value":384},{"deltaTime":48,"channel":15,"type":"pitchBend","value":512},{"deltaTime":48,"channel":15,"type":"pitchBend","value":640},{"deltaTime":0,"channel":15,"type":"pitchBend","value":640},{"deltaTime":240,"channel":15,"type":"pitchBend","value":640},{"deltaTime":0,"channel":15,"type":"pitchBend","value":0},{"deltaTime":0,"channel":15,"type":"noteOff","noteNumber":31,"velocity":95},{"deltaTime":0,"channel":14,"type":"noteOn","noteNumber":33,"velocity":95},{"deltaTime":960,"channel":14,"type":"noteOff","noteNumber":33,"velocity":95},{"deltaTime":0,"channel":14,"type":"noteOn","noteNumber":33,"velocity":95},{"deltaTime":480,"channel":14,"type":"noteOff","noteNumber":33,"velocity":95},{"deltaTime":0,"channel":14,"type":"noteOn","noteNumber":28,"velocity":95},{"deltaTime":480,"channel":14,"type":"noteOff","noteNumber":28,"velocity":95},{"deltaTime":0,"channel":14,"type":"noteOn","noteNumber":36,"velocity":95},{"deltaTime":960,"channel":14,"type":"noteOff","noteNumber":36,"velocity":95},{"deltaTime":0,"channel":14,"type":"noteOn","noteNumber":36,"velocity":95},{"deltaTime":480,"channel":14,"type":"noteOff","noteNumber":36,"velocity":95},{"deltaTime":0,"channel":14,"type":"noteOn","noteNumber":33,"velocity":95},{"deltaTime":480,"channel":14,"type":"noteOff","noteNumber":33,"velocity":95},{"deltaTime":0,"channel":14,"type":"noteOn","noteNumber":38,"velocity":95},{"deltaTime":960,"channel":14,"type":"noteOff","noteNumber":38,"velocity":95},{"deltaTime":0,"channel":14,"type":"noteOn","noteNumber":38,"velocity":95},{"deltaTime":480,"channel":14,"type":"noteOff","noteNumber":38,"velocity":95},{"deltaTime":0,"channel":14,"type":"noteOn","noteNumber":38,"velocity":95},{"deltaTime":960,"channel":14,"type":"noteOff","noteNumber":38,"velocity":95},{"deltaTime":0,"channel":14,"type":"noteOn","noteNumber":38,"velocity":95},{"deltaTime":480,"channel":14,"type":"noteOff","noteNumber":38,"velocity":95},{"deltaTime":0,"channel":14,"type":"noteOn","noteNumber":33,"velocity":95},{"deltaTime":480,"channel":14,"type":"noteOff","noteNumber":33,"velocity":95},{"deltaTime":0,"channel":15,"type":"pitchBend","value":0},{"deltaTime":0,"channel":15,"type":"noteOn","noteNumber":31,"velocity":95},{"deltaTime":48,"channel":15,"type":"pitchBend","value":128},{"deltaTime":48,"channel":15,"type":"pitchBend","value":256},{"deltaTime":48,"channel":15,"type":"pitchBend","value":384},{"deltaTime":48,"channel":15,"type":"pitchBend","value":512},{"deltaTime":48,"channel":15,"type":"pitchBend","value":640},{"deltaTime":0,"channel":15,"type":"pitchBend","value":640},{"deltaTime":240,"channel":15,"type":"pitchBend","value":640},{"deltaTime":0,"channel":15,"type":"pitchBend","value":0},{"deltaTime":0,"channel":15,"type":"noteOff","noteNumber":31,"velocity":95},{"deltaTime":0,"channel":14,"type":"noteOn","noteNumber":33,"velocity":95},{"deltaTime":960,"channel":14,"type":"noteOff","noteNumber":33,"velocity":95},{"deltaTime":0,"channel":14,"type":"noteOn","noteNumber":33,"velocity":95},{"deltaTime":480,"channel":14,"type":"noteOff","noteNumber":33,"velocity":95},{"deltaTime":0,"channel":14,"type":"noteOn","noteNumber":28,"velocity":95},{"deltaTime":480,"channel":14,"type":"noteOff","noteNumber":28,"velocity":95},{"deltaTime":0,"channel":14,"type":"noteOn","noteNumber":36,"velocity":95},{"deltaTime":960,"channel":14,"type":"noteOff","noteNumber":36,"velocity":95},{"deltaTime":0,"channel":14,"type":"noteOn","noteNumber":36,"velocity":95},{"deltaTime":480,"channel":14,"type":"noteOff","noteNumber":36,"velocity":95},{"deltaTime":0,"channel":14,"type":"noteOn","noteNumber":33,"velocity":95},{"deltaTime":480,"channel":14,"type":"noteOff","noteNumber":33,"velocity":95},{"deltaTime":0,"channel":14,"type":"noteOn","noteNumber":38,"velocity":95},{"deltaTime":960,"channel":14,"type":"noteOff","noteNumber":38,"velocity":95},{"deltaTime":0,"channel":14,"type":"noteOn","noteNumber":38,"velocity":95},{"deltaTime":480,"channel":14,"type":"noteOff","noteNumber":38,"velocity":95},{"deltaTime":0,"channel":14,"type":"noteOn","noteNumber":38,"velocity":95},{"deltaTime":480,"channel":14,"type":"noteOff","noteNumber":38,"velocity":95},{"deltaTime":0,"channel":14,"type":"noteOn","noteNumber":38,"velocity":95},{"deltaTime":960,"channel":14,"type":"noteOff","noteNumber":38,"velocity":95},{"deltaTime":0,"channel":14,"type":"noteOn","noteNumber":38,"velocity":95},{"deltaTime":480,"channel":14,"type":"noteOff","noteNumber":38,"velocity":95},{"deltaTime":0,"channel":14,"type":"noteOn","noteNumber":36,"velocity":95},{"deltaTime":480,"channel":14,"type":"noteOff","noteNumber":36,"velocity":95},{"deltaTime":0,"channel":14,"type":"noteOn","noteNumber":38,"velocity":95},{"deltaTime":960,"channel":14,"type":"noteOff","noteNumber":38,"velocity":95},{"deltaTime":0,"channel":14,"type":"noteOn","noteNumber":38,"velocity":95},{"deltaTime":480,"channel":14,"type":"noteOff","noteNumber":38,"velocity":95},{"deltaTime":0,"channel":14,"type":"noteOn","noteNumber":36,"velocity":95},{"deltaTime":480,"channel":14,"type":"noteOff","noteNumber":36,"velocity":95},{"deltaTime":0,"channel":14,"type":"noteOn","noteNumber":38,"velocity":95},{"deltaTime":960,"channel":14,"type":"noteOff","noteNumber":38,"velocity":95},{"deltaTime":0,"channel":14,"type":"noteOn","noteNumber":38,"velocity":95},{"deltaTime":480,"channel":14,"type":"noteOff","noteNumber":38,"velocity":95},{"deltaTime":0,"channel":14,"type":"noteOn","noteNumber":38,"velocity":95},{"deltaTime":480,"channel":14,"type":"noteOff","noteNumber":38,"velocity":95},{"deltaTime":0,"channel":14,"type":"noteOn","noteNumber":33,"velocity":95},{"deltaTime":480,"channel":14,"type":"noteOff","noteNumber":33,"velocity":95},{"deltaTime":0,"channel":14,"type":"noteOn","noteNumber":36,"velocity":95},{"deltaTime":480,"channel":14,"type":"noteOff","noteNumber":36,"velocity":95},{"deltaTime":0,"channel":14,"type":"noteOn","noteNumber":36,"velocity":95},{"deltaTime":480,"channel":14,"type":"noteOff","noteNumber":36,"velocity":95},{"deltaTime":0,"channel":14,"type":"noteOn","noteNumber":31,"velocity":95},{"deltaTime":960,"channel":14,"type":"noteOff","noteNumber":31,"velocity":95},{"deltaTime":0,"channel":14,"type":"noteOn","noteNumber":38,"velocity":95},{"deltaTime":480,"channel":14,"type":"noteOff","noteNumber":38,"velocity":95},{"deltaTime":0,"channel":14,"type":"noteOn","noteNumber":38,"velocity":95},{"deltaTime":480,"channel":14,"type":"noteOff","noteNumber":38,"velocity":95},{"deltaTime":0,"channel":14,"type":"noteOn","noteNumber":36,"velocity":95},{"deltaTime":480,"channel":14,"type":"noteOff","noteNumber":36,"velocity":95},{"deltaTime":0,"channel":14,"type":"noteOn","noteNumber":38,"velocity":95},{"deltaTime":960,"channel":14,"type":"noteOff","noteNumber":38,"velocity":95},{"deltaTime":0,"channel":14,"type":"noteOn","noteNumber":38,"velocity":95},{"deltaTime":480,"channel":14,"type":"noteOff","noteNumber":38,"velocity":95},{"deltaTime":0,"channel":14,"type":"noteOn","noteNumber":36,"velocity":95},{"deltaTime":480,"channel":14,"type":"noteOff","noteNumber":36,"velocity":95},{"deltaTime":0,"channel":14,"type":"noteOn","noteNumber":38,"velocity":95},{"deltaTime":960,"channel":14,"type":"noteOff","noteNumber":38,"velocity":95},{"deltaTime":0,"channel":14,"type":"noteOn","noteNumber":38,"velocity":95},{"deltaTime":480,"channel":14,"type":"noteOff","noteNumber":38,"velocity":95},{"deltaTime":0,"channel":14,"type":"noteOn","noteNumber":38,"velocity":95},{"deltaTime":480,"channel":14,"type":"noteOff","noteNumber":38,"velocity":95},{"deltaTime":0,"channel":14,"type":"noteOn","noteNumber":33,"velocity":95},{"deltaTime":480,"channel":14,"type":"noteOff","noteNumber":33,"velocity":95},{"deltaTime":0,"channel":14,"type":"noteOn","noteNumber":36,"velocity":95},{"deltaTime":480,"channel":14,"type":"noteOff","noteNumber":36,"velocity":95},{"deltaTime":0,"channel":14,"type":"noteOn","noteNumber":36,"velocity":95},{"deltaTime":480,"channel":14,"type":"noteOff","noteNumber":36,"velocity":95},{"deltaTime":0,"channel":14,"type":"noteOn","noteNumber":31,"velocity":95},{"deltaTime":960,"channel":14,"type":"noteOff","noteNumber":31,"velocity":95},{"deltaTime":0,"channel":14,"type":"noteOn","noteNumber":40,"velocity":95},{"deltaTime":480,"channel":14,"type":"noteOff","noteNumber":40,"velocity":95},{"deltaTime":0,"channel":14,"type":"noteOn","noteNumber":40,"velocity":95},{"deltaTime":480,"channel":14,"type":"noteOff","noteNumber":40,"velocity":95},{"deltaTime":0,"channel":14,"type":"noteOn","noteNumber":38,"velocity":95},{"deltaTime":480,"channel":14,"type":"noteOff","noteNumber":38,"velocity":95},{"deltaTime":0,"channel":14,"type":"noteOn","noteNumber":40,"velocity":95},{"deltaTime":960,"channel":14,"type":"noteOff","noteNumber":40,"velocity":95},{"deltaTime":0,"channel":14,"type":"noteOn","noteNumber":40,"velocity":95},{"deltaTime":480,"channel":14,"type":"noteOff","noteNumber":40,"velocity":95},{"deltaTime":0,"channel":14,"type":"noteOn","noteNumber":38,"velocity":95},{"deltaTime":480,"channel":14,"type":"noteOff","noteNumber":38,"velocity":95},{"deltaTime":0,"channel":14,"type":"noteOn","noteNumber":40,"velocity":95},{"deltaTime":960,"channel":14,"type":"noteOff","noteNumber":40,"velocity":95},{"deltaTime":0,"channel":14,"type":"noteOn","noteNumber":40,"velocity":95},{"deltaTime":480,"channel":14,"type":"noteOff","noteNumber":40,"velocity":95},{"deltaTime":0,"channel":14,"type":"noteOn","noteNumber":40,"velocity":95},{"deltaTime":480,"channel":14,"type":"noteOff","noteNumber":40,"velocity":95},{"deltaTime":0,"channel":14,"type":"noteOn","noteNumber":33,"velocity":95},{"deltaTime":480,"channel":14,"type":"noteOff","noteNumber":33,"velocity":95},{"deltaTime":0,"channel":14,"type":"noteOn","noteNumber":38,"velocity":95},{"deltaTime":480,"channel":14,"type":"noteOff","noteNumber":38,"velocity":95},{"deltaTime":0,"channel":14,"type":"noteOn","noteNumber":38,"velocity":95},{"deltaTime":480,"channel":14,"type":"noteOff","noteNumber":38,"velocity":95},{"deltaTime":0,"channel":14,"type":"noteOn","noteNumber":33,"velocity":95},{"deltaTime":960,"channel":14,"type":"noteOff","noteNumber":33,"velocity":95},{"deltaTime":0,"channel":14,"type":"noteOn","noteNumber":28,"velocity":95},{"deltaTime":480,"channel":14,"type":"noteOff","noteNumber":28,"velocity":95},{"deltaTime":0,"channel":14,"type":"noteOn","noteNumber":28,"velocity":95},{"deltaTime":480,"channel":14,"type":"noteOff","noteNumber":28,"velocity":95},{"deltaTime":0,"channel":14,"type":"noteOn","noteNumber":28,"velocity":95},{"deltaTime":480,"channel":14,"type":"noteOff","noteNumber":28,"velocity":95},{"deltaTime":0,"channel":14,"type":"noteOn","noteNumber":28,"velocity":95},{"deltaTime":480,"channel":14,"type":"noteOff","noteNumber":28,"velocity":95},{"deltaTime":0,"channel":14,"type":"noteOn","noteNumber":28,"velocity":95},{"deltaTime":480,"channel":14,"type":"noteOff","noteNumber":28,"velocity":95},{"deltaTime":0,"channel":14,"type":"noteOn","noteNumber":28,"velocity":95},{"deltaTime":480,"channel":14,"type":"noteOff","noteNumber":28,"velocity":95},{"deltaTime":0,"channel":14,"type":"noteOn","noteNumber":28,"velocity":95},{"deltaTime":480,"channel":14,"type":"noteOff","noteNumber":28,"velocity":95},{"deltaTime":0,"channel":14,"type":"noteOn","noteNumber":28,"velocity":95},{"deltaTime":480,"channel":14,"type":"noteOff","noteNumber":28,"velocity":95},{"deltaTime":0,"channel":14,"type":"noteOn","noteNumber":28,"velocity":95},{"deltaTime":480,"channel":14,"type":"noteOff","noteNumber":28,"velocity":95},{"deltaTime":0,"channel":14,"type":"noteOn","noteNumber":28,"velocity":95},{"deltaTime":480,"channel":14,"type":"noteOff","noteNumber":28,"velocity":95},{"deltaTime":0,"channel":14,"type":"noteOn","noteNumber":30,"velocity":95},{"deltaTime":480,"channel":14,"type":"noteOff","noteNumber":30,"velocity":95},{"deltaTime":0,"channel":14,"type":"noteOn","noteNumber":30,"velocity":95},{"deltaTime":480,"channel":14,"type":"noteOff","noteNumber":30,"velocity":95},{"deltaTime":0,"channel":14,"type":"noteOn","noteNumber":31,"velocity":95},{"deltaTime":480,"channel":14,"type":"noteOff","noteNumber":31,"velocity":95},{"deltaTime":0,"channel":14,"type":"noteOn","noteNumber":31,"velocity":95},{"deltaTime":480,"channel":14,"type":"noteOff","noteNumber":31,"velocity":95},{"deltaTime":0,"channel":14,"type":"noteOn","noteNumber":31,"velocity":95},{"deltaTime":480,"channel":14,"type":"noteOff","noteNumber":31,"velocity":95},{"deltaTime":0,"channel":14,"type":"noteOn","noteNumber":31,"velocity":95},{"deltaTime":480,"channel":14,"type":"noteOff","noteNumber":31,"velocity":95},{"deltaTime":0,"channel":14,"type":"noteOn","noteNumber":33,"velocity":95},{"deltaTime":480,"channel":14,"type":"noteOff","noteNumber":33,"velocity":95},{"deltaTime":0,"channel":14,"type":"noteOn","noteNumber":33,"velocity":95},{"deltaTime":480,"channel":14,"type":"noteOff","noteNumber":33,"velocity":95},{"deltaTime":0,"channel":14,"type":"noteOn","noteNumber":33,"velocity":95},{"deltaTime":480,"channel":14,"type":"noteOff","noteNumber":33,"velocity":95},{"deltaTime":0,"channel":14,"type":"noteOn","noteNumber":33,"velocity":95},{"deltaTime":480,"channel":14,"type":"noteOff","noteNumber":33,"velocity":95},{"deltaTime":0,"channel":14,"type":"noteOn","noteNumber":33,"velocity":95},{"deltaTime":480,"channel":14,"type":"noteOff","noteNumber":33,"velocity":95},{"deltaTime":0,"channel":14,"type":"noteOn","noteNumber":33,"velocity":95},{"deltaTime":480,"channel":14,"type":"noteOff","noteNumber":33,"velocity":95},{"deltaTime":0,"channel":14,"type":"noteOn","noteNumber":33,"velocity":95},{"deltaTime":480,"channel":14,"type":"noteOff","noteNumber":33,"velocity":95},{"deltaTime":0,"channel":14,"type":"noteOn","noteNumber":33,"velocity":95},{"deltaTime":480,"channel":14,"type":"noteOff","noteNumber":33,"velocity":95},{"deltaTime":0,"channel":14,"type":"noteOn","noteNumber":33,"velocity":95},{"deltaTime":480,"channel":14,"type":"noteOff","noteNumber":33,"velocity":95},{"deltaTime":0,"channel":14,"type":"noteOn","noteNumber":33,"velocity":95},{"deltaTime":480,"channel":14,"type":"noteOff","noteNumber":33,"velocity":95},{"deltaTime":0,"channel":14,"type":"noteOn","noteNumber":33,"velocity":95},{"deltaTime":480,"channel":14,"type":"noteOff","noteNumber":33,"velocity":95},{"deltaTime":0,"channel":14,"type":"noteOn","noteNumber":33,"velocity":95},{"deltaTime":480,"channel":14,"type":"noteOff","noteNumber":33,"velocity":95},{"deltaTime":0,"channel":14,"type":"noteOn","noteNumber":33,"velocity":95},{"deltaTime":480,"channel":14,"type":"noteOff","noteNumber":33,"velocity":95},{"deltaTime":0,"channel":14,"type":"noteOn","noteNumber":33,"velocity":95},{"deltaTime":480,"channel":14,"type":"noteOff","noteNumber":33,"velocity":95},{"deltaTime":0,"channel":14,"type":"noteOn","noteNumber":33,"velocity":95},{"deltaTime":480,"channel":14,"type":"noteOff","noteNumber":33,"velocity":95},{"deltaTime":0,"channel":14,"type":"noteOn","noteNumber":33,"velocity":95},{"deltaTime":480,"channel":14,"type":"noteOff","noteNumber":33,"velocity":95},{"deltaTime":0,"channel":14,"type":"noteOn","noteNumber":33,"velocity":95},{"deltaTime":480,"channel":14,"type":"noteOff","noteNumber":33,"velocity":95},{"deltaTime":0,"channel":14,"type":"noteOn","noteNumber":33,"velocity":95},{"deltaTime":480,"channel":14,"type":"noteOff","noteNumber":33,"velocity":95},{"deltaTime":0,"channel":14,"type":"noteOn","noteNumber":33,"velocity":95},{"deltaTime":480,"channel":14,"type":"noteOff","noteNumber":33,"velocity":95},{"deltaTime":0,"channel":14,"type":"noteOn","noteNumber":33,"velocity":95},{"deltaTime":480,"channel":14,"type":"noteOff","noteNumber":33,"velocity":95},{"deltaTime":0,"channel":14,"type":"noteOn","noteNumber":33,"velocity":95},{"deltaTime":480,"channel":14,"type":"noteOff","noteNumber":33,"velocity":95},{"deltaTime":0,"channel":14,"type":"noteOn","noteNumber":33,"velocity":95},{"deltaTime":480,"channel":14,"type":"noteOff","noteNumber":33,"velocity":95},{"deltaTime":0,"channel":14,"type":"noteOn","noteNumber":33,"velocity":95},{"deltaTime":480,"channel":14,"type":"noteOff","noteNumber":33,"velocity":95},{"deltaTime":0,"channel":14,"type":"noteOn","noteNumber":33,"velocity":95},{"deltaTime":480,"channel":14,"type":"noteOff","noteNumber":33,"velocity":95},{"deltaTime":0,"channel":14,"type":"noteOn","noteNumber":33,"velocity":95},{"deltaTime":480,"channel":14,"type":"noteOff","noteNumber":33,"velocity":95},{"deltaTime":0,"channel":14,"type":"noteOn","noteNumber":33,"velocity":95},{"deltaTime":480,"channel":14,"type":"noteOff","noteNumber":33,"velocity":95},{"deltaTime":0,"channel":14,"type":"noteOn","noteNumber":33,"velocity":95},{"deltaTime":480,"channel":14,"type":"noteOff","noteNumber":33,"velocity":95},{"deltaTime":0,"channel":14,"type":"noteOn","noteNumber":33,"velocity":95},{"deltaTime":480,"channel":14,"type":"noteOff","noteNumber":33,"velocity":95},{"deltaTime":0,"channel":14,"type":"noteOn","noteNumber":33,"velocity":95},{"deltaTime":480,"channel":14,"type":"noteOff","noteNumber":33,"velocity":95},{"deltaTime":0,"channel":14,"type":"noteOn","noteNumber":36,"velocity":95},{"deltaTime":480,"channel":14,"type":"noteOff","noteNumber":36,"velocity":95},{"deltaTime":0,"channel":14,"type":"noteOn","noteNumber":35,"velocity":95},{"deltaTime":480,"channel":14,"type":"noteOff","noteNumber":35,"velocity":95},{"deltaTime":0,"channel":14,"type":"noteOn","noteNumber":33,"velocity":95},{"deltaTime":480,"channel":14,"type":"noteOff","noteNumber":33,"velocity":95},{"deltaTime":0,"channel":14,"type":"noteOn","noteNumber":33,"velocity":95},{"deltaTime":480,"channel":14,"type":"noteOff","noteNumber":33,"velocity":95},{"deltaTime":0,"channel":14,"type":"noteOn","noteNumber":33,"velocity":95},{"deltaTime":480,"channel":14,"type":"noteOff","noteNumber":33,"velocity":95},{"deltaTime":0,"channel":14,"type":"noteOn","noteNumber":33,"velocity":95},{"deltaTime":480,"channel":14,"type":"noteOff","noteNumber":33,"velocity":95},{"deltaTime":0,"channel":14,"type":"noteOn","noteNumber":33,"velocity":95},{"deltaTime":480,"channel":14,"type":"noteOff","noteNumber":33,"velocity":95},{"deltaTime":0,"channel":14,"type":"noteOn","noteNumber":33,"velocity":95},{"deltaTime":480,"channel":14,"type":"noteOff","noteNumber":33,"velocity":95},{"deltaTime":0,"channel":14,"type":"noteOn","noteNumber":33,"velocity":95},{"deltaTime":480,"channel":14,"type":"noteOff","noteNumber":33,"velocity":95},{"deltaTime":0,"channel":14,"type":"noteOn","noteNumber":33,"velocity":95},{"deltaTime":480,"channel":14,"type":"noteOff","noteNumber":33,"velocity":95},{"deltaTime":0,"channel":14,"type":"noteOn","noteNumber":33,"velocity":95},{"deltaTime":480,"channel":14,"type":"noteOff","noteNumber":33,"velocity":95},{"deltaTime":0,"channel":14,"type":"noteOn","noteNumber":33,"velocity":95},{"deltaTime":480,"channel":14,"type":"noteOff","noteNumber":33,"velocity":95},{"deltaTime":0,"channel":14,"type":"noteOn","noteNumber":33,"velocity":95},{"deltaTime":480,"channel":14,"type":"noteOff","noteNumber":33,"velocity":95},{"deltaTime":0,"channel":14,"type":"noteOn","noteNumber":33,"velocity":95},{"deltaTime":480,"channel":14,"type":"noteOff","noteNumber":33,"velocity":95},{"deltaTime":0,"channel":14,"type":"noteOn","noteNumber":33,"velocity":95},{"deltaTime":480,"channel":14,"type":"noteOff","noteNumber":33,"velocity":95},{"deltaTime":0,"channel":14,"type":"noteOn","noteNumber":33,"velocity":95},{"deltaTime":480,"channel":14,"type":"noteOff","noteNumber":33,"velocity":95},{"deltaTime":0,"channel":14,"type":"noteOn","noteNumber":33,"velocity":95},{"deltaTime":480,"channel":14,"type":"noteOff","noteNumber":33,"velocity":95},{"deltaTime":0,"channel":14,"type":"noteOn","noteNumber":33,"velocity":95},{"deltaTime":480,"channel":14,"type":"noteOff","noteNumber":33,"velocity":95},{"deltaTime":0,"channel":14,"type":"noteOn","noteNumber":33,"velocity":95},{"deltaTime":480,"channel":14,"type":"noteOff","noteNumber":33,"velocity":95},{"deltaTime":0,"channel":14,"type":"noteOn","noteNumber":33,"velocity":95},{"deltaTime":480,"channel":14,"type":"noteOff","noteNumber":33,"velocity":95},{"deltaTime":0,"channel":14,"type":"noteOn","noteNumber":33,"velocity":95},{"deltaTime":480,"channel":14,"type":"noteOff","noteNumber":33,"velocity":95},{"deltaTime":0,"channel":14,"type":"noteOn","noteNumber":33,"velocity":95},{"deltaTime":480,"channel":14,"type":"noteOff","noteNumber":33,"velocity":95},{"deltaTime":0,"channel":14,"type":"noteOn","noteNumber":33,"velocity":95},{"deltaTime":480,"channel":14,"type":"noteOff","noteNumber":33,"velocity":95},{"deltaTime":0,"channel":14,"type":"noteOn","noteNumber":33,"velocity":95},{"deltaTime":480,"channel":14,"type":"noteOff","noteNumber":33,"velocity":95},{"deltaTime":0,"channel":14,"type":"noteOn","noteNumber":33,"velocity":95},{"deltaTime":480,"channel":14,"type":"noteOff","noteNumber":33,"velocity":95},{"deltaTime":0,"channel":14,"type":"noteOn","noteNumber":33,"velocity":95},{"deltaTime":480,"channel":14,"type":"noteOff","noteNumber":33,"velocity":95},{"deltaTime":0,"channel":14,"type":"noteOn","noteNumber":36,"velocity":95},{"deltaTime":960,"channel":14,"type":"noteOff","noteNumber":36,"velocity":95},{"deltaTime":0,"channel":14,"type":"noteOn","noteNumber":36,"velocity":95},{"deltaTime":480,"channel":14,"type":"noteOff","noteNumber":36,"velocity":95},{"deltaTime":480,"channel":14,"type":"noteOn","noteNumber":38,"velocity":95},{"deltaTime":960,"channel":14,"type":"noteOff","noteNumber":38,"velocity":95},{"deltaTime":0,"channel":14,"type":"noteOn","noteNumber":36,"velocity":95},{"deltaTime":480,"channel":14,"type":"noteOff","noteNumber":36,"velocity":95},{"deltaTime":0,"channel":14,"type":"noteOn","noteNumber":35,"velocity":95},{"deltaTime":480,"channel":14,"type":"noteOff","noteNumber":35,"velocity":95},{"deltaTime":0,"channel":14,"type":"noteOn","noteNumber":33,"velocity":95},{"deltaTime":480,"channel":14,"type":"noteOff","noteNumber":33,"velocity":95},{"deltaTime":0,"channel":14,"type":"noteOn","noteNumber":33,"velocity":95},{"deltaTime":480,"channel":14,"type":"noteOff","noteNumber":33,"velocity":95},{"deltaTime":0,"channel":14,"type":"noteOn","noteNumber":33,"velocity":95},{"deltaTime":480,"channel":14,"type":"noteOff","noteNumber":33,"velocity":95},{"deltaTime":0,"channel":14,"type":"noteOn","noteNumber":33,"velocity":95},{"deltaTime":480,"channel":14,"type":"noteOff","noteNumber":33,"velocity":95},{"deltaTime":0,"channel":14,"type":"noteOn","noteNumber":33,"velocity":95},{"deltaTime":480,"channel":14,"type":"noteOff","noteNumber":33,"velocity":95},{"deltaTime":0,"channel":14,"type":"noteOn","noteNumber":33,"velocity":95},{"deltaTime":480,"channel":14,"type":"noteOff","noteNumber":33,"velocity":95},{"deltaTime":0,"channel":14,"type":"noteOn","noteNumber":33,"velocity":95},{"deltaTime":480,"channel":14,"type":"noteOff","noteNumber":33,"velocity":95},{"deltaTime":0,"channel":14,"type":"noteOn","noteNumber":33,"velocity":95},{"deltaTime":480,"channel":14,"type":"noteOff","noteNumber":33,"velocity":95},{"deltaTime":0,"channel":14,"type":"noteOn","noteNumber":33,"velocity":95},{"deltaTime":480,"channel":14,"type":"noteOff","noteNumber":33,"velocity":95},{"deltaTime":0,"channel":14,"type":"noteOn","noteNumber":33,"velocity":95},{"deltaTime":480,"channel":14,"type":"noteOff","noteNumber":33,"velocity":95},{"deltaTime":0,"channel":14,"type":"noteOn","noteNumber":33,"velocity":95},{"deltaTime":480,"channel":14,"type":"noteOff","noteNumber":33,"velocity":95},{"deltaTime":0,"channel":14,"type":"noteOn","noteNumber":33,"velocity":95},{"deltaTime":480,"channel":14,"type":"noteOff","noteNumber":33,"velocity":95},{"deltaTime":0,"channel":14,"type":"noteOn","noteNumber":33,"velocity":95},{"deltaTime":480,"channel":14,"type":"noteOff","noteNumber":33,"velocity":95},{"deltaTime":0,"channel":14,"type":"noteOn","noteNumber":33,"velocity":95},{"deltaTime":480,"channel":14,"type":"noteOff","noteNumber":33,"velocity":95},{"deltaTime":0,"channel":14,"type":"noteOn","noteNumber":40,"velocity":95},{"deltaTime":480,"channel":14,"type":"noteOff","noteNumber":40,"velocity":95},{"deltaTime":0,"channel":14,"type":"noteOn","noteNumber":40,"velocity":95},{"deltaTime":480,"channel":14,"type":"noteOff","noteNumber":40,"velocity":95},{"deltaTime":0,"channel":14,"type":"noteOn","noteNumber":45,"velocity":95},{"deltaTime":480,"channel":14,"type":"noteOff","noteNumber":45,"velocity":95},{"deltaTime":0,"channel":14,"type":"noteOn","noteNumber":33,"velocity":95},{"deltaTime":480,"channel":14,"type":"noteOff","noteNumber":33,"velocity":95},{"deltaTime":0,"channel":14,"type":"noteOn","noteNumber":33,"velocity":95},{"deltaTime":480,"channel":14,"type":"noteOff","noteNumber":33,"velocity":95},{"deltaTime":0,"channel":14,"type":"noteOn","noteNumber":33,"velocity":95},{"deltaTime":480,"channel":14,"type":"noteOff","noteNumber":33,"velocity":95},{"deltaTime":0,"channel":14,"type":"noteOn","noteNumber":33,"velocity":95},{"deltaTime":480,"channel":14,"type":"noteOff","noteNumber":33,"velocity":95},{"deltaTime":0,"channel":14,"type":"noteOn","noteNumber":33,"velocity":95},{"deltaTime":480,"channel":14,"type":"noteOff","noteNumber":33,"velocity":95},{"deltaTime":0,"channel":14,"type":"noteOn","noteNumber":33,"velocity":95},{"deltaTime":480,"channel":14,"type":"noteOff","noteNumber":33,"velocity":95},{"deltaTime":0,"channel":14,"type":"noteOn","noteNumber":33,"velocity":95},{"deltaTime":480,"channel":14,"type":"noteOff","noteNumber":33,"velocity":95},{"deltaTime":0,"channel":14,"type":"noteOn","noteNumber":36,"velocity":95},{"deltaTime":480,"channel":14,"type":"noteOff","noteNumber":36,"velocity":95},{"deltaTime":0,"channel":14,"type":"noteOn","noteNumber":36,"velocity":95},{"deltaTime":480,"channel":14,"type":"noteOff","noteNumber":36,"velocity":95},{"deltaTime":0,"channel":14,"type":"noteOn","noteNumber":36,"velocity":95},{"deltaTime":480,"channel":14,"type":"noteOff","noteNumber":36,"velocity":95},{"deltaTime":0,"channel":14,"type":"noteOn","noteNumber":33,"velocity":95},{"deltaTime":480,"channel":14,"type":"noteOff","noteNumber":33,"velocity":95},{"deltaTime":0,"channel":14,"type":"noteOn","noteNumber":38,"velocity":95},{"deltaTime":960,"channel":14,"type":"noteOff","noteNumber":38,"velocity":95},{"deltaTime":0,"channel":14,"type":"noteOn","noteNumber":36,"velocity":95},{"deltaTime":480,"channel":14,"type":"noteOff","noteNumber":36,"velocity":95},{"deltaTime":0,"channel":14,"type":"noteOn","noteNumber":35,"velocity":95},{"deltaTime":480,"channel":14,"type":"noteOff","noteNumber":35,"velocity":95},{"deltaTime":0,"channel":14,"type":"noteOn","noteNumber":33,"velocity":95},{"deltaTime":480,"channel":14,"type":"noteOff","noteNumber":33,"velocity":95},{"deltaTime":0,"channel":14,"type":"noteOn","noteNumber":33,"velocity":95},{"deltaTime":480,"channel":14,"type":"noteOff","noteNumber":33,"velocity":95},{"deltaTime":0,"channel":14,"type":"noteOn","noteNumber":33,"velocity":95},{"deltaTime":480,"channel":14,"type":"noteOff","noteNumber":33,"velocity":95},{"deltaTime":0,"channel":14,"type":"noteOn","noteNumber":33,"velocity":95},{"deltaTime":480,"channel":14,"type":"noteOff","noteNumber":33,"velocity":95},{"deltaTime":0,"channel":14,"type":"noteOn","noteNumber":33,"velocity":95},{"deltaTime":480,"channel":14,"type":"noteOff","noteNumber":33,"velocity":95},{"deltaTime":0,"channel":14,"type":"noteOn","noteNumber":33,"velocity":95},{"deltaTime":480,"channel":14,"type":"noteOff","noteNumber":33,"velocity":95},{"deltaTime":0,"channel":14,"type":"noteOn","noteNumber":33,"velocity":95},{"deltaTime":480,"channel":14,"type":"noteOff","noteNumber":33,"velocity":95},{"deltaTime":0,"channel":14,"type":"noteOn","noteNumber":33,"velocity":95},{"deltaTime":480,"channel":14,"type":"noteOff","noteNumber":33,"velocity":95},{"deltaTime":0,"channel":14,"type":"noteOn","noteNumber":33,"velocity":95},{"deltaTime":480,"channel":14,"type":"noteOff","noteNumber":33,"velocity":95},{"deltaTime":0,"channel":14,"type":"noteOn","noteNumber":33,"velocity":95},{"deltaTime":480,"channel":14,"type":"noteOff","noteNumber":33,"velocity":95},{"deltaTime":0,"channel":14,"type":"noteOn","noteNumber":33,"velocity":95},{"deltaTime":480,"channel":14,"type":"noteOff","noteNumber":33,"velocity":95},{"deltaTime":0,"channel":14,"type":"noteOn","noteNumber":33,"velocity":95},{"deltaTime":480,"channel":14,"type":"noteOff","noteNumber":33,"velocity":95},{"deltaTime":0,"channel":14,"type":"noteOn","noteNumber":33,"velocity":95},{"deltaTime":480,"channel":14,"type":"noteOff","noteNumber":33,"velocity":95},{"deltaTime":0,"channel":14,"type":"noteOn","noteNumber":33,"velocity":95},{"deltaTime":480,"channel":14,"type":"noteOff","noteNumber":33,"velocity":95},{"deltaTime":0,"channel":14,"type":"noteOn","noteNumber":33,"velocity":95},{"deltaTime":480,"channel":14,"type":"noteOff","noteNumber":33,"velocity":95},{"deltaTime":0,"channel":14,"type":"noteOn","noteNumber":33,"velocity":95},{"deltaTime":480,"channel":14,"type":"noteOff","noteNumber":33,"velocity":95},{"deltaTime":0,"channel":14,"type":"noteOn","noteNumber":33,"velocity":95},{"deltaTime":480,"channel":14,"type":"noteOff","noteNumber":33,"velocity":95},{"deltaTime":0,"channel":14,"type":"noteOn","noteNumber":33,"velocity":95},{"deltaTime":480,"channel":14,"type":"noteOff","noteNumber":33,"velocity":95},{"deltaTime":0,"channel":14,"type":"noteOn","noteNumber":33,"velocity":95},{"deltaTime":480,"channel":14,"type":"noteOff","noteNumber":33,"velocity":95},{"deltaTime":0,"channel":14,"type":"noteOn","noteNumber":33,"velocity":95},{"deltaTime":480,"channel":14,"type":"noteOff","noteNumber":33,"velocity":95},{"deltaTime":0,"channel":14,"type":"noteOn","noteNumber":33,"velocity":95},{"deltaTime":480,"channel":14,"type":"noteOff","noteNumber":33,"velocity":95},{"deltaTime":0,"channel":14,"type":"noteOn","noteNumber":33,"velocity":95},{"deltaTime":480,"channel":14,"type":"noteOff","noteNumber":33,"velocity":95},{"deltaTime":0,"channel":14,"type":"noteOn","noteNumber":38,"velocity":95},{"deltaTime":240,"channel":14,"type":"noteOff","noteNumber":38,"velocity":95},{"deltaTime":0,"channel":14,"type":"noteOn","noteNumber":40,"velocity":70},{"deltaTime":240,"channel":14,"type":"noteOff","noteNumber":40,"velocity":70},{"deltaTime":0,"channel":14,"type":"noteOn","noteNumber":45,"velocity":95},{"deltaTime":480,"channel":14,"type":"noteOff","noteNumber":45,"velocity":95},{"deltaTime":0,"channel":14,"type":"noteOn","noteNumber":36,"velocity":95},{"deltaTime":960,"channel":14,"type":"noteOff","noteNumber":36,"velocity":95},{"deltaTime":0,"channel":14,"type":"noteOn","noteNumber":36,"velocity":95},{"deltaTime":480,"channel":14,"type":"noteOff","noteNumber":36,"velocity":95},{"deltaTime":0,"channel":14,"type":"noteOn","noteNumber":33,"velocity":95},{"deltaTime":480,"channel":14,"type":"noteOff","noteNumber":33,"velocity":95},{"deltaTime":0,"channel":14,"type":"noteOn","noteNumber":38,"velocity":95},{"deltaTime":960,"channel":14,"type":"noteOff","noteNumber":38,"velocity":95},{"deltaTime":0,"channel":14,"type":"noteOn","noteNumber":38,"velocity":95},{"deltaTime":480,"channel":14,"type":"noteOff","noteNumber":38,"velocity":95},{"deltaTime":0,"channel":14,"type":"noteOn","noteNumber":38,"velocity":95},{"deltaTime":480,"channel":14,"type":"noteOff","noteNumber":38,"velocity":95},{"deltaTime":0,"channel":14,"type":"noteOn","noteNumber":38,"velocity":95},{"deltaTime":480,"channel":14,"type":"noteOff","noteNumber":38,"velocity":95},{"deltaTime":0,"channel":14,"type":"noteOn","noteNumber":28,"velocity":95},{"deltaTime":480,"channel":14,"type":"noteOff","noteNumber":28,"velocity":95},{"deltaTime":0,"channel":14,"type":"noteOn","noteNumber":33,"velocity":95},{"deltaTime":480,"channel":14,"type":"noteOff","noteNumber":33,"velocity":95},{"deltaTime":0,"channel":14,"type":"noteOn","noteNumber":31,"velocity":95},{"deltaTime":480,"channel":14,"type":"noteOff","noteNumber":31,"velocity":95},{"deltaTime":0,"channel":14,"type":"noteOn","noteNumber":33,"velocity":95},{"deltaTime":960,"channel":14,"type":"noteOff","noteNumber":33,"velocity":95},{"deltaTime":0,"channel":14,"type":"noteOn","noteNumber":33,"velocity":95},{"deltaTime":480,"channel":14,"type":"noteOff","noteNumber":33,"velocity":95},{"deltaTime":0,"channel":14,"type":"noteOn","noteNumber":28,"velocity":95},{"deltaTime":480,"channel":14,"type":"noteOff","noteNumber":28,"velocity":95},{"deltaTime":0,"channel":14,"type":"noteOn","noteNumber":36,"velocity":95},{"deltaTime":960,"channel":14,"type":"noteOff","noteNumber":36,"velocity":95},{"deltaTime":0,"channel":14,"type":"noteOn","noteNumber":36,"velocity":95},{"deltaTime":480,"channel":14,"type":"noteOff","noteNumber":36,"velocity":95},{"deltaTime":0,"channel":14,"type":"noteOn","noteNumber":33,"velocity":95},{"deltaTime":480,"channel":14,"type":"noteOff","noteNumber":33,"velocity":95},{"deltaTime":0,"channel":14,"type":"noteOn","noteNumber":38,"velocity":95},{"deltaTime":2880,"channel":14,"type":"noteOff","noteNumber":38,"velocity":95},{"deltaTime":0,"channel":14,"type":"noteOn","noteNumber":33,"velocity":95},{"deltaTime":480,"channel":14,"type":"noteOff","noteNumber":33,"velocity":95},{"deltaTime":0,"channel":15,"type":"pitchBend","value":0},{"deltaTime":0,"channel":15,"type":"noteOn","noteNumber":31,"velocity":95},{"deltaTime":48,"channel":15,"type":"pitchBend","value":128},{"deltaTime":48,"channel":15,"type":"pitchBend","value":256},{"deltaTime":48,"channel":15,"type":"pitchBend","value":384},{"deltaTime":48,"channel":15,"type":"pitchBend","value":512},{"deltaTime":48,"channel":15,"type":"pitchBend","value":640},{"deltaTime":0,"channel":15,"type":"pitchBend","value":640},{"deltaTime":240,"channel":15,"type":"pitchBend","value":640},{"deltaTime":0,"channel":15,"type":"pitchBend","value":0},{"deltaTime":0,"channel":15,"type":"noteOff","noteNumber":31,"velocity":95},{"deltaTime":0,"channel":14,"type":"noteOn","noteNumber":33,"velocity":95},{"deltaTime":960,"channel":14,"type":"noteOff","noteNumber":33,"velocity":95},{"deltaTime":0,"channel":14,"type":"noteOn","noteNumber":33,"velocity":95},{"deltaTime":480,"channel":14,"type":"noteOff","noteNumber":33,"velocity":95},{"deltaTime":0,"channel":14,"type":"noteOn","noteNumber":33,"velocity":95},{"deltaTime":480,"channel":14,"type":"noteOff","noteNumber":33,"velocity":95},{"deltaTime":0,"channel":14,"type":"noteOn","noteNumber":36,"velocity":95},{"deltaTime":960,"channel":14,"type":"noteOff","noteNumber":36,"velocity":95},{"deltaTime":0,"channel":14,"type":"noteOn","noteNumber":36,"velocity":95},{"deltaTime":480,"channel":14,"type":"noteOff","noteNumber":36,"velocity":95},{"deltaTime":0,"channel":14,"type":"noteOn","noteNumber":33,"velocity":95},{"deltaTime":480,"channel":14,"type":"noteOff","noteNumber":33,"velocity":95},{"deltaTime":0,"channel":14,"type":"noteOn","noteNumber":38,"velocity":95},{"deltaTime":2880,"channel":14,"type":"noteOff","noteNumber":38,"velocity":95},{"deltaTime":0,"channel":14,"type":"noteOn","noteNumber":33,"velocity":95},{"deltaTime":480,"channel":14,"type":"noteOff","noteNumber":33,"velocity":95},{"deltaTime":0,"channel":15,"type":"pitchBend","value":0},{"deltaTime":0,"channel":15,"type":"noteOn","noteNumber":31,"velocity":95},{"deltaTime":48,"channel":15,"type":"pitchBend","value":128},{"deltaTime":48,"channel":15,"type":"pitchBend","value":256},{"deltaTime":48,"channel":15,"type":"pitchBend","value":384},{"deltaTime":48,"channel":15,"type":"pitchBend","value":512},{"deltaTime":48,"channel":15,"type":"pitchBend","value":640},{"deltaTime":0,"channel":15,"type":"pitchBend","value":640},{"deltaTime":240,"channel":15,"type":"pitchBend","value":640},{"deltaTime":0,"channel":15,"type":"pitchBend","value":0},{"deltaTime":0,"channel":15,"type":"noteOff","noteNumber":31,"velocity":95},{"deltaTime":0,"channel":14,"type":"noteOn","noteNumber":33,"velocity":95},{"deltaTime":960,"channel":14,"type":"noteOff","noteNumber":33,"velocity":95},{"deltaTime":0,"channel":14,"type":"noteOn","noteNumber":33,"velocity":95},{"deltaTime":480,"channel":14,"type":"noteOff","noteNumber":33,"velocity":95},{"deltaTime":0,"channel":14,"type":"noteOn","noteNumber":28,"velocity":95},{"deltaTime":480,"channel":14,"type":"noteOff","noteNumber":28,"velocity":95},{"deltaTime":0,"channel":14,"type":"noteOn","noteNumber":36,"velocity":95},{"deltaTime":960,"channel":14,"type":"noteOff","noteNumber":36,"velocity":95},{"deltaTime":0,"channel":14,"type":"noteOn","noteNumber":36,"velocity":95},{"deltaTime":480,"channel":14,"type":"noteOff","noteNumber":36,"velocity":95},{"deltaTime":480,"channel":14,"type":"noteOn","noteNumber":38,"velocity":95},{"deltaTime":2400,"channel":14,"type":"noteOff","noteNumber":38,"velocity":95},{"deltaTime":480,"channel":14,"type":"noteOn","noteNumber":33,"velocity":95},{"deltaTime":480,"channel":14,"type":"noteOff","noteNumber":33,"velocity":95},{"deltaTime":0,"channel":15,"type":"pitchBend","value":0},{"deltaTime":0,"channel":15,"type":"noteOn","noteNumber":31,"velocity":95},{"deltaTime":48,"channel":15,"type":"pitchBend","value":128},{"deltaTime":48,"channel":15,"type":"pitchBend","value":256},{"deltaTime":48,"channel":15,"type":"pitchBend","value":384},{"deltaTime":48,"channel":15,"type":"pitchBend","value":512},{"deltaTime":48,"channel":15,"type":"pitchBend","value":640},{"deltaTime":0,"channel":15,"type":"pitchBend","value":640},{"deltaTime":240,"channel":15,"type":"pitchBend","value":640},{"deltaTime":0,"channel":15,"type":"pitchBend","value":0},{"deltaTime":0,"channel":15,"type":"noteOff","noteNumber":31,"velocity":95},{"deltaTime":0,"channel":14,"type":"noteOn","noteNumber":33,"velocity":95},{"deltaTime":2400,"channel":14,"type":"noteOff","noteNumber":33,"velocity":95},{"deltaTime":0,"channel":14,"type":"noteOn","noteNumber":36,"velocity":95},{"deltaTime":1920,"channel":14,"type":"noteOff","noteNumber":36,"velocity":95},{"deltaTime":0,"channel":14,"type":"noteOn","noteNumber":38,"velocity":95},{"deltaTime":6240,"channel":14,"type":"noteOff","noteNumber":38,"velocity":95},{"deltaTime":0,"channel":14,"type":"noteOn","noteNumber":33,"velocity":95},{"deltaTime":480,"channel":14,"type":"noteOff","noteNumber":33,"velocity":95},{"deltaTime":0,"channel":14,"type":"noteOn","noteNumber":31,"velocity":95},{"deltaTime":480,"channel":14,"type":"noteOff","noteNumber":31,"velocity":95},{"deltaTime":0,"channel":14,"type":"noteOn","noteNumber":33,"velocity":95},{"deltaTime":480,"channel":14,"type":"noteOff","noteNumber":33,"velocity":95},{"deltaTime":0,"meta":true,"type":"endOfTrack"}],[{"deltaTime":0,"channel":6,"type":"pitchBend","value":0},{"deltaTime":0,"channel":6,"type":"controller","controllerType":7,"value":127},{"deltaTime":0,"channel":6,"type":"controller","controllerType":10,"value":63},{"deltaTime":0,"channel":6,"type":"controller","controllerType":93,"value":0},{"deltaTime":0,"channel":6,"type":"controller","controllerType":91,"value":0},{"deltaTime":0,"channel":6,"type":"controller","controllerType":95,"value":0},{"deltaTime":0,"channel":6,"type":"controller","controllerType":92,"value":0},{"deltaTime":0,"channel":6,"type":"controller","controllerType":11,"value":127},{"deltaTime":0,"channel":6,"type":"programChange","programNumber":22},{"deltaTime":0,"channel":7,"type":"controller","controllerType":7,"value":127},{"deltaTime":0,"channel":7,"type":"controller","controllerType":10,"value":63},{"deltaTime":0,"channel":7,"type":"controller","controllerType":93,"value":0},{"deltaTime":0,"channel":7,"type":"controller","controllerType":91,"value":0},{"deltaTime":0,"channel":7,"type":"controller","controllerType":95,"value":0},{"deltaTime":0,"channel":7,"type":"controller","controllerType":92,"value":0},{"deltaTime":0,"channel":7,"type":"controller","controllerType":11,"value":127},{"deltaTime":0,"channel":7,"type":"programChange","programNumber":22},{"deltaTime":138720,"channel":6,"type":"noteOn","noteNumber":57,"velocity":95},{"deltaTime":240,"channel":6,"type":"noteOff","noteNumber":57,"velocity":95},{"deltaTime":0,"channel":6,"type":"noteOn","noteNumber":57,"velocity":95},{"deltaTime":240,"channel":6,"type":"noteOff","noteNumber":57,"velocity":95},{"deltaTime":0,"channel":6,"type":"noteOn","noteNumber":60,"velocity":95},{"deltaTime":480,"channel":6,"type":"noteOff","noteNumber":60,"velocity":95},{"deltaTime":0,"channel":6,"type":"noteOn","noteNumber":57,"velocity":95},{"deltaTime":480,"channel":6,"type":"noteOff","noteNumber":57,"velocity":95},{"deltaTime":0,"channel":6,"type":"noteOn","noteNumber":60,"velocity":95},{"deltaTime":480,"channel":6,"type":"noteOff","noteNumber":60,"velocity":95},{"deltaTime":0,"channel":6,"type":"noteOn","noteNumber":60,"velocity":95},{"deltaTime":1440,"channel":6,"type":"noteOff","noteNumber":60,"velocity":95},{"deltaTime":0,"channel":6,"type":"noteOn","noteNumber":57,"velocity":95},{"deltaTime":480,"channel":6,"type":"noteOff","noteNumber":57,"velocity":95},{"deltaTime":0,"channel":6,"type":"noteOn","noteNumber":55,"velocity":95},{"deltaTime":480,"channel":6,"type":"noteOff","noteNumber":55,"velocity":95},{"deltaTime":0,"channel":6,"type":"noteOn","noteNumber":60,"velocity":95},{"deltaTime":960,"channel":6,"type":"noteOff","noteNumber":60,"velocity":95},{"deltaTime":2400,"channel":6,"type":"noteOn","noteNumber":57,"velocity":95},{"deltaTime":480,"channel":6,"type":"noteOff","noteNumber":57,"velocity":95},{"deltaTime":0,"channel":6,"type":"noteOn","noteNumber":60,"velocity":95},{"deltaTime":480,"channel":6,"type":"noteOff","noteNumber":60,"velocity":95},{"deltaTime":0,"channel":6,"type":"noteOn","noteNumber":57,"velocity":95},{"deltaTime":480,"channel":6,"type":"noteOff","noteNumber":57,"velocity":95},{"deltaTime":0,"channel":6,"type":"noteOn","noteNumber":60,"velocity":95},{"deltaTime":960,"channel":6,"type":"noteOff","noteNumber":60,"velocity":95},{"deltaTime":0,"channel":6,"type":"noteOn","noteNumber":57,"velocity":95},{"deltaTime":480,"channel":6,"type":"noteOff","noteNumber":57,"velocity":95},{"deltaTime":0,"channel":6,"type":"noteOn","noteNumber":55,"velocity":95},{"deltaTime":480,"channel":6,"type":"noteOff","noteNumber":55,"velocity":95},{"deltaTime":0,"channel":6,"type":"noteOn","noteNumber":60,"velocity":95},{"deltaTime":480,"channel":6,"type":"noteOff","noteNumber":60,"velocity":95},{"deltaTime":0,"channel":6,"type":"noteOn","noteNumber":60,"velocity":95},{"deltaTime":480,"channel":6,"type":"noteOff","noteNumber":60,"velocity":95},{"deltaTime":0,"channel":6,"type":"noteOn","noteNumber":57,"velocity":95},{"deltaTime":960,"channel":6,"type":"noteOff","noteNumber":57,"velocity":95},{"deltaTime":2400,"channel":6,"type":"noteOn","noteNumber":64,"velocity":95},{"deltaTime":480,"channel":6,"type":"noteOff","noteNumber":64,"velocity":95},{"deltaTime":0,"channel":6,"type":"noteOn","noteNumber":60,"velocity":95},{"deltaTime":480,"channel":6,"type":"noteOff","noteNumber":60,"velocity":95},{"deltaTime":0,"channel":6,"type":"noteOn","noteNumber":57,"velocity":95},{"deltaTime":480,"channel":6,"type":"noteOff","noteNumber":57,"velocity":95},{"deltaTime":0,"channel":6,"type":"noteOn","noteNumber":60,"velocity":95},{"deltaTime":480,"channel":6,"type":"noteOff","noteNumber":60,"velocity":95},{"deltaTime":0,"channel":6,"type":"noteOn","noteNumber":60,"velocity":95},{"deltaTime":960,"channel":6,"type":"noteOff","noteNumber":60,"velocity":95},{"deltaTime":0,"channel":6,"type":"noteOn","noteNumber":57,"velocity":95},{"deltaTime":480,"channel":6,"type":"noteOff","noteNumber":57,"velocity":95},{"deltaTime":0,"channel":6,"type":"noteOn","noteNumber":57,"velocity":95},{"deltaTime":480,"channel":6,"type":"noteOff","noteNumber":57,"velocity":95},{"deltaTime":0,"channel":6,"type":"noteOn","noteNumber":55,"velocity":95},{"deltaTime":480,"channel":6,"type":"noteOff","noteNumber":55,"velocity":95},{"deltaTime":0,"channel":6,"type":"noteOn","noteNumber":60,"velocity":95},{"deltaTime":960,"channel":6,"type":"noteOff","noteNumber":60,"velocity":95},{"deltaTime":2400,"channel":6,"type":"noteOn","noteNumber":60,"velocity":95},{"deltaTime":480,"channel":6,"type":"noteOff","noteNumber":60,"velocity":95},{"deltaTime":0,"channel":6,"type":"noteOn","noteNumber":60,"velocity":95},{"deltaTime":480,"channel":6,"type":"noteOff","noteNumber":60,"velocity":95},{"deltaTime":0,"channel":6,"type":"noteOn","noteNumber":57,"velocity":95},{"deltaTime":480,"channel":6,"type":"noteOff","noteNumber":57,"velocity":95},{"deltaTime":0,"channel":6,"type":"noteOn","noteNumber":60,"velocity":95},{"deltaTime":960,"channel":6,"type":"noteOff","noteNumber":60,"velocity":95},{"deltaTime":0,"channel":6,"type":"noteOn","noteNumber":57,"velocity":95},{"deltaTime":480,"channel":6,"type":"noteOff","noteNumber":57,"velocity":95},{"deltaTime":0,"channel":6,"type":"noteOn","noteNumber":55,"velocity":95},{"deltaTime":480,"channel":6,"type":"noteOff","noteNumber":55,"velocity":95},{"deltaTime":0,"channel":6,"type":"noteOn","noteNumber":60,"velocity":95},{"deltaTime":480,"channel":6,"type":"noteOff","noteNumber":60,"velocity":95},{"deltaTime":0,"channel":6,"type":"noteOn","noteNumber":60,"velocity":95},{"deltaTime":480,"channel":6,"type":"noteOff","noteNumber":60,"velocity":95},{"deltaTime":0,"channel":6,"type":"noteOn","noteNumber":57,"velocity":95},{"deltaTime":960,"channel":6,"type":"noteOff","noteNumber":57,"velocity":95},{"deltaTime":1440,"channel":6,"type":"noteOn","noteNumber":62,"velocity":95},{"deltaTime":960,"channel":6,"type":"noteOff","noteNumber":62,"velocity":95},{"deltaTime":0,"channel":6,"type":"noteOn","noteNumber":62,"velocity":95},{"deltaTime":480,"channel":6,"type":"noteOff","noteNumber":62,"velocity":95},{"deltaTime":0,"channel":6,"type":"noteOn","noteNumber":62,"velocity":95},{"deltaTime":480,"channel":6,"type":"noteOff","noteNumber":62,"velocity":95},{"deltaTime":0,"channel":6,"type":"noteOn","noteNumber":62,"velocity":95},{"deltaTime":480,"channel":6,"type":"noteOff","noteNumber":62,"velocity":95},{"deltaTime":0,"channel":6,"type":"noteOn","noteNumber":62,"velocity":95},{"deltaTime":240,"channel":6,"type":"noteOff","noteNumber":62,"velocity":95},{"deltaTime":0,"channel":6,"type":"noteOn","noteNumber":62,"velocity":95},{"deltaTime":240,"channel":6,"type":"noteOff","noteNumber":62,"velocity":95},{"deltaTime":0,"channel":6,"type":"noteOn","noteNumber":62,"velocity":95},{"deltaTime":960,"channel":6,"type":"noteOff","noteNumber":62,"velocity":95},{"deltaTime":0,"channel":6,"type":"noteOn","noteNumber":66,"velocity":95},{"deltaTime":960,"channel":6,"type":"noteOff","noteNumber":66,"velocity":95},{"deltaTime":0,"channel":6,"type":"noteOn","noteNumber":62,"velocity":95},{"deltaTime":960,"channel":6,"type":"noteOff","noteNumber":62,"velocity":95},{"deltaTime":0,"channel":6,"type":"noteOn","noteNumber":62,"velocity":95},{"deltaTime":480,"channel":6,"type":"noteOff","noteNumber":62,"velocity":95},{"deltaTime":0,"channel":6,"type":"noteOn","noteNumber":62,"velocity":95},{"deltaTime":960,"channel":6,"type":"noteOff","noteNumber":62,"velocity":95},{"deltaTime":1440,"channel":6,"type":"noteOn","noteNumber":62,"velocity":95},{"deltaTime":480,"channel":6,"type":"noteOff","noteNumber":62,"velocity":95},{"deltaTime":0,"channel":6,"type":"noteOn","noteNumber":62,"velocity":95},{"deltaTime":480,"channel":6,"type":"noteOff","noteNumber":62,"velocity":95},{"deltaTime":0,"channel":6,"type":"noteOn","noteNumber":60,"velocity":95},{"deltaTime":480,"channel":6,"type":"noteOff","noteNumber":60,"velocity":95},{"deltaTime":0,"channel":6,"type":"noteOn","noteNumber":62,"velocity":95},{"deltaTime":480,"channel":6,"type":"noteOff","noteNumber":62,"velocity":95},{"deltaTime":0,"channel":6,"type":"noteOn","noteNumber":62,"velocity":95},{"deltaTime":960,"channel":6,"type":"noteOff","noteNumber":62,"velocity":95},{"deltaTime":0,"channel":6,"type":"noteOn","noteNumber":66,"velocity":95},{"deltaTime":960,"channel":6,"type":"noteOff","noteNumber":66,"velocity":95},{"deltaTime":0,"channel":6,"type":"noteOn","noteNumber":62,"velocity":95},{"deltaTime":480,"channel":6,"type":"noteOff","noteNumber":62,"velocity":95},{"deltaTime":0,"channel":6,"type":"noteOn","noteNumber":62,"velocity":95},{"deltaTime":960,"channel":6,"type":"noteOff","noteNumber":62,"velocity":95},{"deltaTime":1440,"channel":6,"type":"noteOn","noteNumber":64,"velocity":95},{"deltaTime":1440,"channel":6,"type":"noteOff","noteNumber":64,"velocity":95},{"deltaTime":0,"channel":6,"type":"noteOn","noteNumber":64,"velocity":95},{"deltaTime":480,"channel":6,"type":"noteOff","noteNumber":64,"velocity":95},{"deltaTime":0,"channel":6,"type":"noteOn","noteNumber":62,"velocity":95},{"deltaTime":480,"channel":6,"type":"noteOff","noteNumber":62,"velocity":95},{"deltaTime":0,"channel":6,"type":"noteOn","noteNumber":64,"velocity":95},{"deltaTime":480,"channel":6,"type":"noteOff","noteNumber":64,"velocity":95},{"deltaTime":0,"channel":6,"type":"noteOn","noteNumber":62,"velocity":95},{"deltaTime":480,"channel":6,"type":"noteOff","noteNumber":62,"velocity":95},{"deltaTime":0,"channel":6,"type":"noteOn","noteNumber":64,"velocity":95},{"deltaTime":480,"channel":6,"type":"noteOff","noteNumber":64,"velocity":95},{"deltaTime":0,"channel":6,"type":"noteOn","noteNumber":64,"velocity":95},{"deltaTime":480,"channel":6,"type":"noteOff","noteNumber":64,"velocity":95},{"deltaTime":0,"channel":6,"type":"noteOn","noteNumber":67,"velocity":95},{"deltaTime":640,"channel":6,"type":"noteOff","noteNumber":67,"velocity":95},{"deltaTime":0,"channel":6,"type":"noteOn","noteNumber":64,"velocity":95},{"deltaTime":640,"channel":6,"type":"noteOff","noteNumber":64,"velocity":95},{"deltaTime":0,"channel":6,"type":"noteOn","noteNumber":64,"velocity":95},{"deltaTime":640,"channel":6,"type":"noteOff","noteNumber":64,"velocity":95},{"deltaTime":0,"channel":6,"type":"noteOn","noteNumber":64,"velocity":95},{"deltaTime":960,"channel":6,"type":"noteOff","noteNumber":64,"velocity":95},{"deltaTime":1440,"channel":6,"type":"noteOn","noteNumber":64,"velocity":95},{"deltaTime":480,"channel":6,"type":"noteOff","noteNumber":64,"velocity":95},{"deltaTime":0,"channel":6,"type":"noteOn","noteNumber":67,"velocity":95},{"deltaTime":480,"channel":6,"type":"noteOff","noteNumber":67,"velocity":95},{"deltaTime":0,"channel":6,"type":"noteOn","noteNumber":64,"velocity":95},{"deltaTime":480,"channel":6,"type":"noteOff","noteNumber":64,"velocity":95},{"deltaTime":0,"channel":6,"type":"noteOn","noteNumber":67,"velocity":95},{"deltaTime":480,"channel":6,"type":"noteOff","noteNumber":67,"velocity":95},{"deltaTime":0,"channel":6,"type":"noteOn","noteNumber":64,"velocity":95},{"deltaTime":960,"channel":6,"type":"noteOff","noteNumber":64,"velocity":95},{"deltaTime":0,"channel":6,"type":"noteOn","noteNumber":67,"velocity":95},{"deltaTime":960,"channel":6,"type":"noteOff","noteNumber":67,"velocity":95},{"deltaTime":0,"channel":6,"type":"noteOn","noteNumber":64,"velocity":95},{"deltaTime":480,"channel":6,"type":"noteOff","noteNumber":64,"velocity":95},{"deltaTime":0,"channel":6,"type":"noteOn","noteNumber":67,"velocity":95},{"deltaTime":480,"channel":6,"type":"noteOff","noteNumber":67,"velocity":95},{"deltaTime":0,"channel":6,"type":"noteOn","noteNumber":64,"velocity":95},{"deltaTime":480,"channel":6,"type":"noteOff","noteNumber":64,"velocity":95},{"deltaTime":960,"channel":6,"type":"noteOn","noteNumber":67,"velocity":95},{"deltaTime":960,"channel":6,"type":"noteOff","noteNumber":67,"velocity":95},{"deltaTime":0,"channel":7,"type":"noteOn","noteNumber":64,"velocity":95},{"deltaTime":960,"channel":7,"type":"noteOff","noteNumber":64,"velocity":95},{"deltaTime":5280,"channel":6,"type":"noteOn","noteNumber":64,"velocity":95},{"deltaTime":480,"channel":6,"type":"noteOff","noteNumber":64,"velocity":95},{"deltaTime":0,"channel":6,"type":"noteOn","noteNumber":64,"velocity":95},{"deltaTime":960,"channel":6,"type":"noteOff","noteNumber":64,"velocity":95},{"deltaTime":0,"channel":7,"type":"pitchBend","value":2816},{"deltaTime":0,"channel":7,"type":"noteOn","noteNumber":60,"velocity":95},{"deltaTime":640,"channel":7,"type":"pitchBend","value":2816},{"deltaTime":29,"channel":7,"type":"pitchBend","value":2688},{"deltaTime":29,"channel":7,"type":"pitchBend","value":2560},{"deltaTime":29,"channel":7,"type":"pitchBend","value":2432},{"deltaTime":29,"channel":7,"type":"pitchBend","value":2304},{"deltaTime":29,"channel":7,"type":"pitchBend","value":2176},{"deltaTime":29,"channel":7,"type":"pitchBend","value":2048},{"deltaTime":29,"channel":7,"type":"pitchBend","value":1920},{"deltaTime":29,"channel":7,"type":"pitchBend","value":1792},{"deltaTime":29,"channel":7,"type":"pitchBend","value":1664},{"deltaTime":29,"channel":7,"type":"pitchBend","value":1536},{"deltaTime":29,"channel":7,"type":"pitchBend","value":1408},{"deltaTime":29,"channel":7,"type":"pitchBend","value":1280},{"deltaTime":29,"channel":7,"type":"pitchBend","value":1152},{"deltaTime":29,"channel":7,"type":"pitchBend","value":1024},{"deltaTime":29,"channel":7,"type":"pitchBend","value":896},{"deltaTime":29,"channel":7,"type":"pitchBend","value":768},{"deltaTime":29,"channel":7,"type":"pitchBend","value":640},{"deltaTime":29,"channel":7,"type":"pitchBend","value":512},{"deltaTime":29,"channel":7,"type":"pitchBend","value":384},{"deltaTime":29,"channel":7,"type":"pitchBend","value":256},{"deltaTime":29,"channel":7,"type":"pitchBend","value":128},{"deltaTime":29,"channel":7,"type":"pitchBend","value":0},{"deltaTime":2,"channel":7,"type":"pitchBend","value":0},{"deltaTime":640,"channel":7,"type":"pitchBend","value":0},{"deltaTime":0,"channel":7,"type":"pitchBend","value":0},{"deltaTime":0,"channel":7,"type":"noteOff","noteNumber":60,"velocity":95},{"deltaTime":2400,"channel":6,"type":"noteOn","noteNumber":64,"velocity":95},{"deltaTime":480,"channel":6,"type":"noteOff","noteNumber":64,"velocity":95},{"deltaTime":0,"channel":6,"type":"noteOn","noteNumber":64,"velocity":95},{"deltaTime":480,"channel":6,"type":"noteOff","noteNumber":64,"velocity":95},{"deltaTime":0,"channel":6,"type":"noteOn","noteNumber":64,"velocity":95},{"deltaTime":480,"channel":6,"type":"noteOff","noteNumber":64,"velocity":95},{"deltaTime":0,"channel":6,"type":"noteOn","noteNumber":64,"velocity":95},{"deltaTime":480,"channel":6,"type":"noteOff","noteNumber":64,"velocity":95},{"deltaTime":0,"channel":6,"type":"noteOn","noteNumber":57,"velocity":95},{"deltaTime":480,"channel":6,"type":"noteOff","noteNumber":57,"velocity":95},{"deltaTime":0,"channel":6,"type":"noteOn","noteNumber":64,"velocity":95},{"deltaTime":960,"channel":6,"type":"noteOff","noteNumber":64,"velocity":95},{"deltaTime":0,"channel":7,"type":"pitchBend","value":2048},{"deltaTime":0,"channel":7,"type":"noteOn","noteNumber":57,"velocity":95},{"deltaTime":640,"channel":7,"type":"pitchBend","value":2048},{"deltaTime":40,"channel":7,"type":"pitchBend","value":1920},{"deltaTime":40,"channel":7,"type":"pitchBend","value":1792},{"deltaTime":40,"channel":7,"type":"pitchBend","value":1664},{"deltaTime":40,"channel":7,"type":"pitchBend","value":1536},{"deltaTime":40,"channel":7,"type":"pitchBend","value":1408},{"deltaTime":40,"channel":7,"type":"pitchBend","value":1280},{"deltaTime":40,"channel":7,"type":"pitchBend","value":1152},{"deltaTime":40,"channel":7,"type":"pitchBend","value":1024},{"deltaTime":40,"channel":7,"type":"pitchBend","value":896},{"deltaTime":40,"channel":7,"type":"pitchBend","value":768},{"deltaTime":40,"channel":7,"type":"pitchBend","value":640},{"deltaTime":40,"channel":7,"type":"pitchBend","value":512},{"deltaTime":40,"channel":7,"type":"pitchBend","value":384},{"deltaTime":40,"channel":7,"type":"pitchBend","value":256},{"deltaTime":40,"channel":7,"type":"pitchBend","value":128},{"deltaTime":40,"channel":7,"type":"pitchBend","value":0},{"deltaTime":0,"channel":7,"type":"pitchBend","value":0},{"deltaTime":640,"channel":7,"type":"pitchBend","value":0},{"deltaTime":0,"channel":7,"type":"pitchBend","value":0},{"deltaTime":0,"channel":7,"type":"noteOff","noteNumber":57,"velocity":95},{"deltaTime":1440,"channel":6,"type":"noteOn","noteNumber":64,"velocity":95},{"deltaTime":480,"channel":6,"type":"noteOff","noteNumber":64,"velocity":95},{"deltaTime":0,"channel":6,"type":"noteOn","noteNumber":64,"velocity":95},{"deltaTime":480,"channel":6,"type":"noteOff","noteNumber":64,"velocity":95},{"deltaTime":0,"channel":6,"type":"noteOn","noteNumber":64,"velocity":95},{"deltaTime":480,"channel":6,"type":"noteOff","noteNumber":64,"velocity":95},{"deltaTime":0,"channel":6,"type":"noteOn","noteNumber":64,"velocity":95},{"deltaTime":480,"channel":6,"type":"noteOff","noteNumber":64,"velocity":95},{"deltaTime":0,"channel":6,"type":"noteOn","noteNumber":64,"velocity":95},{"deltaTime":1440,"channel":6,"type":"noteOff","noteNumber":64,"velocity":95},{"deltaTime":0,"channel":6,"type":"noteOn","noteNumber":67,"velocity":95},{"deltaTime":960,"channel":6,"type":"noteOff","noteNumber":67,"velocity":95},{"deltaTime":0,"channel":6,"type":"noteOn","noteNumber":64,"velocity":95},{"deltaTime":1920,"channel":6,"type":"noteOff","noteNumber":64,"velocity":95},{"deltaTime":19680,"channel":6,"type":"noteOn","noteNumber":64,"velocity":95},{"deltaTime":480,"channel":6,"type":"noteOff","noteNumber":64,"velocity":95},{"deltaTime":0,"channel":6,"type":"noteOn","noteNumber":64,"velocity":95},{"deltaTime":480,"channel":6,"type":"noteOff","noteNumber":64,"velocity":95},{"deltaTime":0,"channel":6,"type":"noteOn","noteNumber":64,"velocity":95},{"deltaTime":960,"channel":6,"type":"noteOff","noteNumber":64,"velocity":95},{"deltaTime":0,"channel":6,"type":"noteOn","noteNumber":64,"velocity":95},{"deltaTime":480,"channel":6,"type":"noteOff","noteNumber":64,"velocity":95},{"deltaTime":0,"channel":6,"type":"noteOn","noteNumber":57,"velocity":95},{"deltaTime":480,"channel":6,"type":"noteOff","noteNumber":57,"velocity":95},{"deltaTime":0,"channel":6,"type":"noteOn","noteNumber":64,"velocity":95},{"deltaTime":480,"channel":6,"type":"noteOff","noteNumber":64,"velocity":95},{"deltaTime":0,"channel":6,"type":"noteOn","noteNumber":64,"velocity":95},{"deltaTime":960,"channel":6,"type":"noteOff","noteNumber":64,"velocity":95},{"deltaTime":0,"channel":6,"type":"noteOn","noteNumber":60,"velocity":95},{"deltaTime":480,"channel":6,"type":"noteOff","noteNumber":60,"velocity":95},{"deltaTime":0,"channel":6,"type":"noteOn","noteNumber":57,"velocity":95},{"deltaTime":480,"channel":6,"type":"noteOff","noteNumber":57,"velocity":95},{"deltaTime":0,"channel":6,"type":"noteOn","noteNumber":60,"velocity":95},{"deltaTime":480,"channel":6,"type":"noteOff","noteNumber":60,"velocity":95},{"deltaTime":0,"channel":6,"type":"noteOn","noteNumber":57,"velocity":95},{"deltaTime":480,"channel":6,"type":"noteOff","noteNumber":57,"velocity":95},{"deltaTime":0,"channel":6,"type":"noteOn","noteNumber":60,"velocity":95},{"deltaTime":960,"channel":6,"type":"noteOff","noteNumber":60,"velocity":95},{"deltaTime":2400,"channel":6,"type":"noteOn","noteNumber":64,"velocity":95},{"deltaTime":240,"channel":6,"type":"noteOff","noteNumber":64,"velocity":95},{"deltaTime":0,"channel":6,"type":"noteOn","noteNumber":64,"velocity":95},{"deltaTime":240,"channel":6,"type":"noteOff","noteNumber":64,"velocity":95},{"deltaTime":0,"channel":6,"type":"noteOn","noteNumber":64,"velocity":95},{"deltaTime":480,"channel":6,"type":"noteOff","noteNumber":64,"velocity":95},{"deltaTime":0,"channel":6,"type":"noteOn","noteNumber":64,"velocity":95},{"deltaTime":480,"channel":6,"type":"noteOff","noteNumber":64,"velocity":95},{"deltaTime":0,"channel":6,"type":"noteOn","noteNumber":64,"velocity":95},{"deltaTime":480,"channel":6,"type":"noteOff","noteNumber":64,"velocity":95},{"deltaTime":0,"channel":6,"type":"noteOn","noteNumber":57,"velocity":95},{"deltaTime":480,"channel":6,"type":"noteOff","noteNumber":57,"velocity":95},{"deltaTime":0,"channel":6,"type":"noteOn","noteNumber":60,"velocity":95},{"deltaTime":480,"channel":6,"type":"noteOff","noteNumber":60,"velocity":95},{"deltaTime":0,"channel":6,"type":"noteOn","noteNumber":57,"velocity":95},{"deltaTime":480,"channel":6,"type":"noteOff","noteNumber":57,"velocity":95},{"deltaTime":0,"channel":6,"type":"noteOn","noteNumber":60,"velocity":95},{"deltaTime":480,"channel":6,"type":"noteOff","noteNumber":60,"velocity":95},{"deltaTime":0,"channel":6,"type":"noteOn","noteNumber":57,"velocity":95},{"deltaTime":480,"channel":6,"type":"noteOff","noteNumber":57,"velocity":95},{"deltaTime":0,"channel":6,"type":"noteOn","noteNumber":57,"velocity":95},{"deltaTime":960,"channel":6,"type":"noteOff","noteNumber":57,"velocity":95},{"deltaTime":960,"channel":6,"type":"noteOn","noteNumber":64,"velocity":95},{"deltaTime":480,"channel":6,"type":"noteOff","noteNumber":64,"velocity":95},{"deltaTime":0,"channel":6,"type":"noteOn","noteNumber":62,"velocity":95},{"deltaTime":480,"channel":6,"type":"noteOff","noteNumber":62,"velocity":95},{"deltaTime":0,"channel":6,"type":"noteOn","noteNumber":64,"velocity":95},{"deltaTime":960,"channel":6,"type":"noteOff","noteNumber":64,"velocity":95},{"deltaTime":0,"channel":6,"type":"noteOn","noteNumber":64,"velocity":95},{"deltaTime":960,"channel":6,"type":"noteOff","noteNumber":64,"velocity":95},{"deltaTime":0,"channel":6,"type":"noteOn","noteNumber":64,"velocity":95},{"deltaTime":480,"channel":6,"type":"noteOff","noteNumber":64,"velocity":95},{"deltaTime":0,"channel":6,"type":"noteOn","noteNumber":60,"velocity":95},{"deltaTime":480,"channel":6,"type":"noteOff","noteNumber":60,"velocity":95},{"deltaTime":0,"channel":6,"type":"noteOn","noteNumber":60,"velocity":95},{"deltaTime":480,"channel":6,"type":"noteOff","noteNumber":60,"velocity":95},{"deltaTime":0,"channel":6,"type":"noteOn","noteNumber":57,"velocity":95},{"deltaTime":480,"channel":6,"type":"noteOff","noteNumber":57,"velocity":95},{"deltaTime":0,"channel":6,"type":"noteOn","noteNumber":64,"velocity":95},{"deltaTime":480,"channel":6,"type":"noteOff","noteNumber":64,"velocity":95},{"deltaTime":0,"channel":6,"type":"noteOn","noteNumber":60,"velocity":95},{"deltaTime":480,"channel":6,"type":"noteOff","noteNumber":60,"velocity":95},{"deltaTime":0,"channel":6,"type":"noteOn","noteNumber":57,"velocity":95},{"deltaTime":960,"channel":6,"type":"noteOff","noteNumber":57,"velocity":95},{"deltaTime":480,"channel":6,"type":"noteOn","noteNumber":60,"velocity":95},{"deltaTime":480,"channel":6,"type":"noteOff","noteNumber":60,"velocity":95},{"deltaTime":0,"channel":6,"type":"noteOn","noteNumber":57,"velocity":95},{"deltaTime":960,"channel":6,"type":"noteOff","noteNumber":57,"velocity":95},{"deltaTime":0,"channel":6,"type":"noteOn","noteNumber":64,"velocity":95},{"deltaTime":480,"channel":6,"type":"noteOff","noteNumber":64,"velocity":95},{"deltaTime":0,"channel":6,"type":"noteOn","noteNumber":64,"velocity":95},{"deltaTime":480,"channel":6,"type":"noteOff","noteNumber":64,"velocity":95},{"deltaTime":0,"channel":6,"type":"noteOn","noteNumber":62,"velocity":95},{"deltaTime":480,"channel":6,"type":"noteOff","noteNumber":62,"velocity":95},{"deltaTime":0,"channel":6,"type":"noteOn","noteNumber":64,"velocity":95},{"deltaTime":960,"channel":6,"type":"noteOff","noteNumber":64,"velocity":95},{"deltaTime":0,"channel":6,"type":"noteOn","noteNumber":60,"velocity":95},{"deltaTime":480,"channel":6,"type":"noteOff","noteNumber":60,"velocity":95},{"deltaTime":0,"channel":6,"type":"noteOn","noteNumber":60,"velocity":95},{"deltaTime":960,"channel":6,"type":"noteOff","noteNumber":60,"velocity":95},{"deltaTime":0,"channel":6,"type":"noteOn","noteNumber":62,"velocity":95},{"deltaTime":240,"channel":6,"type":"noteOff","noteNumber":62,"velocity":95},{"deltaTime":0,"channel":6,"type":"noteOn","noteNumber":62,"velocity":95},{"deltaTime":240,"channel":6,"type":"noteOff","noteNumber":62,"velocity":95},{"deltaTime":0,"channel":6,"type":"noteOn","noteNumber":62,"velocity":95},{"deltaTime":480,"channel":6,"type":"noteOff","noteNumber":62,"velocity":95},{"deltaTime":0,"channel":6,"type":"noteOn","noteNumber":60,"velocity":95},{"deltaTime":480,"channel":6,"type":"noteOff","noteNumber":60,"velocity":95},{"deltaTime":0,"channel":7,"type":"pitchBend","value":0},{"deltaTime":0,"channel":7,"type":"noteOn","noteNumber":62,"velocity":95},{"deltaTime":65,"channel":7,"type":"pitchBend","value":128},{"deltaTime":65,"channel":7,"type":"pitchBend","value":256},{"deltaTime":65,"channel":7,"type":"pitchBend","value":384},{"deltaTime":65,"channel":7,"type":"pitchBend","value":512},{"deltaTime":65,"channel":7,"type":"pitchBend","value":640},{"deltaTime":65,"channel":7,"type":"pitchBend","value":768},{"deltaTime":65,"channel":7,"type":"pitchBend","value":896},{"deltaTime":65,"channel":7,"type":"pitchBend","value":1024},{"deltaTime":65,"channel":7,"type":"pitchBend","value":1152},{"deltaTime":65,"channel":7,"type":"pitchBend","value":1280},{"deltaTime":65,"channel":7,"type":"pitchBend","value":1408},{"deltaTime":5,"channel":7,"type":"pitchBend","value":1408},{"deltaTime":720,"channel":7,"type":"pitchBend","value":1408},{"deltaTime":0,"channel":7,"type":"pitchBend","value":0},{"deltaTime":0,"channel":7,"type":"noteOff","noteNumber":62,"velocity":95},{"deltaTime":1200,"channel":6,"type":"noteOn","noteNumber":62,"velocity":95},{"deltaTime":240,"channel":6,"type":"noteOff","noteNumber":62,"velocity":95},{"deltaTime":0,"channel":6,"type":"noteOn","noteNumber":62,"velocity":95},{"deltaTime":480,"channel":6,"type":"noteOff","noteNumber":62,"velocity":95},{"deltaTime":0,"channel":6,"type":"noteOn","noteNumber":62,"velocity":95},{"deltaTime":480,"channel":6,"type":"noteOff","noteNumber":62,"velocity":95},{"deltaTime":0,"channel":6,"type":"noteOn","noteNumber":62,"velocity":95},{"deltaTime":480,"channel":6,"type":"noteOff","noteNumber":62,"velocity":95},{"deltaTime":0,"channel":6,"type":"noteOn","noteNumber":62,"velocity":95},{"deltaTime":240,"channel":6,"type":"noteOff","noteNumber":62,"velocity":95},{"deltaTime":0,"channel":6,"type":"noteOn","noteNumber":62,"velocity":95},{"deltaTime":240,"channel":6,"type":"noteOff","noteNumber":62,"velocity":95},{"deltaTime":0,"channel":6,"type":"noteOn","noteNumber":62,"velocity":95},{"deltaTime":960,"channel":6,"type":"noteOff","noteNumber":62,"velocity":95},{"deltaTime":0,"channel":6,"type":"noteOn","noteNumber":66,"velocity":95},{"deltaTime":960,"channel":6,"type":"noteOff","noteNumber":66,"velocity":95},{"deltaTime":0,"channel":6,"type":"noteOn","noteNumber":62,"velocity":95},{"deltaTime":960,"channel":6,"type":"noteOff","noteNumber":62,"velocity":95},{"deltaTime":0,"channel":6,"type":"noteOn","noteNumber":62,"velocity":95},{"deltaTime":480,"channel":6,"type":"noteOff","noteNumber":62,"velocity":95},{"deltaTime":0,"channel":6,"type":"noteOn","noteNumber":62,"velocity":95},{"deltaTime":960,"channel":6,"type":"noteOff","noteNumber":62,"velocity":95},{"deltaTime":1440,"channel":6,"type":"noteOn","noteNumber":62,"velocity":95},{"deltaTime":480,"channel":6,"type":"noteOff","noteNumber":62,"velocity":95},{"deltaTime":0,"channel":6,"type":"noteOn","noteNumber":62,"velocity":95},{"deltaTime":480,"channel":6,"type":"noteOff","noteNumber":62,"velocity":95},{"deltaTime":0,"channel":6,"type":"noteOn","noteNumber":60,"velocity":95},{"deltaTime":480,"channel":6,"type":"noteOff","noteNumber":60,"velocity":95},{"deltaTime":0,"channel":6,"type":"noteOn","noteNumber":62,"velocity":95},{"deltaTime":480,"channel":6,"type":"noteOff","noteNumber":62,"velocity":95},{"deltaTime":0,"channel":6,"type":"noteOn","noteNumber":62,"velocity":95},{"deltaTime":960,"channel":6,"type":"noteOff","noteNumber":62,"velocity":95},{"deltaTime":0,"channel":6,"type":"noteOn","noteNumber":66,"velocity":95},{"deltaTime":960,"channel":6,"type":"noteOff","noteNumber":66,"velocity":95},{"deltaTime":0,"channel":6,"type":"noteOn","noteNumber":62,"velocity":95},{"deltaTime":480,"channel":6,"type":"noteOff","noteNumber":62,"velocity":95},{"deltaTime":0,"channel":6,"type":"noteOn","noteNumber":62,"velocity":95},{"deltaTime":960,"channel":6,"type":"noteOff","noteNumber":62,"velocity":95},{"deltaTime":1440,"channel":6,"type":"noteOn","noteNumber":64,"velocity":95},{"deltaTime":1440,"channel":6,"type":"noteOff","noteNumber":64,"velocity":95},{"deltaTime":0,"channel":6,"type":"noteOn","noteNumber":64,"velocity":95},{"deltaTime":480,"channel":6,"type":"noteOff","noteNumber":64,"velocity":95},{"deltaTime":0,"channel":6,"type":"noteOn","noteNumber":62,"velocity":95},{"deltaTime":480,"channel":6,"type":"noteOff","noteNumber":62,"velocity":95},{"deltaTime":0,"channel":6,"type":"noteOn","noteNumber":64,"velocity":95},{"deltaTime":480,"channel":6,"type":"noteOff","noteNumber":64,"velocity":95},{"deltaTime":0,"channel":6,"type":"noteOn","noteNumber":62,"velocity":95},{"deltaTime":480,"channel":6,"type":"noteOff","noteNumber":62,"velocity":95},{"deltaTime":0,"channel":6,"type":"noteOn","noteNumber":64,"velocity":95},{"deltaTime":480,"channel":6,"type":"noteOff","noteNumber":64,"velocity":95},{"deltaTime":0,"channel":6,"type":"noteOn","noteNumber":64,"velocity":95},{"deltaTime":480,"channel":6,"type":"noteOff","noteNumber":64,"velocity":95},{"deltaTime":0,"channel":6,"type":"noteOn","noteNumber":67,"velocity":95},{"deltaTime":640,"channel":6,"type":"noteOff","noteNumber":67,"velocity":95},{"deltaTime":0,"channel":6,"type":"noteOn","noteNumber":64,"velocity":95},{"deltaTime":640,"channel":6,"type":"noteOff","noteNumber":64,"velocity":95},{"deltaTime":0,"channel":6,"type":"noteOn","noteNumber":64,"velocity":95},{"deltaTime":640,"channel":6,"type":"noteOff","noteNumber":64,"velocity":95},{"deltaTime":0,"channel":6,"type":"noteOn","noteNumber":64,"velocity":95},{"deltaTime":960,"channel":6,"type":"noteOff","noteNumber":64,"velocity":95},{"deltaTime":1440,"channel":6,"type":"noteOn","noteNumber":64,"velocity":95},{"deltaTime":480,"channel":6,"type":"noteOff","noteNumber":64,"velocity":95},{"deltaTime":0,"channel":6,"type":"noteOn","noteNumber":67,"velocity":95},{"deltaTime":480,"channel":6,"type":"noteOff","noteNumber":67,"velocity":95},{"deltaTime":0,"channel":6,"type":"noteOn","noteNumber":64,"velocity":95},{"deltaTime":480,"channel":6,"type":"noteOff","noteNumber":64,"velocity":95},{"deltaTime":0,"channel":6,"type":"noteOn","noteNumber":67,"velocity":95},{"deltaTime":480,"channel":6,"type":"noteOff","noteNumber":67,"velocity":95},{"deltaTime":0,"channel":6,"type":"noteOn","noteNumber":64,"velocity":95},{"deltaTime":960,"channel":6,"type":"noteOff","noteNumber":64,"velocity":95},{"deltaTime":0,"channel":6,"type":"noteOn","noteNumber":67,"velocity":95},{"deltaTime":960,"channel":6,"type":"noteOff","noteNumber":67,"velocity":95},{"deltaTime":0,"channel":6,"type":"noteOn","noteNumber":64,"velocity":95},{"deltaTime":480,"channel":6,"type":"noteOff","noteNumber":64,"velocity":95},{"deltaTime":0,"channel":6,"type":"noteOn","noteNumber":67,"velocity":95},{"deltaTime":480,"channel":6,"type":"noteOff","noteNumber":67,"velocity":95},{"deltaTime":0,"channel":6,"type":"noteOn","noteNumber":64,"velocity":95},{"deltaTime":480,"channel":6,"type":"noteOff","noteNumber":64,"velocity":95},{"deltaTime":960,"channel":6,"type":"noteOn","noteNumber":67,"velocity":95},{"deltaTime":960,"channel":6,"type":"noteOff","noteNumber":67,"velocity":95},{"deltaTime":0,"channel":6,"type":"noteOn","noteNumber":64,"velocity":95},{"deltaTime":960,"channel":6,"type":"noteOff","noteNumber":64,"velocity":95},{"deltaTime":5280,"channel":6,"type":"noteOn","noteNumber":64,"velocity":95},{"deltaTime":480,"channel":6,"type":"noteOff","noteNumber":64,"velocity":95},{"deltaTime":0,"channel":6,"type":"noteOn","noteNumber":64,"velocity":95},{"deltaTime":960,"channel":6,"type":"noteOff","noteNumber":64,"velocity":95},{"deltaTime":0,"channel":7,"type":"pitchBend","value":2816},{"deltaTime":0,"channel":7,"type":"noteOn","noteNumber":60,"velocity":95},{"deltaTime":640,"channel":7,"type":"pitchBend","value":2816},{"deltaTime":29,"channel":7,"type":"pitchBend","value":2688},{"deltaTime":29,"channel":7,"type":"pitchBend","value":2560},{"deltaTime":29,"channel":7,"type":"pitchBend","value":2432},{"deltaTime":29,"channel":7,"type":"pitchBend","value":2304},{"deltaTime":29,"channel":7,"type":"pitchBend","value":2176},{"deltaTime":29,"channel":7,"type":"pitchBend","value":2048},{"deltaTime":29,"channel":7,"type":"pitchBend","value":1920},{"deltaTime":29,"channel":7,"type":"pitchBend","value":1792},{"deltaTime":29,"channel":7,"type":"pitchBend","value":1664},{"deltaTime":29,"channel":7,"type":"pitchBend","value":1536},{"deltaTime":29,"channel":7,"type":"pitchBend","value":1408},{"deltaTime":29,"channel":7,"type":"pitchBend","value":1280},{"deltaTime":29,"channel":7,"type":"pitchBend","value":1152},{"deltaTime":29,"channel":7,"type":"pitchBend","value":1024},{"deltaTime":29,"channel":7,"type":"pitchBend","value":896},{"deltaTime":29,"channel":7,"type":"pitchBend","value":768},{"deltaTime":29,"channel":7,"type":"pitchBend","value":640},{"deltaTime":29,"channel":7,"type":"pitchBend","value":512},{"deltaTime":29,"channel":7,"type":"pitchBend","value":384},{"deltaTime":29,"channel":7,"type":"pitchBend","value":256},{"deltaTime":29,"channel":7,"type":"pitchBend","value":128},{"deltaTime":29,"channel":7,"type":"pitchBend","value":0},{"deltaTime":2,"channel":7,"type":"pitchBend","value":0},{"deltaTime":640,"channel":7,"type":"pitchBend","value":0},{"deltaTime":0,"channel":7,"type":"pitchBend","value":0},{"deltaTime":0,"channel":7,"type":"noteOff","noteNumber":60,"velocity":95},{"deltaTime":2400,"channel":6,"type":"noteOn","noteNumber":64,"velocity":95},{"deltaTime":480,"channel":6,"type":"noteOff","noteNumber":64,"velocity":95},{"deltaTime":0,"channel":6,"type":"noteOn","noteNumber":64,"velocity":95},{"deltaTime":480,"channel":6,"type":"noteOff","noteNumber":64,"velocity":95},{"deltaTime":0,"channel":6,"type":"noteOn","noteNumber":64,"velocity":95},{"deltaTime":480,"channel":6,"type":"noteOff","noteNumber":64,"velocity":95},{"deltaTime":0,"channel":6,"type":"noteOn","noteNumber":64,"velocity":95},{"deltaTime":480,"channel":6,"type":"noteOff","noteNumber":64,"velocity":95},{"deltaTime":0,"channel":6,"type":"noteOn","noteNumber":57,"velocity":95},{"deltaTime":480,"channel":6,"type":"noteOff","noteNumber":57,"velocity":95},{"deltaTime":0,"channel":6,"type":"noteOn","noteNumber":64,"velocity":95},{"deltaTime":960,"channel":6,"type":"noteOff","noteNumber":64,"velocity":95},{"deltaTime":0,"channel":7,"type":"pitchBend","value":2048},{"deltaTime":0,"channel":7,"type":"noteOn","noteNumber":57,"velocity":95},{"deltaTime":640,"channel":7,"type":"pitchBend","value":2048},{"deltaTime":40,"channel":7,"type":"pitchBend","value":1920},{"deltaTime":40,"channel":7,"type":"pitchBend","value":1792},{"deltaTime":40,"channel":7,"type":"pitchBend","value":1664},{"deltaTime":40,"channel":7,"type":"pitchBend","value":1536},{"deltaTime":40,"channel":7,"type":"pitchBend","value":1408},{"deltaTime":40,"channel":7,"type":"pitchBend","value":1280},{"deltaTime":40,"channel":7,"type":"pitchBend","value":1152},{"deltaTime":40,"channel":7,"type":"pitchBend","value":1024},{"deltaTime":40,"channel":7,"type":"pitchBend","value":896},{"deltaTime":40,"channel":7,"type":"pitchBend","value":768},{"deltaTime":40,"channel":7,"type":"pitchBend","value":640},{"deltaTime":40,"channel":7,"type":"pitchBend","value":512},{"deltaTime":40,"channel":7,"type":"pitchBend","value":384},{"deltaTime":40,"channel":7,"type":"pitchBend","value":256},{"deltaTime":40,"channel":7,"type":"pitchBend","value":128},{"deltaTime":40,"channel":7,"type":"pitchBend","value":0},{"deltaTime":0,"channel":7,"type":"pitchBend","value":0},{"deltaTime":640,"channel":7,"type":"pitchBend","value":0},{"deltaTime":0,"channel":7,"type":"pitchBend","value":0},{"deltaTime":0,"channel":7,"type":"noteOff","noteNumber":57,"velocity":95},{"deltaTime":1440,"channel":6,"type":"noteOn","noteNumber":64,"velocity":95},{"deltaTime":480,"channel":6,"type":"noteOff","noteNumber":64,"velocity":95},{"deltaTime":0,"channel":6,"type":"noteOn","noteNumber":64,"velocity":95},{"deltaTime":480,"channel":6,"type":"noteOff","noteNumber":64,"velocity":95},{"deltaTime":0,"channel":6,"type":"noteOn","noteNumber":64,"velocity":95},{"deltaTime":480,"channel":6,"type":"noteOff","noteNumber":64,"velocity":95},{"deltaTime":0,"channel":6,"type":"noteOn","noteNumber":64,"velocity":95},{"deltaTime":480,"channel":6,"type":"noteOff","noteNumber":64,"velocity":95},{"deltaTime":0,"channel":6,"type":"noteOn","noteNumber":64,"velocity":95},{"deltaTime":1440,"channel":6,"type":"noteOff","noteNumber":64,"velocity":95},{"deltaTime":0,"channel":6,"type":"noteOn","noteNumber":67,"velocity":95},{"deltaTime":960,"channel":6,"type":"noteOff","noteNumber":67,"velocity":95},{"deltaTime":0,"channel":6,"type":"noteOn","noteNumber":64,"velocity":95},{"deltaTime":1920,"channel":6,"type":"noteOff","noteNumber":64,"velocity":95},{"deltaTime":81600,"channel":6,"type":"noteOn","noteNumber":67,"velocity":95},{"deltaTime":960,"channel":6,"type":"noteOff","noteNumber":67,"velocity":95},{"deltaTime":0,"channel":6,"type":"noteOn","noteNumber":64,"velocity":95},{"deltaTime":960,"channel":6,"type":"noteOff","noteNumber":64,"velocity":95},{"deltaTime":1440,"channel":6,"type":"noteOn","noteNumber":64,"velocity":95},{"deltaTime":480,"channel":6,"type":"noteOff","noteNumber":64,"velocity":95},{"deltaTime":0,"channel":6,"type":"noteOn","noteNumber":64,"velocity":95},{"deltaTime":960,"channel":6,"type":"noteOff","noteNumber":64,"velocity":95},{"deltaTime":0,"channel":6,"type":"noteOn","noteNumber":64,"velocity":95},{"deltaTime":480,"channel":6,"type":"noteOff","noteNumber":64,"velocity":95},{"deltaTime":0,"channel":6,"type":"noteOn","noteNumber":64,"velocity":95},{"deltaTime":480,"channel":6,"type":"noteOff","noteNumber":64,"velocity":95},{"deltaTime":0,"channel":6,"type":"noteOn","noteNumber":64,"velocity":95},{"deltaTime":480,"channel":6,"type":"noteOff","noteNumber":64,"velocity":95},{"deltaTime":0,"channel":6,"type":"noteOn","noteNumber":64,"velocity":95},{"deltaTime":1440,"channel":6,"type":"noteOff","noteNumber":64,"velocity":95},{"deltaTime":0,"channel":6,"type":"noteOn","noteNumber":64,"velocity":95},{"deltaTime":960,"channel":6,"type":"noteOff","noteNumber":64,"velocity":95},{"deltaTime":0,"channel":7,"type":"pitchBend","value":2816},{"deltaTime":0,"channel":7,"type":"noteOn","noteNumber":60,"velocity":95},{"deltaTime":640,"channel":7,"type":"pitchBend","value":2816},{"deltaTime":29,"channel":7,"type":"pitchBend","value":2688},{"deltaTime":29,"channel":7,"type":"pitchBend","value":2560},{"deltaTime":29,"channel":7,"type":"pitchBend","value":2432},{"deltaTime":29,"channel":7,"type":"pitchBend","value":2304},{"deltaTime":29,"channel":7,"type":"pitchBend","value":2176},{"deltaTime":29,"channel":7,"type":"pitchBend","value":2048},{"deltaTime":29,"channel":7,"type":"pitchBend","value":1920},{"deltaTime":29,"channel":7,"type":"pitchBend","value":1792},{"deltaTime":29,"channel":7,"type":"pitchBend","value":1664},{"deltaTime":29,"channel":7,"type":"pitchBend","value":1536},{"deltaTime":29,"channel":7,"type":"pitchBend","value":1408},{"deltaTime":29,"channel":7,"type":"pitchBend","value":1280},{"deltaTime":29,"channel":7,"type":"pitchBend","value":1152},{"deltaTime":29,"channel":7,"type":"pitchBend","value":1024},{"deltaTime":29,"channel":7,"type":"pitchBend","value":896},{"deltaTime":29,"channel":7,"type":"pitchBend","value":768},{"deltaTime":29,"channel":7,"type":"pitchBend","value":640},{"deltaTime":29,"channel":7,"type":"pitchBend","value":512},{"deltaTime":29,"channel":7,"type":"pitchBend","value":384},{"deltaTime":29,"channel":7,"type":"pitchBend","value":256},{"deltaTime":29,"channel":7,"type":"pitchBend","value":128},{"deltaTime":29,"channel":7,"type":"pitchBend","value":0},{"deltaTime":2,"channel":7,"type":"pitchBend","value":0},{"deltaTime":640,"channel":7,"type":"pitchBend","value":0},{"deltaTime":0,"channel":7,"type":"pitchBend","value":0},{"deltaTime":0,"channel":7,"type":"noteOff","noteNumber":60,"velocity":95},{"deltaTime":1440,"channel":6,"type":"noteOn","noteNumber":64,"velocity":95},{"deltaTime":480,"channel":6,"type":"noteOff","noteNumber":64,"velocity":95},{"deltaTime":0,"channel":6,"type":"noteOn","noteNumber":67,"velocity":95},{"deltaTime":480,"channel":6,"type":"noteOff","noteNumber":67,"velocity":95},{"deltaTime":0,"channel":6,"type":"noteOn","noteNumber":64,"velocity":95},{"deltaTime":480,"channel":6,"type":"noteOff","noteNumber":64,"velocity":95},{"deltaTime":0,"channel":6,"type":"noteOn","noteNumber":64,"velocity":95},{"deltaTime":480,"channel":6,"type":"noteOff","noteNumber":64,"velocity":95},{"deltaTime":0,"channel":6,"type":"noteOn","noteNumber":64,"velocity":95},{"deltaTime":960,"channel":6,"type":"noteOff","noteNumber":64,"velocity":95},{"deltaTime":0,"channel":6,"type":"noteOn","noteNumber":64,"velocity":95},{"deltaTime":480,"channel":6,"type":"noteOff","noteNumber":64,"velocity":95},{"deltaTime":0,"channel":6,"type":"noteOn","noteNumber":67,"velocity":95},{"deltaTime":960,"channel":6,"type":"noteOff","noteNumber":67,"velocity":95},{"deltaTime":0,"channel":7,"type":"pitchBend","value":2048},{"deltaTime":0,"channel":7,"type":"noteOn","noteNumber":64,"velocity":95},{"deltaTime":320,"channel":7,"type":"pitchBend","value":2048},{"deltaTime":20,"channel":7,"type":"pitchBend","value":1920},{"deltaTime":20,"channel":7,"type":"pitchBend","value":1792},{"deltaTime":20,"channel":7,"type":"pitchBend","value":1664},{"deltaTime":20,"channel":7,"type":"pitchBend","value":1536},{"deltaTime":20,"channel":7,"type":"pitchBend","value":1408},{"deltaTime":20,"channel":7,"type":"pitchBend","value":1280},{"deltaTime":20,"channel":7,"type":"pitchBend","value":1152},{"deltaTime":20,"channel":7,"type":"pitchBend","value":1024},{"deltaTime":20,"channel":7,"type":"pitchBend","value":896},{"deltaTime":20,"channel":7,"type":"pitchBend","value":768},{"deltaTime":20,"channel":7,"type":"pitchBend","value":640},{"deltaTime":20,"channel":7,"type":"pitchBend","value":512},{"deltaTime":20,"channel":7,"type":"pitchBend","value":384},{"deltaTime":20,"channel":7,"type":"pitchBend","value":256},{"deltaTime":20,"channel":7,"type":"pitchBend","value":128},{"deltaTime":20,"channel":7,"type":"pitchBend","value":0},{"deltaTime":0,"channel":7,"type":"pitchBend","value":0},{"deltaTime":320,"channel":7,"type":"pitchBend","value":0},{"deltaTime":0,"channel":7,"type":"pitchBend","value":0},{"deltaTime":0,"channel":7,"type":"noteOff","noteNumber":64,"velocity":95},{"deltaTime":2400,"channel":6,"type":"noteOn","noteNumber":62,"velocity":95},{"deltaTime":480,"channel":6,"type":"noteOff","noteNumber":62,"velocity":95},{"deltaTime":0,"channel":6,"type":"noteOn","noteNumber":64,"velocity":95},{"deltaTime":480,"channel":6,"type":"noteOff","noteNumber":64,"velocity":95},{"deltaTime":0,"channel":6,"type":"noteOn","noteNumber":64,"velocity":95},{"deltaTime":480,"channel":6,"type":"noteOff","noteNumber":64,"velocity":95},{"deltaTime":0,"channel":6,"type":"noteOn","noteNumber":64,"velocity":95},{"deltaTime":480,"channel":6,"type":"noteOff","noteNumber":64,"velocity":95},{"deltaTime":0,"channel":6,"type":"noteOn","noteNumber":67,"velocity":95},{"deltaTime":1440,"channel":6,"type":"noteOff","noteNumber":67,"velocity":95},{"deltaTime":0,"channel":6,"type":"noteOn","noteNumber":67,"velocity":95},{"deltaTime":960,"channel":6,"type":"noteOff","noteNumber":67,"velocity":95},{"deltaTime":0,"channel":7,"type":"noteOn","noteNumber":67,"velocity":95},{"deltaTime":120,"channel":7,"type":"pitchBend","value":-256},{"deltaTime":120,"channel":7,"type":"pitchBend","value":-512},{"deltaTime":120,"channel":7,"type":"pitchBend","value":-768},{"deltaTime":120,"channel":7,"type":"pitchBend","value":-1024},{"deltaTime":120,"channel":7,"type":"pitchBend","value":-1280},{"deltaTime":120,"channel":7,"type":"pitchBend","value":-1536},{"deltaTime":120,"channel":7,"type":"pitchBend","value":-1792},{"deltaTime":120,"channel":7,"type":"pitchBend","value":-2048},{"deltaTime":0,"channel":7,"type":"pitchBend","value":0},{"deltaTime":0,"channel":7,"type":"noteOff","noteNumber":67,"velocity":95},{"deltaTime":0,"channel":6,"type":"noteOn","noteNumber":64,"velocity":95},{"deltaTime":960,"channel":6,"type":"noteOff","noteNumber":64,"velocity":95},{"deltaTime":1440,"channel":6,"type":"noteOn","noteNumber":67,"velocity":95},{"deltaTime":480,"channel":6,"type":"noteOff","noteNumber":67,"velocity":95},{"deltaTime":0,"channel":6,"type":"noteOn","noteNumber":67,"velocity":95},{"deltaTime":960,"channel":6,"type":"noteOff","noteNumber":67,"velocity":95},{"deltaTime":0,"channel":6,"type":"noteOn","noteNumber":64,"velocity":95},{"deltaTime":480,"channel":6,"type":"noteOff","noteNumber":64,"velocity":95},{"deltaTime":0,"channel":6,"type":"noteOn","noteNumber":64,"velocity":95},{"deltaTime":1440,"channel":6,"type":"noteOff","noteNumber":64,"velocity":95},{"deltaTime":0,"channel":6,"type":"noteOn","noteNumber":67,"velocity":95},{"deltaTime":960,"channel":6,"type":"noteOff","noteNumber":67,"velocity":95},{"deltaTime":0,"channel":6,"type":"noteOn","noteNumber":57,"velocity":95},{"deltaTime":960,"channel":6,"type":"noteOff","noteNumber":57,"velocity":95},{"deltaTime":2400,"channel":6,"type":"noteOn","noteNumber":64,"velocity":95},{"deltaTime":480,"channel":6,"type":"noteOff","noteNumber":64,"velocity":95},{"deltaTime":0,"channel":6,"type":"noteOn","noteNumber":62,"velocity":95},{"deltaTime":480,"channel":6,"type":"noteOff","noteNumber":62,"velocity":95},{"deltaTime":0,"channel":6,"type":"noteOn","noteNumber":62,"velocity":95},{"deltaTime":480,"channel":6,"type":"noteOff","noteNumber":62,"velocity":95},{"deltaTime":0,"channel":6,"type":"noteOn","noteNumber":62,"velocity":95},{"deltaTime":480,"channel":6,"type":"noteOff","noteNumber":62,"velocity":95},{"deltaTime":0,"channel":6,"type":"noteOn","noteNumber":60,"velocity":95},{"deltaTime":1920,"channel":6,"type":"noteOff","noteNumber":60,"velocity":95},{"deltaTime":0,"channel":6,"type":"noteOn","noteNumber":64,"velocity":95},{"deltaTime":480,"channel":6,"type":"noteOff","noteNumber":64,"velocity":95},{"deltaTime":0,"channel":7,"type":"pitchBend","value":2048},{"deltaTime":0,"channel":7,"type":"noteOn","noteNumber":57,"velocity":95},{"deltaTime":320,"channel":7,"type":"pitchBend","value":2048},{"deltaTime":20,"channel":7,"type":"pitchBend","value":1920},{"deltaTime":20,"channel":7,"type":"pitchBend","value":1792},{"deltaTime":20,"channel":7,"type":"pitchBend","value":1664},{"deltaTime":20,"channel":7,"type":"pitchBend","value":1536},{"deltaTime":20,"channel":7,"type":"pitchBend","value":1408},{"deltaTime":20,"channel":7,"type":"pitchBend","value":1280},{"deltaTime":20,"channel":7,"type":"pitchBend","value":1152},{"deltaTime":20,"channel":7,"type":"pitchBend","value":1024},{"deltaTime":20,"channel":7,"type":"pitchBend","value":896},{"deltaTime":20,"channel":7,"type":"pitchBend","value":768},{"deltaTime":20,"channel":7,"type":"pitchBend","value":640},{"deltaTime":20,"channel":7,"type":"pitchBend","value":512},{"deltaTime":20,"channel":7,"type":"pitchBend","value":384},{"deltaTime":20,"channel":7,"type":"pitchBend","value":256},{"deltaTime":20,"channel":7,"type":"pitchBend","value":128},{"deltaTime":20,"channel":7,"type":"pitchBend","value":0},{"deltaTime":0,"channel":7,"type":"pitchBend","value":0},{"deltaTime":320,"channel":7,"type":"pitchBend","value":0},{"deltaTime":0,"channel":7,"type":"pitchBend","value":0},{"deltaTime":0,"channel":7,"type":"noteOff","noteNumber":57,"velocity":95},{"deltaTime":2400,"channel":6,"type":"noteOn","noteNumber":60,"velocity":95},{"deltaTime":480,"channel":6,"type":"noteOff","noteNumber":60,"velocity":95},{"deltaTime":0,"channel":6,"type":"noteOn","noteNumber":64,"velocity":95},{"deltaTime":480,"channel":6,"type":"noteOff","noteNumber":64,"velocity":95},{"deltaTime":0,"channel":6,"type":"noteOn","noteNumber":62,"velocity":95},{"deltaTime":480,"channel":6,"type":"noteOff","noteNumber":62,"velocity":95},{"deltaTime":0,"channel":6,"type":"noteOn","noteNumber":60,"velocity":95},{"deltaTime":960,"channel":6,"type":"noteOff","noteNumber":60,"velocity":95},{"deltaTime":0,"channel":6,"type":"noteOn","noteNumber":64,"velocity":95},{"deltaTime":960,"channel":6,"type":"noteOff","noteNumber":64,"velocity":95},{"deltaTime":480,"channel":6,"type":"noteOn","noteNumber":64,"velocity":95},{"deltaTime":480,"channel":6,"type":"noteOff","noteNumber":64,"velocity":95},{"deltaTime":0,"channel":7,"type":"pitchBend","value":2048},{"deltaTime":0,"channel":7,"type":"noteOn","noteNumber":57,"velocity":95},{"deltaTime":320,"channel":7,"type":"pitchBend","value":2048},{"deltaTime":20,"channel":7,"type":"pitchBend","value":1920},{"deltaTime":20,"channel":7,"type":"pitchBend","value":1792},{"deltaTime":20,"channel":7,"type":"pitchBend","value":1664},{"deltaTime":20,"channel":7,"type":"pitchBend","value":1536},{"deltaTime":20,"channel":7,"type":"pitchBend","value":1408},{"deltaTime":20,"channel":7,"type":"pitchBend","value":1280},{"deltaTime":20,"channel":7,"type":"pitchBend","value":1152},{"deltaTime":20,"channel":7,"type":"pitchBend","value":1024},{"deltaTime":20,"channel":7,"type":"pitchBend","value":896},{"deltaTime":20,"channel":7,"type":"pitchBend","value":768},{"deltaTime":20,"channel":7,"type":"pitchBend","value":640},{"deltaTime":20,"channel":7,"type":"pitchBend","value":512},{"deltaTime":20,"channel":7,"type":"pitchBend","value":384},{"deltaTime":20,"channel":7,"type":"pitchBend","value":256},{"deltaTime":20,"channel":7,"type":"pitchBend","value":128},{"deltaTime":20,"channel":7,"type":"pitchBend","value":0},{"deltaTime":0,"channel":7,"type":"pitchBend","value":0},{"deltaTime":320,"channel":7,"type":"pitchBend","value":0},{"deltaTime":0,"channel":7,"type":"pitchBend","value":0},{"deltaTime":0,"channel":7,"type":"noteOff","noteNumber":57,"velocity":95},{"deltaTime":1920,"channel":6,"type":"noteOn","noteNumber":62,"velocity":95},{"deltaTime":480,"channel":6,"type":"noteOff","noteNumber":62,"velocity":95},{"deltaTime":0,"channel":6,"type":"noteOn","noteNumber":60,"velocity":95},{"deltaTime":480,"channel":6,"type":"noteOff","noteNumber":60,"velocity":95},{"deltaTime":480,"channel":6,"type":"noteOn","noteNumber":67,"velocity":95},{"deltaTime":960,"channel":6,"type":"noteOff","noteNumber":67,"velocity":95},{"deltaTime":0,"channel":6,"type":"noteOn","noteNumber":64,"velocity":95},{"deltaTime":480,"channel":6,"type":"noteOff","noteNumber":64,"velocity":95},{"deltaTime":0,"channel":6,"type":"noteOn","noteNumber":57,"velocity":95},{"deltaTime":960,"channel":6,"type":"noteOff","noteNumber":57,"velocity":95},{"deltaTime":0,"channel":6,"type":"noteOn","noteNumber":67,"velocity":95},{"deltaTime":960,"channel":6,"type":"noteOff","noteNumber":67,"velocity":95},{"deltaTime":0,"channel":7,"type":"pitchBend","value":2048},{"deltaTime":0,"channel":7,"type":"noteOn","noteNumber":57,"velocity":95},{"deltaTime":320,"channel":7,"type":"pitchBend","value":2048},{"deltaTime":20,"channel":7,"type":"pitchBend","value":1920},{"deltaTime":20,"channel":7,"type":"pitchBend","value":1792},{"deltaTime":20,"channel":7,"type":"pitchBend","value":1664},{"deltaTime":20,"channel":7,"type":"pitchBend","value":1536},{"deltaTime":20,"channel":7,"type":"pitchBend","value":1408},{"deltaTime":20,"channel":7,"type":"pitchBend","value":1280},{"deltaTime":20,"channel":7,"type":"pitchBend","value":1152},{"deltaTime":20,"channel":7,"type":"pitchBend","value":1024},{"deltaTime":20,"channel":7,"type":"pitchBend","value":896},{"deltaTime":20,"channel":7,"type":"pitchBend","value":768},{"deltaTime":20,"channel":7,"type":"pitchBend","value":640},{"deltaTime":20,"channel":7,"type":"pitchBend","value":512},{"deltaTime":20,"channel":7,"type":"pitchBend","value":384},{"deltaTime":20,"channel":7,"type":"pitchBend","value":256},{"deltaTime":20,"channel":7,"type":"pitchBend","value":128},{"deltaTime":20,"channel":7,"type":"pitchBend","value":0},{"deltaTime":0,"channel":7,"type":"pitchBend","value":0},{"deltaTime":320,"channel":7,"type":"pitchBend","value":0},{"deltaTime":0,"channel":7,"type":"pitchBend","value":0},{"deltaTime":0,"channel":7,"type":"noteOff","noteNumber":57,"velocity":95},{"deltaTime":1440,"channel":6,"type":"noteOn","noteNumber":64,"velocity":95},{"deltaTime":480,"channel":6,"type":"noteOff","noteNumber":64,"velocity":95},{"deltaTime":0,"channel":6,"type":"noteOn","noteNumber":64,"velocity":95},{"deltaTime":960,"channel":6,"type":"noteOff","noteNumber":64,"velocity":95},{"deltaTime":0,"channel":6,"type":"noteOn","noteNumber":67,"velocity":95},{"deltaTime":960,"channel":6,"type":"noteOff","noteNumber":67,"velocity":95},{"deltaTime":0,"channel":6,"type":"noteOn","noteNumber":64,"velocity":95},{"deltaTime":480,"channel":6,"type":"noteOff","noteNumber":64,"velocity":95},{"deltaTime":0,"channel":6,"type":"noteOn","noteNumber":64,"velocity":95},{"deltaTime":1440,"channel":6,"type":"noteOff","noteNumber":64,"velocity":95},{"deltaTime":0,"channel":7,"type":"noteOn","noteNumber":60,"velocity":95},{"deltaTime":480,"channel":7,"type":"noteOff","noteNumber":60,"velocity":95},{"deltaTime":0,"meta":true,"type":"endOfTrack"}],[{"deltaTime":0,"channel":9,"type":"pitchBend","value":0},{"deltaTime":0,"channel":9,"type":"controller","controllerType":7,"value":103},{"deltaTime":0,"channel":9,"type":"controller","controllerType":10,"value":63},{"deltaTime":0,"channel":9,"type":"controller","controllerType":93,"value":0},{"deltaTime":0,"channel":9,"type":"controller","controllerType":91,"value":0},{"deltaTime":0,"channel":9,"type":"controller","controllerType":95,"value":0},{"deltaTime":0,"channel":9,"type":"controller","controllerType":92,"value":0},{"deltaTime":0,"channel":9,"type":"controller","controllerType":11,"value":127},{"deltaTime":0,"channel":9,"type":"programChange","programNumber":0},{"deltaTime":46080,"channel":9,"type":"noteOn","noteNumber":59,"velocity":95},{"deltaTime":960,"channel":9,"type":"noteOff","noteNumber":59,"velocity":95},{"deltaTime":960,"channel":9,"type":"noteOn","noteNumber":59,"velocity":95},{"deltaTime":960,"channel":9,"type":"noteOff","noteNumber":59,"velocity":95},{"deltaTime":960,"channel":9,"type":"noteOn","noteNumber":59,"velocity":95},{"deltaTime":960,"channel":9,"type":"noteOff","noteNumber":59,"velocity":95},{"deltaTime":960,"channel":9,"type":"noteOn","noteNumber":59,"velocity":95},{"deltaTime":960,"channel":9,"type":"noteOff","noteNumber":59,"velocity":95},{"deltaTime":960,"channel":9,"type":"noteOn","noteNumber":59,"velocity":95},{"deltaTime":960,"channel":9,"type":"noteOff","noteNumber":59,"velocity":95},{"deltaTime":960,"channel":9,"type":"noteOn","noteNumber":59,"velocity":95},{"deltaTime":960,"channel":9,"type":"noteOff","noteNumber":59,"velocity":95},{"deltaTime":960,"channel":9,"type":"noteOn","noteNumber":59,"velocity":95},{"deltaTime":960,"channel":9,"type":"noteOff","noteNumber":59,"velocity":95},{"deltaTime":960,"channel":9,"type":"noteOn","noteNumber":59,"velocity":95},{"deltaTime":960,"channel":9,"type":"noteOff","noteNumber":59,"velocity":95},{"deltaTime":960,"channel":9,"type":"noteOn","noteNumber":36,"velocity":95},{"deltaTime":0,"channel":9,"type":"noteOn","noteNumber":59,"velocity":95},{"deltaTime":960,"channel":9,"type":"noteOff","noteNumber":36,"velocity":95},{"deltaTime":0,"channel":9,"type":"noteOff","noteNumber":59,"velocity":95},{"deltaTime":960,"channel":9,"type":"noteOn","noteNumber":36,"velocity":95},{"deltaTime":0,"channel":9,"type":"noteOn","noteNumber":59,"velocity":95},{"deltaTime":960,"channel":9,"type":"noteOff","noteNumber":36,"velocity":95},{"deltaTime":0,"channel":9,"type":"noteOff","noteNumber":59,"velocity":95},{"deltaTime":960,"channel":9,"type":"noteOn","noteNumber":36,"velocity":95},{"deltaTime":0,"channel":9,"type":"noteOn","noteNumber":59,"velocity":95},{"deltaTime":960,"channel":9,"type":"noteOff","noteNumber":36,"velocity":95},{"deltaTime":0,"channel":9,"type":"noteOff","noteNumber":59,"velocity":95},{"deltaTime":960,"channel":9,"type":"noteOn","noteNumber":36,"velocity":95},{"deltaTime":0,"channel":9,"type":"noteOn","noteNumber":59,"velocity":95},{"deltaTime":960,"channel":9,"type":"noteOff","noteNumber":36,"velocity":95},{"deltaTime":0,"channel":9,"type":"noteOff","noteNumber":59,"velocity":95},{"deltaTime":960,"channel":9,"type":"noteOn","noteNumber":36,"velocity":95},{"deltaTime":0,"channel":9,"type":"noteOn","noteNumber":59,"velocity":95},{"deltaTime":960,"channel":9,"type":"noteOff","noteNumber":36,"velocity":95},{"deltaTime":0,"channel":9,"type":"noteOff","noteNumber":59,"velocity":95},{"deltaTime":960,"channel":9,"type":"noteOn","noteNumber":36,"velocity":95},{"deltaTime":0,"channel":9,"type":"noteOn","noteNumber":59,"velocity":95},{"deltaTime":960,"channel":9,"type":"noteOff","noteNumber":36,"velocity":95},{"deltaTime":0,"channel":9,"type":"noteOff","noteNumber":59,"velocity":95},{"deltaTime":960,"channel":9,"type":"noteOn","noteNumber":36,"velocity":95},{"deltaTime":0,"channel":9,"type":"noteOn","noteNumber":59,"velocity":95},{"deltaTime":960,"channel":9,"type":"noteOff","noteNumber":36,"velocity":95},{"deltaTime":0,"channel":9,"type":"noteOff","noteNumber":59,"velocity":95},{"deltaTime":960,"channel":9,"type":"noteOn","noteNumber":36,"velocity":95},{"deltaTime":0,"channel":9,"type":"noteOn","noteNumber":59,"velocity":95},{"deltaTime":960,"channel":9,"type":"noteOff","noteNumber":36,"velocity":95},{"deltaTime":0,"channel":9,"type":"noteOff","noteNumber":59,"velocity":95},{"deltaTime":960,"channel":9,"type":"noteOn","noteNumber":36,"velocity":95},{"deltaTime":0,"channel":9,"type":"noteOn","noteNumber":59,"velocity":95},{"deltaTime":960,"channel":9,"type":"noteOff","noteNumber":36,"velocity":95},{"deltaTime":0,"channel":9,"type":"noteOff","noteNumber":59,"velocity":95},{"deltaTime":960,"channel":9,"type":"noteOn","noteNumber":36,"velocity":95},{"deltaTime":0,"channel":9,"type":"noteOn","noteNumber":59,"velocity":95},{"deltaTime":960,"channel":9,"type":"noteOff","noteNumber":36,"velocity":95},{"deltaTime":0,"channel":9,"type":"noteOff","noteNumber":59,"velocity":95},{"deltaTime":960,"channel":9,"type":"noteOn","noteNumber":36,"velocity":95},{"deltaTime":0,"channel":9,"type":"noteOn","noteNumber":59,"velocity":95},{"deltaTime":960,"channel":9,"type":"noteOff","noteNumber":36,"velocity":95},{"deltaTime":0,"channel":9,"type":"noteOff","noteNumber":59,"velocity":95},{"deltaTime":960,"channel":9,"type":"noteOn","noteNumber":36,"velocity":95},{"deltaTime":0,"channel":9,"type":"noteOn","noteNumber":59,"velocity":95},{"deltaTime":960,"channel":9,"type":"noteOff","noteNumber":36,"velocity":95},{"deltaTime":0,"channel":9,"type":"noteOff","noteNumber":59,"velocity":95},{"deltaTime":960,"channel":9,"type":"noteOn","noteNumber":36,"velocity":95},{"deltaTime":0,"channel":9,"type":"noteOn","noteNumber":59,"velocity":95},{"deltaTime":960,"channel":9,"type":"noteOff","noteNumber":36,"velocity":95},{"deltaTime":0,"channel":9,"type":"noteOff","noteNumber":59,"velocity":95},{"deltaTime":960,"channel":9,"type":"noteOn","noteNumber":36,"velocity":95},{"deltaTime":0,"channel":9,"type":"noteOn","noteNumber":59,"velocity":95},{"deltaTime":960,"channel":9,"type":"noteOff","noteNumber":36,"velocity":95},{"deltaTime":0,"channel":9,"type":"noteOff","noteNumber":59,"velocity":95},{"deltaTime":960,"channel":9,"type":"noteOn","noteNumber":42,"velocity":95},{"deltaTime":0,"channel":9,"type":"noteOn","noteNumber":36,"velocity":95},{"deltaTime":480,"channel":9,"type":"noteOff","noteNumber":42,"velocity":95},{"deltaTime":0,"channel":9,"type":"noteOff","noteNumber":36,"velocity":95},{"deltaTime":0,"channel":9,"type":"noteOn","noteNumber":38,"velocity":95},{"deltaTime":0,"channel":9,"type":"noteOn","noteNumber":59,"velocity":95},{"deltaTime":480,"channel":9,"type":"noteOff","noteNumber":38,"velocity":95},{"deltaTime":0,"channel":9,"type":"noteOff","noteNumber":59,"velocity":95},{"deltaTime":0,"channel":9,"type":"noteOn","noteNumber":42,"velocity":95},{"deltaTime":0,"channel":9,"type":"noteOn","noteNumber":36,"velocity":95},{"deltaTime":480,"channel":9,"type":"noteOff","noteNumber":42,"velocity":95},{"deltaTime":0,"channel":9,"type":"noteOff","noteNumber":36,"velocity":95},{"deltaTime":0,"channel":9,"type":"noteOn","noteNumber":38,"velocity":95},{"deltaTime":0,"channel":9,"type":"noteOn","noteNumber":59,"velocity":95},{"deltaTime":480,"channel":9,"type":"noteOff","noteNumber":38,"velocity":95},{"deltaTime":0,"channel":9,"type":"noteOff","noteNumber":59,"velocity":95},{"deltaTime":0,"channel":9,"type":"noteOn","noteNumber":42,"velocity":95},{"deltaTime":0,"channel":9,"type":"noteOn","noteNumber":36,"velocity":95},{"deltaTime":480,"channel":9,"type":"noteOff","noteNumber":42,"velocity":95},{"deltaTime":0,"channel":9,"type":"noteOff","noteNumber":36,"velocity":95},{"deltaTime":0,"channel":9,"type":"noteOn","noteNumber":38,"velocity":95},{"deltaTime":0,"channel":9,"type":"noteOn","noteNumber":59,"velocity":95},{"deltaTime":480,"channel":9,"type":"noteOff","noteNumber":38,"velocity":95},{"deltaTime":0,"channel":9,"type":"noteOff","noteNumber":59,"velocity":95},{"deltaTime":0,"channel":9,"type":"noteOn","noteNumber":42,"velocity":95},{"deltaTime":0,"channel":9,"type":"noteOn","noteNumber":36,"velocity":95},{"deltaTime":480,"channel":9,"type":"noteOff","noteNumber":42,"velocity":95},{"deltaTime":0,"channel":9,"type":"noteOff","noteNumber":36,"velocity":95},{"deltaTime":0,"channel":9,"type":"noteOn","noteNumber":38,"velocity":95},{"deltaTime":0,"channel":9,"type":"noteOn","noteNumber":59,"velocity":95},{"deltaTime":480,"channel":9,"type":"noteOff","noteNumber":38,"velocity":95},{"deltaTime":0,"channel":9,"type":"noteOff","noteNumber":59,"velocity":95},{"deltaTime":0,"channel":9,"type":"noteOn","noteNumber":42,"velocity":95},{"deltaTime":0,"channel":9,"type":"noteOn","noteNumber":36,"velocity":95},{"deltaTime":480,"channel":9,"type":"noteOff","noteNumber":42,"velocity":95},{"deltaTime":0,"channel":9,"type":"noteOff","noteNumber":36,"velocity":95},{"deltaTime":0,"channel":9,"type":"noteOn","noteNumber":42,"velocity":95},{"deltaTime":480,"channel":9,"type":"noteOff","noteNumber":42,"velocity":95},{"deltaTime":0,"channel":9,"type":"noteOn","noteNumber":38,"velocity":95},{"deltaTime":0,"channel":9,"type":"noteOn","noteNumber":59,"velocity":95},{"deltaTime":480,"channel":9,"type":"noteOff","noteNumber":38,"velocity":95},{"deltaTime":0,"channel":9,"type":"noteOff","noteNumber":59,"velocity":95},{"deltaTime":0,"channel":9,"type":"noteOn","noteNumber":42,"velocity":95},{"deltaTime":480,"channel":9,"type":"noteOff","noteNumber":42,"velocity":95},{"deltaTime":0,"channel":9,"type":"noteOn","noteNumber":42,"velocity":95},{"deltaTime":0,"channel":9,"type":"noteOn","noteNumber":36,"velocity":95},{"deltaTime":480,"channel":9,"type":"noteOff","noteNumber":42,"velocity":95},{"deltaTime":0,"channel":9,"type":"noteOff","noteNumber":36,"velocity":95},{"deltaTime":0,"channel":9,"type":"noteOn","noteNumber":42,"velocity":95},{"deltaTime":480,"channel":9,"type":"noteOff","noteNumber":42,"velocity":95},{"deltaTime":0,"channel":9,"type":"noteOn","noteNumber":38,"velocity":95},{"deltaTime":0,"channel":9,"type":"noteOn","noteNumber":59,"velocity":95},{"deltaTime":480,"channel":9,"type":"noteOff","noteNumber":38,"velocity":95},{"deltaTime":0,"channel":9,"type":"noteOff","noteNumber":59,"velocity":95},{"deltaTime":0,"channel":9,"type":"noteOn","noteNumber":42,"velocity":95},{"deltaTime":480,"channel":9,"type":"noteOff","noteNumber":42,"velocity":95},{"deltaTime":0,"channel":9,"type":"noteOn","noteNumber":42,"velocity":95},{"deltaTime":0,"channel":9,"type":"noteOn","noteNumber":36,"velocity":95},{"deltaTime":480,"channel":9,"type":"noteOff","noteNumber":42,"velocity":95},{"deltaTime":0,"channel":9,"type":"noteOff","noteNumber":36,"velocity":95},{"deltaTime":0,"channel":9,"type":"noteOn","noteNumber":42,"velocity":95},{"deltaTime":480,"channel":9,"type":"noteOff","noteNumber":42,"velocity":95},{"deltaTime":0,"channel":9,"type":"noteOn","noteNumber":38,"velocity":95},{"deltaTime":0,"channel":9,"type":"noteOn","noteNumber":59,"velocity":95},{"deltaTime":480,"channel":9,"type":"noteOff","noteNumber":38,"velocity":95},{"deltaTime":0,"channel":9,"type":"noteOff","noteNumber":59,"velocity":95},{"deltaTime":0,"channel":9,"type":"noteOn","noteNumber":42,"velocity":95},{"deltaTime":480,"channel":9,"type":"noteOff","noteNumber":42,"velocity":95},{"deltaTime":0,"channel":9,"type":"noteOn","noteNumber":42,"velocity":95},{"deltaTime":0,"channel":9,"type":"noteOn","noteNumber":36,"velocity":95},{"deltaTime":480,"channel":9,"type":"noteOff","noteNumber":42,"velocity":95},{"deltaTime":0,"channel":9,"type":"noteOff","noteNumber":36,"velocity":95},{"deltaTime":0,"channel":9,"type":"noteOn","noteNumber":42,"velocity":95},{"deltaTime":480,"channel":9,"type":"noteOff","noteNumber":42,"velocity":95},{"deltaTime":0,"channel":9,"type":"noteOn","noteNumber":38,"velocity":95},{"deltaTime":0,"channel":9,"type":"noteOn","noteNumber":59,"velocity":95},{"deltaTime":480,"channel":9,"type":"noteOff","noteNumber":38,"velocity":95},{"deltaTime":0,"channel":9,"type":"noteOff","noteNumber":59,"velocity":95},{"deltaTime":0,"channel":9,"type":"noteOn","noteNumber":42,"velocity":95},{"deltaTime":480,"channel":9,"type":"noteOff","noteNumber":42,"velocity":95},{"deltaTime":0,"channel":9,"type":"noteOn","noteNumber":42,"velocity":95},{"deltaTime":0,"channel":9,"type":"noteOn","noteNumber":36,"velocity":95},{"deltaTime":480,"channel":9,"type":"noteOff","noteNumber":42,"velocity":95},{"deltaTime":0,"channel":9,"type":"noteOff","noteNumber":36,"velocity":95},{"deltaTime":0,"channel":9,"type":"noteOn","noteNumber":42,"velocity":95},{"deltaTime":480,"channel":9,"type":"noteOff","noteNumber":42,"velocity":95},{"deltaTime":0,"channel":9,"type":"noteOn","noteNumber":38,"velocity":95},{"deltaTime":0,"channel":9,"type":"noteOn","noteNumber":59,"velocity":95},{"deltaTime":480,"channel":9,"type":"noteOff","noteNumber":38,"velocity":95},{"deltaTime":0,"channel":9,"type":"noteOff","noteNumber":59,"velocity":95},{"deltaTime":0,"channel":9,"type":"noteOn","noteNumber":42,"velocity":95},{"deltaTime":480,"channel":9,"type":"noteOff","noteNumber":42,"velocity":95},{"deltaTime":0,"channel":9,"type":"noteOn","noteNumber":42,"velocity":95},{"deltaTime":0,"channel":9,"type":"noteOn","noteNumber":36,"velocity":95},{"deltaTime":480,"channel":9,"type":"noteOff","noteNumber":42,"velocity":95},{"deltaTime":0,"channel":9,"type":"noteOff","noteNumber":36,"velocity":95},{"deltaTime":0,"channel":9,"type":"noteOn","noteNumber":42,"velocity":95},{"deltaTime":480,"channel":9,"type":"noteOff","noteNumber":42,"velocity":95},{"deltaTime":0,"channel":9,"type":"noteOn","noteNumber":38,"velocity":95},{"deltaTime":0,"channel":9,"type":"noteOn","noteNumber":59,"velocity":95},{"deltaTime":480,"channel":9,"type":"noteOff","noteNumber":38,"velocity":95},{"deltaTime":0,"channel":9,"type":"noteOff","noteNumber":59,"velocity":95},{"deltaTime":0,"channel":9,"type":"noteOn","noteNumber":42,"velocity":95},{"deltaTime":480,"channel":9,"type":"noteOff","noteNumber":42,"velocity":95},{"deltaTime":0,"channel":9,"type":"noteOn","noteNumber":42,"velocity":95},{"deltaTime":0,"channel":9,"type":"noteOn","noteNumber":36,"velocity":95},{"deltaTime":480,"channel":9,"type":"noteOff","noteNumber":42,"velocity":95},{"deltaTime":0,"channel":9,"type":"noteOff","noteNumber":36,"velocity":95},{"deltaTime":0,"channel":9,"type":"noteOn","noteNumber":42,"velocity":95},{"deltaTime":480,"channel":9,"type":"noteOff","noteNumber":42,"velocity":95},{"deltaTime":0,"channel":9,"type":"noteOn","noteNumber":38,"velocity":95},{"deltaTime":0,"channel":9,"type":"noteOn","noteNumber":59,"velocity":95},{"deltaTime":480,"channel":9,"type":"noteOff","noteNumber":38,"velocity":95},{"deltaTime":0,"channel":9,"type":"noteOff","noteNumber":59,"velocity":95},{"deltaTime":0,"channel":9,"type":"noteOn","noteNumber":42,"velocity":95},{"deltaTime":480,"channel":9,"type":"noteOff","noteNumber":42,"velocity":95},{"deltaTime":0,"channel":9,"type":"noteOn","noteNumber":36,"velocity":95},{"deltaTime":480,"channel":9,"type":"noteOff","noteNumber":36,"velocity":95},{"deltaTime":0,"channel":9,"type":"noteOn","noteNumber":38,"velocity":95},{"deltaTime":480,"channel":9,"type":"noteOff","noteNumber":38,"velocity":95},{"deltaTime":0,"channel":9,"type":"noteOn","noteNumber":36,"velocity":95},{"deltaTime":480,"channel":9,"type":"noteOff","noteNumber":36,"velocity":95},{"deltaTime":0,"channel":9,"type":"noteOn","noteNumber":38,"velocity":95},{"deltaTime":0,"channel":9,"type":"noteOn","noteNumber":59,"velocity":95},{"deltaTime":480,"channel":9,"type":"noteOff","noteNumber":38,"velocity":95},{"deltaTime":0,"channel":9,"type":"noteOff","noteNumber":59,"velocity":95},{"deltaTime":0,"channel":9,"type":"noteOn","noteNumber":42,"velocity":95},{"deltaTime":0,"channel":9,"type":"noteOn","noteNumber":36,"velocity":95},{"deltaTime":480,"channel":9,"type":"noteOff","noteNumber":42,"velocity":95},{"deltaTime":0,"channel":9,"type":"noteOff","noteNumber":36,"velocity":95},{"deltaTime":0,"channel":9,"type":"noteOn","noteNumber":42,"velocity":95},{"deltaTime":480,"channel":9,"type":"noteOff","noteNumber":42,"velocity":95},{"deltaTime":0,"channel":9,"type":"noteOn","noteNumber":38,"velocity":95},{"deltaTime":0,"channel":9,"type":"noteOn","noteNumber":59,"velocity":95},{"deltaTime":480,"channel":9,"type":"noteOff","noteNumber":38,"velocity":95},{"deltaTime":0,"channel":9,"type":"noteOff","noteNumber":59,"velocity":95},{"deltaTime":0,"channel":9,"type":"noteOn","noteNumber":42,"velocity":95},{"deltaTime":480,"channel":9,"type":"noteOff","noteNumber":42,"velocity":95},{"deltaTime":0,"channel":9,"type":"noteOn","noteNumber":42,"velocity":95},{"deltaTime":0,"channel":9,"type":"noteOn","noteNumber":36,"velocity":95},{"deltaTime":480,"channel":9,"type":"noteOff","noteNumber":42,"velocity":95},{"deltaTime":0,"channel":9,"type":"noteOff","noteNumber":36,"velocity":95},{"deltaTime":0,"channel":9,"type":"noteOn","noteNumber":42,"velocity":95},{"deltaTime":480,"channel":9,"type":"noteOff","noteNumber":42,"velocity":95},{"deltaTime":0,"channel":9,"type":"noteOn","noteNumber":38,"velocity":95},{"deltaTime":0,"channel":9,"type":"noteOn","noteNumber":59,"velocity":95},{"deltaTime":480,"channel":9,"type":"noteOff","noteNumber":38,"velocity":95},{"deltaTime":0,"channel":9,"type":"noteOff","noteNumber":59,"velocity":95},{"deltaTime":0,"channel":9,"type":"noteOn","noteNumber":42,"velocity":95},{"deltaTime":480,"channel":9,"type":"noteOff","noteNumber":42,"velocity":95},{"deltaTime":0,"channel":9,"type":"noteOn","noteNumber":42,"velocity":95},{"deltaTime":0,"channel":9,"type":"noteOn","noteNumber":36,"velocity":95},{"deltaTime":480,"channel":9,"type":"noteOff","noteNumber":42,"velocity":95},{"deltaTime":0,"channel":9,"type":"noteOff","noteNumber":36,"velocity":95},{"deltaTime":0,"channel":9,"type":"noteOn","noteNumber":42,"velocity":95},{"deltaTime":480,"channel":9,"type":"noteOff","noteNumber":42,"velocity":95},{"deltaTime":0,"channel":9,"type":"noteOn","noteNumber":38,"velocity":95},{"deltaTime":0,"channel":9,"type":"noteOn","noteNumber":59,"velocity":95},{"deltaTime":480,"channel":9,"type":"noteOff","noteNumber":38,"velocity":95},{"deltaTime":0,"channel":9,"type":"noteOff","noteNumber":59,"velocity":95},{"deltaTime":0,"channel":9,"type":"noteOn","noteNumber":42,"velocity":95},{"deltaTime":480,"channel":9,"type":"noteOff","noteNumber":42,"velocity":95},{"deltaTime":0,"channel":9,"type":"noteOn","noteNumber":42,"velocity":95},{"deltaTime":0,"channel":9,"type":"noteOn","noteNumber":36,"velocity":95},{"deltaTime":480,"channel":9,"type":"noteOff","noteNumber":42,"velocity":95},{"deltaTime":0,"channel":9,"type":"noteOff","noteNumber":36,"velocity":95},{"deltaTime":0,"channel":9,"type":"noteOn","noteNumber":42,"velocity":95},{"deltaTime":480,"channel":9,"type":"noteOff","noteNumber":42,"velocity":95},{"deltaTime":0,"channel":9,"type":"noteOn","noteNumber":38,"velocity":95},{"deltaTime":0,"channel":9,"type":"noteOn","noteNumber":59,"velocity":95},{"deltaTime":480,"channel":9,"type":"noteOff","noteNumber":38,"velocity":95},{"deltaTime":0,"channel":9,"type":"noteOff","noteNumber":59,"velocity":95},{"deltaTime":0,"channel":9,"type":"noteOn","noteNumber":42,"velocity":95},{"deltaTime":480,"channel":9,"type":"noteOff","noteNumber":42,"velocity":95},{"deltaTime":0,"channel":9,"type":"noteOn","noteNumber":42,"velocity":95},{"deltaTime":0,"channel":9,"type":"noteOn","noteNumber":36,"velocity":95},{"deltaTime":480,"channel":9,"type":"noteOff","noteNumber":42,"velocity":95},{"deltaTime":0,"channel":9,"type":"noteOff","noteNumber":36,"velocity":95},{"deltaTime":0,"channel":9,"type":"noteOn","noteNumber":42,"velocity":95},{"deltaTime":480,"channel":9,"type":"noteOff","noteNumber":42,"velocity":95},{"deltaTime":0,"channel":9,"type":"noteOn","noteNumber":38,"velocity":95},{"deltaTime":0,"channel":9,"type":"noteOn","noteNumber":59,"velocity":95},{"deltaTime":480,"channel":9,"type":"noteOff","noteNumber":38,"velocity":95},{"deltaTime":0,"channel":9,"type":"noteOff","noteNumber":59,"velocity":95},{"deltaTime":0,"channel":9,"type":"noteOn","noteNumber":42,"velocity":95},{"deltaTime":480,"channel":9,"type":"noteOff","noteNumber":42,"velocity":95},{"deltaTime":0,"channel":9,"type":"noteOn","noteNumber":42,"velocity":95},{"deltaTime":0,"channel":9,"type":"noteOn","noteNumber":36,"velocity":95},{"deltaTime":480,"channel":9,"type":"noteOff","noteNumber":42,"velocity":95},{"deltaTime":0,"channel":9,"type":"noteOff","noteNumber":36,"velocity":95},{"deltaTime":0,"channel":9,"type":"noteOn","noteNumber":42,"velocity":95},{"deltaTime":480,"channel":9,"type":"noteOff","noteNumber":42,"velocity":95},{"deltaTime":0,"channel":9,"type":"noteOn","noteNumber":38,"velocity":95},{"deltaTime":0,"channel":9,"type":"noteOn","noteNumber":59,"velocity":95},{"deltaTime":480,"channel":9,"type":"noteOff","noteNumber":38,"velocity":95},{"deltaTime":0,"channel":9,"type":"noteOff","noteNumber":59,"velocity":95},{"deltaTime":0,"channel":9,"type":"noteOn","noteNumber":42,"velocity":95},{"deltaTime":480,"channel":9,"type":"noteOff","noteNumber":42,"velocity":95},{"deltaTime":0,"channel":9,"type":"noteOn","noteNumber":42,"velocity":95},{"deltaTime":0,"channel":9,"type":"noteOn","noteNumber":36,"velocity":95},{"deltaTime":480,"channel":9,"type":"noteOff","noteNumber":42,"velocity":95},{"deltaTime":0,"channel":9,"type":"noteOff","noteNumber":36,"velocity":95},{"deltaTime":0,"channel":9,"type":"noteOn","noteNumber":42,"velocity":95},{"deltaTime":480,"channel":9,"type":"noteOff","noteNumber":42,"velocity":95},{"deltaTime":0,"channel":9,"type":"noteOn","noteNumber":38,"velocity":95},{"deltaTime":0,"channel":9,"type":"noteOn","noteNumber":59,"velocity":95},{"deltaTime":480,"channel":9,"type":"noteOff","noteNumber":38,"velocity":95},{"deltaTime":0,"channel":9,"type":"noteOff","noteNumber":59,"velocity":95},{"deltaTime":0,"channel":9,"type":"noteOn","noteNumber":42,"velocity":95},{"deltaTime":480,"channel":9,"type":"noteOff","noteNumber":42,"velocity":95},{"deltaTime":0,"channel":9,"type":"noteOn","noteNumber":36,"velocity":95},{"deltaTime":480,"channel":9,"type":"noteOff","noteNumber":36,"velocity":95},{"deltaTime":0,"channel":9,"type":"noteOn","noteNumber":38,"velocity":95},{"deltaTime":480,"channel":9,"type":"noteOff","noteNumber":38,"velocity":95},{"deltaTime":0,"channel":9,"type":"noteOn","noteNumber":36,"velocity":95},{"deltaTime":480,"channel":9,"type":"noteOff","noteNumber":36,"velocity":95},{"deltaTime":0,"channel":9,"type":"noteOn","noteNumber":38,"velocity":95},{"deltaTime":0,"channel":9,"type":"noteOn","noteNumber":59,"velocity":95},{"deltaTime":480,"channel":9,"type":"noteOff","noteNumber":38,"velocity":95},{"deltaTime":0,"channel":9,"type":"noteOff","noteNumber":59,"velocity":95},{"deltaTime":0,"channel":9,"type":"noteOn","noteNumber":42,"velocity":95},{"deltaTime":0,"channel":9,"type":"noteOn","noteNumber":36,"velocity":95},{"deltaTime":480,"channel":9,"type":"noteOff","noteNumber":42,"velocity":95},{"deltaTime":0,"channel":9,"type":"noteOff","noteNumber":36,"velocity":95},{"deltaTime":0,"channel":9,"type":"noteOn","noteNumber":42,"velocity":95},{"deltaTime":480,"channel":9,"type":"noteOff","noteNumber":42,"velocity":95},{"deltaTime":0,"channel":9,"type":"noteOn","noteNumber":42,"velocity":95},{"deltaTime":0,"channel":9,"type":"noteOn","noteNumber":38,"velocity":95},{"deltaTime":480,"channel":9,"type":"noteOff","noteNumber":42,"velocity":95},{"deltaTime":0,"channel":9,"type":"noteOff","noteNumber":38,"velocity":95},{"deltaTime":0,"channel":9,"type":"noteOn","noteNumber":42,"velocity":95},{"deltaTime":480,"channel":9,"type":"noteOff","noteNumber":42,"velocity":95},{"deltaTime":0,"channel":9,"type":"noteOn","noteNumber":42,"velocity":95},{"deltaTime":0,"channel":9,"type":"noteOn","noteNumber":36,"velocity":95},{"deltaTime":480,"channel":9,"type":"noteOff","noteNumber":42,"velocity":95},{"deltaTime":0,"channel":9,"type":"noteOff","noteNumber":36,"velocity":95},{"deltaTime":0,"channel":9,"type":"noteOn","noteNumber":42,"velocity":95},{"deltaTime":480,"channel":9,"type":"noteOff","noteNumber":42,"velocity":95},{"deltaTime":0,"channel":9,"type":"noteOn","noteNumber":42,"velocity":95},{"deltaTime":0,"channel":9,"type":"noteOn","noteNumber":38,"velocity":95},{"deltaTime":480,"channel":9,"type":"noteOff","noteNumber":42,"velocity":95},{"deltaTime":0,"channel":9,"type":"noteOff","noteNumber":38,"velocity":95},{"deltaTime":0,"channel":9,"type":"noteOn","noteNumber":42,"velocity":95},{"deltaTime":480,"channel":9,"type":"noteOff","noteNumber":42,"velocity":95},{"deltaTime":0,"channel":9,"type":"noteOn","noteNumber":42,"velocity":95},{"deltaTime":0,"channel":9,"type":"noteOn","noteNumber":36,"velocity":95},{"deltaTime":480,"channel":9,"type":"noteOff","noteNumber":42,"velocity":95},{"deltaTime":0,"channel":9,"type":"noteOff","noteNumber":36,"velocity":95},{"deltaTime":0,"channel":9,"type":"noteOn","noteNumber":42,"velocity":95},{"deltaTime":480,"channel":9,"type":"noteOff","noteNumber":42,"velocity":95},{"deltaTime":0,"channel":9,"type":"noteOn","noteNumber":42,"velocity":95},{"deltaTime":0,"channel":9,"type":"noteOn","noteNumber":38,"velocity":95},{"deltaTime":480,"channel":9,"type":"noteOff","noteNumber":42,"velocity":95},{"deltaTime":0,"channel":9,"type":"noteOff","noteNumber":38,"velocity":95},{"deltaTime":0,"channel":9,"type":"noteOn","noteNumber":42,"velocity":95},{"deltaTime":480,"channel":9,"type":"noteOff","noteNumber":42,"velocity":95},{"deltaTime":0,"channel":9,"type":"noteOn","noteNumber":36,"velocity":95},{"deltaTime":0,"channel":9,"type":"noteOn","noteNumber":59,"velocity":95},{"deltaTime":480,"channel":9,"type":"noteOff","noteNumber":36,"velocity":95},{"deltaTime":0,"channel":9,"type":"noteOff","noteNumber":59,"velocity":95},{"deltaTime":0,"channel":9,"type":"noteOn","noteNumber":42,"velocity":95},{"deltaTime":480,"channel":9,"type":"noteOff","noteNumber":42,"velocity":95},{"deltaTime":0,"channel":9,"type":"noteOn","noteNumber":42,"velocity":95},{"deltaTime":0,"channel":9,"type":"noteOn","noteNumber":38,"velocity":95},{"deltaTime":480,"channel":9,"type":"noteOff","noteNumber":42,"velocity":95},{"deltaTime":0,"channel":9,"type":"noteOff","noteNumber":38,"velocity":95},{"deltaTime":0,"channel":9,"type":"noteOn","noteNumber":42,"velocity":95},{"deltaTime":480,"channel":9,"type":"noteOff","noteNumber":42,"velocity":95},{"deltaTime":0,"channel":9,"type":"noteOn","noteNumber":36,"velocity":95},{"deltaTime":0,"channel":9,"type":"noteOn","noteNumber":59,"velocity":95},{"deltaTime":480,"channel":9,"type":"noteOff","noteNumber":36,"velocity":95},{"deltaTime":0,"channel":9,"type":"noteOff","noteNumber":59,"velocity":95},{"deltaTime":0,"channel":9,"type":"noteOn","noteNumber":42,"velocity":95},{"deltaTime":480,"channel":9,"type":"noteOff","noteNumber":42,"velocity":95},{"deltaTime":0,"channel":9,"type":"noteOn","noteNumber":42,"velocity":95},{"deltaTime":0,"channel":9,"type":"noteOn","noteNumber":38,"velocity":95},{"deltaTime":480,"channel":9,"type":"noteOff","noteNumber":42,"velocity":95},{"deltaTime":0,"channel":9,"type":"noteOff","noteNumber":38,"velocity":95},{"deltaTime":0,"channel":9,"type":"noteOn","noteNumber":42,"velocity":95},{"deltaTime":480,"channel":9,"type":"noteOff","noteNumber":42,"velocity":95},{"deltaTime":0,"channel":9,"type":"noteOn","noteNumber":42,"velocity":95},{"deltaTime":0,"channel":9,"type":"noteOn","noteNumber":36,"velocity":95},{"deltaTime":480,"channel":9,"type":"noteOff","noteNumber":42,"velocity":95},{"deltaTime":0,"channel":9,"type":"noteOff","noteNumber":36,"velocity":95},{"deltaTime":0,"channel":9,"type":"noteOn","noteNumber":42,"velocity":95},{"deltaTime":480,"channel":9,"type":"noteOff","noteNumber":42,"velocity":95},{"deltaTime":0,"channel":9,"type":"noteOn","noteNumber":42,"velocity":95},{"deltaTime":0,"channel":9,"type":"noteOn","noteNumber":38,"velocity":95},{"deltaTime":480,"channel":9,"type":"noteOff","noteNumber":42,"velocity":95},{"deltaTime":0,"channel":9,"type":"noteOff","noteNumber":38,"velocity":95},{"deltaTime":0,"channel":9,"type":"noteOn","noteNumber":42,"velocity":95},{"deltaTime":480,"channel":9,"type":"noteOff","noteNumber":42,"velocity":95},{"deltaTime":0,"channel":9,"type":"noteOn","noteNumber":42,"velocity":95},{"deltaTime":0,"channel":9,"type":"noteOn","noteNumber":36,"velocity":95},{"deltaTime":480,"channel":9,"type":"noteOff","noteNumber":42,"velocity":95},{"deltaTime":0,"channel":9,"type":"noteOff","noteNumber":36,"velocity":95},{"deltaTime":0,"channel":9,"type":"noteOn","noteNumber":42,"velocity":95},{"deltaTime":480,"channel":9,"type":"noteOff","noteNumber":42,"velocity":95},{"deltaTime":0,"channel":9,"type":"noteOn","noteNumber":42,"velocity":95},{"deltaTime":0,"channel":9,"type":"noteOn","noteNumber":38,"velocity":95},{"deltaTime":480,"channel":9,"type":"noteOff","noteNumber":42,"velocity":95},{"deltaTime":0,"channel":9,"type":"noteOff","noteNumber":38,"velocity":95},{"deltaTime":0,"channel":9,"type":"noteOn","noteNumber":42,"velocity":95},{"deltaTime":480,"channel":9,"type":"noteOff","noteNumber":42,"velocity":95},{"deltaTime":0,"channel":9,"type":"noteOn","noteNumber":36,"velocity":95},{"deltaTime":0,"channel":9,"type":"noteOn","noteNumber":59,"velocity":95},{"deltaTime":480,"channel":9,"type":"noteOff","noteNumber":36,"velocity":95},{"deltaTime":0,"channel":9,"type":"noteOff","noteNumber":59,"velocity":95},{"deltaTime":0,"channel":9,"type":"noteOn","noteNumber":42,"velocity":95},{"deltaTime":480,"channel":9,"type":"noteOff","noteNumber":42,"velocity":95},{"deltaTime":0,"channel":9,"type":"noteOn","noteNumber":42,"velocity":95},{"deltaTime":0,"channel":9,"type":"noteOn","noteNumber":38,"velocity":95},{"deltaTime":480,"channel":9,"type":"noteOff","noteNumber":42,"velocity":95},{"deltaTime":0,"channel":9,"type":"noteOff","noteNumber":38,"velocity":95},{"deltaTime":0,"channel":9,"type":"noteOn","noteNumber":42,"velocity":95},{"deltaTime":480,"channel":9,"type":"noteOff","noteNumber":42,"velocity":95},{"deltaTime":0,"channel":9,"type":"noteOn","noteNumber":36,"velocity":95},{"deltaTime":0,"channel":9,"type":"noteOn","noteNumber":59,"velocity":95},{"deltaTime":480,"channel":9,"type":"noteOff","noteNumber":36,"velocity":95},{"deltaTime":0,"channel":9,"type":"noteOff","noteNumber":59,"velocity":95},{"deltaTime":0,"channel":9,"type":"noteOn","noteNumber":42,"velocity":95},{"deltaTime":480,"channel":9,"type":"noteOff","noteNumber":42,"velocity":95},{"deltaTime":0,"channel":9,"type":"noteOn","noteNumber":42,"velocity":95},{"deltaTime":0,"channel":9,"type":"noteOn","noteNumber":38,"velocity":95},{"deltaTime":480,"channel":9,"type":"noteOff","noteNumber":42,"velocity":95},{"deltaTime":0,"channel":9,"type":"noteOff","noteNumber":38,"velocity":95},{"deltaTime":0,"channel":9,"type":"noteOn","noteNumber":42,"velocity":95},{"deltaTime":480,"channel":9,"type":"noteOff","noteNumber":42,"velocity":95},{"deltaTime":0,"channel":9,"type":"noteOn","noteNumber":42,"velocity":95},{"deltaTime":0,"channel":9,"type":"noteOn","noteNumber":36,"velocity":95},{"deltaTime":480,"channel":9,"type":"noteOff","noteNumber":42,"velocity":95},{"deltaTime":0,"channel":9,"type":"noteOff","noteNumber":36,"velocity":95},{"deltaTime":0,"channel":9,"type":"noteOn","noteNumber":42,"velocity":95},{"deltaTime":480,"channel":9,"type":"noteOff","noteNumber":42,"velocity":95},{"deltaTime":0,"channel":9,"type":"noteOn","noteNumber":42,"velocity":95},{"deltaTime":0,"channel":9,"type":"noteOn","noteNumber":38,"velocity":95},{"deltaTime":480,"channel":9,"type":"noteOff","noteNumber":42,"velocity":95},{"deltaTime":0,"channel":9,"type":"noteOff","noteNumber":38,"velocity":95},{"deltaTime":0,"channel":9,"type":"noteOn","noteNumber":42,"velocity":95},{"deltaTime":480,"channel":9,"type":"noteOff","noteNumber":42,"velocity":95},{"deltaTime":0,"channel":9,"type":"noteOn","noteNumber":42,"velocity":95},{"deltaTime":0,"channel":9,"type":"noteOn","noteNumber":36,"velocity":95},{"deltaTime":480,"channel":9,"type":"noteOff","noteNumber":42,"velocity":95},{"deltaTime":0,"channel":9,"type":"noteOff","noteNumber":36,"velocity":95},{"deltaTime":0,"channel":9,"type":"noteOn","noteNumber":42,"velocity":95},{"deltaTime":480,"channel":9,"type":"noteOff","noteNumber":42,"velocity":95},{"deltaTime":0,"channel":9,"type":"noteOn","noteNumber":42,"velocity":95},{"deltaTime":0,"channel":9,"type":"noteOn","noteNumber":38,"velocity":95},{"deltaTime":480,"channel":9,"type":"noteOff","noteNumber":42,"velocity":95},{"deltaTime":0,"channel":9,"type":"noteOff","noteNumber":38,"velocity":95},{"deltaTime":0,"channel":9,"type":"noteOn","noteNumber":42,"velocity":95},{"deltaTime":480,"channel":9,"type":"noteOff","noteNumber":42,"velocity":95},{"deltaTime":0,"channel":9,"type":"noteOn","noteNumber":42,"velocity":95},{"deltaTime":0,"channel":9,"type":"noteOn","noteNumber":36,"velocity":95},{"deltaTime":480,"channel":9,"type":"noteOff","noteNumber":42,"velocity":95},{"deltaTime":0,"channel":9,"type":"noteOff","noteNumber":36,"velocity":95},{"deltaTime":0,"channel":9,"type":"noteOn","noteNumber":42,"velocity":95},{"deltaTime":480,"channel":9,"type":"noteOff","noteNumber":42,"velocity":95},{"deltaTime":0,"channel":9,"type":"noteOn","noteNumber":42,"velocity":95},{"deltaTime":0,"channel":9,"type":"noteOn","noteNumber":38,"velocity":95},{"deltaTime":480,"channel":9,"type":"noteOff","noteNumber":42,"velocity":95},{"deltaTime":0,"channel":9,"type":"noteOff","noteNumber":38,"velocity":95},{"deltaTime":0,"channel":9,"type":"noteOn","noteNumber":42,"velocity":95},{"deltaTime":480,"channel":9,"type":"noteOff","noteNumber":42,"velocity":95},{"deltaTime":0,"channel":9,"type":"noteOn","noteNumber":42,"velocity":95},{"deltaTime":0,"channel":9,"type":"noteOn","noteNumber":36,"velocity":95},{"deltaTime":480,"channel":9,"type":"noteOff","noteNumber":42,"velocity":95},{"deltaTime":0,"channel":9,"type":"noteOff","noteNumber":36,"velocity":95},{"deltaTime":0,"channel":9,"type":"noteOn","noteNumber":42,"velocity":95},{"deltaTime":480,"channel":9,"type":"noteOff","noteNumber":42,"velocity":95},{"deltaTime":0,"channel":9,"type":"noteOn","noteNumber":42,"velocity":95},{"deltaTime":0,"channel":9,"type":"noteOn","noteNumber":38,"velocity":95},{"deltaTime":480,"channel":9,"type":"noteOff","noteNumber":42,"velocity":95},{"deltaTime":0,"channel":9,"type":"noteOff","noteNumber":38,"velocity":95},{"deltaTime":0,"channel":9,"type":"noteOn","noteNumber":42,"velocity":95},{"deltaTime":480,"channel":9,"type":"noteOff","noteNumber":42,"velocity":95},{"deltaTime":0,"channel":9,"type":"noteOn","noteNumber":42,"velocity":95},{"deltaTime":0,"channel":9,"type":"noteOn","noteNumber":36,"velocity":95},{"deltaTime":480,"channel":9,"type":"noteOff","noteNumber":42,"velocity":95},{"deltaTime":0,"channel":9,"type":"noteOff","noteNumber":36,"velocity":95},{"deltaTime":0,"channel":9,"type":"noteOn","noteNumber":42,"velocity":95},{"deltaTime":480,"channel":9,"type":"noteOff","noteNumber":42,"velocity":95},{"deltaTime":0,"channel":9,"type":"noteOn","noteNumber":42,"velocity":95},{"deltaTime":0,"channel":9,"type":"noteOn","noteNumber":38,"velocity":95},{"deltaTime":480,"channel":9,"type":"noteOff","noteNumber":42,"velocity":95},{"deltaTime":0,"channel":9,"type":"noteOff","noteNumber":38,"velocity":95},{"deltaTime":0,"channel":9,"type":"noteOn","noteNumber":42,"velocity":95},{"deltaTime":480,"channel":9,"type":"noteOff","noteNumber":42,"velocity":95},{"deltaTime":0,"channel":9,"type":"noteOn","noteNumber":42,"velocity":95},{"deltaTime":0,"channel":9,"type":"noteOn","noteNumber":36,"velocity":95},{"deltaTime":480,"channel":9,"type":"noteOff","noteNumber":42,"velocity":95},{"deltaTime":0,"channel":9,"type":"noteOff","noteNumber":36,"velocity":95},{"deltaTime":0,"channel":9,"type":"noteOn","noteNumber":42,"velocity":95},{"deltaTime":480,"channel":9,"type":"noteOff","noteNumber":42,"velocity":95},{"deltaTime":0,"channel":9,"type":"noteOn","noteNumber":42,"velocity":95},{"deltaTime":0,"channel":9,"type":"noteOn","noteNumber":38,"velocity":95},{"deltaTime":480,"channel":9,"type":"noteOff","noteNumber":42,"velocity":95},{"deltaTime":0,"channel":9,"type":"noteOff","noteNumber":38,"velocity":95},{"deltaTime":0,"channel":9,"type":"noteOn","noteNumber":42,"velocity":95},{"deltaTime":480,"channel":9,"type":"noteOff","noteNumber":42,"velocity":95},{"deltaTime":0,"channel":9,"type":"noteOn","noteNumber":42,"velocity":95},{"deltaTime":0,"channel":9,"type":"noteOn","noteNumber":36,"velocity":95},{"deltaTime":480,"channel":9,"type":"noteOff","noteNumber":42,"velocity":95},{"deltaTime":0,"channel":9,"type":"noteOff","noteNumber":36,"velocity":95},{"deltaTime":0,"channel":9,"type":"noteOn","noteNumber":42,"velocity":95},{"deltaTime":480,"channel":9,"type":"noteOff","noteNumber":42,"velocity":95},{"deltaTime":0,"channel":9,"type":"noteOn","noteNumber":42,"velocity":95},{"deltaTime":0,"channel":9,"type":"noteOn","noteNumber":38,"velocity":95},{"deltaTime":480,"channel":9,"type":"noteOff","noteNumber":42,"velocity":95},{"deltaTime":0,"channel":9,"type":"noteOff","noteNumber":38,"velocity":95},{"deltaTime":0,"channel":9,"type":"noteOn","noteNumber":42,"velocity":95},{"deltaTime":480,"channel":9,"type":"noteOff","noteNumber":42,"velocity":95},{"deltaTime":0,"channel":9,"type":"noteOn","noteNumber":42,"velocity":95},{"deltaTime":0,"channel":9,"type":"noteOn","noteNumber":36,"velocity":95},{"deltaTime":480,"channel":9,"type":"noteOff","noteNumber":42,"velocity":95},{"deltaTime":0,"channel":9,"type":"noteOff","noteNumber":36,"velocity":95},{"deltaTime":0,"channel":9,"type":"noteOn","noteNumber":42,"velocity":95},{"deltaTime":480,"channel":9,"type":"noteOff","noteNumber":42,"velocity":95},{"deltaTime":0,"channel":9,"type":"noteOn","noteNumber":42,"velocity":95},{"deltaTime":0,"channel":9,"type":"noteOn","noteNumber":38,"velocity":95},{"deltaTime":480,"channel":9,"type":"noteOff","noteNumber":42,"velocity":95},{"deltaTime":0,"channel":9,"type":"noteOff","noteNumber":38,"velocity":95},{"deltaTime":0,"channel":9,"type":"noteOn","noteNumber":42,"velocity":95},{"deltaTime":480,"channel":9,"type":"noteOff","noteNumber":42,"velocity":95},{"deltaTime":0,"channel":9,"type":"noteOn","noteNumber":42,"velocity":95},{"deltaTime":0,"channel":9,"type":"noteOn","noteNumber":36,"velocity":95},{"deltaTime":480,"channel":9,"type":"noteOff","noteNumber":42,"velocity":95},{"deltaTime":0,"channel":9,"type":"noteOff","noteNumber":36,"velocity":95},{"deltaTime":0,"channel":9,"type":"noteOn","noteNumber":42,"velocity":95},{"deltaTime":480,"channel":9,"type":"noteOff","noteNumber":42,"velocity":95},{"deltaTime":0,"channel":9,"type":"noteOn","noteNumber":42,"velocity":95},{"deltaTime":0,"channel":9,"type":"noteOn","noteNumber":38,"velocity":95},{"deltaTime":480,"channel":9,"type":"noteOff","noteNumber":42,"velocity":95},{"deltaTime":0,"channel":9,"type":"noteOff","noteNumber":38,"velocity":95},{"deltaTime":0,"channel":9,"type":"noteOn","noteNumber":42,"velocity":95},{"deltaTime":480,"channel":9,"type":"noteOff","noteNumber":42,"velocity":95},{"deltaTime":0,"channel":9,"type":"noteOn","noteNumber":42,"velocity":95},{"deltaTime":0,"channel":9,"type":"noteOn","noteNumber":36,"velocity":95},{"deltaTime":480,"channel":9,"type":"noteOff","noteNumber":42,"velocity":95},{"deltaTime":0,"channel":9,"type":"noteOff","noteNumber":36,"velocity":95},{"deltaTime":0,"channel":9,"type":"noteOn","noteNumber":42,"velocity":95},{"deltaTime":480,"channel":9,"type":"noteOff","noteNumber":42,"velocity":95},{"deltaTime":0,"channel":9,"type":"noteOn","noteNumber":42,"velocity":95},{"deltaTime":0,"channel":9,"type":"noteOn","noteNumber":38,"velocity":95},{"deltaTime":480,"channel":9,"type":"noteOff","noteNumber":42,"velocity":95},{"deltaTime":0,"channel":9,"type":"noteOff","noteNumber":38,"velocity":95},{"deltaTime":0,"channel":9,"type":"noteOn","noteNumber":42,"velocity":95},{"deltaTime":480,"channel":9,"type":"noteOff","noteNumber":42,"velocity":95},{"deltaTime":0,"channel":9,"type":"noteOn","noteNumber":42,"velocity":95},{"deltaTime":0,"channel":9,"type":"noteOn","noteNumber":36,"velocity":95},{"deltaTime":480,"channel":9,"type":"noteOff","noteNumber":42,"velocity":95},{"deltaTime":0,"channel":9,"type":"noteOff","noteNumber":36,"velocity":95},{"deltaTime":0,"channel":9,"type":"noteOn","noteNumber":42,"velocity":95},{"deltaTime":480,"channel":9,"type":"noteOff","noteNumber":42,"velocity":95},{"deltaTime":0,"channel":9,"type":"noteOn","noteNumber":42,"velocity":95},{"deltaTime":0,"channel":9,"type":"noteOn","noteNumber":38,"velocity":95},{"deltaTime":480,"channel":9,"type":"noteOff","noteNumber":42,"velocity":95},{"deltaTime":0,"channel":9,"type":"noteOff","noteNumber":38,"velocity":95},{"deltaTime":0,"channel":9,"type":"noteOn","noteNumber":42,"velocity":95},{"deltaTime":480,"channel":9,"type":"noteOff","noteNumber":42,"velocity":95},{"deltaTime":0,"channel":9,"type":"noteOn","noteNumber":42,"velocity":95},{"deltaTime":0,"channel":9,"type":"noteOn","noteNumber":36,"velocity":95},{"deltaTime":480,"channel":9,"type":"noteOff","noteNumber":42,"velocity":95},{"deltaTime":0,"channel":9,"type":"noteOff","noteNumber":36,"velocity":95},{"deltaTime":0,"channel":9,"type":"noteOn","noteNumber":42,"velocity":95},{"deltaTime":480,"channel":9,"type":"noteOff","noteNumber":42,"velocity":95},{"deltaTime":0,"channel":9,"type":"noteOn","noteNumber":42,"velocity":95},{"deltaTime":0,"channel":9,"type":"noteOn","noteNumber":38,"velocity":95},{"deltaTime":480,"channel":9,"type":"noteOff","noteNumber":42,"velocity":95},{"deltaTime":0,"channel":9,"type":"noteOff","noteNumber":38,"velocity":95},{"deltaTime":0,"channel":9,"type":"noteOn","noteNumber":42,"velocity":95},{"deltaTime":480,"channel":9,"type":"noteOff","noteNumber":42,"velocity":95},{"deltaTime":0,"channel":9,"type":"noteOn","noteNumber":42,"velocity":95},{"deltaTime":0,"channel":9,"type":"noteOn","noteNumber":36,"velocity":95},{"deltaTime":480,"channel":9,"type":"noteOff","noteNumber":42,"velocity":95},{"deltaTime":0,"channel":9,"type":"noteOff","noteNumber":36,"velocity":95},{"deltaTime":0,"channel":9,"type":"noteOn","noteNumber":42,"velocity":95},{"deltaTime":480,"channel":9,"type":"noteOff","noteNumber":42,"velocity":95},{"deltaTime":0,"channel":9,"type":"noteOn","noteNumber":42,"velocity":95},{"deltaTime":0,"channel":9,"type":"noteOn","noteNumber":38,"velocity":95},{"deltaTime":480,"channel":9,"type":"noteOff","noteNumber":42,"velocity":95},{"deltaTime":0,"channel":9,"type":"noteOff","noteNumber":38,"velocity":95},{"deltaTime":0,"channel":9,"type":"noteOn","noteNumber":42,"velocity":95},{"deltaTime":480,"channel":9,"type":"noteOff","noteNumber":42,"velocity":95},{"deltaTime":0,"channel":9,"type":"noteOn","noteNumber":42,"velocity":95},{"deltaTime":0,"channel":9,"type":"noteOn","noteNumber":36,"velocity":95},{"deltaTime":480,"channel":9,"type":"noteOff","noteNumber":42,"velocity":95},{"deltaTime":0,"channel":9,"type":"noteOff","noteNumber":36,"velocity":95},{"deltaTime":0,"channel":9,"type":"noteOn","noteNumber":42,"velocity":95},{"deltaTime":0,"channel":9,"type":"noteOn","noteNumber":36,"velocity":95},{"deltaTime":480,"channel":9,"type":"noteOff","noteNumber":42,"velocity":95},{"deltaTime":0,"channel":9,"type":"noteOff","noteNumber":36,"velocity":95},{"deltaTime":0,"channel":9,"type":"noteOn","noteNumber":42,"velocity":95},{"deltaTime":0,"channel":9,"type":"noteOn","noteNumber":38,"velocity":95},{"deltaTime":480,"channel":9,"type":"noteOff","noteNumber":42,"velocity":95},{"deltaTime":0,"channel":9,"type":"noteOff","noteNumber":38,"velocity":95},{"deltaTime":0,"channel":9,"type":"noteOn","noteNumber":42,"velocity":95},{"deltaTime":480,"channel":9,"type":"noteOff","noteNumber":42,"velocity":95},{"deltaTime":0,"channel":9,"type":"noteOn","noteNumber":42,"velocity":95},{"deltaTime":0,"channel":9,"type":"noteOn","noteNumber":36,"velocity":95},{"deltaTime":480,"channel":9,"type":"noteOff","noteNumber":42,"velocity":95},{"deltaTime":0,"channel":9,"type":"noteOff","noteNumber":36,"velocity":95},{"deltaTime":0,"channel":9,"type":"noteOn","noteNumber":42,"velocity":95},{"deltaTime":480,"channel":9,"type":"noteOff","noteNumber":42,"velocity":95},{"deltaTime":0,"channel":9,"type":"noteOn","noteNumber":42,"velocity":95},{"deltaTime":0,"channel":9,"type":"noteOn","noteNumber":38,"velocity":95},{"deltaTime":480,"channel":9,"type":"noteOff","noteNumber":42,"velocity":95},{"deltaTime":0,"channel":9,"type":"noteOff","noteNumber":38,"velocity":95},{"deltaTime":0,"channel":9,"type":"noteOn","noteNumber":42,"velocity":95},{"deltaTime":480,"channel":9,"type":"noteOff","noteNumber":42,"velocity":95},{"deltaTime":0,"channel":9,"type":"noteOn","noteNumber":36,"velocity":95},{"deltaTime":0,"channel":9,"type":"noteOn","noteNumber":59,"velocity":95},{"deltaTime":480,"channel":9,"type":"noteOff","noteNumber":36,"velocity":95},{"deltaTime":0,"channel":9,"type":"noteOff","noteNumber":59,"velocity":95},{"deltaTime":0,"channel":9,"type":"noteOn","noteNumber":42,"velocity":95},{"deltaTime":480,"channel":9,"type":"noteOff","noteNumber":42,"velocity":95},{"deltaTime":0,"channel":9,"type":"noteOn","noteNumber":42,"velocity":95},{"deltaTime":0,"channel":9,"type":"noteOn","noteNumber":38,"velocity":95},{"deltaTime":480,"channel":9,"type":"noteOff","noteNumber":42,"velocity":95},{"deltaTime":0,"channel":9,"type":"noteOff","noteNumber":38,"velocity":95},{"deltaTime":0,"channel":9,"type":"noteOn","noteNumber":42,"velocity":95},{"deltaTime":480,"channel":9,"type":"noteOff","noteNumber":42,"velocity":95},{"deltaTime":0,"channel":9,"type":"noteOn","noteNumber":42,"velocity":95},{"deltaTime":0,"channel":9,"type":"noteOn","noteNumber":36,"velocity":95},{"deltaTime":480,"channel":9,"type":"noteOff","noteNumber":42,"velocity":95},{"deltaTime":0,"channel":9,"type":"noteOff","noteNumber":36,"velocity":95},{"deltaTime":0,"channel":9,"type":"noteOn","noteNumber":42,"velocity":95},{"deltaTime":480,"channel":9,"type":"noteOff","noteNumber":42,"velocity":95},{"deltaTime":0,"channel":9,"type":"noteOn","noteNumber":42,"velocity":95},{"deltaTime":0,"channel":9,"type":"noteOn","noteNumber":38,"velocity":95},{"deltaTime":480,"channel":9,"type":"noteOff","noteNumber":42,"velocity":95},{"deltaTime":0,"channel":9,"type":"noteOff","noteNumber":38,"velocity":95},{"deltaTime":0,"channel":9,"type":"noteOn","noteNumber":42,"velocity":95},{"deltaTime":480,"channel":9,"type":"noteOff","noteNumber":42,"velocity":95},{"deltaTime":0,"channel":9,"type":"noteOn","noteNumber":42,"velocity":95},{"deltaTime":0,"channel":9,"type":"noteOn","noteNumber":36,"velocity":95},{"deltaTime":480,"channel":9,"type":"noteOff","noteNumber":42,"velocity":95},{"deltaTime":0,"channel":9,"type":"noteOff","noteNumber":36,"velocity":95},{"deltaTime":0,"channel":9,"type":"noteOn","noteNumber":42,"velocity":95},{"deltaTime":480,"channel":9,"type":"noteOff","noteNumber":42,"velocity":95},{"deltaTime":0,"channel":9,"type":"noteOn","noteNumber":42,"velocity":95},{"deltaTime":0,"channel":9,"type":"noteOn","noteNumber":38,"velocity":95},{"deltaTime":480,"channel":9,"type":"noteOff","noteNumber":42,"velocity":95},{"deltaTime":0,"channel":9,"type":"noteOff","noteNumber":38,"velocity":95},{"deltaTime":0,"channel":9,"type":"noteOn","noteNumber":42,"velocity":95},{"deltaTime":480,"channel":9,"type":"noteOff","noteNumber":42,"velocity":95},{"deltaTime":0,"channel":9,"type":"noteOn","noteNumber":36,"velocity":95},{"deltaTime":0,"channel":9,"type":"noteOn","noteNumber":59,"velocity":95},{"deltaTime":480,"channel":9,"type":"noteOff","noteNumber":36,"velocity":95},{"deltaTime":0,"channel":9,"type":"noteOff","noteNumber":59,"velocity":95},{"deltaTime":0,"channel":9,"type":"noteOn","noteNumber":42,"velocity":95},{"deltaTime":480,"channel":9,"type":"noteOff","noteNumber":42,"velocity":95},{"deltaTime":0,"channel":9,"type":"noteOn","noteNumber":42,"velocity":95},{"deltaTime":0,"channel":9,"type":"noteOn","noteNumber":38,"velocity":95},{"deltaTime":480,"channel":9,"type":"noteOff","noteNumber":42,"velocity":95},{"deltaTime":0,"channel":9,"type":"noteOff","noteNumber":38,"velocity":95},{"deltaTime":0,"channel":9,"type":"noteOn","noteNumber":42,"velocity":95},{"deltaTime":480,"channel":9,"type":"noteOff","noteNumber":42,"velocity":95},{"deltaTime":0,"channel":9,"type":"noteOn","noteNumber":36,"velocity":95},{"deltaTime":0,"channel":9,"type":"noteOn","noteNumber":59,"velocity":95},{"deltaTime":480,"channel":9,"type":"noteOff","noteNumber":36,"velocity":95},{"deltaTime":0,"channel":9,"type":"noteOff","noteNumber":59,"velocity":95},{"deltaTime":0,"channel":9,"type":"noteOn","noteNumber":42,"velocity":95},{"deltaTime":480,"channel":9,"type":"noteOff","noteNumber":42,"velocity":95},{"deltaTime":0,"channel":9,"type":"noteOn","noteNumber":42,"velocity":95},{"deltaTime":0,"channel":9,"type":"noteOn","noteNumber":38,"velocity":95},{"deltaTime":480,"channel":9,"type":"noteOff","noteNumber":42,"velocity":95},{"deltaTime":0,"channel":9,"type":"noteOff","noteNumber":38,"velocity":95},{"deltaTime":0,"channel":9,"type":"noteOn","noteNumber":42,"velocity":95},{"deltaTime":480,"channel":9,"type":"noteOff","noteNumber":42,"velocity":95},{"deltaTime":0,"channel":9,"type":"noteOn","noteNumber":42,"velocity":95},{"deltaTime":0,"channel":9,"type":"noteOn","noteNumber":36,"velocity":95},{"deltaTime":480,"channel":9,"type":"noteOff","noteNumber":42,"velocity":95},{"deltaTime":0,"channel":9,"type":"noteOff","noteNumber":36,"velocity":95},{"deltaTime":0,"channel":9,"type":"noteOn","noteNumber":42,"velocity":95},{"deltaTime":480,"channel":9,"type":"noteOff","noteNumber":42,"velocity":95},{"deltaTime":0,"channel":9,"type":"noteOn","noteNumber":42,"velocity":95},{"deltaTime":0,"channel":9,"type":"noteOn","noteNumber":38,"velocity":95},{"deltaTime":480,"channel":9,"type":"noteOff","noteNumber":42,"velocity":95},{"deltaTime":0,"channel":9,"type":"noteOff","noteNumber":38,"velocity":95},{"deltaTime":0,"channel":9,"type":"noteOn","noteNumber":42,"velocity":95},{"deltaTime":480,"channel":9,"type":"noteOff","noteNumber":42,"velocity":95},{"deltaTime":0,"channel":9,"type":"noteOn","noteNumber":42,"velocity":95},{"deltaTime":0,"channel":9,"type":"noteOn","noteNumber":36,"velocity":95},{"deltaTime":480,"channel":9,"type":"noteOff","noteNumber":42,"velocity":95},{"deltaTime":0,"channel":9,"type":"noteOff","noteNumber":36,"velocity":95},{"deltaTime":0,"channel":9,"type":"noteOn","noteNumber":42,"velocity":95},{"deltaTime":480,"channel":9,"type":"noteOff","noteNumber":42,"velocity":95},{"deltaTime":0,"channel":9,"type":"noteOn","noteNumber":42,"velocity":95},{"deltaTime":0,"channel":9,"type":"noteOn","noteNumber":38,"velocity":95},{"deltaTime":480,"channel":9,"type":"noteOff","noteNumber":42,"velocity":95},{"deltaTime":0,"channel":9,"type":"noteOff","noteNumber":38,"velocity":95},{"deltaTime":0,"channel":9,"type":"noteOn","noteNumber":42,"velocity":95},{"deltaTime":480,"channel":9,"type":"noteOff","noteNumber":42,"velocity":95},{"deltaTime":0,"channel":9,"type":"noteOn","noteNumber":36,"velocity":95},{"deltaTime":0,"channel":9,"type":"noteOn","noteNumber":59,"velocity":95},{"deltaTime":480,"channel":9,"type":"noteOff","noteNumber":36,"velocity":95},{"deltaTime":0,"channel":9,"type":"noteOff","noteNumber":59,"velocity":95},{"deltaTime":0,"channel":9,"type":"noteOn","noteNumber":42,"velocity":95},{"deltaTime":480,"channel":9,"type":"noteOff","noteNumber":42,"velocity":95},{"deltaTime":0,"channel":9,"type":"noteOn","noteNumber":42,"velocity":95},{"deltaTime":0,"channel":9,"type":"noteOn","noteNumber":38,"velocity":95},{"deltaTime":480,"channel":9,"type":"noteOff","noteNumber":42,"velocity":95},{"deltaTime":0,"channel":9,"type":"noteOff","noteNumber":38,"velocity":95},{"deltaTime":0,"channel":9,"type":"noteOn","noteNumber":42,"velocity":95},{"deltaTime":480,"channel":9,"type":"noteOff","noteNumber":42,"velocity":95},{"deltaTime":0,"channel":9,"type":"noteOn","noteNumber":36,"velocity":95},{"deltaTime":0,"channel":9,"type":"noteOn","noteNumber":59,"velocity":95},{"deltaTime":480,"channel":9,"type":"noteOff","noteNumber":36,"velocity":95},{"deltaTime":0,"channel":9,"type":"noteOff","noteNumber":59,"velocity":95},{"deltaTime":0,"channel":9,"type":"noteOn","noteNumber":42,"velocity":95},{"deltaTime":480,"channel":9,"type":"noteOff","noteNumber":42,"velocity":95},{"deltaTime":0,"channel":9,"type":"noteOn","noteNumber":42,"velocity":95},{"deltaTime":0,"channel":9,"type":"noteOn","noteNumber":38,"velocity":95},{"deltaTime":480,"channel":9,"type":"noteOff","noteNumber":42,"velocity":95},{"deltaTime":0,"channel":9,"type":"noteOff","noteNumber":38,"velocity":95},{"deltaTime":0,"channel":9,"type":"noteOn","noteNumber":42,"velocity":95},{"deltaTime":480,"channel":9,"type":"noteOff","noteNumber":42,"velocity":95},{"deltaTime":0,"channel":9,"type":"noteOn","noteNumber":42,"velocity":95},{"deltaTime":0,"channel":9,"type":"noteOn","noteNumber":36,"velocity":95},{"deltaTime":480,"channel":9,"type":"noteOff","noteNumber":42,"velocity":95},{"deltaTime":0,"channel":9,"type":"noteOff","noteNumber":36,"velocity":95},{"deltaTime":0,"channel":9,"type":"noteOn","noteNumber":42,"velocity":95},{"deltaTime":480,"channel":9,"type":"noteOff","noteNumber":42,"velocity":95},{"deltaTime":0,"channel":9,"type":"noteOn","noteNumber":42,"velocity":95},{"deltaTime":0,"channel":9,"type":"noteOn","noteNumber":38,"velocity":95},{"deltaTime":480,"channel":9,"type":"noteOff","noteNumber":42,"velocity":95},{"deltaTime":0,"channel":9,"type":"noteOff","noteNumber":38,"velocity":95},{"deltaTime":0,"channel":9,"type":"noteOn","noteNumber":42,"velocity":95},{"deltaTime":480,"channel":9,"type":"noteOff","noteNumber":42,"velocity":95},{"deltaTime":0,"channel":9,"type":"noteOn","noteNumber":42,"velocity":95},{"deltaTime":0,"channel":9,"type":"noteOn","noteNumber":36,"velocity":95},{"deltaTime":480,"channel":9,"type":"noteOff","noteNumber":42,"velocity":95},{"deltaTime":0,"channel":9,"type":"noteOff","noteNumber":36,"velocity":95},{"deltaTime":0,"channel":9,"type":"noteOn","noteNumber":42,"velocity":95},{"deltaTime":480,"channel":9,"type":"noteOff","noteNumber":42,"velocity":95},{"deltaTime":0,"channel":9,"type":"noteOn","noteNumber":42,"velocity":95},{"deltaTime":0,"channel":9,"type":"noteOn","noteNumber":38,"velocity":95},{"deltaTime":480,"channel":9,"type":"noteOff","noteNumber":42,"velocity":95},{"deltaTime":0,"channel":9,"type":"noteOff","noteNumber":38,"velocity":95},{"deltaTime":0,"channel":9,"type":"noteOn","noteNumber":42,"velocity":95},{"deltaTime":480,"channel":9,"type":"noteOff","noteNumber":42,"velocity":95},{"deltaTime":0,"channel":9,"type":"noteOn","noteNumber":36,"velocity":95},{"deltaTime":0,"channel":9,"type":"noteOn","noteNumber":59,"velocity":95},{"deltaTime":480,"channel":9,"type":"noteOff","noteNumber":36,"velocity":95},{"deltaTime":0,"channel":9,"type":"noteOff","noteNumber":59,"velocity":95},{"deltaTime":0,"channel":9,"type":"noteOn","noteNumber":42,"velocity":95},{"deltaTime":480,"channel":9,"type":"noteOff","noteNumber":42,"velocity":95},{"deltaTime":0,"channel":9,"type":"noteOn","noteNumber":42,"velocity":95},{"deltaTime":0,"channel":9,"type":"noteOn","noteNumber":38,"velocity":95},{"deltaTime":480,"channel":9,"type":"noteOff","noteNumber":42,"velocity":95},{"deltaTime":0,"channel":9,"type":"noteOff","noteNumber":38,"velocity":95},{"deltaTime":0,"channel":9,"type":"noteOn","noteNumber":42,"velocity":95},{"deltaTime":480,"channel":9,"type":"noteOff","noteNumber":42,"velocity":95},{"deltaTime":0,"channel":9,"type":"noteOn","noteNumber":36,"velocity":95},{"deltaTime":0,"channel":9,"type":"noteOn","noteNumber":59,"velocity":95},{"deltaTime":480,"channel":9,"type":"noteOff","noteNumber":36,"velocity":95},{"deltaTime":0,"channel":9,"type":"noteOff","noteNumber":59,"velocity":95},{"deltaTime":0,"channel":9,"type":"noteOn","noteNumber":42,"velocity":95},{"deltaTime":480,"channel":9,"type":"noteOff","noteNumber":42,"velocity":95},{"deltaTime":0,"channel":9,"type":"noteOn","noteNumber":42,"velocity":95},{"deltaTime":0,"channel":9,"type":"noteOn","noteNumber":38,"velocity":95},{"deltaTime":480,"channel":9,"type":"noteOff","noteNumber":42,"velocity":95},{"deltaTime":0,"channel":9,"type":"noteOff","noteNumber":38,"velocity":95},{"deltaTime":0,"channel":9,"type":"noteOn","noteNumber":42,"velocity":95},{"deltaTime":480,"channel":9,"type":"noteOff","noteNumber":42,"velocity":95},{"deltaTime":0,"channel":9,"type":"noteOn","noteNumber":42,"velocity":95},{"deltaTime":0,"channel":9,"type":"noteOn","noteNumber":36,"velocity":95},{"deltaTime":480,"channel":9,"type":"noteOff","noteNumber":42,"velocity":95},{"deltaTime":0,"channel":9,"type":"noteOff","noteNumber":36,"velocity":95},{"deltaTime":0,"channel":9,"type":"noteOn","noteNumber":42,"velocity":95},{"deltaTime":480,"channel":9,"type":"noteOff","noteNumber":42,"velocity":95},{"deltaTime":0,"channel":9,"type":"noteOn","noteNumber":42,"velocity":95},{"deltaTime":0,"channel":9,"type":"noteOn","noteNumber":38,"velocity":95},{"deltaTime":480,"channel":9,"type":"noteOff","noteNumber":42,"velocity":95},{"deltaTime":0,"channel":9,"type":"noteOff","noteNumber":38,"velocity":95},{"deltaTime":0,"channel":9,"type":"noteOn","noteNumber":42,"velocity":95},{"deltaTime":480,"channel":9,"type":"noteOff","noteNumber":42,"velocity":95},{"deltaTime":0,"channel":9,"type":"noteOn","noteNumber":42,"velocity":95},{"deltaTime":0,"channel":9,"type":"noteOn","noteNumber":36,"velocity":95},{"deltaTime":480,"channel":9,"type":"noteOff","noteNumber":42,"velocity":95},{"deltaTime":0,"channel":9,"type":"noteOff","noteNumber":36,"velocity":95},{"deltaTime":0,"channel":9,"type":"noteOn","noteNumber":42,"velocity":95},{"deltaTime":0,"channel":9,"type":"noteOn","noteNumber":38,"velocity":95},{"deltaTime":480,"channel":9,"type":"noteOff","noteNumber":42,"velocity":95},{"deltaTime":0,"channel":9,"type":"noteOff","noteNumber":38,"velocity":95},{"deltaTime":0,"channel":9,"type":"noteOn","noteNumber":42,"velocity":95},{"deltaTime":0,"channel":9,"type":"noteOn","noteNumber":36,"velocity":95},{"deltaTime":480,"channel":9,"type":"noteOff","noteNumber":42,"velocity":95},{"deltaTime":0,"channel":9,"type":"noteOff","noteNumber":36,"velocity":95},{"deltaTime":0,"channel":9,"type":"noteOn","noteNumber":42,"velocity":95},{"deltaTime":0,"channel":9,"type":"noteOn","noteNumber":38,"velocity":95},{"deltaTime":480,"channel":9,"type":"noteOff","noteNumber":42,"velocity":95},{"deltaTime":0,"channel":9,"type":"noteOff","noteNumber":38,"velocity":95},{"deltaTime":0,"channel":9,"type":"noteOn","noteNumber":38,"velocity":95},{"deltaTime":480,"channel":9,"type":"noteOff","noteNumber":38,"velocity":95},{"deltaTime":0,"channel":9,"type":"noteOn","noteNumber":36,"velocity":95},{"deltaTime":480,"channel":9,"type":"noteOff","noteNumber":36,"velocity":95},{"deltaTime":0,"channel":9,"type":"noteOn","noteNumber":38,"velocity":95},{"deltaTime":480,"channel":9,"type":"noteOff","noteNumber":38,"velocity":95},{"deltaTime":0,"channel":9,"type":"noteOn","noteNumber":36,"velocity":95},{"deltaTime":480,"channel":9,"type":"noteOff","noteNumber":36,"velocity":95},{"deltaTime":0,"channel":9,"type":"noteOn","noteNumber":36,"velocity":95},{"deltaTime":0,"channel":9,"type":"noteOn","noteNumber":41,"velocity":95},{"deltaTime":480,"channel":9,"type":"noteOff","noteNumber":36,"velocity":95},{"deltaTime":0,"channel":9,"type":"noteOff","noteNumber":41,"velocity":95},{"deltaTime":0,"channel":9,"type":"noteOn","noteNumber":36,"velocity":95},{"deltaTime":0,"channel":9,"type":"noteOn","noteNumber":41,"velocity":95},{"deltaTime":480,"channel":9,"type":"noteOff","noteNumber":36,"velocity":95},{"deltaTime":0,"channel":9,"type":"noteOff","noteNumber":41,"velocity":95},{"deltaTime":0,"channel":9,"type":"noteOn","noteNumber":38,"velocity":95},{"deltaTime":0,"channel":9,"type":"noteOn","noteNumber":59,"velocity":95},{"deltaTime":480,"channel":9,"type":"noteOff","noteNumber":38,"velocity":95},{"deltaTime":0,"channel":9,"type":"noteOff","noteNumber":59,"velocity":95},{"deltaTime":0,"channel":9,"type":"noteOn","noteNumber":42,"velocity":95},{"deltaTime":480,"channel":9,"type":"noteOff","noteNumber":42,"velocity":95},{"deltaTime":0,"channel":9,"type":"noteOn","noteNumber":42,"velocity":95},{"deltaTime":0,"channel":9,"type":"noteOn","noteNumber":36,"velocity":95},{"deltaTime":480,"channel":9,"type":"noteOff","noteNumber":42,"velocity":95},{"deltaTime":0,"channel":9,"type":"noteOff","noteNumber":36,"velocity":95},{"deltaTime":0,"channel":9,"type":"noteOn","noteNumber":42,"velocity":95},{"deltaTime":480,"channel":9,"type":"noteOff","noteNumber":42,"velocity":95},{"deltaTime":0,"channel":9,"type":"noteOn","noteNumber":38,"velocity":95},{"deltaTime":0,"channel":9,"type":"noteOn","noteNumber":59,"velocity":95},{"deltaTime":480,"channel":9,"type":"noteOff","noteNumber":38,"velocity":95},{"deltaTime":0,"channel":9,"type":"noteOff","noteNumber":59,"velocity":95},{"deltaTime":0,"channel":9,"type":"noteOn","noteNumber":42,"velocity":95},{"deltaTime":480,"channel":9,"type":"noteOff","noteNumber":42,"velocity":95},{"deltaTime":0,"channel":9,"type":"noteOn","noteNumber":42,"velocity":95},{"deltaTime":0,"channel":9,"type":"noteOn","noteNumber":36,"velocity":95},{"deltaTime":480,"channel":9,"type":"noteOff","noteNumber":42,"velocity":95},{"deltaTime":0,"channel":9,"type":"noteOff","noteNumber":36,"velocity":95},{"deltaTime":0,"channel":9,"type":"noteOn","noteNumber":42,"velocity":95},{"deltaTime":480,"channel":9,"type":"noteOff","noteNumber":42,"velocity":95},{"deltaTime":0,"channel":9,"type":"noteOn","noteNumber":38,"velocity":95},{"deltaTime":0,"channel":9,"type":"noteOn","noteNumber":59,"velocity":95},{"deltaTime":480,"channel":9,"type":"noteOff","noteNumber":38,"velocity":95},{"deltaTime":0,"channel":9,"type":"noteOff","noteNumber":59,"velocity":95},{"deltaTime":0,"channel":9,"type":"noteOn","noteNumber":42,"velocity":95},{"deltaTime":480,"channel":9,"type":"noteOff","noteNumber":42,"velocity":95},{"deltaTime":0,"channel":9,"type":"noteOn","noteNumber":42,"velocity":95},{"deltaTime":0,"channel":9,"type":"noteOn","noteNumber":36,"velocity":95},{"deltaTime":480,"channel":9,"type":"noteOff","noteNumber":42,"velocity":95},{"deltaTime":0,"channel":9,"type":"noteOff","noteNumber":36,"velocity":95},{"deltaTime":0,"channel":9,"type":"noteOn","noteNumber":42,"velocity":95},{"deltaTime":480,"channel":9,"type":"noteOff","noteNumber":42,"velocity":95},{"deltaTime":0,"channel":9,"type":"noteOn","noteNumber":38,"velocity":95},{"deltaTime":0,"channel":9,"type":"noteOn","noteNumber":59,"velocity":95},{"deltaTime":480,"channel":9,"type":"noteOff","noteNumber":38,"velocity":95},{"deltaTime":0,"channel":9,"type":"noteOff","noteNumber":59,"velocity":95},{"deltaTime":0,"channel":9,"type":"noteOn","noteNumber":42,"velocity":95},{"deltaTime":480,"channel":9,"type":"noteOff","noteNumber":42,"velocity":95},{"deltaTime":0,"channel":9,"type":"noteOn","noteNumber":42,"velocity":95},{"deltaTime":0,"channel":9,"type":"noteOn","noteNumber":36,"velocity":95},{"deltaTime":480,"channel":9,"type":"noteOff","noteNumber":42,"velocity":95},{"deltaTime":0,"channel":9,"type":"noteOff","noteNumber":36,"velocity":95},{"deltaTime":0,"channel":9,"type":"noteOn","noteNumber":42,"velocity":95},{"deltaTime":480,"channel":9,"type":"noteOff","noteNumber":42,"velocity":95},{"deltaTime":0,"channel":9,"type":"noteOn","noteNumber":38,"velocity":95},{"deltaTime":0,"channel":9,"type":"noteOn","noteNumber":59,"velocity":95},{"deltaTime":480,"channel":9,"type":"noteOff","noteNumber":38,"velocity":95},{"deltaTime":0,"channel":9,"type":"noteOff","noteNumber":59,"velocity":95},{"deltaTime":0,"channel":9,"type":"noteOn","noteNumber":42,"velocity":95},{"deltaTime":480,"channel":9,"type":"noteOff","noteNumber":42,"velocity":95},{"deltaTime":0,"channel":9,"type":"noteOn","noteNumber":42,"velocity":95},{"deltaTime":0,"channel":9,"type":"noteOn","noteNumber":36,"velocity":95},{"deltaTime":480,"channel":9,"type":"noteOff","noteNumber":42,"velocity":95},{"deltaTime":0,"channel":9,"type":"noteOff","noteNumber":36,"velocity":95},{"deltaTime":0,"channel":9,"type":"noteOn","noteNumber":42,"velocity":95},{"deltaTime":480,"channel":9,"type":"noteOff","noteNumber":42,"velocity":95},{"deltaTime":0,"channel":9,"type":"noteOn","noteNumber":38,"velocity":95},{"deltaTime":0,"channel":9,"type":"noteOn","noteNumber":59,"velocity":95},{"deltaTime":480,"channel":9,"type":"noteOff","noteNumber":38,"velocity":95},{"deltaTime":0,"channel":9,"type":"noteOff","noteNumber":59,"velocity":95},{"deltaTime":0,"channel":9,"type":"noteOn","noteNumber":42,"velocity":95},{"deltaTime":480,"channel":9,"type":"noteOff","noteNumber":42,"velocity":95},{"deltaTime":0,"channel":9,"type":"noteOn","noteNumber":42,"velocity":95},{"deltaTime":0,"channel":9,"type":"noteOn","noteNumber":36,"velocity":95},{"deltaTime":480,"channel":9,"type":"noteOff","noteNumber":42,"velocity":95},{"deltaTime":0,"channel":9,"type":"noteOff","noteNumber":36,"velocity":95},{"deltaTime":0,"channel":9,"type":"noteOn","noteNumber":42,"velocity":95},{"deltaTime":480,"channel":9,"type":"noteOff","noteNumber":42,"velocity":95},{"deltaTime":0,"channel":9,"type":"noteOn","noteNumber":38,"velocity":95},{"deltaTime":0,"channel":9,"type":"noteOn","noteNumber":59,"velocity":95},{"deltaTime":480,"channel":9,"type":"noteOff","noteNumber":38,"velocity":95},{"deltaTime":0,"channel":9,"type":"noteOff","noteNumber":59,"velocity":95},{"deltaTime":0,"channel":9,"type":"noteOn","noteNumber":42,"velocity":95},{"deltaTime":480,"channel":9,"type":"noteOff","noteNumber":42,"velocity":95},{"deltaTime":0,"channel":9,"type":"noteOn","noteNumber":42,"velocity":95},{"deltaTime":0,"channel":9,"type":"noteOn","noteNumber":36,"velocity":95},{"deltaTime":480,"channel":9,"type":"noteOff","noteNumber":42,"velocity":95},{"deltaTime":0,"channel":9,"type":"noteOff","noteNumber":36,"velocity":95},{"deltaTime":0,"channel":9,"type":"noteOn","noteNumber":38,"velocity":95},{"deltaTime":480,"channel":9,"type":"noteOff","noteNumber":38,"velocity":95},{"deltaTime":0,"channel":9,"type":"noteOn","noteNumber":36,"velocity":95},{"deltaTime":480,"channel":9,"type":"noteOff","noteNumber":36,"velocity":95},{"deltaTime":0,"channel":9,"type":"noteOn","noteNumber":38,"velocity":95},{"deltaTime":0,"channel":9,"type":"noteOn","noteNumber":59,"velocity":95},{"deltaTime":480,"channel":9,"type":"noteOff","noteNumber":38,"velocity":95},{"deltaTime":0,"channel":9,"type":"noteOff","noteNumber":59,"velocity":95},{"deltaTime":0,"channel":9,"type":"noteOn","noteNumber":42,"velocity":95},{"deltaTime":0,"channel":9,"type":"noteOn","noteNumber":36,"velocity":95},{"deltaTime":480,"channel":9,"type":"noteOff","noteNumber":42,"velocity":95},{"deltaTime":0,"channel":9,"type":"noteOff","noteNumber":36,"velocity":95},{"deltaTime":0,"channel":9,"type":"noteOn","noteNumber":42,"velocity":95},{"deltaTime":480,"channel":9,"type":"noteOff","noteNumber":42,"velocity":95},{"deltaTime":0,"channel":9,"type":"noteOn","noteNumber":38,"velocity":95},{"deltaTime":0,"channel":9,"type":"noteOn","noteNumber":59,"velocity":95},{"deltaTime":480,"channel":9,"type":"noteOff","noteNumber":38,"velocity":95},{"deltaTime":0,"channel":9,"type":"noteOff","noteNumber":59,"velocity":95},{"deltaTime":0,"channel":9,"type":"noteOn","noteNumber":42,"velocity":95},{"deltaTime":480,"channel":9,"type":"noteOff","noteNumber":42,"velocity":95},{"deltaTime":0,"channel":9,"type":"noteOn","noteNumber":42,"velocity":95},{"deltaTime":0,"channel":9,"type":"noteOn","noteNumber":36,"velocity":95},{"deltaTime":480,"channel":9,"type":"noteOff","noteNumber":42,"velocity":95},{"deltaTime":0,"channel":9,"type":"noteOff","noteNumber":36,"velocity":95},{"deltaTime":0,"channel":9,"type":"noteOn","noteNumber":42,"velocity":95},{"deltaTime":480,"channel":9,"type":"noteOff","noteNumber":42,"velocity":95},{"deltaTime":0,"channel":9,"type":"noteOn","noteNumber":38,"velocity":95},{"deltaTime":0,"channel":9,"type":"noteOn","noteNumber":59,"velocity":95},{"deltaTime":480,"channel":9,"type":"noteOff","noteNumber":38,"velocity":95},{"deltaTime":0,"channel":9,"type":"noteOff","noteNumber":59,"velocity":95},{"deltaTime":0,"channel":9,"type":"noteOn","noteNumber":42,"velocity":95},{"deltaTime":480,"channel":9,"type":"noteOff","noteNumber":42,"velocity":95},{"deltaTime":0,"channel":9,"type":"noteOn","noteNumber":42,"velocity":95},{"deltaTime":0,"channel":9,"type":"noteOn","noteNumber":36,"velocity":95},{"deltaTime":480,"channel":9,"type":"noteOff","noteNumber":42,"velocity":95},{"deltaTime":0,"channel":9,"type":"noteOff","noteNumber":36,"velocity":95},{"deltaTime":0,"channel":9,"type":"noteOn","noteNumber":42,"velocity":95},{"deltaTime":480,"channel":9,"type":"noteOff","noteNumber":42,"velocity":95},{"deltaTime":0,"channel":9,"type":"noteOn","noteNumber":38,"velocity":95},{"deltaTime":0,"channel":9,"type":"noteOn","noteNumber":59,"velocity":95},{"deltaTime":480,"channel":9,"type":"noteOff","noteNumber":38,"velocity":95},{"deltaTime":0,"channel":9,"type":"noteOff","noteNumber":59,"velocity":95},{"deltaTime":0,"channel":9,"type":"noteOn","noteNumber":42,"velocity":95},{"deltaTime":480,"channel":9,"type":"noteOff","noteNumber":42,"velocity":95},{"deltaTime":0,"channel":9,"type":"noteOn","noteNumber":42,"velocity":95},{"deltaTime":0,"channel":9,"type":"noteOn","noteNumber":36,"velocity":95},{"deltaTime":480,"channel":9,"type":"noteOff","noteNumber":42,"velocity":95},{"deltaTime":0,"channel":9,"type":"noteOff","noteNumber":36,"velocity":95},{"deltaTime":0,"channel":9,"type":"noteOn","noteNumber":42,"velocity":95},{"deltaTime":480,"channel":9,"type":"noteOff","noteNumber":42,"velocity":95},{"deltaTime":0,"channel":9,"type":"noteOn","noteNumber":38,"velocity":95},{"deltaTime":0,"channel":9,"type":"noteOn","noteNumber":59,"velocity":95},{"deltaTime":480,"channel":9,"type":"noteOff","noteNumber":38,"velocity":95},{"deltaTime":0,"channel":9,"type":"noteOff","noteNumber":59,"velocity":95},{"deltaTime":0,"channel":9,"type":"noteOn","noteNumber":42,"velocity":95},{"deltaTime":480,"channel":9,"type":"noteOff","noteNumber":42,"velocity":95},{"deltaTime":0,"channel":9,"type":"noteOn","noteNumber":42,"velocity":95},{"deltaTime":0,"channel":9,"type":"noteOn","noteNumber":36,"velocity":95},{"deltaTime":480,"channel":9,"type":"noteOff","noteNumber":42,"velocity":95},{"deltaTime":0,"channel":9,"type":"noteOff","noteNumber":36,"velocity":95},{"deltaTime":0,"channel":9,"type":"noteOn","noteNumber":42,"velocity":95},{"deltaTime":480,"channel":9,"type":"noteOff","noteNumber":42,"velocity":95},{"deltaTime":0,"channel":9,"type":"noteOn","noteNumber":38,"velocity":95},{"deltaTime":0,"channel":9,"type":"noteOn","noteNumber":59,"velocity":95},{"deltaTime":480,"channel":9,"type":"noteOff","noteNumber":38,"velocity":95},{"deltaTime":0,"channel":9,"type":"noteOff","noteNumber":59,"velocity":95},{"deltaTime":0,"channel":9,"type":"noteOn","noteNumber":42,"velocity":95},{"deltaTime":480,"channel":9,"type":"noteOff","noteNumber":42,"velocity":95},{"deltaTime":0,"channel":9,"type":"noteOn","noteNumber":42,"velocity":95},{"deltaTime":0,"channel":9,"type":"noteOn","noteNumber":36,"velocity":95},{"deltaTime":480,"channel":9,"type":"noteOff","noteNumber":42,"velocity":95},{"deltaTime":0,"channel":9,"type":"noteOff","noteNumber":36,"velocity":95},{"deltaTime":0,"channel":9,"type":"noteOn","noteNumber":42,"velocity":95},{"deltaTime":480,"channel":9,"type":"noteOff","noteNumber":42,"velocity":95},{"deltaTime":0,"channel":9,"type":"noteOn","noteNumber":38,"velocity":95},{"deltaTime":0,"channel":9,"type":"noteOn","noteNumber":59,"velocity":95},{"deltaTime":480,"channel":9,"type":"noteOff","noteNumber":38,"velocity":95},{"deltaTime":0,"channel":9,"type":"noteOff","noteNumber":59,"velocity":95},{"deltaTime":0,"channel":9,"type":"noteOn","noteNumber":42,"velocity":95},{"deltaTime":480,"channel":9,"type":"noteOff","noteNumber":42,"velocity":95},{"deltaTime":0,"channel":9,"type":"noteOn","noteNumber":42,"velocity":95},{"deltaTime":0,"channel":9,"type":"noteOn","noteNumber":36,"velocity":95},{"deltaTime":480,"channel":9,"type":"noteOff","noteNumber":42,"velocity":95},{"deltaTime":0,"channel":9,"type":"noteOff","noteNumber":36,"velocity":95},{"deltaTime":0,"channel":9,"type":"noteOn","noteNumber":42,"velocity":95},{"deltaTime":480,"channel":9,"type":"noteOff","noteNumber":42,"velocity":95},{"deltaTime":0,"channel":9,"type":"noteOn","noteNumber":42,"velocity":95},{"deltaTime":480,"channel":9,"type":"noteOff","noteNumber":42,"velocity":95},{"deltaTime":0,"channel":9,"type":"noteOn","noteNumber":38,"velocity":95},{"deltaTime":0,"channel":9,"type":"noteOn","noteNumber":59,"velocity":95},{"deltaTime":480,"channel":9,"type":"noteOff","noteNumber":38,"velocity":95},{"deltaTime":0,"channel":9,"type":"noteOff","noteNumber":59,"velocity":95},{"deltaTime":0,"channel":9,"type":"noteOn","noteNumber":36,"velocity":95},{"deltaTime":480,"channel":9,"type":"noteOff","noteNumber":36,"velocity":95},{"deltaTime":0,"channel":9,"type":"noteOn","noteNumber":38,"velocity":95},{"deltaTime":480,"channel":9,"type":"noteOff","noteNumber":38,"velocity":95},{"deltaTime":0,"channel":9,"type":"noteOn","noteNumber":36,"velocity":95},{"deltaTime":480,"channel":9,"type":"noteOff","noteNumber":36,"velocity":95},{"deltaTime":0,"channel":9,"type":"noteOn","noteNumber":38,"velocity":95},{"deltaTime":0,"channel":9,"type":"noteOn","noteNumber":59,"velocity":95},{"deltaTime":480,"channel":9,"type":"noteOff","noteNumber":38,"velocity":95},{"deltaTime":0,"channel":9,"type":"noteOff","noteNumber":59,"velocity":95},{"deltaTime":0,"channel":9,"type":"noteOn","noteNumber":42,"velocity":95},{"deltaTime":0,"channel":9,"type":"noteOn","noteNumber":36,"velocity":95},{"deltaTime":480,"channel":9,"type":"noteOff","noteNumber":42,"velocity":95},{"deltaTime":0,"channel":9,"type":"noteOff","noteNumber":36,"velocity":95},{"deltaTime":0,"channel":9,"type":"noteOn","noteNumber":42,"velocity":95},{"deltaTime":480,"channel":9,"type":"noteOff","noteNumber":42,"velocity":95},{"deltaTime":0,"channel":9,"type":"noteOn","noteNumber":42,"velocity":95},{"deltaTime":0,"channel":9,"type":"noteOn","noteNumber":38,"velocity":95},{"deltaTime":480,"channel":9,"type":"noteOff","noteNumber":42,"velocity":95},{"deltaTime":0,"channel":9,"type":"noteOff","noteNumber":38,"velocity":95},{"deltaTime":0,"channel":9,"type":"noteOn","noteNumber":42,"velocity":95},{"deltaTime":480,"channel":9,"type":"noteOff","noteNumber":42,"velocity":95},{"deltaTime":0,"channel":9,"type":"noteOn","noteNumber":42,"velocity":95},{"deltaTime":0,"channel":9,"type":"noteOn","noteNumber":36,"velocity":95},{"deltaTime":480,"channel":9,"type":"noteOff","noteNumber":42,"velocity":95},{"deltaTime":0,"channel":9,"type":"noteOff","noteNumber":36,"velocity":95},{"deltaTime":0,"channel":9,"type":"noteOn","noteNumber":42,"velocity":95},{"deltaTime":480,"channel":9,"type":"noteOff","noteNumber":42,"velocity":95},{"deltaTime":0,"channel":9,"type":"noteOn","noteNumber":42,"velocity":95},{"deltaTime":0,"channel":9,"type":"noteOn","noteNumber":38,"velocity":95},{"deltaTime":480,"channel":9,"type":"noteOff","noteNumber":42,"velocity":95},{"deltaTime":0,"channel":9,"type":"noteOff","noteNumber":38,"velocity":95},{"deltaTime":0,"channel":9,"type":"noteOn","noteNumber":42,"velocity":95},{"deltaTime":480,"channel":9,"type":"noteOff","noteNumber":42,"velocity":95},{"deltaTime":0,"channel":9,"type":"noteOn","noteNumber":42,"velocity":95},{"deltaTime":0,"channel":9,"type":"noteOn","noteNumber":36,"velocity":95},{"deltaTime":480,"channel":9,"type":"noteOff","noteNumber":42,"velocity":95},{"deltaTime":0,"channel":9,"type":"noteOff","noteNumber":36,"velocity":95},{"deltaTime":0,"channel":9,"type":"noteOn","noteNumber":42,"velocity":95},{"deltaTime":480,"channel":9,"type":"noteOff","noteNumber":42,"velocity":95},{"deltaTime":0,"channel":9,"type":"noteOn","noteNumber":42,"velocity":95},{"deltaTime":0,"channel":9,"type":"noteOn","noteNumber":38,"velocity":95},{"deltaTime":480,"channel":9,"type":"noteOff","noteNumber":42,"velocity":95},{"deltaTime":0,"channel":9,"type":"noteOff","noteNumber":38,"velocity":95},{"deltaTime":0,"channel":9,"type":"noteOn","noteNumber":42,"velocity":95},{"deltaTime":480,"channel":9,"type":"noteOff","noteNumber":42,"velocity":95},{"deltaTime":0,"channel":9,"type":"noteOn","noteNumber":36,"velocity":95},{"deltaTime":0,"channel":9,"type":"noteOn","noteNumber":59,"velocity":95},{"deltaTime":480,"channel":9,"type":"noteOff","noteNumber":36,"velocity":95},{"deltaTime":0,"channel":9,"type":"noteOff","noteNumber":59,"velocity":95},{"deltaTime":0,"channel":9,"type":"noteOn","noteNumber":42,"velocity":95},{"deltaTime":480,"channel":9,"type":"noteOff","noteNumber":42,"velocity":95},{"deltaTime":0,"channel":9,"type":"noteOn","noteNumber":42,"velocity":95},{"deltaTime":0,"channel":9,"type":"noteOn","noteNumber":38,"velocity":95},{"deltaTime":480,"channel":9,"type":"noteOff","noteNumber":42,"velocity":95},{"deltaTime":0,"channel":9,"type":"noteOff","noteNumber":38,"velocity":95},{"deltaTime":0,"channel":9,"type":"noteOn","noteNumber":42,"velocity":95},{"deltaTime":480,"channel":9,"type":"noteOff","noteNumber":42,"velocity":95},{"deltaTime":0,"channel":9,"type":"noteOn","noteNumber":36,"velocity":95},{"deltaTime":0,"channel":9,"type":"noteOn","noteNumber":59,"velocity":95},{"deltaTime":480,"channel":9,"type":"noteOff","noteNumber":36,"velocity":95},{"deltaTime":0,"channel":9,"type":"noteOff","noteNumber":59,"velocity":95},{"deltaTime":0,"channel":9,"type":"noteOn","noteNumber":42,"velocity":95},{"deltaTime":480,"channel":9,"type":"noteOff","noteNumber":42,"velocity":95},{"deltaTime":0,"channel":9,"type":"noteOn","noteNumber":42,"velocity":95},{"deltaTime":0,"channel":9,"type":"noteOn","noteNumber":38,"velocity":95},{"deltaTime":480,"channel":9,"type":"noteOff","noteNumber":42,"velocity":95},{"deltaTime":0,"channel":9,"type":"noteOff","noteNumber":38,"velocity":95},{"deltaTime":0,"channel":9,"type":"noteOn","noteNumber":42,"velocity":95},{"deltaTime":480,"channel":9,"type":"noteOff","noteNumber":42,"velocity":95},{"deltaTime":0,"channel":9,"type":"noteOn","noteNumber":42,"velocity":95},{"deltaTime":0,"channel":9,"type":"noteOn","noteNumber":36,"velocity":95},{"deltaTime":480,"channel":9,"type":"noteOff","noteNumber":42,"velocity":95},{"deltaTime":0,"channel":9,"type":"noteOff","noteNumber":36,"velocity":95},{"deltaTime":0,"channel":9,"type":"noteOn","noteNumber":42,"velocity":95},{"deltaTime":480,"channel":9,"type":"noteOff","noteNumber":42,"velocity":95},{"deltaTime":0,"channel":9,"type":"noteOn","noteNumber":42,"velocity":95},{"deltaTime":0,"channel":9,"type":"noteOn","noteNumber":38,"velocity":95},{"deltaTime":480,"channel":9,"type":"noteOff","noteNumber":42,"velocity":95},{"deltaTime":0,"channel":9,"type":"noteOff","noteNumber":38,"velocity":95},{"deltaTime":0,"channel":9,"type":"noteOn","noteNumber":42,"velocity":95},{"deltaTime":480,"channel":9,"type":"noteOff","noteNumber":42,"velocity":95},{"deltaTime":0,"channel":9,"type":"noteOn","noteNumber":42,"velocity":95},{"deltaTime":0,"channel":9,"type":"noteOn","noteNumber":36,"velocity":95},{"deltaTime":480,"channel":9,"type":"noteOff","noteNumber":42,"velocity":95},{"deltaTime":0,"channel":9,"type":"noteOff","noteNumber":36,"velocity":95},{"deltaTime":0,"channel":9,"type":"noteOn","noteNumber":42,"velocity":95},{"deltaTime":480,"channel":9,"type":"noteOff","noteNumber":42,"velocity":95},{"deltaTime":0,"channel":9,"type":"noteOn","noteNumber":42,"velocity":95},{"deltaTime":0,"channel":9,"type":"noteOn","noteNumber":38,"velocity":95},{"deltaTime":480,"channel":9,"type":"noteOff","noteNumber":42,"velocity":95},{"deltaTime":0,"channel":9,"type":"noteOff","noteNumber":38,"velocity":95},{"deltaTime":0,"channel":9,"type":"noteOn","noteNumber":42,"velocity":95},{"deltaTime":0,"channel":9,"type":"noteOn","noteNumber":36,"velocity":95},{"deltaTime":480,"channel":9,"type":"noteOff","noteNumber":42,"velocity":95},{"deltaTime":0,"channel":9,"type":"noteOff","noteNumber":36,"velocity":95},{"deltaTime":0,"channel":9,"type":"noteOn","noteNumber":38,"velocity":95},{"deltaTime":0,"channel":9,"type":"noteOn","noteNumber":59,"velocity":95},{"deltaTime":960,"channel":9,"type":"noteOff","noteNumber":38,"velocity":95},{"deltaTime":0,"channel":9,"type":"noteOff","noteNumber":59,"velocity":95},{"deltaTime":0,"channel":9,"type":"noteOn","noteNumber":38,"velocity":95},{"deltaTime":0,"channel":9,"type":"noteOn","noteNumber":59,"velocity":95},{"deltaTime":960,"channel":9,"type":"noteOff","noteNumber":38,"velocity":95},{"deltaTime":0,"channel":9,"type":"noteOff","noteNumber":59,"velocity":95},{"deltaTime":0,"channel":9,"type":"noteOn","noteNumber":36,"velocity":95},{"deltaTime":0,"channel":9,"type":"noteOn","noteNumber":59,"velocity":95},{"deltaTime":480,"channel":9,"type":"noteOff","noteNumber":36,"velocity":95},{"deltaTime":0,"channel":9,"type":"noteOff","noteNumber":59,"velocity":95},{"deltaTime":0,"channel":9,"type":"noteOn","noteNumber":42,"velocity":95},{"deltaTime":480,"channel":9,"type":"noteOff","noteNumber":42,"velocity":95},{"deltaTime":0,"channel":9,"type":"noteOn","noteNumber":42,"velocity":95},{"deltaTime":0,"channel":9,"type":"noteOn","noteNumber":38,"velocity":95},{"deltaTime":480,"channel":9,"type":"noteOff","noteNumber":42,"velocity":95},{"deltaTime":0,"channel":9,"type":"noteOff","noteNumber":38,"velocity":95},{"deltaTime":0,"channel":9,"type":"noteOn","noteNumber":42,"velocity":95},{"deltaTime":480,"channel":9,"type":"noteOff","noteNumber":42,"velocity":95},{"deltaTime":0,"channel":9,"type":"noteOn","noteNumber":42,"velocity":95},{"deltaTime":0,"channel":9,"type":"noteOn","noteNumber":36,"velocity":95},{"deltaTime":480,"channel":9,"type":"noteOff","noteNumber":42,"velocity":95},{"deltaTime":0,"channel":9,"type":"noteOff","noteNumber":36,"velocity":95},{"deltaTime":0,"channel":9,"type":"noteOn","noteNumber":42,"velocity":95},{"deltaTime":480,"channel":9,"type":"noteOff","noteNumber":42,"velocity":95},{"deltaTime":0,"channel":9,"type":"noteOn","noteNumber":42,"velocity":95},{"deltaTime":0,"channel":9,"type":"noteOn","noteNumber":38,"velocity":95},{"deltaTime":480,"channel":9,"type":"noteOff","noteNumber":42,"velocity":95},{"deltaTime":0,"channel":9,"type":"noteOff","noteNumber":38,"velocity":95},{"deltaTime":0,"channel":9,"type":"noteOn","noteNumber":42,"velocity":95},{"deltaTime":480,"channel":9,"type":"noteOff","noteNumber":42,"velocity":95},{"deltaTime":0,"channel":9,"type":"noteOn","noteNumber":42,"velocity":95},{"deltaTime":0,"channel":9,"type":"noteOn","noteNumber":36,"velocity":95},{"deltaTime":480,"channel":9,"type":"noteOff","noteNumber":42,"velocity":95},{"deltaTime":0,"channel":9,"type":"noteOff","noteNumber":36,"velocity":95},{"deltaTime":0,"channel":9,"type":"noteOn","noteNumber":42,"velocity":95},{"deltaTime":480,"channel":9,"type":"noteOff","noteNumber":42,"velocity":95},{"deltaTime":0,"channel":9,"type":"noteOn","noteNumber":42,"velocity":95},{"deltaTime":0,"channel":9,"type":"noteOn","noteNumber":38,"velocity":95},{"deltaTime":480,"channel":9,"type":"noteOff","noteNumber":42,"velocity":95},{"deltaTime":0,"channel":9,"type":"noteOff","noteNumber":38,"velocity":95},{"deltaTime":0,"channel":9,"type":"noteOn","noteNumber":42,"velocity":95},{"deltaTime":480,"channel":9,"type":"noteOff","noteNumber":42,"velocity":95},{"deltaTime":0,"channel":9,"type":"noteOn","noteNumber":42,"velocity":95},{"deltaTime":0,"channel":9,"type":"noteOn","noteNumber":36,"velocity":95},{"deltaTime":480,"channel":9,"type":"noteOff","noteNumber":42,"velocity":95},{"deltaTime":0,"channel":9,"type":"noteOff","noteNumber":36,"velocity":95},{"deltaTime":0,"channel":9,"type":"noteOn","noteNumber":42,"velocity":95},{"deltaTime":480,"channel":9,"type":"noteOff","noteNumber":42,"velocity":95},{"deltaTime":0,"channel":9,"type":"noteOn","noteNumber":42,"velocity":95},{"deltaTime":0,"channel":9,"type":"noteOn","noteNumber":38,"velocity":95},{"deltaTime":480,"channel":9,"type":"noteOff","noteNumber":42,"velocity":95},{"deltaTime":0,"channel":9,"type":"noteOff","noteNumber":38,"velocity":95},{"deltaTime":0,"channel":9,"type":"noteOn","noteNumber":42,"velocity":95},{"deltaTime":480,"channel":9,"type":"noteOff","noteNumber":42,"velocity":95},{"deltaTime":0,"channel":9,"type":"noteOn","noteNumber":42,"velocity":95},{"deltaTime":0,"channel":9,"type":"noteOn","noteNumber":36,"velocity":95},{"deltaTime":480,"channel":9,"type":"noteOff","noteNumber":42,"velocity":95},{"deltaTime":0,"channel":9,"type":"noteOff","noteNumber":36,"velocity":95},{"deltaTime":0,"channel":9,"type":"noteOn","noteNumber":42,"velocity":95},{"deltaTime":480,"channel":9,"type":"noteOff","noteNumber":42,"velocity":95},{"deltaTime":0,"channel":9,"type":"noteOn","noteNumber":42,"velocity":95},{"deltaTime":0,"channel":9,"type":"noteOn","noteNumber":38,"velocity":95},{"deltaTime":480,"channel":9,"type":"noteOff","noteNumber":42,"velocity":95},{"deltaTime":0,"channel":9,"type":"noteOff","noteNumber":38,"velocity":95},{"deltaTime":0,"channel":9,"type":"noteOn","noteNumber":42,"velocity":95},{"deltaTime":480,"channel":9,"type":"noteOff","noteNumber":42,"velocity":95},{"deltaTime":0,"channel":9,"type":"noteOn","noteNumber":42,"velocity":95},{"deltaTime":0,"channel":9,"type":"noteOn","noteNumber":36,"velocity":95},{"deltaTime":480,"channel":9,"type":"noteOff","noteNumber":42,"velocity":95},{"deltaTime":0,"channel":9,"type":"noteOff","noteNumber":36,"velocity":95},{"deltaTime":0,"channel":9,"type":"noteOn","noteNumber":42,"velocity":95},{"deltaTime":480,"channel":9,"type":"noteOff","noteNumber":42,"velocity":95},{"deltaTime":0,"channel":9,"type":"noteOn","noteNumber":42,"velocity":95},{"deltaTime":0,"channel":9,"type":"noteOn","noteNumber":38,"velocity":95},{"deltaTime":480,"channel":9,"type":"noteOff","noteNumber":42,"velocity":95},{"deltaTime":0,"channel":9,"type":"noteOff","noteNumber":38,"velocity":95},{"deltaTime":0,"channel":9,"type":"noteOn","noteNumber":42,"velocity":95},{"deltaTime":480,"channel":9,"type":"noteOff","noteNumber":42,"velocity":95},{"deltaTime":0,"channel":9,"type":"noteOn","noteNumber":42,"velocity":95},{"deltaTime":0,"channel":9,"type":"noteOn","noteNumber":36,"velocity":95},{"deltaTime":480,"channel":9,"type":"noteOff","noteNumber":42,"velocity":95},{"deltaTime":0,"channel":9,"type":"noteOff","noteNumber":36,"velocity":95},{"deltaTime":0,"channel":9,"type":"noteOn","noteNumber":42,"velocity":95},{"deltaTime":480,"channel":9,"type":"noteOff","noteNumber":42,"velocity":95},{"deltaTime":0,"channel":9,"type":"noteOn","noteNumber":42,"velocity":95},{"deltaTime":0,"channel":9,"type":"noteOn","noteNumber":38,"velocity":95},{"deltaTime":480,"channel":9,"type":"noteOff","noteNumber":42,"velocity":95},{"deltaTime":0,"channel":9,"type":"noteOff","noteNumber":38,"velocity":95},{"deltaTime":0,"channel":9,"type":"noteOn","noteNumber":42,"velocity":95},{"deltaTime":480,"channel":9,"type":"noteOff","noteNumber":42,"velocity":95},{"deltaTime":0,"channel":9,"type":"noteOn","noteNumber":42,"velocity":95},{"deltaTime":0,"channel":9,"type":"noteOn","noteNumber":36,"velocity":95},{"deltaTime":480,"channel":9,"type":"noteOff","noteNumber":42,"velocity":95},{"deltaTime":0,"channel":9,"type":"noteOff","noteNumber":36,"velocity":95},{"deltaTime":0,"channel":9,"type":"noteOn","noteNumber":42,"velocity":95},{"deltaTime":480,"channel":9,"type":"noteOff","noteNumber":42,"velocity":95},{"deltaTime":0,"channel":9,"type":"noteOn","noteNumber":42,"velocity":95},{"deltaTime":0,"channel":9,"type":"noteOn","noteNumber":38,"velocity":95},{"deltaTime":480,"channel":9,"type":"noteOff","noteNumber":42,"velocity":95},{"deltaTime":0,"channel":9,"type":"noteOff","noteNumber":38,"velocity":95},{"deltaTime":0,"channel":9,"type":"noteOn","noteNumber":42,"velocity":95},{"deltaTime":480,"channel":9,"type":"noteOff","noteNumber":42,"velocity":95},{"deltaTime":0,"channel":9,"type":"noteOn","noteNumber":42,"velocity":95},{"deltaTime":0,"channel":9,"type":"noteOn","noteNumber":36,"velocity":95},{"deltaTime":480,"channel":9,"type":"noteOff","noteNumber":42,"velocity":95},{"deltaTime":0,"channel":9,"type":"noteOff","noteNumber":36,"velocity":95},{"deltaTime":0,"channel":9,"type":"noteOn","noteNumber":42,"velocity":95},{"deltaTime":480,"channel":9,"type":"noteOff","noteNumber":42,"velocity":95},{"deltaTime":0,"channel":9,"type":"noteOn","noteNumber":42,"velocity":95},{"deltaTime":0,"channel":9,"type":"noteOn","noteNumber":38,"velocity":95},{"deltaTime":480,"channel":9,"type":"noteOff","noteNumber":42,"velocity":95},{"deltaTime":0,"channel":9,"type":"noteOff","noteNumber":38,"velocity":95},{"deltaTime":0,"channel":9,"type":"noteOn","noteNumber":42,"velocity":95},{"deltaTime":480,"channel":9,"type":"noteOff","noteNumber":42,"velocity":95},{"deltaTime":0,"channel":9,"type":"noteOn","noteNumber":42,"velocity":95},{"deltaTime":0,"channel":9,"type":"noteOn","noteNumber":36,"velocity":95},{"deltaTime":480,"channel":9,"type":"noteOff","noteNumber":42,"velocity":95},{"deltaTime":0,"channel":9,"type":"noteOff","noteNumber":36,"velocity":95},{"deltaTime":0,"channel":9,"type":"noteOn","noteNumber":42,"velocity":95},{"deltaTime":480,"channel":9,"type":"noteOff","noteNumber":42,"velocity":95},{"deltaTime":0,"channel":9,"type":"noteOn","noteNumber":42,"velocity":95},{"deltaTime":0,"channel":9,"type":"noteOn","noteNumber":38,"velocity":95},{"deltaTime":480,"channel":9,"type":"noteOff","noteNumber":42,"velocity":95},{"deltaTime":0,"channel":9,"type":"noteOff","noteNumber":38,"velocity":95},{"deltaTime":0,"channel":9,"type":"noteOn","noteNumber":42,"velocity":95},{"deltaTime":480,"channel":9,"type":"noteOff","noteNumber":42,"velocity":95},{"deltaTime":0,"channel":9,"type":"noteOn","noteNumber":42,"velocity":95},{"deltaTime":0,"channel":9,"type":"noteOn","noteNumber":36,"velocity":95},{"deltaTime":480,"channel":9,"type":"noteOff","noteNumber":42,"velocity":95},{"deltaTime":0,"channel":9,"type":"noteOff","noteNumber":36,"velocity":95},{"deltaTime":0,"channel":9,"type":"noteOn","noteNumber":42,"velocity":95},{"deltaTime":480,"channel":9,"type":"noteOff","noteNumber":42,"velocity":95},{"deltaTime":0,"channel":9,"type":"noteOn","noteNumber":42,"velocity":95},{"deltaTime":0,"channel":9,"type":"noteOn","noteNumber":38,"velocity":95},{"deltaTime":480,"channel":9,"type":"noteOff","noteNumber":42,"velocity":95},{"deltaTime":0,"channel":9,"type":"noteOff","noteNumber":38,"velocity":95},{"deltaTime":0,"channel":9,"type":"noteOn","noteNumber":42,"velocity":95},{"deltaTime":480,"channel":9,"type":"noteOff","noteNumber":42,"velocity":95},{"deltaTime":0,"channel":9,"type":"noteOn","noteNumber":42,"velocity":95},{"deltaTime":0,"channel":9,"type":"noteOn","noteNumber":36,"velocity":95},{"deltaTime":480,"channel":9,"type":"noteOff","noteNumber":42,"velocity":95},{"deltaTime":0,"channel":9,"type":"noteOff","noteNumber":36,"velocity":95},{"deltaTime":0,"channel":9,"type":"noteOn","noteNumber":42,"velocity":95},{"deltaTime":480,"channel":9,"type":"noteOff","noteNumber":42,"velocity":95},{"deltaTime":0,"channel":9,"type":"noteOn","noteNumber":42,"velocity":95},{"deltaTime":0,"channel":9,"type":"noteOn","noteNumber":38,"velocity":95},{"deltaTime":480,"channel":9,"type":"noteOff","noteNumber":42,"velocity":95},{"deltaTime":0,"channel":9,"type":"noteOff","noteNumber":38,"velocity":95},{"deltaTime":0,"channel":9,"type":"noteOn","noteNumber":42,"velocity":95},{"deltaTime":480,"channel":9,"type":"noteOff","noteNumber":42,"velocity":95},{"deltaTime":0,"channel":9,"type":"noteOn","noteNumber":42,"velocity":95},{"deltaTime":0,"channel":9,"type":"noteOn","noteNumber":36,"velocity":95},{"deltaTime":480,"channel":9,"type":"noteOff","noteNumber":42,"velocity":95},{"deltaTime":0,"channel":9,"type":"noteOff","noteNumber":36,"velocity":95},{"deltaTime":0,"channel":9,"type":"noteOn","noteNumber":42,"velocity":95},{"deltaTime":480,"channel":9,"type":"noteOff","noteNumber":42,"velocity":95},{"deltaTime":0,"channel":9,"type":"noteOn","noteNumber":42,"velocity":95},{"deltaTime":0,"channel":9,"type":"noteOn","noteNumber":38,"velocity":95},{"deltaTime":480,"channel":9,"type":"noteOff","noteNumber":42,"velocity":95},{"deltaTime":0,"channel":9,"type":"noteOff","noteNumber":38,"velocity":95},{"deltaTime":0,"channel":9,"type":"noteOn","noteNumber":42,"velocity":95},{"deltaTime":480,"channel":9,"type":"noteOff","noteNumber":42,"velocity":95},{"deltaTime":0,"channel":9,"type":"noteOn","noteNumber":42,"velocity":95},{"deltaTime":0,"channel":9,"type":"noteOn","noteNumber":36,"velocity":95},{"deltaTime":480,"channel":9,"type":"noteOff","noteNumber":42,"velocity":95},{"deltaTime":0,"channel":9,"type":"noteOff","noteNumber":36,"velocity":95},{"deltaTime":0,"channel":9,"type":"noteOn","noteNumber":42,"velocity":95},{"deltaTime":480,"channel":9,"type":"noteOff","noteNumber":42,"velocity":95},{"deltaTime":0,"channel":9,"type":"noteOn","noteNumber":42,"velocity":95},{"deltaTime":0,"channel":9,"type":"noteOn","noteNumber":38,"velocity":95},{"deltaTime":480,"channel":9,"type":"noteOff","noteNumber":42,"velocity":95},{"deltaTime":0,"channel":9,"type":"noteOff","noteNumber":38,"velocity":95},{"deltaTime":0,"channel":9,"type":"noteOn","noteNumber":42,"velocity":95},{"deltaTime":480,"channel":9,"type":"noteOff","noteNumber":42,"velocity":95},{"deltaTime":0,"channel":9,"type":"noteOn","noteNumber":42,"velocity":95},{"deltaTime":0,"channel":9,"type":"noteOn","noteNumber":36,"velocity":95},{"deltaTime":480,"channel":9,"type":"noteOff","noteNumber":42,"velocity":95},{"deltaTime":0,"channel":9,"type":"noteOff","noteNumber":36,"velocity":95},{"deltaTime":0,"channel":9,"type":"noteOn","noteNumber":42,"velocity":95},{"deltaTime":0,"channel":9,"type":"noteOn","noteNumber":36,"velocity":95},{"deltaTime":480,"channel":9,"type":"noteOff","noteNumber":42,"velocity":95},{"deltaTime":0,"channel":9,"type":"noteOff","noteNumber":36,"velocity":95},{"deltaTime":0,"channel":9,"type":"noteOn","noteNumber":42,"velocity":95},{"deltaTime":0,"channel":9,"type":"noteOn","noteNumber":38,"velocity":95},{"deltaTime":480,"channel":9,"type":"noteOff","noteNumber":42,"velocity":95},{"deltaTime":0,"channel":9,"type":"noteOff","noteNumber":38,"velocity":95},{"deltaTime":0,"channel":9,"type":"noteOn","noteNumber":42,"velocity":95},{"deltaTime":480,"channel":9,"type":"noteOff","noteNumber":42,"velocity":95},{"deltaTime":0,"channel":9,"type":"noteOn","noteNumber":42,"velocity":95},{"deltaTime":0,"channel":9,"type":"noteOn","noteNumber":36,"velocity":95},{"deltaTime":480,"channel":9,"type":"noteOff","noteNumber":42,"velocity":95},{"deltaTime":0,"channel":9,"type":"noteOff","noteNumber":36,"velocity":95},{"deltaTime":0,"channel":9,"type":"noteOn","noteNumber":42,"velocity":95},{"deltaTime":480,"channel":9,"type":"noteOff","noteNumber":42,"velocity":95},{"deltaTime":0,"channel":9,"type":"noteOn","noteNumber":42,"velocity":95},{"deltaTime":0,"channel":9,"type":"noteOn","noteNumber":38,"velocity":95},{"deltaTime":480,"channel":9,"type":"noteOff","noteNumber":42,"velocity":95},{"deltaTime":0,"channel":9,"type":"noteOff","noteNumber":38,"velocity":95},{"deltaTime":0,"channel":9,"type":"noteOn","noteNumber":42,"velocity":95},{"deltaTime":480,"channel":9,"type":"noteOff","noteNumber":42,"velocity":95},{"deltaTime":0,"channel":9,"type":"noteOn","noteNumber":36,"velocity":95},{"deltaTime":0,"channel":9,"type":"noteOn","noteNumber":59,"velocity":95},{"deltaTime":480,"channel":9,"type":"noteOff","noteNumber":36,"velocity":95},{"deltaTime":0,"channel":9,"type":"noteOff","noteNumber":59,"velocity":95},{"deltaTime":0,"channel":9,"type":"noteOn","noteNumber":42,"velocity":95},{"deltaTime":480,"channel":9,"type":"noteOff","noteNumber":42,"velocity":95},{"deltaTime":0,"channel":9,"type":"noteOn","noteNumber":42,"velocity":95},{"deltaTime":0,"channel":9,"type":"noteOn","noteNumber":38,"velocity":95},{"deltaTime":480,"channel":9,"type":"noteOff","noteNumber":42,"velocity":95},{"deltaTime":0,"channel":9,"type":"noteOff","noteNumber":38,"velocity":95},{"deltaTime":0,"channel":9,"type":"noteOn","noteNumber":42,"velocity":95},{"deltaTime":480,"channel":9,"type":"noteOff","noteNumber":42,"velocity":95},{"deltaTime":0,"channel":9,"type":"noteOn","noteNumber":42,"velocity":95},{"deltaTime":0,"channel":9,"type":"noteOn","noteNumber":36,"velocity":95},{"deltaTime":480,"channel":9,"type":"noteOff","noteNumber":42,"velocity":95},{"deltaTime":0,"channel":9,"type":"noteOff","noteNumber":36,"velocity":95},{"deltaTime":0,"channel":9,"type":"noteOn","noteNumber":42,"velocity":95},{"deltaTime":480,"channel":9,"type":"noteOff","noteNumber":42,"velocity":95},{"deltaTime":0,"channel":9,"type":"noteOn","noteNumber":42,"velocity":95},{"deltaTime":0,"channel":9,"type":"noteOn","noteNumber":38,"velocity":95},{"deltaTime":480,"channel":9,"type":"noteOff","noteNumber":42,"velocity":95},{"deltaTime":0,"channel":9,"type":"noteOff","noteNumber":38,"velocity":95},{"deltaTime":0,"channel":9,"type":"noteOn","noteNumber":42,"velocity":95},{"deltaTime":480,"channel":9,"type":"noteOff","noteNumber":42,"velocity":95},{"deltaTime":0,"channel":9,"type":"noteOn","noteNumber":42,"velocity":95},{"deltaTime":0,"channel":9,"type":"noteOn","noteNumber":36,"velocity":95},{"deltaTime":480,"channel":9,"type":"noteOff","noteNumber":42,"velocity":95},{"deltaTime":0,"channel":9,"type":"noteOff","noteNumber":36,"velocity":95},{"deltaTime":0,"channel":9,"type":"noteOn","noteNumber":42,"velocity":95},{"deltaTime":480,"channel":9,"type":"noteOff","noteNumber":42,"velocity":95},{"deltaTime":0,"channel":9,"type":"noteOn","noteNumber":42,"velocity":95},{"deltaTime":0,"channel":9,"type":"noteOn","noteNumber":38,"velocity":95},{"deltaTime":480,"channel":9,"type":"noteOff","noteNumber":42,"velocity":95},{"deltaTime":0,"channel":9,"type":"noteOff","noteNumber":38,"velocity":95},{"deltaTime":0,"channel":9,"type":"noteOn","noteNumber":42,"velocity":95},{"deltaTime":480,"channel":9,"type":"noteOff","noteNumber":42,"velocity":95},{"deltaTime":0,"channel":9,"type":"noteOn","noteNumber":36,"velocity":95},{"deltaTime":0,"channel":9,"type":"noteOn","noteNumber":59,"velocity":95},{"deltaTime":480,"channel":9,"type":"noteOff","noteNumber":36,"velocity":95},{"deltaTime":0,"channel":9,"type":"noteOff","noteNumber":59,"velocity":95},{"deltaTime":0,"channel":9,"type":"noteOn","noteNumber":42,"velocity":95},{"deltaTime":480,"channel":9,"type":"noteOff","noteNumber":42,"velocity":95},{"deltaTime":0,"channel":9,"type":"noteOn","noteNumber":42,"velocity":95},{"deltaTime":0,"channel":9,"type":"noteOn","noteNumber":38,"velocity":95},{"deltaTime":480,"channel":9,"type":"noteOff","noteNumber":42,"velocity":95},{"deltaTime":0,"channel":9,"type":"noteOff","noteNumber":38,"velocity":95},{"deltaTime":0,"channel":9,"type":"noteOn","noteNumber":42,"velocity":95},{"deltaTime":480,"channel":9,"type":"noteOff","noteNumber":42,"velocity":95},{"deltaTime":0,"channel":9,"type":"noteOn","noteNumber":36,"velocity":95},{"deltaTime":0,"channel":9,"type":"noteOn","noteNumber":59,"velocity":95},{"deltaTime":480,"channel":9,"type":"noteOff","noteNumber":36,"velocity":95},{"deltaTime":0,"channel":9,"type":"noteOff","noteNumber":59,"velocity":95},{"deltaTime":0,"channel":9,"type":"noteOn","noteNumber":42,"velocity":95},{"deltaTime":480,"channel":9,"type":"noteOff","noteNumber":42,"velocity":95},{"deltaTime":0,"channel":9,"type":"noteOn","noteNumber":42,"velocity":95},{"deltaTime":0,"channel":9,"type":"noteOn","noteNumber":38,"velocity":95},{"deltaTime":480,"channel":9,"type":"noteOff","noteNumber":42,"velocity":95},{"deltaTime":0,"channel":9,"type":"noteOff","noteNumber":38,"velocity":95},{"deltaTime":0,"channel":9,"type":"noteOn","noteNumber":42,"velocity":95},{"deltaTime":480,"channel":9,"type":"noteOff","noteNumber":42,"velocity":95},{"deltaTime":0,"channel":9,"type":"noteOn","noteNumber":42,"velocity":95},{"deltaTime":0,"channel":9,"type":"noteOn","noteNumber":36,"velocity":95},{"deltaTime":480,"channel":9,"type":"noteOff","noteNumber":42,"velocity":95},{"deltaTime":0,"channel":9,"type":"noteOff","noteNumber":36,"velocity":95},{"deltaTime":0,"channel":9,"type":"noteOn","noteNumber":42,"velocity":95},{"deltaTime":480,"channel":9,"type":"noteOff","noteNumber":42,"velocity":95},{"deltaTime":0,"channel":9,"type":"noteOn","noteNumber":42,"velocity":95},{"deltaTime":0,"channel":9,"type":"noteOn","noteNumber":38,"velocity":95},{"deltaTime":480,"channel":9,"type":"noteOff","noteNumber":42,"velocity":95},{"deltaTime":0,"channel":9,"type":"noteOff","noteNumber":38,"velocity":95},{"deltaTime":0,"channel":9,"type":"noteOn","noteNumber":42,"velocity":95},{"deltaTime":480,"channel":9,"type":"noteOff","noteNumber":42,"velocity":95},{"deltaTime":0,"channel":9,"type":"noteOn","noteNumber":42,"velocity":95},{"deltaTime":0,"channel":9,"type":"noteOn","noteNumber":36,"velocity":95},{"deltaTime":480,"channel":9,"type":"noteOff","noteNumber":42,"velocity":95},{"deltaTime":0,"channel":9,"type":"noteOff","noteNumber":36,"velocity":95},{"deltaTime":0,"channel":9,"type":"noteOn","noteNumber":42,"velocity":95},{"deltaTime":480,"channel":9,"type":"noteOff","noteNumber":42,"velocity":95},{"deltaTime":0,"channel":9,"type":"noteOn","noteNumber":42,"velocity":95},{"deltaTime":0,"channel":9,"type":"noteOn","noteNumber":38,"velocity":95},{"deltaTime":480,"channel":9,"type":"noteOff","noteNumber":42,"velocity":95},{"deltaTime":0,"channel":9,"type":"noteOff","noteNumber":38,"velocity":95},{"deltaTime":0,"channel":9,"type":"noteOn","noteNumber":42,"velocity":95},{"deltaTime":480,"channel":9,"type":"noteOff","noteNumber":42,"velocity":95},{"deltaTime":0,"channel":9,"type":"noteOn","noteNumber":36,"velocity":95},{"deltaTime":0,"channel":9,"type":"noteOn","noteNumber":59,"velocity":95},{"deltaTime":480,"channel":9,"type":"noteOff","noteNumber":36,"velocity":95},{"deltaTime":0,"channel":9,"type":"noteOff","noteNumber":59,"velocity":95},{"deltaTime":0,"channel":9,"type":"noteOn","noteNumber":42,"velocity":95},{"deltaTime":480,"channel":9,"type":"noteOff","noteNumber":42,"velocity":95},{"deltaTime":0,"channel":9,"type":"noteOn","noteNumber":42,"velocity":95},{"deltaTime":0,"channel":9,"type":"noteOn","noteNumber":38,"velocity":95},{"deltaTime":480,"channel":9,"type":"noteOff","noteNumber":42,"velocity":95},{"deltaTime":0,"channel":9,"type":"noteOff","noteNumber":38,"velocity":95},{"deltaTime":0,"channel":9,"type":"noteOn","noteNumber":42,"velocity":95},{"deltaTime":480,"channel":9,"type":"noteOff","noteNumber":42,"velocity":95},{"deltaTime":0,"channel":9,"type":"noteOn","noteNumber":36,"velocity":95},{"deltaTime":0,"channel":9,"type":"noteOn","noteNumber":59,"velocity":95},{"deltaTime":480,"channel":9,"type":"noteOff","noteNumber":36,"velocity":95},{"deltaTime":0,"channel":9,"type":"noteOff","noteNumber":59,"velocity":95},{"deltaTime":0,"channel":9,"type":"noteOn","noteNumber":42,"velocity":95},{"deltaTime":480,"channel":9,"type":"noteOff","noteNumber":42,"velocity":95},{"deltaTime":0,"channel":9,"type":"noteOn","noteNumber":42,"velocity":95},{"deltaTime":0,"channel":9,"type":"noteOn","noteNumber":38,"velocity":95},{"deltaTime":480,"channel":9,"type":"noteOff","noteNumber":42,"velocity":95},{"deltaTime":0,"channel":9,"type":"noteOff","noteNumber":38,"velocity":95},{"deltaTime":0,"channel":9,"type":"noteOn","noteNumber":42,"velocity":95},{"deltaTime":480,"channel":9,"type":"noteOff","noteNumber":42,"velocity":95},{"deltaTime":0,"channel":9,"type":"noteOn","noteNumber":42,"velocity":95},{"deltaTime":0,"channel":9,"type":"noteOn","noteNumber":36,"velocity":95},{"deltaTime":480,"channel":9,"type":"noteOff","noteNumber":42,"velocity":95},{"deltaTime":0,"channel":9,"type":"noteOff","noteNumber":36,"velocity":95},{"deltaTime":0,"channel":9,"type":"noteOn","noteNumber":42,"velocity":95},{"deltaTime":480,"channel":9,"type":"noteOff","noteNumber":42,"velocity":95},{"deltaTime":0,"channel":9,"type":"noteOn","noteNumber":42,"velocity":95},{"deltaTime":0,"channel":9,"type":"noteOn","noteNumber":38,"velocity":95},{"deltaTime":480,"channel":9,"type":"noteOff","noteNumber":42,"velocity":95},{"deltaTime":0,"channel":9,"type":"noteOff","noteNumber":38,"velocity":95},{"deltaTime":0,"channel":9,"type":"noteOn","noteNumber":42,"velocity":95},{"deltaTime":480,"channel":9,"type":"noteOff","noteNumber":42,"velocity":95},{"deltaTime":0,"channel":9,"type":"noteOn","noteNumber":42,"velocity":95},{"deltaTime":0,"channel":9,"type":"noteOn","noteNumber":36,"velocity":95},{"deltaTime":480,"channel":9,"type":"noteOff","noteNumber":42,"velocity":95},{"deltaTime":0,"channel":9,"type":"noteOff","noteNumber":36,"velocity":95},{"deltaTime":0,"channel":9,"type":"noteOn","noteNumber":42,"velocity":95},{"deltaTime":480,"channel":9,"type":"noteOff","noteNumber":42,"velocity":95},{"deltaTime":0,"channel":9,"type":"noteOn","noteNumber":42,"velocity":95},{"deltaTime":0,"channel":9,"type":"noteOn","noteNumber":38,"velocity":95},{"deltaTime":480,"channel":9,"type":"noteOff","noteNumber":42,"velocity":95},{"deltaTime":0,"channel":9,"type":"noteOff","noteNumber":38,"velocity":95},{"deltaTime":0,"channel":9,"type":"noteOn","noteNumber":42,"velocity":95},{"deltaTime":480,"channel":9,"type":"noteOff","noteNumber":42,"velocity":95},{"deltaTime":0,"channel":9,"type":"noteOn","noteNumber":36,"velocity":95},{"deltaTime":0,"channel":9,"type":"noteOn","noteNumber":59,"velocity":95},{"deltaTime":480,"channel":9,"type":"noteOff","noteNumber":36,"velocity":95},{"deltaTime":0,"channel":9,"type":"noteOff","noteNumber":59,"velocity":95},{"deltaTime":0,"channel":9,"type":"noteOn","noteNumber":42,"velocity":95},{"deltaTime":480,"channel":9,"type":"noteOff","noteNumber":42,"velocity":95},{"deltaTime":0,"channel":9,"type":"noteOn","noteNumber":42,"velocity":95},{"deltaTime":0,"channel":9,"type":"noteOn","noteNumber":38,"velocity":95},{"deltaTime":480,"channel":9,"type":"noteOff","noteNumber":42,"velocity":95},{"deltaTime":0,"channel":9,"type":"noteOff","noteNumber":38,"velocity":95},{"deltaTime":0,"channel":9,"type":"noteOn","noteNumber":42,"velocity":95},{"deltaTime":480,"channel":9,"type":"noteOff","noteNumber":42,"velocity":95},{"deltaTime":0,"channel":9,"type":"noteOn","noteNumber":36,"velocity":95},{"deltaTime":0,"channel":9,"type":"noteOn","noteNumber":59,"velocity":95},{"deltaTime":480,"channel":9,"type":"noteOff","noteNumber":36,"velocity":95},{"deltaTime":0,"channel":9,"type":"noteOff","noteNumber":59,"velocity":95},{"deltaTime":0,"channel":9,"type":"noteOn","noteNumber":42,"velocity":95},{"deltaTime":480,"channel":9,"type":"noteOff","noteNumber":42,"velocity":95},{"deltaTime":0,"channel":9,"type":"noteOn","noteNumber":42,"velocity":95},{"deltaTime":0,"channel":9,"type":"noteOn","noteNumber":38,"velocity":95},{"deltaTime":480,"channel":9,"type":"noteOff","noteNumber":42,"velocity":95},{"deltaTime":0,"channel":9,"type":"noteOff","noteNumber":38,"velocity":95},{"deltaTime":0,"channel":9,"type":"noteOn","noteNumber":42,"velocity":95},{"deltaTime":480,"channel":9,"type":"noteOff","noteNumber":42,"velocity":95},{"deltaTime":0,"channel":9,"type":"noteOn","noteNumber":42,"velocity":95},{"deltaTime":0,"channel":9,"type":"noteOn","noteNumber":36,"velocity":95},{"deltaTime":480,"channel":9,"type":"noteOff","noteNumber":42,"velocity":95},{"deltaTime":0,"channel":9,"type":"noteOff","noteNumber":36,"velocity":95},{"deltaTime":0,"channel":9,"type":"noteOn","noteNumber":42,"velocity":95},{"deltaTime":480,"channel":9,"type":"noteOff","noteNumber":42,"velocity":95},{"deltaTime":0,"channel":9,"type":"noteOn","noteNumber":42,"velocity":95},{"deltaTime":0,"channel":9,"type":"noteOn","noteNumber":38,"velocity":95},{"deltaTime":480,"channel":9,"type":"noteOff","noteNumber":42,"velocity":95},{"deltaTime":0,"channel":9,"type":"noteOff","noteNumber":38,"velocity":95},{"deltaTime":0,"channel":9,"type":"noteOn","noteNumber":42,"velocity":95},{"deltaTime":480,"channel":9,"type":"noteOff","noteNumber":42,"velocity":95},{"deltaTime":0,"channel":9,"type":"noteOn","noteNumber":42,"velocity":95},{"deltaTime":0,"channel":9,"type":"noteOn","noteNumber":36,"velocity":95},{"deltaTime":480,"channel":9,"type":"noteOff","noteNumber":42,"velocity":95},{"deltaTime":0,"channel":9,"type":"noteOff","noteNumber":36,"velocity":95},{"deltaTime":0,"channel":9,"type":"noteOn","noteNumber":42,"velocity":95},{"deltaTime":0,"channel":9,"type":"noteOn","noteNumber":38,"velocity":95},{"deltaTime":480,"channel":9,"type":"noteOff","noteNumber":42,"velocity":95},{"deltaTime":0,"channel":9,"type":"noteOff","noteNumber":38,"velocity":95},{"deltaTime":0,"channel":9,"type":"noteOn","noteNumber":42,"velocity":95},{"deltaTime":0,"channel":9,"type":"noteOn","noteNumber":36,"velocity":95},{"deltaTime":480,"channel":9,"type":"noteOff","noteNumber":42,"velocity":95},{"deltaTime":0,"channel":9,"type":"noteOff","noteNumber":36,"velocity":95},{"deltaTime":0,"channel":9,"type":"noteOn","noteNumber":42,"velocity":95},{"deltaTime":0,"channel":9,"type":"noteOn","noteNumber":38,"velocity":95},{"deltaTime":480,"channel":9,"type":"noteOff","noteNumber":42,"velocity":95},{"deltaTime":0,"channel":9,"type":"noteOff","noteNumber":38,"velocity":95},{"deltaTime":0,"channel":9,"type":"noteOn","noteNumber":38,"velocity":95},{"deltaTime":480,"channel":9,"type":"noteOff","noteNumber":38,"velocity":95},{"deltaTime":0,"channel":9,"type":"noteOn","noteNumber":36,"velocity":95},{"deltaTime":480,"channel":9,"type":"noteOff","noteNumber":36,"velocity":95},{"deltaTime":0,"channel":9,"type":"noteOn","noteNumber":38,"velocity":95},{"deltaTime":480,"channel":9,"type":"noteOff","noteNumber":38,"velocity":95},{"deltaTime":0,"channel":9,"type":"noteOn","noteNumber":36,"velocity":95},{"deltaTime":480,"channel":9,"type":"noteOff","noteNumber":36,"velocity":95},{"deltaTime":0,"channel":9,"type":"noteOn","noteNumber":36,"velocity":95},{"deltaTime":0,"channel":9,"type":"noteOn","noteNumber":41,"velocity":95},{"deltaTime":480,"channel":9,"type":"noteOff","noteNumber":36,"velocity":95},{"deltaTime":0,"channel":9,"type":"noteOff","noteNumber":41,"velocity":95},{"deltaTime":0,"channel":9,"type":"noteOn","noteNumber":36,"velocity":95},{"deltaTime":0,"channel":9,"type":"noteOn","noteNumber":41,"velocity":95},{"deltaTime":480,"channel":9,"type":"noteOff","noteNumber":36,"velocity":95},{"deltaTime":0,"channel":9,"type":"noteOff","noteNumber":41,"velocity":95},{"deltaTime":0,"channel":9,"type":"noteOn","noteNumber":38,"velocity":95},{"deltaTime":0,"channel":9,"type":"noteOn","noteNumber":59,"velocity":95},{"deltaTime":480,"channel":9,"type":"noteOff","noteNumber":38,"velocity":95},{"deltaTime":0,"channel":9,"type":"noteOff","noteNumber":59,"velocity":95},{"deltaTime":0,"channel":9,"type":"noteOn","noteNumber":42,"velocity":95},{"deltaTime":480,"channel":9,"type":"noteOff","noteNumber":42,"velocity":95},{"deltaTime":0,"channel":9,"type":"noteOn","noteNumber":42,"velocity":95},{"deltaTime":0,"channel":9,"type":"noteOn","noteNumber":36,"velocity":95},{"deltaTime":480,"channel":9,"type":"noteOff","noteNumber":42,"velocity":95},{"deltaTime":0,"channel":9,"type":"noteOff","noteNumber":36,"velocity":95},{"deltaTime":0,"channel":9,"type":"noteOn","noteNumber":42,"velocity":95},{"deltaTime":480,"channel":9,"type":"noteOff","noteNumber":42,"velocity":95},{"deltaTime":0,"channel":9,"type":"noteOn","noteNumber":38,"velocity":95},{"deltaTime":0,"channel":9,"type":"noteOn","noteNumber":59,"velocity":95},{"deltaTime":480,"channel":9,"type":"noteOff","noteNumber":38,"velocity":95},{"deltaTime":0,"channel":9,"type":"noteOff","noteNumber":59,"velocity":95},{"deltaTime":0,"channel":9,"type":"noteOn","noteNumber":42,"velocity":95},{"deltaTime":480,"channel":9,"type":"noteOff","noteNumber":42,"velocity":95},{"deltaTime":0,"channel":9,"type":"noteOn","noteNumber":42,"velocity":95},{"deltaTime":0,"channel":9,"type":"noteOn","noteNumber":36,"velocity":95},{"deltaTime":480,"channel":9,"type":"noteOff","noteNumber":42,"velocity":95},{"deltaTime":0,"channel":9,"type":"noteOff","noteNumber":36,"velocity":95},{"deltaTime":0,"channel":9,"type":"noteOn","noteNumber":42,"velocity":95},{"deltaTime":480,"channel":9,"type":"noteOff","noteNumber":42,"velocity":95},{"deltaTime":0,"channel":9,"type":"noteOn","noteNumber":38,"velocity":95},{"deltaTime":0,"channel":9,"type":"noteOn","noteNumber":59,"velocity":95},{"deltaTime":480,"channel":9,"type":"noteOff","noteNumber":38,"velocity":95},{"deltaTime":0,"channel":9,"type":"noteOff","noteNumber":59,"velocity":95},{"deltaTime":0,"channel":9,"type":"noteOn","noteNumber":42,"velocity":95},{"deltaTime":480,"channel":9,"type":"noteOff","noteNumber":42,"velocity":95},{"deltaTime":0,"channel":9,"type":"noteOn","noteNumber":42,"velocity":95},{"deltaTime":0,"channel":9,"type":"noteOn","noteNumber":36,"velocity":95},{"deltaTime":480,"channel":9,"type":"noteOff","noteNumber":42,"velocity":95},{"deltaTime":0,"channel":9,"type":"noteOff","noteNumber":36,"velocity":95},{"deltaTime":0,"channel":9,"type":"noteOn","noteNumber":42,"velocity":95},{"deltaTime":480,"channel":9,"type":"noteOff","noteNumber":42,"velocity":95},{"deltaTime":0,"channel":9,"type":"noteOn","noteNumber":38,"velocity":95},{"deltaTime":0,"channel":9,"type":"noteOn","noteNumber":59,"velocity":95},{"deltaTime":480,"channel":9,"type":"noteOff","noteNumber":38,"velocity":95},{"deltaTime":0,"channel":9,"type":"noteOff","noteNumber":59,"velocity":95},{"deltaTime":0,"channel":9,"type":"noteOn","noteNumber":42,"velocity":95},{"deltaTime":480,"channel":9,"type":"noteOff","noteNumber":42,"velocity":95},{"deltaTime":0,"channel":9,"type":"noteOn","noteNumber":42,"velocity":95},{"deltaTime":0,"channel":9,"type":"noteOn","noteNumber":36,"velocity":95},{"deltaTime":480,"channel":9,"type":"noteOff","noteNumber":42,"velocity":95},{"deltaTime":0,"channel":9,"type":"noteOff","noteNumber":36,"velocity":95},{"deltaTime":0,"channel":9,"type":"noteOn","noteNumber":42,"velocity":95},{"deltaTime":480,"channel":9,"type":"noteOff","noteNumber":42,"velocity":95},{"deltaTime":0,"channel":9,"type":"noteOn","noteNumber":38,"velocity":95},{"deltaTime":0,"channel":9,"type":"noteOn","noteNumber":59,"velocity":95},{"deltaTime":480,"channel":9,"type":"noteOff","noteNumber":38,"velocity":95},{"deltaTime":0,"channel":9,"type":"noteOff","noteNumber":59,"velocity":95},{"deltaTime":0,"channel":9,"type":"noteOn","noteNumber":42,"velocity":95},{"deltaTime":480,"channel":9,"type":"noteOff","noteNumber":42,"velocity":95},{"deltaTime":0,"channel":9,"type":"noteOn","noteNumber":42,"velocity":95},{"deltaTime":0,"channel":9,"type":"noteOn","noteNumber":36,"velocity":95},{"deltaTime":480,"channel":9,"type":"noteOff","noteNumber":42,"velocity":95},{"deltaTime":0,"channel":9,"type":"noteOff","noteNumber":36,"velocity":95},{"deltaTime":0,"channel":9,"type":"noteOn","noteNumber":42,"velocity":95},{"deltaTime":480,"channel":9,"type":"noteOff","noteNumber":42,"velocity":95},{"deltaTime":0,"channel":9,"type":"noteOn","noteNumber":38,"velocity":95},{"deltaTime":0,"channel":9,"type":"noteOn","noteNumber":59,"velocity":95},{"deltaTime":480,"channel":9,"type":"noteOff","noteNumber":38,"velocity":95},{"deltaTime":0,"channel":9,"type":"noteOff","noteNumber":59,"velocity":95},{"deltaTime":0,"channel":9,"type":"noteOn","noteNumber":42,"velocity":95},{"deltaTime":480,"channel":9,"type":"noteOff","noteNumber":42,"velocity":95},{"deltaTime":0,"channel":9,"type":"noteOn","noteNumber":42,"velocity":95},{"deltaTime":0,"channel":9,"type":"noteOn","noteNumber":36,"velocity":95},{"deltaTime":480,"channel":9,"type":"noteOff","noteNumber":42,"velocity":95},{"deltaTime":0,"channel":9,"type":"noteOff","noteNumber":36,"velocity":95},{"deltaTime":0,"channel":9,"type":"noteOn","noteNumber":42,"velocity":95},{"deltaTime":480,"channel":9,"type":"noteOff","noteNumber":42,"velocity":95},{"deltaTime":0,"channel":9,"type":"noteOn","noteNumber":38,"velocity":95},{"deltaTime":0,"channel":9,"type":"noteOn","noteNumber":59,"velocity":95},{"deltaTime":480,"channel":9,"type":"noteOff","noteNumber":38,"velocity":95},{"deltaTime":0,"channel":9,"type":"noteOff","noteNumber":59,"velocity":95},{"deltaTime":0,"channel":9,"type":"noteOn","noteNumber":42,"velocity":95},{"deltaTime":480,"channel":9,"type":"noteOff","noteNumber":42,"velocity":95},{"deltaTime":0,"channel":9,"type":"noteOn","noteNumber":42,"velocity":95},{"deltaTime":0,"channel":9,"type":"noteOn","noteNumber":36,"velocity":95},{"deltaTime":480,"channel":9,"type":"noteOff","noteNumber":42,"velocity":95},{"deltaTime":0,"channel":9,"type":"noteOff","noteNumber":36,"velocity":95},{"deltaTime":0,"channel":9,"type":"noteOn","noteNumber":38,"velocity":95},{"deltaTime":480,"channel":9,"type":"noteOff","noteNumber":38,"velocity":95},{"deltaTime":0,"channel":9,"type":"noteOn","noteNumber":36,"velocity":95},{"deltaTime":480,"channel":9,"type":"noteOff","noteNumber":36,"velocity":95},{"deltaTime":0,"channel":9,"type":"noteOn","noteNumber":38,"velocity":95},{"deltaTime":0,"channel":9,"type":"noteOn","noteNumber":59,"velocity":95},{"deltaTime":480,"channel":9,"type":"noteOff","noteNumber":38,"velocity":95},{"deltaTime":0,"channel":9,"type":"noteOff","noteNumber":59,"velocity":95},{"deltaTime":0,"channel":9,"type":"noteOn","noteNumber":42,"velocity":95},{"deltaTime":0,"channel":9,"type":"noteOn","noteNumber":36,"velocity":95},{"deltaTime":480,"channel":9,"type":"noteOff","noteNumber":42,"velocity":95},{"deltaTime":0,"channel":9,"type":"noteOff","noteNumber":36,"velocity":95},{"deltaTime":0,"channel":9,"type":"noteOn","noteNumber":42,"velocity":95},{"deltaTime":480,"channel":9,"type":"noteOff","noteNumber":42,"velocity":95},{"deltaTime":0,"channel":9,"type":"noteOn","noteNumber":38,"velocity":95},{"deltaTime":0,"channel":9,"type":"noteOn","noteNumber":59,"velocity":95},{"deltaTime":480,"channel":9,"type":"noteOff","noteNumber":38,"velocity":95},{"deltaTime":0,"channel":9,"type":"noteOff","noteNumber":59,"velocity":95},{"deltaTime":0,"channel":9,"type":"noteOn","noteNumber":42,"velocity":95},{"deltaTime":480,"channel":9,"type":"noteOff","noteNumber":42,"velocity":95},{"deltaTime":0,"channel":9,"type":"noteOn","noteNumber":42,"velocity":95},{"deltaTime":0,"channel":9,"type":"noteOn","noteNumber":36,"velocity":95},{"deltaTime":480,"channel":9,"type":"noteOff","noteNumber":42,"velocity":95},{"deltaTime":0,"channel":9,"type":"noteOff","noteNumber":36,"velocity":95},{"deltaTime":0,"channel":9,"type":"noteOn","noteNumber":42,"velocity":95},{"deltaTime":480,"channel":9,"type":"noteOff","noteNumber":42,"velocity":95},{"deltaTime":0,"channel":9,"type":"noteOn","noteNumber":38,"velocity":95},{"deltaTime":0,"channel":9,"type":"noteOn","noteNumber":59,"velocity":95},{"deltaTime":480,"channel":9,"type":"noteOff","noteNumber":38,"velocity":95},{"deltaTime":0,"channel":9,"type":"noteOff","noteNumber":59,"velocity":95},{"deltaTime":0,"channel":9,"type":"noteOn","noteNumber":42,"velocity":95},{"deltaTime":480,"channel":9,"type":"noteOff","noteNumber":42,"velocity":95},{"deltaTime":0,"channel":9,"type":"noteOn","noteNumber":42,"velocity":95},{"deltaTime":0,"channel":9,"type":"noteOn","noteNumber":36,"velocity":95},{"deltaTime":480,"channel":9,"type":"noteOff","noteNumber":42,"velocity":95},{"deltaTime":0,"channel":9,"type":"noteOff","noteNumber":36,"velocity":95},{"deltaTime":0,"channel":9,"type":"noteOn","noteNumber":42,"velocity":95},{"deltaTime":480,"channel":9,"type":"noteOff","noteNumber":42,"velocity":95},{"deltaTime":0,"channel":9,"type":"noteOn","noteNumber":38,"velocity":95},{"deltaTime":0,"channel":9,"type":"noteOn","noteNumber":59,"velocity":95},{"deltaTime":480,"channel":9,"type":"noteOff","noteNumber":38,"velocity":95},{"deltaTime":0,"channel":9,"type":"noteOff","noteNumber":59,"velocity":95},{"deltaTime":0,"channel":9,"type":"noteOn","noteNumber":42,"velocity":95},{"deltaTime":480,"channel":9,"type":"noteOff","noteNumber":42,"velocity":95},{"deltaTime":0,"channel":9,"type":"noteOn","noteNumber":42,"velocity":95},{"deltaTime":0,"channel":9,"type":"noteOn","noteNumber":36,"velocity":95},{"deltaTime":480,"channel":9,"type":"noteOff","noteNumber":42,"velocity":95},{"deltaTime":0,"channel":9,"type":"noteOff","noteNumber":36,"velocity":95},{"deltaTime":0,"channel":9,"type":"noteOn","noteNumber":42,"velocity":95},{"deltaTime":480,"channel":9,"type":"noteOff","noteNumber":42,"velocity":95},{"deltaTime":0,"channel":9,"type":"noteOn","noteNumber":38,"velocity":95},{"deltaTime":0,"channel":9,"type":"noteOn","noteNumber":59,"velocity":95},{"deltaTime":480,"channel":9,"type":"noteOff","noteNumber":38,"velocity":95},{"deltaTime":0,"channel":9,"type":"noteOff","noteNumber":59,"velocity":95},{"deltaTime":0,"channel":9,"type":"noteOn","noteNumber":42,"velocity":95},{"deltaTime":480,"channel":9,"type":"noteOff","noteNumber":42,"velocity":95},{"deltaTime":0,"channel":9,"type":"noteOn","noteNumber":42,"velocity":95},{"deltaTime":0,"channel":9,"type":"noteOn","noteNumber":36,"velocity":95},{"deltaTime":480,"channel":9,"type":"noteOff","noteNumber":42,"velocity":95},{"deltaTime":0,"channel":9,"type":"noteOff","noteNumber":36,"velocity":95},{"deltaTime":0,"channel":9,"type":"noteOn","noteNumber":42,"velocity":95},{"deltaTime":480,"channel":9,"type":"noteOff","noteNumber":42,"velocity":95},{"deltaTime":0,"channel":9,"type":"noteOn","noteNumber":38,"velocity":95},{"deltaTime":0,"channel":9,"type":"noteOn","noteNumber":59,"velocity":95},{"deltaTime":480,"channel":9,"type":"noteOff","noteNumber":38,"velocity":95},{"deltaTime":0,"channel":9,"type":"noteOff","noteNumber":59,"velocity":95},{"deltaTime":0,"channel":9,"type":"noteOn","noteNumber":42,"velocity":95},{"deltaTime":480,"channel":9,"type":"noteOff","noteNumber":42,"velocity":95},{"deltaTime":0,"channel":9,"type":"noteOn","noteNumber":42,"velocity":95},{"deltaTime":0,"channel":9,"type":"noteOn","noteNumber":36,"velocity":95},{"deltaTime":480,"channel":9,"type":"noteOff","noteNumber":42,"velocity":95},{"deltaTime":0,"channel":9,"type":"noteOff","noteNumber":36,"velocity":95},{"deltaTime":0,"channel":9,"type":"noteOn","noteNumber":42,"velocity":95},{"deltaTime":480,"channel":9,"type":"noteOff","noteNumber":42,"velocity":95},{"deltaTime":0,"channel":9,"type":"noteOn","noteNumber":38,"velocity":95},{"deltaTime":0,"channel":9,"type":"noteOn","noteNumber":59,"velocity":95},{"deltaTime":480,"channel":9,"type":"noteOff","noteNumber":38,"velocity":95},{"deltaTime":0,"channel":9,"type":"noteOff","noteNumber":59,"velocity":95},{"deltaTime":0,"channel":9,"type":"noteOn","noteNumber":42,"velocity":95},{"deltaTime":480,"channel":9,"type":"noteOff","noteNumber":42,"velocity":95},{"deltaTime":0,"channel":9,"type":"noteOn","noteNumber":42,"velocity":95},{"deltaTime":0,"channel":9,"type":"noteOn","noteNumber":36,"velocity":95},{"deltaTime":480,"channel":9,"type":"noteOff","noteNumber":42,"velocity":95},{"deltaTime":0,"channel":9,"type":"noteOff","noteNumber":36,"velocity":95},{"deltaTime":0,"channel":9,"type":"noteOn","noteNumber":42,"velocity":95},{"deltaTime":480,"channel":9,"type":"noteOff","noteNumber":42,"velocity":95},{"deltaTime":0,"channel":9,"type":"noteOn","noteNumber":42,"velocity":95},{"deltaTime":480,"channel":9,"type":"noteOff","noteNumber":42,"velocity":95},{"deltaTime":0,"channel":9,"type":"noteOn","noteNumber":38,"velocity":95},{"deltaTime":0,"channel":9,"type":"noteOn","noteNumber":59,"velocity":95},{"deltaTime":480,"channel":9,"type":"noteOff","noteNumber":38,"velocity":95},{"deltaTime":0,"channel":9,"type":"noteOff","noteNumber":59,"velocity":95},{"deltaTime":0,"channel":9,"type":"noteOn","noteNumber":36,"velocity":95},{"deltaTime":480,"channel":9,"type":"noteOff","noteNumber":36,"velocity":95},{"deltaTime":0,"channel":9,"type":"noteOn","noteNumber":38,"velocity":95},{"deltaTime":480,"channel":9,"type":"noteOff","noteNumber":38,"velocity":95},{"deltaTime":0,"channel":9,"type":"noteOn","noteNumber":36,"velocity":95},{"deltaTime":480,"channel":9,"type":"noteOff","noteNumber":36,"velocity":95},{"deltaTime":0,"channel":9,"type":"noteOn","noteNumber":38,"velocity":95},{"deltaTime":0,"channel":9,"type":"noteOn","noteNumber":59,"velocity":95},{"deltaTime":480,"channel":9,"type":"noteOff","noteNumber":38,"velocity":95},{"deltaTime":0,"channel":9,"type":"noteOff","noteNumber":59,"velocity":95},{"deltaTime":0,"channel":9,"type":"noteOn","noteNumber":36,"velocity":95},{"deltaTime":0,"channel":9,"type":"noteOn","noteNumber":59,"velocity":95},{"deltaTime":480,"channel":9,"type":"noteOff","noteNumber":36,"velocity":95},{"deltaTime":0,"channel":9,"type":"noteOff","noteNumber":59,"velocity":95},{"deltaTime":0,"channel":9,"type":"noteOn","noteNumber":42,"velocity":95},{"deltaTime":480,"channel":9,"type":"noteOff","noteNumber":42,"velocity":95},{"deltaTime":0,"channel":9,"type":"noteOn","noteNumber":42,"velocity":95},{"deltaTime":0,"channel":9,"type":"noteOn","noteNumber":38,"velocity":95},{"deltaTime":480,"channel":9,"type":"noteOff","noteNumber":42,"velocity":95},{"deltaTime":0,"channel":9,"type":"noteOff","noteNumber":38,"velocity":95},{"deltaTime":0,"channel":9,"type":"noteOn","noteNumber":42,"velocity":95},{"deltaTime":480,"channel":9,"type":"noteOff","noteNumber":42,"velocity":95},{"deltaTime":0,"channel":9,"type":"noteOn","noteNumber":42,"velocity":95},{"deltaTime":0,"channel":9,"type":"noteOn","noteNumber":36,"velocity":95},{"deltaTime":480,"channel":9,"type":"noteOff","noteNumber":42,"velocity":95},{"deltaTime":0,"channel":9,"type":"noteOff","noteNumber":36,"velocity":95},{"deltaTime":0,"channel":9,"type":"noteOn","noteNumber":42,"velocity":95},{"deltaTime":480,"channel":9,"type":"noteOff","noteNumber":42,"velocity":95},{"deltaTime":0,"channel":9,"type":"noteOn","noteNumber":42,"velocity":95},{"deltaTime":0,"channel":9,"type":"noteOn","noteNumber":38,"velocity":95},{"deltaTime":480,"channel":9,"type":"noteOff","noteNumber":42,"velocity":95},{"deltaTime":0,"channel":9,"type":"noteOff","noteNumber":38,"velocity":95},{"deltaTime":0,"channel":9,"type":"noteOn","noteNumber":42,"velocity":95},{"deltaTime":480,"channel":9,"type":"noteOff","noteNumber":42,"velocity":95},{"deltaTime":0,"channel":9,"type":"noteOn","noteNumber":42,"velocity":95},{"deltaTime":0,"channel":9,"type":"noteOn","noteNumber":36,"velocity":95},{"deltaTime":480,"channel":9,"type":"noteOff","noteNumber":42,"velocity":95},{"deltaTime":0,"channel":9,"type":"noteOff","noteNumber":36,"velocity":95},{"deltaTime":0,"channel":9,"type":"noteOn","noteNumber":42,"velocity":95},{"deltaTime":480,"channel":9,"type":"noteOff","noteNumber":42,"velocity":95},{"deltaTime":0,"channel":9,"type":"noteOn","noteNumber":42,"velocity":95},{"deltaTime":0,"channel":9,"type":"noteOn","noteNumber":38,"velocity":95},{"deltaTime":480,"channel":9,"type":"noteOff","noteNumber":42,"velocity":95},{"deltaTime":0,"channel":9,"type":"noteOff","noteNumber":38,"velocity":95},{"deltaTime":0,"channel":9,"type":"noteOn","noteNumber":42,"velocity":95},{"deltaTime":480,"channel":9,"type":"noteOff","noteNumber":42,"velocity":95},{"deltaTime":0,"channel":9,"type":"noteOn","noteNumber":42,"velocity":95},{"deltaTime":0,"channel":9,"type":"noteOn","noteNumber":36,"velocity":95},{"deltaTime":480,"channel":9,"type":"noteOff","noteNumber":42,"velocity":95},{"deltaTime":0,"channel":9,"type":"noteOff","noteNumber":36,"velocity":95},{"deltaTime":0,"channel":9,"type":"noteOn","noteNumber":42,"velocity":95},{"deltaTime":480,"channel":9,"type":"noteOff","noteNumber":42,"velocity":95},{"deltaTime":0,"channel":9,"type":"noteOn","noteNumber":42,"velocity":95},{"deltaTime":0,"channel":9,"type":"noteOn","noteNumber":38,"velocity":95},{"deltaTime":480,"channel":9,"type":"noteOff","noteNumber":42,"velocity":95},{"deltaTime":0,"channel":9,"type":"noteOff","noteNumber":38,"velocity":95},{"deltaTime":0,"channel":9,"type":"noteOn","noteNumber":42,"velocity":95},{"deltaTime":480,"channel":9,"type":"noteOff","noteNumber":42,"velocity":95},{"deltaTime":0,"channel":9,"type":"noteOn","noteNumber":42,"velocity":95},{"deltaTime":0,"channel":9,"type":"noteOn","noteNumber":36,"velocity":95},{"deltaTime":480,"channel":9,"type":"noteOff","noteNumber":42,"velocity":95},{"deltaTime":0,"channel":9,"type":"noteOff","noteNumber":36,"velocity":95},{"deltaTime":0,"channel":9,"type":"noteOn","noteNumber":42,"velocity":95},{"deltaTime":480,"channel":9,"type":"noteOff","noteNumber":42,"velocity":95},{"deltaTime":0,"channel":9,"type":"noteOn","noteNumber":42,"velocity":95},{"deltaTime":0,"channel":9,"type":"noteOn","noteNumber":38,"velocity":95},{"deltaTime":480,"channel":9,"type":"noteOff","noteNumber":42,"velocity":95},{"deltaTime":0,"channel":9,"type":"noteOff","noteNumber":38,"velocity":95},{"deltaTime":0,"channel":9,"type":"noteOn","noteNumber":42,"velocity":95},{"deltaTime":480,"channel":9,"type":"noteOff","noteNumber":42,"velocity":95},{"deltaTime":0,"channel":9,"type":"noteOn","noteNumber":42,"velocity":95},{"deltaTime":0,"channel":9,"type":"noteOn","noteNumber":36,"velocity":95},{"deltaTime":480,"channel":9,"type":"noteOff","noteNumber":42,"velocity":95},{"deltaTime":0,"channel":9,"type":"noteOff","noteNumber":36,"velocity":95},{"deltaTime":0,"channel":9,"type":"noteOn","noteNumber":42,"velocity":95},{"deltaTime":480,"channel":9,"type":"noteOff","noteNumber":42,"velocity":95},{"deltaTime":0,"channel":9,"type":"noteOn","noteNumber":42,"velocity":95},{"deltaTime":0,"channel":9,"type":"noteOn","noteNumber":38,"velocity":95},{"deltaTime":480,"channel":9,"type":"noteOff","noteNumber":42,"velocity":95},{"deltaTime":0,"channel":9,"type":"noteOff","noteNumber":38,"velocity":95},{"deltaTime":0,"channel":9,"type":"noteOn","noteNumber":42,"velocity":95},{"deltaTime":480,"channel":9,"type":"noteOff","noteNumber":42,"velocity":95},{"deltaTime":0,"channel":9,"type":"noteOn","noteNumber":42,"velocity":95},{"deltaTime":0,"channel":9,"type":"noteOn","noteNumber":36,"velocity":95},{"deltaTime":480,"channel":9,"type":"noteOff","noteNumber":42,"velocity":95},{"deltaTime":0,"channel":9,"type":"noteOff","noteNumber":36,"velocity":95},{"deltaTime":0,"channel":9,"type":"noteOn","noteNumber":42,"velocity":95},{"deltaTime":480,"channel":9,"type":"noteOff","noteNumber":42,"velocity":95},{"deltaTime":0,"channel":9,"type":"noteOn","noteNumber":42,"velocity":95},{"deltaTime":0,"channel":9,"type":"noteOn","noteNumber":38,"velocity":95},{"deltaTime":480,"channel":9,"type":"noteOff","noteNumber":42,"velocity":95},{"deltaTime":0,"channel":9,"type":"noteOff","noteNumber":38,"velocity":95},{"deltaTime":0,"channel":9,"type":"noteOn","noteNumber":42,"velocity":95},{"deltaTime":480,"channel":9,"type":"noteOff","noteNumber":42,"velocity":95},{"deltaTime":0,"channel":9,"type":"noteOn","noteNumber":42,"velocity":95},{"deltaTime":0,"channel":9,"type":"noteOn","noteNumber":36,"velocity":95},{"deltaTime":480,"channel":9,"type":"noteOff","noteNumber":42,"velocity":95},{"deltaTime":0,"channel":9,"type":"noteOff","noteNumber":36,"velocity":95},{"deltaTime":0,"channel":9,"type":"noteOn","noteNumber":42,"velocity":95},{"deltaTime":0,"channel":9,"type":"noteOn","noteNumber":36,"velocity":95},{"deltaTime":480,"channel":9,"type":"noteOff","noteNumber":42,"velocity":95},{"deltaTime":0,"channel":9,"type":"noteOff","noteNumber":36,"velocity":95},{"deltaTime":0,"channel":9,"type":"noteOn","noteNumber":42,"velocity":95},{"deltaTime":0,"channel":9,"type":"noteOn","noteNumber":38,"velocity":95},{"deltaTime":480,"channel":9,"type":"noteOff","noteNumber":42,"velocity":95},{"deltaTime":0,"channel":9,"type":"noteOff","noteNumber":38,"velocity":95},{"deltaTime":0,"channel":9,"type":"noteOn","noteNumber":42,"velocity":95},{"deltaTime":480,"channel":9,"type":"noteOff","noteNumber":42,"velocity":95},{"deltaTime":0,"channel":9,"type":"noteOn","noteNumber":42,"velocity":95},{"deltaTime":0,"channel":9,"type":"noteOn","noteNumber":38,"velocity":95},{"deltaTime":480,"channel":9,"type":"noteOff","noteNumber":42,"velocity":95},{"deltaTime":0,"channel":9,"type":"noteOff","noteNumber":38,"velocity":95},{"deltaTime":0,"channel":9,"type":"noteOn","noteNumber":42,"velocity":95},{"deltaTime":0,"channel":9,"type":"noteOn","noteNumber":36,"velocity":95},{"deltaTime":480,"channel":9,"type":"noteOff","noteNumber":42,"velocity":95},{"deltaTime":0,"channel":9,"type":"noteOff","noteNumber":36,"velocity":95},{"deltaTime":0,"channel":9,"type":"noteOn","noteNumber":42,"velocity":95},{"deltaTime":0,"channel":9,"type":"noteOn","noteNumber":38,"velocity":95},{"deltaTime":480,"channel":9,"type":"noteOff","noteNumber":42,"velocity":95},{"deltaTime":0,"channel":9,"type":"noteOff","noteNumber":38,"velocity":95},{"deltaTime":0,"channel":9,"type":"noteOn","noteNumber":36,"velocity":95},{"deltaTime":0,"channel":9,"type":"noteOn","noteNumber":59,"velocity":95},{"deltaTime":480,"channel":9,"type":"noteOff","noteNumber":36,"velocity":95},{"deltaTime":0,"channel":9,"type":"noteOff","noteNumber":59,"velocity":95},{"deltaTime":0,"channel":9,"type":"noteOn","noteNumber":42,"velocity":95},{"deltaTime":480,"channel":9,"type":"noteOff","noteNumber":42,"velocity":95},{"deltaTime":0,"channel":9,"type":"noteOn","noteNumber":42,"velocity":95},{"deltaTime":0,"channel":9,"type":"noteOn","noteNumber":36,"velocity":95},{"deltaTime":480,"channel":9,"type":"noteOff","noteNumber":42,"velocity":95},{"deltaTime":0,"channel":9,"type":"noteOff","noteNumber":36,"velocity":95},{"deltaTime":0,"channel":9,"type":"noteOn","noteNumber":42,"velocity":95},{"deltaTime":0,"channel":9,"type":"noteOn","noteNumber":38,"velocity":95},{"deltaTime":480,"channel":9,"type":"noteOff","noteNumber":42,"velocity":95},{"deltaTime":0,"channel":9,"type":"noteOff","noteNumber":38,"velocity":95},{"deltaTime":0,"channel":9,"type":"noteOn","noteNumber":36,"velocity":95},{"deltaTime":0,"channel":9,"type":"noteOn","noteNumber":59,"velocity":95},{"deltaTime":480,"channel":9,"type":"noteOff","noteNumber":36,"velocity":95},{"deltaTime":0,"channel":9,"type":"noteOff","noteNumber":59,"velocity":95},{"deltaTime":0,"channel":9,"type":"noteOn","noteNumber":42,"velocity":95},{"deltaTime":480,"channel":9,"type":"noteOff","noteNumber":42,"velocity":95},{"deltaTime":0,"channel":9,"type":"noteOn","noteNumber":42,"velocity":95},{"deltaTime":0,"channel":9,"type":"noteOn","noteNumber":36,"velocity":95},{"deltaTime":480,"channel":9,"type":"noteOff","noteNumber":42,"velocity":95},{"deltaTime":0,"channel":9,"type":"noteOff","noteNumber":36,"velocity":95},{"deltaTime":0,"channel":9,"type":"noteOn","noteNumber":42,"velocity":95},{"deltaTime":0,"channel":9,"type":"noteOn","noteNumber":38,"velocity":95},{"deltaTime":480,"channel":9,"type":"noteOff","noteNumber":42,"velocity":95},{"deltaTime":0,"channel":9,"type":"noteOff","noteNumber":38,"velocity":95},{"deltaTime":0,"channel":9,"type":"noteOn","noteNumber":36,"velocity":95},{"deltaTime":0,"channel":9,"type":"noteOn","noteNumber":59,"velocity":95},{"deltaTime":480,"channel":9,"type":"noteOff","noteNumber":36,"velocity":95},{"deltaTime":0,"channel":9,"type":"noteOff","noteNumber":59,"velocity":95},{"deltaTime":0,"channel":9,"type":"noteOn","noteNumber":42,"velocity":95},{"deltaTime":480,"channel":9,"type":"noteOff","noteNumber":42,"velocity":95},{"deltaTime":0,"channel":9,"type":"noteOn","noteNumber":42,"velocity":95},{"deltaTime":0,"channel":9,"type":"noteOn","noteNumber":36,"velocity":95},{"deltaTime":480,"channel":9,"type":"noteOff","noteNumber":42,"velocity":95},{"deltaTime":0,"channel":9,"type":"noteOff","noteNumber":36,"velocity":95},{"deltaTime":0,"channel":9,"type":"noteOn","noteNumber":42,"velocity":95},{"deltaTime":0,"channel":9,"type":"noteOn","noteNumber":38,"velocity":95},{"deltaTime":480,"channel":9,"type":"noteOff","noteNumber":42,"velocity":95},{"deltaTime":0,"channel":9,"type":"noteOff","noteNumber":38,"velocity":95},{"deltaTime":0,"channel":9,"type":"noteOn","noteNumber":42,"velocity":95},{"deltaTime":480,"channel":9,"type":"noteOff","noteNumber":42,"velocity":95},{"deltaTime":0,"channel":9,"type":"noteOn","noteNumber":42,"velocity":95},{"deltaTime":0,"channel":9,"type":"noteOn","noteNumber":38,"velocity":95},{"deltaTime":480,"channel":9,"type":"noteOff","noteNumber":42,"velocity":95},{"deltaTime":0,"channel":9,"type":"noteOff","noteNumber":38,"velocity":95},{"deltaTime":0,"channel":9,"type":"noteOn","noteNumber":42,"velocity":95},{"deltaTime":0,"channel":9,"type":"noteOn","noteNumber":36,"velocity":95},{"deltaTime":480,"channel":9,"type":"noteOff","noteNumber":42,"velocity":95},{"deltaTime":0,"channel":9,"type":"noteOff","noteNumber":36,"velocity":95},{"deltaTime":0,"channel":9,"type":"noteOn","noteNumber":42,"velocity":95},{"deltaTime":0,"channel":9,"type":"noteOn","noteNumber":38,"velocity":95},{"deltaTime":480,"channel":9,"type":"noteOff","noteNumber":42,"velocity":95},{"deltaTime":0,"channel":9,"type":"noteOff","noteNumber":38,"velocity":95},{"deltaTime":0,"channel":9,"type":"noteOn","noteNumber":36,"velocity":95},{"deltaTime":0,"channel":9,"type":"noteOn","noteNumber":59,"velocity":95},{"deltaTime":480,"channel":9,"type":"noteOff","noteNumber":36,"velocity":95},{"deltaTime":0,"channel":9,"type":"noteOff","noteNumber":59,"velocity":95},{"deltaTime":0,"channel":9,"type":"noteOn","noteNumber":42,"velocity":95},{"deltaTime":480,"channel":9,"type":"noteOff","noteNumber":42,"velocity":95},{"deltaTime":0,"channel":9,"type":"noteOn","noteNumber":42,"velocity":95},{"deltaTime":0,"channel":9,"type":"noteOn","noteNumber":36,"velocity":95},{"deltaTime":480,"channel":9,"type":"noteOff","noteNumber":42,"velocity":95},{"deltaTime":0,"channel":9,"type":"noteOff","noteNumber":36,"velocity":95},{"deltaTime":0,"channel":9,"type":"noteOn","noteNumber":42,"velocity":95},{"deltaTime":0,"channel":9,"type":"noteOn","noteNumber":38,"velocity":95},{"deltaTime":480,"channel":9,"type":"noteOff","noteNumber":42,"velocity":95},{"deltaTime":0,"channel":9,"type":"noteOff","noteNumber":38,"velocity":95},{"deltaTime":0,"channel":9,"type":"noteOn","noteNumber":36,"velocity":95},{"deltaTime":0,"channel":9,"type":"noteOn","noteNumber":59,"velocity":95},{"deltaTime":480,"channel":9,"type":"noteOff","noteNumber":36,"velocity":95},{"deltaTime":0,"channel":9,"type":"noteOff","noteNumber":59,"velocity":95},{"deltaTime":0,"channel":9,"type":"noteOn","noteNumber":42,"velocity":95},{"deltaTime":480,"channel":9,"type":"noteOff","noteNumber":42,"velocity":95},{"deltaTime":0,"channel":9,"type":"noteOn","noteNumber":42,"velocity":95},{"deltaTime":0,"channel":9,"type":"noteOn","noteNumber":36,"velocity":95},{"deltaTime":480,"channel":9,"type":"noteOff","noteNumber":42,"velocity":95},{"deltaTime":0,"channel":9,"type":"noteOff","noteNumber":36,"velocity":95},{"deltaTime":0,"channel":9,"type":"noteOn","noteNumber":42,"velocity":95},{"deltaTime":0,"channel":9,"type":"noteOn","noteNumber":38,"velocity":95},{"deltaTime":480,"channel":9,"type":"noteOff","noteNumber":42,"velocity":95},{"deltaTime":0,"channel":9,"type":"noteOff","noteNumber":38,"velocity":95},{"deltaTime":0,"channel":9,"type":"noteOn","noteNumber":36,"velocity":95},{"deltaTime":0,"channel":9,"type":"noteOn","noteNumber":59,"velocity":95},{"deltaTime":480,"channel":9,"type":"noteOff","noteNumber":36,"velocity":95},{"deltaTime":0,"channel":9,"type":"noteOff","noteNumber":59,"velocity":95},{"deltaTime":0,"channel":9,"type":"noteOn","noteNumber":42,"velocity":95},{"deltaTime":480,"channel":9,"type":"noteOff","noteNumber":42,"velocity":95},{"deltaTime":0,"channel":9,"type":"noteOn","noteNumber":42,"velocity":95},{"deltaTime":0,"channel":9,"type":"noteOn","noteNumber":36,"velocity":95},{"deltaTime":480,"channel":9,"type":"noteOff","noteNumber":42,"velocity":95},{"deltaTime":0,"channel":9,"type":"noteOff","noteNumber":36,"velocity":95},{"deltaTime":0,"channel":9,"type":"noteOn","noteNumber":42,"velocity":95},{"deltaTime":0,"channel":9,"type":"noteOn","noteNumber":38,"velocity":95},{"deltaTime":480,"channel":9,"type":"noteOff","noteNumber":42,"velocity":95},{"deltaTime":0,"channel":9,"type":"noteOff","noteNumber":38,"velocity":95},{"deltaTime":0,"channel":9,"type":"noteOn","noteNumber":42,"velocity":95},{"deltaTime":480,"channel":9,"type":"noteOff","noteNumber":42,"velocity":95},{"deltaTime":0,"channel":9,"type":"noteOn","noteNumber":42,"velocity":95},{"deltaTime":0,"channel":9,"type":"noteOn","noteNumber":38,"velocity":95},{"deltaTime":480,"channel":9,"type":"noteOff","noteNumber":42,"velocity":95},{"deltaTime":0,"channel":9,"type":"noteOff","noteNumber":38,"velocity":95},{"deltaTime":0,"channel":9,"type":"noteOn","noteNumber":42,"velocity":95},{"deltaTime":0,"channel":9,"type":"noteOn","noteNumber":36,"velocity":95},{"deltaTime":480,"channel":9,"type":"noteOff","noteNumber":42,"velocity":95},{"deltaTime":0,"channel":9,"type":"noteOff","noteNumber":36,"velocity":95},{"deltaTime":0,"channel":9,"type":"noteOn","noteNumber":42,"velocity":95},{"deltaTime":0,"channel":9,"type":"noteOn","noteNumber":38,"velocity":95},{"deltaTime":480,"channel":9,"type":"noteOff","noteNumber":42,"velocity":95},{"deltaTime":0,"channel":9,"type":"noteOff","noteNumber":38,"velocity":95},{"deltaTime":0,"channel":9,"type":"noteOn","noteNumber":36,"velocity":95},{"deltaTime":0,"channel":9,"type":"noteOn","noteNumber":59,"velocity":95},{"deltaTime":480,"channel":9,"type":"noteOff","noteNumber":36,"velocity":95},{"deltaTime":0,"channel":9,"type":"noteOff","noteNumber":59,"velocity":95},{"deltaTime":0,"channel":9,"type":"noteOn","noteNumber":42,"velocity":95},{"deltaTime":480,"channel":9,"type":"noteOff","noteNumber":42,"velocity":95},{"deltaTime":0,"channel":9,"type":"noteOn","noteNumber":42,"velocity":95},{"deltaTime":0,"channel":9,"type":"noteOn","noteNumber":36,"velocity":95},{"deltaTime":480,"channel":9,"type":"noteOff","noteNumber":42,"velocity":95},{"deltaTime":0,"channel":9,"type":"noteOff","noteNumber":36,"velocity":95},{"deltaTime":0,"channel":9,"type":"noteOn","noteNumber":42,"velocity":95},{"deltaTime":0,"channel":9,"type":"noteOn","noteNumber":38,"velocity":95},{"deltaTime":480,"channel":9,"type":"noteOff","noteNumber":42,"velocity":95},{"deltaTime":0,"channel":9,"type":"noteOff","noteNumber":38,"velocity":95},{"deltaTime":0,"channel":9,"type":"noteOn","noteNumber":36,"velocity":95},{"deltaTime":0,"channel":9,"type":"noteOn","noteNumber":59,"velocity":95},{"deltaTime":480,"channel":9,"type":"noteOff","noteNumber":36,"velocity":95},{"deltaTime":0,"channel":9,"type":"noteOff","noteNumber":59,"velocity":95},{"deltaTime":0,"channel":9,"type":"noteOn","noteNumber":42,"velocity":95},{"deltaTime":480,"channel":9,"type":"noteOff","noteNumber":42,"velocity":95},{"deltaTime":0,"channel":9,"type":"noteOn","noteNumber":42,"velocity":95},{"deltaTime":0,"channel":9,"type":"noteOn","noteNumber":36,"velocity":95},{"deltaTime":480,"channel":9,"type":"noteOff","noteNumber":42,"velocity":95},{"deltaTime":0,"channel":9,"type":"noteOff","noteNumber":36,"velocity":95},{"deltaTime":0,"channel":9,"type":"noteOn","noteNumber":42,"velocity":95},{"deltaTime":0,"channel":9,"type":"noteOn","noteNumber":38,"velocity":95},{"deltaTime":480,"channel":9,"type":"noteOff","noteNumber":42,"velocity":95},{"deltaTime":0,"channel":9,"type":"noteOff","noteNumber":38,"velocity":95},{"deltaTime":0,"channel":9,"type":"noteOn","noteNumber":36,"velocity":95},{"deltaTime":0,"channel":9,"type":"noteOn","noteNumber":59,"velocity":95},{"deltaTime":480,"channel":9,"type":"noteOff","noteNumber":36,"velocity":95},{"deltaTime":0,"channel":9,"type":"noteOff","noteNumber":59,"velocity":95},{"deltaTime":0,"channel":9,"type":"noteOn","noteNumber":42,"velocity":95},{"deltaTime":480,"channel":9,"type":"noteOff","noteNumber":42,"velocity":95},{"deltaTime":0,"channel":9,"type":"noteOn","noteNumber":42,"velocity":95},{"deltaTime":0,"channel":9,"type":"noteOn","noteNumber":36,"velocity":95},{"deltaTime":480,"channel":9,"type":"noteOff","noteNumber":42,"velocity":95},{"deltaTime":0,"channel":9,"type":"noteOff","noteNumber":36,"velocity":95},{"deltaTime":0,"channel":9,"type":"noteOn","noteNumber":42,"velocity":95},{"deltaTime":0,"channel":9,"type":"noteOn","noteNumber":38,"velocity":95},{"deltaTime":480,"channel":9,"type":"noteOff","noteNumber":42,"velocity":95},{"deltaTime":0,"channel":9,"type":"noteOff","noteNumber":38,"velocity":95},{"deltaTime":0,"channel":9,"type":"noteOn","noteNumber":42,"velocity":95},{"deltaTime":480,"channel":9,"type":"noteOff","noteNumber":42,"velocity":95},{"deltaTime":0,"channel":9,"type":"noteOn","noteNumber":42,"velocity":95},{"deltaTime":0,"channel":9,"type":"noteOn","noteNumber":38,"velocity":95},{"deltaTime":480,"channel":9,"type":"noteOff","noteNumber":42,"velocity":95},{"deltaTime":0,"channel":9,"type":"noteOff","noteNumber":38,"velocity":95},{"deltaTime":0,"channel":9,"type":"noteOn","noteNumber":42,"velocity":95},{"deltaTime":0,"channel":9,"type":"noteOn","noteNumber":36,"velocity":95},{"deltaTime":480,"channel":9,"type":"noteOff","noteNumber":42,"velocity":95},{"deltaTime":0,"channel":9,"type":"noteOff","noteNumber":36,"velocity":95},{"deltaTime":0,"channel":9,"type":"noteOn","noteNumber":42,"velocity":95},{"deltaTime":0,"channel":9,"type":"noteOn","noteNumber":38,"velocity":95},{"deltaTime":480,"channel":9,"type":"noteOff","noteNumber":42,"velocity":95},{"deltaTime":0,"channel":9,"type":"noteOff","noteNumber":38,"velocity":95},{"deltaTime":0,"channel":9,"type":"noteOn","noteNumber":36,"velocity":95},{"deltaTime":0,"channel":9,"type":"noteOn","noteNumber":59,"velocity":95},{"deltaTime":480,"channel":9,"type":"noteOff","noteNumber":36,"velocity":95},{"deltaTime":0,"channel":9,"type":"noteOff","noteNumber":59,"velocity":95},{"deltaTime":0,"channel":9,"type":"noteOn","noteNumber":42,"velocity":95},{"deltaTime":480,"channel":9,"type":"noteOff","noteNumber":42,"velocity":95},{"deltaTime":0,"channel":9,"type":"noteOn","noteNumber":42,"velocity":95},{"deltaTime":0,"channel":9,"type":"noteOn","noteNumber":36,"velocity":95},{"deltaTime":480,"channel":9,"type":"noteOff","noteNumber":42,"velocity":95},{"deltaTime":0,"channel":9,"type":"noteOff","noteNumber":36,"velocity":95},{"deltaTime":0,"channel":9,"type":"noteOn","noteNumber":42,"velocity":95},{"deltaTime":0,"channel":9,"type":"noteOn","noteNumber":38,"velocity":95},{"deltaTime":480,"channel":9,"type":"noteOff","noteNumber":42,"velocity":95},{"deltaTime":0,"channel":9,"type":"noteOff","noteNumber":38,"velocity":95},{"deltaTime":0,"channel":9,"type":"noteOn","noteNumber":36,"velocity":95},{"deltaTime":0,"channel":9,"type":"noteOn","noteNumber":59,"velocity":95},{"deltaTime":480,"channel":9,"type":"noteOff","noteNumber":36,"velocity":95},{"deltaTime":0,"channel":9,"type":"noteOff","noteNumber":59,"velocity":95},{"deltaTime":0,"channel":9,"type":"noteOn","noteNumber":42,"velocity":95},{"deltaTime":480,"channel":9,"type":"noteOff","noteNumber":42,"velocity":95},{"deltaTime":0,"channel":9,"type":"noteOn","noteNumber":42,"velocity":95},{"deltaTime":0,"channel":9,"type":"noteOn","noteNumber":36,"velocity":95},{"deltaTime":480,"channel":9,"type":"noteOff","noteNumber":42,"velocity":95},{"deltaTime":0,"channel":9,"type":"noteOff","noteNumber":36,"velocity":95},{"deltaTime":0,"channel":9,"type":"noteOn","noteNumber":42,"velocity":95},{"deltaTime":0,"channel":9,"type":"noteOn","noteNumber":38,"velocity":95},{"deltaTime":480,"channel":9,"type":"noteOff","noteNumber":42,"velocity":95},{"deltaTime":0,"channel":9,"type":"noteOff","noteNumber":38,"velocity":95},{"deltaTime":0,"channel":9,"type":"noteOn","noteNumber":36,"velocity":95},{"deltaTime":0,"channel":9,"type":"noteOn","noteNumber":59,"velocity":95},{"deltaTime":480,"channel":9,"type":"noteOff","noteNumber":36,"velocity":95},{"deltaTime":0,"channel":9,"type":"noteOff","noteNumber":59,"velocity":95},{"deltaTime":0,"channel":9,"type":"noteOn","noteNumber":38,"velocity":95},{"deltaTime":0,"channel":9,"type":"noteOn","noteNumber":59,"velocity":95},{"deltaTime":480,"channel":9,"type":"noteOff","noteNumber":38,"velocity":95},{"deltaTime":0,"channel":9,"type":"noteOff","noteNumber":59,"velocity":95},{"deltaTime":0,"channel":9,"type":"noteOn","noteNumber":36,"velocity":95},{"deltaTime":0,"channel":9,"type":"noteOn","noteNumber":59,"velocity":95},{"deltaTime":480,"channel":9,"type":"noteOff","noteNumber":36,"velocity":95},{"deltaTime":0,"channel":9,"type":"noteOff","noteNumber":59,"velocity":95},{"deltaTime":0,"channel":9,"type":"noteOn","noteNumber":38,"velocity":95},{"deltaTime":0,"channel":9,"type":"noteOn","noteNumber":59,"velocity":95},{"deltaTime":480,"channel":9,"type":"noteOff","noteNumber":38,"velocity":95},{"deltaTime":0,"channel":9,"type":"noteOff","noteNumber":59,"velocity":95},{"deltaTime":0,"channel":9,"type":"noteOn","noteNumber":36,"velocity":95},{"deltaTime":0,"channel":9,"type":"noteOn","noteNumber":59,"velocity":95},{"deltaTime":480,"channel":9,"type":"noteOff","noteNumber":36,"velocity":95},{"deltaTime":0,"channel":9,"type":"noteOff","noteNumber":59,"velocity":95},{"deltaTime":0,"channel":9,"type":"noteOn","noteNumber":36,"velocity":95},{"deltaTime":0,"channel":9,"type":"noteOn","noteNumber":59,"velocity":95},{"deltaTime":480,"channel":9,"type":"noteOff","noteNumber":36,"velocity":95},{"deltaTime":0,"channel":9,"type":"noteOff","noteNumber":59,"velocity":95},{"deltaTime":0,"channel":9,"type":"noteOn","noteNumber":36,"velocity":95},{"deltaTime":0,"channel":9,"type":"noteOn","noteNumber":59,"velocity":95},{"deltaTime":480,"channel":9,"type":"noteOff","noteNumber":36,"velocity":95},{"deltaTime":0,"channel":9,"type":"noteOff","noteNumber":59,"velocity":95},{"deltaTime":0,"channel":9,"type":"noteOn","noteNumber":38,"velocity":95},{"deltaTime":0,"channel":9,"type":"noteOn","noteNumber":59,"velocity":95},{"deltaTime":480,"channel":9,"type":"noteOff","noteNumber":38,"velocity":95},{"deltaTime":0,"channel":9,"type":"noteOff","noteNumber":59,"velocity":95},{"deltaTime":0,"channel":9,"type":"noteOn","noteNumber":42,"velocity":95},{"deltaTime":480,"channel":9,"type":"noteOff","noteNumber":42,"velocity":95},{"deltaTime":0,"channel":9,"type":"noteOn","noteNumber":42,"velocity":95},{"deltaTime":0,"channel":9,"type":"noteOn","noteNumber":36,"velocity":95},{"deltaTime":480,"channel":9,"type":"noteOff","noteNumber":42,"velocity":95},{"deltaTime":0,"channel":9,"type":"noteOff","noteNumber":36,"velocity":95},{"deltaTime":0,"channel":9,"type":"noteOn","noteNumber":42,"velocity":95},{"deltaTime":480,"channel":9,"type":"noteOff","noteNumber":42,"velocity":95},{"deltaTime":0,"channel":9,"type":"noteOn","noteNumber":38,"velocity":95},{"deltaTime":0,"channel":9,"type":"noteOn","noteNumber":59,"velocity":95},{"deltaTime":480,"channel":9,"type":"noteOff","noteNumber":38,"velocity":95},{"deltaTime":0,"channel":9,"type":"noteOff","noteNumber":59,"velocity":95},{"deltaTime":0,"channel":9,"type":"noteOn","noteNumber":42,"velocity":95},{"deltaTime":480,"channel":9,"type":"noteOff","noteNumber":42,"velocity":95},{"deltaTime":0,"channel":9,"type":"noteOn","noteNumber":42,"velocity":95},{"deltaTime":0,"channel":9,"type":"noteOn","noteNumber":36,"velocity":95},{"deltaTime":480,"channel":9,"type":"noteOff","noteNumber":42,"velocity":95},{"deltaTime":0,"channel":9,"type":"noteOff","noteNumber":36,"velocity":95},{"deltaTime":0,"channel":9,"type":"noteOn","noteNumber":42,"velocity":95},{"deltaTime":480,"channel":9,"type":"noteOff","noteNumber":42,"velocity":95},{"deltaTime":0,"channel":9,"type":"noteOn","noteNumber":38,"velocity":95},{"deltaTime":0,"channel":9,"type":"noteOn","noteNumber":59,"velocity":95},{"deltaTime":960,"channel":9,"type":"noteOff","noteNumber":38,"velocity":95},{"deltaTime":0,"channel":9,"type":"noteOff","noteNumber":59,"velocity":95},{"deltaTime":0,"channel":9,"type":"noteOn","noteNumber":36,"velocity":95},{"deltaTime":0,"channel":9,"type":"noteOn","noteNumber":59,"velocity":95},{"deltaTime":480,"channel":9,"type":"noteOff","noteNumber":36,"velocity":95},{"deltaTime":0,"channel":9,"type":"noteOff","noteNumber":59,"velocity":95},{"deltaTime":0,"channel":9,"type":"noteOn","noteNumber":36,"velocity":95},{"deltaTime":480,"channel":9,"type":"noteOff","noteNumber":36,"velocity":95},{"deltaTime":0,"channel":9,"type":"noteOn","noteNumber":38,"velocity":95},{"deltaTime":0,"channel":9,"type":"noteOn","noteNumber":59,"velocity":95},{"deltaTime":960,"channel":9,"type":"noteOff","noteNumber":38,"velocity":95},{"deltaTime":0,"channel":9,"type":"noteOff","noteNumber":59,"velocity":95},{"deltaTime":0,"channel":9,"type":"noteOn","noteNumber":36,"velocity":95},{"deltaTime":0,"channel":9,"type":"noteOn","noteNumber":59,"velocity":95},{"deltaTime":960,"channel":9,"type":"noteOff","noteNumber":36,"velocity":95},{"deltaTime":0,"channel":9,"type":"noteOff","noteNumber":59,"velocity":95},{"deltaTime":0,"channel":9,"type":"noteOn","noteNumber":38,"velocity":95},{"deltaTime":0,"channel":9,"type":"noteOn","noteNumber":59,"velocity":95},{"deltaTime":480,"channel":9,"type":"noteOff","noteNumber":38,"velocity":95},{"deltaTime":0,"channel":9,"type":"noteOff","noteNumber":59,"velocity":95},{"deltaTime":0,"channel":9,"type":"noteOn","noteNumber":42,"velocity":95},{"deltaTime":480,"channel":9,"type":"noteOff","noteNumber":42,"velocity":95},{"deltaTime":0,"channel":9,"type":"noteOn","noteNumber":42,"velocity":95},{"deltaTime":0,"channel":9,"type":"noteOn","noteNumber":36,"velocity":95},{"deltaTime":480,"channel":9,"type":"noteOff","noteNumber":42,"velocity":95},{"deltaTime":0,"channel":9,"type":"noteOff","noteNumber":36,"velocity":95},{"deltaTime":0,"channel":9,"type":"noteOn","noteNumber":42,"velocity":95},{"deltaTime":480,"channel":9,"type":"noteOff","noteNumber":42,"velocity":95},{"deltaTime":0,"channel":9,"type":"noteOn","noteNumber":38,"velocity":95},{"deltaTime":0,"channel":9,"type":"noteOn","noteNumber":59,"velocity":95},{"deltaTime":480,"channel":9,"type":"noteOff","noteNumber":38,"velocity":95},{"deltaTime":0,"channel":9,"type":"noteOff","noteNumber":59,"velocity":95},{"deltaTime":0,"channel":9,"type":"noteOn","noteNumber":42,"velocity":95},{"deltaTime":480,"channel":9,"type":"noteOff","noteNumber":42,"velocity":95},{"deltaTime":0,"channel":9,"type":"noteOn","noteNumber":42,"velocity":95},{"deltaTime":0,"channel":9,"type":"noteOn","noteNumber":36,"velocity":95},{"deltaTime":480,"channel":9,"type":"noteOff","noteNumber":42,"velocity":95},{"deltaTime":0,"channel":9,"type":"noteOff","noteNumber":36,"velocity":95},{"deltaTime":0,"channel":9,"type":"noteOn","noteNumber":42,"velocity":95},{"deltaTime":480,"channel":9,"type":"noteOff","noteNumber":42,"velocity":95},{"deltaTime":0,"channel":9,"type":"noteOn","noteNumber":38,"velocity":95},{"deltaTime":0,"channel":9,"type":"noteOn","noteNumber":59,"velocity":95},{"deltaTime":960,"channel":9,"type":"noteOff","noteNumber":38,"velocity":95},{"deltaTime":0,"channel":9,"type":"noteOff","noteNumber":59,"velocity":95},{"deltaTime":0,"channel":9,"type":"noteOn","noteNumber":36,"velocity":95},{"deltaTime":0,"channel":9,"type":"noteOn","noteNumber":59,"velocity":95},{"deltaTime":480,"channel":9,"type":"noteOff","noteNumber":36,"velocity":95},{"deltaTime":0,"channel":9,"type":"noteOff","noteNumber":59,"velocity":95},{"deltaTime":0,"channel":9,"type":"noteOn","noteNumber":36,"velocity":95},{"deltaTime":480,"channel":9,"type":"noteOff","noteNumber":36,"velocity":95},{"deltaTime":0,"channel":9,"type":"noteOn","noteNumber":38,"velocity":95},{"deltaTime":0,"channel":9,"type":"noteOn","noteNumber":59,"velocity":95},{"deltaTime":960,"channel":9,"type":"noteOff","noteNumber":38,"velocity":95},{"deltaTime":0,"channel":9,"type":"noteOff","noteNumber":59,"velocity":95},{"deltaTime":0,"channel":9,"type":"noteOn","noteNumber":36,"velocity":95},{"deltaTime":0,"channel":9,"type":"noteOn","noteNumber":59,"velocity":95},{"deltaTime":480,"channel":9,"type":"noteOff","noteNumber":36,"velocity":95},{"deltaTime":0,"channel":9,"type":"noteOff","noteNumber":59,"velocity":95},{"deltaTime":0,"channel":9,"type":"noteOn","noteNumber":36,"velocity":95},{"deltaTime":480,"channel":9,"type":"noteOff","noteNumber":36,"velocity":95},{"deltaTime":0,"channel":9,"type":"noteOn","noteNumber":38,"velocity":95},{"deltaTime":0,"channel":9,"type":"noteOn","noteNumber":59,"velocity":95},{"deltaTime":480,"channel":9,"type":"noteOff","noteNumber":38,"velocity":95},{"deltaTime":0,"channel":9,"type":"noteOff","noteNumber":59,"velocity":95},{"deltaTime":0,"channel":9,"type":"noteOn","noteNumber":42,"velocity":95},{"deltaTime":480,"channel":9,"type":"noteOff","noteNumber":42,"velocity":95},{"deltaTime":0,"channel":9,"type":"noteOn","noteNumber":42,"velocity":95},{"deltaTime":0,"channel":9,"type":"noteOn","noteNumber":38,"velocity":95},{"deltaTime":480,"channel":9,"type":"noteOff","noteNumber":42,"velocity":95},{"deltaTime":0,"channel":9,"type":"noteOff","noteNumber":38,"velocity":95},{"deltaTime":0,"channel":9,"type":"noteOn","noteNumber":42,"velocity":95},{"deltaTime":480,"channel":9,"type":"noteOff","noteNumber":42,"velocity":95},{"deltaTime":0,"channel":9,"type":"noteOn","noteNumber":38,"velocity":95},{"deltaTime":0,"channel":9,"type":"noteOn","noteNumber":59,"velocity":95},{"deltaTime":480,"channel":9,"type":"noteOff","noteNumber":38,"velocity":95},{"deltaTime":0,"channel":9,"type":"noteOff","noteNumber":59,"velocity":95},{"deltaTime":0,"channel":9,"type":"noteOn","noteNumber":42,"velocity":95},{"deltaTime":480,"channel":9,"type":"noteOff","noteNumber":42,"velocity":95},{"deltaTime":0,"channel":9,"type":"noteOn","noteNumber":42,"velocity":95},{"deltaTime":0,"channel":9,"type":"noteOn","noteNumber":36,"velocity":95},{"deltaTime":480,"channel":9,"type":"noteOff","noteNumber":42,"velocity":95},{"deltaTime":0,"channel":9,"type":"noteOff","noteNumber":36,"velocity":95},{"deltaTime":0,"channel":9,"type":"noteOn","noteNumber":42,"velocity":95},{"deltaTime":480,"channel":9,"type":"noteOff","noteNumber":42,"velocity":95},{"deltaTime":0,"channel":9,"type":"noteOn","noteNumber":38,"velocity":95},{"deltaTime":0,"channel":9,"type":"noteOn","noteNumber":59,"velocity":95},{"deltaTime":960,"channel":9,"type":"noteOff","noteNumber":38,"velocity":95},{"deltaTime":0,"channel":9,"type":"noteOff","noteNumber":59,"velocity":95},{"deltaTime":0,"channel":9,"type":"noteOn","noteNumber":36,"velocity":95},{"deltaTime":0,"channel":9,"type":"noteOn","noteNumber":59,"velocity":95},{"deltaTime":480,"channel":9,"type":"noteOff","noteNumber":36,"velocity":95},{"deltaTime":0,"channel":9,"type":"noteOff","noteNumber":59,"velocity":95},{"deltaTime":0,"channel":9,"type":"noteOn","noteNumber":36,"velocity":95},{"deltaTime":480,"channel":9,"type":"noteOff","noteNumber":36,"velocity":95},{"deltaTime":0,"channel":9,"type":"noteOn","noteNumber":38,"velocity":95},{"deltaTime":0,"channel":9,"type":"noteOn","noteNumber":59,"velocity":95},{"deltaTime":960,"channel":9,"type":"noteOff","noteNumber":38,"velocity":95},{"deltaTime":0,"channel":9,"type":"noteOff","noteNumber":59,"velocity":95},{"deltaTime":0,"channel":9,"type":"noteOn","noteNumber":36,"velocity":95},{"deltaTime":0,"channel":9,"type":"noteOn","noteNumber":59,"velocity":95},{"deltaTime":480,"channel":9,"type":"noteOff","noteNumber":36,"velocity":95},{"deltaTime":0,"channel":9,"type":"noteOff","noteNumber":59,"velocity":95},{"deltaTime":0,"channel":9,"type":"noteOn","noteNumber":42,"velocity":95},{"deltaTime":480,"channel":9,"type":"noteOff","noteNumber":42,"velocity":95},{"deltaTime":0,"channel":9,"type":"noteOn","noteNumber":42,"velocity":95},{"deltaTime":0,"channel":9,"type":"noteOn","noteNumber":38,"velocity":95},{"deltaTime":480,"channel":9,"type":"noteOff","noteNumber":42,"velocity":95},{"deltaTime":0,"channel":9,"type":"noteOff","noteNumber":38,"velocity":95},{"deltaTime":0,"channel":9,"type":"noteOn","noteNumber":42,"velocity":95},{"deltaTime":480,"channel":9,"type":"noteOff","noteNumber":42,"velocity":95},{"deltaTime":0,"channel":9,"type":"noteOn","noteNumber":42,"velocity":95},{"deltaTime":0,"channel":9,"type":"noteOn","noteNumber":36,"velocity":95},{"deltaTime":480,"channel":9,"type":"noteOff","noteNumber":42,"velocity":95},{"deltaTime":0,"channel":9,"type":"noteOff","noteNumber":36,"velocity":95},{"deltaTime":0,"channel":9,"type":"noteOn","noteNumber":42,"velocity":95},{"deltaTime":480,"channel":9,"type":"noteOff","noteNumber":42,"velocity":95},{"deltaTime":0,"channel":9,"type":"noteOn","noteNumber":42,"velocity":95},{"deltaTime":0,"channel":9,"type":"noteOn","noteNumber":38,"velocity":95},{"deltaTime":480,"channel":9,"type":"noteOff","noteNumber":42,"velocity":95},{"deltaTime":0,"channel":9,"type":"noteOff","noteNumber":38,"velocity":95},{"deltaTime":0,"channel":9,"type":"noteOn","noteNumber":42,"velocity":95},{"deltaTime":480,"channel":9,"type":"noteOff","noteNumber":42,"velocity":95},{"deltaTime":0,"channel":9,"type":"noteOn","noteNumber":38,"velocity":95},{"deltaTime":480,"channel":9,"type":"noteOff","noteNumber":38,"velocity":95},{"deltaTime":0,"channel":9,"type":"noteOn","noteNumber":36,"velocity":95},{"deltaTime":480,"channel":9,"type":"noteOff","noteNumber":36,"velocity":95},{"deltaTime":0,"channel":9,"type":"noteOn","noteNumber":38,"velocity":95},{"deltaTime":480,"channel":9,"type":"noteOff","noteNumber":38,"velocity":95},{"deltaTime":0,"channel":9,"type":"noteOn","noteNumber":36,"velocity":95},{"deltaTime":480,"channel":9,"type":"noteOff","noteNumber":36,"velocity":95},{"deltaTime":0,"channel":9,"type":"noteOn","noteNumber":38,"velocity":95},{"deltaTime":480,"channel":9,"type":"noteOff","noteNumber":38,"velocity":95},{"deltaTime":0,"channel":9,"type":"noteOn","noteNumber":38,"velocity":95},{"deltaTime":480,"channel":9,"type":"noteOff","noteNumber":38,"velocity":95},{"deltaTime":0,"channel":9,"type":"noteOn","noteNumber":45,"velocity":95},{"deltaTime":480,"channel":9,"type":"noteOff","noteNumber":45,"velocity":95},{"deltaTime":0,"channel":9,"type":"noteOn","noteNumber":45,"velocity":95},{"deltaTime":480,"channel":9,"type":"noteOff","noteNumber":45,"velocity":95},{"deltaTime":0,"channel":9,"type":"noteOn","noteNumber":36,"velocity":95},{"deltaTime":0,"channel":9,"type":"noteOn","noteNumber":41,"velocity":95},{"deltaTime":480,"channel":9,"type":"noteOff","noteNumber":36,"velocity":95},{"deltaTime":0,"channel":9,"type":"noteOff","noteNumber":41,"velocity":95},{"deltaTime":0,"channel":9,"type":"noteOn","noteNumber":36,"velocity":95},{"deltaTime":0,"channel":9,"type":"noteOn","noteNumber":41,"velocity":95},{"deltaTime":480,"channel":9,"type":"noteOff","noteNumber":36,"velocity":95},{"deltaTime":0,"channel":9,"type":"noteOff","noteNumber":41,"velocity":95},{"deltaTime":0,"channel":9,"type":"noteOn","noteNumber":38,"velocity":95},{"deltaTime":0,"channel":9,"type":"noteOn","noteNumber":59,"velocity":95},{"deltaTime":480,"channel":9,"type":"noteOff","noteNumber":38,"velocity":95},{"deltaTime":0,"channel":9,"type":"noteOff","noteNumber":59,"velocity":95},{"deltaTime":0,"channel":9,"type":"noteOn","noteNumber":42,"velocity":95},{"deltaTime":480,"channel":9,"type":"noteOff","noteNumber":42,"velocity":95},{"deltaTime":0,"channel":9,"type":"noteOn","noteNumber":42,"velocity":95},{"deltaTime":0,"channel":9,"type":"noteOn","noteNumber":36,"velocity":95},{"deltaTime":480,"channel":9,"type":"noteOff","noteNumber":42,"velocity":95},{"deltaTime":0,"channel":9,"type":"noteOff","noteNumber":36,"velocity":95},{"deltaTime":0,"channel":9,"type":"noteOn","noteNumber":42,"velocity":95},{"deltaTime":480,"channel":9,"type":"noteOff","noteNumber":42,"velocity":95},{"deltaTime":0,"channel":9,"type":"noteOn","noteNumber":38,"velocity":95},{"deltaTime":0,"channel":9,"type":"noteOn","noteNumber":59,"velocity":95},{"deltaTime":480,"channel":9,"type":"noteOff","noteNumber":38,"velocity":95},{"deltaTime":0,"channel":9,"type":"noteOff","noteNumber":59,"velocity":95},{"deltaTime":0,"channel":9,"type":"noteOn","noteNumber":42,"velocity":95},{"deltaTime":480,"channel":9,"type":"noteOff","noteNumber":42,"velocity":95},{"deltaTime":0,"channel":9,"type":"noteOn","noteNumber":42,"velocity":95},{"deltaTime":0,"channel":9,"type":"noteOn","noteNumber":36,"velocity":95},{"deltaTime":480,"channel":9,"type":"noteOff","noteNumber":42,"velocity":95},{"deltaTime":0,"channel":9,"type":"noteOff","noteNumber":36,"velocity":95},{"deltaTime":0,"channel":9,"type":"noteOn","noteNumber":42,"velocity":95},{"deltaTime":480,"channel":9,"type":"noteOff","noteNumber":42,"velocity":95},{"deltaTime":0,"channel":9,"type":"noteOn","noteNumber":38,"velocity":95},{"deltaTime":0,"channel":9,"type":"noteOn","noteNumber":59,"velocity":95},{"deltaTime":480,"channel":9,"type":"noteOff","noteNumber":38,"velocity":95},{"deltaTime":0,"channel":9,"type":"noteOff","noteNumber":59,"velocity":95},{"deltaTime":0,"channel":9,"type":"noteOn","noteNumber":42,"velocity":95},{"deltaTime":480,"channel":9,"type":"noteOff","noteNumber":42,"velocity":95},{"deltaTime":0,"channel":9,"type":"noteOn","noteNumber":42,"velocity":95},{"deltaTime":0,"channel":9,"type":"noteOn","noteNumber":36,"velocity":95},{"deltaTime":480,"channel":9,"type":"noteOff","noteNumber":42,"velocity":95},{"deltaTime":0,"channel":9,"type":"noteOff","noteNumber":36,"velocity":95},{"deltaTime":0,"channel":9,"type":"noteOn","noteNumber":42,"velocity":95},{"deltaTime":480,"channel":9,"type":"noteOff","noteNumber":42,"velocity":95},{"deltaTime":0,"channel":9,"type":"noteOn","noteNumber":38,"velocity":95},{"deltaTime":0,"channel":9,"type":"noteOn","noteNumber":59,"velocity":95},{"deltaTime":480,"channel":9,"type":"noteOff","noteNumber":38,"velocity":95},{"deltaTime":0,"channel":9,"type":"noteOff","noteNumber":59,"velocity":95},{"deltaTime":0,"channel":9,"type":"noteOn","noteNumber":42,"velocity":95},{"deltaTime":480,"channel":9,"type":"noteOff","noteNumber":42,"velocity":95},{"deltaTime":0,"channel":9,"type":"noteOn","noteNumber":42,"velocity":95},{"deltaTime":0,"channel":9,"type":"noteOn","noteNumber":36,"velocity":95},{"deltaTime":480,"channel":9,"type":"noteOff","noteNumber":42,"velocity":95},{"deltaTime":0,"channel":9,"type":"noteOff","noteNumber":36,"velocity":95},{"deltaTime":0,"channel":9,"type":"noteOn","noteNumber":42,"velocity":95},{"deltaTime":480,"channel":9,"type":"noteOff","noteNumber":42,"velocity":95},{"deltaTime":0,"channel":9,"type":"noteOn","noteNumber":38,"velocity":95},{"deltaTime":0,"channel":9,"type":"noteOn","noteNumber":59,"velocity":95},{"deltaTime":480,"channel":9,"type":"noteOff","noteNumber":38,"velocity":95},{"deltaTime":0,"channel":9,"type":"noteOff","noteNumber":59,"velocity":95},{"deltaTime":0,"channel":9,"type":"noteOn","noteNumber":42,"velocity":95},{"deltaTime":480,"channel":9,"type":"noteOff","noteNumber":42,"velocity":95},{"deltaTime":0,"channel":9,"type":"noteOn","noteNumber":42,"velocity":95},{"deltaTime":0,"channel":9,"type":"noteOn","noteNumber":36,"velocity":95},{"deltaTime":480,"channel":9,"type":"noteOff","noteNumber":42,"velocity":95},{"deltaTime":0,"channel":9,"type":"noteOff","noteNumber":36,"velocity":95},{"deltaTime":0,"channel":9,"type":"noteOn","noteNumber":42,"velocity":95},{"deltaTime":480,"channel":9,"type":"noteOff","noteNumber":42,"velocity":95},{"deltaTime":0,"channel":9,"type":"noteOn","noteNumber":38,"velocity":95},{"deltaTime":0,"channel":9,"type":"noteOn","noteNumber":59,"velocity":95},{"deltaTime":480,"channel":9,"type":"noteOff","noteNumber":38,"velocity":95},{"deltaTime":0,"channel":9,"type":"noteOff","noteNumber":59,"velocity":95},{"deltaTime":0,"channel":9,"type":"noteOn","noteNumber":42,"velocity":95},{"deltaTime":480,"channel":9,"type":"noteOff","noteNumber":42,"velocity":95},{"deltaTime":0,"channel":9,"type":"noteOn","noteNumber":42,"velocity":95},{"deltaTime":0,"channel":9,"type":"noteOn","noteNumber":36,"velocity":95},{"deltaTime":480,"channel":9,"type":"noteOff","noteNumber":42,"velocity":95},{"deltaTime":0,"channel":9,"type":"noteOff","noteNumber":36,"velocity":95},{"deltaTime":0,"channel":9,"type":"noteOn","noteNumber":42,"velocity":95},{"deltaTime":480,"channel":9,"type":"noteOff","noteNumber":42,"velocity":95},{"deltaTime":0,"channel":9,"type":"noteOn","noteNumber":38,"velocity":95},{"deltaTime":0,"channel":9,"type":"noteOn","noteNumber":59,"velocity":95},{"deltaTime":480,"channel":9,"type":"noteOff","noteNumber":38,"velocity":95},{"deltaTime":0,"channel":9,"type":"noteOff","noteNumber":59,"velocity":95},{"deltaTime":0,"channel":9,"type":"noteOn","noteNumber":42,"velocity":95},{"deltaTime":480,"channel":9,"type":"noteOff","noteNumber":42,"velocity":95},{"deltaTime":0,"channel":9,"type":"noteOn","noteNumber":42,"velocity":95},{"deltaTime":0,"channel":9,"type":"noteOn","noteNumber":36,"velocity":95},{"deltaTime":480,"channel":9,"type":"noteOff","noteNumber":42,"velocity":95},{"deltaTime":0,"channel":9,"type":"noteOff","noteNumber":36,"velocity":95},{"deltaTime":0,"channel":9,"type":"noteOn","noteNumber":38,"velocity":95},{"deltaTime":480,"channel":9,"type":"noteOff","noteNumber":38,"velocity":95},{"deltaTime":0,"channel":9,"type":"noteOn","noteNumber":36,"velocity":95},{"deltaTime":480,"channel":9,"type":"noteOff","noteNumber":36,"velocity":95},{"deltaTime":0,"channel":9,"type":"noteOn","noteNumber":38,"velocity":95},{"deltaTime":0,"channel":9,"type":"noteOn","noteNumber":59,"velocity":95},{"deltaTime":480,"channel":9,"type":"noteOff","noteNumber":38,"velocity":95},{"deltaTime":0,"channel":9,"type":"noteOff","noteNumber":59,"velocity":95},{"deltaTime":0,"channel":9,"type":"noteOn","noteNumber":42,"velocity":95},{"deltaTime":0,"channel":9,"type":"noteOn","noteNumber":36,"velocity":95},{"deltaTime":480,"channel":9,"type":"noteOff","noteNumber":42,"velocity":95},{"deltaTime":0,"channel":9,"type":"noteOff","noteNumber":36,"velocity":95},{"deltaTime":0,"channel":9,"type":"noteOn","noteNumber":42,"velocity":95},{"deltaTime":480,"channel":9,"type":"noteOff","noteNumber":42,"velocity":95},{"deltaTime":0,"channel":9,"type":"noteOn","noteNumber":38,"velocity":95},{"deltaTime":0,"channel":9,"type":"noteOn","noteNumber":59,"velocity":95},{"deltaTime":480,"channel":9,"type":"noteOff","noteNumber":38,"velocity":95},{"deltaTime":0,"channel":9,"type":"noteOff","noteNumber":59,"velocity":95},{"deltaTime":0,"channel":9,"type":"noteOn","noteNumber":42,"velocity":95},{"deltaTime":480,"channel":9,"type":"noteOff","noteNumber":42,"velocity":95},{"deltaTime":0,"channel":9,"type":"noteOn","noteNumber":42,"velocity":95},{"deltaTime":0,"channel":9,"type":"noteOn","noteNumber":36,"velocity":95},{"deltaTime":480,"channel":9,"type":"noteOff","noteNumber":42,"velocity":95},{"deltaTime":0,"channel":9,"type":"noteOff","noteNumber":36,"velocity":95},{"deltaTime":0,"channel":9,"type":"noteOn","noteNumber":42,"velocity":95},{"deltaTime":480,"channel":9,"type":"noteOff","noteNumber":42,"velocity":95},{"deltaTime":0,"channel":9,"type":"noteOn","noteNumber":38,"velocity":95},{"deltaTime":0,"channel":9,"type":"noteOn","noteNumber":59,"velocity":95},{"deltaTime":480,"channel":9,"type":"noteOff","noteNumber":38,"velocity":95},{"deltaTime":0,"channel":9,"type":"noteOff","noteNumber":59,"velocity":95},{"deltaTime":0,"channel":9,"type":"noteOn","noteNumber":42,"velocity":95},{"deltaTime":480,"channel":9,"type":"noteOff","noteNumber":42,"velocity":95},{"deltaTime":0,"channel":9,"type":"noteOn","noteNumber":42,"velocity":95},{"deltaTime":0,"channel":9,"type":"noteOn","noteNumber":36,"velocity":95},{"deltaTime":480,"channel":9,"type":"noteOff","noteNumber":42,"velocity":95},{"deltaTime":0,"channel":9,"type":"noteOff","noteNumber":36,"velocity":95},{"deltaTime":0,"channel":9,"type":"noteOn","noteNumber":42,"velocity":95},{"deltaTime":480,"channel":9,"type":"noteOff","noteNumber":42,"velocity":95},{"deltaTime":0,"channel":9,"type":"noteOn","noteNumber":38,"velocity":95},{"deltaTime":0,"channel":9,"type":"noteOn","noteNumber":59,"velocity":95},{"deltaTime":480,"channel":9,"type":"noteOff","noteNumber":38,"velocity":95},{"deltaTime":0,"channel":9,"type":"noteOff","noteNumber":59,"velocity":95},{"deltaTime":0,"channel":9,"type":"noteOn","noteNumber":42,"velocity":95},{"deltaTime":480,"channel":9,"type":"noteOff","noteNumber":42,"velocity":95},{"deltaTime":0,"channel":9,"type":"noteOn","noteNumber":42,"velocity":95},{"deltaTime":0,"channel":9,"type":"noteOn","noteNumber":36,"velocity":95},{"deltaTime":480,"channel":9,"type":"noteOff","noteNumber":42,"velocity":95},{"deltaTime":0,"channel":9,"type":"noteOff","noteNumber":36,"velocity":95},{"deltaTime":0,"channel":9,"type":"noteOn","noteNumber":42,"velocity":95},{"deltaTime":480,"channel":9,"type":"noteOff","noteNumber":42,"velocity":95},{"deltaTime":0,"channel":9,"type":"noteOn","noteNumber":38,"velocity":95},{"deltaTime":0,"channel":9,"type":"noteOn","noteNumber":59,"velocity":95},{"deltaTime":480,"channel":9,"type":"noteOff","noteNumber":38,"velocity":95},{"deltaTime":0,"channel":9,"type":"noteOff","noteNumber":59,"velocity":95},{"deltaTime":0,"channel":9,"type":"noteOn","noteNumber":42,"velocity":95},{"deltaTime":480,"channel":9,"type":"noteOff","noteNumber":42,"velocity":95},{"deltaTime":0,"channel":9,"type":"noteOn","noteNumber":42,"velocity":95},{"deltaTime":0,"channel":9,"type":"noteOn","noteNumber":36,"velocity":95},{"deltaTime":480,"channel":9,"type":"noteOff","noteNumber":42,"velocity":95},{"deltaTime":0,"channel":9,"type":"noteOff","noteNumber":36,"velocity":95},{"deltaTime":0,"channel":9,"type":"noteOn","noteNumber":42,"velocity":95},{"deltaTime":480,"channel":9,"type":"noteOff","noteNumber":42,"velocity":95},{"deltaTime":0,"channel":9,"type":"noteOn","noteNumber":38,"velocity":95},{"deltaTime":0,"channel":9,"type":"noteOn","noteNumber":59,"velocity":95},{"deltaTime":480,"channel":9,"type":"noteOff","noteNumber":38,"velocity":95},{"deltaTime":0,"channel":9,"type":"noteOff","noteNumber":59,"velocity":95},{"deltaTime":0,"channel":9,"type":"noteOn","noteNumber":42,"velocity":95},{"deltaTime":480,"channel":9,"type":"noteOff","noteNumber":42,"velocity":95},{"deltaTime":0,"channel":9,"type":"noteOn","noteNumber":42,"velocity":95},{"deltaTime":0,"channel":9,"type":"noteOn","noteNumber":36,"velocity":95},{"deltaTime":480,"channel":9,"type":"noteOff","noteNumber":42,"velocity":95},{"deltaTime":0,"channel":9,"type":"noteOff","noteNumber":36,"velocity":95},{"deltaTime":0,"channel":9,"type":"noteOn","noteNumber":42,"velocity":95},{"deltaTime":480,"channel":9,"type":"noteOff","noteNumber":42,"velocity":95},{"deltaTime":0,"channel":9,"type":"noteOn","noteNumber":38,"velocity":95},{"deltaTime":0,"channel":9,"type":"noteOn","noteNumber":59,"velocity":95},{"deltaTime":480,"channel":9,"type":"noteOff","noteNumber":38,"velocity":95},{"deltaTime":0,"channel":9,"type":"noteOff","noteNumber":59,"velocity":95},{"deltaTime":0,"channel":9,"type":"noteOn","noteNumber":42,"velocity":95},{"deltaTime":480,"channel":9,"type":"noteOff","noteNumber":42,"velocity":95},{"deltaTime":0,"channel":9,"type":"noteOn","noteNumber":42,"velocity":95},{"deltaTime":0,"channel":9,"type":"noteOn","noteNumber":36,"velocity":95},{"deltaTime":480,"channel":9,"type":"noteOff","noteNumber":42,"velocity":95},{"deltaTime":0,"channel":9,"type":"noteOff","noteNumber":36,"velocity":95},{"deltaTime":0,"channel":9,"type":"noteOn","noteNumber":42,"velocity":95},{"deltaTime":480,"channel":9,"type":"noteOff","noteNumber":42,"velocity":95},{"deltaTime":0,"channel":9,"type":"noteOn","noteNumber":42,"velocity":95},{"deltaTime":480,"channel":9,"type":"noteOff","noteNumber":42,"velocity":95},{"deltaTime":0,"channel":9,"type":"noteOn","noteNumber":38,"velocity":95},{"deltaTime":0,"channel":9,"type":"noteOn","noteNumber":59,"velocity":95},{"deltaTime":480,"channel":9,"type":"noteOff","noteNumber":38,"velocity":95},{"deltaTime":0,"channel":9,"type":"noteOff","noteNumber":59,"velocity":95},{"deltaTime":0,"channel":9,"type":"noteOn","noteNumber":36,"velocity":95},{"deltaTime":480,"channel":9,"type":"noteOff","noteNumber":36,"velocity":95},{"deltaTime":0,"channel":9,"type":"noteOn","noteNumber":38,"velocity":95},{"deltaTime":480,"channel":9,"type":"noteOff","noteNumber":38,"velocity":95},{"deltaTime":0,"channel":9,"type":"noteOn","noteNumber":36,"velocity":95},{"deltaTime":480,"channel":9,"type":"noteOff","noteNumber":36,"velocity":95},{"deltaTime":0,"channel":9,"type":"noteOn","noteNumber":38,"velocity":95},{"deltaTime":0,"channel":9,"type":"noteOn","noteNumber":59,"velocity":95},{"deltaTime":480,"channel":9,"type":"noteOff","noteNumber":38,"velocity":95},{"deltaTime":0,"channel":9,"type":"noteOff","noteNumber":59,"velocity":95},{"deltaTime":0,"channel":9,"type":"noteOn","noteNumber":36,"velocity":95},{"deltaTime":0,"channel":9,"type":"noteOn","noteNumber":59,"velocity":95},{"deltaTime":480,"channel":9,"type":"noteOff","noteNumber":36,"velocity":95},{"deltaTime":0,"channel":9,"type":"noteOff","noteNumber":59,"velocity":95},{"deltaTime":0,"channel":9,"type":"noteOn","noteNumber":42,"velocity":95},{"deltaTime":480,"channel":9,"type":"noteOff","noteNumber":42,"velocity":95},{"deltaTime":0,"channel":9,"type":"noteOn","noteNumber":42,"velocity":95},{"deltaTime":0,"channel":9,"type":"noteOn","noteNumber":38,"velocity":95},{"deltaTime":480,"channel":9,"type":"noteOff","noteNumber":42,"velocity":95},{"deltaTime":0,"channel":9,"type":"noteOff","noteNumber":38,"velocity":95},{"deltaTime":0,"channel":9,"type":"noteOn","noteNumber":42,"velocity":95},{"deltaTime":480,"channel":9,"type":"noteOff","noteNumber":42,"velocity":95},{"deltaTime":0,"channel":9,"type":"noteOn","noteNumber":42,"velocity":95},{"deltaTime":0,"channel":9,"type":"noteOn","noteNumber":36,"velocity":95},{"deltaTime":480,"channel":9,"type":"noteOff","noteNumber":42,"velocity":95},{"deltaTime":0,"channel":9,"type":"noteOff","noteNumber":36,"velocity":95},{"deltaTime":0,"channel":9,"type":"noteOn","noteNumber":42,"velocity":95},{"deltaTime":480,"channel":9,"type":"noteOff","noteNumber":42,"velocity":95},{"deltaTime":0,"channel":9,"type":"noteOn","noteNumber":42,"velocity":95},{"deltaTime":0,"channel":9,"type":"noteOn","noteNumber":38,"velocity":95},{"deltaTime":480,"channel":9,"type":"noteOff","noteNumber":42,"velocity":95},{"deltaTime":0,"channel":9,"type":"noteOff","noteNumber":38,"velocity":95},{"deltaTime":0,"channel":9,"type":"noteOn","noteNumber":42,"velocity":95},{"deltaTime":480,"channel":9,"type":"noteOff","noteNumber":42,"velocity":95},{"deltaTime":0,"channel":9,"type":"noteOn","noteNumber":42,"velocity":95},{"deltaTime":0,"channel":9,"type":"noteOn","noteNumber":36,"velocity":95},{"deltaTime":480,"channel":9,"type":"noteOff","noteNumber":42,"velocity":95},{"deltaTime":0,"channel":9,"type":"noteOff","noteNumber":36,"velocity":95},{"deltaTime":0,"channel":9,"type":"noteOn","noteNumber":42,"velocity":95},{"deltaTime":480,"channel":9,"type":"noteOff","noteNumber":42,"velocity":95},{"deltaTime":0,"channel":9,"type":"noteOn","noteNumber":42,"velocity":95},{"deltaTime":0,"channel":9,"type":"noteOn","noteNumber":38,"velocity":95},{"deltaTime":480,"channel":9,"type":"noteOff","noteNumber":42,"velocity":95},{"deltaTime":0,"channel":9,"type":"noteOff","noteNumber":38,"velocity":95},{"deltaTime":0,"channel":9,"type":"noteOn","noteNumber":42,"velocity":95},{"deltaTime":480,"channel":9,"type":"noteOff","noteNumber":42,"velocity":95},{"deltaTime":0,"channel":9,"type":"noteOn","noteNumber":42,"velocity":95},{"deltaTime":0,"channel":9,"type":"noteOn","noteNumber":36,"velocity":95},{"deltaTime":480,"channel":9,"type":"noteOff","noteNumber":42,"velocity":95},{"deltaTime":0,"channel":9,"type":"noteOff","noteNumber":36,"velocity":95},{"deltaTime":0,"channel":9,"type":"noteOn","noteNumber":42,"velocity":95},{"deltaTime":480,"channel":9,"type":"noteOff","noteNumber":42,"velocity":95},{"deltaTime":0,"channel":9,"type":"noteOn","noteNumber":42,"velocity":95},{"deltaTime":0,"channel":9,"type":"noteOn","noteNumber":38,"velocity":95},{"deltaTime":480,"channel":9,"type":"noteOff","noteNumber":42,"velocity":95},{"deltaTime":0,"channel":9,"type":"noteOff","noteNumber":38,"velocity":95},{"deltaTime":0,"channel":9,"type":"noteOn","noteNumber":42,"velocity":95},{"deltaTime":480,"channel":9,"type":"noteOff","noteNumber":42,"velocity":95},{"deltaTime":0,"channel":9,"type":"noteOn","noteNumber":42,"velocity":95},{"deltaTime":0,"channel":9,"type":"noteOn","noteNumber":36,"velocity":95},{"deltaTime":480,"channel":9,"type":"noteOff","noteNumber":42,"velocity":95},{"deltaTime":0,"channel":9,"type":"noteOff","noteNumber":36,"velocity":95},{"deltaTime":0,"channel":9,"type":"noteOn","noteNumber":42,"velocity":95},{"deltaTime":480,"channel":9,"type":"noteOff","noteNumber":42,"velocity":95},{"deltaTime":0,"channel":9,"type":"noteOn","noteNumber":42,"velocity":95},{"deltaTime":0,"channel":9,"type":"noteOn","noteNumber":38,"velocity":95},{"deltaTime":480,"channel":9,"type":"noteOff","noteNumber":42,"velocity":95},{"deltaTime":0,"channel":9,"type":"noteOff","noteNumber":38,"velocity":95},{"deltaTime":0,"channel":9,"type":"noteOn","noteNumber":42,"velocity":95},{"deltaTime":480,"channel":9,"type":"noteOff","noteNumber":42,"velocity":95},{"deltaTime":0,"channel":9,"type":"noteOn","noteNumber":42,"velocity":95},{"deltaTime":0,"channel":9,"type":"noteOn","noteNumber":36,"velocity":95},{"deltaTime":480,"channel":9,"type":"noteOff","noteNumber":42,"velocity":95},{"deltaTime":0,"channel":9,"type":"noteOff","noteNumber":36,"velocity":95},{"deltaTime":0,"channel":9,"type":"noteOn","noteNumber":42,"velocity":95},{"deltaTime":480,"channel":9,"type":"noteOff","noteNumber":42,"velocity":95},{"deltaTime":0,"channel":9,"type":"noteOn","noteNumber":42,"velocity":95},{"deltaTime":0,"channel":9,"type":"noteOn","noteNumber":38,"velocity":95},{"deltaTime":480,"channel":9,"type":"noteOff","noteNumber":42,"velocity":95},{"deltaTime":0,"channel":9,"type":"noteOff","noteNumber":38,"velocity":95},{"deltaTime":0,"channel":9,"type":"noteOn","noteNumber":42,"velocity":95},{"deltaTime":480,"channel":9,"type":"noteOff","noteNumber":42,"velocity":95},{"deltaTime":0,"channel":9,"type":"noteOn","noteNumber":42,"velocity":95},{"deltaTime":0,"channel":9,"type":"noteOn","noteNumber":36,"velocity":95},{"deltaTime":480,"channel":9,"type":"noteOff","noteNumber":42,"velocity":95},{"deltaTime":0,"channel":9,"type":"noteOff","noteNumber":36,"velocity":95},{"deltaTime":0,"channel":9,"type":"noteOn","noteNumber":42,"velocity":95},{"deltaTime":480,"channel":9,"type":"noteOff","noteNumber":42,"velocity":95},{"deltaTime":0,"channel":9,"type":"noteOn","noteNumber":42,"velocity":95},{"deltaTime":0,"channel":9,"type":"noteOn","noteNumber":38,"velocity":95},{"deltaTime":480,"channel":9,"type":"noteOff","noteNumber":42,"velocity":95},{"deltaTime":0,"channel":9,"type":"noteOff","noteNumber":38,"velocity":95},{"deltaTime":0,"channel":9,"type":"noteOn","noteNumber":42,"velocity":95},{"deltaTime":480,"channel":9,"type":"noteOff","noteNumber":42,"velocity":95},{"deltaTime":0,"channel":9,"type":"noteOn","noteNumber":42,"velocity":95},{"deltaTime":0,"channel":9,"type":"noteOn","noteNumber":36,"velocity":95},{"deltaTime":480,"channel":9,"type":"noteOff","noteNumber":42,"velocity":95},{"deltaTime":0,"channel":9,"type":"noteOff","noteNumber":36,"velocity":95},{"deltaTime":0,"channel":9,"type":"noteOn","noteNumber":42,"velocity":95},{"deltaTime":0,"channel":9,"type":"noteOn","noteNumber":36,"velocity":95},{"deltaTime":480,"channel":9,"type":"noteOff","noteNumber":42,"velocity":95},{"deltaTime":0,"channel":9,"type":"noteOff","noteNumber":36,"velocity":95},{"deltaTime":0,"channel":9,"type":"noteOn","noteNumber":42,"velocity":95},{"deltaTime":0,"channel":9,"type":"noteOn","noteNumber":38,"velocity":95},{"deltaTime":480,"channel":9,"type":"noteOff","noteNumber":42,"velocity":95},{"deltaTime":0,"channel":9,"type":"noteOff","noteNumber":38,"velocity":95},{"deltaTime":0,"channel":9,"type":"noteOn","noteNumber":42,"velocity":95},{"deltaTime":480,"channel":9,"type":"noteOff","noteNumber":42,"velocity":95},{"deltaTime":0,"channel":9,"type":"noteOn","noteNumber":42,"velocity":95},{"deltaTime":0,"channel":9,"type":"noteOn","noteNumber":36,"velocity":95},{"deltaTime":480,"channel":9,"type":"noteOff","noteNumber":42,"velocity":95},{"deltaTime":0,"channel":9,"type":"noteOff","noteNumber":36,"velocity":95},{"deltaTime":0,"channel":9,"type":"noteOn","noteNumber":42,"velocity":95},{"deltaTime":480,"channel":9,"type":"noteOff","noteNumber":42,"velocity":95},{"deltaTime":0,"channel":9,"type":"noteOn","noteNumber":42,"velocity":95},{"deltaTime":0,"channel":9,"type":"noteOn","noteNumber":38,"velocity":95},{"deltaTime":480,"channel":9,"type":"noteOff","noteNumber":42,"velocity":95},{"deltaTime":0,"channel":9,"type":"noteOff","noteNumber":38,"velocity":95},{"deltaTime":0,"channel":9,"type":"noteOn","noteNumber":42,"velocity":95},{"deltaTime":480,"channel":9,"type":"noteOff","noteNumber":42,"velocity":95},{"deltaTime":0,"channel":9,"type":"noteOn","noteNumber":42,"velocity":95},{"deltaTime":0,"channel":9,"type":"noteOn","noteNumber":36,"velocity":95},{"deltaTime":480,"channel":9,"type":"noteOff","noteNumber":42,"velocity":95},{"deltaTime":0,"channel":9,"type":"noteOff","noteNumber":36,"velocity":95},{"deltaTime":0,"channel":9,"type":"noteOn","noteNumber":42,"velocity":95},{"deltaTime":0,"channel":9,"type":"noteOn","noteNumber":36,"velocity":95},{"deltaTime":480,"channel":9,"type":"noteOff","noteNumber":42,"velocity":95},{"deltaTime":0,"channel":9,"type":"noteOff","noteNumber":36,"velocity":95},{"deltaTime":0,"channel":9,"type":"noteOn","noteNumber":42,"velocity":95},{"deltaTime":0,"channel":9,"type":"noteOn","noteNumber":38,"velocity":95},{"deltaTime":480,"channel":9,"type":"noteOff","noteNumber":42,"velocity":95},{"deltaTime":0,"channel":9,"type":"noteOff","noteNumber":38,"velocity":95},{"deltaTime":0,"channel":9,"type":"noteOn","noteNumber":42,"velocity":95},{"deltaTime":480,"channel":9,"type":"noteOff","noteNumber":42,"velocity":95},{"deltaTime":0,"channel":9,"type":"noteOn","noteNumber":42,"velocity":95},{"deltaTime":0,"channel":9,"type":"noteOn","noteNumber":36,"velocity":95},{"deltaTime":480,"channel":9,"type":"noteOff","noteNumber":42,"velocity":95},{"deltaTime":0,"channel":9,"type":"noteOff","noteNumber":36,"velocity":95},{"deltaTime":0,"channel":9,"type":"noteOn","noteNumber":42,"velocity":95},{"deltaTime":480,"channel":9,"type":"noteOff","noteNumber":42,"velocity":95},{"deltaTime":0,"channel":9,"type":"noteOn","noteNumber":42,"velocity":95},{"deltaTime":0,"channel":9,"type":"noteOn","noteNumber":38,"velocity":95},{"deltaTime":480,"channel":9,"type":"noteOff","noteNumber":42,"velocity":95},{"deltaTime":0,"channel":9,"type":"noteOff","noteNumber":38,"velocity":95},{"deltaTime":0,"channel":9,"type":"noteOn","noteNumber":42,"velocity":95},{"deltaTime":480,"channel":9,"type":"noteOff","noteNumber":42,"velocity":95},{"deltaTime":0,"channel":9,"type":"noteOn","noteNumber":42,"velocity":95},{"deltaTime":0,"channel":9,"type":"noteOn","noteNumber":36,"velocity":95},{"deltaTime":480,"channel":9,"type":"noteOff","noteNumber":42,"velocity":95},{"deltaTime":0,"channel":9,"type":"noteOff","noteNumber":36,"velocity":95},{"deltaTime":0,"channel":9,"type":"noteOn","noteNumber":42,"velocity":95},{"deltaTime":0,"channel":9,"type":"noteOn","noteNumber":36,"velocity":95},{"deltaTime":480,"channel":9,"type":"noteOff","noteNumber":42,"velocity":95},{"deltaTime":0,"channel":9,"type":"noteOff","noteNumber":36,"velocity":95},{"deltaTime":0,"channel":9,"type":"noteOn","noteNumber":42,"velocity":95},{"deltaTime":0,"channel":9,"type":"noteOn","noteNumber":38,"velocity":95},{"deltaTime":480,"channel":9,"type":"noteOff","noteNumber":42,"velocity":95},{"deltaTime":0,"channel":9,"type":"noteOff","noteNumber":38,"velocity":95},{"deltaTime":0,"channel":9,"type":"noteOn","noteNumber":42,"velocity":95},{"deltaTime":480,"channel":9,"type":"noteOff","noteNumber":42,"velocity":95},{"deltaTime":0,"channel":9,"type":"noteOn","noteNumber":42,"velocity":95},{"deltaTime":0,"channel":9,"type":"noteOn","noteNumber":36,"velocity":95},{"deltaTime":480,"channel":9,"type":"noteOff","noteNumber":42,"velocity":95},{"deltaTime":0,"channel":9,"type":"noteOff","noteNumber":36,"velocity":95},{"deltaTime":0,"channel":9,"type":"noteOn","noteNumber":42,"velocity":95},{"deltaTime":480,"channel":9,"type":"noteOff","noteNumber":42,"velocity":95},{"deltaTime":0,"channel":9,"type":"noteOn","noteNumber":42,"velocity":95},{"deltaTime":0,"channel":9,"type":"noteOn","noteNumber":38,"velocity":95},{"deltaTime":480,"channel":9,"type":"noteOff","noteNumber":42,"velocity":95},{"deltaTime":0,"channel":9,"type":"noteOff","noteNumber":38,"velocity":95},{"deltaTime":0,"channel":9,"type":"noteOn","noteNumber":42,"velocity":95},{"deltaTime":480,"channel":9,"type":"noteOff","noteNumber":42,"velocity":95},{"deltaTime":0,"channel":9,"type":"noteOn","noteNumber":42,"velocity":95},{"deltaTime":0,"channel":9,"type":"noteOn","noteNumber":36,"velocity":95},{"deltaTime":480,"channel":9,"type":"noteOff","noteNumber":42,"velocity":95},{"deltaTime":0,"channel":9,"type":"noteOff","noteNumber":36,"velocity":95},{"deltaTime":0,"channel":9,"type":"noteOn","noteNumber":42,"velocity":95},{"deltaTime":0,"channel":9,"type":"noteOn","noteNumber":36,"velocity":95},{"deltaTime":480,"channel":9,"type":"noteOff","noteNumber":42,"velocity":95},{"deltaTime":0,"channel":9,"type":"noteOff","noteNumber":36,"velocity":95},{"deltaTime":0,"channel":9,"type":"noteOn","noteNumber":42,"velocity":95},{"deltaTime":0,"channel":9,"type":"noteOn","noteNumber":38,"velocity":95},{"deltaTime":480,"channel":9,"type":"noteOff","noteNumber":42,"velocity":95},{"deltaTime":0,"channel":9,"type":"noteOff","noteNumber":38,"velocity":95},{"deltaTime":0,"channel":9,"type":"noteOn","noteNumber":42,"velocity":95},{"deltaTime":480,"channel":9,"type":"noteOff","noteNumber":42,"velocity":95},{"deltaTime":0,"channel":9,"type":"noteOn","noteNumber":42,"velocity":95},{"deltaTime":0,"channel":9,"type":"noteOn","noteNumber":36,"velocity":95},{"deltaTime":480,"channel":9,"type":"noteOff","noteNumber":42,"velocity":95},{"deltaTime":0,"channel":9,"type":"noteOff","noteNumber":36,"velocity":95},{"deltaTime":0,"channel":9,"type":"noteOn","noteNumber":42,"velocity":95},{"deltaTime":480,"channel":9,"type":"noteOff","noteNumber":42,"velocity":95},{"deltaTime":0,"channel":9,"type":"noteOn","noteNumber":42,"velocity":95},{"deltaTime":0,"channel":9,"type":"noteOn","noteNumber":38,"velocity":95},{"deltaTime":480,"channel":9,"type":"noteOff","noteNumber":42,"velocity":95},{"deltaTime":0,"channel":9,"type":"noteOff","noteNumber":38,"velocity":95},{"deltaTime":0,"channel":9,"type":"noteOn","noteNumber":42,"velocity":95},{"deltaTime":480,"channel":9,"type":"noteOff","noteNumber":42,"velocity":95},{"deltaTime":0,"channel":9,"type":"noteOn","noteNumber":42,"velocity":95},{"deltaTime":0,"channel":9,"type":"noteOn","noteNumber":36,"velocity":95},{"deltaTime":480,"channel":9,"type":"noteOff","noteNumber":42,"velocity":95},{"deltaTime":0,"channel":9,"type":"noteOff","noteNumber":36,"velocity":95},{"deltaTime":0,"channel":9,"type":"noteOn","noteNumber":42,"velocity":95},{"deltaTime":0,"channel":9,"type":"noteOn","noteNumber":36,"velocity":95},{"deltaTime":480,"channel":9,"type":"noteOff","noteNumber":42,"velocity":95},{"deltaTime":0,"channel":9,"type":"noteOff","noteNumber":36,"velocity":95},{"deltaTime":0,"channel":9,"type":"noteOn","noteNumber":42,"velocity":95},{"deltaTime":0,"channel":9,"type":"noteOn","noteNumber":38,"velocity":95},{"deltaTime":480,"channel":9,"type":"noteOff","noteNumber":42,"velocity":95},{"deltaTime":0,"channel":9,"type":"noteOff","noteNumber":38,"velocity":95},{"deltaTime":0,"channel":9,"type":"noteOn","noteNumber":36,"velocity":95},{"deltaTime":0,"channel":9,"type":"noteOn","noteNumber":59,"velocity":95},{"deltaTime":480,"channel":9,"type":"noteOff","noteNumber":36,"velocity":95},{"deltaTime":0,"channel":9,"type":"noteOff","noteNumber":59,"velocity":95},{"deltaTime":0,"channel":9,"type":"noteOn","noteNumber":42,"velocity":95},{"deltaTime":480,"channel":9,"type":"noteOff","noteNumber":42,"velocity":95},{"deltaTime":0,"channel":9,"type":"noteOn","noteNumber":42,"velocity":95},{"deltaTime":0,"channel":9,"type":"noteOn","noteNumber":36,"velocity":95},{"deltaTime":480,"channel":9,"type":"noteOff","noteNumber":42,"velocity":95},{"deltaTime":0,"channel":9,"type":"noteOff","noteNumber":36,"velocity":95},{"deltaTime":0,"channel":9,"type":"noteOn","noteNumber":42,"velocity":95},{"deltaTime":0,"channel":9,"type":"noteOn","noteNumber":38,"velocity":95},{"deltaTime":480,"channel":9,"type":"noteOff","noteNumber":42,"velocity":95},{"deltaTime":0,"channel":9,"type":"noteOff","noteNumber":38,"velocity":95},{"deltaTime":0,"channel":9,"type":"noteOn","noteNumber":36,"velocity":95},{"deltaTime":0,"channel":9,"type":"noteOn","noteNumber":59,"velocity":95},{"deltaTime":480,"channel":9,"type":"noteOff","noteNumber":36,"velocity":95},{"deltaTime":0,"channel":9,"type":"noteOff","noteNumber":59,"velocity":95},{"deltaTime":0,"channel":9,"type":"noteOn","noteNumber":42,"velocity":95},{"deltaTime":480,"channel":9,"type":"noteOff","noteNumber":42,"velocity":95},{"deltaTime":0,"channel":9,"type":"noteOn","noteNumber":42,"velocity":95},{"deltaTime":0,"channel":9,"type":"noteOn","noteNumber":36,"velocity":95},{"deltaTime":480,"channel":9,"type":"noteOff","noteNumber":42,"velocity":95},{"deltaTime":0,"channel":9,"type":"noteOff","noteNumber":36,"velocity":95},{"deltaTime":0,"channel":9,"type":"noteOn","noteNumber":42,"velocity":95},{"deltaTime":0,"channel":9,"type":"noteOn","noteNumber":38,"velocity":95},{"deltaTime":480,"channel":9,"type":"noteOff","noteNumber":42,"velocity":95},{"deltaTime":0,"channel":9,"type":"noteOff","noteNumber":38,"velocity":95},{"deltaTime":0,"channel":9,"type":"noteOn","noteNumber":42,"velocity":95},{"deltaTime":480,"channel":9,"type":"noteOff","noteNumber":42,"velocity":95},{"deltaTime":0,"channel":9,"type":"noteOn","noteNumber":42,"velocity":95},{"deltaTime":0,"channel":9,"type":"noteOn","noteNumber":38,"velocity":95},{"deltaTime":480,"channel":9,"type":"noteOff","noteNumber":42,"velocity":95},{"deltaTime":0,"channel":9,"type":"noteOff","noteNumber":38,"velocity":95},{"deltaTime":0,"channel":9,"type":"noteOn","noteNumber":42,"velocity":95},{"deltaTime":0,"channel":9,"type":"noteOn","noteNumber":36,"velocity":95},{"deltaTime":480,"channel":9,"type":"noteOff","noteNumber":42,"velocity":95},{"deltaTime":0,"channel":9,"type":"noteOff","noteNumber":36,"velocity":95},{"deltaTime":0,"channel":9,"type":"noteOn","noteNumber":42,"velocity":95},{"deltaTime":0,"channel":9,"type":"noteOn","noteNumber":38,"velocity":95},{"deltaTime":480,"channel":9,"type":"noteOff","noteNumber":42,"velocity":95},{"deltaTime":0,"channel":9,"type":"noteOff","noteNumber":38,"velocity":95},{"deltaTime":0,"channel":9,"type":"noteOn","noteNumber":36,"velocity":95},{"deltaTime":0,"channel":9,"type":"noteOn","noteNumber":59,"velocity":95},{"deltaTime":480,"channel":9,"type":"noteOff","noteNumber":36,"velocity":95},{"deltaTime":0,"channel":9,"type":"noteOff","noteNumber":59,"velocity":95},{"deltaTime":0,"channel":9,"type":"noteOn","noteNumber":42,"velocity":95},{"deltaTime":480,"channel":9,"type":"noteOff","noteNumber":42,"velocity":95},{"deltaTime":0,"channel":9,"type":"noteOn","noteNumber":42,"velocity":95},{"deltaTime":0,"channel":9,"type":"noteOn","noteNumber":36,"velocity":95},{"deltaTime":480,"channel":9,"type":"noteOff","noteNumber":42,"velocity":95},{"deltaTime":0,"channel":9,"type":"noteOff","noteNumber":36,"velocity":95},{"deltaTime":0,"channel":9,"type":"noteOn","noteNumber":42,"velocity":95},{"deltaTime":0,"channel":9,"type":"noteOn","noteNumber":38,"velocity":95},{"deltaTime":480,"channel":9,"type":"noteOff","noteNumber":42,"velocity":95},{"deltaTime":0,"channel":9,"type":"noteOff","noteNumber":38,"velocity":95},{"deltaTime":0,"channel":9,"type":"noteOn","noteNumber":36,"velocity":95},{"deltaTime":0,"channel":9,"type":"noteOn","noteNumber":59,"velocity":95},{"deltaTime":480,"channel":9,"type":"noteOff","noteNumber":36,"velocity":95},{"deltaTime":0,"channel":9,"type":"noteOff","noteNumber":59,"velocity":95},{"deltaTime":0,"channel":9,"type":"noteOn","noteNumber":42,"velocity":95},{"deltaTime":480,"channel":9,"type":"noteOff","noteNumber":42,"velocity":95},{"deltaTime":0,"channel":9,"type":"noteOn","noteNumber":42,"velocity":95},{"deltaTime":0,"channel":9,"type":"noteOn","noteNumber":36,"velocity":95},{"deltaTime":480,"channel":9,"type":"noteOff","noteNumber":42,"velocity":95},{"deltaTime":0,"channel":9,"type":"noteOff","noteNumber":36,"velocity":95},{"deltaTime":0,"channel":9,"type":"noteOn","noteNumber":42,"velocity":95},{"deltaTime":0,"channel":9,"type":"noteOn","noteNumber":38,"velocity":95},{"deltaTime":480,"channel":9,"type":"noteOff","noteNumber":42,"velocity":95},{"deltaTime":0,"channel":9,"type":"noteOff","noteNumber":38,"velocity":95},{"deltaTime":0,"channel":9,"type":"noteOn","noteNumber":36,"velocity":95},{"deltaTime":0,"channel":9,"type":"noteOn","noteNumber":59,"velocity":95},{"deltaTime":480,"channel":9,"type":"noteOff","noteNumber":36,"velocity":95},{"deltaTime":0,"channel":9,"type":"noteOff","noteNumber":59,"velocity":95},{"deltaTime":0,"channel":9,"type":"noteOn","noteNumber":42,"velocity":95},{"deltaTime":480,"channel":9,"type":"noteOff","noteNumber":42,"velocity":95},{"deltaTime":0,"channel":9,"type":"noteOn","noteNumber":42,"velocity":95},{"deltaTime":0,"channel":9,"type":"noteOn","noteNumber":36,"velocity":95},{"deltaTime":480,"channel":9,"type":"noteOff","noteNumber":42,"velocity":95},{"deltaTime":0,"channel":9,"type":"noteOff","noteNumber":36,"velocity":95},{"deltaTime":0,"channel":9,"type":"noteOn","noteNumber":42,"velocity":95},{"deltaTime":0,"channel":9,"type":"noteOn","noteNumber":38,"velocity":95},{"deltaTime":480,"channel":9,"type":"noteOff","noteNumber":42,"velocity":95},{"deltaTime":0,"channel":9,"type":"noteOff","noteNumber":38,"velocity":95},{"deltaTime":0,"channel":9,"type":"noteOn","noteNumber":42,"velocity":95},{"deltaTime":480,"channel":9,"type":"noteOff","noteNumber":42,"velocity":95},{"deltaTime":0,"channel":9,"type":"noteOn","noteNumber":42,"velocity":95},{"deltaTime":0,"channel":9,"type":"noteOn","noteNumber":38,"velocity":95},{"deltaTime":480,"channel":9,"type":"noteOff","noteNumber":42,"velocity":95},{"deltaTime":0,"channel":9,"type":"noteOff","noteNumber":38,"velocity":95},{"deltaTime":0,"channel":9,"type":"noteOn","noteNumber":42,"velocity":95},{"deltaTime":0,"channel":9,"type":"noteOn","noteNumber":36,"velocity":95},{"deltaTime":480,"channel":9,"type":"noteOff","noteNumber":42,"velocity":95},{"deltaTime":0,"channel":9,"type":"noteOff","noteNumber":36,"velocity":95},{"deltaTime":0,"channel":9,"type":"noteOn","noteNumber":42,"velocity":95},{"deltaTime":0,"channel":9,"type":"noteOn","noteNumber":38,"velocity":95},{"deltaTime":480,"channel":9,"type":"noteOff","noteNumber":42,"velocity":95},{"deltaTime":0,"channel":9,"type":"noteOff","noteNumber":38,"velocity":95},{"deltaTime":0,"channel":9,"type":"noteOn","noteNumber":36,"velocity":95},{"deltaTime":0,"channel":9,"type":"noteOn","noteNumber":59,"velocity":95},{"deltaTime":480,"channel":9,"type":"noteOff","noteNumber":36,"velocity":95},{"deltaTime":0,"channel":9,"type":"noteOff","noteNumber":59,"velocity":95},{"deltaTime":0,"channel":9,"type":"noteOn","noteNumber":42,"velocity":95},{"deltaTime":480,"channel":9,"type":"noteOff","noteNumber":42,"velocity":95},{"deltaTime":0,"channel":9,"type":"noteOn","noteNumber":42,"velocity":95},{"deltaTime":0,"channel":9,"type":"noteOn","noteNumber":36,"velocity":95},{"deltaTime":480,"channel":9,"type":"noteOff","noteNumber":42,"velocity":95},{"deltaTime":0,"channel":9,"type":"noteOff","noteNumber":36,"velocity":95},{"deltaTime":0,"channel":9,"type":"noteOn","noteNumber":42,"velocity":95},{"deltaTime":0,"channel":9,"type":"noteOn","noteNumber":38,"velocity":95},{"deltaTime":480,"channel":9,"type":"noteOff","noteNumber":42,"velocity":95},{"deltaTime":0,"channel":9,"type":"noteOff","noteNumber":38,"velocity":95},{"deltaTime":0,"channel":9,"type":"noteOn","noteNumber":36,"velocity":95},{"deltaTime":0,"channel":9,"type":"noteOn","noteNumber":59,"velocity":95},{"deltaTime":480,"channel":9,"type":"noteOff","noteNumber":36,"velocity":95},{"deltaTime":0,"channel":9,"type":"noteOff","noteNumber":59,"velocity":95},{"deltaTime":0,"channel":9,"type":"noteOn","noteNumber":42,"velocity":95},{"deltaTime":480,"channel":9,"type":"noteOff","noteNumber":42,"velocity":95},{"deltaTime":0,"channel":9,"type":"noteOn","noteNumber":42,"velocity":95},{"deltaTime":0,"channel":9,"type":"noteOn","noteNumber":36,"velocity":95},{"deltaTime":480,"channel":9,"type":"noteOff","noteNumber":42,"velocity":95},{"deltaTime":0,"channel":9,"type":"noteOff","noteNumber":36,"velocity":95},{"deltaTime":0,"channel":9,"type":"noteOn","noteNumber":42,"velocity":95},{"deltaTime":0,"channel":9,"type":"noteOn","noteNumber":38,"velocity":95},{"deltaTime":480,"channel":9,"type":"noteOff","noteNumber":42,"velocity":95},{"deltaTime":0,"channel":9,"type":"noteOff","noteNumber":38,"velocity":95},{"deltaTime":0,"channel":9,"type":"noteOn","noteNumber":36,"velocity":95},{"deltaTime":0,"channel":9,"type":"noteOn","noteNumber":59,"velocity":95},{"deltaTime":480,"channel":9,"type":"noteOff","noteNumber":36,"velocity":95},{"deltaTime":0,"channel":9,"type":"noteOff","noteNumber":59,"velocity":95},{"deltaTime":0,"channel":9,"type":"noteOn","noteNumber":42,"velocity":95},{"deltaTime":480,"channel":9,"type":"noteOff","noteNumber":42,"velocity":95},{"deltaTime":0,"channel":9,"type":"noteOn","noteNumber":42,"velocity":95},{"deltaTime":480,"channel":9,"type":"noteOff","noteNumber":42,"velocity":95},{"deltaTime":0,"channel":9,"type":"noteOn","noteNumber":38,"velocity":95},{"deltaTime":960,"channel":9,"type":"noteOff","noteNumber":38,"velocity":95},{"deltaTime":960,"channel":9,"type":"noteOn","noteNumber":36,"velocity":95},{"deltaTime":0,"channel":9,"type":"noteOn","noteNumber":59,"velocity":95},{"deltaTime":960,"channel":9,"type":"noteOff","noteNumber":36,"velocity":95},{"deltaTime":0,"channel":9,"type":"noteOff","noteNumber":59,"velocity":95},{"deltaTime":0,"channel":9,"type":"noteOn","noteNumber":36,"velocity":95},{"deltaTime":0,"channel":9,"type":"noteOn","noteNumber":59,"velocity":95},{"deltaTime":960,"channel":9,"type":"noteOff","noteNumber":36,"velocity":95},{"deltaTime":0,"channel":9,"type":"noteOff","noteNumber":59,"velocity":95},{"deltaTime":0,"channel":9,"type":"noteOn","noteNumber":36,"velocity":95},{"deltaTime":0,"channel":9,"type":"noteOn","noteNumber":59,"velocity":95},{"deltaTime":960,"channel":9,"type":"noteOff","noteNumber":36,"velocity":95},{"deltaTime":0,"channel":9,"type":"noteOff","noteNumber":59,"velocity":95},{"deltaTime":480,"channel":9,"type":"noteOn","noteNumber":38,"velocity":95},{"deltaTime":480,"channel":9,"type":"noteOff","noteNumber":38,"velocity":95},{"deltaTime":0,"channel":9,"type":"noteOn","noteNumber":45,"velocity":95},{"deltaTime":480,"channel":9,"type":"noteOff","noteNumber":45,"velocity":95},{"deltaTime":0,"channel":9,"type":"noteOn","noteNumber":38,"velocity":95},{"deltaTime":480,"channel":9,"type":"noteOff","noteNumber":38,"velocity":95},{"deltaTime":1920,"channel":9,"type":"noteOn","noteNumber":36,"velocity":95},{"deltaTime":0,"channel":9,"type":"noteOn","noteNumber":59,"velocity":95},{"deltaTime":960,"channel":9,"type":"noteOff","noteNumber":36,"velocity":95},{"deltaTime":0,"channel":9,"type":"noteOff","noteNumber":59,"velocity":95},{"deltaTime":0,"channel":9,"type":"noteOn","noteNumber":38,"velocity":95},{"deltaTime":960,"channel":9,"type":"noteOff","noteNumber":38,"velocity":95},{"deltaTime":0,"channel":9,"type":"noteOn","noteNumber":41,"velocity":95},{"deltaTime":960,"channel":9,"type":"noteOff","noteNumber":41,"velocity":95},{"deltaTime":960,"channel":9,"type":"noteOn","noteNumber":36,"velocity":95},{"deltaTime":0,"channel":9,"type":"noteOn","noteNumber":59,"velocity":95},{"deltaTime":960,"channel":9,"type":"noteOff","noteNumber":36,"velocity":95},{"deltaTime":0,"channel":9,"type":"noteOff","noteNumber":59,"velocity":95},{"deltaTime":3360,"channel":9,"type":"noteOn","noteNumber":38,"velocity":95},{"deltaTime":480,"channel":9,"type":"noteOff","noteNumber":38,"velocity":95},{"deltaTime":0,"channel":9,"type":"noteOn","noteNumber":36,"velocity":95},{"deltaTime":480,"channel":9,"type":"noteOff","noteNumber":36,"velocity":95},{"deltaTime":0,"channel":9,"type":"noteOn","noteNumber":38,"velocity":95},{"deltaTime":480,"channel":9,"type":"noteOff","noteNumber":38,"velocity":95},{"deltaTime":0,"meta":true,"type":"endOfTrack"}],[{"deltaTime":0,"channel":4,"type":"pitchBend","value":0},{"deltaTime":0,"channel":4,"type":"controller","controllerType":7,"value":87},{"deltaTime":0,"channel":4,"type":"controller","controllerType":10,"value":63},{"deltaTime":0,"channel":4,"type":"controller","controllerType":93,"value":0},{"deltaTime":0,"channel":4,"type":"controller","controllerType":91,"value":0},{"deltaTime":0,"channel":4,"type":"controller","controllerType":95,"value":0},{"deltaTime":0,"channel":4,"type":"controller","controllerType":92,"value":0},{"deltaTime":0,"channel":4,"type":"controller","controllerType":11,"value":127},{"deltaTime":0,"channel":4,"type":"programChange","programNumber":14},{"deltaTime":0,"channel":5,"type":"controller","controllerType":7,"value":87},{"deltaTime":0,"channel":5,"type":"controller","controllerType":10,"value":63},{"deltaTime":0,"channel":5,"type":"controller","controllerType":93,"value":0},{"deltaTime":0,"channel":5,"type":"controller","controllerType":91,"value":0},{"deltaTime":0,"channel":5,"type":"controller","controllerType":95,"value":0},{"deltaTime":0,"channel":5,"type":"controller","controllerType":92,"value":0},{"deltaTime":0,"channel":5,"type":"controller","controllerType":11,"value":127},{"deltaTime":0,"channel":5,"type":"programChange","programNumber":14},{"deltaTime":0,"channel":4,"type":"noteOn","noteNumber":55,"velocity":95},{"deltaTime":0,"channel":4,"type":"noteOn","noteNumber":0,"velocity":95},{"deltaTime":0,"channel":4,"type":"noteOn","noteNumber":0,"velocity":95},{"deltaTime":7680,"channel":4,"type":"noteOff","noteNumber":55,"velocity":95},{"deltaTime":0,"channel":4,"type":"noteOff","noteNumber":0,"velocity":95},{"deltaTime":0,"channel":4,"type":"noteOff","noteNumber":0,"velocity":95},{"deltaTime":0,"channel":4,"type":"noteOn","noteNumber":55,"velocity":95},{"deltaTime":0,"channel":4,"type":"noteOn","noteNumber":0,"velocity":95},{"deltaTime":0,"channel":4,"type":"noteOn","noteNumber":0,"velocity":95},{"deltaTime":7680,"channel":4,"type":"noteOff","noteNumber":55,"velocity":95},{"deltaTime":0,"channel":4,"type":"noteOff","noteNumber":0,"velocity":95},{"deltaTime":0,"channel":4,"type":"noteOff","noteNumber":0,"velocity":95},{"deltaTime":0,"channel":4,"type":"noteOn","noteNumber":55,"velocity":95},{"deltaTime":0,"channel":4,"type":"noteOn","noteNumber":0,"velocity":95},{"deltaTime":0,"channel":4,"type":"noteOn","noteNumber":0,"velocity":95},{"deltaTime":7680,"channel":4,"type":"noteOff","noteNumber":55,"velocity":95},{"deltaTime":0,"channel":4,"type":"noteOff","noteNumber":0,"velocity":95},{"deltaTime":0,"channel":4,"type":"noteOff","noteNumber":0,"velocity":95},{"deltaTime":0,"channel":4,"type":"noteOn","noteNumber":55,"velocity":95},{"deltaTime":0,"channel":4,"type":"noteOn","noteNumber":0,"velocity":95},{"deltaTime":0,"channel":4,"type":"noteOn","noteNumber":0,"velocity":95},{"deltaTime":7680,"channel":4,"type":"noteOff","noteNumber":55,"velocity":95},{"deltaTime":0,"channel":4,"type":"noteOff","noteNumber":0,"velocity":95},{"deltaTime":0,"channel":4,"type":"noteOff","noteNumber":0,"velocity":95},{"deltaTime":0,"channel":4,"type":"noteOn","noteNumber":55,"velocity":95},{"deltaTime":0,"channel":4,"type":"noteOn","noteNumber":0,"velocity":95},{"deltaTime":0,"channel":4,"type":"noteOn","noteNumber":0,"velocity":95},{"deltaTime":7680,"channel":4,"type":"noteOff","noteNumber":55,"velocity":95},{"deltaTime":0,"channel":4,"type":"noteOff","noteNumber":0,"velocity":95},{"deltaTime":0,"channel":4,"type":"noteOff","noteNumber":0,"velocity":95},{"deltaTime":0,"channel":4,"type":"noteOn","noteNumber":55,"velocity":95},{"deltaTime":0,"channel":4,"type":"noteOn","noteNumber":0,"velocity":95},{"deltaTime":0,"channel":4,"type":"noteOn","noteNumber":0,"velocity":95},{"deltaTime":7680,"channel":4,"type":"noteOff","noteNumber":55,"velocity":95},{"deltaTime":0,"channel":4,"type":"noteOff","noteNumber":0,"velocity":95},{"deltaTime":0,"channel":4,"type":"noteOff","noteNumber":0,"velocity":95},{"deltaTime":0,"channel":4,"type":"noteOn","noteNumber":55,"velocity":95},{"deltaTime":0,"channel":4,"type":"noteOn","noteNumber":0,"velocity":95},{"deltaTime":0,"channel":4,"type":"noteOn","noteNumber":0,"velocity":95},{"deltaTime":7680,"channel":4,"type":"noteOff","noteNumber":55,"velocity":95},{"deltaTime":0,"channel":4,"type":"noteOff","noteNumber":0,"velocity":95},{"deltaTime":0,"channel":4,"type":"noteOff","noteNumber":0,"velocity":95},{"deltaTime":0,"channel":4,"type":"noteOn","noteNumber":55,"velocity":95},{"deltaTime":0,"channel":4,"type":"noteOn","noteNumber":0,"velocity":95},{"deltaTime":0,"channel":4,"type":"noteOn","noteNumber":0,"velocity":95},{"deltaTime":7680,"channel":4,"type":"noteOff","noteNumber":55,"velocity":95},{"deltaTime":0,"channel":4,"type":"noteOff","noteNumber":0,"velocity":95},{"deltaTime":0,"channel":4,"type":"noteOff","noteNumber":0,"velocity":95},{"deltaTime":0,"channel":4,"type":"noteOn","noteNumber":55,"velocity":95},{"deltaTime":0,"channel":4,"type":"noteOn","noteNumber":0,"velocity":95},{"deltaTime":0,"channel":4,"type":"noteOn","noteNumber":0,"velocity":95},{"deltaTime":7680,"channel":4,"type":"noteOff","noteNumber":55,"velocity":95},{"deltaTime":0,"channel":4,"type":"noteOff","noteNumber":0,"velocity":95},{"deltaTime":0,"channel":4,"type":"noteOff","noteNumber":0,"velocity":95},{"deltaTime":0,"channel":4,"type":"noteOn","noteNumber":55,"velocity":95},{"deltaTime":0,"channel":4,"type":"noteOn","noteNumber":0,"velocity":95},{"deltaTime":0,"channel":4,"type":"noteOn","noteNumber":0,"velocity":95},{"deltaTime":7680,"channel":4,"type":"noteOff","noteNumber":55,"velocity":95},{"deltaTime":0,"channel":4,"type":"noteOff","noteNumber":0,"velocity":95},{"deltaTime":0,"channel":4,"type":"noteOff","noteNumber":0,"velocity":95},{"deltaTime":0,"channel":4,"type":"noteOn","noteNumber":55,"velocity":95},{"deltaTime":0,"channel":4,"type":"noteOn","noteNumber":0,"velocity":95},{"deltaTime":0,"channel":4,"type":"noteOn","noteNumber":0,"velocity":95},{"deltaTime":7680,"channel":4,"type":"noteOff","noteNumber":55,"velocity":95},{"deltaTime":0,"channel":4,"type":"noteOff","noteNumber":0,"velocity":95},{"deltaTime":0,"channel":4,"type":"noteOff","noteNumber":0,"velocity":95},{"deltaTime":0,"channel":4,"type":"noteOn","noteNumber":55,"velocity":95},{"deltaTime":0,"channel":4,"type":"noteOn","noteNumber":0,"velocity":95},{"deltaTime":0,"channel":4,"type":"noteOn","noteNumber":0,"velocity":95},{"deltaTime":7680,"channel":4,"type":"noteOff","noteNumber":55,"velocity":95},{"deltaTime":0,"channel":4,"type":"noteOff","noteNumber":0,"velocity":95},{"deltaTime":0,"channel":4,"type":"noteOff","noteNumber":0,"velocity":95},{"deltaTime":0,"meta":true,"type":"endOfTrack"}]]}